<svg width="243" height="50" viewBox="0 0 243 50" fill="none" xmlns="http://www.w3.org/2000/svg">
<path d="M75.9484 22.2516L73.4484 29.1516H78.4484L75.9484 22.2516ZM80.3984 34.8516L79.3984 32.1516H72.4984L71.4984 34.8516H67.6484L73.7984 18.8516H78.0984L84.2484 34.8516H80.3984Z" fill="#494441"/>
<path d="M91.1484 26.8508C91.1484 21.9008 94.8484 18.5508 99.6984 18.5508C103.198 18.5508 105.248 20.4508 106.348 22.5008L103.448 23.9008C102.748 22.6008 101.298 21.6008 99.6984 21.6008C96.7484 21.6008 94.6484 23.8008 94.6484 26.8508C94.6484 29.8508 96.7484 32.1008 99.6984 32.1008C101.298 32.1008 102.748 31.0508 103.448 29.8008L106.348 31.2008C105.248 33.2008 103.198 35.1508 99.6984 35.1508C94.8484 35.1508 91.1484 31.7508 91.1484 26.8508Z" fill="#494441"/>
<path d="M108.148 34.8516V18.8516H111.548V31.8516H118.348V34.8516H108.148Z" fill="#494441"/>
<path d="M132.199 26.8508C132.199 23.8508 130.299 21.6008 127.349 21.6008C124.349 21.6008 122.449 23.8508 122.449 26.8508C122.449 29.8008 124.349 32.1008 127.349 32.1008C130.299 32.1008 132.199 29.8008 132.199 26.8508ZM118.949 26.8508C118.949 22.0008 122.499 18.5508 127.349 18.5508C132.149 18.5508 135.699 22.0008 135.699 26.8508C135.699 31.6508 132.149 35.1508 127.349 35.1508C122.499 35.1508 118.949 31.6508 118.949 26.8508Z" fill="#494441"/>
<path d="M137.852 28.4516V18.8516H141.302V28.3516C141.302 30.5516 142.602 32.1016 145.052 32.1016C147.552 32.1016 148.802 30.5516 148.802 28.3516V18.8516H152.302V28.4516C152.302 32.4016 149.952 35.1516 145.052 35.1516C140.202 35.1516 137.852 32.4016 137.852 28.4516Z" fill="#494441"/>
<path d="M166.652 26.8016C166.652 24.0016 164.952 21.8516 161.652 21.8516H158.752V31.8516H161.652C164.802 31.8516 166.652 29.5516 166.652 26.8016ZM155.352 34.8516V18.8516H161.652C166.652 18.8516 170.152 22.0016 170.152 26.8016C170.152 31.6516 166.652 34.8516 161.652 34.8516H155.352Z" fill="#494441"/>
<path d="M177.949 26.8508C177.949 21.8008 181.799 18.5508 186.499 18.5508C189.799 18.5508 191.899 20.2508 193.099 22.1508L190.299 23.7008C189.549 22.5508 188.199 21.6008 186.499 21.6008C183.599 21.6008 181.449 23.8008 181.449 26.8508C181.449 29.8508 183.599 32.1008 186.499 32.1008C187.899 32.1008 189.249 31.5008 189.899 30.9008V28.9508H185.649V26.0008H193.299V32.1508C191.649 33.9508 189.399 35.1508 186.499 35.1508C181.799 35.1508 177.949 31.9008 177.949 26.8508Z" fill="#494441"/>
<path d="M195.801 28.4516V18.8516H199.301V28.3516C199.301 30.5516 200.551 32.1016 203.051 32.1016C205.501 32.1016 206.801 30.5516 206.801 28.3516V18.8516H210.251V28.4516C210.251 32.4016 207.901 35.1516 203.051 35.1516C198.151 35.1516 195.801 32.4016 195.801 28.4516Z" fill="#494441"/>
<path d="M222.701 23.9516C222.701 22.6516 221.651 21.8516 220.301 21.8516H216.701V26.1516H220.301C221.651 26.1516 222.701 25.3516 222.701 23.9516ZM222.351 34.8516L219.201 29.1516H216.701V34.8516H213.301V18.8516H220.801C224.151 18.8516 226.201 21.0016 226.201 24.0016C226.201 26.8016 224.401 28.3516 222.651 28.7516L226.301 34.8516H222.351Z" fill="#494441"/>
<path d="M228.398 28.4516V18.8516H231.848V28.3516C231.848 30.5516 233.148 32.1016 235.598 32.1016C238.098 32.1016 239.348 30.5516 239.348 28.3516V18.8516H242.848V28.4516C242.848 32.4016 240.498 35.1516 235.598 35.1516C230.748 35.1516 228.398 32.4016 228.398 28.4516Z" fill="#494441"/>
<path d="M18.9 31.95C19 31.55 19.1 31.15 19.15 30.75L19.9 30.85C19.85 31.4 19.7 31.95 19.55 32.5L18.8 32.25C18.85 32.2 18.85 32.1 18.85 32.05C18.85 32.05 18.85 32.05 18.85 32H18.9C18.9 32 18.9 32 18.9 31.95ZM19.15 25.9L18.45 26.2C18.2 25.75 17.95 25.3 17.65 24.85L18.3 24.4C18.6 24.9 18.9 25.4 19.15 25.9ZM17.2 23.15L16.65 23.7C16.3 23.35 15.9 23 15.45 22.7L15.9 22.1C16.35 22.4 16.8 22.75 17.2 23.15ZM18.2 33.7L18.9 34.05C18.6 34.55 18.3 35 17.95 35.45L17.35 34.95C17.4 34.95 17.4 34.95 17.4 34.95C17.4 34.9 17.4 34.9 17.4 34.9C17.45 34.9 17.45 34.9 17.45 34.9V34.85C17.45 34.85 17.45 34.85 17.45 34.8C17.5 34.8 17.5 34.8 17.5 34.8C17.5 34.75 17.55 34.75 17.55 34.7C17.7 34.5 17.85 34.3 17.95 34.05L17.6 34.4C17.25 34 16.9 33.6 16.55 33.15L17.15 32.7C17.25 32.85 17.4 32.95 17.5 33.1C17.5 33.1 17.5 33.1 17.5 33.15C17.5 33.15 17.5 33.15 17.55 33.15V33.2C17.6 33.2 17.6 33.2 17.6 33.2C17.6 33.2 17.6 33.2 17.6 33.25C17.6 33.25 17.6 33.25 17.65 33.25C17.65 33.3 17.65 33.3 17.65 33.3C17.65 33.3 17.65 33.3 17.7 33.3V33.35C17.7 33.35 17.7 33.35 17.7 33.4H17.75V33.45C17.75 33.45 17.75 33.45 17.8 33.45V33.5H17.85V33.55C17.9 33.55 17.9 33.55 17.9 33.55C17.9 33.55 17.9 33.55 17.9 33.6C17.9 33.6 17.9 33.6 17.95 33.6C18 33.7 18.05 33.75 18.15 33.8V33.75C18.2 33.7 18.2 33.7 18.2 33.7ZM15.05 37C15.5 36.7 15.9 36.4 16.3 36.1L16.8 36.65C16.35 37.05 15.9 37.35 15.4 37.65L15.05 37ZM37.8 17.8H37.75L37.4 17H37.45C37.95 16.75 38.45 16.55 39 16.4H39.05L39.3 17.25H39.25C38.75 17.4 38.3 17.55 37.8 17.8ZM36.35 18.6L36.25 18.7H36.2V18.75H36.15L36.1 18.8H36.05C36.05 18.85 36.05 18.85 36.05 18.85H36C36 18.85 36 18.85 36 18.9H35.95C35.95 18.9 35.95 18.9 35.9 18.9L35.85 19H35.8V19.05H35.75L35.7 19.1V19.15H35.65L35.6 19.2H35.55L35.5 19.25H35.45V19.3C35.4 19.35 35.3 19.4 35.25 19.45L35.2 19.5L34.6 18.85L34.65 18.8C35.05 18.45 35.5 18.1 36 17.8L36.05 17.75L36.5 18.5L36.45 18.55V18.6H36.4H36.35ZM33.25 21.85L33.2 21.8L32.5 21.4V21.35C32.8 20.85 33.15 20.4 33.5 20L33.55 19.95L34.2 20.55H34.15V20.6L34.1 20.65V20.7H34.05V20.75H34C33.75 21.1 33.5 21.45 33.25 21.8V21.85ZM32 24.65H31.95L31.15 24.45V24.4C31.3 23.85 31.5 23.3 31.75 22.8V22.75L32.55 23.1V23.15C32.35 23.6 32.15 24.1 32.05 24.55L32 24.6V24.65ZM31.65 27.65V27.7L30.75 27.75V27.7C30.75 27.45 30.75 27.15 30.75 26.95C30.8 26.6 30.8 26.3 30.85 26V25.95L31.75 26.05L31.7 26.1C31.7 26.4 31.65 26.65 31.65 26.9V26.95C31.65 26.95 31.65 26.95 31.65 27C31.65 27.2 31.65 27.45 31.65 27.65ZM32.15 30.75H32.1L31.3 31V30.95C31.1 30.4 31 29.9 30.9 29.35V29.3L30.95 29.25L31.75 29.15L31.8 29.2C31.85 29.7 32 30.2 32.15 30.7V30.75ZM33.25 33.05C33.3 33.2 33.4 33.35 33.5 33.45V33.5L32.75 34V33.95C32.45 33.5 32.15 33 31.9 32.5V32.45L32.7 32.05V32.1C32.75 32.2 32.75 32.25 32.8 32.35H32.85V32.4H32.9V32.45L32.95 32.55L33 32.65L33.05 32.8H33.1V32.85V32.9H33.15V32.95L33.2 33V33.05H33.25ZM37.75 37.1C37.9 37.15 38.05 37.25 38.2 37.3H38.25L37.9 38.15L37.85 38.1C37.35 37.9 36.85 37.65 36.35 37.35H36.3L36.75 36.55L36.95 36.7H37L37.05 36.75L37.15 36.8H37.2L37.25 36.85H37.3V36.9H37.35H37.4V36.95H37.45L37.5 37H37.55H37.6V37.05H37.65H37.7V37.1H37.75ZM42.15 23.35L42.9 23.3C42.95 23.6 42.95 23.95 42.95 24.25C42.95 24.45 42.95 24.7 42.95 24.9H42.15C42.15 24.9 42.15 24.9 42.15 24.85C42.15 24.8 42.15 24.8 42.15 24.8V24.75C42.15 24.7 42.15 24.7 42.15 24.7V24.65C42.15 24.6 42.15 24.6 42.15 24.6C42.15 24.55 42.15 24.55 42.15 24.55C42.15 24.5 42.15 24.5 42.15 24.5C42.15 24.45 42.15 24.45 42.15 24.45V24.4V24.35C42.2 24.35 42.2 24.35 42.2 24.35C42.2 24.3 42.2 24.3 42.2 24.3C42.2 24.25 42.2 24.25 42.2 24.25C42.2 24.2 42.2 24.2 42.2 24.2C42.2 24.15 42.2 24.15 42.2 24.15C42.2 24.15 42.2 24.15 42.15 24.15C42.15 24.1 42.15 24.1 42.15 24.1C42.15 24.1 42.15 24.1 42.15 24.05C42.15 24.05 42.15 24.05 42.15 24C42.15 23.9 42.15 23.75 42.15 23.65C42.15 23.6 42.15 23.6 42.15 23.6C42.15 23.6 42.15 23.6 42.15 23.55C42.15 23.45 42.15 23.4 42.15 23.35ZM16.3 31.4L15.65 31.8C15.35 31.35 15.1 30.85 14.85 30.35L15.55 30.05C15.8 30.5 16.05 30.95 16.3 31.4ZM40.55 30.8C40.8 30.35 41 29.9 41.2 29.4L41.9 29.7C41.7 30.2 41.45 30.7 41.2 31.15L40.55 30.8ZM40.75 18.05H40.7C40.6 17.85 40.5 17.65 40.4 17.45L41.1 17.05C41.35 17.55 41.6 18.05 41.8 18.55L41.1 18.85C41 18.6 40.9 18.4 40.8 18.15C40.75 18.15 40.75 18.15 40.75 18.15V18.1C40.75 18.05 40.75 18.05 40.75 18.05ZM14.3 24.45C14.3 24.85 14.35 25.2 14.4 25.6L13.6 25.65C13.55 25.2 13.55 24.7 13.55 24.25V24L14.3 24.05C14.3 24.05 14.3 24.05 14.3 24.1C14.3 24.15 14.3 24.15 14.3 24.2V24.25C14.3 24.25 14.3 24.25 14.3 24.3V24.35V24.4C14.3 24.4 14.3 24.4 14.3 24.45ZM41.7 27.95C41.8 27.45 41.9 26.95 42 26.45L42.75 26.55C42.7 27.1 42.55 27.6 42.45 28.15L41.7 27.95ZM13.65 22.4C13.7 22.2 13.75 22.05 13.75 21.85C13.4 21.7 13 21.6 12.65 21.5L12.8 20.75C13.15 20.85 13.55 20.95 13.9 21.1C13.9 21 13.95 20.9 13.95 20.8L14.7 20.95C14.6 21.45 14.5 21.95 14.4 22.5L13.65 22.4ZM21.95 36.7C22.4 36.9 22.85 37.1 23.3 37.25L23 38C22.5 37.8 22 37.6 21.5 37.35L21.85 36.65H21.9C21.9 36.65 21.9 36.65 21.95 36.65C21.95 36.65 21.95 36.65 21.95 36.7ZM41.6 20.35C41.6 20.3 41.6 20.3 41.6 20.3L42.35 20.1C42.5 20.6 42.65 21.15 42.7 21.65L41.95 21.8C41.95 21.75 41.95 21.65 41.9 21.55C41.9 21.5 41.9 21.5 41.9 21.5C41.9 21.5 41.9 21.5 41.9 21.45V21.4C41.8 21.05 41.75 20.75 41.65 20.4C41.65 20.35 41.65 20.35 41.65 20.35H41.6ZM39.4 32.6C39.5 32.45 39.6 32.3 39.75 32.15L40.35 32.55C40.05 33 39.75 33.45 39.35 33.85L38.8 33.35C38.95 33.15 39.15 32.9 39.35 32.7C39.35 32.65 39.35 32.65 39.35 32.65H39.4C39.4 32.6 39.4 32.6 39.4 32.6ZM37.3 34.85C37.4 34.75 37.55 34.6 37.7 34.45L38.25 35.05C37.85 35.4 37.4 35.75 37 36.1L36.5 35.45C36.7 35.35 36.85 35.2 37 35.1C37 35.1 37 35.05 37.05 35.05C37.05 35 37.1 35 37.1 35C37.15 35 37.15 35 37.15 35C37.15 34.95 37.15 34.95 37.15 34.95C37.15 34.95 37.15 34.95 37.2 34.95C37.2 34.9 37.2 34.9 37.2 34.9H37.25C37.25 34.85 37.25 34.85 37.3 34.85ZM35.05 36.4C35.1 36.35 35.15 36.35 35.25 36.3L35.6 36.95C35.15 37.25 34.65 37.5 34.15 37.7L33.85 37C33.95 36.95 34.1 36.9 34.2 36.85H34.25C34.25 36.85 34.25 36.85 34.25 36.8C34.25 36.8 34.25 36.8 34.3 36.8C34.55 36.65 34.8 36.55 35 36.4C34.55 36.05 34.15 35.65 33.8 35.25L33.75 35.2H33.8L34.4 34.6L34.45 34.65C34.55 34.8 34.7 34.95 34.85 35.1H34.9V35.15H34.95V35.2H35V35.25C35.2 35.4 35.35 35.55 35.55 35.7L35.6 35.75L35.05 36.4ZM20.2 35.65C20.3 35.7 20.45 35.8 20.55 35.85L20.1 36.5C19.65 36.2 19.2 35.85 18.8 35.5L19.3 34.95C19.35 34.95 19.35 34.95 19.35 34.95C19.6 35.15 19.85 35.35 20.1 35.55C20.15 35.55 20.15 35.55 20.15 35.6C20.15 35.6 20.15 35.6 20.2 35.6V35.65ZM20.8 22.55C20.8 22.2 20.7 21.9 20.65 21.6L21.35 21.4C21.55 21.95 21.6 22.55 21.6 23.15H20.85C20.85 23.05 20.85 22.95 20.85 22.85C20.85 22.85 20.85 22.85 20.85 22.8C20.85 22.8 20.85 22.8 20.85 22.75C20.85 22.7 20.85 22.7 20.85 22.7C20.85 22.65 20.85 22.65 20.85 22.65H20.8C20.8 22.6 20.8 22.6 20.8 22.6C20.8 22.55 20.8 22.55 20.8 22.55ZM19 28C18.65 28.3 18.25 28.5 17.85 28.7L17.55 27.95C17.95 27.8 18.3 27.6 18.65 27.35H18.7C18.7 27.3 18.7 27.3 18.7 27.3H18.75C18.8 27.25 18.85 27.2 18.9 27.2L19.2 27.6L19.7 27.5C19.75 27.65 19.8 27.85 19.8 28.05C19.9 28.4 19.95 28.8 19.95 29.15L19.2 29.2C19.15 29.15 19.15 29.15 19.15 29.1C19.15 29.05 19.15 29.05 19.15 29.05C19.15 29.05 19.15 29.05 19.15 29C19.15 29 19.15 29 19.15 28.95C19.15 28.9 19.15 28.9 19.15 28.9C19.15 28.7 19.1 28.5 19.05 28.3C19.05 28.25 19.05 28.25 19.05 28.25C19.05 28.25 19.05 28.25 19.05 28.2C19.05 28.2 19.05 28.2 19.05 28.15C19.05 28.15 19.05 28.15 19.05 28.1C19.05 28.1 19 28.05 19 28ZM19.35 19.4C19.25 19.3 19.1 19.15 18.95 19.05L19.45 18.45C19.9 18.85 20.3 19.3 20.65 19.8L20 20.2C19.9 20.05 19.8 19.95 19.7 19.85C19.7 19.8 19.7 19.8 19.7 19.8C19.65 19.8 19.65 19.75 19.65 19.75C19.65 19.75 19.65 19.75 19.65 19.7C19.6 19.7 19.6 19.7 19.6 19.7V19.65H19.55V19.6H19.5V19.55H19.45V19.5C19.4 19.5 19.4 19.5 19.4 19.5C19.4 19.5 19.4 19.5 19.4 19.45C19.35 19.45 19.35 19.45 19.35 19.45V19.4ZM15.55 29.1C15.15 29.1 14.75 29.1 14.35 29L14.4 28.8L14.25 28.85C14.1 28.35 13.95 27.8 13.85 27.25L14.6 27.1C14.7 27.5 14.8 27.9 14.9 28.3C15.05 28.3 15.2 28.35 15.3 28.35C15.35 28.35 15.35 28.35 15.35 28.35C15.4 28.35 15.4 28.35 15.4 28.35H15.45H15.5C15.5 28.35 15.5 28.35 15.55 28.35C15.6 28.35 15.6 28.35 15.6 28.35H15.65C15.65 28.35 15.65 28.35 15.7 28.35C15.8 28.35 15.95 28.35 16.05 28.35L16.15 29.1C15.95 29.1 15.75 29.1 15.55 29.1ZM20.6 24.65L21.35 24.9C21.3 25.05 21.25 25.2 21.2 25.35C21 25.75 20.8 26.1 20.55 26.5L19.95 26.05C20.05 25.85 20.2 25.65 20.3 25.45C20.3 25.4 20.3 25.4 20.3 25.4V25.35C20.3 25.35 20.3 25.35 20.35 25.35V25.3C20.35 25.25 20.35 25.25 20.35 25.25H20.4V25.2V25.15C20.4 25.15 20.4 25.15 20.45 25.15V25.1V25.05C20.45 25.05 20.45 25.05 20.45 25C20.45 25 20.45 25 20.5 25C20.5 25 20.5 25 20.5 24.95C20.5 24.95 20.5 24.95 20.5 24.9C20.55 24.8 20.55 24.75 20.6 24.7V24.65ZM9.65 24.25L10.4 24.1C10.5 24.6 10.7 25.1 10.9 25.55L10.25 25.9C9.95 25.4 9.75 24.8 9.65 24.25ZM12.05 27C12.35 27.3 12.7 27.5 13.05 27.7L12.7 28.4C12.2 28.1 11.7 27.75 11.3 27.35L11.85 26.8V26.85C11.9 26.85 11.9 26.85 11.9 26.85C11.9 26.9 11.9 26.9 11.95 26.9L12 26.95C12.05 26.95 12.05 26.95 12.05 26.95C12.05 27 12.05 27 12.05 27ZM42.55 38.15C48.15 38.05 52.75 33.6 53 27.95C53.3 22.05 48.7 17.05 42.8 16.75C42.65 16.75 42.45 16.75 42.3 16.75C41.55 16.75 40.8 16.8 40.1 16.95C39.8 16.5 39.5 16.05 39.15 15.65C39.1 15.55 39.05 15.5 39 15.45C36.45 12.35 32.6 10.3 28.25 10.3C23.65 10.3 19.55 12.55 17.05 16.05C16.95 16.1 16.9 16.2 16.8 16.3C16.65 16.55 16.45 16.8 16.3 17.1C16.85 17.15 17.35 17.3 17.85 17.5L17.95 17.55L17.65 18.25C17.6 18.25 17.6 18.2 17.55 18.2C17.5 18.2 17.5 18.2 17.5 18.2V18.15C17.45 18.15 17.45 18.15 17.45 18.15C17.4 18.15 17.35 18.1 17.3 18.1C17.3 18.1 17.3 18.1 17.25 18.1C17.2 18.1 17.2 18.1 17.2 18.1V18.05H17.15C17.1 18.05 17.1 18.05 17.1 18.05C16.8 17.95 16.45 17.9 16.15 17.85L16.2 17.25C16.1 17.45 16 17.6 15.9 17.8C15.8 17.8 15.7 17.8 15.6 17.8C15.5 17.8 15.4 17.85 15.3 17.85L15.75 18.05C15.75 18.1 15.75 18.15 15.7 18.15C15.7 18.2 15.7 18.2 15.7 18.2C15.7 18.2 15.7 18.25 15.65 18.25C15.5 18.65 15.3 19.05 15.15 19.5L14.4 19.2C14.6 18.75 14.8 18.3 15 17.85C13 18.1 11.3 19.45 10.65 21.3C10.65 21.3 10.65 21.3 10.6 21.3V21.35C10.6 21.35 10.6 21.35 10.6 21.4C10.6 21.4 10.6 21.4 10.6 21.45H10.55C10.55 21.5 10.55 21.5 10.55 21.5C10.55 21.5 10.55 21.5 10.55 21.55C10.55 21.55 10.55 21.55 10.55 21.6C10.45 21.75 10.45 21.95 10.4 22.1C10.4 22.15 10.4 22.15 10.4 22.15C10.4 22.15 10.4 22.15 10.4 22.2C10.4 22.25 10.4 22.25 10.4 22.25C10.4 22.25 10.4 22.25 10.35 22.25V22.3V22.35V22.4C10.35 22.45 10.35 22.45 10.35 22.45C10.35 22.5 10.35 22.5 10.35 22.55L9.55 22.45C9.6 22.1 9.7 21.7 9.8 21.35C5.6 21.85 2.3 25.4 2.3 29.75C2.3 34.35 6.15 38.15 10.75 38.2H10.7H12.15V38.05C12.2 38 12.25 38 12.25 38H12.3C12.35 38 12.35 38 12.35 38H12.4C12.8 37.9 13.25 37.8 13.65 37.65L13.85 38.2H24.65L24.75 37.75C25 37.8 25.25 37.85 25.5 37.9H25.55H25.6C25.6 37.95 25.6 37.95 25.6 37.95C25.65 37.95 25.65 37.95 25.65 37.95C25.85 38 26.05 38 26.3 38.05L26.25 38.2H27.8V38.15C27.85 38.15 27.9 38.15 28 38.2C28.05 38.2 28.05 38.2 28.05 38.2C28.05 38.2 28.05 38.2 28.1 38.2C28.1 38.2 28.1 38.2 28.15 38.2H28.2H28.25H28.3C28.3 38.2 28.3 38.2 28.35 38.2C28.35 38.2 28.35 38.2 28.4 38.2H28.45C28.5 38.2 28.5 38.2 28.5 38.2C28.5 38.2 28.5 38.2 28.55 38.2V38.15C28.55 38.15 28.55 38.15 28.6 38.15C28.65 38.15 28.65 38.15 28.65 38.15H28.7C28.95 38.15 29.15 38.15 29.35 38.15V38.2H30.95L30.9 37.95C31.3 37.85 31.7 37.75 32.1 37.65H32.15C32.15 37.65 32.15 37.65 32.15 37.6C32.25 37.6 32.3 37.55 32.4 37.55L32.6 38.2H42L42.55 38.15ZM42.9 14.45C50.1 14.75 55.65 20.9 55.3 28.05C55 34.85 49.45 40.35 42.6 40.5H42H10.7C4.8 40.4 0 35.6 0 29.75C0 24.4 4 19.9 9.15 19.1C10.3 17.2 12.3 15.9 14.5 15.55C17.5 10.85 22.65 8 28.25 8C33.4 8 38.15 10.4 41.2 14.45C41.55 14.45 41.95 14.4 42.3 14.4C42.5 14.4 42.7 14.45 42.9 14.45Z" fill="#E8802E"/>
</svg>
