<svg width="243" height="33" viewBox="0 0 243 33" fill="none" xmlns="http://www.w3.org/2000/svg">
<g clip-path="url(#clip0)">
<path d="M75.9484 15.0016L73.4484 21.9016H78.4484L75.9484 15.0016ZM80.3984 27.6016L79.3984 24.9016H72.4984L71.4984 27.6016H67.6484L73.7984 11.6016H78.0984L84.2484 27.6016H80.3984Z" fill="#494441"/>
<path d="M91.1484 19.6008C91.1484 14.6508 94.8484 11.3008 99.6984 11.3008C103.198 11.3008 105.248 13.2008 106.348 15.2508L103.448 16.6508C102.748 15.3508 101.298 14.3508 99.6984 14.3508C96.7484 14.3508 94.6484 16.5508 94.6484 19.6008C94.6484 22.6008 96.7484 24.8508 99.6984 24.8508C101.298 24.8508 102.748 23.8008 103.448 22.5508L106.348 23.9508C105.248 25.9508 103.198 27.9008 99.6984 27.9008C94.8484 27.9008 91.1484 24.5008 91.1484 19.6008Z" fill="#494441"/>
<path d="M108.148 27.6016V11.6016H111.548V24.6016H118.348V27.6016H108.148Z" fill="#494441"/>
<path d="M132.199 19.6008C132.199 16.6008 130.299 14.3508 127.349 14.3508C124.349 14.3508 122.449 16.6008 122.449 19.6008C122.449 22.5508 124.349 24.8508 127.349 24.8508C130.299 24.8508 132.199 22.5508 132.199 19.6008ZM118.949 19.6008C118.949 14.7508 122.499 11.3008 127.349 11.3008C132.149 11.3008 135.699 14.7508 135.699 19.6008C135.699 24.4008 132.149 27.9008 127.349 27.9008C122.499 27.9008 118.949 24.4008 118.949 19.6008Z" fill="#494441"/>
<path d="M137.852 21.2016V11.6016H141.302V21.1016C141.302 23.3016 142.602 24.8516 145.052 24.8516C147.552 24.8516 148.802 23.3016 148.802 21.1016V11.6016H152.302V21.2016C152.302 25.1516 149.952 27.9016 145.052 27.9016C140.202 27.9016 137.852 25.1516 137.852 21.2016Z" fill="#494441"/>
<path d="M166.652 19.5516C166.652 16.7516 164.952 14.6016 161.652 14.6016H158.752V24.6016H161.652C164.802 24.6016 166.652 22.3016 166.652 19.5516ZM155.352 27.6016V11.6016H161.652C166.652 11.6016 170.152 14.7516 170.152 19.5516C170.152 24.4016 166.652 27.6016 161.652 27.6016H155.352Z" fill="#494441"/>
<path d="M177.949 19.6008C177.949 14.5508 181.799 11.3008 186.499 11.3008C189.799 11.3008 191.899 13.0008 193.099 14.9008L190.299 16.4508C189.549 15.3008 188.199 14.3508 186.499 14.3508C183.599 14.3508 181.449 16.5508 181.449 19.6008C181.449 22.6008 183.599 24.8508 186.499 24.8508C187.899 24.8508 189.249 24.2508 189.899 23.6508V21.7008H185.649V18.7508H193.299V24.9008C191.649 26.7008 189.399 27.9008 186.499 27.9008C181.799 27.9008 177.949 24.6508 177.949 19.6008Z" fill="#494441"/>
<path d="M195.801 21.2016V11.6016H199.301V21.1016C199.301 23.3016 200.551 24.8516 203.051 24.8516C205.501 24.8516 206.801 23.3016 206.801 21.1016V11.6016H210.251V21.2016C210.251 25.1516 207.901 27.9016 203.051 27.9016C198.151 27.9016 195.801 25.1516 195.801 21.2016Z" fill="#494441"/>
<path d="M222.701 16.7016C222.701 15.4016 221.651 14.6016 220.301 14.6016H216.701V18.9016H220.301C221.651 18.9016 222.701 18.1016 222.701 16.7016ZM222.351 27.6016L219.201 21.9016H216.701V27.6016H213.301V11.6016H220.801C224.151 11.6016 226.201 13.7516 226.201 16.7516C226.201 19.5516 224.401 21.1016 222.651 21.5016L226.301 27.6016H222.351Z" fill="#494441"/>
<path d="M228.398 21.2016V11.6016H231.848V21.1016C231.848 23.3016 233.148 24.8516 235.598 24.8516C238.098 24.8516 239.348 23.3016 239.348 21.1016V11.6016H242.848V21.2016C242.848 25.1516 240.498 27.9016 235.598 27.9016C230.748 27.9016 228.398 25.1516 228.398 21.2016Z" fill="#494441"/>
<path d="M18.9 24.7C19 24.3 19.1 23.9 19.15 23.5L19.9 23.6C19.85 24.15 19.7 24.7 19.55 25.25L18.8 25C18.85 24.95 18.85 24.85 18.85 24.8C18.85 24.8 18.85 24.8 18.85 24.75H18.9C18.9 24.75 18.9 24.75 18.9 24.7ZM19.15 18.65L18.45 18.95C18.2 18.5 17.95 18.05 17.65 17.6L18.3 17.15C18.6 17.65 18.9 18.15 19.15 18.65ZM17.2 15.9L16.65 16.45C16.3 16.1 15.9 15.75 15.45 15.45L15.9 14.85C16.35 15.15 16.8 15.5 17.2 15.9ZM18.2 26.45L18.9 26.8C18.6 27.3 18.3 27.75 17.95 28.2L17.35 27.7C17.4 27.7 17.4 27.7 17.4 27.7C17.4 27.65 17.4 27.65 17.4 27.65C17.45 27.65 17.45 27.65 17.45 27.65V27.6C17.45 27.6 17.45 27.6 17.45 27.55C17.5 27.55 17.5 27.55 17.5 27.55C17.5 27.5 17.55 27.5 17.55 27.45C17.7 27.25 17.85 27.05 17.95 26.8L17.6 27.15C17.25 26.75 16.9 26.35 16.55 25.9L17.15 25.45C17.25 25.6 17.4 25.7 17.5 25.85C17.5 25.85 17.5 25.85 17.5 25.9C17.5 25.9 17.5 25.9 17.55 25.9V25.95C17.6 25.95 17.6 25.95 17.6 25.95C17.6 25.95 17.6 25.95 17.6 26C17.6 26 17.6 26 17.65 26C17.65 26.05 17.65 26.05 17.65 26.05C17.65 26.05 17.65 26.05 17.7 26.05V26.1C17.7 26.1 17.7 26.1 17.7 26.15H17.75V26.2C17.75 26.2 17.75 26.2 17.8 26.2V26.25H17.85V26.3C17.9 26.3 17.9 26.3 17.9 26.3C17.9 26.3 17.9 26.3 17.9 26.35C17.9 26.35 17.9 26.35 17.95 26.35C18 26.45 18.05 26.5 18.15 26.55V26.5C18.2 26.45 18.2 26.45 18.2 26.45ZM15.05 29.75C15.5 29.45 15.9 29.15 16.3 28.85L16.8 29.4C16.35 29.8 15.9 30.1 15.4 30.4L15.05 29.75ZM37.8 10.55H37.75L37.4 9.75H37.45C37.95 9.5 38.45 9.3 39 9.15H39.05L39.3 10H39.25C38.75 10.15 38.3 10.3 37.8 10.55ZM36.35 11.35L36.25 11.45H36.2V11.5H36.15L36.1 11.55H36.05C36.05 11.6 36.05 11.6 36.05 11.6H36C36 11.6 36 11.6 36 11.65H35.95C35.95 11.65 35.95 11.65 35.9 11.65L35.85 11.75H35.8V11.8H35.75L35.7 11.85V11.9H35.65L35.6 11.95H35.55L35.5 12H35.45V12.05C35.4 12.1 35.3 12.15 35.25 12.2L35.2 12.25L34.6 11.6L34.65 11.55C35.05 11.2 35.5 10.85 36 10.55L36.05 10.5L36.5 11.25L36.45 11.3V11.35H36.4H36.35ZM33.25 14.6L33.2 14.55L32.5 14.15V14.1C32.8 13.6 33.15 13.15 33.5 12.75L33.55 12.7L34.2 13.3H34.15V13.35L34.1 13.4V13.45H34.05V13.5H34C33.75 13.85 33.5 14.2 33.25 14.55V14.6ZM32 17.4H31.95L31.15 17.2V17.15C31.3 16.6 31.5 16.05 31.75 15.55V15.5L32.55 15.85V15.9C32.35 16.35 32.15 16.85 32.05 17.3L32 17.35V17.4ZM31.65 20.4V20.45L30.75 20.5V20.45C30.75 20.2 30.75 19.9 30.75 19.7C30.8 19.35 30.8 19.05 30.85 18.75V18.7L31.75 18.8L31.7 18.85C31.7 19.15 31.65 19.4 31.65 19.65V19.7C31.65 19.7 31.65 19.7 31.65 19.75C31.65 19.95 31.65 20.2 31.65 20.4ZM32.15 23.5H32.1L31.3 23.75V23.7C31.1 23.15 31 22.65 30.9 22.1V22.05L30.95 22L31.75 21.9L31.8 21.95C31.85 22.45 32 22.95 32.15 23.45V23.5ZM33.25 25.8C33.3 25.95 33.4 26.1 33.5 26.2V26.25L32.75 26.75V26.7C32.45 26.25 32.15 25.75 31.9 25.25V25.2L32.7 24.8V24.85C32.75 24.95 32.75 25 32.8 25.1H32.85V25.15H32.9V25.2L32.95 25.3L33 25.4L33.05 25.55H33.1V25.6V25.65H33.15V25.7L33.2 25.75V25.8H33.25ZM37.75 29.85C37.9 29.9 38.05 30 38.2 30.05H38.25L37.9 30.9L37.85 30.85C37.35 30.65 36.85 30.4 36.35 30.1H36.3L36.75 29.3L36.95 29.45H37L37.05 29.5L37.15 29.55H37.2L37.25 29.6H37.3V29.65H37.35H37.4V29.7H37.45L37.5 29.75H37.55H37.6V29.8H37.65H37.7V29.85H37.75ZM42.15 16.1L42.9 16.05C42.95 16.35 42.95 16.7 42.95 17C42.95 17.2 42.95 17.45 42.95 17.65H42.15C42.15 17.65 42.15 17.65 42.15 17.6C42.15 17.55 42.15 17.55 42.15 17.55V17.5C42.15 17.45 42.15 17.45 42.15 17.45V17.4C42.15 17.35 42.15 17.35 42.15 17.35C42.15 17.3 42.15 17.3 42.15 17.3C42.15 17.25 42.15 17.25 42.15 17.25C42.15 17.2 42.15 17.2 42.15 17.2V17.15V17.1C42.2 17.1 42.2 17.1 42.2 17.1C42.2 17.05 42.2 17.05 42.2 17.05C42.2 17 42.2 17 42.2 17C42.2 16.95 42.2 16.95 42.2 16.95C42.2 16.9 42.2 16.9 42.2 16.9C42.2 16.9 42.2 16.9 42.15 16.9C42.15 16.85 42.15 16.85 42.15 16.85C42.15 16.85 42.15 16.85 42.15 16.8C42.15 16.8 42.15 16.8 42.15 16.75C42.15 16.65 42.15 16.5 42.15 16.4C42.15 16.35 42.15 16.35 42.15 16.35C42.15 16.35 42.15 16.35 42.15 16.3C42.15 16.2 42.15 16.15 42.15 16.1ZM16.3 24.15L15.65 24.55C15.35 24.1 15.1 23.6 14.85 23.1L15.55 22.8C15.8 23.25 16.05 23.7 16.3 24.15ZM40.55 23.55C40.8 23.1 41 22.65 41.2 22.15L41.9 22.45C41.7 22.95 41.45 23.45 41.2 23.9L40.55 23.55ZM40.75 10.8H40.7C40.6 10.6 40.5 10.4 40.4 10.2L41.1 9.8C41.35 10.3 41.6 10.8 41.8 11.3L41.1 11.6C41 11.35 40.9 11.15 40.8 10.9C40.75 10.9 40.75 10.9 40.75 10.9V10.85C40.75 10.8 40.75 10.8 40.75 10.8ZM14.3 17.2C14.3 17.6 14.35 17.95 14.4 18.35L13.6 18.4C13.55 17.95 13.55 17.45 13.55 17V16.75L14.3 16.8C14.3 16.8 14.3 16.8 14.3 16.85C14.3 16.9 14.3 16.9 14.3 16.95V17C14.3 17 14.3 17 14.3 17.05V17.1V17.15C14.3 17.15 14.3 17.15 14.3 17.2ZM41.7 20.7C41.8 20.2 41.9 19.7 42 19.2L42.75 19.3C42.7 19.85 42.55 20.35 42.45 20.9L41.7 20.7ZM13.65 15.15C13.7 14.95 13.75 14.8 13.75 14.6C13.4 14.45 13 14.35 12.65 14.25L12.8 13.5C13.15 13.6 13.55 13.7 13.9 13.85C13.9 13.75 13.95 13.65 13.95 13.55L14.7 13.7C14.6 14.2 14.5 14.7 14.4 15.25L13.65 15.15ZM21.95 29.45C22.4 29.65 22.85 29.85 23.3 30L23 30.75C22.5 30.55 22 30.35 21.5 30.1L21.85 29.4H21.9C21.9 29.4 21.9 29.4 21.95 29.4C21.95 29.4 21.95 29.4 21.95 29.45ZM41.6 13.1C41.6 13.05 41.6 13.05 41.6 13.05L42.35 12.85C42.5 13.35 42.65 13.9 42.7 14.4L41.95 14.55C41.95 14.5 41.95 14.4 41.9 14.3C41.9 14.25 41.9 14.25 41.9 14.25C41.9 14.25 41.9 14.25 41.9 14.2V14.15C41.8 13.8 41.75 13.5 41.65 13.15C41.65 13.1 41.65 13.1 41.65 13.1H41.6ZM39.4 25.35C39.5 25.2 39.6 25.05 39.75 24.9L40.35 25.3C40.05 25.75 39.75 26.2 39.35 26.6L38.8 26.1C38.95 25.9 39.15 25.65 39.35 25.45C39.35 25.4 39.35 25.4 39.35 25.4H39.4C39.4 25.35 39.4 25.35 39.4 25.35ZM37.3 27.6C37.4 27.5 37.55 27.35 37.7 27.2L38.25 27.8C37.85 28.15 37.4 28.5 37 28.85L36.5 28.2C36.7 28.1 36.85 27.95 37 27.85C37 27.85 37 27.8 37.05 27.8C37.05 27.75 37.1 27.75 37.1 27.75C37.15 27.75 37.15 27.75 37.15 27.75C37.15 27.7 37.15 27.7 37.15 27.7C37.15 27.7 37.15 27.7 37.2 27.7C37.2 27.65 37.2 27.65 37.2 27.65H37.25C37.25 27.6 37.25 27.6 37.3 27.6ZM35.05 29.15C35.1 29.1 35.15 29.1 35.25 29.05L35.6 29.7C35.15 30 34.65 30.25 34.15 30.45L33.85 29.75C33.95 29.7 34.1 29.65 34.2 29.6H34.25C34.25 29.6 34.25 29.6 34.25 29.55C34.25 29.55 34.25 29.55 34.3 29.55C34.55 29.4 34.8 29.3 35 29.15C34.55 28.8 34.15 28.4 33.8 28L33.75 27.95H33.8L34.4 27.35L34.45 27.4C34.55 27.55 34.7 27.7 34.85 27.85H34.9V27.9H34.95V27.95H35V28C35.2 28.15 35.35 28.3 35.55 28.45L35.6 28.5L35.05 29.15ZM20.2 28.4C20.3 28.45 20.45 28.55 20.55 28.6L20.1 29.25C19.65 28.95 19.2 28.6 18.8 28.25L19.3 27.7C19.35 27.7 19.35 27.7 19.35 27.7C19.6 27.9 19.85 28.1 20.1 28.3C20.15 28.3 20.15 28.3 20.15 28.35C20.15 28.35 20.15 28.35 20.2 28.35V28.4ZM20.8 15.3C20.8 14.95 20.7 14.65 20.65 14.35L21.35 14.15C21.55 14.7 21.6 15.3 21.6 15.9H20.85C20.85 15.8 20.85 15.7 20.85 15.6C20.85 15.6 20.85 15.6 20.85 15.55C20.85 15.55 20.85 15.55 20.85 15.5C20.85 15.45 20.85 15.45 20.85 15.45C20.85 15.4 20.85 15.4 20.85 15.4H20.8C20.8 15.35 20.8 15.35 20.8 15.35C20.8 15.3 20.8 15.3 20.8 15.3ZM19 20.75C18.65 21.05 18.25 21.25 17.85 21.45L17.55 20.7C17.95 20.55 18.3 20.35 18.65 20.1H18.7C18.7 20.05 18.7 20.05 18.7 20.05H18.75C18.8 20 18.85 19.95 18.9 19.95L19.2 20.35L19.7 20.25C19.75 20.4 19.8 20.6 19.8 20.8C19.9 21.15 19.95 21.55 19.95 21.9L19.2 21.95C19.15 21.9 19.15 21.9 19.15 21.85C19.15 21.8 19.15 21.8 19.15 21.8C19.15 21.8 19.15 21.8 19.15 21.75C19.15 21.75 19.15 21.75 19.15 21.7C19.15 21.65 19.15 21.65 19.15 21.65C19.15 21.45 19.1 21.25 19.05 21.05C19.05 21 19.05 21 19.05 21C19.05 21 19.05 21 19.05 20.95C19.05 20.95 19.05 20.95 19.05 20.9C19.05 20.9 19.05 20.9 19.05 20.85C19.05 20.85 19 20.8 19 20.75ZM19.35 12.15C19.25 12.05 19.1 11.9 18.95 11.8L19.45 11.2C19.9 11.6 20.3 12.05 20.65 12.55L20 12.95C19.9 12.8 19.8 12.7 19.7 12.6C19.7 12.55 19.7 12.55 19.7 12.55C19.65 12.55 19.65 12.5 19.65 12.5C19.65 12.5 19.65 12.5 19.65 12.45C19.6 12.45 19.6 12.45 19.6 12.45V12.4H19.55V12.35H19.5V12.3H19.45V12.25C19.4 12.25 19.4 12.25 19.4 12.25C19.4 12.25 19.4 12.25 19.4 12.2C19.35 12.2 19.35 12.2 19.35 12.2V12.15ZM15.55 21.85C15.15 21.85 14.75 21.85 14.35 21.75L14.4 21.55L14.25 21.6C14.1 21.1 13.95 20.55 13.85 20L14.6 19.85C14.7 20.25 14.8 20.65 14.9 21.05C15.05 21.05 15.2 21.1 15.3 21.1C15.35 21.1 15.35 21.1 15.35 21.1C15.4 21.1 15.4 21.1 15.4 21.1H15.45H15.5C15.5 21.1 15.5 21.1 15.55 21.1C15.6 21.1 15.6 21.1 15.6 21.1H15.65C15.65 21.1 15.65 21.1 15.7 21.1C15.8 21.1 15.95 21.1 16.05 21.1L16.15 21.85C15.95 21.85 15.75 21.85 15.55 21.85ZM20.6 17.4L21.35 17.65C21.3 17.8 21.25 17.95 21.2 18.1C21 18.5 20.8 18.85 20.55 19.25L19.95 18.8C20.05 18.6 20.2 18.4 20.3 18.2C20.3 18.15 20.3 18.15 20.3 18.15V18.1C20.3 18.1 20.3 18.1 20.35 18.1V18.05C20.35 18 20.35 18 20.35 18H20.4V17.95V17.9C20.4 17.9 20.4 17.9 20.45 17.9V17.85V17.8C20.45 17.8 20.45 17.8 20.45 17.75C20.45 17.75 20.45 17.75 20.5 17.75C20.5 17.75 20.5 17.75 20.5 17.7C20.5 17.7 20.5 17.7 20.5 17.65C20.55 17.55 20.55 17.5 20.6 17.45V17.4ZM9.65 17L10.4 16.85C10.5 17.35 10.7 17.85 10.9 18.3L10.25 18.65C9.95 18.15 9.75 17.55 9.65 17ZM12.05 19.75C12.35 20.05 12.7 20.25 13.05 20.45L12.7 21.15C12.2 20.85 11.7 20.5 11.3 20.1L11.85 19.55V19.6C11.9 19.6 11.9 19.6 11.9 19.6C11.9 19.65 11.9 19.65 11.95 19.65L12 19.7C12.05 19.7 12.05 19.7 12.05 19.7C12.05 19.75 12.05 19.75 12.05 19.75ZM42.55 30.9C48.15 30.8 52.75 26.35 53 20.7C53.3 14.8 48.7 9.8 42.8 9.5C42.65 9.5 42.45 9.5 42.3 9.5C41.55 9.5 40.8 9.55 40.1 9.7C39.8 9.25 39.5 8.8 39.15 8.4C39.1 8.3 39.05 8.25 39 8.2C36.45 5.1 32.6 3.05 28.25 3.05C23.65 3.05 19.55 5.3 17.05 8.8C16.95 8.85 16.9 8.95 16.8 9.05C16.65 9.3 16.45 9.55 16.3 9.85C16.85 9.9 17.35 10.05 17.85 10.25L17.95 10.3L17.65 11C17.6 11 17.6 10.95 17.55 10.95C17.5 10.95 17.5 10.95 17.5 10.95V10.9C17.45 10.9 17.45 10.9 17.45 10.9C17.4 10.9 17.35 10.85 17.3 10.85C17.3 10.85 17.3 10.85 17.25 10.85C17.2 10.85 17.2 10.85 17.2 10.85V10.8H17.15C17.1 10.8 17.1 10.8 17.1 10.8C16.8 10.7 16.45 10.65 16.15 10.6L16.2 10C16.1 10.2 16 10.35 15.9 10.55C15.8 10.55 15.7 10.55 15.6 10.55C15.5 10.55 15.4 10.6 15.3 10.6L15.75 10.8C15.75 10.85 15.75 10.9 15.7 10.9C15.7 10.95 15.7 10.95 15.7 10.95C15.7 10.95 15.7 11 15.65 11C15.5 11.4 15.3 11.8 15.15 12.25L14.4 11.95C14.6 11.5 14.8 11.05 15 10.6C13 10.85 11.3 12.2 10.65 14.05C10.65 14.05 10.65 14.05 10.6 14.05V14.1C10.6 14.1 10.6 14.1 10.6 14.15C10.6 14.15 10.6 14.15 10.6 14.2H10.55C10.55 14.25 10.55 14.25 10.55 14.25C10.55 14.25 10.55 14.25 10.55 14.3C10.55 14.3 10.55 14.3 10.55 14.35C10.45 14.5 10.45 14.7 10.4 14.85C10.4 14.9 10.4 14.9 10.4 14.9C10.4 14.9 10.4 14.9 10.4 14.95C10.4 15 10.4 15 10.4 15C10.4 15 10.4 15 10.35 15V15.05V15.1V15.15C10.35 15.2 10.35 15.2 10.35 15.2C10.35 15.25 10.35 15.25 10.35 15.3L9.55 15.2C9.6 14.85 9.7 14.45 9.8 14.1C5.6 14.6 2.3 18.15 2.3 22.5C2.3 27.1 6.15 30.9 10.75 30.95H10.7H12.15V30.8C12.2 30.75 12.25 30.75 12.25 30.75H12.3C12.35 30.75 12.35 30.75 12.35 30.75H12.4C12.8 30.65 13.25 30.55 13.65 30.4L13.85 30.95H24.65L24.75 30.5C25 30.55 25.25 30.6 25.5 30.65H25.55H25.6C25.6 30.7 25.6 30.7 25.6 30.7C25.65 30.7 25.65 30.7 25.65 30.7C25.85 30.75 26.05 30.75 26.3 30.8L26.25 30.95H27.8V30.9C27.85 30.9 27.9 30.9 28 30.95C28.05 30.95 28.05 30.95 28.05 30.95C28.05 30.95 28.05 30.95 28.1 30.95C28.1 30.95 28.1 30.95 28.15 30.95H28.2H28.25H28.3C28.3 30.95 28.3 30.95 28.35 30.95C28.35 30.95 28.35 30.95 28.4 30.95H28.45C28.5 30.95 28.5 30.95 28.5 30.95C28.5 30.95 28.5 30.95 28.55 30.95V30.9C28.55 30.9 28.55 30.9 28.6 30.9C28.65 30.9 28.65 30.9 28.65 30.9H28.7C28.95 30.9 29.15 30.9 29.35 30.9V30.95H30.95L30.9 30.7C31.3 30.6 31.7 30.5 32.1 30.4H32.15C32.15 30.4 32.15 30.4 32.15 30.35C32.25 30.35 32.3 30.3 32.4 30.3L32.6 30.95H42L42.55 30.9ZM42.9 7.2C50.1 7.5 55.65 13.65 55.3 20.8C55 27.6 49.45 33.1 42.6 33.25H42H10.7C4.8 33.15 0 28.35 0 22.5C0 17.15 4 12.65 9.15 11.85C10.3 9.95 12.3 8.65 14.5 8.3C17.5 3.6 22.65 0.75 28.25 0.75C33.4 0.75 38.15 3.15 41.2 7.2C41.55 7.2 41.95 7.15 42.3 7.15C42.5 7.15 42.7 7.2 42.9 7.2Z" fill="#E8802E"/>
</g>
<defs>
<clipPath id="clip0">
<rect width="243" height="33" fill="white"/>
</clipPath>
</defs>
</svg>
