<svg width="316" height="54" viewBox="0 0 316 54" fill="none" xmlns="http://www.w3.org/2000/svg">
<path fill-rule="evenodd" clip-rule="evenodd" d="M235.989 12.2442C237.124 12.2442 237.363 12.9248 237.363 13.497V15.6036H235.195C234.109 15.6036 233.882 14.9555 233.882 14.4119V12.2462H235.989V12.2442ZM235.805 19.1461C236.704 19.1461 237.18 19.5991 237.18 20.4589V38.1408H235.225V38.0719C234.525 38.0089 234.065 37.5007 234.065 36.767V19.1461H235.805ZM132.329 32.933C132.999 33.5406 133.191 33.7937 133.198 33.8045L133.276 33.908L133.187 34.0015C130.171 37.1599 127.143 38.5072 123.06 38.5072C115.731 38.5072 110.203 32.8227 110.203 25.2846C110.203 17.8352 115.877 12 123.121 12C128.092 12 130.835 13.9579 133.059 16.0733L133.167 16.1758L133.067 16.2861C133.062 16.292 132.508 16.9065 131.963 17.4521C131.342 18.1425 130.499 17.9731 129.983 17.5211C127.878 15.7542 125.677 14.9309 123.06 14.9309C117.575 14.9309 113.44 19.3302 113.44 25.1615C113.44 30.9662 117.666 35.5142 123.06 35.5142C125.778 35.5142 127.821 34.7461 130.108 32.862C130.672 32.3617 131.618 32.2219 132.329 32.933ZM178.76 18.6576C183.149 18.6576 185.875 21.5944 185.875 26.3227V38.0187H184.256C182.992 38.0187 182.821 37.2308 182.821 36.4607V26.9333C182.821 23.4587 181.118 21.4673 178.149 21.4673C175.641 21.4673 173.11 23.2135 173.11 27.1164V38.0187H171.431C170.544 38.0187 170.056 37.5302 170.056 36.6439V26.8722C170.056 23.4873 168.31 21.4673 165.385 21.4673C162.465 21.4673 160.346 23.8684 160.346 27.1775V36.6439C160.346 37.742 159.865 37.9577 159.032 37.9577H157.292V18.9629H158.971C159.883 18.9629 160.406 19.4848 160.406 20.3978V21.7402C161.578 20.0955 163.233 18.5364 166.301 18.5364C169.866 18.5364 171.568 20.6775 172.308 22.1144C173.96 19.7902 176.073 18.6576 178.759 18.6576H178.76ZM200.809 18.7186C205.205 18.7186 209.878 22.1755 209.878 28.5819C209.878 34.9893 205.205 38.4461 200.808 38.4461C197.974 38.4461 195.683 37.2495 193.815 34.7904V43.8214H192.075C191.215 43.8214 190.761 43.3458 190.761 42.4466V19.085H192.258C193.277 19.085 193.814 19.602 193.814 20.581V22.5408C195.684 19.9694 197.976 18.7186 200.809 18.7186ZM206.702 28.5819C206.702 23.9108 203.46 21.4673 200.258 21.4673C197.001 21.4673 193.632 24.1058 193.632 28.5208C193.632 32.9743 197 35.6364 200.258 35.6364C204.053 35.6364 206.702 32.736 206.702 28.5819ZM257.334 20.4598C257.334 19.5341 258.182 19.0239 258.769 19.0239H260.448V34.6289C260.448 40.5094 256.942 43.8815 250.829 43.8815C247.626 43.8815 244.742 42.9883 242.251 41.2273L242.145 41.1515L242.204 41.0343C242.211 41.0195 242.395 40.6532 242.881 39.8623C243.141 39.4389 243.475 39.2419 243.847 39.2468C244.153 39.2547 244.493 39.3876 244.985 39.69C246.753 40.6771 248.743 41.1951 250.768 41.1948C254.979 41.1948 257.394 38.8233 257.394 34.6899V32.928C255.394 35.3655 253.041 36.5523 250.218 36.5523C245.881 36.5523 241.271 33.4155 241.271 27.6039C241.271 25.0118 242.256 22.6669 244.045 21.0025C245.69 19.473 247.94 18.5955 250.218 18.5955C253.809 18.5955 256.041 20.4057 257.334 22.072V20.4598ZM257.456 27.727C257.456 23.6606 254.01 21.4664 250.769 21.4664C247.105 21.4664 244.446 24.0742 244.446 27.666C244.446 31.2351 247.164 33.9257 250.769 33.9257C254.056 33.9257 257.456 31.6073 257.456 27.727ZM274.833 18.7186C279.266 18.7186 282.131 21.7027 282.131 26.3217V38.0788H280.267C279.413 38.0788 279.016 37.6632 279.016 36.767V26.9943C279.016 23.571 277.132 21.5284 273.977 21.5284C270.758 21.5284 268.511 23.8763 268.511 27.2386L268.573 38.0788H265.457V19.085H267.136C267.851 19.085 268.572 19.4908 268.572 20.3978V22.0149C270.063 19.8266 272.167 18.7186 274.833 18.7186ZM221.33 18.8408C226.527 18.8408 229.422 21.5392 229.484 26.4428V38.0187H227.804C226.908 38.0187 226.491 37.6208 226.491 36.767V35.4817C224.817 37.4239 222.535 38.4461 219.864 38.4461C214.976 38.4461 212.748 35.3271 212.748 32.4297C212.748 28.6065 215.72 26.4142 220.902 26.4142H224.047V27.4828C224.047 28.3662 223.598 28.7956 222.673 28.7956H221.147C217.739 28.7956 215.863 30.0651 215.863 32.3686C215.863 34.8239 218.222 35.9417 220.413 35.9417C223.935 35.9417 226.49 33.8735 226.49 31.0253V26.5048C226.49 23.3336 224.571 21.5885 221.086 21.5885C219.515 21.5885 218.1 21.8682 216.499 22.4945C215.917 22.6886 215.209 22.6718 214.958 22.0425C214.767 21.5548 214.583 21.0643 214.406 20.5711L214.359 20.4392L214.487 20.3801C216.831 19.3155 218.942 18.8408 221.33 18.8408ZM144.435 18.8408C149.631 18.8408 152.527 21.5392 152.589 26.4428V38.0187H150.909C150.013 38.0187 149.596 37.6208 149.596 36.767V35.4817C147.923 37.4239 145.641 38.4461 142.969 38.4461C138.081 38.4461 135.854 35.3271 135.854 32.4297C135.854 28.6065 138.826 26.4142 144.008 26.4142H147.13V27.4828C147.13 28.3662 146.68 28.7956 145.757 28.7956H144.252C140.844 28.7956 138.969 30.0651 138.969 32.3686C138.969 34.8239 141.328 35.9417 143.519 35.9417C147.041 35.9417 149.596 33.8735 149.596 31.0253V26.5048C149.596 23.3336 147.676 21.5885 144.191 21.5885C142.62 21.5885 141.206 21.8682 139.604 22.4945C139.019 22.6905 138.314 22.6718 138.064 22.0425C137.872 21.5551 137.689 21.0646 137.512 20.5711L137.463 20.4372L137.594 20.3801C139.407 19.5804 141.49 18.8408 144.435 18.8408ZM313.524 25.8942C314.211 26.3768 314.562 26.9736 314.562 27.666V28.0097C314.554 28.5445 314.362 29.2969 313.524 29.9262L313.521 29.9282C313.117 30.2167 309.007 33.0639 304.656 36.0795C300.399 39.0292 295.603 42.353 295.017 42.7676V43.2473L294.733 42.7686C294.719 42.744 294.706 42.7233 294.721 42.6898H294.712V40.1864C294.712 39.3325 294.807 38.9218 295.757 38.2886C296.551 37.7784 309.115 29.0655 310.783 27.9112C309.128 26.7619 296.725 18.1514 295.875 17.5289L295.775 17.4561C295.146 17.0011 294.652 16.6426 294.652 15.6952V12.715L294.89 12.8824C295.632 13.3985 313.038 25.5308 313.524 25.8942ZM302.644 29.2644C302.214 29.2644 301.787 29.1147 301.338 28.8163C300.251 28.0905 294.674 24.2121 294.617 24.1727L294.552 24.1274V22.2148C294.552 21.7756 294.742 21.428 295.073 21.2595C295.429 21.0783 295.873 21.1374 296.261 21.4191C297.1 21.9588 305.215 27.5902 305.297 27.6483L305.481 27.7753L305.294 27.9004C305.294 27.9004 304.746 28.2658 304.137 28.6912C303.616 29.0733 303.128 29.2644 302.644 29.2644ZM43.5855 33.7258C44.1813 34.3216 44.4866 34.5678 44.4895 34.5708L44.6126 34.6692L44.5102 34.7894C43.0261 36.5198 40.8121 38.5072 36.8205 38.5072C31.4492 38.5072 27.0784 34.0823 27.0784 28.643C27.0784 23.0776 31.3576 18.7186 36.8205 18.7186C39.8903 18.7186 42.2234 19.7508 44.3842 22.0652L44.4787 22.1676L44.3852 22.271C44.0454 22.6473 43.6973 23.016 43.3412 23.377C42.7424 23.9738 42.1141 23.9393 41.3026 23.2637C40.2074 22.3754 38.808 21.4664 36.7595 21.4664C33.1126 21.4664 30.2545 24.5923 30.2545 28.5819C30.2545 32.5725 33.1923 35.6984 36.9417 35.6984C38.672 35.6984 40.2606 35.0533 41.665 33.7829C42.0776 33.452 42.9355 33.0758 43.5855 33.7267V33.7258ZM63.8773 12.2452C64.7124 12.2452 65.2511 12.8086 65.2511 13.6811V15.6045H63.0835C61.9982 15.6045 61.7697 14.9565 61.7697 14.4129V12.2462H63.8773V12.2452ZM63.633 19.147C64.5322 19.147 65.0069 19.6001 65.0069 20.4598V38.1418H63.053V38.0729C62.3517 38.0098 61.8918 37.5017 61.8918 36.768V19.1461H63.633V19.147ZM83.7082 20.1545C84.0086 19.4336 84.5542 19.084 85.3755 19.084H87.5028L87.4092 19.2977C87.3344 19.4691 79.9539 36.4075 79.6516 37.0723C79.3315 37.7774 78.8696 38.0788 78.1083 38.0788H77.741C76.9551 38.0788 76.4666 37.9281 76.1347 37.1304C75.8343 36.4686 68.4529 19.408 68.379 19.2357L68.2864 19.022H70.4728C71.307 19.022 71.889 19.4041 72.2022 20.1545C72.4238 20.8193 77.0516 32.0476 77.9242 34.166C78.7987 32.0486 83.4334 20.8144 83.7082 20.1545ZM102.844 27.4523C103.021 27.4523 103.152 27.405 103.228 27.3114C103.334 27.1864 103.36 26.9589 103.304 26.6536C103.052 23.508 100.781 21.4043 97.6517 21.4043C94.5474 21.4043 92.1237 23.96 91.7573 27.6187C91.7564 27.6295 91.6973 28.0511 91.6973 28.642C91.6973 29.1738 91.7564 29.5943 91.7564 29.5983C92.1464 33.321 94.7355 35.8186 98.2012 35.8186C100.213 35.8186 101.858 35.2129 103.229 33.9651C103.593 33.6007 104.286 33.3752 105.015 33.9582C105.508 34.3895 105.935 34.7559 105.935 34.7559L106.055 34.8583L105.949 34.9745C103.722 37.417 101.314 38.5062 98.1401 38.5062C92.7264 38.5062 88.6433 34.2389 88.6433 28.5819C88.6433 22.923 92.5689 18.6566 97.7738 18.6566C102.526 18.6566 106.023 21.877 106.477 26.6733C106.553 27.6985 106.321 28.5317 105.807 29.0852C105.309 29.6219 104.558 29.8947 103.577 29.8947C101.906 29.8947 97.8742 29.9006 94.4017 29.9558L94.247 29.9577V28.7641C94.247 27.9427 94.7375 27.4513 95.5598 27.4513H102.844V27.4523ZM15.0327 13.1867C15.3952 13.9727 26.0414 37.6248 26.1497 37.8631L26.2462 38.0788H24.4223C24.0342 38.0788 22.8544 38.0788 22.3895 37.0733C22.0527 36.3415 14.2645 18.6645 13.1221 16.0714L7.55576 28.5514H15.795V29.9262C15.795 30.8214 15.145 31.4222 14.1769 31.4222H6.31977C6.02333 32.0761 4.1925 36.1012 3.85568 36.83C3.38295 37.7085 2.83144 38.0798 2.00712 38.0798H0L0.0965151 37.8631C0.204848 37.6228 10.9712 13.6723 11.2125 13.1286C11.5473 12.5239 12.0861 12.1832 12.6957 12.1832H13.4284C14.2527 12.1832 14.6565 12.4363 15.0308 13.1838L15.0327 13.1877V13.1867ZM57.3615 35.3902C57.5339 35.5182 57.7387 35.7762 57.7387 36.2765C57.7387 36.9492 57.6796 37.4918 57.6776 37.5155L57.6678 37.5972L57.5939 37.6346C56.6248 38.1201 55.0757 38.4451 53.7383 38.4451C50.2529 38.4451 48.3334 36.5247 48.3334 33.0393V12.3053H49.8304C50.7758 12.3053 51.3864 12.8686 51.3864 13.7412V19.1461H55.6932C56.4722 19.1461 57.3113 19.5952 57.3113 20.581V21.8938H51.3874L51.4485 32.6129C51.4485 34.5786 52.4452 35.5753 54.4099 35.5753C55.055 35.5753 55.5179 35.462 56.2023 35.2759C56.6554 35.14 57.0789 35.1814 57.3615 35.3911V35.3902Z" fill="#0053B4"/>
</svg>
