<svg width="320" height="33" viewBox="0 0 320 33" fill="none" xmlns="http://www.w3.org/2000/svg">
<path fill-rule="evenodd" clip-rule="evenodd" d="M239.62 0.248C240.772 0.248 241.015 0.939 241.015 1.52V3.659H238.813C237.711 3.659 237.48 3.001 237.48 2.449V0.25H239.62V0.248ZM239.433 7.256C240.346 7.256 240.829 7.716 240.829 8.589V26.543H238.844V26.473C238.133 26.409 237.666 25.893 237.666 25.148V7.256H239.433V7.256ZM134.365 21.255C135.045 21.872 135.24 22.129 135.247 22.14L135.326 22.245L135.236 22.34C132.174 25.547 129.099 26.915 124.953 26.915C117.511 26.915 111.898 21.143 111.898 13.489C111.898 5.925 117.66 0 125.015 0C130.063 0 132.848 1.988 135.106 4.136L135.216 4.24L135.114 4.352C135.109 4.358 134.547 4.982 133.993 5.536C133.363 6.237 132.507 6.065 131.983 5.606C129.845 3.812 127.611 2.976 124.953 2.976C119.384 2.976 115.185 7.443 115.185 13.364C115.185 19.258 119.476 23.876 124.953 23.876C127.713 23.876 129.787 23.096 132.11 21.183C132.682 20.675 133.643 20.533 134.365 21.255ZM181.51 6.76C185.967 6.76 188.735 9.742 188.735 14.543V26.419H187.091C185.807 26.419 185.634 25.619 185.634 24.837V15.163C185.634 11.635 183.904 9.613 180.89 9.613C178.343 9.613 175.773 11.386 175.773 15.349V26.419H174.068C173.168 26.419 172.672 25.923 172.672 25.023V15.101C172.672 11.664 170.899 9.613 167.929 9.613C164.964 9.613 162.813 12.051 162.813 15.411V25.023C162.813 26.138 162.324 26.357 161.479 26.357H159.712V7.07H161.417C162.343 7.07 162.874 7.6 162.874 8.527V9.89C164.064 8.22 165.744 6.637 168.859 6.637C172.479 6.637 174.208 8.811 174.959 10.27C176.636 7.91 178.782 6.76 181.509 6.76H181.51ZM203.898 6.822C208.362 6.822 213.107 10.332 213.107 16.837C213.107 23.343 208.362 26.853 203.897 26.853C201.02 26.853 198.694 25.638 196.797 23.141V32.311H195.03C194.157 32.311 193.696 31.828 193.696 30.915V7.194H195.216C196.25 7.194 196.796 7.719 196.796 8.713V10.703C198.695 8.092 201.022 6.822 203.898 6.822V6.822ZM209.882 16.837C209.882 12.094 206.59 9.613 203.339 9.613C200.032 9.613 196.611 12.292 196.611 16.775C196.611 21.297 200.031 24 203.339 24C207.192 24 209.882 21.055 209.882 16.837ZM261.293 8.59C261.293 7.65 262.154 7.132 262.75 7.132H264.455V22.977C264.455 28.948 260.895 32.372 254.688 32.372C251.436 32.372 248.507 31.465 245.978 29.677L245.87 29.6L245.93 29.481C245.937 29.466 246.124 29.094 246.618 28.291C246.882 27.861 247.221 27.661 247.598 27.666C247.909 27.674 248.254 27.809 248.754 28.116C250.549 29.1183 252.57 29.6443 254.626 29.644C258.902 29.644 261.354 27.236 261.354 23.039V21.25C259.323 23.725 256.934 24.93 254.068 24.93C249.664 24.93 244.983 21.745 244.983 15.844C244.983 13.212 245.983 10.831 247.8 9.141C249.47 7.588 251.754 6.697 254.068 6.697C257.714 6.697 259.98 8.535 261.293 10.227V8.59ZM261.417 15.969C261.417 11.84 257.918 9.612 254.627 9.612C250.907 9.612 248.207 12.26 248.207 15.907C248.207 19.531 250.967 22.263 254.627 22.263C257.965 22.263 261.417 19.909 261.417 15.969V15.969ZM279.061 6.822C283.562 6.822 286.471 9.852 286.471 14.542V26.48H284.579C283.712 26.48 283.309 26.058 283.309 25.148V15.225C283.309 11.749 281.396 9.675 278.192 9.675C274.924 9.675 272.642 12.059 272.642 15.473L272.705 26.48H269.541V7.194H271.246C271.972 7.194 272.704 7.606 272.704 8.527V10.169C274.218 7.947 276.354 6.822 279.061 6.822V6.822ZM224.735 6.946C230.012 6.946 232.952 9.686 233.015 14.665V26.419H231.309C230.399 26.419 229.975 26.015 229.975 25.148V23.843C228.276 25.815 225.959 26.853 223.247 26.853C218.283 26.853 216.021 23.686 216.021 20.744C216.021 16.862 219.039 14.636 224.301 14.636H227.494V15.721C227.494 16.618 227.038 17.054 226.099 17.054H224.549C221.089 17.054 219.184 18.343 219.184 20.682C219.184 23.175 221.579 24.31 223.804 24.31C227.38 24.31 229.974 22.21 229.974 19.318V14.728C229.974 11.508 228.026 9.736 224.487 9.736C222.892 9.736 221.455 10.02 219.83 10.656C219.239 10.853 218.52 10.836 218.265 10.197C218.071 9.70178 217.884 9.20372 217.705 8.703L217.657 8.569L217.787 8.509C220.167 7.428 222.31 6.946 224.735 6.946V6.946ZM146.657 6.946C151.933 6.946 154.874 9.686 154.937 14.665V26.419H153.231C152.321 26.419 151.897 26.015 151.897 25.148V23.843C150.199 25.815 147.882 26.853 145.169 26.853C140.205 26.853 137.944 23.686 137.944 20.744C137.944 16.862 140.962 14.636 146.224 14.636H149.394V15.721C149.394 16.618 148.937 17.054 147.999 17.054H146.471C143.011 17.054 141.107 18.343 141.107 20.682C141.107 23.175 143.502 24.31 145.727 24.31C149.303 24.31 151.897 22.21 151.897 19.318V14.728C151.897 11.508 149.948 9.736 146.409 9.736C144.814 9.736 143.378 10.02 141.752 10.656C141.158 10.855 140.442 10.836 140.188 10.197C139.993 9.70207 139.807 9.20401 139.628 8.703L139.578 8.567L139.711 8.509C141.552 7.697 143.667 6.946 146.657 6.946V6.946ZM318.347 14.108C319.045 14.598 319.401 15.204 319.401 15.907V16.256C319.393 16.799 319.198 17.563 318.347 18.202L318.344 18.204C317.934 18.497 313.761 21.388 309.343 24.45C305.021 27.445 300.151 30.82 299.556 31.241V31.728L299.267 31.242C299.253 31.217 299.24 31.196 299.255 31.162H299.246V28.62C299.246 27.753 299.342 27.336 300.307 26.693C301.113 26.175 313.871 17.328 315.564 16.156C313.884 14.989 301.29 6.246 300.427 5.614L300.325 5.54C299.687 5.078 299.185 4.714 299.185 3.752V0.726L299.427 0.896C300.18 1.42 317.854 13.739 318.347 14.108V14.108ZM307.3 17.53C306.863 17.53 306.43 17.378 305.974 17.075C304.87 16.338 299.207 12.4 299.15 12.36L299.084 12.314V10.372C299.084 9.926 299.276 9.573 299.613 9.402C299.974 9.218 300.425 9.278 300.819 9.564C301.671 10.112 309.911 15.83 309.994 15.889L310.181 16.018L309.991 16.145C309.991 16.145 309.434 16.516 308.816 16.948C308.287 17.336 307.792 17.53 307.3 17.53V17.53ZM44.256 22.06C44.861 22.665 45.171 22.915 45.174 22.918L45.299 23.018L45.195 23.14C43.688 24.897 41.44 26.915 37.387 26.915C31.933 26.915 27.495 22.422 27.495 16.899C27.495 11.248 31.84 6.822 37.387 6.822C40.504 6.822 42.873 7.87 45.067 10.22L45.163 10.324L45.068 10.429C44.723 10.8111 44.3696 11.1855 44.008 11.552C43.4 12.158 42.762 12.123 41.938 11.437C40.826 10.535 39.405 9.612 37.325 9.612C33.622 9.612 30.72 12.786 30.72 16.837C30.72 20.889 33.703 24.063 37.51 24.063C39.267 24.063 40.88 23.408 42.306 22.118C42.725 21.782 43.596 21.4 44.256 22.061V22.06ZM64.86 0.249C65.708 0.249 66.255 0.821 66.255 1.707V3.66H64.054C62.952 3.66 62.72 3.002 62.72 2.45V0.25H64.86V0.249ZM64.612 7.257C65.525 7.257 66.007 7.717 66.007 8.59V26.544H64.023V26.474C63.311 26.41 62.844 25.894 62.844 25.149V7.256H64.612V7.257ZM84.996 8.28C85.301 7.548 85.855 7.193 86.689 7.193H88.849L88.754 7.41C88.678 7.584 81.184 24.783 80.877 25.458C80.552 26.174 80.083 26.48 79.31 26.48H78.937C78.139 26.48 77.643 26.327 77.306 25.517C77.001 24.845 69.506 7.522 69.431 7.347L69.337 7.13H71.557C72.404 7.13 72.995 7.518 73.313 8.28C73.538 8.955 78.237 20.356 79.123 22.507C80.011 20.357 84.717 8.95 84.996 8.28V8.28ZM104.426 15.69C104.606 15.69 104.739 15.642 104.816 15.547C104.924 15.42 104.95 15.189 104.893 14.879C104.637 11.685 102.331 9.549 99.154 9.549C96.002 9.549 93.541 12.144 93.169 15.859C93.168 15.87 93.108 16.298 93.108 16.898C93.108 17.438 93.168 17.865 93.168 17.869C93.564 21.649 96.193 24.185 99.712 24.185C101.755 24.185 103.425 23.57 104.817 22.303C105.187 21.933 105.89 21.704 106.631 22.296C107.131 22.734 107.565 23.106 107.565 23.106L107.687 23.21L107.579 23.328C105.318 25.808 102.873 26.914 99.65 26.914C94.153 26.914 90.007 22.581 90.007 16.837C90.007 11.091 93.993 6.759 99.278 6.759C104.103 6.759 107.654 10.029 108.115 14.899C108.192 15.94 107.957 16.786 107.435 17.348C106.929 17.893 106.167 18.17 105.17 18.17C103.474 18.17 99.38 18.176 95.854 18.232L95.697 18.234V17.022C95.697 16.188 96.195 15.689 97.03 15.689H104.426V15.69ZM15.264 1.205C15.632 2.003 26.442 26.019 26.552 26.261L26.65 26.48H24.798C24.404 26.48 23.206 26.48 22.734 25.459C22.392 24.716 14.484 6.767 13.324 4.134L7.672 16.806H16.038V18.202C16.038 19.111 15.378 19.721 14.395 19.721H6.417C6.116 20.385 4.257 24.472 3.915 25.212C3.435 26.104 2.875 26.481 2.038 26.481H0L0.098 26.261C0.208 26.017 11.14 1.698 11.385 1.146C11.725 0.532 12.272 0.186 12.891 0.186H13.635C14.472 0.186 14.882 0.443 15.262 1.202L15.264 1.206V1.205ZM58.244 23.75C58.419 23.88 58.627 24.142 58.627 24.65C58.627 25.333 58.567 25.884 58.565 25.908L58.555 25.991L58.48 26.029C57.496 26.522 55.923 26.852 54.565 26.852C51.026 26.852 49.077 24.902 49.077 21.363V0.31H50.597C51.557 0.31 52.177 0.882 52.177 1.768V7.256H56.55C57.341 7.256 58.193 7.712 58.193 8.713V10.046H52.178L52.24 20.93C52.24 22.926 53.252 23.938 55.247 23.938C55.902 23.938 56.372 23.823 57.067 23.634C57.527 23.496 57.957 23.538 58.244 23.751V23.75Z" fill="#0053B4"/>
</svg>
