<svg width="360" height="222" viewBox="0 0 360 222" fill="none" xmlns="http://www.w3.org/2000/svg">
<g clip-path="url(#clip0)">
<path fill-rule="evenodd" clip-rule="evenodd" d="M313.19 178.937C275.491 206.724 220.849 221.55 173.803 221.55C107.837 221.55 48.4499 197.151 3.52166 156.572C-0.00820625 153.381 3.15454 149.032 7.39041 151.517C55.8767 179.728 115.828 196.699 177.756 196.699C219.522 196.699 265.467 188.058 307.712 170.126C314.094 167.415 319.431 174.306 313.19 178.937" fill="#38CADE"/>
<path fill-rule="evenodd" clip-rule="evenodd" d="M328.863 161.005C324.063 154.848 297.01 158.096 284.867 159.536C281.168 159.988 280.603 156.769 283.935 154.453C305.481 139.289 340.837 143.666 344.959 148.749C349.082 153.86 343.886 189.3 323.639 206.215C320.533 208.813 317.568 207.429 318.951 203.984C323.498 192.632 333.692 167.189 328.863 161.005" fill="#38CADE"/>
<path d="M15.5 33H25.3L26.7 41.4H27.4C28.7067 39.9067 30.3867 38.2733 32.44 36.5C36.8267 33.2333 41.4467 31.6 46.3 31.6C51.7133 31.6 56.4267 33.2333 60.44 36.5C62.3067 38.18 63.66 39.8133 64.5 41.4C65.8067 40 67.72 38.3667 70.24 36.5C75.4667 33.2333 80.5533 31.6 85.5 31.6C89.7 31.6 93.48 32.6267 96.84 34.68C100.293 36.64 103 39.44 104.96 43.08C106.92 46.72 107.9 50.8267 107.9 55.4V103H93.9V55.4C93.9 51.5733 92.7333 48.4 90.4 45.88C88.0667 43.36 85.2667 42.1 82 42.1C79.1067 42.1 76.0267 43.2667 72.76 45.6C71.7333 46.2533 70.38 47.42 68.7 49.1V103H54.7V55.4C54.7 51.5733 53.5333 48.4 51.2 45.88C48.8667 43.36 46.0667 42.1 42.8 42.1C39.8133 42.1 36.7333 43.5 33.56 46.3C32.3467 47.3267 30.9933 48.7267 29.5 50.5V103H15.5V33ZM151.956 104.4C144.956 104.4 139.216 102.207 134.736 97.82C130.35 93.34 128.156 87.6 128.156 80.6V33H142.156V80.6C142.156 84.52 143.37 87.74 145.796 90.26C148.316 92.6867 151.536 93.9 155.456 93.9C158.91 93.9 162.41 92.5 165.956 89.7C167.45 88.4867 168.85 87.0867 170.156 85.5V33H184.156V103H174.356L172.956 94.6H172.256C170.95 96.4667 169.316 98.1 167.356 99.5C163.25 102.767 158.116 104.4 151.956 104.4ZM225.429 104.4C217.776 104.4 211.336 103.14 206.109 100.62C203.402 99.4067 201.209 98.1 199.529 96.7L204.429 88.3H205.829C206.856 89.2333 208.489 90.3067 210.729 91.52C215.022 93.5733 219.456 94.6 224.029 94.6C229.629 94.6 233.689 93.7133 236.209 91.94C238.822 90.1667 240.129 87.7867 240.129 84.8C240.129 81.72 238.776 79.3867 236.069 77.8C233.456 76.2133 229.349 74.4867 223.749 72.62C218.802 70.94 214.836 69.4 211.849 68C208.862 66.6 206.296 64.5933 204.149 61.98C202.002 59.3667 200.929 56.0067 200.929 51.9C200.929 45.6467 203.122 40.7 207.509 37.06C211.989 33.42 218.662 31.6 227.529 31.6C234.156 31.6 240.176 32.9067 245.589 35.52C248.202 36.7333 250.349 37.9933 252.029 39.3L247.129 47.7H245.729C244.329 46.6733 242.742 45.6467 240.969 44.62C236.862 42.4733 232.849 41.4 228.929 41.4C224.262 41.4 220.762 42.2867 218.429 44.06C216.096 45.74 214.929 47.8867 214.929 50.5C214.929 53.58 216.236 55.9133 218.849 57.5C221.556 59.0867 225.709 60.8133 231.309 62.68C236.256 64.36 240.222 65.9 243.209 67.3C246.196 68.7 248.762 70.7067 250.909 73.32C253.056 75.9333 254.129 79.2933 254.129 83.4C254.129 90.0267 251.796 95.2067 247.129 98.94C242.462 102.58 235.229 104.4 225.429 104.4ZM276.523 21.8C274.097 21.8 272.09 21.0067 270.503 19.42C268.917 17.8333 268.123 15.8267 268.123 13.4C268.123 10.9733 268.917 8.96666 270.503 7.38C272.09 5.79333 274.097 4.99999 276.523 4.99999C278.95 4.99999 280.957 5.79333 282.543 7.38C284.13 8.96666 284.923 10.9733 284.923 13.4C284.923 15.8267 284.13 17.8333 282.543 19.42C280.957 21.0067 278.95 21.8 276.523 21.8ZM269.523 103V33H283.523V103H269.523ZM331.823 104.4C322.117 104.4 314.557 101.32 309.143 95.16C303.73 89 301.023 79.9467 301.023 68C301.023 56.0533 303.637 47 308.863 40.84C314.183 34.68 321.37 31.6 330.423 31.6C336.583 31.6 342.183 32.9067 347.223 35.52C349.65 36.64 351.75 37.9 353.523 39.3L348.623 47.7H347.223C346.01 46.7667 344.47 45.74 342.603 44.62C338.683 42.4733 335.09 41.4 331.823 41.4C326.597 41.4 322.49 43.5 319.503 47.7C316.517 51.9 315.023 58.6667 315.023 68C315.023 77.4267 316.563 84.24 319.643 88.44C322.817 92.5467 327.343 94.6 333.223 94.6C336.677 94.6 340.27 93.5733 344.003 91.52C345.963 90.4 347.503 89.3267 348.623 88.3H350.023L354.923 96.7C353.243 98.1 351.143 99.4067 348.623 100.62C343.77 103.14 338.17 104.4 331.823 104.4Z" fill="#38CADE"/>
</g>
<defs>
<clipPath id="clip0">
<rect width="360" height="222" fill="white"/>
</clipPath>
</defs>
</svg>
