<svg width="3785" height="1300" viewBox="0 0 3785 1300" fill="none" xmlns="http://www.w3.org/2000/svg">
<path d="M979.042 981.187C961.088 1022.66 939.836 1060.84 915.214 1095.95C881.651 1143.8 854.17 1176.92 832.992 1195.32C800.162 1225.51 764.986 1240.97 727.32 1241.85C700.279 1241.85 667.668 1234.16 629.709 1218.55C591.624 1203.01 556.625 1195.32 524.623 1195.32C491.06 1195.32 455.064 1203.01 416.562 1218.55C378.001 1234.16 346.937 1242.29 323.186 1243.1C287.066 1244.63 251.063 1228.73 215.125 1195.32C192.188 1175.31 163.499 1141.01 129.129 1092.43C92.2542 1040.55 61.9376 980.381 38.187 911.79C12.751 837.702 0 765.959 0 696.503C0 616.941 17.1919 548.32 51.6269 490.816C78.6898 444.627 114.693 408.191 159.754 381.444C204.815 354.696 253.503 341.065 305.936 340.193C334.626 340.193 372.248 349.068 419.002 366.509C465.624 384.008 495.559 392.883 508.684 392.883C518.496 392.883 551.752 382.506 608.127 361.819C661.44 342.634 706.434 334.69 743.295 337.819C843.178 345.88 918.218 385.254 968.123 456.191C878.793 510.317 834.604 586.126 835.483 683.378C836.289 759.129 863.77 822.166 917.778 872.218C942.254 895.448 969.589 913.402 1000 926.153C993.405 945.279 986.443 963.6 979.042 981.187V981.187ZM749.964 79.7507C749.964 139.124 728.272 194.561 685.036 245.873C632.86 306.872 569.75 342.121 501.312 336.559C500.44 329.436 499.934 321.939 499.934 314.061C499.934 257.063 524.747 196.063 568.812 146.188C590.811 120.935 618.79 99.9376 652.719 83.1876C686.575 66.6875 718.599 57.5626 748.718 56C749.597 63.9373 749.964 71.8751 749.964 79.7499V79.7507Z" fill="#CFCFCF"/>
<path d="M1973 368V1068H1848V618L1685 1068H1596L1432 615V1068H1308V368H1444L1640 923L1837 368H1973ZM2271.57 1078C2214.24 1078 2170.9 1059 2141.57 1021C2112.24 983 2097.57 926.667 2097.57 852V568H2210.57V853C2210.57 898.333 2218.24 932 2233.57 954C2248.9 975.333 2272.57 986 2304.57 986C2342.57 986 2373.57 971.667 2397.57 943C2422.24 914.333 2434.57 878.667 2434.57 836V568H2547.57V948C2547.57 984.667 2550.57 1024.67 2556.57 1068H2449.57C2443.57 1036 2440.57 1006.67 2440.57 980H2437.57C2424.24 1010 2402.57 1034 2372.57 1052C2343.24 1069.33 2309.57 1078 2271.57 1078ZM2809.19 1078C2767.85 1078 2731.19 1069.67 2699.19 1053C2667.19 1036.33 2644.52 1014 2631.19 986L2703.19 937C2714.52 954.333 2729.52 968 2748.19 978C2767.52 988 2787.85 993 2809.19 993C2833.19 993 2853.19 986.667 2869.19 974C2885.19 960.667 2893.19 943.667 2893.19 923C2893.19 907.667 2887.19 895 2875.19 885C2863.85 875 2840.19 863 2804.19 849C2744.85 826.333 2702.85 803.333 2678.19 780C2654.19 756.667 2642.19 727.667 2642.19 693C2642.19 652.333 2658.52 619.667 2691.19 595C2723.85 570.333 2767.19 558 2821.19 558C2857.85 558 2890.52 565 2919.19 579C2948.52 593 2971.52 613 2988.19 639L2921.19 689C2910.52 674.333 2896.85 663 2880.19 655C2863.52 647 2845.19 643 2825.19 643C2803.85 643 2786.85 647.333 2774.19 656C2761.52 664 2755.19 675.333 2755.19 690C2755.19 700.667 2757.85 709.667 2763.19 717C2768.52 723.667 2778.19 730.667 2792.19 738C2806.85 745.333 2828.85 754.667 2858.19 766C2914.19 788 2952.85 810 2974.19 832C2995.52 854 3006.19 882.667 3006.19 918C3006.19 966 2988.19 1004.67 2952.19 1034C2916.19 1063.33 2868.52 1078 2809.19 1078ZM3166.8 500C3144.14 500 3125.8 494 3111.8 482C3098.47 469.333 3091.8 452.667 3091.8 432C3091.8 410.667 3098.47 394 3111.8 382C3125.8 369.333 3144.14 363 3166.8 363C3189.47 363 3207.47 369.333 3220.8 382C3234.8 394 3241.8 410.667 3241.8 432C3241.8 452.667 3234.8 469.333 3220.8 482C3207.47 494 3189.47 500 3166.8 500ZM3109.8 568H3223.8V1068H3109.8V568ZM3572.48 1078C3495.81 1078 3435.81 1055 3392.48 1009C3349.81 963 3328.48 899.333 3328.48 818C3328.48 736.667 3349.81 673 3392.48 627C3435.81 581 3495.81 558 3572.48 558C3617.14 558 3656.48 566.667 3690.48 584C3724.48 600.667 3750.81 624.667 3769.48 656L3701.48 716C3688.14 694 3670.48 677 3648.48 665C3626.48 652.333 3602.81 646 3577.48 646C3534.81 646 3501.48 661.333 3477.48 692C3453.48 722 3441.48 764 3441.48 818C3441.48 871.333 3453.48 913.333 3477.48 944C3501.48 974.667 3534.81 990 3577.48 990C3602.81 990 3626.48 983.667 3648.48 971C3670.48 958.333 3688.14 941 3701.48 919L3769.48 979C3750.81 1011 3724.48 1035.67 3690.48 1053C3657.14 1069.67 3617.81 1078 3572.48 1078Z" fill="black"/>
</svg>
