<svg width="228" height="62" viewBox="0 0 228 62" fill="none" xmlns="http://www.w3.org/2000/svg">
<ellipse cx="27.5" cy="22.0968" rx="12.5" ry="12.0968" fill="#F75A5A"/>
<ellipse cx="42.5" cy="49.1935" rx="12.5" ry="12.0968" fill="#F75A5A"/>
<ellipse cx="12.5" cy="49.1935" rx="12.5" ry="12.0968" fill="#F75A5A"/>
<path d="M92.8564 49H91.2451L88.6572 45.4111C88.0225 45.9808 87.347 46.5179 86.6309 47.0225C85.931 47.5107 85.1904 47.9421 84.4092 48.3164C83.6279 48.6745 82.8223 48.9593 81.9922 49.1709C81.1784 49.3825 80.3483 49.4883 79.502 49.4883C77.6628 49.4883 75.9294 49.179 74.3018 48.5605C72.6904 47.9421 71.2744 47.0469 70.0537 45.875C68.8493 44.6868 67.8971 43.2383 67.1973 41.5293C66.4974 39.8203 66.1475 37.8753 66.1475 35.6943C66.1475 33.6598 66.4974 31.7962 67.1973 30.1035C67.8971 28.3945 68.8493 26.9297 70.0537 25.709C71.2744 24.4883 72.6904 23.5443 74.3018 22.877C75.9294 22.1934 77.6628 21.8516 79.502 21.8516C80.3483 21.8516 81.1865 21.9574 82.0166 22.1689C82.8467 22.3805 83.6523 22.6735 84.4336 23.0479C85.2148 23.4222 85.9554 23.8617 86.6553 24.3662C87.3714 24.8708 88.0387 25.416 88.6572 26.002L91.2451 22.9014H92.8564V49ZM86.1426 35.6943C86.1426 34.7829 85.9635 33.904 85.6055 33.0576C85.2637 32.195 84.7917 31.4382 84.1895 30.7871C83.5872 30.1198 82.8792 29.5908 82.0654 29.2002C81.2679 28.7933 80.4134 28.5898 79.502 28.5898C78.5905 28.5898 77.7279 28.7445 76.9141 29.0537C76.1165 29.363 75.4167 29.8187 74.8145 30.4209C74.2285 31.0231 73.7646 31.7718 73.4229 32.667C73.0811 33.5459 72.9102 34.555 72.9102 35.6943C72.9102 36.8337 73.0811 37.8509 73.4229 38.7461C73.7646 39.625 74.2285 40.3656 74.8145 40.9678C75.4167 41.57 76.1165 42.0257 76.9141 42.335C77.7279 42.6442 78.5905 42.7988 79.502 42.7988C80.4134 42.7988 81.2679 42.6035 82.0654 42.2129C82.8792 41.806 83.5872 41.277 84.1895 40.626C84.7917 39.9587 85.2637 39.2018 85.6055 38.3555C85.9635 37.4928 86.1426 36.6058 86.1426 35.6943ZM112.314 49H97.0801V42.3594H112.314C112.77 42.3594 113.161 42.1966 113.486 41.8711C113.812 41.5456 113.975 41.1549 113.975 40.6992C113.975 40.2272 113.812 39.918 113.486 39.7715C113.161 39.625 112.77 39.5518 112.314 39.5518H105.381C104.225 39.5518 103.143 39.332 102.134 38.8926C101.125 38.4531 100.246 37.859 99.4971 37.1104C98.7484 36.3454 98.1543 35.4583 97.7148 34.4492C97.2917 33.4401 97.0801 32.3577 97.0801 31.2021C97.0801 30.0465 97.2917 28.9642 97.7148 27.9551C98.1543 26.946 98.7484 26.0671 99.4971 25.3184C100.246 24.5697 101.125 23.9837 102.134 23.5605C103.143 23.1211 104.225 22.9014 105.381 22.9014H118.882V29.542H105.381C104.925 29.542 104.535 29.7048 104.209 30.0303C103.883 30.3558 103.721 30.7464 103.721 31.2021C103.721 31.6742 103.883 32.0811 104.209 32.4229C104.535 32.7484 104.925 32.9111 105.381 32.9111H112.314C113.454 32.9111 114.528 33.1064 115.537 33.4971C116.546 33.8714 117.425 34.4004 118.174 35.084C118.923 35.7676 119.517 36.5895 119.956 37.5498C120.396 38.5101 120.615 39.5599 120.615 40.6992C120.615 41.8548 120.396 42.9372 119.956 43.9463C119.517 44.9391 118.923 45.818 118.174 46.583C117.425 47.3317 116.546 47.9258 115.537 48.3652C114.528 48.7884 113.454 49 112.314 49ZM149.497 49H147.886L145.298 45.4111C144.663 45.9808 143.988 46.5179 143.271 47.0225C142.572 47.5107 141.831 47.9421 141.05 48.3164C140.269 48.6745 139.463 48.9593 138.633 49.1709C137.819 49.3825 136.989 49.4883 136.143 49.4883C134.303 49.4883 132.57 49.179 130.942 48.5605C129.331 47.9421 127.915 47.0469 126.694 45.875C125.49 44.6868 124.538 43.2383 123.838 41.5293C123.138 39.8203 122.788 37.8753 122.788 35.6943C122.788 33.6598 123.138 31.7962 123.838 30.1035C124.538 28.3945 125.49 26.9297 126.694 25.709C127.915 24.4883 129.331 23.5443 130.942 22.877C132.57 22.1934 134.303 21.8516 136.143 21.8516C136.989 21.8516 137.827 21.9574 138.657 22.1689C139.487 22.3805 140.293 22.6735 141.074 23.0479C141.855 23.4222 142.596 23.8617 143.296 24.3662C144.012 24.8708 144.679 25.416 145.298 26.002L147.886 22.9014H149.497V49ZM142.783 35.6943C142.783 34.7829 142.604 33.904 142.246 33.0576C141.904 32.195 141.432 31.4382 140.83 30.7871C140.228 30.1198 139.52 29.5908 138.706 29.2002C137.909 28.7933 137.054 28.5898 136.143 28.5898C135.231 28.5898 134.368 28.7445 133.555 29.0537C132.757 29.363 132.057 29.8187 131.455 30.4209C130.869 31.0231 130.405 31.7718 130.063 32.667C129.722 33.5459 129.551 34.555 129.551 35.6943C129.551 36.8337 129.722 37.8509 130.063 38.7461C130.405 39.625 130.869 40.3656 131.455 40.9678C132.057 41.57 132.757 42.0257 133.555 42.335C134.368 42.6442 135.231 42.7988 136.143 42.7988C137.054 42.7988 137.909 42.6035 138.706 42.2129C139.52 41.806 140.228 41.277 140.83 40.626C141.432 39.9587 141.904 39.2018 142.246 38.3555C142.604 37.4928 142.783 36.6058 142.783 35.6943ZM161.265 49H154.6V22.8525H156.211L158.408 25.3916C159.482 24.415 160.695 23.6663 162.046 23.1455C163.413 22.6084 164.837 22.3398 166.318 22.3398C167.913 22.3398 169.419 22.6491 170.835 23.2676C172.251 23.8698 173.488 24.708 174.546 25.7822C175.604 26.8402 176.434 28.0853 177.036 29.5176C177.655 30.9336 177.964 32.4473 177.964 34.0586V49H171.299V34.0586C171.299 33.375 171.169 32.7321 170.908 32.1299C170.648 31.5114 170.29 30.9743 169.834 30.5186C169.378 30.0628 168.849 29.7048 168.247 29.4443C167.645 29.1839 167.002 29.0537 166.318 29.0537C165.618 29.0537 164.959 29.1839 164.341 29.4443C163.722 29.7048 163.185 30.0628 162.729 30.5186C162.274 30.9743 161.916 31.5114 161.655 32.1299C161.395 32.7321 161.265 33.375 161.265 34.0586V49ZM208.042 49H206.431L203.843 45.4111C203.208 45.9808 202.533 46.5179 201.816 47.0225C201.117 47.5107 200.376 47.9421 199.595 48.3164C198.813 48.6745 198.008 48.9593 197.178 49.1709C196.364 49.3825 195.534 49.4883 194.688 49.4883C192.848 49.4883 191.115 49.179 189.487 48.5605C187.876 47.9421 186.46 47.0469 185.239 45.875C184.035 44.6868 183.083 43.2383 182.383 41.5293C181.683 39.8203 181.333 37.8753 181.333 35.6943C181.333 33.6598 181.683 31.7962 182.383 30.1035C183.083 28.3945 184.035 26.9297 185.239 25.709C186.46 24.4883 187.876 23.5443 189.487 22.877C191.115 22.1934 192.848 21.8516 194.688 21.8516C195.534 21.8516 196.372 21.9574 197.202 22.1689C198.032 22.3805 198.838 22.6735 199.619 23.0479C200.4 23.4222 201.141 23.8617 201.841 24.3662C202.557 24.8708 203.224 25.416 203.843 26.002L206.431 22.9014H208.042V49ZM201.328 35.6943C201.328 34.7829 201.149 33.904 200.791 33.0576C200.449 32.195 199.977 31.4382 199.375 30.7871C198.773 30.1198 198.065 29.5908 197.251 29.2002C196.453 28.7933 195.599 28.5898 194.688 28.5898C193.776 28.5898 192.913 28.7445 192.1 29.0537C191.302 29.363 190.602 29.8187 190 30.4209C189.414 31.0231 188.95 31.7718 188.608 32.667C188.267 33.5459 188.096 34.555 188.096 35.6943C188.096 36.8337 188.267 37.8509 188.608 38.7461C188.95 39.625 189.414 40.3656 190 40.9678C190.602 41.57 191.302 42.0257 192.1 42.335C192.913 42.6442 193.776 42.7988 194.688 42.7988C195.599 42.7988 196.453 42.6035 197.251 42.2129C198.065 41.806 198.773 41.277 199.375 40.626C199.977 39.9587 200.449 39.2018 200.791 38.3555C201.149 37.4928 201.328 36.6058 201.328 35.6943Z" fill="black"/>
</svg>
