<svg width="2704" height="424" viewBox="0 0 2704 424" fill="none" xmlns="http://www.w3.org/2000/svg">
<path d="M228.5 153.41C235.5 153.41 241.167 155.743 245.5 160.41C250.167 164.743 252.5 170.577 252.5 177.91V394.91C252.5 401.577 250.167 407.243 245.5 411.91C241.167 416.577 235.5 418.91 228.5 418.91C221.5 418.91 215.833 416.743 211.5 412.41C207.167 407.743 205 401.91 205 394.91V381.91C196.333 393.577 184.5 403.577 169.5 411.91C154.5 419.91 138.333 423.91 121 423.91C98.333 423.91 77.6667 418.077 59 406.41C40.6667 394.743 26.1667 378.577 15.5 357.91C5.1667 336.91 0 313.41 0 287.41C0 261.41 5.1667 238.077 15.5 217.41C26.1667 196.41 40.6667 180.077 59 168.41C77.3333 156.743 97.5 150.91 119.5 150.91C137.167 150.91 153.5 154.577 168.5 161.91C183.833 169.243 196 178.577 205 189.91V177.91C205 170.91 207.167 165.077 211.5 160.41C215.833 155.743 221.5 153.41 228.5 153.41ZM126.5 379.91C142.167 379.91 156 375.91 168 367.91C180.333 359.91 189.833 348.91 196.5 334.91C203.5 320.91 207 305.077 207 287.41C207 270.077 203.5 254.41 196.5 240.41C189.833 226.41 180.333 215.41 168 207.41C156 199.077 142.167 194.91 126.5 194.91C110.833 194.91 96.833 198.91 84.5 206.91C72.5 214.91 63 225.91 56 239.91C49.3333 253.91 46 269.743 46 287.41C46 305.077 49.3333 320.91 56 334.91C63 348.91 72.5 359.91 84.5 367.91C96.833 375.91 110.833 379.91 126.5 379.91ZM513.246 156.91C520.246 156.91 525.913 159.243 530.246 163.91C534.913 168.577 537.246 174.243 537.246 180.91V313.91C537.246 348.577 527.579 375.577 508.246 394.91C489.246 413.91 462.246 423.41 427.246 423.41C392.579 423.41 365.746 413.91 346.746 394.91C327.746 375.577 318.246 348.577 318.246 313.91V180.91C318.246 174.243 320.413 168.577 324.746 163.91C329.413 159.243 335.079 156.91 341.746 156.91C348.746 156.91 354.413 159.243 358.746 163.91C363.413 168.577 365.746 174.243 365.746 180.91V313.91C365.746 357.577 386.246 379.41 427.246 379.41C447.579 379.41 463.079 373.91 473.746 362.91C484.413 351.91 489.746 335.577 489.746 313.91V180.91C489.746 174.243 491.913 168.577 496.246 163.91C500.913 159.243 506.579 156.91 513.246 156.91ZM820.785 48.91C827.785 48.91 833.452 51.243 837.785 55.91C842.452 60.243 844.785 65.91 844.785 72.91V394.91C844.785 401.577 842.452 407.243 837.785 411.91C833.452 416.577 827.785 418.91 820.785 418.91C813.785 418.91 808.118 416.743 803.785 412.41C799.452 407.743 797.285 401.91 797.285 394.91V380.91C788.952 392.91 777.119 403.077 761.785 411.41C746.785 419.743 730.618 423.91 713.285 423.91C690.618 423.91 670.118 418.077 651.785 406.41C633.452 394.743 618.952 378.577 608.285 357.91C597.618 336.91 592.285 313.41 592.285 287.41C592.285 261.41 597.452 238.077 607.785 217.41C618.452 196.41 632.952 180.077 651.285 168.41C669.618 156.743 689.785 150.91 711.785 150.91C729.452 150.91 745.785 154.577 760.785 161.91C775.785 169.243 787.952 178.743 797.285 190.41V72.91C797.285 65.91 799.452 60.243 803.785 55.91C808.118 51.243 813.785 48.91 820.785 48.91ZM718.785 379.91C734.452 379.91 748.285 375.91 760.285 367.91C772.619 359.91 782.119 348.91 788.785 334.91C795.785 320.91 799.285 305.077 799.285 287.41C799.285 270.077 795.785 254.41 788.785 240.41C782.119 226.077 772.619 214.91 760.285 206.91C748.285 198.91 734.452 194.91 718.785 194.91C703.118 194.91 689.118 198.91 676.785 206.91C664.785 214.91 655.285 226.077 648.285 240.41C641.618 254.41 638.285 270.077 638.285 287.41C638.285 305.077 641.618 320.91 648.285 334.91C655.285 348.91 664.785 359.91 676.785 367.91C689.118 375.91 703.118 379.91 718.785 379.91ZM960.414 394.91C960.414 401.577 958.081 407.243 953.414 411.91C949.081 416.577 943.414 418.91 936.414 418.91C929.747 418.91 924.081 416.577 919.414 411.91C915.081 407.243 912.914 401.577 912.914 394.91V178.41C912.914 171.743 915.081 166.077 919.414 161.41C924.081 156.743 929.747 154.41 936.414 154.41C943.414 154.41 949.081 156.743 953.414 161.41C958.081 166.077 960.414 171.743 960.414 178.41V394.91ZM936.414 121.41C926.747 121.41 919.747 119.743 915.414 116.41C911.414 112.743 909.414 107.077 909.414 99.41V91.41C909.414 83.41 911.581 77.743 915.914 74.41C920.581 71.077 927.581 69.41 936.914 69.41C946.247 69.41 952.914 71.243 956.914 74.91C961.247 78.243 963.414 83.743 963.414 91.41V99.41C963.414 107.41 961.247 113.077 956.914 116.41C952.581 119.743 945.747 121.41 936.414 121.41ZM1276.7 287.91C1276.7 313.91 1270.86 337.243 1259.2 357.91C1247.53 378.577 1231.53 394.743 1211.2 406.41C1191.2 418.077 1169.03 423.91 1144.7 423.91C1120.36 423.91 1098.03 418.077 1077.7 406.41C1057.7 394.743 1041.86 378.577 1030.2 357.91C1018.53 337.243 1012.7 313.91 1012.7 287.91C1012.7 261.91 1018.53 238.41 1030.2 217.41C1041.86 196.41 1057.7 180.077 1077.7 168.41C1098.03 156.743 1120.36 150.91 1144.7 150.91C1169.03 150.91 1191.2 156.743 1211.2 168.41C1231.53 180.077 1247.53 196.41 1259.2 217.41C1270.86 238.41 1276.7 261.91 1276.7 287.91ZM1229.2 287.91C1229.2 269.91 1225.36 253.91 1217.7 239.91C1210.36 225.577 1200.2 214.577 1187.2 206.91C1174.53 198.91 1160.36 194.91 1144.7 194.91C1129.03 194.91 1114.7 198.91 1101.7 206.91C1089.03 214.577 1078.86 225.577 1071.2 239.91C1063.86 253.91 1060.2 269.91 1060.2 287.91C1060.2 305.577 1063.86 321.41 1071.2 335.41C1078.86 349.41 1089.03 360.41 1101.7 368.41C1114.7 376.077 1129.03 379.91 1144.7 379.91C1160.36 379.91 1174.53 376.077 1187.2 368.41C1200.2 360.41 1210.36 349.41 1217.7 335.41C1225.36 321.41 1229.2 305.577 1229.2 287.91ZM1463.42 150.91C1486.08 150.91 1506.58 156.743 1524.92 168.41C1543.25 180.077 1557.58 196.243 1567.92 216.91C1578.58 237.577 1583.92 260.91 1583.92 286.91C1583.92 312.91 1578.58 336.41 1567.92 357.41C1557.58 378.41 1543.25 394.743 1524.92 406.41C1506.58 418.077 1486.42 423.91 1464.42 423.91C1447.08 423.91 1430.92 420.077 1415.92 412.41C1400.92 404.743 1388.75 395.243 1379.42 383.91V398.41C1379.42 405.077 1377.08 410.743 1372.42 415.41C1368.08 420.077 1362.42 422.41 1355.42 422.41C1348.75 422.41 1343.08 420.243 1338.42 415.91C1334.08 411.243 1331.92 405.41 1331.92 398.41V72.91C1331.92 65.91 1334.08 60.243 1338.42 55.91C1342.75 51.243 1348.42 48.91 1355.42 48.91C1362.42 48.91 1368.08 51.243 1372.42 55.91C1377.08 60.577 1379.42 66.243 1379.42 72.91V194.91C1387.42 182.91 1399.08 172.577 1414.42 163.91C1429.75 155.243 1446.08 150.91 1463.42 150.91ZM1457.92 379.91C1473.25 379.91 1487.08 375.91 1499.42 367.91C1511.75 359.577 1521.25 348.41 1527.92 334.41C1534.92 320.077 1538.42 304.243 1538.42 286.91C1538.42 269.577 1534.92 253.91 1527.92 239.91C1521.25 225.91 1511.75 214.91 1499.42 206.91C1487.08 198.91 1473.25 194.91 1457.92 194.91C1442.25 194.91 1428.25 198.91 1415.92 206.91C1403.58 214.91 1393.92 225.91 1386.92 239.91C1380.25 253.577 1376.92 269.243 1376.92 286.91C1376.92 304.577 1380.25 320.41 1386.92 334.41C1393.92 348.41 1403.58 359.577 1415.92 367.91C1428.25 375.91 1442.25 379.91 1457.92 379.91ZM1887.05 287.91C1887.05 313.91 1881.21 337.243 1869.55 357.91C1857.88 378.577 1841.88 394.743 1821.55 406.41C1801.55 418.077 1779.38 423.91 1755.05 423.91C1730.71 423.91 1708.38 418.077 1688.05 406.41C1668.05 394.743 1652.21 378.577 1640.55 357.91C1628.88 337.243 1623.05 313.91 1623.05 287.91C1623.05 261.91 1628.88 238.41 1640.55 217.41C1652.21 196.41 1668.05 180.077 1688.05 168.41C1708.38 156.743 1730.71 150.91 1755.05 150.91C1779.38 150.91 1801.55 156.743 1821.55 168.41C1841.88 180.077 1857.88 196.41 1869.55 217.41C1881.21 238.41 1887.05 261.91 1887.05 287.91ZM1839.55 287.91C1839.55 269.91 1835.71 253.91 1828.05 239.91C1820.71 225.577 1810.55 214.577 1797.55 206.91C1784.88 198.91 1770.71 194.91 1755.05 194.91C1739.38 194.91 1725.05 198.91 1712.05 206.91C1699.38 214.577 1689.21 225.577 1681.55 239.91C1674.21 253.91 1670.55 269.91 1670.55 287.91C1670.55 305.577 1674.21 321.41 1681.55 335.41C1689.21 349.41 1699.38 360.41 1712.05 368.41C1725.05 376.077 1739.38 379.91 1755.05 379.91C1770.71 379.91 1784.88 376.077 1797.55 368.41C1810.55 360.41 1820.71 349.41 1828.05 335.41C1835.71 321.41 1839.55 305.577 1839.55 287.91ZM2190.27 287.91C2190.27 313.91 2184.44 337.243 2172.77 357.91C2161.1 378.577 2145.1 394.743 2124.77 406.41C2104.77 418.077 2082.6 423.91 2058.27 423.91C2033.94 423.91 2011.6 418.077 1991.27 406.41C1971.27 394.743 1955.44 378.577 1943.77 357.91C1932.1 337.243 1926.27 313.91 1926.27 287.91C1926.27 261.91 1932.1 238.41 1943.77 217.41C1955.44 196.41 1971.27 180.077 1991.27 168.41C2011.6 156.743 2033.94 150.91 2058.27 150.91C2082.6 150.91 2104.77 156.743 2124.77 168.41C2145.1 180.077 2161.1 196.41 2172.77 217.41C2184.44 238.41 2190.27 261.91 2190.27 287.91ZM2142.77 287.91C2142.77 269.91 2138.94 253.91 2131.27 239.91C2123.94 225.577 2113.77 214.577 2100.77 206.91C2088.1 198.91 2073.94 194.91 2058.27 194.91C2042.6 194.91 2028.27 198.91 2015.27 206.91C2002.6 214.577 1992.44 225.577 1984.77 239.91C1977.44 253.91 1973.77 269.91 1973.77 287.91C1973.77 305.577 1977.44 321.41 1984.77 335.41C1992.44 349.41 2002.6 360.41 2015.27 368.41C2028.27 376.077 2042.6 379.91 2058.27 379.91C2073.94 379.91 2088.1 376.077 2100.77 368.41C2113.77 360.41 2123.94 349.41 2131.27 335.41C2138.94 321.41 2142.77 305.577 2142.77 287.91ZM2459.49 377.41C2464.49 382.743 2466.99 388.577 2466.99 394.91C2466.99 401.577 2464.33 407.243 2458.99 411.91C2453.99 416.243 2448.66 418.41 2442.99 418.41C2435.66 418.41 2429.83 415.743 2425.49 410.41L2326.99 305.91L2296.99 332.91V394.91C2296.99 401.577 2294.66 407.243 2289.99 411.91C2285.66 416.577 2280.16 418.91 2273.49 418.91C2266.49 418.91 2260.66 416.577 2255.99 411.91C2251.66 407.243 2249.49 401.577 2249.49 394.91V72.91C2249.49 66.243 2251.66 60.577 2255.99 55.91C2260.66 51.243 2266.49 48.91 2273.49 48.91C2280.16 48.91 2285.66 51.243 2289.99 55.91C2294.66 60.577 2296.99 66.243 2296.99 72.91V275.91L2419.49 163.41C2425.16 158.41 2430.99 155.91 2436.99 155.91C2442.66 155.91 2447.83 158.41 2452.49 163.41C2457.16 168.077 2459.49 173.077 2459.49 178.41C2459.49 185.077 2456.33 191.077 2449.99 196.41L2363.49 273.41L2459.49 377.41ZM2505.39 377.91C2502.39 373.243 2500.89 368.743 2500.89 364.41C2500.89 357.743 2504.39 352.077 2511.39 347.41C2514.73 345.077 2518.56 343.91 2522.89 343.91C2528.89 343.91 2534.39 346.41 2539.39 351.41C2549.39 362.743 2560.06 371.243 2571.39 376.91C2583.06 382.577 2596.89 385.41 2612.89 385.41C2625.56 385.077 2636.73 382.243 2646.39 376.91C2656.06 371.243 2660.89 362.243 2660.89 349.91C2660.89 338.577 2655.89 329.91 2645.89 323.91C2636.23 317.91 2621.89 312.41 2602.89 307.41C2584.23 302.41 2568.73 297.243 2556.39 291.91C2544.06 286.243 2533.56 278.243 2524.89 267.91C2516.56 257.243 2512.39 243.41 2512.39 226.41C2512.39 211.41 2516.56 198.243 2524.89 186.91C2533.56 175.577 2544.89 166.743 2558.89 160.41C2573.23 154.077 2588.73 150.91 2605.39 150.91C2621.39 150.91 2637.23 153.91 2652.89 159.91C2668.89 165.91 2681.89 175.077 2691.89 187.41C2695.89 192.077 2697.89 196.91 2697.89 201.91C2697.89 207.243 2695.23 212.41 2689.89 217.41C2686.56 220.41 2682.39 221.91 2677.39 221.91C2671.39 221.91 2666.56 219.91 2662.89 215.91C2655.89 207.91 2647.23 201.743 2636.89 197.41C2626.89 193.077 2615.73 190.91 2603.39 190.91C2590.73 190.91 2579.89 193.577 2570.89 198.91C2562.23 203.91 2557.89 212.577 2557.89 224.91C2558.23 236.577 2563.23 245.243 2572.89 250.91C2582.89 256.577 2598.06 262.077 2618.39 267.41C2636.06 272.077 2650.73 277.077 2662.39 282.41C2674.06 287.743 2683.89 295.743 2691.89 306.41C2699.89 316.743 2703.89 330.41 2703.89 347.41C2703.89 363.077 2699.39 376.743 2690.39 388.41C2681.39 399.743 2669.56 408.577 2654.89 414.91C2640.56 420.91 2625.23 423.91 2608.89 423.91C2587.89 423.91 2568.39 420.243 2550.39 412.91C2532.73 405.577 2517.73 393.91 2505.39 377.91Z" fill="#FF8B02"/>
<path d="M2333.29 88.91C2331.36 88.91 2329.89 88.343 2328.87 87.21C2327.85 85.963 2327.34 84.32 2327.34 82.28V78.71C2327.34 76.67 2327.85 75.083 2328.87 73.95C2329.89 72.817 2331.36 72.25 2333.29 72.25H2334.48C2336.41 72.25 2337.88 72.817 2338.9 73.95C2339.92 75.083 2340.43 76.67 2340.43 78.71V82.28C2340.43 84.32 2339.92 85.963 2338.9 87.21C2337.88 88.343 2336.41 88.91 2334.48 88.91H2333.29ZM2400.21 0C2405.54 0 2410.47 0.623303 2415 1.87C2419.65 3.0033 2423.33 4.59 2426.05 6.63C2428.89 8.67 2430.3 10.88 2430.3 13.26C2430.3 14.5067 2429.85 15.64 2428.94 16.66C2428.15 17.68 2427.13 18.19 2425.88 18.19C2424.75 18.19 2423.79 17.9633 2422.99 17.51C2422.31 17.0567 2421.52 16.3767 2420.61 15.47C2419.14 13.9967 2417.72 12.92 2416.36 12.24C2414.66 11.4467 2412.4 10.8233 2409.56 10.37C2406.84 9.8033 2403.9 9.52 2400.72 9.52C2394.49 9.52 2388.77 11.1067 2383.55 14.28C2378.45 17.4533 2374.43 21.76 2371.48 27.2C2368.54 32.64 2367.06 38.647 2367.06 45.22C2367.06 52.02 2368.48 58.14 2371.31 63.58C2374.15 69.02 2378.06 73.327 2383.04 76.5C2388.14 79.56 2393.92 81.09 2400.38 81.09C2404.46 81.09 2407.69 80.75 2410.07 80.07C2412.57 79.39 2415 78.427 2417.38 77.18C2418.18 76.727 2419.54 75.707 2421.46 74.12C2422.37 73.327 2423.16 72.76 2423.84 72.42C2424.52 71.967 2425.26 71.74 2426.05 71.74C2427.41 71.74 2428.49 72.193 2429.28 73.1C2430.08 73.893 2430.47 74.97 2430.47 76.33C2430.47 78.257 2429.11 80.353 2426.39 82.62C2423.67 84.773 2419.93 86.643 2415.17 88.23C2410.41 89.817 2405.14 90.61 2399.36 90.61C2391.09 90.61 2383.72 88.683 2377.26 84.83C2370.8 80.863 2365.76 75.423 2362.13 68.51C2358.62 61.597 2356.86 53.833 2356.86 45.22C2356.86 36.947 2358.68 29.41 2362.3 22.61C2365.93 15.6967 2371.03 10.2 2377.6 6.12C2384.18 2.04 2391.71 0 2400.21 0ZM2530.21 45.39C2530.21 53.89 2528.34 61.597 2524.6 68.51C2520.86 75.423 2515.7 80.863 2509.13 84.83C2502.55 88.683 2495.24 90.61 2487.2 90.61C2479.15 90.61 2471.84 88.683 2465.27 84.83C2458.69 80.863 2453.54 75.423 2449.8 68.51C2446.06 61.597 2444.19 53.89 2444.19 45.39C2444.19 36.89 2446.06 29.183 2449.8 22.27C2453.54 15.3567 2458.69 9.9167 2465.27 5.95C2471.84 1.9833 2479.15 0 2487.2 0C2495.24 0 2502.55 1.9833 2509.13 5.95C2515.7 9.9167 2520.86 15.3567 2524.6 22.27C2528.34 29.183 2530.21 36.89 2530.21 45.39ZM2520.01 45.39C2520.01 38.59 2518.59 32.47 2515.76 27.03C2512.92 21.59 2508.96 17.34 2503.86 14.28C2498.87 11.1067 2493.32 9.52 2487.2 9.52C2481.08 9.52 2475.52 11.1067 2470.54 14.28C2465.55 17.34 2461.58 21.59 2458.64 27.03C2455.8 32.47 2454.39 38.59 2454.39 45.39C2454.39 52.077 2455.8 58.14 2458.64 63.58C2461.58 69.02 2465.55 73.327 2470.54 76.5C2475.52 79.56 2481.08 81.09 2487.2 81.09C2493.32 81.09 2498.87 79.56 2503.86 76.5C2508.96 73.44 2512.92 69.19 2515.76 63.75C2518.59 58.31 2520.01 52.19 2520.01 45.39ZM2649.67 1.36C2659.87 1.36 2667.35 4.5333 2672.11 10.88C2676.98 17.1133 2679.42 25.387 2679.42 35.7V83.81C2679.42 85.283 2678.91 86.53 2677.89 87.55C2676.98 88.457 2675.79 88.91 2674.32 88.91C2672.85 88.91 2671.6 88.457 2670.58 87.55C2669.67 86.53 2669.22 85.283 2669.22 83.81V36.21C2669.22 28.73 2667.41 22.667 2663.78 18.02C2660.27 13.26 2654.77 10.88 2647.29 10.88C2642.53 10.88 2638 12.0133 2633.69 14.28C2629.5 16.5467 2626.1 19.663 2623.49 23.63C2620.88 27.483 2619.58 31.677 2619.58 36.21V83.81C2619.58 85.283 2619.07 86.53 2618.05 87.55C2617.14 88.457 2615.95 88.91 2614.48 88.91C2613.01 88.91 2611.76 88.457 2610.74 87.55C2609.83 86.53 2609.38 85.283 2609.38 83.81V35.7C2609.38 28.333 2607.68 22.383 2604.28 17.85C2600.88 13.2033 2595.55 10.88 2588.3 10.88C2583.65 10.88 2579.23 12.0133 2575.04 14.28C2570.96 16.5467 2567.62 19.607 2565.01 23.46C2562.52 27.2 2561.27 31.28 2561.27 35.7V83.81C2561.27 85.283 2560.76 86.53 2559.74 87.55C2558.83 88.457 2557.64 88.91 2556.17 88.91C2554.7 88.91 2553.45 88.457 2552.43 87.55C2551.52 86.53 2551.07 85.283 2551.07 83.81V7.65C2551.07 6.1767 2551.52 4.9867 2552.43 4.08C2553.45 3.06 2554.7 2.55 2556.17 2.55C2557.64 2.55 2558.83 3.06 2559.74 4.08C2560.76 4.9867 2561.27 6.1767 2561.27 7.65V17.51C2564.33 12.8633 2568.47 9.01 2573.68 5.95C2578.89 2.89 2584.39 1.36 2590.17 1.36C2596.74 1.36 2602.41 2.9467 2607.17 6.12C2611.93 9.2933 2615.33 13.94 2617.37 20.06C2619.75 15.0733 2624.11 10.71 2630.46 6.97C2636.81 3.23 2643.21 1.36 2649.67 1.36Z" fill="#FF8B02"/>
<path fill-rule="evenodd" clip-rule="evenodd" d="M1276.5 287.41C1276.5 360.035 1217.63 418.91 1145 418.91C1072.37 418.91 1013.5 360.035 1013.5 287.41C1013.5 214.785 1072.37 155.91 1145 155.91C1217.63 155.91 1276.5 214.785 1276.5 287.41ZM1110.5 351.063L1215.5 287.41L1110.5 223.757V351.063Z" fill="#FF8B02"/>
</svg>
