<svg width="2743" height="625" viewBox="0 0 2743 625" fill="none" xmlns="http://www.w3.org/2000/svg">
<path d="M248 234.5C255 234.5 260.667 236.833 265 241.5C269.667 245.833 272 251.667 272 259V476C272 482.667 269.667 488.333 265 493C260.667 497.667 255 500 248 500C241 500 235.333 497.833 231 493.5C226.667 488.833 224.5 483 224.5 476V463C215.833 474.667 204 484.667 189 493C174 501 157.833 505 140.5 505C117.833 505 97.1667 499.167 78.5 487.5C60.1667 475.833 45.6667 459.667 35 439C24.6667 418 19.5 394.5 19.5 368.5C19.5 342.5 24.6667 319.167 35 298.5C45.6667 277.5 60.1667 261.167 78.5 249.5C96.8333 237.833 117 232 139 232C156.667 232 173 235.667 188 243C203.333 250.333 215.5 259.667 224.5 271V259C224.5 252 226.667 246.167 231 241.5C235.333 236.833 241 234.5 248 234.5ZM146 461C161.667 461 175.5 457 187.5 449C199.833 441 209.333 430 216 416C223 402 226.5 386.167 226.5 368.5C226.5 351.167 223 335.5 216 321.5C209.333 307.5 199.833 296.5 187.5 288.5C175.5 280.167 161.667 276 146 276C130.333 276 116.333 280 104 288C92 296 82.5 307 75.5 321C68.8333 335 65.5 350.833 65.5 368.5C65.5 386.167 68.8333 402 75.5 416C82.5 430 92 441 104 449C116.333 457 130.333 461 146 461ZM532.746 238C539.746 238 545.413 240.333 549.746 245C554.413 249.667 556.746 255.333 556.746 262V395C556.746 429.667 547.079 456.667 527.746 476C508.746 495 481.746 504.5 446.746 504.5C412.079 504.5 385.246 495 366.246 476C347.246 456.667 337.746 429.667 337.746 395V262C337.746 255.333 339.913 249.667 344.246 245C348.913 240.333 354.579 238 361.246 238C368.246 238 373.913 240.333 378.246 245C382.913 249.667 385.246 255.333 385.246 262V395C385.246 438.667 405.746 460.5 446.746 460.5C467.079 460.5 482.579 455 493.246 444C503.913 433 509.246 416.667 509.246 395V262C509.246 255.333 511.413 249.667 515.746 245C520.413 240.333 526.079 238 532.746 238ZM840.285 130C847.285 130 852.952 132.333 857.285 137C861.952 141.333 864.285 147 864.285 154V476C864.285 482.667 861.952 488.333 857.285 493C852.952 497.667 847.285 500 840.285 500C833.285 500 827.618 497.833 823.285 493.5C818.952 488.833 816.785 483 816.785 476V462C808.452 474 796.619 484.167 781.285 492.5C766.285 500.833 750.118 505 732.785 505C710.118 505 689.618 499.167 671.285 487.5C652.952 475.833 638.452 459.667 627.785 439C617.118 418 611.785 394.5 611.785 368.5C611.785 342.5 616.952 319.167 627.285 298.5C637.952 277.5 652.452 261.167 670.785 249.5C689.118 237.833 709.285 232 731.285 232C748.952 232 765.285 235.667 780.285 243C795.285 250.333 807.452 259.833 816.785 271.5V154C816.785 147 818.952 141.333 823.285 137C827.618 132.333 833.285 130 840.285 130ZM738.285 461C753.952 461 767.785 457 779.785 449C792.119 441 801.619 430 808.285 416C815.285 402 818.785 386.167 818.785 368.5C818.785 351.167 815.285 335.5 808.285 321.5C801.619 307.167 792.119 296 779.785 288C767.785 280 753.952 276 738.285 276C722.618 276 708.618 280 696.285 288C684.285 296 674.785 307.167 667.785 321.5C661.118 335.5 657.785 351.167 657.785 368.5C657.785 386.167 661.118 402 667.785 416C674.785 430 684.285 441 696.285 449C708.618 457 722.618 461 738.285 461ZM979.914 476C979.914 482.667 977.581 488.333 972.914 493C968.581 497.667 962.914 500 955.914 500C949.247 500 943.581 497.667 938.914 493C934.581 488.333 932.414 482.667 932.414 476V259.5C932.414 252.833 934.581 247.167 938.914 242.5C943.581 237.833 949.247 235.5 955.914 235.5C962.914 235.5 968.581 237.833 972.914 242.5C977.581 247.167 979.914 252.833 979.914 259.5V476ZM955.914 202.5C946.247 202.5 939.247 200.833 934.914 197.5C930.914 193.833 928.914 188.167 928.914 180.5V172.5C928.914 164.5 931.081 158.833 935.414 155.5C940.081 152.167 947.081 150.5 956.414 150.5C965.747 150.5 972.414 152.333 976.414 156C980.747 159.333 982.914 164.833 982.914 172.5V180.5C982.914 188.5 980.747 194.167 976.414 197.5C972.081 200.833 965.247 202.5 955.914 202.5ZM1296.2 369C1296.2 395 1290.36 418.333 1278.7 439C1267.03 459.667 1251.03 475.833 1230.7 487.5C1210.7 499.167 1188.53 505 1164.2 505C1139.86 505 1117.53 499.167 1097.2 487.5C1077.2 475.833 1061.36 459.667 1049.7 439C1038.03 418.333 1032.2 395 1032.2 369C1032.2 343 1038.03 319.5 1049.7 298.5C1061.36 277.5 1077.2 261.167 1097.2 249.5C1117.53 237.833 1139.86 232 1164.2 232C1188.53 232 1210.7 237.833 1230.7 249.5C1251.03 261.167 1267.03 277.5 1278.7 298.5C1290.36 319.5 1296.2 343 1296.2 369ZM1248.7 369C1248.7 351 1244.86 335 1237.2 321C1229.86 306.667 1219.7 295.667 1206.7 288C1194.03 280 1179.86 276 1164.2 276C1148.53 276 1134.2 280 1121.2 288C1108.53 295.667 1098.36 306.667 1090.7 321C1083.36 335 1079.7 351 1079.7 369C1079.7 386.667 1083.36 402.5 1090.7 416.5C1098.36 430.5 1108.53 441.5 1121.2 449.5C1134.2 457.167 1148.53 461 1164.2 461C1179.86 461 1194.03 457.167 1206.7 449.5C1219.7 441.5 1229.86 430.5 1237.2 416.5C1244.86 402.5 1248.7 386.667 1248.7 369ZM1482.92 232C1505.58 232 1526.08 237.833 1544.42 249.5C1562.75 261.167 1577.08 277.333 1587.42 298C1598.08 318.667 1603.42 342 1603.42 368C1603.42 394 1598.08 417.5 1587.42 438.5C1577.08 459.5 1562.75 475.833 1544.42 487.5C1526.08 499.167 1505.92 505 1483.92 505C1466.58 505 1450.42 501.167 1435.42 493.5C1420.42 485.833 1408.25 476.333 1398.92 465V479.5C1398.92 486.167 1396.58 491.833 1391.92 496.5C1387.58 501.167 1381.92 503.5 1374.92 503.5C1368.25 503.5 1362.58 501.333 1357.92 497C1353.58 492.333 1351.42 486.5 1351.42 479.5V154C1351.42 147 1353.58 141.333 1357.92 137C1362.25 132.333 1367.92 130 1374.92 130C1381.92 130 1387.58 132.333 1391.92 137C1396.58 141.667 1398.92 147.333 1398.92 154V276C1406.92 264 1418.58 253.667 1433.92 245C1449.25 236.333 1465.58 232 1482.92 232ZM1477.42 461C1492.75 461 1506.58 457 1518.92 449C1531.25 440.667 1540.75 429.5 1547.42 415.5C1554.42 401.167 1557.92 385.333 1557.92 368C1557.92 350.667 1554.42 335 1547.42 321C1540.75 307 1531.25 296 1518.92 288C1506.58 280 1492.75 276 1477.42 276C1461.75 276 1447.75 280 1435.42 288C1423.08 296 1413.42 307 1406.42 321C1399.75 334.667 1396.42 350.333 1396.42 368C1396.42 385.667 1399.75 401.5 1406.42 415.5C1413.42 429.5 1423.08 440.667 1435.42 449C1447.75 457 1461.75 461 1477.42 461ZM1906.55 369C1906.55 395 1900.71 418.333 1889.05 439C1877.38 459.667 1861.38 475.833 1841.05 487.5C1821.05 499.167 1798.88 505 1774.55 505C1750.21 505 1727.88 499.167 1707.55 487.5C1687.55 475.833 1671.71 459.667 1660.05 439C1648.38 418.333 1642.55 395 1642.55 369C1642.55 343 1648.38 319.5 1660.05 298.5C1671.71 277.5 1687.55 261.167 1707.55 249.5C1727.88 237.833 1750.21 232 1774.55 232C1798.88 232 1821.05 237.833 1841.05 249.5C1861.38 261.167 1877.38 277.5 1889.05 298.5C1900.71 319.5 1906.55 343 1906.55 369ZM1859.05 369C1859.05 351 1855.21 335 1847.55 321C1840.21 306.667 1830.05 295.667 1817.05 288C1804.38 280 1790.21 276 1774.55 276C1758.88 276 1744.55 280 1731.55 288C1718.88 295.667 1708.71 306.667 1701.05 321C1693.71 335 1690.05 351 1690.05 369C1690.05 386.667 1693.71 402.5 1701.05 416.5C1708.71 430.5 1718.88 441.5 1731.55 449.5C1744.55 457.167 1758.88 461 1774.55 461C1790.21 461 1804.38 457.167 1817.05 449.5C1830.05 441.5 1840.21 430.5 1847.55 416.5C1855.21 402.5 1859.05 386.667 1859.05 369ZM2209.77 369C2209.77 395 2203.94 418.333 2192.27 439C2180.6 459.667 2164.6 475.833 2144.27 487.5C2124.27 499.167 2102.1 505 2077.77 505C2053.44 505 2031.1 499.167 2010.77 487.5C1990.77 475.833 1974.94 459.667 1963.27 439C1951.6 418.333 1945.77 395 1945.77 369C1945.77 343 1951.6 319.5 1963.27 298.5C1974.94 277.5 1990.77 261.167 2010.77 249.5C2031.1 237.833 2053.44 232 2077.77 232C2102.1 232 2124.27 237.833 2144.27 249.5C2164.6 261.167 2180.6 277.5 2192.27 298.5C2203.94 319.5 2209.77 343 2209.77 369ZM2162.27 369C2162.27 351 2158.44 335 2150.77 321C2143.44 306.667 2133.27 295.667 2120.27 288C2107.6 280 2093.44 276 2077.77 276C2062.1 276 2047.77 280 2034.77 288C2022.1 295.667 2011.94 306.667 2004.27 321C1996.94 335 1993.27 351 1993.27 369C1993.27 386.667 1996.94 402.5 2004.27 416.5C2011.94 430.5 2022.1 441.5 2034.77 449.5C2047.77 457.167 2062.1 461 2077.77 461C2093.44 461 2107.6 457.167 2120.27 449.5C2133.27 441.5 2143.44 430.5 2150.77 416.5C2158.44 402.5 2162.27 386.667 2162.27 369ZM2478.99 458.5C2483.99 463.833 2486.49 469.667 2486.49 476C2486.49 482.667 2483.83 488.333 2478.49 493C2473.49 497.333 2468.16 499.5 2462.49 499.5C2455.16 499.5 2449.33 496.833 2444.99 491.5L2346.49 387L2316.49 414V476C2316.49 482.667 2314.16 488.333 2309.49 493C2305.16 497.667 2299.66 500 2292.99 500C2285.99 500 2280.16 497.667 2275.49 493C2271.16 488.333 2268.99 482.667 2268.99 476V154C2268.99 147.333 2271.16 141.667 2275.49 137C2280.16 132.333 2285.99 130 2292.99 130C2299.66 130 2305.16 132.333 2309.49 137C2314.16 141.667 2316.49 147.333 2316.49 154V357L2438.99 244.5C2444.66 239.5 2450.49 237 2456.49 237C2462.16 237 2467.33 239.5 2471.99 244.5C2476.66 249.167 2478.99 254.167 2478.99 259.5C2478.99 266.167 2475.83 272.167 2469.49 277.5L2382.99 354.5L2478.99 458.5ZM2524.89 459C2521.89 454.333 2520.39 449.833 2520.39 445.5C2520.39 438.833 2523.89 433.167 2530.89 428.5C2534.23 426.167 2538.06 425 2542.39 425C2548.39 425 2553.89 427.5 2558.89 432.5C2568.89 443.833 2579.56 452.333 2590.89 458C2602.56 463.667 2616.39 466.5 2632.39 466.5C2645.06 466.167 2656.23 463.333 2665.89 458C2675.56 452.333 2680.39 443.333 2680.39 431C2680.39 419.667 2675.39 411 2665.39 405C2655.73 399 2641.39 393.5 2622.39 388.5C2603.73 383.5 2588.23 378.333 2575.89 373C2563.56 367.333 2553.06 359.333 2544.39 349C2536.06 338.333 2531.89 324.5 2531.89 307.5C2531.89 292.5 2536.06 279.333 2544.39 268C2553.06 256.667 2564.39 247.833 2578.39 241.5C2592.73 235.167 2608.23 232 2624.89 232C2640.89 232 2656.73 235 2672.39 241C2688.39 247 2701.39 256.167 2711.39 268.5C2715.39 273.167 2717.39 278 2717.39 283C2717.39 288.333 2714.73 293.5 2709.39 298.5C2706.06 301.5 2701.89 303 2696.89 303C2690.89 303 2686.06 301 2682.39 297C2675.39 289 2666.73 282.833 2656.39 278.5C2646.39 274.167 2635.23 272 2622.89 272C2610.23 272 2599.39 274.667 2590.39 280C2581.73 285 2577.39 293.667 2577.39 306C2577.73 317.667 2582.73 326.333 2592.39 332C2602.39 337.667 2617.56 343.167 2637.89 348.5C2655.56 353.167 2670.23 358.167 2681.89 363.5C2693.56 368.833 2703.39 376.833 2711.39 387.5C2719.39 397.833 2723.39 411.5 2723.39 428.5C2723.39 444.167 2718.89 457.833 2709.89 469.5C2700.89 480.833 2689.06 489.667 2674.39 496C2660.06 502 2644.73 505 2628.39 505C2607.39 505 2587.89 501.333 2569.89 494C2552.23 486.667 2537.23 475 2524.89 459Z" fill="#FF8B02"/>
<path d="M2352.79 170C2350.86 170 2349.39 169.433 2348.37 168.3C2347.35 167.053 2346.84 165.41 2346.84 163.37V159.8C2346.84 157.76 2347.35 156.173 2348.37 155.04C2349.39 153.907 2350.86 153.34 2352.79 153.34H2353.98C2355.91 153.34 2357.38 153.907 2358.4 155.04C2359.42 156.173 2359.93 157.76 2359.93 159.8V163.37C2359.93 165.41 2359.42 167.053 2358.4 168.3C2357.38 169.433 2355.91 170 2353.98 170H2352.79ZM2419.71 81.09C2425.04 81.09 2429.97 81.7133 2434.5 82.96C2439.15 84.0933 2442.83 85.68 2445.55 87.72C2448.39 89.76 2449.8 91.97 2449.8 94.35C2449.8 95.5967 2449.35 96.73 2448.44 97.75C2447.65 98.77 2446.63 99.28 2445.38 99.28C2444.25 99.28 2443.29 99.0533 2442.49 98.6C2441.81 98.1467 2441.02 97.4667 2440.11 96.56C2438.64 95.0867 2437.22 94.01 2435.86 93.33C2434.16 92.5367 2431.9 91.9133 2429.06 91.46C2426.34 90.8933 2423.4 90.61 2420.22 90.61C2413.99 90.61 2408.27 92.1967 2403.05 95.37C2397.95 98.5433 2393.93 102.85 2390.98 108.29C2388.04 113.73 2386.56 119.737 2386.56 126.31C2386.56 133.11 2387.98 139.23 2390.81 144.67C2393.65 150.11 2397.56 154.417 2402.54 157.59C2407.64 160.65 2413.42 162.18 2419.88 162.18C2423.96 162.18 2427.19 161.84 2429.57 161.16C2432.07 160.48 2434.5 159.517 2436.88 158.27C2437.68 157.817 2439.04 156.797 2440.96 155.21C2441.87 154.417 2442.66 153.85 2443.34 153.51C2444.02 153.057 2444.76 152.83 2445.55 152.83C2446.91 152.83 2447.99 153.283 2448.78 154.19C2449.58 154.983 2449.97 156.06 2449.97 157.42C2449.97 159.347 2448.61 161.443 2445.89 163.71C2443.17 165.863 2439.43 167.733 2434.67 169.32C2429.91 170.907 2424.64 171.7 2418.86 171.7C2410.59 171.7 2403.22 169.773 2396.76 165.92C2390.3 161.953 2385.26 156.513 2381.63 149.6C2378.12 142.687 2376.36 134.923 2376.36 126.31C2376.36 118.037 2378.18 110.5 2381.8 103.7C2385.43 96.7867 2390.53 91.29 2397.1 87.21C2403.68 83.13 2411.21 81.09 2419.71 81.09ZM2549.71 126.48C2549.71 134.98 2547.84 142.687 2544.1 149.6C2540.36 156.513 2535.2 161.953 2528.63 165.92C2522.05 169.773 2514.74 171.7 2506.7 171.7C2498.65 171.7 2491.34 169.773 2484.77 165.92C2478.19 161.953 2473.04 156.513 2469.3 149.6C2465.56 142.687 2463.69 134.98 2463.69 126.48C2463.69 117.98 2465.56 110.273 2469.3 103.36C2473.04 96.4467 2478.19 91.0067 2484.77 87.04C2491.34 83.0733 2498.65 81.09 2506.7 81.09C2514.74 81.09 2522.05 83.0733 2528.63 87.04C2535.2 91.0067 2540.36 96.4467 2544.1 103.36C2547.84 110.273 2549.71 117.98 2549.71 126.48ZM2539.51 126.48C2539.51 119.68 2538.09 113.56 2535.26 108.12C2532.42 102.68 2528.46 98.43 2523.36 95.37C2518.37 92.1967 2512.82 90.61 2506.7 90.61C2500.58 90.61 2495.02 92.1967 2490.04 95.37C2485.05 98.43 2481.08 102.68 2478.14 108.12C2475.3 113.56 2473.89 119.68 2473.89 126.48C2473.89 133.167 2475.3 139.23 2478.14 144.67C2481.08 150.11 2485.05 154.417 2490.04 157.59C2495.02 160.65 2500.58 162.18 2506.7 162.18C2512.82 162.18 2518.37 160.65 2523.36 157.59C2528.46 154.53 2532.42 150.28 2535.26 144.84C2538.09 139.4 2539.51 133.28 2539.51 126.48ZM2669.17 82.45C2679.37 82.45 2686.85 85.6233 2691.61 91.97C2696.48 98.2033 2698.92 106.477 2698.92 116.79V164.9C2698.92 166.373 2698.41 167.62 2697.39 168.64C2696.48 169.547 2695.29 170 2693.82 170C2692.35 170 2691.1 169.547 2690.08 168.64C2689.17 167.62 2688.72 166.373 2688.72 164.9V117.3C2688.72 109.82 2686.91 103.757 2683.28 99.11C2679.77 94.35 2674.27 91.97 2666.79 91.97C2662.03 91.97 2657.5 93.1033 2653.19 95.37C2649 97.6367 2645.6 100.753 2642.99 104.72C2640.38 108.573 2639.08 112.767 2639.08 117.3V164.9C2639.08 166.373 2638.57 167.62 2637.55 168.64C2636.64 169.547 2635.45 170 2633.98 170C2632.51 170 2631.26 169.547 2630.24 168.64C2629.33 167.62 2628.88 166.373 2628.88 164.9V116.79C2628.88 109.423 2627.18 103.473 2623.78 98.94C2620.38 94.2933 2615.05 91.97 2607.8 91.97C2603.15 91.97 2598.73 93.1033 2594.54 95.37C2590.46 97.6367 2587.12 100.697 2584.51 104.55C2582.02 108.29 2580.77 112.37 2580.77 116.79V164.9C2580.77 166.373 2580.26 167.62 2579.24 168.64C2578.33 169.547 2577.14 170 2575.67 170C2574.2 170 2572.95 169.547 2571.93 168.64C2571.02 167.62 2570.57 166.373 2570.57 164.9V88.74C2570.57 87.2667 2571.02 86.0767 2571.93 85.17C2572.95 84.15 2574.2 83.64 2575.67 83.64C2577.14 83.64 2578.33 84.15 2579.24 85.17C2580.26 86.0767 2580.77 87.2667 2580.77 88.74V98.6C2583.83 93.9533 2587.97 90.1 2593.18 87.04C2598.39 83.98 2603.89 82.45 2609.67 82.45C2616.24 82.45 2621.91 84.0367 2626.67 87.21C2631.43 90.3833 2634.83 95.03 2636.87 101.15C2639.25 96.1633 2643.61 91.8 2649.96 88.06C2656.31 84.32 2662.71 82.45 2669.17 82.45Z" fill="#FF8B02"/>
<circle cx="1164.5" cy="368.5" r="131.5" fill="#FF8B02"/>
<path d="M1235 368.5L1130 432.153L1130 304.847L1235 368.5Z" fill="white"/>
</svg>
