<svg width="184" height="37" viewBox="0 0 184 37" fill="none" xmlns="http://www.w3.org/2000/svg">
<path d="M36.5008 33.3L50.9008 4.80002C51.2008 4.20002 51.4008 3.90002 51.7008 3.90002H51.8008C52.1008 3.90002 52.2008 4.20002 52.6008 4.80002L67.1008 33.4C67.4008 33.9 67.1008 34.3 66.5008 34.3H62.3008C61.7008 34.3 61.5008 34.1 61.1008 33.4L58.4008 27.8H45.2008L42.5008 33.4C42.1008 34.1 41.9008 34.3 41.3008 34.3H37.1008C36.5008 34.3 36.3008 33.8 36.5008 33.3ZM56.6008 23.1L51.9008 13.1H51.8008L47.1008 23.1H56.6008Z" fill="#55C3F2"/>
<path d="M60.299 3.79999C60.999 3.79999 61.299 3.99999 61.499 4.69999L69.999 22.6L77.399 4.69999C77.399 4.59999 77.499 4.39999 77.499 4.39999C77.699 3.99999 77.799 3.89999 78.099 3.89999H78.799C79.099 3.89999 79.199 4.09999 79.399 4.39999C79.499 4.49999 79.499 4.59999 79.599 4.69999L86.899 22.6L95.499 4.69999C95.699 3.99999 95.999 3.79999 96.599 3.79999H100.999C101.699 3.79999 101.799 3.99999 101.499 4.69999L87.299 33.3C86.999 33.9 86.899 34.2 86.599 34.2H86.199C85.899 34.2 85.799 33.9 85.499 33.3L78.399 15.8L71.299 33.3C70.999 33.9 70.899 34.2 70.599 34.2H70.199C69.899 34.2 69.799 33.9 69.499 33.3L55.499 4.69999C55.199 3.99999 55.199 3.79999 55.899 3.79999H60.299V3.79999Z" fill="#55C3F2"/>
<path d="M107.399 11.7C114.399 11.7 117.999 17.3 117.999 23.7C117.999 24.5 117.899 24.7 117.099 24.7H101.499C102.099 28.4 104.999 30 107.699 30C109.099 30 111.099 29.7 113.399 28.5C113.799 28.3 113.999 28.2 114.199 28.2C114.399 28.2 114.499 28.3 114.799 28.6L116.099 30.2C116.499 30.8 116.599 31 116.199 31.4C114.199 33.4 110.699 34.4 107.599 34.4C101.199 34.4 96.1992 29.3 96.1992 23.1C96.1992 16.9 101.199 11.7 107.399 11.7ZM112.699 21.1C112.399 18.5 110.699 15.9 107.299 15.9C104.399 15.9 102.199 18.2 101.599 21.1H112.699Z" fill="#55C3F2"/>
<path d="M125.401 15.4C126.001 14.3 128.401 11.7 132.401 11.7C138.101 11.7 142.201 16.8 142.201 23C142.201 29 138.201 34.3 132.401 34.3C128.401 34.3 126.101 32.2 124.501 30.3L123.901 32.9C123.501 33.5 123.301 33.8 122.801 33.8H121.201C120.501 33.8 120.301 33.6 120.301 32.9L120.401 1.4C120.401 0.7 120.601 0.5 121.301 0.5H124.601C125.301 0.5 125.501 0.7 125.501 1.4L125.401 15.4ZM137.101 23C137.101 19.3 134.601 16.3 131.301 16.3C127.901 16.3 125.401 19.4 125.401 23C125.401 26.7 127.901 29.8 131.301 29.8C134.601 29.7 137.101 26.8 137.101 23Z" fill="#55C3F2"/>
<path d="M155.501 11.7C162.501 11.7 166.101 17.3 166.101 23.7C166.101 24.5 166.001 24.7 165.201 24.7H149.601C150.201 28.4 153.101 30 155.801 30C157.201 30 159.201 29.7 161.501 28.5C161.901 28.3 162.101 28.2 162.301 28.2C162.501 28.2 162.601 28.3 162.901 28.6L164.201 30.2C164.601 30.8 164.701 31 164.301 31.4C162.301 33.4 158.801 34.4 155.701 34.4C149.301 34.4 144.301 29.3 144.301 23.1C144.301 16.9 149.301 11.7 155.501 11.7ZM160.801 21.1C160.501 18.5 158.801 15.9 155.401 15.9C152.501 15.9 150.301 18.2 149.701 21.1H160.801Z" fill="#55C3F2"/>
<path d="M173.401 23.7V33.4C173.401 34.1 173.201 34.3 172.501 34.3H169.201C168.501 34.3 168.301 34.1 168.301 33.4V13.5C168.301 12.8 168.501 12.6 169.201 12.6H170.801C171.401 12.6 171.601 12.9 171.901 13.5L172.901 16.6C174.101 14.4 177.201 12 182.301 12C183.101 12 183.201 12.3 183.101 12.8L182.601 16.1C182.501 16.8 182.301 17 181.601 17C176.801 17.2 173.401 20.3 173.401 23.7Z" fill="#55C3F2"/>
<path d="M20.8008 2C20.0008 2 19.2008 2.4 18.7008 3C15.1008 7.6 12.9008 13 12.0008 18.4C11.1008 23.1 11.5008 29.1 13.1008 34.7C13.4008 35.8 14.0008 36.7 18.5008 36.7C30.7008 36.7 36.2008 31.9 36.2008 19.4C36.2008 7.1 31.0008 2 20.8008 2ZM20.5008 35.1C19.8008 35.5 18.8008 35.2 18.5008 34.5C16.0008 29.8 15.2008 24.5 16.2008 19.2C17.2008 13.9 19.8008 9.2 23.8008 5.6C24.4008 5.1 25.4008 5.1 25.9008 5.7C26.5008 6.3 26.4008 7.2 25.8008 7.8C22.4008 10.8 20.0008 14.9 19.2008 19.7C18.3008 24.4 19.2008 29.1 21.2008 33.1C21.2008 33.1 21.2008 33.1 21.2008 33.2C21.5008 33.8 21.2008 34.7 20.5008 35.1ZM29.7008 12.9C27.2008 14.9 25.4008 17.5 24.8008 20.6C24.2008 23.7 24.8008 26.8 26.4008 29.4C26.4008 29.4 26.4008 29.4 26.4008 29.5C26.7008 29.9 26.5008 30.5 26.0008 30.7C25.5008 30.9 24.9008 30.8 24.6008 30.3C22.8008 27.4 22.1008 23.9 22.8008 20.4C23.5008 16.9 25.5008 13.9 28.3008 11.6C28.3008 11.6 28.3008 11.6 28.4008 11.5C28.8008 11.2 29.5008 11.2 29.8008 11.6C30.2008 12 30.1008 12.6 29.7008 12.9ZM6.20078 32.5C6.30078 33.1 5.60078 33.5 5.10078 33.1C2.40078 30.7 0.800781 27.6 0.800781 19.3C0.800781 8.6 5.00078 4 10.7008 2.5C11.3008 2.3 11.7008 3 11.4008 3.4C8.80078 7.7 7.00078 12.4 6.10078 17.4C5.20078 22.4 5.30078 27.6 6.20078 32.5Z" fill="url(#paint0_linear)"/>
<defs>
<linearGradient id="paint0_linear" x1="7" y1="3.5" x2="32.5" y2="31.5" gradientUnits="userSpaceOnUse">
<stop stop-color="#009BDD"/>
<stop offset="1" stop-color="#63CAF5"/>
</linearGradient>
</defs>
</svg>
