<svg width="148" height="42" viewBox="0 0 148 42" fill="none" xmlns="http://www.w3.org/2000/svg">
<path fill-rule="evenodd" clip-rule="evenodd" d="M38.138 30.2549L41.9 28.7L33.6943 8.74215L32.1984 1.5L30.8332 1.78334L30.1 0L22.8386 2.9692C32.5177 4.99827 37.049 18.0427 37.6011 26.6C37.6367 26.9205 37.5708 27.2411 37.4261 27.521C37.4176 27.548 37.409 27.5743 37.4005 27.6C34.7005 32.2 28.6005 34.7999 20.2005 34.7999C20.1005 34.7 19.9005 34.7 19.8005 34.7C14.0005 34.7 8.40049 32.2 4.50048 27.8C4.48695 27.7891 4.47371 27.7781 4.46076 27.7668L6.69844 38.6001L10.5378 37.8032L11.9 41.1001L29.2947 33.9102L38.4984 31.9999L38.138 30.2549ZM4.11083 26.0727C5.21858 23.1582 8.11203 16.4996 11.8005 16.4C13.7005 16.4 15.1005 17.9 16.2005 19.1C16.5005 19.5 17.0005 20 17.4005 20.3C18.3005 19.4 20.0005 16.6 21.3005 13.7C21.7005 12.8 22.7005 12.5 23.6005 12.9C24.5005 13.3 24.8005 14.3 24.4005 15.2C20.4005 23.9 18.3005 23.9 17.5005 23.9C15.9005 23.9 14.8005 22.7 13.7005 21.5C13.6245 21.4239 13.5369 21.3341 13.4416 21.2363C12.9103 20.6909 12.1397 19.9 11.8005 19.9C10.9005 20 9.00049 23.1 7.70048 26.4C11.0005 29.7 15.5005 31.5 20.1005 31.4C24.1005 31.4 31.2005 30.7 34.1005 26.4C33.3005 17.8 28.6005 6.19995 20.1005 6.19995C19.9233 6.19995 19.75 6.16895 19.586 6.11229C12.6929 6.39083 7.50072 11.3839 4.10112 21C3.95579 21.4359 3.64619 21.7781 3.26327 21.9695L4.11083 26.0727ZM5.69844 7L9.81363 6.1459C6.6724 8.55093 4.05512 12.2083 1.98234 17.0976L0 12.3L1.1677 11.8242L0.398438 8.1L5.69844 7Z" fill="#FFE000"/>
<path d="M45 14.7H51.1C54.5 14.7 56.3 16.1 56.3 18.7V18.8C56.4 20.4 55.3 21.8 53.8 22.1C55.7 22.3 57 23.9 56.9 25.8V25.9C56.9 28.8 55 30.3 51.4 30.3H45V14.7ZM50.5 21.1C52.2 21.1 52.9 20.5 52.9 19.1V19C52.9 17.7 52.2 17.1 50.5 17.1H48.4V21.1H50.5ZM50.9 27.8C52.6 27.8 53.4 27 53.4 25.6V25.5C53.4 24.1 52.6 23.3 50.7 23.3H48.5V27.8H50.9Z" fill="#1D2D35"/>
<path d="M57.8008 27.0999C57.8008 24.4999 60.2009 23.4999 63.7009 23.4999H65.0009V22.9999C65.0009 21.5999 64.6009 20.8999 63.2009 20.8999C62.3009 20.7999 61.4008 21.3999 61.3008 22.3999V22.4999H58.3008C58.5008 19.7999 60.6008 18.5999 63.4008 18.5999C66.2008 18.5999 68.2009 19.6999 68.2009 22.7999V30.1999H65.1009V28.8999C64.3009 29.9999 63.0009 30.5999 61.7009 30.4999C59.5009 30.4999 57.8008 29.4999 57.8008 27.0999ZM65.0009 26.2999V25.2999H63.8008C62.0008 25.2999 60.9009 25.6999 60.9009 26.8999C60.9009 27.6999 61.4009 28.2999 62.6009 28.2999C63.9009 28.2999 65.0009 27.4999 65.0009 26.2999Z" fill="#1D2D35"/>
<path d="M69.3984 26.6999H72.2984C72.3984 27.6999 72.8984 28.2999 74.2984 28.2999C75.6984 28.2999 76.0984 27.7999 76.0984 27.0999C76.0984 26.3999 75.3984 25.9999 73.7984 25.6999C70.7984 25.1999 69.5984 24.3999 69.5984 22.0999C69.5984 19.7999 71.6984 18.5999 74.0984 18.5999C76.5984 18.5999 78.4984 19.4999 78.7984 22.0999H75.8984C75.6984 21.1999 75.1984 20.6999 74.0984 20.6999C72.9984 20.6999 72.4984 21.1999 72.4984 21.8999C72.4984 22.5999 72.9984 22.8999 74.6984 23.0999C77.4984 23.4999 79.0984 24.1999 79.0984 26.6999C79.0984 29.1999 77.2984 30.4999 74.2984 30.4999C71.2984 30.4999 69.4984 29.0999 69.3984 26.6999Z" fill="#1D2D35"/>
<path d="M79.9999 24.6999V24.4999C79.7999 21.3999 82.1999 18.6999 85.3999 18.5999H85.8999C88.7999 18.5999 91.4999 20.2999 91.4999 24.3999V25.2999H83.1999C83.2999 27.1999 84.2999 28.2999 85.9999 28.2999C87.4999 28.2999 88.1999 27.6999 88.3999 26.6999H91.3999C90.9999 29.1999 89.0999 30.4999 85.9999 30.4999C82.4999 30.4999 79.9999 28.2999 79.9999 24.6999ZM88.2999 23.2999C88.1999 21.5999 87.2999 20.6999 85.7999 20.6999C84.3999 20.6999 83.1999 21.7999 83.1999 23.2999H88.2999Z" fill="#1D2D35"/>
<path d="M92.1983 24.6999V24.4999C92.0983 21.3999 94.4983 18.6999 97.5983 18.5999H98.0983C100.698 18.5999 103.198 19.6999 103.398 22.9999H100.398C100.298 21.8999 99.2983 20.9999 98.1983 21.0999C96.5983 21.0999 95.4983 22.2999 95.4983 24.4999V24.6999C95.4983 26.9999 96.4983 28.1999 98.2983 28.1999C99.5983 28.2999 100.698 27.2999 100.698 25.9999H103.498C103.298 28.6999 101.398 30.5999 98.0983 30.5999C94.7983 30.5999 92.1983 28.3999 92.1983 24.6999Z" fill="#1D2D35"/>
<path d="M104.301 27.1C104.301 24.5 106.701 23.5 110.201 23.5H111.501V23C111.501 21.6 111.101 20.9 109.701 20.9C108.801 20.8 107.901 21.4 107.801 22.4V22.6H104.801C105.001 19.9 107.101 18.7 109.901 18.7C112.701 18.7 114.701 19.8 114.701 22.9V30.2H111.601V28.9C110.801 30 109.501 30.6 108.201 30.5C106.001 30.5 104.301 29.5 104.301 27.1ZM111.401 26.3V25.3H110.201C108.401 25.3 107.301 25.7 107.301 26.9C107.301 27.7 107.801 28.3 109.001 28.3C110.401 28.3 111.401 27.5 111.401 26.3Z" fill="#1D2D35"/>
<path d="M116.699 18.9H119.899V20.6C120.599 19.3 121.899 18.6 123.399 18.6C124.799 18.5 126.099 19.3 126.599 20.6C127.499 19.3 128.899 18.6 130.399 18.6C132.499 18.6 134.199 19.9 134.199 23V30.2H131.099V23.3C131.099 21.8 130.499 21.2 129.299 21.2C128.099 21.1 127.099 22.1 127.099 23.2V23.5V30.2H123.999V23.3C123.999 21.8 123.299 21.2 122.199 21.2C120.999 21.1 120.099 22.1 119.999 23.2V23.5V30.2H116.799L116.699 18.9Z" fill="#1D2D35"/>
<path d="M136.301 18.9H139.401V20.7C140.201 19.4 141.601 18.7 143.001 18.7C145.801 18.7 148.001 20.8 148.001 24.5V24.7C148.001 28.5 145.901 30.6 143.001 30.6C141.501 30.7 140.101 29.9 139.401 28.6V34.2H136.301V18.9ZM144.801 24.6V24.4C144.801 22.1 143.701 21 142.101 21C140.501 21 139.301 22.1 139.301 24.4V24.6C139.301 26.9 140.401 28 142.101 28C143.801 28 144.801 26.8 144.801 24.6Z" fill="#1D2D35"/>
</svg>
