<svg width="150" height="42" viewBox="0 0 150 42" fill="none" xmlns="http://www.w3.org/2000/svg">
<g clip-path="url(#clip0)">
<path d="M37.9 25.7C37 25.7 36.3 25 36.2 24.1C35.6 15.5 30.9 3.4 22.2 3.4C15 3.4 9.60002 8.4 6.10002 18.3C5.80002 19.2 4.80002 19.7 3.90002 19.3C3.00002 19 2.50002 18 2.90002 17.2C6.90002 5.8 13.4 0 22.2 0C33.7 0 39 14.6 39.6 23.9C39.7 24.8 39 25.7 38 25.7H37.9Z" fill="#1D2D35"/>
<path opacity="0.4" d="M41.9 29L11.9 41.4001L0 12.6L5.4 10.4L30.1 0.300049L41.9 29Z" fill="#FFE000"/>
<path d="M40.5 32.3L8.70002 38.9001L2.40002 8.40005L7.70002 7.30005L34.2 1.80005L40.5 32.3Z" fill="#FFE000"/>
<path d="M21.8 32C16 32 10.4 29.5 6.49999 25.1C5.99999 24.7 5.89999 24 6.09999 23.4C7.19999 20.5 10.1 13.8 13.8 13.7C15.7 13.7 17.1 15.2 18.2 16.4C18.5 16.8 19 17.3 19.4 17.6C20.3 16.7 22 13.9 23.3 11C23.7 10.1 24.7 9.8 25.6 10.2C26.5 10.6 26.8 11.6 26.4 12.5C22.4 21.2 20.3 21.2 19.5 21.2C17.9 21.2 16.8 20 15.7 18.8C15.2 18.3 14.2 17.2 13.8 17.2C12.9 17.3 11 20.4 9.69999 23.7C13 27 17.5 28.8 22.1 28.7C26.1 28.7 33.2 28 36.1 23.7C35.3 15.1 30.6 3.5 22.1 3.5C21.2 3.5 20.4 2.7 20.4 1.8C20.4 0.9 21.2 0 22.2 0C33.7 0 39 14.6 39.6 23.9C39.6 24.2 39.5 24.6 39.4 24.9C36.7 29.5 30.6 32.1 22.2 32.1C22.1 32 21.9 32 21.8 32Z" fill="#1D2D35"/>
<path d="M47 12H53.1C56.5 12 58.3 13.4 58.3 16V16.1C58.4 17.7 57.3 19.1 55.8 19.4C57.7 19.6 59 21.2 58.9 23.1V23.2C58.9 26.1 57 27.6 53.4 27.6H47V12ZM52.5 18.4C54.2 18.4 54.9 17.8 54.9 16.4V16.3C54.9 15 54.2 14.4 52.5 14.4H50.4V18.4H52.5ZM52.9 25.1C54.6 25.1 55.4 24.3 55.4 22.9V22.8C55.4 21.4 54.6 20.6 52.7 20.6H50.5V25.1H52.9Z" fill="#1D2D35"/>
<path d="M59.8 24.3999C59.8 21.7999 62.2001 20.7999 65.7001 20.7999H67.0001V20.2999C67.0001 18.8999 66.6001 18.1999 65.2001 18.1999C64.3001 18.0999 63.4 18.6999 63.3 19.6999V19.7999H60.3C60.5 17.0999 62.6 15.8999 65.4 15.8999C68.2 15.8999 70.2001 16.9999 70.2001 20.0999V27.4999H67.1001V26.1999C66.3001 27.2999 65.0001 27.8999 63.7001 27.7999C61.5001 27.7999 59.8 26.7999 59.8 24.3999V24.3999ZM67.0001 23.5999V22.5999H65.8C64 22.5999 62.9001 22.9999 62.9001 24.1999C62.9001 24.9999 63.4001 25.5999 64.6001 25.5999C65.9001 25.5999 67.0001 24.7999 67.0001 23.5999Z" fill="#1D2D35"/>
<path d="M71.4 23.9999H74.3C74.4 24.9999 74.9 25.5999 76.3 25.5999C77.7 25.5999 78.1 25.0999 78.1 24.3999C78.1 23.6999 77.4 23.2999 75.8 22.9999C72.8 22.4999 71.6 21.6999 71.6 19.3999C71.6 17.0999 73.7 15.8999 76.1 15.8999C78.6 15.8999 80.5 16.7999 80.8 19.3999H77.9C77.7 18.4999 77.2 17.9999 76.1 17.9999C75 17.9999 74.5 18.4999 74.5 19.1999C74.5 19.8999 75 20.1999 76.7 20.3999C79.5 20.7999 81.1 21.4999 81.1 23.9999C81.1 26.4999 79.3 27.7999 76.3 27.7999C73.3 27.7999 71.5 26.3999 71.4 23.9999V23.9999Z" fill="#1D2D35"/>
<path d="M82 21.9999V21.7999C81.8 18.6999 84.2 15.9999 87.4 15.8999H87.9C90.8 15.8999 93.5 17.5999 93.5 21.6999V22.5999H85.2C85.3 24.4999 86.3 25.5999 88 25.5999C89.5 25.5999 90.2 24.9999 90.4 23.9999H93.4C93 26.4999 91.1 27.7999 88 27.7999C84.5 27.7999 82 25.5999 82 21.9999V21.9999ZM90.3 20.5999C90.2 18.8999 89.3 17.9999 87.8 17.9999C86.4 17.9999 85.2 19.0999 85.2 20.5999H90.3Z" fill="#1D2D35"/>
<path d="M94.2 21.9999V21.7999C94.1 18.6999 96.5 15.9999 99.6 15.8999H100.1C102.7 15.8999 105.2 16.9999 105.4 20.2999H102.4C102.3 19.1999 101.3 18.2999 100.2 18.3999C98.6 18.3999 97.5 19.5999 97.5 21.7999V21.9999C97.5 24.2999 98.5 25.4999 100.3 25.4999C101.6 25.5999 102.7 24.5999 102.7 23.2999H105.5C105.3 25.9999 103.4 27.8999 100.1 27.8999C96.8 27.8999 94.2 25.6999 94.2 21.9999V21.9999Z" fill="#1D2D35"/>
<path d="M106.3 24.4C106.3 21.8 108.7 20.8 112.2 20.8H113.5V20.3C113.5 18.9 113.1 18.2 111.7 18.2C110.8 18.1 109.9 18.7 109.8 19.7V19.9H106.8C107 17.2 109.1 16 111.9 16C114.7 16 116.7 17.1 116.7 20.2V27.5H113.6V26.2C112.8 27.3 111.5 27.9 110.2 27.8C108 27.8 106.3 26.8 106.3 24.4V24.4ZM113.4 23.6V22.6H112.2C110.4 22.6 109.3 23 109.3 24.2C109.3 25 109.8 25.6 111 25.6C112.4 25.6 113.4 24.8 113.4 23.6Z" fill="#1D2D35"/>
<path d="M118.7 16.2H121.9V17.9C122.6 16.6 123.9 15.9 125.4 15.9C126.8 15.8 128.1 16.6 128.6 17.9C129.5 16.6 130.9 15.9 132.4 15.9C134.5 15.9 136.2 17.2 136.2 20.3V27.5H133.1V20.6C133.1 19.1 132.5 18.5 131.3 18.5C130.1 18.4 129.1 19.4 129.1 20.5V20.8V27.5H126V20.6C126 19.1 125.3 18.5 124.2 18.5C123 18.4 122.1 19.4 122 20.5V20.8V27.5H118.8L118.7 16.2Z" fill="#1D2D35"/>
<path d="M138.3 16.2H141.4V18C142.2 16.7 143.6 16 145 16C147.8 16 150 18.1 150 21.8V22C150 25.8 147.9 27.9 145 27.9C143.5 28 142.1 27.2 141.4 25.9V31.5H138.3V16.2ZM146.8 21.9V21.7C146.8 19.4 145.7 18.3 144.1 18.3C142.5 18.3 141.3 19.4 141.3 21.7V21.9C141.3 24.2 142.4 25.3 144.1 25.3C145.8 25.3 146.8 24.1 146.8 21.9Z" fill="#1D2D35"/>
</g>
<defs>
<clipPath id="clip0">
<rect width="149.8" height="41.4" fill="white"/>
</clipPath>
</defs>
</svg>
