<svg width="137" height="37" viewBox="0 0 137 37" fill="none" xmlns="http://www.w3.org/2000/svg">
<path d="M51.9 23.8H47.9V21.4H50.9C51 21.4 51.1 21.3 51.1 21.2V19.8C51.1 19.7 51 19.6 50.9 19.6H47.9V17.2H51.8C51.9 17.2 52 17.1 52 17V15.7C52 15.6 51.9 15.5 51.8 15.5H46.1C46 15.5 45.9 15.6 45.9 15.7V25.3C45.9 25.4 46 25.5 46.1 25.5H51.9C52 25.5 52.1 25.4 52.1 25.3V23.9C52.1 23.8 52 23.8 51.9 23.8V23.8Z" fill="#1D202D"/>
<path d="M64.1 15.6H62.4C62.3 15.6 62.2 15.7 62.2 15.8V21.9L57.6 15.7L57.5 15.6H55.8C55.7 15.6 55.6 15.7 55.6 15.8V25.4C55.6 25.5 55.7 25.6 55.8 25.6H57.5C57.6 25.6 57.7 25.5 57.7 25.4V19.3L62.3 25.5L62.4 25.6H64.1C64.2 25.6 64.3 25.5 64.3 25.4V15.8C64.3 15.6 64.2 15.6 64.1 15.6Z" fill="#1D202D"/>
<path d="M75.1 21.7C75 21.7 74.9 21.7 74.9 21.8C74.3 23.1 73.3 23.7 72 23.7C70.3 23.7 69.1 22.4 69.1 20.3C69.1 18.1 70.5 17 72.2 17C73 17 74 17.3 74.7 18.2C74.8 18.3 74.9 18.3 74.9 18.2L76.1 17.1C76.2 17 76.2 16.9 76.1 16.9C75.1 15.7 73.6 15.2 72.3 15.2C69.7 15.2 67.1 17 67.1 20.5C67.1 23.7 69.4 25.7 72 25.7C73.9 25.7 75.7 24.7 76.5 22.8C76.5 22.7 76.5 22.6 76.4 22.6L75.1 21.7V21.7Z" fill="#1D202D"/>
<path d="M87.4 15.6H85.7C85.6 15.6 85.5 15.7 85.5 15.8V19.7H81.2V15.8C81.2 15.7 81.1 15.6 81 15.6H79.3C79.2 15.6 79.1 15.7 79.1 15.8V25.4C79.1 25.5 79.2 25.6 79.3 25.6H81C81.1 25.6 81.2 25.5 81.2 25.4V21.5H85.5V25.4C85.5 25.5 85.6 25.6 85.7 25.6H87.4C87.5 25.6 87.6 25.5 87.6 25.4V15.8C87.5 15.6 87.5 15.6 87.4 15.6Z" fill="#1D202D"/>
<path d="M101.3 15.6H99.4C99.3 15.6 99.3 15.6 99.3 15.7L96.4 20.9L93.5 15.6C93.5 15.5 93.4 15.5 93.4 15.5H91.5C91.4 15.5 91.3 15.6 91.3 15.7V25.3C91.3 25.4 91.4 25.5 91.5 25.5H93C93.1 25.5 93.2 25.4 93.2 25.3V19.2L95.5 23.3C95.5 23.4 95.6 23.4 95.6 23.4H97.1C97.2 23.4 97.2 23.4 97.2 23.3L99.5 19.2V25.3C99.5 25.4 99.6 25.5 99.7 25.5H101.4C101.5 25.5 101.6 25.4 101.6 25.3V15.7C101.5 15.6 101.4 15.6 101.3 15.6V15.6Z" fill="#1D202D"/>
<path d="M109.9 15.6H108.2C108.1 15.6 108.1 15.6 108 15.7L104.2 25.3C104.2 25.4 104.2 25.5 104.4 25.5H106.2C106.3 25.5 106.3 25.5 106.4 25.4L107.2 23.3H110.9L111.7 25.4C111.7 25.5 111.8 25.5 111.9 25.5H113.7C113.8 25.5 113.9 25.4 113.9 25.3L110.2 15.7C110 15.6 110 15.6 109.9 15.6V15.6ZM107.9 21.4L109 18.4L110.1 21.4H107.9V21.4Z" fill="#1D202D"/>
<path d="M121.9 21.1C123.2 20.5 123.7 19.4 123.7 18.4C123.7 16.8 122.6 15.5 120.6 15.5H116.8C116.7 15.5 116.6 15.6 116.6 15.7V25.3C116.6 25.4 116.7 25.5 116.8 25.5H118.5C118.6 25.5 118.7 25.4 118.7 25.3V21.5H119.8L122.1 25.4C122.1 25.5 122.2 25.5 122.2 25.5H124.2C124.3 25.5 124.4 25.4 124.3 25.3L121.9 21.1V21.1ZM120.2 19.8H118.5V17.2H120.2C121 17.2 121.6 17.8 121.6 18.5C121.7 19.2 121.1 19.8 120.2 19.8Z" fill="#1D202D"/>
<path d="M135.7 25.1L131.2 20.2L135.4 15.7C135.5 15.6 135.4 15.4 135.3 15.4H133.2C133.2 15.4 133.1 15.4 133.1 15.5L129.4 19.6V15.6C129.4 15.5 129.3 15.4 129.2 15.4H127.5C127.4 15.4 127.3 15.5 127.3 15.6V25.2C127.3 25.3 127.4 25.4 127.5 25.4H129.2C129.3 25.4 129.4 25.3 129.4 25.2V21.1L133.2 25.2L133.3 25.3H135.6C135.8 25.4 135.8 25.3 135.7 25.1V25.1Z" fill="#1D202D"/>
<path d="M40.6 20.1C41.5 19.8 42.2 18.9 42.2 17.9C42.2 16.6 41.2 15.5 39.2 15.5H35.7C35.6 15.5 35.5 15.6 35.5 15.7V25.3C35.5 25.4 35.6 25.5 35.7 25.5H39.3C41.5 25.5 42.6 23.9 42.6 22.5C42.6 21.2 41.6 20.3 40.6 20.1ZM37.4 17.2H39C39.6 17.2 40.2 17.5 40.2 18.3C40.2 19 39.6 19.5 38.9 19.5H37.4V17.2V17.2ZM39 23.8H37.4V21.2H39.1C39.9 21.2 40.7 21.6 40.7 22.4C40.5 23.2 39.8 23.8 39 23.8V23.8Z" fill="#1D202D"/>
<path d="M18.4 29.2L13.5 34.2C13 34.7 13 35.3 13.5 35.8C13.7 36 14 36.1 14.2 36.1C14.4 36.1 14.8 36 14.9 35.8L19.9 30.8C20.4 30.3 20.4 29.7 19.9 29.2C19.5 28.8 18.9 28.8 18.4 29.2V29.2Z" fill="#8D4400"/>
<path d="M3.09998 23.2C3.09998 23.1 3.29998 22.7 3.79998 21.9C4.59998 20.7 5.89998 19.2 7.59998 17.6L8.39998 16.8C8.79998 16.4 9.29998 16.3 9.79998 16.5L9.69998 16.4C9.39998 16.1 9.39998 15.8 9.69998 15.5L9.99998 15.2C10.5 14.7 10.5 14.1 9.99998 13.6C9.49998 13.1 8.89998 13.1 8.39998 13.6L5.99998 16.1C4.29998 17.9 2.89998 19.6 1.89998 21C1.19998 22 1.09998 22.6 0.999984 22.8C0.899984 23.4 1.29998 24 1.79998 24.1H2.09998C2.59998 24 2.99998 23.8 3.09998 23.2V23.2Z" fill="#8D4400"/>
<path d="M25.9 1.29999L10.4 16.8C11 17.4 11 18.2 10.4 18.6L10 19L7.50002 21.5C3.00002 26 2.50002 28 2.40002 28.4C2.30002 29 2.70002 29.6 3.30002 29.7H3.50002C4.10002 29.7 4.40002 29.3 4.60002 28.9C4.60002 28.8 4.80002 28.4 5.30002 27.5C5.90002 26.6 7.00002 25.1 9.10002 23L9.90002 22.2C10.3 21.8 10.8 21.7 11.3 21.9L11.2 21.8C10.9 21.5 10.9 21.2 11.2 20.9L11.5 20.6C12 20.1 12 19.5 11.5 19L11.3 18.8L27.4 2.79999C27.9 2.29999 27.9 1.69999 27.4 1.19999C27 0.899989 26.3 0.899989 25.9 1.29999V1.29999Z" fill="#8D4400"/>
<path d="M23.4 10.6L11.9 22.2C12.5 22.8 12.5 23.6 11.9 24L11.5 24.4L9.09999 26.8C7.19999 28.7 5.69999 30.7 4.89999 32.5C4.29999 33.9 4.29999 34.7 4.29999 34.9C4.29999 35.5 4.79999 36 5.39999 36C5.99999 36 6.49999 35.5 6.49999 34.9C6.49999 34.9 6.49999 34.3 6.99999 33.3C7.89999 31.4 9.49999 29.5 10.8 28.2L11.6 27.4C12 27 12.5 26.9 13 27.1L12.9 27C12.6 26.7 12.6 26.4 12.9 26.1L13.2 25.8C13.7 25.3 13.7 24.7 13.2 24.2L13 24L25.1 12C25.6 11.5 25.6 10.9 25.1 10.4C24.5 10.2 23.9 10.2 23.4 10.6V10.6Z" fill="#8D4400"/>
<path d="M20.9 20L13.3 27.6C13.9 28.2 13.9 29 13.3 29.4L12.2 30.5C12.7 30.8 13.2 30.8 13.6 30.3L22.4 21.5C22.9 21 22.9 20.4 22.4 19.9C22 19.5 21.4 19.5 20.9 20V20Z" fill="#8D4400"/>
</svg>
