<svg width="133" height="26" viewBox="0 0 133 26" fill="none" xmlns="http://www.w3.org/2000/svg">
<g clip-path="url(#clip0)">
<path fill-rule="evenodd" clip-rule="evenodd" d="M45.4984 13C46.1984 12.2 46.5984 11.1 46.5984 9.80005C46.5984 6.50005 43.7984 4.20005 40.1984 4.20005H33.3984V23.1H42.2984C45.8984 23.1 48.6984 20.8 48.6984 17.5C48.6984 15.3 47.3984 13.7 45.4984 13ZM38.1984 8.40005H39.9984C41.1984 8.40005 41.8984 9.10005 41.8984 10.1C41.8984 11.1 41.1984 11.8 39.9984 11.8H38.1984V8.40005ZM41.9984 19H38.1984V15.7H41.9984C43.0984 15.7 43.8984 16.2 43.8984 17.4C43.8984 18.6 43.0984 19 41.9984 19ZM51.0984 1.60005H55.9984V23.1H51.0984V1.60005ZM59.1984 8.80005H64.0984V23.1H59.1984V8.80005ZM61.5984 0.800049C59.8984 0.800049 58.5984 2.10005 58.5984 3.70005C58.5984 5.30005 59.8984 6.60005 61.5984 6.60005C63.2984 6.60005 64.5984 5.30005 64.5984 3.70005C64.6984 2.10005 63.2984 0.800049 61.5984 0.800049V0.800049ZM75.8984 8.50005C74.1984 8.50005 72.7984 9.10005 71.8984 10V8.80005H67.3984V23.1H72.2984V15C72.2984 13.7 73.1984 12.9 74.3984 12.9C75.5984 12.9 76.4984 13.7 76.4984 15V23.1H81.3984V14.3C81.2984 10.8 79.1984 8.50005 75.8984 8.50005ZM99.4984 8.80005H93.7984L89.3984 14.6V1.60005H84.3984V23.1H89.3984V15.6L94.4984 23.1H99.8984L94.5984 15.2L99.4984 8.80005ZM101.498 8.80005H106.398V23.1H101.498V8.80005ZM103.898 0.800049C102.198 0.800049 100.898 2.10005 100.898 3.70005C100.898 5.30005 102.198 6.60005 103.898 6.60005C105.598 6.60005 106.898 5.30005 106.898 3.70005C106.898 2.10005 105.598 0.800049 103.898 0.800049ZM116.198 14.2L114.798 13.6C114.098 13.3 113.798 13.2 113.798 12.8C113.798 12.4 114.198 12.3 114.798 12.3C115.898 12.3 116.898 12.7 117.798 13.5L120.098 10.5C118.698 9.00005 116.798 8.40005 114.698 8.40005C111.398 8.40005 109.098 10.1 109.098 12.9C109.098 15.3 110.598 16.4 113.298 17.5L114.898 18.2001C115.398 18.4001 115.698 18.6 115.698 18.9C115.698 19.4 115.098 19.5 114.398 19.5C112.998 19.5 111.598 18.9001 110.398 17.7001L108.098 20.6C109.398 22.4 111.698 23.3 114.298 23.3C117.698 23.3 120.198 21.6 120.198 18.5C120.398 16.3 118.798 15.2 116.198 14.2V14.2ZM130.898 19C129.098 19 128.398 18.5 128.398 17.1V12.9H132.198V8.80005H128.398V5.40005H123.498V8.80005H121.298V12.9H123.498V17.6C123.498 21.5001 125.798 23.4 129.798 23.4C130.898 23.4 131.898 23.3 132.698 23.1V19H130.898Z" fill="#002F54"/>
<path fill-rule="evenodd" clip-rule="evenodd" d="M19.4 0L13.5 6L7.6 0C3.1 2.2 0 6.9 0 12.3C0 19.8 6 26 13.5 26C20.9 26 27 19.9 27 12.3C27 6.9 23.9 2.2 19.4 0Z" fill="#2CDE80"/>
<path fill-rule="evenodd" clip-rule="evenodd" d="M17.1 9.6L13.6 6L10 9.6C8 11.6 8 14.9 10 16.9C12 18.9 15.2 18.9 17.2 16.9C19.1 14.9 19.1 11.6 17.1 9.6V9.6Z" fill="#002F54"/>
</g>
<defs>
<clipPath id="clip0">
<rect width="132.7" height="25.9" fill="white"/>
</clipPath>
</defs>
</svg>
