<svg width="517" height="100" viewBox="0 0 517 100" fill="none" xmlns="http://www.w3.org/2000/svg">
<path fill-rule="evenodd" clip-rule="evenodd" d="M50 0C22.4333 0 0 22.4333 0 50C0 77.5667 22.4333 100 50 100C77.5667 100 100 77.5667 100 50C100 22.4333 77.5667 0 50 0ZM93.0333 46.4333C90.4775 37.9778 86.1775 30.9333 81.2444 25.1556C85.9225 24.6889 89.1667 24.6333 90.0558 24.6333C93.2667 29.6889 95.5442 35.3778 96.6558 41.4778C95.9775 43.1333 94.7225 44.7889 93.0333 46.4333ZM92.7775 67.6556C90.1108 63.6556 86.9558 59.8111 83.5667 56.2C86.4892 54.5444 89.2225 52.7889 91.5892 50.9777C92.7225 56.0333 93.1892 61.5889 92.7775 67.6556ZM8.42225 50.9777C10.7778 52.8 13.5223 54.5444 16.4333 56.2C13.0444 59.8111 9.87775 63.6556 7.22223 67.6556C6.81111 61.6 7.27778 56.0444 8.42225 50.9777ZM3.33333 41.4667C4.44444 35.3667 6.72223 29.6778 9.93333 24.6223C10.8223 24.6223 14.0778 24.6778 18.7444 25.1444C13.8223 30.9223 9.51108 37.9778 6.95556 46.4333C5.27777 44.7889 4.02223 43.1333 3.33333 41.4667ZM78.8667 70.6889C78.8889 70.6444 78.9 70.6111 78.9223 70.5667C80.5556 66.7667 81.7444 62.8556 82.5111 58.8444C85.8775 62.5 88.9892 66.3778 91.5108 70.3778C86.8225 70.6111 82.6223 70.7111 78.8667 70.6889ZM8.48892 70.3778C11.0111 66.3889 14.1111 62.5111 17.4889 58.8556C18.2556 62.8667 19.4444 66.7778 21.0778 70.5778C21.1 70.6223 21.1223 70.6556 21.1333 70.7C17.3778 70.7111 13.1778 70.6111 8.48892 70.3778ZM51.2778 15.9556C54.5333 16.3889 63.3223 18.0111 73.3889 23.6223C66.8 24.7 58.9889 26.5111 51.2778 29.6V15.9556ZM48.7223 29.6C40.7223 26.4 32.6333 24.5556 25.9111 23.5C37.1 17.3223 46.6444 16.0556 48.7223 15.8444V29.6ZM46.5333 31.4889C43.6111 33.3889 38.7111 36.7222 33.1444 41.0889C30.2223 36.2444 27.3444 31.0778 24.8333 25.9111C31.1889 26.8667 38.8667 28.5556 46.5333 31.4889ZM48.7223 33.1223V64.3333C45.7223 60.2667 40.1556 52.4889 34.5111 43.3223C40.6444 38.4889 45.9889 34.8889 48.7223 33.1223ZM46.9444 66.2111C41.6223 64.7 30.4223 60.6889 20.6111 55.5889C24.5111 51.6778 28.6111 48.0778 32.5 44.9223C38.3223 54.3444 44.0111 62.2556 46.9444 66.2111ZM48.7223 86.5108C46.5778 86.5225 41.7778 86.4 36 85.4333C42.2 79.8889 46.3778 75.0556 48.7223 72.0556V86.5108ZM51.2778 72.0556C53.6223 75.0556 57.8 79.8889 64 85.4333C58.2223 86.4 53.4223 86.5225 51.2778 86.5108V72.0556ZM51.2778 64.3333V33.1223C54.0111 34.8889 59.3556 38.4889 65.4889 43.3223C59.8444 52.4889 54.2778 60.2667 51.2778 64.3333ZM67.5 44.9223C71.3889 48.0778 75.4889 51.6778 79.3889 55.5889C69.5889 60.6889 58.3778 64.7 53.0556 66.2111C55.9889 62.2556 61.6778 54.3444 67.5 44.9223ZM53.4667 31.4889C61.1333 28.5556 68.8111 26.8777 75.1667 25.9222C72.6556 31.0889 69.7778 36.2444 66.8556 41.0889C61.2778 36.7111 56.3889 33.3889 53.4667 31.4889ZM51.2778 13.3778V6.35556C55.0556 7.96667 64.5444 12.5223 73.5333 20.8C63.1333 15.2223 54.3667 13.7333 51.2778 13.3778ZM48.7223 13.2777C47.0556 13.4222 38.4667 14.3778 27.7667 19.6556C36.3556 12.1111 45.1333 7.88889 48.7223 6.34444V13.2777ZM31.1333 42.6889C27.2778 45.8 23.2 49.3556 19.2889 53.2556C18.5111 44.9333 19.5778 36.1667 22.5223 26.9889C25.1223 32.3444 28.1111 37.6889 31.1333 42.6889ZM23.4222 69.5667C21.8222 65.8556 20.6889 62.0333 19.9556 58.1111C29.1889 62.8889 39.4111 66.6333 45.3333 68.3667C41.5444 69.3223 34.8 70.4556 23.9444 70.6667C23.7667 70.2889 23.5777 69.9444 23.4222 69.5667ZM46.5333 70.6889C44.0556 73.8111 39.6223 78.9 33.0556 84.6225C30.2111 81.4222 27.4556 77.6223 25.1556 73.1889C36.0333 72.9111 42.7556 71.6889 46.5333 70.6889ZM48.1444 89.0775H48.7223V96.9225C46.0444 95.7442 41.3444 92.8558 36.4333 88.1667C41.5333 88.9333 45.7889 89.0775 48.1444 89.0775ZM51.2778 89.0667H51.8556C54.2111 89.0667 58.4667 88.9333 63.5667 88.1442C58.6556 92.8333 53.9556 95.7225 51.2778 96.9V89.0667ZM53.4667 70.6889C57.2444 71.6889 63.9667 72.9111 74.8444 73.1889C72.5333 77.6223 69.7778 81.4222 66.9444 84.6225C60.3778 78.9 55.9444 73.8111 53.4667 70.6889ZM54.7 68.3556C60.6223 66.6223 70.8333 62.8889 80.0444 58.1111C79.3223 62.0333 78.1778 65.8556 76.5778 69.5667C76.4111 69.9444 76.2333 70.2889 76.0667 70.6556C65.2667 70.4444 58.5111 69.3 54.7 68.3556ZM80.7 53.2444C76.7889 49.3556 72.7111 45.8 68.8556 42.6778C71.8778 37.6778 74.8667 32.3333 77.4667 26.9778C80.4223 36.1667 81.4778 44.9333 80.7 53.2444ZM71.9333 7.94444C74.9333 9.51108 77.7444 11.3889 80.3333 13.5444C79.5889 15.7444 78.7223 17.9889 77.7444 20.2667C76.1444 16.2333 74.2111 12.1223 71.9333 7.94444ZM73.9444 17.7556C64.1667 9.17775 54.1778 4.74444 51.2778 3.57778V2.57778C57.1667 2.73333 62.8 3.96667 67.9667 6.08889C70.2667 10.0444 72.2556 13.9333 73.9444 17.7556ZM48.7223 3.58889C45.8333 4.75556 35.8333 9.18892 26.0556 17.7667C27.7444 13.9444 29.7333 10.0556 32.0223 6.1C37.2 3.97777 42.8223 2.74444 48.7223 2.58889V3.58889ZM22.2444 20.2667C21.2778 17.9889 20.4111 15.7444 19.6556 13.5556C22.2333 11.4 25.0556 9.53333 28.0444 7.95556C25.7777 12.1223 23.8556 16.2333 22.2444 20.2667ZM19.4667 28.3223C16.9111 37.0667 16 45.4667 16.7444 53.4777C13.9 51.8333 11.2889 50.1111 9.1 48.3333C11.2889 40.4667 15.0556 33.8444 19.4667 28.3223ZM20.3889 73.2556C21.0556 73.2556 21.7 73.2556 22.3333 73.2444C24.3223 77.2889 26.6556 80.8444 29.1223 83.9333C22.1111 82.0223 14.6667 78.7 9.13333 72.9667C13.2444 73.1667 17 73.2556 20.3889 73.2556ZM32.8223 88.1775C36.6444 92.1442 40.4777 95.0558 43.6222 97.0108C38.0556 96.2558 32.7889 94.5442 28 92.0225C29.7111 90.7225 31.3223 89.4333 32.8223 88.1775ZM67.1667 88.1775C68.6778 89.4333 70.2889 90.7225 72 92.0225C67.2111 94.5442 61.9444 96.2558 56.3778 97.0108C59.5111 95.0558 63.3556 92.1442 67.1667 88.1775ZM77.6667 73.2444C78.3 73.2556 78.9444 73.2556 79.6111 73.2556C83 73.2556 86.7558 73.1667 90.8667 72.9667C85.3225 78.7 77.8889 82.0223 70.8778 83.9333C73.3444 80.8444 75.6778 77.2889 77.6667 73.2444ZM83.2556 53.4667C84 45.4444 83.0889 37.0333 80.5223 28.2778C84.9333 33.8 88.7108 40.4333 90.9 48.3223C88.7225 50.1 86.1 51.8222 83.2556 53.4667ZM88.3442 22.1111C86.4667 22.1778 83.3558 22.3444 79.4333 22.7778C80.5444 20.2778 81.5333 17.8111 82.4 15.3889C84.5892 17.4333 86.5775 19.6889 88.3442 22.1111ZM17.6 15.3889C18.4556 17.8111 19.4556 20.2889 20.5667 22.7778C16.6556 22.3333 13.5333 22.1667 11.6556 22.1111C13.4223 19.6778 15.4111 17.4333 17.6 15.3889ZM2.76667 45.4889C3.7 46.7333 4.87778 47.9556 6.23333 49.1556C5.14444 53.5778 4.51111 58.3444 4.52223 63.5111C3.24444 59.2223 2.55556 54.6889 2.55556 50C2.55556 48.4778 2.63333 46.9778 2.76667 45.4889ZM12.8 79.4111C18.2667 83.2223 24.5111 85.5442 30.3111 86.9442C28.8223 88.1667 27.2333 89.4108 25.5667 90.6558C20.6667 87.7 16.3444 83.8775 12.8 79.4111ZM74.4333 90.6558C72.7667 89.4108 71.1778 88.1667 69.6889 86.9442C75.4889 85.5333 81.7333 83.2111 87.2 79.4C83.6558 83.8775 79.3333 87.7 74.4333 90.6558ZM95.4775 63.5111C95.4892 58.3444 94.8667 53.5778 93.7667 49.1556C95.1225 47.9556 96.2892 46.7223 97.2333 45.4889C97.3775 46.9778 97.4558 48.4778 97.4558 50C97.4442 54.7 96.7558 59.2333 95.4775 63.5111Z" fill="#333333"/>
<path d="M143.355 78C154.245 78 163.298 71.9559 163.298 62.0864C163.298 55.6088 159.294 50.0747 153.428 47.3714C157.432 44.7192 160.034 40.4347 160.034 35.5638C160.034 26.3828 151.72 20.8743 141.723 20.8743H126.549V78H143.355ZM143.355 51.8854C149.756 51.8854 155.137 55.0732 155.137 61.2703C155.137 67.4674 149.756 70.6553 143.355 70.6553H134.71V51.8854H143.355ZM141.723 28.219C147.231 28.219 151.873 30.8968 151.873 36.3798C151.873 41.8629 147.231 44.5407 141.723 44.5407H134.71V28.219H141.723ZM194.41 52.727L204.535 78H213.588L202.877 51.4518C208.641 49.0801 212.696 43.6226 212.696 36.8134C212.696 26.7909 204.382 20.8743 194.385 20.8743H178.777V78H186.938V52.727H194.41ZM194.385 28.219C199.893 28.219 204.535 30.8968 204.535 36.8134C204.535 42.73 199.893 45.3822 194.385 45.3822H186.938V28.219H194.385ZM228.79 78H236.951V20.8743H228.79V78ZM264.252 20.8743H256.091V78H282.205V70.6553H264.252V20.8743ZM302.452 20.8743H294.291V78H320.406V70.6553H302.452V20.8743ZM332.517 78H340.677V20.8743H332.517V78ZM361.278 78L365.435 69.0231H391.805L395.63 78H404.454L379.563 19.2421L352.225 78H361.278ZM368.878 61.6784L379.232 39.3891L388.693 61.6784H368.878ZM459.117 20.8743V60.5308L415.864 19.2421V78H424.025V38.267L467.277 79.6322V20.8743H459.117ZM502.122 28.219H516.403V20.8743H479.68V28.219H493.961V78H502.122V28.219Z" fill="#333333"/>
</svg>
