<svg width="414" height="100" viewBox="0 0 414 100" fill="none" xmlns="http://www.w3.org/2000/svg">
<path fill-rule="evenodd" clip-rule="evenodd" d="M50 0C22.4333 0 0 22.4333 0 50C0 77.5667 22.4333 100 50 100C77.5667 100 100 77.5667 100 50C100 22.4333 77.5667 0 50 0ZM93.0333 46.4333C90.4775 37.9778 86.1775 30.9333 81.2444 25.1556C85.9225 24.6889 89.1667 24.6333 90.0558 24.6333C93.2667 29.6889 95.5442 35.3778 96.6558 41.4778C95.9775 43.1333 94.7225 44.7889 93.0333 46.4333ZM92.7775 67.6556C90.1108 63.6556 86.9558 59.8111 83.5667 56.2C86.4892 54.5444 89.2225 52.7889 91.5892 50.9777C92.7225 56.0333 93.1892 61.5889 92.7775 67.6556ZM8.42225 50.9777C10.7778 52.8 13.5223 54.5444 16.4333 56.2C13.0444 59.8111 9.87775 63.6556 7.22223 67.6556C6.81111 61.6 7.27778 56.0444 8.42225 50.9777ZM3.33333 41.4667C4.44444 35.3667 6.72223 29.6778 9.93333 24.6223C10.8223 24.6223 14.0778 24.6778 18.7444 25.1444C13.8223 30.9223 9.51108 37.9778 6.95556 46.4333C5.27777 44.7889 4.02223 43.1333 3.33333 41.4667ZM78.8667 70.6889C78.8889 70.6444 78.9 70.6111 78.9223 70.5667C80.5556 66.7667 81.7444 62.8556 82.5111 58.8444C85.8775 62.5 88.9892 66.3778 91.5108 70.3778C86.8225 70.6111 82.6223 70.7111 78.8667 70.6889ZM8.48892 70.3778C11.0111 66.3889 14.1111 62.5111 17.4889 58.8556C18.2556 62.8667 19.4444 66.7778 21.0778 70.5778C21.1 70.6223 21.1223 70.6556 21.1333 70.7C17.3778 70.7111 13.1778 70.6111 8.48892 70.3778ZM51.2778 15.9556C54.5333 16.3889 63.3223 18.0111 73.3889 23.6223C66.8 24.7 58.9889 26.5111 51.2778 29.6V15.9556ZM48.7223 29.6C40.7223 26.4 32.6333 24.5556 25.9111 23.5C37.1 17.3223 46.6444 16.0556 48.7223 15.8444V29.6ZM46.5333 31.4889C43.6111 33.3889 38.7111 36.7222 33.1444 41.0889C30.2223 36.2444 27.3444 31.0778 24.8333 25.9111C31.1889 26.8667 38.8667 28.5556 46.5333 31.4889ZM48.7223 33.1223V64.3333C45.7223 60.2667 40.1556 52.4889 34.5111 43.3223C40.6444 38.4889 45.9889 34.8889 48.7223 33.1223ZM46.9444 66.2111C41.6223 64.7 30.4223 60.6889 20.6111 55.5889C24.5111 51.6778 28.6111 48.0778 32.5 44.9223C38.3223 54.3444 44.0111 62.2556 46.9444 66.2111ZM48.7223 86.5108C46.5778 86.5225 41.7778 86.4 36 85.4333C42.2 79.8889 46.3778 75.0556 48.7223 72.0556V86.5108ZM51.2778 72.0556C53.6223 75.0556 57.8 79.8889 64 85.4333C58.2223 86.4 53.4223 86.5225 51.2778 86.5108V72.0556ZM51.2778 64.3333V33.1223C54.0111 34.8889 59.3556 38.4889 65.4889 43.3223C59.8444 52.4889 54.2778 60.2667 51.2778 64.3333ZM67.5 44.9223C71.3889 48.0778 75.4889 51.6778 79.3889 55.5889C69.5889 60.6889 58.3778 64.7 53.0556 66.2111C55.9889 62.2556 61.6778 54.3444 67.5 44.9223ZM53.4667 31.4889C61.1333 28.5556 68.8111 26.8777 75.1667 25.9222C72.6556 31.0889 69.7778 36.2444 66.8556 41.0889C61.2778 36.7111 56.3889 33.3889 53.4667 31.4889ZM51.2778 13.3778V6.35556C55.0556 7.96667 64.5444 12.5223 73.5333 20.8C63.1333 15.2223 54.3667 13.7333 51.2778 13.3778ZM48.7223 13.2777C47.0556 13.4222 38.4667 14.3778 27.7667 19.6556C36.3556 12.1111 45.1333 7.88889 48.7223 6.34444V13.2777ZM31.1333 42.6889C27.2778 45.8 23.2 49.3556 19.2889 53.2556C18.5111 44.9333 19.5778 36.1667 22.5223 26.9889C25.1223 32.3444 28.1111 37.6889 31.1333 42.6889ZM23.4222 69.5667C21.8222 65.8556 20.6889 62.0333 19.9556 58.1111C29.1889 62.8889 39.4111 66.6333 45.3333 68.3667C41.5444 69.3223 34.8 70.4556 23.9444 70.6667C23.7667 70.2889 23.5777 69.9444 23.4222 69.5667ZM46.5333 70.6889C44.0556 73.8111 39.6223 78.9 33.0556 84.6225C30.2111 81.4222 27.4556 77.6223 25.1556 73.1889C36.0333 72.9111 42.7556 71.6889 46.5333 70.6889ZM48.1444 89.0775H48.7223V96.9225C46.0444 95.7442 41.3444 92.8558 36.4333 88.1667C41.5333 88.9333 45.7889 89.0775 48.1444 89.0775ZM51.2778 89.0667H51.8556C54.2111 89.0667 58.4667 88.9333 63.5667 88.1442C58.6556 92.8333 53.9556 95.7225 51.2778 96.9V89.0667ZM53.4667 70.6889C57.2444 71.6889 63.9667 72.9111 74.8444 73.1889C72.5333 77.6223 69.7778 81.4222 66.9444 84.6225C60.3778 78.9 55.9444 73.8111 53.4667 70.6889ZM54.7 68.3556C60.6223 66.6223 70.8333 62.8889 80.0444 58.1111C79.3223 62.0333 78.1778 65.8556 76.5778 69.5667C76.4111 69.9444 76.2333 70.2889 76.0667 70.6556C65.2667 70.4444 58.5111 69.3 54.7 68.3556ZM80.7 53.2444C76.7889 49.3556 72.7111 45.8 68.8556 42.6778C71.8778 37.6778 74.8667 32.3333 77.4667 26.9778C80.4223 36.1667 81.4778 44.9333 80.7 53.2444ZM71.9333 7.94444C74.9333 9.51108 77.7444 11.3889 80.3333 13.5444C79.5889 15.7444 78.7223 17.9889 77.7444 20.2667C76.1444 16.2333 74.2111 12.1223 71.9333 7.94444ZM73.9444 17.7556C64.1667 9.17775 54.1778 4.74444 51.2778 3.57778V2.57778C57.1667 2.73333 62.8 3.96667 67.9667 6.08889C70.2667 10.0444 72.2556 13.9333 73.9444 17.7556ZM48.7223 3.58889C45.8333 4.75556 35.8333 9.18892 26.0556 17.7667C27.7444 13.9444 29.7333 10.0556 32.0223 6.1C37.2 3.97777 42.8223 2.74444 48.7223 2.58889V3.58889ZM22.2444 20.2667C21.2778 17.9889 20.4111 15.7444 19.6556 13.5556C22.2333 11.4 25.0556 9.53333 28.0444 7.95556C25.7777 12.1223 23.8556 16.2333 22.2444 20.2667ZM19.4667 28.3223C16.9111 37.0667 16 45.4667 16.7444 53.4777C13.9 51.8333 11.2889 50.1111 9.1 48.3333C11.2889 40.4667 15.0556 33.8444 19.4667 28.3223ZM20.3889 73.2556C21.0556 73.2556 21.7 73.2556 22.3333 73.2444C24.3223 77.2889 26.6556 80.8444 29.1223 83.9333C22.1111 82.0223 14.6667 78.7 9.13333 72.9667C13.2444 73.1667 17 73.2556 20.3889 73.2556ZM32.8223 88.1775C36.6444 92.1442 40.4777 95.0558 43.6222 97.0108C38.0556 96.2558 32.7889 94.5442 28 92.0225C29.7111 90.7225 31.3223 89.4333 32.8223 88.1775ZM67.1667 88.1775C68.6778 89.4333 70.2889 90.7225 72 92.0225C67.2111 94.5442 61.9444 96.2558 56.3778 97.0108C59.5111 95.0558 63.3556 92.1442 67.1667 88.1775ZM77.6667 73.2444C78.3 73.2556 78.9444 73.2556 79.6111 73.2556C83 73.2556 86.7558 73.1667 90.8667 72.9667C85.3225 78.7 77.8889 82.0223 70.8778 83.9333C73.3444 80.8444 75.6778 77.2889 77.6667 73.2444ZM83.2556 53.4667C84 45.4444 83.0889 37.0333 80.5223 28.2778C84.9333 33.8 88.7108 40.4333 90.9 48.3223C88.7225 50.1 86.1 51.8222 83.2556 53.4667ZM88.3442 22.1111C86.4667 22.1778 83.3558 22.3444 79.4333 22.7778C80.5444 20.2778 81.5333 17.8111 82.4 15.3889C84.5892 17.4333 86.5775 19.6889 88.3442 22.1111ZM17.6 15.3889C18.4556 17.8111 19.4556 20.2889 20.5667 22.7778C16.6556 22.3333 13.5333 22.1667 11.6556 22.1111C13.4223 19.6778 15.4111 17.4333 17.6 15.3889ZM2.76667 45.4889C3.7 46.7333 4.87778 47.9556 6.23333 49.1556C5.14444 53.5778 4.51111 58.3444 4.52223 63.5111C3.24444 59.2223 2.55556 54.6889 2.55556 50C2.55556 48.4778 2.63333 46.9778 2.76667 45.4889ZM12.8 79.4111C18.2667 83.2223 24.5111 85.5442 30.3111 86.9442C28.8223 88.1667 27.2333 89.4108 25.5667 90.6558C20.6667 87.7 16.3444 83.8775 12.8 79.4111ZM74.4333 90.6558C72.7667 89.4108 71.1778 88.1667 69.6889 86.9442C75.4889 85.5333 81.7333 83.2111 87.2 79.4C83.6558 83.8775 79.3333 87.7 74.4333 90.6558ZM95.4775 63.5111C95.4892 58.3444 94.8667 53.5778 93.7667 49.1556C95.1225 47.9556 96.2892 46.7223 97.2333 45.4889C97.3775 46.9778 97.4558 48.4778 97.4558 50C97.4442 54.7 96.7558 59.2333 95.4775 63.5111Z" fill="#333333"/>
<path d="M137.348 30.6348V45.2637H145.209C148.126 45.2637 150.404 44.5573 152.045 43.1445C153.686 41.7318 154.506 39.5215 154.506 36.5137C154.506 33.8704 153.549 31.7969 151.635 30.293C149.721 28.7435 147.374 27.9688 144.594 27.9688H140.561C138.419 27.9688 137.348 28.8574 137.348 30.6348ZM137.348 66.5234C137.348 68.3008 138.419 69.1895 140.561 69.1895H144.73C148.057 69.1895 150.883 68.3691 153.207 66.7285C155.531 65.0423 156.693 62.6497 156.693 59.5508C156.693 55.9505 155.6 53.3073 153.412 51.6211C151.225 49.9349 148.49 49.0918 145.209 49.0918H137.348V66.5234ZM146.098 72.7441H132.289V31.5234C132.289 30.1562 132.084 29.1309 131.674 28.4473C131.309 27.7637 130.74 27.3307 129.965 27.1484C129.19 26.9661 128.666 26.7611 128.393 26.5332C128.119 26.3053 127.982 25.9863 127.982 25.5762C127.982 24.8014 128.552 24.4141 129.691 24.4141H145.277C149.88 24.4141 153.458 25.3939 156.01 27.3535C158.562 29.3132 159.838 32.1615 159.838 35.8984C159.838 38.5872 159.154 40.9115 157.787 42.8711C156.42 44.7852 154.574 46.1068 152.25 46.8359V46.9727C155.395 47.6107 157.787 49.0234 159.428 51.2109C161.114 53.3529 161.957 56.1328 161.957 59.5508C161.957 63.5612 160.635 66.7741 157.992 69.1895C155.349 71.5592 151.384 72.7441 146.098 72.7441ZM183.559 27.9004H179.047C176.905 27.9004 175.834 28.7891 175.834 30.5664V72.7441H170.707V31.4551C170.707 30.0879 170.502 29.0853 170.092 28.4473C169.727 27.7637 169.158 27.3307 168.383 27.1484C167.608 26.9661 167.084 26.7611 166.811 26.5332C166.537 26.3053 166.4 25.9863 166.4 25.5762C166.4 24.8014 166.97 24.4141 168.109 24.4141H183.422C188.298 24.4141 192.104 25.599 194.838 27.9688C197.572 30.293 198.939 33.4603 198.939 37.4707C198.939 41.8457 197.618 45.2181 194.975 47.5879C192.377 49.9121 188.891 51.1882 184.516 51.416L198.734 72.7441H192.514L178.295 51.1426C177.657 50.2767 177.475 49.5247 177.748 48.8867C178.067 48.2031 178.751 47.8613 179.799 47.8613H182.465C185.701 47.8613 188.367 46.9727 190.463 45.1953C192.559 43.3724 193.607 40.7975 193.607 37.4707C193.653 34.554 192.65 32.2298 190.6 30.498C188.594 28.7663 186.247 27.9004 183.559 27.9004ZM211.791 72.7441H206.664V31.5234C206.664 30.1562 206.482 29.1309 206.117 28.4473C205.753 27.7637 205.16 27.3307 204.34 27.1484C203.52 26.9661 202.904 26.7839 202.494 26.6016C202.084 26.4193 201.879 26.1003 201.879 25.6445C201.879 24.8242 202.449 24.4141 203.588 24.4141H209.74C211.107 24.4141 211.791 25.1432 211.791 26.6016V72.7441ZM228.607 66.0449C228.607 67.7767 229.678 68.6426 231.82 68.6426H241.459C243.282 68.6426 244.581 68.2324 245.355 67.4121C246.176 66.5918 246.723 65.0651 246.996 62.832C247.087 62.0573 247.543 61.7155 248.363 61.8066C249.184 61.8522 249.594 62.2168 249.594 62.9004L249.115 72.7441H223.48V31.5918C223.48 30.2246 223.298 29.1992 222.934 28.5156C222.569 27.832 221.977 27.3991 221.156 27.2168C220.382 27.0345 219.766 26.875 219.311 26.7383C218.9 26.556 218.695 26.2142 218.695 25.7129C218.695 24.8926 219.265 24.4824 220.404 24.4824H226.557C227.924 24.4824 228.607 25.2116 228.607 26.6699V66.0449ZM261.283 66.0449C261.283 67.7767 262.354 68.6426 264.496 68.6426H274.135C275.958 68.6426 277.257 68.2324 278.031 67.4121C278.852 66.5918 279.398 65.0651 279.672 62.832C279.763 62.0573 280.219 61.7155 281.039 61.8066C281.859 61.8522 282.27 62.2168 282.27 62.9004L281.791 72.7441H256.156V31.5918C256.156 30.2246 255.974 29.1992 255.609 28.5156C255.245 27.832 254.652 27.3991 253.832 27.2168C253.057 27.0345 252.442 26.875 251.986 26.7383C251.576 26.556 251.371 26.2142 251.371 25.7129C251.371 24.8926 251.941 24.4824 253.08 24.4824H259.232C260.6 24.4824 261.283 25.2116 261.283 26.6699V66.0449ZM293.959 72.7441H288.832V31.5234C288.832 30.1562 288.65 29.1309 288.285 28.4473C287.921 27.7637 287.328 27.3307 286.508 27.1484C285.688 26.9661 285.072 26.7839 284.662 26.6016C284.252 26.4193 284.047 26.1003 284.047 25.6445C284.047 24.8242 284.617 24.4141 285.756 24.4141H291.908C293.275 24.4141 293.959 25.1432 293.959 26.6016V72.7441ZM330.873 72.7441L325.814 56.9531H309.545L304.555 72.7441H299.701L312.826 32.6855C313.51 30.2246 313.715 28.7663 313.441 28.3105C313.168 27.8548 312.484 27.4902 311.391 27.2168C310.661 27.0345 310.115 26.8522 309.75 26.6699C309.385 26.4876 309.203 26.1458 309.203 25.6445C309.203 24.8242 309.796 24.4141 310.98 24.4141H320.209L336.342 72.7441H330.873ZM324.584 53.1934L317.543 31.4551L310.707 53.1934H324.584ZM349.398 24.4141L368.197 63.4473V24.4141H372.914V69.7363C372.914 71.7415 372.025 72.7441 370.248 72.7441H367.787L347.348 31.3184V72.7441H342.904V31.5234C342.904 30.1562 342.768 29.1536 342.494 28.5156C342.266 27.8776 341.742 27.4447 340.922 27.2168C340.147 26.9889 339.577 26.7839 339.213 26.6016C338.894 26.4193 338.734 26.1003 338.734 25.6445C338.734 24.8242 339.35 24.4141 340.58 24.4141H349.398ZM386.928 27.9688C384.649 27.9688 383.145 28.6979 382.416 30.1562C381.687 31.6146 381.299 32.959 381.254 34.1895C381.208 34.9642 380.753 35.3516 379.887 35.3516C379.066 35.306 378.656 34.9186 378.656 34.1895L378.998 24.4141H412.836L413.178 34.1895C413.178 34.9186 412.745 35.306 411.879 35.3516C411.059 35.3516 410.626 34.9642 410.58 34.1895C410.535 32.959 410.147 31.6146 409.418 30.1562C408.689 28.6979 407.185 27.9688 404.906 27.9688H398.48V72.7441H393.354V27.9688H386.928Z" fill="#333333"/>
</svg>
