<svg width="236" height="41" viewBox="0 0 236 41" fill="none" xmlns="http://www.w3.org/2000/svg">
<g clip-path="url(#clip0)">
<path d="M27.0969 8.58235L6.19531 8.54675L16.7612 14.5355L27.0969 8.58235Z" stroke="#2473DF" stroke-width="4"/>
<path d="M30.5554 26.5118V12.5833L7.54297 26.5118H30.5554Z" stroke="#2473DF" stroke-width="5"/>
<path d="M15.2824 17.613L0.773438 24.6495V10.5765L15.2824 17.613Z" fill="#2473DF"/>
<path d="M37.3203 18.031C37.3203 15.9262 37.8053 14.0381 38.7751 12.3667C39.7656 10.6952 41.0965 9.39524 42.7679 8.46667C44.46 7.51743 46.3068 7.04286 48.3084 7.04286C50.5989 7.04286 52.6315 7.61029 54.406 8.74524C56.2013 9.85952 57.5013 11.4484 58.306 13.5119H54.0656C53.5084 12.377 52.7346 11.531 51.7441 10.9738C50.7536 10.4167 49.6084 10.1381 48.3084 10.1381C46.8846 10.1381 45.6156 10.4579 44.5013 11.0976C43.387 11.7373 42.51 12.6555 41.8703 13.8524C41.2513 15.0492 40.9417 16.4421 40.9417 18.031C40.9417 19.6198 41.2513 21.0127 41.8703 22.2095C42.51 23.4064 43.387 24.3349 44.5013 24.9952C45.6156 25.6349 46.8846 25.9548 48.3084 25.9548C49.6084 25.9548 50.7536 25.6762 51.7441 25.119C52.7346 24.5619 53.5084 23.7159 54.0656 22.581H58.306C57.5013 24.6445 56.2013 26.2333 54.406 27.3476C52.6315 28.4619 50.5989 29.019 48.3084 29.019C46.2862 29.019 44.4394 28.5548 42.7679 27.6262C41.0965 26.677 39.7656 25.3667 38.7751 23.6952C37.8053 22.0238 37.3203 20.1357 37.3203 18.031ZM61.26 20.2286C61.26 18.5159 61.6108 16.9992 62.3124 15.6786C63.0346 14.3579 64.0045 13.3365 65.222 12.6143C66.46 11.8714 67.822 11.5 69.3077 11.5C70.6489 11.5 71.8148 11.7683 72.8053 12.3048C73.8163 12.8207 74.621 13.4707 75.22 14.2548V11.7786H78.7791V28.8333H75.22V26.2952C74.621 27.1 73.8062 27.7707 72.7743 28.3071C71.7426 28.8436 70.5664 29.1119 69.2458 29.1119C67.7807 29.1119 66.4394 28.7405 65.222 27.9976C64.0045 27.2341 63.0346 26.1817 62.3124 24.8405C61.6108 23.4786 61.26 21.9412 61.26 20.2286ZM75.22 20.2905C75.22 19.1143 74.9723 18.0929 74.4771 17.2262C74.002 16.3595 73.3729 15.6992 72.5886 15.2452C71.8045 14.7912 70.9584 14.5643 70.0505 14.5643C69.1426 14.5643 68.2965 14.7912 67.5124 15.2452C66.7283 15.6786 66.0886 16.3286 65.5934 17.1952C65.1188 18.0412 64.8815 19.0524 64.8815 20.2286C64.8815 21.4048 65.1188 22.4365 65.5934 23.3238C66.0886 24.2111 66.7283 24.8921 67.5124 25.3667C68.3172 25.8207 69.1632 26.0476 70.0505 26.0476C70.9584 26.0476 71.8045 25.8207 72.5886 25.3667C73.3729 24.9127 74.002 24.2524 74.4771 23.3857C74.9723 22.4984 75.22 21.4667 75.22 20.2905ZM104.059 11.5C105.4 11.5 106.597 11.7786 107.649 12.3357C108.722 12.8929 109.558 13.7183 110.156 14.8119C110.775 15.9055 111.085 17.2262 111.085 18.7738V28.8333H107.587V19.3C107.587 17.773 107.206 16.6071 106.442 15.8024C105.678 14.977 104.637 14.5643 103.316 14.5643C101.995 14.5643 100.943 14.977 100.159 15.8024C99.3949 16.6071 99.0134 17.773 99.0134 19.3V28.8333H95.5158V19.3C95.5158 17.773 95.1343 16.6071 94.3706 15.8024C93.6068 14.977 92.5653 14.5643 91.2444 14.5643C89.9235 14.5643 88.8711 14.977 88.0872 15.8024C87.3235 16.6071 86.942 17.773 86.942 19.3V28.8333H83.4134V11.7786H86.942V13.7286C87.52 13.027 88.2521 12.4802 89.1396 12.0881C90.0272 11.696 90.9759 11.5 91.9872 11.5C93.3492 11.5 94.5664 11.7889 95.6396 12.3667C96.7129 12.9445 97.5378 13.7802 98.1158 14.8738C98.6319 13.8421 99.4367 13.027 100.53 12.4286C101.624 11.8095 102.8 11.5 104.059 11.5ZM119.103 14.2857C119.702 13.5016 120.517 12.8412 121.548 12.3048C122.581 11.7683 123.746 11.5 125.046 11.5C126.532 11.5 127.884 11.8714 129.101 12.6143C130.339 13.3365 131.309 14.3579 132.01 15.6786C132.712 16.9992 133.063 18.5159 133.063 20.2286C133.063 21.9412 132.712 23.4786 132.01 24.8405C131.309 26.1817 130.339 27.2341 129.101 27.9976C127.884 28.7405 126.532 29.1119 125.046 29.1119C123.746 29.1119 122.591 28.854 121.579 28.3381C120.569 27.8016 119.743 27.1412 119.103 26.3571V36.9429H115.575V11.7786H119.103V14.2857ZM129.472 20.2286C129.472 19.0524 129.225 18.0412 128.729 17.1952C128.255 16.3286 127.615 15.6786 126.81 15.2452C126.026 14.7912 125.181 14.5643 124.272 14.5643C123.385 14.5643 122.539 14.7912 121.734 15.2452C120.95 15.6992 120.31 16.3595 119.815 17.2262C119.341 18.0929 119.103 19.1143 119.103 20.2905C119.103 21.4667 119.341 22.4984 119.815 23.3857C120.31 24.2524 120.95 24.9127 121.734 25.3667C122.539 25.8207 123.385 26.0476 124.272 26.0476C125.181 26.0476 126.026 25.8207 126.81 25.3667C127.615 24.8921 128.255 24.2111 128.729 23.3238C129.225 22.4365 129.472 21.4048 129.472 20.2286ZM135.376 20.2286C135.376 18.5159 135.727 16.9992 136.429 15.6786C137.151 14.3579 138.12 13.3365 139.338 12.6143C140.576 11.8714 141.938 11.5 143.424 11.5C144.765 11.5 145.931 11.7683 146.922 12.3048C147.932 12.8207 148.737 13.4707 149.336 14.2548V11.7786H152.895V28.8333H149.336V26.2952C148.737 27.1 147.922 27.7707 146.891 28.3071C145.858 28.8436 144.682 29.1119 143.362 29.1119C141.896 29.1119 140.555 28.7405 139.338 27.9976C138.12 27.2341 137.151 26.1817 136.429 24.8405C135.727 23.4786 135.376 21.9412 135.376 20.2286ZM149.336 20.2905C149.336 19.1143 149.088 18.0929 148.593 17.2262C148.118 16.3595 147.489 15.6992 146.705 15.2452C145.92 14.7912 145.074 14.5643 144.167 14.5643C143.258 14.5643 142.413 14.7912 141.629 15.2452C140.844 15.6786 140.205 16.3286 139.71 17.1952C139.235 18.0412 138.998 19.0524 138.998 20.2286C138.998 21.4048 139.235 22.4365 139.71 23.3238C140.205 24.2111 140.844 24.8921 141.629 25.3667C142.433 25.8207 143.279 26.0476 144.167 26.0476C145.074 26.0476 145.92 25.8207 146.705 25.3667C147.489 24.9127 148.118 24.2524 148.593 23.3857C149.088 22.4984 149.336 21.4667 149.336 20.2905ZM159.325 9.51905C158.685 9.51905 158.149 9.30238 157.715 8.86905C157.282 8.43571 157.065 7.89923 157.065 7.25952C157.065 6.61982 157.282 6.08333 157.715 5.65C158.149 5.21667 158.685 5 159.325 5C159.944 5 160.47 5.21667 160.904 5.65C161.337 6.08333 161.554 6.61982 161.554 7.25952C161.554 7.89923 161.337 8.43571 160.904 8.86905C160.47 9.30238 159.944 9.51905 159.325 9.51905ZM161.058 11.7786V28.8333H157.53V11.7786H161.058ZM172.562 11.5C173.883 11.5 175.049 11.7683 176.06 12.3048C177.092 12.8207 177.896 13.4707 178.474 14.2548V11.7786H182.034V29.1119C182.034 30.6802 181.704 32.073 181.043 33.2905C180.383 34.5286 179.424 35.4984 178.165 36.2C176.927 36.9016 175.441 37.2524 173.708 37.2524C171.396 37.2524 169.477 36.7055 167.951 35.6119C166.424 34.5389 165.557 33.0738 165.351 31.2167H168.848C169.117 32.104 169.684 32.8159 170.551 33.3524C171.438 33.9095 172.491 34.1881 173.708 34.1881C175.132 34.1881 176.277 33.7548 177.143 32.8881C178.031 32.0214 178.474 30.7627 178.474 29.1119V26.2643C177.876 27.069 177.061 27.75 176.029 28.3071C175.018 28.8436 173.862 29.1119 172.562 29.1119C171.077 29.1119 169.715 28.7405 168.477 27.9976C167.26 27.2341 166.289 26.1817 165.567 24.8405C164.865 23.4786 164.515 21.9412 164.515 20.2286C164.515 18.5159 164.865 16.9992 165.567 15.6786C166.289 14.3579 167.26 13.3365 168.477 12.6143C169.715 11.8714 171.077 11.5 172.562 11.5ZM178.474 20.2905C178.474 19.1143 178.227 18.0929 177.732 17.2262C177.257 16.3595 176.627 15.6992 175.843 15.2452C175.06 14.7912 174.213 14.5643 173.305 14.5643C172.398 14.5643 171.551 14.7912 170.767 15.2452C169.983 15.6786 169.343 16.3286 168.848 17.1952C168.374 18.0412 168.136 19.0524 168.136 20.2286C168.136 21.4048 168.374 22.4365 168.848 23.3238C169.343 24.2111 169.983 24.8921 170.767 25.3667C171.572 25.8207 172.418 26.0476 173.305 26.0476C174.213 26.0476 175.06 25.8207 175.843 25.3667C176.627 24.9127 177.257 24.2524 177.732 23.3857C178.227 22.4984 178.474 21.4667 178.474 20.2905ZM195.273 11.5C196.615 11.5 197.811 11.7786 198.863 12.3357C199.937 12.8929 200.772 13.7183 201.371 14.8119C201.97 15.9055 202.268 17.2262 202.268 18.7738V28.8333H198.771V19.3C198.771 17.773 198.389 16.6071 197.625 15.8024C196.862 14.977 195.82 14.5643 194.499 14.5643C193.179 14.5643 192.127 14.977 191.342 15.8024C190.579 16.6071 190.197 17.773 190.197 19.3V28.8333H186.668V11.7786H190.197V13.7286C190.775 13.027 191.508 12.4802 192.394 12.0881C193.303 11.696 194.262 11.5 195.273 11.5ZM222.4 19.8881C222.4 20.5278 222.359 21.1055 222.277 21.6214H209.246C209.349 22.9833 209.855 24.077 210.762 24.9024C211.67 25.7278 212.784 26.1405 214.105 26.1405C216.003 26.1405 217.345 25.346 218.129 23.7571H221.936C221.42 25.3254 220.481 26.6151 219.12 27.6262C217.778 28.6167 216.107 29.1119 214.105 29.1119C212.475 29.1119 211.01 28.7508 209.71 28.0286C208.431 27.2857 207.42 26.254 206.677 24.9333C205.955 23.5921 205.593 22.0445 205.593 20.2905C205.593 18.5365 205.944 16.9992 206.646 15.6786C207.368 14.3373 208.369 13.3055 209.648 12.5833C210.948 11.8611 212.434 11.5 214.105 11.5C215.715 11.5 217.149 11.8508 218.408 12.5524C219.667 13.254 220.646 14.2445 221.348 15.5238C222.05 16.7826 222.4 18.2373 222.4 19.8881ZM218.717 18.7738C218.696 17.4738 218.232 16.4317 217.324 15.6476C216.417 14.8635 215.291 14.4714 213.95 14.4714C212.733 14.4714 211.691 14.8635 210.824 15.6476C209.958 16.4111 209.441 17.4531 209.277 18.7738H218.717ZM229.401 14.2548C229.917 13.3881 230.598 12.7174 231.444 12.2429C232.311 11.7476 233.332 11.5 234.508 11.5V15.1524H233.611C232.229 15.1524 231.176 15.5031 230.453 16.2048C229.752 16.9064 229.401 18.1238 229.401 19.8571V28.8333H225.873V11.7786H229.401V14.2548Z" fill="#2473DF"/>
</g>
<defs>
<clipPath id="clip0">
<rect width="235.238" height="32.5" fill="white" transform="translate(0 5)"/>
</clipPath>
</defs>
</svg>
