<svg width="304" height="42" viewBox="0 0 304 42" fill="none" xmlns="http://www.w3.org/2000/svg">
<path d="M35.0152 4.6295L8.00391 4.5835L21.6583 12.3228L35.0152 4.6295Z" stroke="#2473DF" stroke-width="4"/>
<path d="M39.4891 27.8V9.79999L9.75 27.8H39.4891Z" stroke="#2473DF" stroke-width="5"/>
<path d="M19.75 16.3L1 25.3933V7.20667L19.75 16.3Z" fill="#2473DF"/>
<path d="M48.2305 16.84C48.2305 14.12 48.8572 11.68 50.1105 9.52C51.3905 7.36 53.1105 5.68 55.2705 4.48C57.4572 3.2533 59.8438 2.64 62.4305 2.64C65.3905 2.64 68.0172 3.3733 70.3105 4.84C72.6305 6.28 74.3105 8.3333 75.3505 11H69.8705C69.1505 9.5333 68.1505 8.44 66.8705 7.72C65.5905 7 64.1105 6.64 62.4305 6.64C60.5905 6.64 58.9505 7.0533 57.5105 7.88C56.0705 8.7067 54.9372 9.8933 54.1105 11.44C53.3105 12.9867 52.9105 14.7867 52.9105 16.84C52.9105 18.8933 53.3105 20.6933 54.1105 22.24C54.9372 23.7867 56.0705 24.9867 57.5105 25.84C58.9505 26.6667 60.5905 27.08 62.4305 27.08C64.1105 27.08 65.5905 26.72 66.8705 26C68.1505 25.28 69.1505 24.1867 69.8705 22.72H75.3505C74.3105 25.3867 72.6305 27.44 70.3105 28.88C68.0172 30.32 65.3905 31.04 62.4305 31.04C59.8172 31.04 57.4305 30.44 55.2705 29.24C53.1105 28.0133 51.3905 26.32 50.1105 24.16C48.8572 22 48.2305 19.56 48.2305 16.84ZM79.168 19.68C79.168 17.4667 79.6213 15.5067 80.528 13.8C81.4613 12.0933 82.7147 10.7733 84.288 9.84C85.888 8.88 87.648 8.4 89.568 8.4C91.3013 8.4 92.808 8.7467 94.088 9.44C95.3945 10.1067 96.4345 10.9467 97.2085 11.96V8.76H101.808V30.8H97.2085V27.52C96.4345 28.56 95.3815 29.4267 94.048 30.12C92.7147 30.8133 91.1947 31.16 89.488 31.16C87.5947 31.16 85.8613 30.68 84.288 29.72C82.7147 28.7333 81.4613 27.3733 80.528 25.64C79.6213 23.88 79.168 21.8933 79.168 19.68ZM97.2085 19.76C97.2085 18.24 96.8885 16.92 96.2485 15.8C95.6345 14.68 94.8215 13.8267 93.808 13.24C92.7947 12.6533 91.7013 12.36 90.528 12.36C89.3547 12.36 88.2613 12.6533 87.248 13.24C86.2347 13.8 85.408 14.64 84.768 15.76C84.1547 16.8533 83.848 18.16 83.848 19.68C83.848 21.2 84.1547 22.5333 84.768 23.68C85.408 24.8267 86.2347 25.7067 87.248 26.32C88.288 26.9067 89.3813 27.2 90.528 27.2C91.7013 27.2 92.7947 26.9067 93.808 26.32C94.8215 25.7333 95.6345 24.88 96.2485 23.76C96.8885 22.6133 97.2085 21.28 97.2085 19.76ZM134.477 8.4C136.21 8.4 137.757 8.76 139.117 9.48C140.504 10.2 141.584 11.2667 142.357 12.68C143.157 14.0933 143.557 15.8 143.557 17.8V30.8H139.037V18.48C139.037 16.5067 138.544 15 137.557 13.96C136.57 12.8933 135.224 12.36 133.517 12.36C131.81 12.36 130.45 12.8933 129.437 13.96C128.45 15 127.957 16.5067 127.957 18.48V30.8H123.437V18.48C123.437 16.5067 122.944 15 121.957 13.96C120.97 12.8933 119.624 12.36 117.917 12.36C116.21 12.36 114.85 12.8933 113.837 13.96C112.85 15 112.357 16.5067 112.357 18.48V30.8H107.797V8.76H112.357V11.28C113.104 10.3733 114.05 9.6667 115.197 9.16C116.344 8.6533 117.57 8.4 118.877 8.4C120.637 8.4 122.21 8.7733 123.597 9.52C124.984 10.2667 126.05 11.3467 126.797 12.76C127.464 11.4267 128.504 10.3733 129.917 9.6C131.33 8.8 132.85 8.4 134.477 8.4ZM153.919 12C154.693 10.9867 155.746 10.1333 157.079 9.44C158.413 8.7467 159.919 8.4 161.599 8.4C163.519 8.4 165.266 8.88 166.839 9.84C168.439 10.7733 169.693 12.0933 170.599 13.8C171.506 15.5067 171.959 17.4667 171.959 19.68C171.959 21.8933 171.506 23.88 170.599 25.64C169.693 27.3733 168.439 28.7333 166.839 29.72C165.266 30.68 163.519 31.16 161.599 31.16C159.919 31.16 158.426 30.8267 157.119 30.16C155.813 29.4667 154.746 28.6133 153.919 27.6V41.28H149.359V8.76H153.919V12ZM167.319 19.68C167.319 18.16 166.999 16.8533 166.359 15.76C165.746 14.64 164.919 13.8 163.879 13.24C162.866 12.6533 161.773 12.36 160.599 12.36C159.453 12.36 158.359 12.6533 157.319 13.24C156.306 13.8267 155.479 14.68 154.839 15.8C154.226 16.92 153.919 18.24 153.919 19.76C153.919 21.28 154.226 22.6133 154.839 23.76C155.479 24.88 156.306 25.7333 157.319 26.32C158.359 26.9067 159.453 27.2 160.599 27.2C161.773 27.2 162.866 26.9067 163.879 26.32C164.919 25.7067 165.746 24.8267 166.359 23.68C166.999 22.5333 167.319 21.2 167.319 19.68ZM174.949 19.68C174.949 17.4667 175.402 15.5067 176.309 13.8C177.242 12.0933 178.495 10.7733 180.069 9.84C181.669 8.88 183.429 8.4 185.349 8.4C187.082 8.4 188.589 8.7467 189.869 9.44C191.175 10.1067 192.215 10.9467 192.989 11.96V8.76H197.589V30.8H192.989V27.52C192.215 28.56 191.162 29.4267 189.829 30.12C188.495 30.8133 186.975 31.16 185.269 31.16C183.375 31.16 181.642 30.68 180.069 29.72C178.495 28.7333 177.242 27.3733 176.309 25.64C175.402 23.88 174.949 21.8933 174.949 19.68ZM192.989 19.76C192.989 18.24 192.669 16.92 192.029 15.8C191.415 14.68 190.602 13.8267 189.589 13.24C188.575 12.6533 187.482 12.36 186.309 12.36C185.135 12.36 184.042 12.6533 183.029 13.24C182.015 13.8 181.189 14.64 180.549 15.76C179.935 16.8533 179.629 18.16 179.629 19.68C179.629 21.2 179.935 22.5333 180.549 23.68C181.189 24.8267 182.015 25.7067 183.029 26.32C184.069 26.9067 185.162 27.2 186.309 27.2C187.482 27.2 188.575 26.9067 189.589 26.32C190.602 25.7333 191.415 24.88 192.029 23.76C192.669 22.6133 192.989 21.28 192.989 19.76ZM205.898 5.84C205.071 5.84 204.378 5.56 203.818 5C203.258 4.44 202.978 3.7467 202.978 2.92C202.978 2.0933 203.258 1.4 203.818 0.84C204.378 0.28 205.071 0 205.898 0C206.698 0 207.378 0.28 207.938 0.84C208.498 1.4 208.778 2.0933 208.778 2.92C208.778 3.7467 208.498 4.44 207.938 5C207.378 5.56 206.698 5.84 205.898 5.84ZM208.138 8.76V30.8H203.578V8.76H208.138ZM223.005 8.4C224.712 8.4 226.218 8.7467 227.525 9.44C228.858 10.1067 229.898 10.9467 230.645 11.96V8.76H235.245V31.16C235.245 33.1867 234.818 34.9867 233.965 36.56C233.112 38.16 231.872 39.4133 230.245 40.32C228.645 41.2267 226.725 41.68 224.485 41.68C221.498 41.68 219.018 40.9733 217.045 39.56C215.072 38.1733 213.952 36.28 213.685 33.88H218.205C218.552 35.0267 219.285 35.9467 220.405 36.64C221.552 37.36 222.912 37.72 224.485 37.72C226.325 37.72 227.805 37.16 228.925 36.04C230.072 34.92 230.645 33.2933 230.645 31.16V27.48C229.872 28.52 228.818 29.4 227.485 30.12C226.178 30.8133 224.685 31.16 223.005 31.16C221.085 31.16 219.325 30.68 217.725 29.72C216.152 28.7333 214.898 27.3733 213.965 25.64C213.058 23.88 212.605 21.8933 212.605 19.68C212.605 17.4667 213.058 15.5067 213.965 13.8C214.898 12.0933 216.152 10.7733 217.725 9.84C219.325 8.88 221.085 8.4 223.005 8.4ZM230.645 19.76C230.645 18.24 230.325 16.92 229.685 15.8C229.072 14.68 228.258 13.8267 227.245 13.24C226.232 12.6533 225.138 12.36 223.965 12.36C222.792 12.36 221.698 12.6533 220.685 13.24C219.672 13.8 218.845 14.64 218.205 15.76C217.592 16.8533 217.285 18.16 217.285 19.68C217.285 21.2 217.592 22.5333 218.205 23.68C218.845 24.8267 219.672 25.7067 220.685 26.32C221.725 26.9067 222.818 27.2 223.965 27.2C225.138 27.2 226.232 26.9067 227.245 26.32C228.258 25.7333 229.072 24.88 229.685 23.76C230.325 22.6133 230.645 21.28 230.645 19.76ZM252.354 8.4C254.088 8.4 255.634 8.76 256.994 9.48C258.381 10.2 259.461 11.2667 260.234 12.68C261.008 14.0933 261.394 15.8 261.394 17.8V30.8H256.874V18.48C256.874 16.5067 256.381 15 255.394 13.96C254.408 12.8933 253.061 12.36 251.354 12.36C249.648 12.36 248.288 12.8933 247.274 13.96C246.288 15 245.794 16.5067 245.794 18.48V30.8H241.234V8.76H245.794V11.28C246.541 10.3733 247.488 9.6667 248.634 9.16C249.808 8.6533 251.048 8.4 252.354 8.4ZM287.411 19.24C287.411 20.0667 287.358 20.8133 287.251 21.48H270.411C270.544 23.24 271.198 24.6533 272.371 25.72C273.544 26.7867 274.984 27.32 276.691 27.32C279.144 27.32 280.878 26.2933 281.891 24.24H286.811C286.144 26.2667 284.931 27.9333 283.171 29.24C281.438 30.52 279.278 31.16 276.691 31.16C274.584 31.16 272.691 30.6933 271.011 29.76C269.358 28.8 268.051 27.4667 267.091 25.76C266.158 24.0267 265.691 22.0267 265.691 19.76C265.691 17.4933 266.144 15.5067 267.051 13.8C267.984 12.0667 269.278 10.7333 270.931 9.8C272.611 8.8667 274.531 8.4 276.691 8.4C278.771 8.4 280.624 8.8533 282.251 9.76C283.878 10.6667 285.144 11.9467 286.051 13.6C286.958 15.2267 287.411 17.1067 287.411 19.24ZM282.651 17.8C282.624 16.12 282.024 14.7733 280.851 13.76C279.678 12.7467 278.224 12.24 276.491 12.24C274.918 12.24 273.571 12.7467 272.451 13.76C271.331 14.7467 270.664 16.0933 270.451 17.8H282.651ZM296.458 11.96C297.125 10.84 298.005 9.9733 299.098 9.36C300.218 8.72 301.538 8.4 303.058 8.4V13.12H301.898C300.112 13.12 298.752 13.5733 297.818 14.48C296.912 15.3867 296.458 16.96 296.458 19.2V30.8H291.898V8.76H296.458V11.96Z" fill="#2473DF"/>
</svg>
