<svg xmlns="http://www.w3.org/2000/svg" xmlns:xlink="http://www.w3.org/1999/xlink" viewBox="0 0 600 120"><defs><style>.cls-1{fill:none;}.cls-2{fill:#495252;}.cls-3{clip-path:url(#clip-path);}.cls-4{fill:url(#radial-gradient);}.cls-5{fill:url(#radial-gradient-2);}.cls-6{fill:url(#linear-gradient);}.cls-7{fill:url(#linear-gradient-2);}.cls-8{fill:url(#linear-gradient-3);}.cls-9{fill:#231f20;}</style><clipPath id="clip-path"><path class="cls-1" d="M552.77,2.66c-1.24,0-2.41.06-3.47.16a36.31,36.31,0,0,0-11.16,2.7c-11,4.73-16,13.18-17.66,22.73-1.44,8.46.09,20.88,9.46,29.5,9.73,8.87,24.85,9.29,33.72,7.1,10.82-2.88,17.92-8.2,21.72-19.45,3-9.14,2.29-21.72-4.73-30.68-7.59-9.51-19.48-12.08-27.89-12.08h0"/></clipPath><radialGradient id="radial-gradient" cx="10.1" cy="2064.7" r="1.89" gradientTransform="translate(735.46 55668.96) rotate(180) scale(17.96 26.95)" gradientUnits="userSpaceOnUse"><stop offset="0" stop-color="#92bb42"/><stop offset="0.46" stop-color="#91ba42"/><stop offset="0.68" stop-color="#8ab03f"/><stop offset="0.84" stop-color="#83a43e"/><stop offset="0.97" stop-color="#78923c"/><stop offset="1" stop-color="#758d3b"/></radialGradient><radialGradient id="radial-gradient-2" cx="-136.2" cy="487.97" r="153.06" gradientTransform="matrix(0.27, 0, 0, -0.27, 590.11, 194.97)" gradientUnits="userSpaceOnUse"><stop offset="0" stop-color="#fff"/><stop offset="0.03" stop-color="#fafbf3"/><stop offset="0.21" stop-color="#dde3a0"/><stop offset="0.3" stop-color="#d4dc83"/><stop offset="0.53" stop-color="#a7c453"/><stop offset="0.76" stop-color="#8bb23e" stop-opacity="0"/></radialGradient><linearGradient id="linear-gradient" x1="553.55" y1="276.51" x2="553.55" y2="301.14" gradientTransform="matrix(1, 0, 0, -1, 0, 298.76)" gradientUnits="userSpaceOnUse"><stop offset="0" stop-color="#91b83e"/><stop offset="0.36" stop-color="#b6cf7d"/><stop offset="1" stop-color="#fff"/></linearGradient><linearGradient id="linear-gradient-2" x1="553.54" y1="67.13" x2="553.54" y2="1.39" gradientUnits="userSpaceOnUse"><stop offset="0" stop-color="#4f4f51"/><stop offset="1" stop-color="#fff"/></linearGradient><linearGradient id="linear-gradient-3" x1="553.56" y1="63.94" x2="553.56" y2="4.6" gradientUnits="userSpaceOnUse"><stop offset="0" stop-color="#dadbdb"/><stop offset="0.01" stop-color="#d5d6d7"/><stop offset="0.11" stop-color="#b8b9ba"/><stop offset="0.21" stop-color="#9e9fa0"/><stop offset="0.33" stop-color="#8d8f8f"/><stop offset="0.47" stop-color="#808284"/><stop offset="0.64" stop-color="#7c7e7f"/><stop offset="1" stop-color="#787c7d"/></linearGradient></defs><title>logo-carbonite-opentext</title><g id="Carbonite_Logo" data-name="Carbonite Logo"><path class="cls-2" d="M155.37,1.11c6.54,0,16.9.46,22.53,8.9,3.27,5.1,4.36,13.45,2,19.27-1.82,4.45-4.36,7.27-9.45,9.45,3.27,3,4.52,6.35,6.43,10.45l7.66,17.71H164.09l-5.81-13.63c-4.09-9.63-3.27-9.72-8.45-9.72h-4V66.89H125.21V1.11Zm-9.54,29h2.91c4.72,0,8.54-.37,10.45-3.09a8,8,0,0,0,.72-7.18c-2.18-4.72-6.81-5-11.17-5h-2.91Z"/><path class="cls-2" d="M214,1.11c6.45,0,18.71-.18,23.16,10.09,2,4.54,2.25,11.7-1.39,16.45a15.08,15.08,0,0,1-3.5,3.32,13.93,13.93,0,0,1,9,11.12c.82,5.29.59,11-3.5,16.38-6.81,8.81-18.21,8.42-24.57,8.42H186.73V1.11Zm-4.18,26c5.18,0,6.72-.55,8.72-3.64a6.79,6.79,0,0,0-.36-6.18c-2.09-2.54-4.55-2.81-8.54-2.81h-2.28V27.1Zm-.09,25.8c3.36,0,9.53.55,12-2.91a6.67,6.67,0,0,0,.27-6.63c-2.27-3.82-8.36-3.18-11.81-3.18h-2.82V52.9Z"/><rect class="cls-2" x="378.48" y="1.11" width="20.63" height="65.78"/><polygon class="cls-2" points="459.81 1.11 459.81 17.19 441.18 17.19 441.18 66.89 420.65 66.89 420.65 17.19 401.94 17.19 401.94 1.11 459.81 1.11"/><polygon class="cls-2" points="509.16 1.11 509.16 16.92 483.27 16.92 483.27 26.1 507.16 26.1 507.16 41.36 483.12 41.36 483.12 51.02 509.89 51.02 509.89 66.89 462.64 66.89 462.64 1.11 509.16 1.11"/><path class="cls-2" d="M311.25,27.51C309.5,17.24,304.33,8.16,293,3.07A37,37,0,0,0,281.41.16a64.46,64.46,0,0,0-8.79,0,37,37,0,0,0-11.55,2.91c-11.37,5.09-16.54,14.17-18.28,24.44A38.23,38.23,0,0,0,242.3,34a38.11,38.11,0,0,0,.49,6.51c1.74,10.27,6.91,19.35,18.28,24.44a36.42,36.42,0,0,0,11.55,2.91,60.44,60.44,0,0,0,8.79,0A36.42,36.42,0,0,0,293,65c11.37-5.09,16.54-14.17,18.29-24.44a39.19,39.19,0,0,0,.48-6.51,39.32,39.32,0,0,0-.48-6.52m-22.55,19a13.84,13.84,0,0,1-23.37,0c-1.78-3.14-2.6-7.8-2.47-12.48-.13-4.68.69-9.35,2.47-12.49a13.86,13.86,0,0,1,23.37,0c1.78,3.14,2.6,7.81,2.47,12.49.13,4.68-.69,9.34-2.47,12.48"/><path class="cls-2" d="M99.38,1.11H78.94L55.09,66.89H75.53l3.81-12.35H99l3.81,12.35h20.44ZM82.89,41.18l6.63-19.72,6.27,19.72Z"/><path class="cls-2" d="M27.23,19c5.43-6.35,21.58-3.76,26.34-1.84V1.33c-7.38-1.3-18-2-25.79-.46C17.33,2.9,8,9.28,4.07,20.54A40.83,40.83,0,0,0,2,34.14,39.48,39.48,0,0,0,4.07,47.66C8.25,59.48,15.52,65.34,27.78,67.33c7.84,1.35,18.41.84,25.79-.46V51c-5,2.16-19.74,3.27-25.61-1.92-4.14-3.66-5.29-11.56-5.17-15-.12-3.44-.15-9.74,4.44-15.1"/><polygon class="cls-2" points="356.83 1.11 353.75 1.11 353.75 34.06 330.34 1.11 313.95 1.11 313.95 7.52 313.95 66.89 331.03 66.89 334.39 66.89 334.39 35.02 357.25 66.89 374.19 66.89 374.19 60.48 374.19 1.11 356.83 1.11"/><g id="Dot"><g class="cls-3"><rect class="cls-4" x="519.05" y="2.66" width="69.38" height="64.38"/></g><g class="cls-3"><path class="cls-5" d="M521.59,38.24C533,29,557.38,26.92,572.17,31.84c18.33,5.87,22.69,14.5,20.14,24.68-2.26,8.45-13.26,22-21.83,31.28-8.45,8.84-15.5,10.37-21.32,9-6.51-1.59-11.93-6.42-20.29-16.65-2.49-3-5.68-7.07-7.86-10.28-5.07-7.62-13.44-20.45.59-31.61"/><path class="cls-6" d="M573.24,12.44c.32,4.86-8.54,11.15-19.69,11.49-11.14-.33-20-6.65-19.7-11.49.38-5.27,8.48-9.73,19.7-9.7s19.32,4.42,19.69,9.7"/></g><path class="cls-7" d="M531.51,55.92c-8.51-7.82-10.07-19.24-8.7-27.3,1.79-10.14,7.09-17,16.24-20.91A34.1,34.1,0,0,1,549.47,5.2c1-.09,2.14-.14,3.27-.14,5.17,0,18.06,1.09,26.08,11.13,6.69,8.55,7,20.45,4.33,28.44-3.3,9.76-9.11,14.92-20,17.81a39.62,39.62,0,0,1-9.26,1.05c-5.28,0-15.2-1-22.4-7.57M552.74,1.4c-1.29,0-2.5.05-3.6.15a37.91,37.91,0,0,0-11.59,2.82C526.14,9.28,521,18.06,519.21,28c-1.49,8.78.09,21.68,9.83,30.64,7,6.34,16.56,8.52,24.88,8.52A43.27,43.27,0,0,0,564.06,66c11.23-3,18.61-8.52,22.55-20.19,3.16-9.48,2.36-22.55-4.91-31.86-7.88-9.85-20.21-12.54-29-12.54h0"/><path class="cls-8" d="M531.82,55.58c-8.37-7.69-9.91-18.93-8.56-26.88,1.77-10,7-16.71,16-20.58a33.75,33.75,0,0,1,10.29-2.46c1-.1,2.11-.14,3.23-.14,5.1,0,17.82,1.06,25.72,11,6.58,8.41,6.88,20.13,4.25,28-3.24,9.59-8.94,14.67-19.64,17.51a38.55,38.55,0,0,1-9.14,1c-5.21,0-15-1-22.1-7.44M549.46,4.75a35,35,0,0,0-10.58,2.54c-9.28,4-14.68,11-16.5,21.26-1.4,8.18.2,19.77,8.84,27.7,7.32,6.68,17.39,7.69,22.72,7.69a40,40,0,0,0,9.37-1.06c11.05-3,16.93-8.18,20.28-18.11,2.71-8.11,2.4-20.18-4.4-28.87C571,5.7,558,4.6,552.75,4.6c-1.14,0-2.26.05-3.3.15"/></g><path class="cls-2" d="M593.94,1.13A3.87,3.87,0,0,1,598,5.2a4.05,4.05,0,1,1-8.1,0A3.86,3.86,0,0,1,593.94,1.13Zm0,7.43a3.14,3.14,0,0,0,3.23-3.36,3.24,3.24,0,1,0-6.48,0A3.16,3.16,0,0,0,594,8.56Zm-.34-3h-.54V7.34h-.61V3h1.74a1.21,1.21,0,0,1,1.26,1.26,1.18,1.18,0,0,1-1.17,1.26l1.35,1.81H595ZM593.08,5h1.06a.69.69,0,0,0,.7-.75.71.71,0,0,0-.7-.77h-1.06Z"/><path class="cls-9" d="M13,110.2a7.55,7.55,0,0,1-2.19,1.8,6.52,6.52,0,0,1-3.3.76,8,8,0,0,1-2.21-.29,4.83,4.83,0,0,1-1.73-.9,4,4,0,0,1-1.13-1.5,5.08,5.08,0,0,1-.4-2.1,4.61,4.61,0,0,1,.69-2.65,4.93,4.93,0,0,1,1.86-1.61,9,9,0,0,1,2.61-.83,22.25,22.25,0,0,1,3-.31l2.75-.1v-.61a4.18,4.18,0,0,0-.86-2.94A3.82,3.82,0,0,0,9.3,98a4.93,4.93,0,0,0-2.81.63,2.93,2.93,0,0,0-1.18,1.75l-2.44-.28a4.6,4.6,0,0,1,2.07-3.2,8.48,8.48,0,0,1,4.45-1,9.13,9.13,0,0,1,2.92.41,5,5,0,0,1,1.93,1.19,4.5,4.5,0,0,1,1.06,1.92,9.18,9.18,0,0,1,.33,2.56v10.38H13ZM13,104.39l-2.56.09a15.39,15.39,0,0,0-2.72.31,5.55,5.55,0,0,0-1.71.66,2.35,2.35,0,0,0-.9,1,3.67,3.67,0,0,0-.26,1.42,2.62,2.62,0,0,0,.72,1.93,3.34,3.34,0,0,0,2.4.73,5.41,5.41,0,0,0,3.7-1.18A4,4,0,0,0,13,106.18Z"/><path class="cls-9" d="M19.28,96.42h2.65v2.44a7.14,7.14,0,0,1,2.6-2.25,6.75,6.75,0,0,1,3-.68,5.08,5.08,0,0,1,4,1.48,6.36,6.36,0,0,1,1.32,4.35v10.63H30.18v-10.1a4.82,4.82,0,0,0-.8-3.14,3.16,3.16,0,0,0-2.47-.91,5.51,5.51,0,0,0-1.78.31,4.43,4.43,0,0,0-1.59,1A5,5,0,0,0,22.37,101a4.11,4.11,0,0,0-.41,2v9.45H19.28Z"/><path class="cls-9" d="M202.23,107a7.09,7.09,0,0,1-2.1,4.33,6.79,6.79,0,0,1-4.79,1.57,8.35,8.35,0,0,1-3.23-.58,6.3,6.3,0,0,1-2.35-1.69,7.4,7.4,0,0,1-1.42-2.65,11.93,11.93,0,0,1-.47-3.51,11,11,0,0,1,.52-3.49,7.68,7.68,0,0,1,1.51-2.69,7,7,0,0,1,2.41-1.73,8,8,0,0,1,3.21-.61,5.88,5.88,0,0,1,6.46,5.28l-2.69.49a8.15,8.15,0,0,0-.41-1.42,3.6,3.6,0,0,0-.73-1.13,3.41,3.41,0,0,0-1.13-.74,4.41,4.41,0,0,0-1.59-.26,4.53,4.53,0,0,0-2.16.48A4,4,0,0,0,191.8,100a5.77,5.77,0,0,0-.83,2,10.56,10.56,0,0,0-.26,2.44,11.88,11.88,0,0,0,.24,2.44,6,6,0,0,0,.81,2,3.89,3.89,0,0,0,1.45,1.34,4.46,4.46,0,0,0,2.19.5,3.82,3.82,0,0,0,2.89-1,5,5,0,0,0,1.22-2.69Z"/><path class="cls-9" d="M212.23,112.88a8.47,8.47,0,0,1-3.24-.58,6.77,6.77,0,0,1-2.41-1.67,7.28,7.28,0,0,1-1.51-2.66,11.07,11.07,0,0,1-.53-3.52,10.52,10.52,0,0,1,.56-3.52,7.7,7.7,0,0,1,1.57-2.69,6.9,6.9,0,0,1,2.46-1.71,8.2,8.2,0,0,1,3.19-.6,8.4,8.4,0,0,1,3.22.58A6.91,6.91,0,0,1,218,98.2a7.34,7.34,0,0,1,1.53,2.64,12,12,0,0,1,0,7,7.73,7.73,0,0,1-1.54,2.69,6.73,6.73,0,0,1-2.46,1.71A8.35,8.35,0,0,1,212.23,112.88Zm0-2.22a5.07,5.07,0,0,0,2.23-.46,4.36,4.36,0,0,0,1.53-1.3,5.74,5.74,0,0,0,.88-2,11.34,11.34,0,0,0,.27-2.55,10.83,10.83,0,0,0-.27-2.5,5.51,5.51,0,0,0-.88-2,4.33,4.33,0,0,0-1.53-1.29,4.93,4.93,0,0,0-2.23-.46,4.84,4.84,0,0,0-2.21.46,4.27,4.27,0,0,0-1.51,1.29,5.51,5.51,0,0,0-.88,2,11.57,11.57,0,0,0,0,5.06,5.76,5.76,0,0,0,.87,2,4,4,0,0,0,1.51,1.3A5.05,5.05,0,0,0,212.26,110.66Z"/><path class="cls-9" d="M223.08,96.42h2.66v2.44a7.57,7.57,0,0,1,2.38-2.21,5.39,5.39,0,0,1,2.65-.72,4.87,4.87,0,0,1,2.89.77,4.5,4.5,0,0,1,1.62,2.22,7.65,7.65,0,0,1,2.47-2.24,6.18,6.18,0,0,1,3-.75,4.9,4.9,0,0,1,3.63,1.28,5.66,5.66,0,0,1,1.28,4.12v11.06h-2.69V102a7.72,7.72,0,0,0-.18-1.81,3,3,0,0,0-.54-1.14,2,2,0,0,0-.88-.59,4.06,4.06,0,0,0-1.21-.17,5,5,0,0,0-1.48.25,4.54,4.54,0,0,0-1.51.86,4.33,4.33,0,0,0-1,1.27,3.5,3.5,0,0,0-.4,1.7v10.07H233V102a4.43,4.43,0,0,0-.73-2.92,2.65,2.65,0,0,0-2.08-.82,4.34,4.34,0,0,0-3,1.3,6.18,6.18,0,0,0-1,1.27,3.87,3.87,0,0,0-.48,2.07v9.51h-2.69Z"/><path class="cls-9" d="M249.28,96.42h2.65v2.29a6.91,6.91,0,0,1,2.3-2.07,6.31,6.31,0,0,1,3.08-.71,6.84,6.84,0,0,1,3,.61,6,6,0,0,1,2.13,1.73,7.7,7.7,0,0,1,1.26,2.64,12.79,12.79,0,0,1,.42,3.39,12,12,0,0,1-.49,3.56,8,8,0,0,1-1.42,2.71,6.35,6.35,0,0,1-2.24,1.71,7,7,0,0,1-2.95.6,6.92,6.92,0,0,1-2.67-.54,5.69,5.69,0,0,1-2.37-1.93v8h-2.68Zm2.65,8.43a8.51,8.51,0,0,0,.36,2.64,5,5,0,0,0,1,1.81,3.61,3.61,0,0,0,1.48,1,5.29,5.29,0,0,0,1.89.33,4.77,4.77,0,0,0,1.83-.34,3.57,3.57,0,0,0,1.47-1.1,5.45,5.45,0,0,0,1-2,10.33,10.33,0,0,0,.36-2.93,9.54,9.54,0,0,0-.39-3,5.31,5.31,0,0,0-1-1.9,3.64,3.64,0,0,0-1.41-1,4.28,4.28,0,0,0-1.62-.31,5.11,5.11,0,0,0-1.94.36,4.14,4.14,0,0,0-1.56,1,4.7,4.7,0,0,0-1,1.76,7.6,7.6,0,0,0-.37,2.45Z"/><path class="cls-9" d="M277.21,110.2A7.73,7.73,0,0,1,275,112a6.5,6.5,0,0,1-3.3.76,8.1,8.1,0,0,1-2.21-.29,4.91,4.91,0,0,1-1.73-.9,4.13,4.13,0,0,1-1.13-1.5,5.24,5.24,0,0,1-.4-2.1,4.54,4.54,0,0,1,.7-2.65,4.83,4.83,0,0,1,1.85-1.61,9,9,0,0,1,2.61-.83,22.4,22.4,0,0,1,3-.31l2.75-.1v-.61a4.13,4.13,0,0,0-.87-2.94,3.8,3.8,0,0,0-2.81-.89,5,5,0,0,0-2.81.63,2.87,2.87,0,0,0-1.17,1.75l-2.44-.28a4.53,4.53,0,0,1,2.07-3.2,8.44,8.44,0,0,1,4.44-1,9.09,9.09,0,0,1,2.92.41,4.91,4.91,0,0,1,1.93,1.19,4.52,4.52,0,0,1,1.07,1.92,9.59,9.59,0,0,1,.32,2.56v10.38h-2.59Zm-.06-5.81-2.57.09a15.39,15.39,0,0,0-2.72.31,5.55,5.55,0,0,0-1.71.66,2.41,2.41,0,0,0-.9,1,3.67,3.67,0,0,0-.26,1.42,2.59,2.59,0,0,0,.73,1.93,3.3,3.3,0,0,0,2.39.73,5.43,5.43,0,0,0,3.71-1.18,4.08,4.08,0,0,0,1.33-3.21Z"/><path class="cls-9" d="M283.45,96.42h2.66v2.44a7,7,0,0,1,2.59-2.25,6.79,6.79,0,0,1,3-.68,5.11,5.11,0,0,1,4,1.48,6.41,6.41,0,0,1,1.31,4.35v10.63h-2.69v-10.1a4.76,4.76,0,0,0-.8-3.14,3.16,3.16,0,0,0-2.47-.91,5.51,5.51,0,0,0-1.78.31,4.6,4.6,0,0,0-1.59,1,5.15,5.15,0,0,0-1.17,1.44,4.11,4.11,0,0,0-.4,2v9.45h-2.69Z"/><path class="cls-9" d="M300.22,115.79a5.21,5.21,0,0,0,1.73.3,2.14,2.14,0,0,0,1.53-.51,5.25,5.25,0,0,0,1.06-1.89l.65-1.7-6.76-15.57h3.12l5,12.54,4.6-12.54h3l-7,17.48a20.52,20.52,0,0,1-.87,1.9,7.25,7.25,0,0,1-1,1.41,3.35,3.35,0,0,1-1.25.88,4.82,4.82,0,0,1-1.77.29,8.78,8.78,0,0,1-1.33-.09,9.34,9.34,0,0,1-1.3-.34Z"/><path class="cls-9" d="M60.67,103.93c0,4.33-2.5,9-9.18,9-4.82,0-9.22-2.69-9.22-9,0-5.24,3.31-9.28,9.87-8.92C59.13,95.41,60.67,100.82,60.67,103.93Zm-12.46-3.29a5.88,5.88,0,0,0-.85,3.26c0,2.66,1.31,5.06,4.13,5.06s4.06-2.21,4.06-4.83a5.6,5.6,0,0,0-1.41-4.2,3.73,3.73,0,0,0-3-.92A3.4,3.4,0,0,0,48.21,100.64Z"/><path class="cls-9" d="M105.43,97a4.87,4.87,0,0,1,1.71-1.35,8.48,8.48,0,0,1,3.11-.59,6.48,6.48,0,0,1,3,.66c1.8,1,2.26,2.49,2.26,5.15v11.7h-5v-9.64a6.93,6.93,0,0,0-.23-2.55A2.3,2.3,0,0,0,108.06,99c-2.66,0-2.66,2.14-2.66,4.27v9.24h-5.05V95.44h5.08Z"/><path class="cls-9" d="M98,108.1c-.46,1-2,4.85-8.52,4.85-5.08,0-8.66-3.11-8.66-8.72,0-4.13,2-9.22,8.79-9.22a7.88,7.88,0,0,1,6.16,2.24c2.23,2.39,2.36,5.74,2.43,7.67H85.92c0,2.13,1.18,4.26,3.9,4.26s3.71-1.8,4.33-3Zm-5-6.33a4.07,4.07,0,0,0-1-2.42,3.55,3.55,0,0,0-2.46-.95A3.48,3.48,0,0,0,87,99.51a4.54,4.54,0,0,0-1,2.26Z"/><path class="cls-9" d="M168.16,99h3.34V95.44h-3.31v-3.6h-5v3.6h-.79L160.08,99h3.09v8.12c0,1.64,0,2.86.73,3.87,1.08,1.58,3,1.67,4.72,1.67a15.38,15.38,0,0,0,2.65-.26v-3.93l-1.8.06c-1.34,0-1.34-.88-1.31-1.93Z"/><path class="cls-9" d="M118.08,91.84h5v3.6h5.22L126,99h-3v7.6c0,1,0,1.93,1.31,1.93l1.8-.06v3.93a15.38,15.38,0,0,1-2.65.26c-1.74,0-3.64-.09-4.72-1.67-.69-1-.72-2.23-.72-3.87Z"/><path class="cls-9" d="M176.15,99h-.62V96h-1.14v-.52h2.88V96h-1.12ZM181,99h-.61l0-2.19,0-.73-.18.6L179.56,99H179l-.71-2.32-.18-.59,0,.72,0,2.19h-.6V95.44h.85l.88,2.8.87-2.8H181Z"/><path class="cls-9" d="M144.11,108.12l-1,1.48c-.9,1.32-2.59,3.35-7.44,3.35-5.08,0-8.49-3.11-8.49-8.72,0-4.13,2-9.22,8.78-9.22a7.9,7.9,0,0,1,6.17,2.24c2.23,2.39,2.36,5.74,2.42,7.67H132.36c0,2.13,1,4.26,3.75,4.26s3.54-1.8,4.16-3Zm-4.73-6.35a4.07,4.07,0,0,0-.95-2.42,3.58,3.58,0,0,0-5,.16,4.52,4.52,0,0,0-1,2.26Z"/><polygon class="cls-9" points="161.3 112.53 155.03 103.53 160.26 95.44 154.52 95.44 152.05 99.26 149.38 95.44 143.64 95.44 149.28 103.53 143.47 112.53 149.21 112.53 152.26 107.81 155.56 112.53 161.3 112.53"/><path class="cls-9" d="M67.62,97A5.48,5.48,0,0,1,72.11,95c4.19,0,7.15,3.18,7.15,8.89,0,3.51-1.28,9-7.36,9A5.47,5.47,0,0,1,67.58,111v7.17h-5V95.44h5.09ZM71,99a3.21,3.21,0,0,0-2.59,1.28,6,6,0,0,0-1,3.75,5.75,5.75,0,0,0,1.21,3.94,3.1,3.1,0,0,0,2.26,1c2.46,0,3.54-2.59,3.54-5.09,0-2.11-.62-4.33-2.68-4.82A2.72,2.72,0,0,0,71,99Z"/></g></svg>