<svg width="176" height="50" viewBox="0 0 176 50" fill="none" xmlns="http://www.w3.org/2000/svg">
<path d="M24.8579 50C10.9289 50 0 38.7234 0 24.8936C0 11.2766 10.9289 0 24.8579 0C38.7869 0 49.7158 11.2766 49.7158 24.8936C49.7158 38.7234 38.7869 50 24.8579 50ZM24.8579 39.3617C36.2154 39.3617 44.3585 32.1277 48.0015 24.8936C45.43 19.3617 37.7154 10.6383 24.8579 10.6383C13.5004 10.6383 5.35731 17.6596 1.71434 24.8936C5.14301 32.1277 13.5004 39.3617 24.8579 39.3617ZM24.8579 38.0851C17.572 38.0851 11.5718 32.1277 11.5718 24.8936C11.5718 17.6596 17.572 11.7021 24.8579 11.7021C32.1438 11.7021 38.144 17.6596 38.144 24.8936C38.144 32.3404 32.1438 38.0851 24.8579 38.0851Z" fill="#0093C1"/>
<path d="M54.7852 24.8966C54.7852 11.4924 65.0712 2.34344 78.5716 2.34344C89.0719 2.34344 94.8578 8.30089 97.6436 14.0456L88.0005 18.7264C86.5004 15.3222 82.8574 12.3434 78.5716 12.3434C71.4999 12.3434 66.3569 17.6626 66.3569 24.8966C66.3569 31.9179 71.4999 37.4498 78.5716 37.4498C82.8574 37.4498 86.5004 34.6839 88.0005 31.0668L97.6436 35.5349C94.8578 41.0668 89.0719 47.2371 78.5716 47.2371C65.0712 47.4498 54.7852 38.3009 54.7852 24.8966Z" fill="#0093C1"/>
<path d="M98.6133 46.6038V3.19952H123.471C132.257 3.19952 136.329 8.73144 136.329 14.2634C136.329 19.5825 132.9 23.4123 128.828 24.2634C133.543 24.9017 137.186 29.3697 137.186 34.9017C137.186 41.2846 132.9 46.6038 124.328 46.6038H98.6133ZM124.757 16.391C124.757 14.2634 123.257 12.9868 120.9 12.9868H109.971V19.7953H120.9C123.257 19.7953 124.757 18.5187 124.757 16.391ZM125.614 33.1995C125.614 31.0719 124.114 29.5825 121.328 29.5825H109.971V37.0293H121.328C124.114 36.8165 125.614 35.54 125.614 33.1995Z" fill="#0093C1"/>
<path d="M137.652 40.4298L143.653 31.7064C146.867 34.8979 151.581 37.451 157.796 37.451C161.653 37.451 164.01 36.1745 164.01 34.0468C164.01 28.3021 139.152 32.983 139.152 16.3872C139.152 9.15318 145.367 2.55743 156.51 2.55743C163.582 2.55743 169.582 4.68509 174.296 8.51488L168.082 17.0255C164.439 14.0468 159.51 12.5574 155.224 12.5574C152.01 12.5574 150.51 13.6213 150.51 15.5362C150.51 20.8553 175.368 16.8128 175.368 32.983C175.368 41.7064 168.939 47.451 157.153 47.451C148.153 47.451 141.938 44.6851 137.652 40.4298Z" fill="#0093C1"/>
</svg>
