<svg width="164" height="30" viewBox="0 0 164 30" fill="none" xmlns="http://www.w3.org/2000/svg">
<path d="M135.223 12.4383C135.223 12.6083 135.223 12.7783 135.223 12.9683C135.223 13.1583 135.213 13.3583 135.193 13.5683H121.553C121.573 14.3983 121.743 15.1683 122.043 15.8983C122.343 16.6283 122.772 17.2683 123.312 17.8083C123.853 18.3483 124.483 18.7783 125.213 19.0983C125.943 19.4183 126.722 19.5783 127.572 19.5783C128.812 19.5783 129.882 19.2883 130.792 18.7083C131.692 18.1283 132.383 17.4683 132.853 16.7083L134.643 18.1183C133.663 19.3683 132.573 20.2683 131.393 20.8083C130.213 21.3483 128.932 21.6183 127.572 21.6183C126.352 21.6183 125.223 21.3983 124.183 20.9683C123.143 20.5283 122.243 19.9283 121.493 19.1483C120.743 18.3683 120.153 17.4483 119.713 16.3883C119.283 15.3283 119.062 14.1783 119.062 12.9283C119.062 11.6783 119.273 10.5283 119.693 9.46828C120.113 8.40828 120.702 7.48828 121.452 6.70828C122.202 5.92828 123.082 5.32828 124.092 4.88828C125.102 4.44828 126.193 4.23828 127.363 4.23828C128.653 4.23828 129.793 4.45828 130.773 4.88828C131.753 5.32828 132.572 5.90828 133.232 6.65828C133.892 7.39828 134.383 8.26828 134.723 9.25828C135.053 10.2383 135.223 11.3083 135.223 12.4383ZM132.792 11.6583C132.722 10.0983 132.223 8.80828 131.303 7.78828C130.373 6.76828 129.052 6.24828 127.342 6.24828C126.542 6.24828 125.803 6.39828 125.123 6.68828C124.443 6.98828 123.843 7.38828 123.333 7.88828C122.813 8.39828 122.403 8.96828 122.103 9.61828C121.803 10.2683 121.623 10.9483 121.573 11.6483H132.792V11.6583Z" fill="#1A2632"/>
<path d="M147.774 6.68H143.134V16.33C143.134 16.94 143.194 17.45 143.314 17.85C143.434 18.25 143.604 18.56 143.824 18.79C144.044 19.01 144.314 19.17 144.614 19.25C144.914 19.33 145.244 19.37 145.594 19.37C145.924 19.37 146.264 19.32 146.634 19.23C146.994 19.14 147.344 19.01 147.674 18.84L147.784 20.93C147.364 21.09 146.924 21.22 146.464 21.3C146.004 21.38 145.504 21.42 144.974 21.42C144.524 21.42 144.064 21.36 143.564 21.24C143.074 21.12 142.614 20.9 142.194 20.57C141.774 20.24 141.424 19.79 141.154 19.23C140.884 18.66 140.754 17.92 140.754 17V6.68H137.344V4.67H140.754V0H143.144V4.67H147.784V6.68H147.774Z" fill="#1A2632"/>
<path d="M161.814 8.58C161.464 7.9 160.934 7.34 160.214 6.9C159.494 6.46 158.684 6.25 157.774 6.25C157.354 6.25 156.934 6.3 156.504 6.39C156.084 6.48 155.704 6.64 155.374 6.85C155.044 7.06 154.784 7.33 154.584 7.66C154.384 7.99 154.284 8.38 154.284 8.83C154.284 9.61 154.604 10.2 155.234 10.61C155.864 11.02 156.864 11.37 158.224 11.65C160.174 12.05 161.604 12.63 162.534 13.4C163.464 14.17 163.924 15.2 163.924 16.49C163.924 17.43 163.744 18.23 163.374 18.88C163.014 19.53 162.534 20.06 161.954 20.47C161.364 20.88 160.704 21.18 159.964 21.35C159.224 21.53 158.484 21.62 157.734 21.62C156.494 21.62 155.284 21.36 154.114 20.84C152.944 20.32 151.984 19.51 151.234 18.4L153.134 16.99C153.554 17.72 154.174 18.33 154.994 18.83C155.814 19.33 156.714 19.57 157.704 19.57C158.224 19.57 158.714 19.52 159.184 19.43C159.654 19.34 160.064 19.17 160.414 18.94C160.764 18.7 161.044 18.4 161.254 18.04C161.464 17.67 161.574 17.22 161.574 16.68C161.574 15.81 161.154 15.15 160.324 14.72C159.494 14.28 158.294 13.88 156.724 13.5C156.234 13.38 155.714 13.24 155.164 13.06C154.614 12.88 154.104 12.62 153.634 12.28C153.164 11.94 152.774 11.51 152.474 10.99C152.174 10.47 152.014 9.82 152.014 9.05C152.014 8.2 152.174 7.48 152.504 6.88C152.834 6.28 153.274 5.78 153.824 5.4C154.374 5.01 155.004 4.72 155.704 4.53C156.404 4.34 157.134 4.25 157.884 4.25C159.034 4.25 160.144 4.51 161.224 5.03C162.304 5.55 163.114 6.28 163.654 7.22L161.814 8.58Z" fill="#1A2632"/>
<path d="M76.9086 21.2002C76.8586 20.7502 76.8286 20.2602 76.7986 19.7102C76.7786 19.1702 76.7586 18.7202 76.7586 18.3702H76.6886C76.2186 19.3402 75.4586 20.1202 74.3986 20.7202C73.3486 21.3202 72.2286 21.6202 71.0586 21.6202C68.9686 21.6202 67.4086 21.0002 66.3686 19.7502C65.3286 18.5002 64.8086 16.8502 64.8086 14.8002V4.66016H67.1986V13.8102C67.1986 14.6802 67.2686 15.4702 67.4086 16.1802C67.5486 16.8902 67.7886 17.4902 68.1286 18.0002C68.4686 18.5102 68.9286 18.9002 69.4986 19.1802C70.0686 19.4602 70.7886 19.6002 71.6586 19.6002C72.2886 19.6002 72.9086 19.4702 73.5086 19.2102C74.1086 18.9502 74.6386 18.5602 75.1086 18.0302C75.5786 17.5002 75.9486 16.8302 76.2386 16.0202C76.5186 15.2102 76.6586 14.2502 76.6586 13.1402V4.66016H79.0486V17.5602C79.0486 18.0102 79.0586 18.5902 79.0886 19.2902C79.1086 20.0002 79.1486 20.6302 79.1986 21.2002H76.9086Z" fill="#1A2632"/>
<path d="M48.3681 4.66047C48.4181 5.11047 48.4481 5.60047 48.4781 6.14047C48.4981 6.68047 48.5081 7.13047 48.5081 7.48047H48.5781C49.0481 6.51047 49.8081 5.73047 50.8681 5.13047C51.9181 4.53047 53.0381 4.23047 54.2081 4.23047C56.2981 4.23047 57.8581 4.85047 58.8981 6.10047C59.9381 7.35047 60.4581 9.00047 60.4581 11.0505V21.1905H58.0681V12.0405C58.0681 11.1705 57.9981 10.3805 57.8581 9.67047C57.7181 8.96047 57.4781 8.36047 57.1381 7.85047C56.7981 7.34047 56.3381 6.95047 55.7681 6.67047C55.1981 6.39047 54.4681 6.25047 53.6081 6.25047C52.9781 6.25047 52.3581 6.38047 51.7581 6.64047C51.1581 6.90047 50.6281 7.29047 50.1581 7.82047C49.6881 8.35047 49.3181 9.02047 49.0281 9.83047C48.7481 10.6405 48.6081 11.6005 48.6081 12.7105V21.1905H46.2181V8.29047C46.2181 7.84047 46.2081 7.26047 46.1881 6.56047C46.1681 5.85047 46.1281 5.22047 46.0781 4.65047H48.3681V4.66047V4.66047Z" fill="#1A2632"/>
<path d="M13.93 18.7716C13.29 19.5516 12.47 20.1416 11.49 20.5316C10.51 20.9216 9.5 21.1216 8.49 21.1216C7.31 21.1216 6.24 20.9116 5.28 20.4916C4.33 20.0716 3.5 19.4816 2.82 18.7516C2.14 18.0116 1.61 17.1416 1.25 16.1516C0.88 15.1616 0.7 14.0816 0.7 12.9516C0.7 11.8116 0.89 10.7416 1.26 9.75156C1.63 8.76156 2.17 7.89156 2.84 7.15156C3.52 6.42156 4.34 5.83156 5.3 5.41156C6.25 4.99156 7.32 4.78156 8.48 4.78156C8.91 4.78156 9.36 4.82156 9.81 4.90156C10.27 4.98156 10.73 5.10156 11.18 5.27156C11.63 5.44156 12.06 5.65156 12.46 5.90156C12.86 6.15156 13.23 6.45156 13.55 6.78156L13.63 6.86156L14.09 6.33156L14.03 6.26156C13.34 5.53156 12.49 4.99156 11.51 4.63156C10.53 4.28156 9.52 4.10156 8.49 4.10156C7.26 4.10156 6.11 4.32156 5.07 4.76156C4.03 5.20156 3.12 5.82156 2.37 6.60156C1.62 7.38156 1.03 8.32156 0.62 9.40156C0.21 10.4816 0 11.6716 0 12.9416C0 14.2116 0.21 15.4016 0.62 16.4816C1.03 17.5616 1.62 18.5116 2.37 19.2916C3.12 20.0716 4.02 20.6916 5.06 21.1216C6.09 21.5616 7.25 21.7816 8.5 21.7816C9.61 21.7816 10.71 21.5716 11.78 21.1516C12.85 20.7316 13.76 20.0916 14.46 19.2416L14.52 19.1716L14 18.6816L13.93 18.7716Z" fill="#1A2632"/>
<path d="M26.7206 13.5113C26.3006 13.1613 25.8406 12.8912 25.3506 12.7112C25.0006 12.5812 24.6706 12.4813 24.3506 12.4213C24.6506 12.3313 24.9506 12.2112 25.2506 12.0712C25.6606 11.8712 26.0306 11.6112 26.3606 11.2912C26.6906 10.9712 26.9506 10.5812 27.1406 10.1312C27.3306 9.68125 27.4306 9.15125 27.4306 8.55125C27.4306 7.77125 27.2806 7.12125 26.9706 6.60125C26.6706 6.09125 26.2706 5.68125 25.7706 5.37125C25.2806 5.07125 24.7206 4.85125 24.1006 4.72125C23.4806 4.60125 22.8506 4.53125 22.2306 4.53125H17.6406V21.2912H22.7906C23.3706 21.2912 23.9906 21.2213 24.6106 21.0913C25.2506 20.9613 25.8406 20.7212 26.3606 20.3912C26.8906 20.0612 27.3306 19.5913 27.6706 19.0113C28.0106 18.4313 28.1806 17.6813 28.1806 16.7713C28.1806 16.0213 28.0406 15.3713 27.7606 14.8313C27.4906 14.3213 27.1406 13.8613 26.7206 13.5113ZM22.2006 12.1613H18.3406V5.23125H22.0806C22.6906 5.23125 23.2806 5.29125 23.8406 5.40125C24.3906 5.51125 24.8806 5.70125 25.3106 5.96125C25.7306 6.22125 26.0706 6.57125 26.3206 7.00125C26.5706 7.44125 26.7006 7.98125 26.7006 8.63125C26.7006 9.25125 26.5706 9.79125 26.3106 10.2312C26.0506 10.6712 25.7006 11.0412 25.2806 11.3212C24.8606 11.6012 24.3706 11.8112 23.8306 11.9512C23.3006 12.0912 22.7506 12.1613 22.2006 12.1613ZM18.3406 20.6512V12.8313H22.8006C23.3206 12.8313 23.8606 12.9012 24.4006 13.0512C24.9506 13.2012 25.4506 13.4313 25.9006 13.7513C26.3506 14.0713 26.7306 14.4913 27.0206 15.0013C27.3106 15.5113 27.4606 16.1412 27.4606 16.8712C27.4606 17.5412 27.3306 18.1213 27.0906 18.5913C26.8406 19.0613 26.5006 19.4613 26.0706 19.7613C25.6406 20.0613 25.1206 20.2913 24.5106 20.4313C23.9006 20.5813 23.2406 20.6512 22.5306 20.6512H18.3406Z" fill="#1A2632"/>
<path d="M29.8203 4.5625V5.2225H35.4303V21.3125H36.1403V5.2225H41.7503V4.5625H29.8203Z" fill="#1A2632"/>
<path d="M91.0901 17.6383C94.9401 17.2983 97.8001 13.8983 97.4601 10.0483C97.1201 6.19834 93.7201 3.34834 89.8701 3.67834C86.0201 4.01834 83.1601 7.41834 83.5001 11.2683C83.8401 15.1183 87.2401 17.9783 91.0901 17.6383Z" fill="#FFBC00"/>
<path d="M95.0698 19.3203C92.1898 19.3203 89.8398 21.6703 89.8398 24.5503C89.8398 27.4303 92.1798 29.7803 95.0698 29.7803C97.9498 29.7803 100.3 27.4303 100.3 24.5503C100.3 21.6703 97.9498 19.3203 95.0698 19.3203Z" fill="#FFBC00"/>
<path d="M97.3715 3.78999C98.4115 3.69999 99.1814 2.77999 99.0914 1.74999C99.0014 0.709988 98.0815 -0.0600119 97.0415 0.0399881C96.0015 0.129988 95.2415 1.04999 95.3315 2.07999C95.4215 3.10999 96.3415 3.87999 97.3715 3.78999Z" fill="#FFBC00"/>
<path d="M117.331 22.1592C117.001 18.3092 113.591 15.4492 109.741 15.7892C105.891 16.1192 103.031 19.5292 103.371 23.3792C103.711 27.2292 107.111 30.0892 110.961 29.7492C114.811 29.4092 117.661 26.0092 117.331 22.1592Z" fill="#FFBC00"/>
<path d="M110.991 8.89016C110.991 6.01016 108.651 3.66016 105.761 3.66016C102.881 3.66016 100.531 6.00016 100.531 8.89016C100.531 11.7702 102.881 14.1202 105.761 14.1202C108.641 14.1102 110.991 11.7702 110.991 8.89016Z" fill="#FFBC00"/>
<path d="M111.821 3.78999C112.861 3.69999 113.631 2.77999 113.541 1.74999C113.451 0.709988 112.531 -0.0600119 111.491 0.0399881C110.451 0.129988 109.691 1.04999 109.781 2.07999C109.871 3.10999 110.781 3.87999 111.821 3.78999Z" fill="#FFBC00"/>
</svg>
