<svg width="531" height="147" viewBox="0 0 531 147" fill="none" xmlns="http://www.w3.org/2000/svg">
<path d="M62 0L0 54.5L20 75.5L62 40L104.5 75.5L123.5 54.5L62 0Z" fill="url(#paint0_linear)"/>
<path d="M22.5 94L0 111.5C54.5568 158.69 80.0072 157.964 128 111.5L103.5 94C71.8675 126.301 54.1325 124.999 22.5 94Z" fill="url(#paint1_linear)"/>
<path d="M187.6 56.6C187.067 56.3333 185.733 55.9667 183.6 55.5C181.533 55.0333 179.467 54.8 177.4 54.8C171.6 54.8 167.133 56.6667 164 60.4C160.867 64.1333 159.3 69.4667 159.3 76.4C159.3 83.4 160.867 88.8 164 92.6C167.2 96.4 171.667 98.3 177.4 98.3C180.2 98.3 182.533 97.9333 184.4 97.2C186.333 96.4 187.4 95.9667 187.6 95.9L189.7 87.2L199.4 89.4L196.4 103.6C196.4 103.667 195.467 104.1 193.6 104.9C191.8 105.633 189.467 106.333 186.6 107C183.8 107.667 180.733 108 177.4 108C168.133 108 160.8 105.3 155.4 99.9C150 94.5 147.3 86.6 147.3 76.2C147.3 69.8 148.533 64.2667 151 59.6C153.533 54.8667 157.033 51.2667 161.5 48.8C166.033 46.3333 171.3 45.1 177.3 45.1C181.033 45.1 184.333 45.5 187.2 46.3C190.067 47.0333 192.367 47.8333 194.1 48.7C195.833 49.5667 196.7 50.0667 196.7 50.2L199.5 64.3L189.7 66.5L187.6 56.6ZM206.642 106V96.9H215.042V50.9L205.442 48L208.242 38.8L226.442 44.5V96.9H234.842V106H206.642ZM241.238 61.3H261.038V96.9H269.338V106H241.238V96.9H249.538V70.3H241.238V61.3ZM254.238 39.6C256.305 39.6 257.972 40.2333 259.238 41.5C260.505 42.7667 261.138 44.4333 261.138 46.5C261.138 48.5667 260.505 50.2333 259.238 51.5C257.972 52.7667 256.305 53.4 254.238 53.4C252.172 53.4 250.505 52.7667 249.238 51.5C248.038 50.2333 247.438 48.5667 247.438 46.5C247.438 44.4333 248.038 42.7667 249.238 41.5C250.505 40.2333 252.172 39.6 254.238 39.6ZM306.711 69.1C304.311 68.4333 302.044 68.1 299.911 68.1C295.778 68.1 292.611 69.4333 290.411 72.1C288.278 74.7667 287.211 78.7333 287.211 84C287.211 88.5333 288.378 92.1333 290.711 94.8C293.044 97.4 296.011 98.7 299.611 98.7C304.144 98.7 308.711 97.0667 313.311 93.8L317.911 100.6C314.644 103.133 311.644 104.967 308.911 106.1C306.178 107.3 302.978 107.9 299.311 107.9C291.978 107.9 286.178 105.833 281.911 101.7C277.711 97.5667 275.611 91.6667 275.611 84C275.611 76 277.711 69.9 281.911 65.7C286.178 61.4333 292.144 59.3 299.811 59.3C304.478 59.3 309.611 60.2667 315.211 62.2L317.711 75.1L308.111 77.2L306.711 69.1ZM325.718 38.8L343.618 44.9V79.3H350.918L356.218 70.3H351.118V61.3H375.218V70.3H367.618L359.018 83.5L368.018 96.9H376.318V106H362.318L351.218 88.3H343.618V96.9H347.018V106H323.818V96.9H332.218V51.2L322.718 48L325.718 38.8ZM461.338 84.7C461.338 92.2333 459.404 98 455.538 102C451.671 106 445.938 108 438.338 108C430.671 108 424.904 106 421.038 102C417.171 98 415.238 92.2333 415.238 84.7V57.2H406.738V47.1H432.638V57.2H426.838V86.7C426.838 90.7667 427.804 93.7333 429.738 95.6C431.671 97.4667 434.538 98.4 438.338 98.4C445.938 98.4 449.738 94.1667 449.738 85.7V57.2H444.038V47.1H469.938V57.2H461.338V84.7ZM473.932 119H482.332V72L472.832 68.8L475.832 59.6L489.932 64.4C492.132 62.8667 494.465 61.6667 496.932 60.8C499.465 59.8667 501.865 59.4 504.132 59.4C511.065 59.4 516.532 61.5333 520.532 65.8C524.532 70 526.532 75.8 526.532 83.2C526.532 88.1333 525.565 92.5 523.632 96.3C521.699 100.033 518.932 102.933 515.332 105C511.799 107 507.665 108 502.932 108C499.599 108 496.532 107.6 493.732 106.8V119H502.132V128H473.932V119ZM502.832 98.9C506.632 98.9 509.565 97.5333 511.632 94.8C513.765 92.0667 514.832 88.2333 514.832 83.3C514.832 78.5667 513.865 74.9667 511.932 72.5C509.999 69.9667 507.199 68.7 503.532 68.7C501.665 68.7 499.832 69.0333 498.032 69.7C496.299 70.3 494.799 71.1667 493.532 72.3V97.1C494.665 97.6333 496.065 98.0667 497.732 98.4C499.465 98.7333 501.165 98.9 502.832 98.9Z" fill="black"/>
<defs>
<linearGradient id="paint0_linear" x1="124" y1="54" x2="-5" y2="55.5" gradientUnits="userSpaceOnUse">
<stop stop-color="#FEC608"/>
<stop offset="1" stop-color="#FF0CE4"/>
</linearGradient>
<linearGradient id="paint1_linear" x1="128" y1="113.5" x2="-1.28156e-06" y2="112" gradientUnits="userSpaceOnUse">
<stop stop-color="#4BC7F9"/>
<stop offset="1" stop-color="#8735FD"/>
</linearGradient>
</defs>
</svg>
