<svg width="217" height="42" viewBox="0 0 217 42" fill="none" xmlns="http://www.w3.org/2000/svg">
<g clip-path="url(#clip0)">
<path fill-rule="evenodd" clip-rule="evenodd" d="M17.5534 27.7299C16.185 27.7299 15.3008 26.6394 15.3008 24.9539C15.3008 22.735 16.584 19.5253 18.9027 19.5253C20.9984 19.5253 21.1026 21.7958 21.1026 22.2508C21.1026 24.8374 19.5852 27.7299 17.5534 27.7299V27.7299ZM23.2947 18.3912C24.1834 19.3774 24.6709 20.748 24.6709 22.2508C24.6709 24.444 23.9267 26.505 22.5741 28.0482C21.1732 29.6474 19.2422 30.5249 17.1387 30.5249C13.9212 30.5249 11.7583 28.3194 11.7583 25.0324C11.7583 22.8347 12.4979 20.7693 13.8428 19.2227C15.238 17.6157 17.1634 16.7303 19.2669 16.7303C20.9278 16.7303 22.3208 17.3041 23.2947 18.3912V18.3912ZM11.3963 27.2513C11.6294 28.381 12.3937 29.3504 12.4004 29.3594C12.4419 29.412 12.4565 29.4826 12.4419 29.5476C12.4342 29.5797 12.4193 29.6096 12.3983 29.635C12.3773 29.6604 12.3508 29.6808 12.3209 29.6944C11.7616 29.9432 10.1916 30.526 7.6644 30.526C5.37259 30.526 3.44388 29.8121 2.08672 28.4583C0.721724 27.1 0 25.1613 0 22.8538C0 19.2093 1.52638 15.9705 4.18802 13.9644C6.04388 12.5412 8.27966 11.8206 10.8326 11.8206C12.6929 11.8206 14.1778 12.2632 14.7673 12.6745C14.848 12.7283 14.8816 12.8314 14.848 12.9267L13.9649 15.3933C13.9552 15.4225 13.9391 15.449 13.9177 15.4711C13.8964 15.4933 13.8704 15.5103 13.8416 15.5211C13.8127 15.532 13.7817 15.5367 13.7508 15.5348C13.7199 15.5328 13.6897 15.5243 13.6623 15.5099C13.158 15.2308 12.016 14.9058 10.4684 14.9058C8.85681 14.9058 7.28224 15.4796 6.14586 16.4793C4.59147 17.8633 3.6994 20.0543 3.6994 22.4862C3.6994 25.6521 5.42862 27.4688 8.4444 27.4688C9.38914 27.4688 10.3406 27.3343 11.1251 27.0877C11.1537 27.079 11.1837 27.0764 11.2134 27.0801C11.243 27.0838 11.2716 27.0937 11.2972 27.1091C11.3227 27.1245 11.3448 27.1452 11.3619 27.1697C11.3789 27.1942 11.3907 27.222 11.3963 27.2513V27.2513ZM33.5411 16.7303C35.6592 16.7303 36.9738 18.1614 36.9738 20.4644C36.9738 21.036 36.8763 21.9258 36.7351 22.633L35.3342 30.0598C35.3258 30.1093 35.3001 30.1542 35.2618 30.1866C35.2234 30.219 35.1749 30.2368 35.1247 30.2369H32.1134C32.0816 30.2371 32.0502 30.2302 32.0214 30.2166C31.9927 30.2031 31.9674 30.1831 31.9475 30.1584C31.9274 30.1341 31.9131 30.1055 31.9055 30.0749C31.8979 30.0442 31.8973 30.0122 31.9038 29.9813L33.252 22.7619C33.3215 22.336 33.4044 21.7757 33.4044 21.2792C33.4044 20.1719 32.9696 19.6564 32.0349 19.6564C30.7304 19.6564 29.0718 21.3386 28.5597 24.1526L27.4692 30.0598C27.4603 30.1093 27.4344 30.1541 27.3959 30.1864C27.3574 30.2188 27.3088 30.2366 27.2585 30.2369H24.2472C24.2157 30.2369 24.1845 30.2299 24.156 30.2163C24.1275 30.2027 24.1024 30.1829 24.0825 30.1584C24.0625 30.134 24.0481 30.1055 24.0404 30.0749C24.0326 30.0443 24.0317 30.0123 24.0377 29.9813L25.6728 21.1604C25.963 19.7461 26.1423 18.4663 26.288 17.4375L26.3205 17.2055C26.3277 17.1546 26.353 17.1079 26.3916 17.074C26.4303 17.0401 26.4798 17.0211 26.5312 17.0206H29.2063C29.2679 17.0206 29.3251 17.0463 29.3632 17.0912C29.3841 17.1135 29.3999 17.1401 29.4095 17.1691C29.4192 17.1981 29.4225 17.2289 29.4192 17.2593L29.2377 18.8641C30.3752 17.4823 31.8791 16.7303 33.5411 16.7303ZM112.589 18.3912C113.477 19.3774 113.966 20.748 113.966 22.2508C113.966 24.444 113.219 26.5061 111.866 28.0482C110.465 29.6474 108.538 30.5249 106.433 30.5249C103.212 30.5249 101.051 28.3194 101.051 25.0324C101.051 22.8347 101.791 20.7704 103.136 19.2227C104.53 17.6157 106.459 16.7303 108.56 16.7303C110.219 16.7303 111.613 17.3041 112.589 18.3912V18.3912ZM106.847 27.7299C108.879 27.7299 110.395 24.8385 110.395 22.2497C110.395 21.7958 110.29 19.5264 108.196 19.5264C105.876 19.5264 104.594 22.7361 104.594 24.9539C104.594 26.6394 105.479 27.7299 106.847 27.7299ZM100.575 27.2525C100.808 28.381 101.57 29.3504 101.579 29.3605C101.6 29.3869 101.614 29.4175 101.621 29.4501C101.628 29.4826 101.627 29.5163 101.62 29.5488C101.612 29.5808 101.597 29.6107 101.576 29.636C101.555 29.6613 101.528 29.6813 101.497 29.6944C100.942 29.9432 99.3704 30.526 96.8444 30.526C94.5515 30.526 92.6239 29.8121 91.2656 28.4583C89.9017 27.1 89.1811 25.1613 89.1811 22.8538C89.1811 19.2093 90.7075 15.9705 93.3691 13.9644C95.2239 12.5412 97.4585 11.8217 100.009 11.8217C101.872 11.8217 103.357 12.2644 103.946 12.6745C104.027 12.7306 104.062 12.8314 104.027 12.9267L103.144 15.3944C103.133 15.4234 103.117 15.4499 103.095 15.4719C103.074 15.4939 103.048 15.5109 103.019 15.5219C102.99 15.5329 102.96 15.5375 102.929 15.5354C102.898 15.5333 102.868 15.5246 102.841 15.5099C102.336 15.2319 101.196 14.9058 99.6472 14.9058C98.0368 14.9058 96.46 15.4807 95.3225 16.4804C93.7703 17.8644 92.8794 20.0554 92.8794 22.4862C92.8794 25.6521 94.6075 27.4688 97.6222 27.4688C98.568 27.4688 99.5195 27.3343 100.304 27.0877C100.333 27.0793 100.363 27.077 100.392 27.0808C100.422 27.0847 100.45 27.0947 100.475 27.1101C100.501 27.1254 100.524 27.146 100.541 27.1706C100.558 27.1951 100.57 27.223 100.576 27.2525H100.575ZM122.933 16.7303C125.051 16.7303 126.363 18.1614 126.363 20.4644C126.363 21.036 126.266 21.9258 126.128 22.633L124.723 30.062C124.714 30.1114 124.689 30.1562 124.65 30.1882C124.612 30.2203 124.563 30.2376 124.513 30.2369H121.503C121.471 30.2371 121.44 30.2302 121.412 30.2166C121.384 30.203 121.359 30.1831 121.339 30.1584C121.319 30.1343 121.304 30.1058 121.296 30.0751C121.289 30.0444 121.288 30.0123 121.294 29.9813L122.644 22.7619C122.713 22.336 122.796 21.7757 122.796 21.2792C122.796 20.1719 122.36 19.6564 121.424 19.6564C120.12 19.6564 118.464 21.3386 117.948 24.1526L116.859 30.062C116.85 30.1109 116.824 30.1552 116.786 30.1871C116.748 30.219 116.7 30.2366 116.65 30.2369H113.638C113.607 30.2369 113.576 30.2298 113.548 30.2162C113.52 30.2027 113.495 30.1829 113.475 30.1584C113.455 30.1342 113.44 30.1058 113.432 30.0751C113.424 30.0445 113.423 30.0124 113.429 29.9813L115.063 21.1604C115.307 19.926 115.512 18.6844 115.68 17.4375L115.711 17.2055C115.718 17.1544 115.743 17.1075 115.782 17.0735C115.821 17.0395 115.87 17.0207 115.922 17.0206H118.596C118.659 17.0206 118.716 17.0463 118.755 17.0912C118.776 17.1133 118.792 17.14 118.801 17.1691C118.81 17.1982 118.813 17.229 118.809 17.2593L118.632 18.8641C119.766 17.4823 121.272 16.7303 122.934 16.7303H122.933ZM65.5839 17.5675L64.2839 24.2333C63.932 26.097 63.7202 28.4561 63.7706 29.9858V30.0206C63.7709 30.0774 63.7487 30.1321 63.7088 30.1727C63.6689 30.2132 63.6145 30.2363 63.5577 30.2369H60.7526C60.7239 30.2369 60.6956 30.2312 60.6692 30.22C60.6428 30.2088 60.619 30.1925 60.5991 30.1719C60.559 30.1291 60.5373 30.0724 60.5385 30.0138C60.5576 29.4367 60.6237 28.7071 60.6966 27.9215C59.3215 30.0542 57.6259 30.526 56.3931 30.526C54.0284 30.526 52.4393 28.6892 52.4393 25.9525C52.4393 23.6326 53.2776 21.3431 54.7356 19.6721C55.9067 18.3295 58.0405 16.7292 61.5584 16.7292C62.8303 16.7292 64.3511 16.9612 65.4404 17.3198C65.4902 17.3365 65.5322 17.3707 65.5586 17.4161C65.5849 17.4614 65.5939 17.5148 65.5839 17.5663V17.5675ZM60.7526 19.5242C58.0383 19.5242 56.0098 22.6263 56.0098 25.4C56.0098 26.2293 56.2172 27.6245 57.6124 27.6245C58.8777 27.6245 60.5329 25.92 61.1146 22.7607L61.7466 19.606C61.4185 19.5482 61.0857 19.5209 60.7526 19.5242V19.5242ZM74.2715 16.7292C76.3896 16.7292 77.703 18.1603 77.703 20.4633C77.703 21.0349 77.6066 21.9269 77.4677 22.6319L76.0646 30.0587C76.0557 30.108 76.0299 30.1526 75.9917 30.1849C75.9534 30.2173 75.9051 30.2352 75.855 30.2357H72.8415C72.8102 30.2359 72.7793 30.2289 72.7511 30.2153C72.723 30.2018 72.6983 30.1819 72.679 30.1573C72.6583 30.1333 72.6434 30.1048 72.6354 30.0741C72.6274 30.0434 72.6266 30.0113 72.633 29.9802L73.9823 22.7607C74.0518 22.3349 74.1347 21.7768 74.1347 21.2781C74.1347 20.1708 73.6999 19.6553 72.7653 19.6553C71.4597 19.6553 69.8022 21.3375 69.2911 24.1515L68.1996 30.0587C68.1908 30.1084 68.1648 30.1535 68.126 30.1859C68.0873 30.2183 68.0383 30.236 67.9878 30.2357H64.9787C64.9471 30.2362 64.9158 30.2293 64.8872 30.2157C64.8586 30.2021 64.8336 30.1821 64.814 30.1573C64.7936 30.133 64.7789 30.1046 64.7708 30.074C64.7626 30.0434 64.7613 30.0114 64.7669 29.9802L66.4031 21.1593C66.6945 19.7382 66.8738 18.4528 67.0217 17.4218L67.0509 17.2044C67.0576 17.1533 67.0827 17.1063 67.1215 17.0723C67.1602 17.0383 67.21 17.0195 67.2616 17.0194H69.9355C69.9994 17.0194 70.0566 17.0452 70.0958 17.09C70.1159 17.1128 70.1309 17.1395 70.14 17.1685C70.1491 17.1975 70.152 17.228 70.1484 17.2582L69.9691 18.863C71.1055 17.4812 72.6106 16.7292 74.2726 16.7292H74.2715ZM156.611 17.2458C156.713 17.2907 156.762 17.4061 156.728 17.5125L155.95 19.903C155.94 19.9315 155.925 19.9576 155.905 19.9798C155.884 20.002 155.86 20.0197 155.832 20.0317C155.805 20.0438 155.775 20.0499 155.745 20.0497C155.715 20.0496 155.686 20.0431 155.658 20.0307C155.091 19.7754 154.474 19.6476 153.852 19.6564C151.032 19.6564 149.29 22.3371 149.29 24.8228C149.29 26.5588 150.249 27.5965 151.852 27.5965C153.002 27.5965 153.855 27.285 154.467 27.0126C154.499 26.9986 154.534 26.9924 154.568 26.9948C154.603 26.9971 154.637 27.0079 154.666 27.0261C154.695 27.0455 154.72 27.0714 154.737 27.1017C154.755 27.132 154.765 27.166 154.767 27.2009L154.87 29.5633C154.872 29.6053 154.862 29.6469 154.841 29.6832C154.819 29.7194 154.788 29.7486 154.75 29.7673C154.4 29.9466 153.09 30.5249 151.023 30.5249C147.784 30.5249 145.692 28.4314 145.692 25.1882C145.692 22.9356 146.518 20.8219 148.014 19.244C149.55 17.6224 151.662 16.7292 153.956 16.7292C155.062 16.7292 156.077 17.0071 156.611 17.2458V17.2458ZM45.9572 17.4139C46.0003 17.44 46.0329 17.4801 46.0497 17.5275C46.0664 17.5749 46.0662 17.6266 46.0491 17.6739L45.2703 19.8794C45.2607 19.9093 45.2443 19.9365 45.2226 19.959C45.2008 19.9816 45.1742 19.9988 45.1447 20.0094C45.1158 20.0209 45.0846 20.0256 45.0535 20.0233C45.0225 20.021 44.9924 20.0116 44.9654 19.996C44.2699 19.6295 43.4945 19.4408 42.7084 19.4469C41.702 19.4469 41.0015 19.9725 41.0015 20.7256C41.0015 21.287 41.4274 21.7263 42.5201 22.2934C43.6979 22.9434 45.2579 24.026 45.2579 25.9256C45.2579 27.3354 44.6931 28.5177 43.6262 29.3414C42.6254 30.1158 41.2571 30.5249 39.6691 30.5249H39.6668C38.4542 30.5025 37.2327 30.2234 36.3955 29.774C36.3551 29.7522 36.3226 29.7181 36.3028 29.6765C36.2831 29.635 36.2771 29.5883 36.2857 29.5432L36.7396 27.1337C36.7458 27.1002 36.7598 27.0687 36.7804 27.0416C36.8011 27.0146 36.8278 26.9928 36.8584 26.9779C36.889 26.9638 36.9224 26.9571 36.9561 26.9583C36.9898 26.9595 37.0227 26.9685 37.0522 26.9846C37.7347 27.3657 38.9014 27.8083 39.9548 27.8083C40.9724 27.7848 41.6885 27.2289 41.6885 26.4512C41.6885 25.8101 41.4487 25.3596 40.1431 24.6726C38.4116 23.7335 37.5353 22.5467 37.5353 21.1458C37.5309 20.5336 37.6651 19.9284 37.9279 19.3754C38.1907 18.8225 38.5752 18.3362 39.0527 17.953C40.0153 17.1651 41.368 16.7281 42.863 16.7281C44.2964 16.7281 45.4014 17.0833 45.9572 17.415V17.4139ZM51.6997 27.6985C51.7254 28.5177 51.9103 29.2462 52.2432 29.8648C52.2642 29.9055 52.2731 29.9514 52.269 29.997L52.26 30.0699C52.2553 30.11 52.2397 30.1481 52.2148 30.18C52.1899 30.2118 52.1567 30.2361 52.1188 30.2503C51.6548 30.4139 50.8345 30.5249 50.0735 30.5249C47.6954 30.5249 46.8493 29.0433 46.8493 27.6593C46.8493 26.8972 46.9356 26.1744 47.1396 25.2453L48.0944 20.247H46.2766C46.2421 20.247 46.208 20.2387 46.1773 20.2228C46.1466 20.207 46.1202 20.1839 46.1002 20.1557C46.0802 20.1275 46.0673 20.095 46.0625 20.0607C46.0577 20.0265 46.0612 19.9916 46.0727 19.959L46.8784 17.5966C46.8935 17.5546 46.9212 17.5182 46.9577 17.4925C46.9942 17.4668 47.0378 17.4531 47.0824 17.4532H48.6155L49.1109 14.833C49.118 14.7939 49.1358 14.7575 49.1623 14.7278C49.1888 14.6982 49.223 14.6764 49.261 14.6649L52.4034 13.7459C52.4389 13.7363 52.4762 13.7359 52.5119 13.7447C52.5476 13.7535 52.5804 13.7712 52.6073 13.7962C52.6342 13.8212 52.6543 13.8527 52.6657 13.8876C52.6771 13.9225 52.6794 13.9598 52.6724 13.9958L52.0134 17.4532H54.2716C54.3411 17.4532 54.4061 17.4868 54.4476 17.5428C54.4857 17.5988 54.498 17.6728 54.4734 17.7389L53.6687 20.1002C53.6543 20.1424 53.6272 20.1791 53.591 20.2052C53.5549 20.2313 53.5116 20.2455 53.467 20.2459H51.4878L50.5958 24.8094C50.459 25.5726 50.3918 26.143 50.3918 26.5554C50.3918 27.2043 50.6697 27.4945 51.2951 27.4945C51.3489 27.4945 51.4027 27.4912 51.4576 27.4912H51.48C51.5081 27.4903 51.536 27.4949 51.5623 27.5049C51.5885 27.5148 51.6125 27.5299 51.6329 27.5491C51.6534 27.5684 51.6698 27.5915 51.6812 27.6172C51.6927 27.6428 51.6989 27.6704 51.6997 27.6985V27.6985ZM165.125 17.5428C165.144 17.5712 165.157 17.6037 165.161 17.6377C165.166 17.6717 165.163 17.7064 165.152 17.7389L164.346 20.1002C164.332 20.1425 164.304 20.1793 164.268 20.2054C164.232 20.2315 164.189 20.2457 164.144 20.2459H162.169L161.277 24.8105C161.138 25.5703 161.074 26.143 161.074 26.5543C161.074 27.2043 161.351 27.4923 161.974 27.4923C162.03 27.4923 162.085 27.4923 162.142 27.4889H162.177C162.446 27.4838 162.713 27.4602 162.979 27.4183C163.046 27.4071 163.113 27.4262 163.16 27.4744C163.185 27.4975 163.204 27.5262 163.216 27.5582C163.227 27.5901 163.231 27.6244 163.227 27.6582L162.939 30.071C162.936 30.1112 162.92 30.1494 162.896 30.1812C162.871 30.213 162.837 30.237 162.799 30.2503C162.337 30.4139 161.515 30.5249 160.756 30.5249H160.754C158.375 30.5249 157.526 29.0433 157.526 27.6582C157.526 26.8983 157.613 26.1755 157.817 25.2464L158.77 20.247H156.953C156.918 20.2464 156.885 20.2378 156.854 20.2218C156.824 20.2059 156.798 20.183 156.778 20.1551C156.759 20.1267 156.746 20.0942 156.742 20.0602C156.737 20.0262 156.74 19.9916 156.751 19.959L157.557 17.5977C157.585 17.5103 157.669 17.452 157.758 17.452H159.294L159.787 14.8319C159.795 14.7927 159.813 14.7564 159.84 14.7269C159.867 14.6973 159.901 14.6755 159.939 14.6638L163.082 13.747C163.107 13.7391 163.134 13.7363 163.16 13.7388C163.187 13.7413 163.213 13.7491 163.236 13.7616C163.254 13.7694 163.27 13.7807 163.287 13.7941C163.314 13.8192 163.335 13.8509 163.347 13.8862C163.358 13.9215 163.361 13.9593 163.354 13.9958L162.698 17.4532H164.946C165.018 17.4532 165.083 17.4857 165.125 17.5428V17.5428ZM146.193 17.5663L144.896 24.2322C144.542 26.0959 144.331 28.455 144.38 29.9847C144.385 30.0152 144.383 30.0464 144.375 30.0763C144.367 30.1062 144.353 30.1339 144.333 30.1577C144.313 30.1814 144.288 30.2006 144.26 30.2139C144.233 30.2272 144.202 30.2342 144.171 30.2346H141.364C141.335 30.2351 141.307 30.2298 141.28 30.219C141.253 30.2082 141.229 30.1922 141.209 30.1719C141.169 30.1287 141.147 30.0716 141.149 30.0127C141.17 29.4367 141.234 28.706 141.306 27.9215C139.93 30.0542 138.235 30.5249 137.002 30.5249C134.64 30.5249 133.051 28.6869 133.051 25.9525C133.051 23.6315 133.888 21.3419 135.346 19.671C136.516 18.3284 138.653 16.7292 142.168 16.7292C143.439 16.7292 144.961 16.96 146.049 17.3187C146.1 17.335 146.142 17.3693 146.169 17.415C146.195 17.4607 146.204 17.5146 146.193 17.5663V17.5663ZM141.363 19.5253C138.649 19.5253 136.62 22.6251 136.62 25.4C136.62 26.2293 136.827 27.6234 138.222 27.6234C139.488 27.6234 141.144 25.92 141.722 22.7619L142.36 19.606C142.031 19.5487 141.697 19.5216 141.363 19.5253V19.5253ZM132.062 27.6985C132.091 28.5177 132.275 29.2462 132.608 29.8648C132.631 29.9047 132.64 29.9513 132.634 29.997L132.625 30.0699C132.62 30.1102 132.604 30.1484 132.579 30.1803C132.554 30.2122 132.52 30.2364 132.482 30.2503C132.021 30.4139 131.198 30.5249 130.438 30.5249C128.062 30.5249 127.213 29.0444 127.213 27.6593C127.213 26.8972 127.299 26.1744 127.504 25.2464L128.458 20.247H127.333C127.303 20.2468 127.274 20.2405 127.247 20.2285C127.22 20.2165 127.196 20.1991 127.176 20.1774C127.156 20.1556 127.141 20.13 127.131 20.102C127.121 20.0741 127.118 20.0445 127.12 20.015C127.193 19.0019 126.91 18.1256 126.698 17.7815C126.679 17.7484 126.669 17.711 126.668 17.6727C126.668 17.6344 126.677 17.5966 126.695 17.563C126.713 17.5298 126.74 17.502 126.772 17.4827C126.805 17.4634 126.842 17.4532 126.88 17.4532H128.981L129.474 14.833C129.482 14.7936 129.5 14.7571 129.527 14.7275C129.554 14.6978 129.588 14.6761 129.627 14.6649L132.769 13.7459C132.804 13.7359 132.841 13.735 132.877 13.7433C132.912 13.7515 132.945 13.7686 132.972 13.793C133.027 13.8457 133.051 13.9207 133.036 13.9947L132.378 17.4532H134.637C134.672 17.4534 134.705 17.4618 134.736 17.4776C134.766 17.4935 134.792 17.5163 134.812 17.5442C134.831 17.5722 134.844 17.6044 134.849 17.6383C134.854 17.6721 134.85 17.7066 134.839 17.7389L134.032 20.1013C134.018 20.1437 133.991 20.1806 133.955 20.2067C133.919 20.2329 133.875 20.247 133.831 20.247H131.854L130.957 24.8082C130.823 25.5725 130.755 26.1419 130.755 26.5554C130.755 27.2043 131.034 27.4945 131.66 27.4945C131.712 27.4945 131.766 27.4912 131.821 27.4912H131.845C131.873 27.4903 131.9 27.495 131.927 27.5049C131.953 27.5149 131.977 27.53 131.997 27.5493C132.017 27.5686 132.033 27.5917 132.044 27.6173C132.056 27.6429 132.062 27.6705 132.062 27.6985V27.6985ZM170.219 13.3313C170.219 14.3847 169.354 15.465 168.13 15.465C166.941 15.4897 166.045 14.4452 166.045 13.3313C166.046 11.7701 167.294 11.175 168.129 11.175C168.669 11.175 170.219 11.583 170.219 13.3313V13.3313ZM169.907 13.3503C169.913 12.3047 169.121 11.5157 168.143 11.5157C167.668 11.5233 167.215 11.7164 166.882 12.0537C166.548 12.3909 166.359 12.8455 166.356 13.32C166.356 14.5169 167.421 15.1008 168.093 15.1244C169.083 15.1244 169.902 14.2917 169.907 13.3503V13.3503ZM169.164 14.4688H168.556L168.111 13.4971H167.804V14.4688H167.271V12.1063H168.172C168.611 12.1063 169.157 12.2218 169.164 12.7619C169.17 13.0847 168.98 13.2965 168.647 13.4063L169.163 14.471L169.164 14.4688ZM168.593 12.7922C168.593 12.5176 168.34 12.4392 168.033 12.4392H167.809V13.1564H168.033C168.347 13.1564 168.579 13.0948 168.593 12.7922V12.7922ZM86.0185 17.5428C86.0379 17.5712 86.0504 17.6037 86.0551 17.6377C86.0597 17.6717 86.0564 17.7064 86.0454 17.7389L85.2397 20.1002C85.2257 20.1427 85.1987 20.1796 85.1624 20.2058C85.1262 20.232 85.0826 20.246 85.0379 20.2459H83.0599L82.8548 21.2882H82.8627L82.1723 24.8105C82.0356 25.5703 81.9684 26.143 81.9684 26.5543C81.9684 27.2032 82.2463 27.4923 82.8694 27.4923C82.9254 27.4923 82.9815 27.4923 83.0364 27.4889H83.0711C83.3591 27.4833 83.6371 27.4564 83.8735 27.4183C83.9419 27.4071 84.008 27.4262 84.0562 27.4744C84.0808 27.4977 84.0995 27.5265 84.1108 27.5584C84.1221 27.5904 84.1257 27.6246 84.1212 27.6582L83.8365 30.071C83.8322 30.1111 83.8166 30.1492 83.7917 30.1809C83.7667 30.2126 83.7333 30.2367 83.6953 30.2503C83.2325 30.4139 82.411 30.5249 81.6512 30.5249H81.649C79.2697 30.5249 78.4214 29.0433 78.4214 27.6582C78.4214 27.0776 78.4718 26.5195 78.5861 25.8763C78.622 25.6745 78.6623 25.4661 78.7105 25.2464L79.6665 20.247H78.5379C78.5085 20.2464 78.4794 20.24 78.4525 20.2281C78.4256 20.2161 78.4013 20.199 78.381 20.1775C78.3414 20.1326 78.3213 20.0737 78.325 20.0139C78.399 19.0031 78.1143 18.1244 77.9047 17.7815C77.8849 17.7488 77.8741 17.7114 77.8735 17.6732C77.8728 17.6349 77.8823 17.5972 77.901 17.5638C77.9197 17.5304 77.9469 17.5026 77.9798 17.4832C78.0128 17.4637 78.0503 17.4534 78.0885 17.4532H80.1887L80.6818 14.8307C80.6896 14.7918 80.7078 14.7558 80.7344 14.7264C80.7611 14.697 80.7952 14.6753 80.8331 14.6638L83.9744 13.747C84.0095 13.7363 84.0469 13.735 84.0827 13.7433C84.1185 13.7515 84.1515 13.7691 84.1784 13.7941C84.2344 13.8457 84.259 13.9207 84.2456 13.9958L83.5844 17.4532H85.8448C85.9143 17.4532 85.9782 17.4857 86.0196 17.5428H86.0185Z" fill="#2B5E8C"/>
<path fill-rule="evenodd" clip-rule="evenodd" d="M191.884 21.5112C194.606 20.8092 197.377 20.314 200.174 20.0296C200.712 17.9296 201.364 15.8607 202.128 13.8322L201.87 13.877C199.214 14.3835 196.596 15.0748 194.036 15.9458C193.224 17.7629 192.506 19.6204 191.885 21.5112H191.884ZM185.052 18.7263C185.892 17.002 186.812 15.3184 187.811 13.6809C186.276 14.5681 184.773 15.5112 183.307 16.5084C182.182 18.1513 181.139 19.8494 180.184 21.5963C181.76 20.5638 183.385 19.6064 185.052 18.7274" fill="#FCD98D"/>
<path fill-rule="evenodd" clip-rule="evenodd" d="M190.749 21.8193C191.331 19.9796 192.001 18.1694 192.759 16.3951C190.373 17.2675 188.045 18.2925 185.79 19.4636C185.028 21.0551 184.338 22.6803 183.723 24.3341C186.003 23.3317 188.35 22.4909 190.748 21.8182" fill="#809EBA"/>
<path fill-rule="evenodd" clip-rule="evenodd" d="M201.717 12.8897C202 12.837 202.278 12.7866 202.552 12.7395C203.397 10.6243 204.359 8.55759 205.432 6.54883C202.82 7.18298 200.251 7.98252 197.74 8.94262C196.594 10.8051 195.548 12.728 194.609 14.703C196.938 13.952 199.312 13.3464 201.717 12.8897V12.8897ZM175.855 28.6802C176.353 27.3477 176.912 26.0018 177.526 24.6749C176.483 25.4562 175.465 26.271 174.474 27.118C173.59 28.5615 172.769 30.0433 172.016 31.5593C173.248 30.5377 174.529 29.5769 175.855 28.6802" fill="#2B5E8C"/>
<path fill-rule="evenodd" clip-rule="evenodd" d="M182.468 24.9079C183.026 23.328 183.65 21.7726 184.34 20.2458C182.576 21.2287 180.864 22.3003 179.208 23.4566C178.503 24.863 177.856 26.298 177.27 27.7578C178.945 26.7062 180.682 25.7546 182.47 24.9079" fill="#F9B31B"/>
<path fill-rule="evenodd" clip-rule="evenodd" d="M201.223 19.9299C204.352 19.6631 207.499 19.6452 210.416 19.8783C211.11 17.4094 211.847 15.0761 212.66 12.8841C212.526 12.8818 212.391 12.8818 212.254 12.8818C209.322 12.8818 206.297 13.1351 203.265 13.6327C202.464 15.6909 201.782 17.7935 201.223 19.9299" fill="#809EBA"/>
<path fill-rule="evenodd" clip-rule="evenodd" d="M212.249 11.8822C212.522 11.8822 212.785 11.8844 213.038 11.8889C213.955 9.51682 215.043 7.21447 216.294 5C214.105 5.08517 210.746 5.37431 206.723 6.25181C205.594 8.29152 204.583 10.3944 203.696 12.5501C206.526 12.1109 209.385 11.8876 212.249 11.8822V11.8822ZM190.137 28.2834C191.273 28.0872 192.415 27.9265 193.562 27.8016C195.311 27.616 197.068 27.5076 198.828 27.4766C199.041 25.4066 199.413 23.2504 199.926 21.0595C197.09 21.3687 194.283 21.8966 191.529 22.6385C190.961 24.4931 190.496 26.3776 190.137 28.2834" fill="#F9B31B"/>
<path fill-rule="evenodd" clip-rule="evenodd" d="M174.171 34.0572C174.481 32.8278 174.854 31.5648 175.281 30.295C173.777 31.3779 172.337 32.5453 170.966 33.7916C170.463 34.929 170.004 36.0853 169.59 37.2579C171.039 36.084 172.57 35.0144 174.171 34.0572" fill="#FCD98D"/>
<path fill-rule="evenodd" clip-rule="evenodd" d="M189.098 28.4728C189.434 26.6124 189.87 24.7714 190.403 22.9579C187.959 23.6774 185.57 24.5748 183.257 25.6431C182.714 27.2184 182.248 28.8192 181.859 30.4396C184.22 29.6031 186.64 28.9456 189.099 28.4728" fill="#2B5E8C"/>
</g>
<defs>
<clipPath id="clip0">
<rect width="216.293" height="32.5" fill="white" transform="translate(0 5)"/>
</clipPath>
</defs>
</svg>
