<svg width="207" height="50" viewBox="0 0 207 50" fill="none" xmlns="http://www.w3.org/2000/svg">
<g clip-path="url(#clip0)">
<path d="M103.775 22.0366C103.901 19.6106 104.771 17.6281 106.13 16.0815V14.0206H104.323C100.672 14.0206 97.5804 15.42 95.7834 18.582H95.6782V14.3685H86.3125V40.0645H95.6801V29.6913C95.6801 25.2885 96.9687 21.9315 102.167 21.9315C102.733 21.9353 103.262 21.9678 103.775 22.0366Z" fill="#2A73CC"/>
<path d="M174.698 21.9429C175.476 19.6718 176.737 17.6491 178.378 16.026V14.0187H176.575C172.922 14.0187 169.834 15.4181 168.027 18.5782H167.926V14.3685H158.555V40.0646H167.926V29.6913C167.926 25.2885 169.219 21.9315 174.417 21.9315L174.698 21.9429Z" fill="#2A73CC"/>
<path d="M122.797 20.9794C121.352 20.2281 119.341 19.7272 117.741 19.7272C116.666 19.7272 114.81 20.1746 114.81 21.4803C114.81 23.2353 117.741 23.4838 119.037 23.74C123.403 24.5888 126.707 26.5943 126.707 31.3469C126.707 38.1069 120.373 40.921 114.242 40.921C110.482 40.921 106.782 39.8677 103.586 37.9635L106.983 31.5974C108.885 32.905 112.078 34.2031 114.395 34.2031C115.58 34.2031 117.33 33.6544 117.33 32.2512C117.33 30.2477 114.395 30.1425 111.457 29.3931C108.526 28.6418 105.595 27.2424 105.595 22.6331C105.595 16.3205 111.457 13.5197 117.234 13.5197C120.22 13.5197 123.208 13.969 125.931 15.1715L122.797 20.9794Z" fill="#2A73CC"/>
<path d="M206.471 40.0646H197.103V37.2065H197C195.352 39.7606 192.102 40.9115 189.018 40.9115C181.188 40.9115 175.684 34.5491 175.684 27.185C175.684 19.8285 181.09 13.514 188.913 13.514C191.949 13.514 195.145 14.6152 197.101 16.8672V14.3685H206.467L206.471 40.0646ZM185.363 27.2404C185.363 30.4943 187.58 32.9987 191.385 32.9987C195.193 32.9987 197.401 30.4981 197.401 27.2404C197.401 24.0841 195.193 21.4306 191.385 21.4306C187.58 21.4325 185.363 24.0841 185.363 27.2404Z" fill="#2A73CC"/>
<path d="M157.074 28.7469H137.35C137.35 32.45 139.363 34.4516 143.223 34.4516C145.231 34.4516 146.67 33.8035 147.702 32.0982H156.715C155.221 38.1605 149.299 40.9153 143.277 40.9153C134.53 40.9153 127.992 36.1034 127.992 27.2424C127.992 18.6777 134.009 13.5197 142.606 13.5197C151.769 13.5197 157.078 19.0313 157.078 27.793L157.074 28.7469ZM148.372 23.4838C147.907 21.0291 145.59 19.4271 143.07 19.4271C140.338 19.4271 138.082 20.8246 137.507 23.4838H148.372Z" fill="#2A73CC"/>
<path d="M56.5137 26.793C56.5041 26.5713 56.4888 26.3552 56.4716 26.1354C56.4716 26.1354 56.4716 26.1335 56.4716 26.1316C56.4716 26.1316 56.4716 26.1297 56.4716 26.1277C56.2613 23.7438 55.4737 21.5127 54.1374 19.4977C53.5409 18.5992 52.8584 17.7829 52.0956 17.0507C50.981 15.9782 49.6906 15.0911 48.2357 14.3895C46.0468 13.3438 43.6284 12.8161 41.0475 12.8161C40.7952 12.8161 40.5313 12.8199 40.2656 12.8295C38.4532 12.9117 36.7001 13.2558 35.0522 13.8619C33.3909 14.4622 31.9437 15.2555 30.7603 16.2076C30.5194 16.3988 30.2575 16.6339 29.9765 16.892L29.7738 17.0908L29.4966 17.3852H29.4985H29.5004L29.3704 17.5133L29.3074 17.5822L28.9766 17.9301C28.7319 18.2054 28.4987 18.4807 28.2807 18.7502L28.2788 18.7464L28.2712 18.7388C27.8181 19.2894 27.3994 19.8591 27.0916 20.3714C26.8832 20.7002 26.6787 21.0386 26.4837 21.377L23.7824 26.8389L23.7862 26.8427L23.6447 27.1199L23.3465 27.7241C22.7538 28.9227 22.1191 30.1176 21.4099 31.1041C19.8288 32.838 18.0413 33.6869 15.7434 33.6869C15.5828 33.6869 15.4184 33.6792 15.2501 33.6696C13.866 33.6142 12.6788 33.2873 11.6254 32.6641C11.5126 32.5971 11.4037 32.5283 11.2985 32.4576C10.4382 31.886 9.77868 31.1519 9.28544 30.2361C8.72912 29.198 8.4825 28.137 8.51691 27.0129C8.51882 26.9823 8.52074 26.9555 8.52074 26.9307C8.5953 25.1413 9.2778 23.7495 10.6524 22.547C10.9869 22.2583 11.3368 22.0136 11.7019 21.7957C11.7535 21.7651 11.8051 21.7364 11.8568 21.7097C12.8776 21.1533 14.04 20.8761 15.3725 20.8761L15.7874 20.8876C17.9037 20.9679 19.5363 21.6294 20.8382 22.9198L24.9218 15.5882C23.9449 14.9344 22.8418 14.3723 21.6259 13.9154C21.58 13.8982 21.5322 13.8791 21.4844 13.8638C21.3391 13.8122 21.1957 13.7586 21.0466 13.7108C19.7543 13.2788 18.3988 13.013 17.0032 12.8926C16.9688 12.8869 16.9306 12.883 16.8962 12.8792C16.6821 12.8658 16.4641 12.8391 16.25 12.8295C16.0168 12.8199 15.7816 12.8161 15.5522 12.8142H15.4203C12.8528 12.8238 10.4669 13.3495 8.28559 14.3914C5.84235 15.5691 3.86177 17.2839 2.39353 19.4939C0.92912 21.7039 0.130002 24.1567 0.0152962 26.7892C0.00573734 27.0148 2.03959e-06 27.2385 2.03959e-06 27.4583C-0.00190973 31.1404 1.34015 34.3789 4.00897 37.0974C6.79441 39.9498 10.4172 41.4869 14.7665 41.6685C15.0456 41.6799 15.3209 41.6876 15.5962 41.6876C18.0566 41.6876 20.3335 41.2498 22.3753 40.3742C22.8857 40.1563 23.3809 39.9001 23.8875 39.6152C24.1628 39.4566 24.4228 39.2883 24.6809 39.1086L24.8721 38.9805L25.1932 38.7607C25.5794 38.4835 25.9407 38.1833 26.2925 37.8641L26.4149 37.7474C26.6213 37.5505 26.8278 37.3517 27.0228 37.1472L27.755 36.3194L28.0341 35.9695L28.1641 35.7783L28.2941 35.591C29.3819 33.7633 32.9225 27.1123 32.9225 27.1123V27.0989L33.1328 26.6936L33.3087 26.3763C33.8306 25.4261 34.2072 24.7513 34.7062 24.042L34.7196 24.021C35.8838 22.3329 37.8854 21.1304 40.2446 20.9277C44.2019 20.5874 47.6699 23.1874 47.9891 26.7357C48.3065 30.2839 45.3547 33.4364 41.3974 33.7786C40.5734 33.8494 39.7724 33.7939 39.0172 33.6276L38.9981 33.6352C36.0941 33.0311 34.2454 30.9129 33.3335 29.9666L29.5253 36.9694C29.5253 36.9694 30.7087 38.1623 31.5193 38.7588C32.3318 39.3533 33.3813 39.9383 34.2187 40.3016C36.2509 41.1695 38.4609 41.6895 40.9022 41.6895C41.1851 41.6895 41.1278 41.6895 41.4222 41.678C45.7676 41.4964 49.6409 39.8313 52.434 36.9789C55.0799 34.2699 56.5156 31.1767 56.529 27.5157V27.4067C56.5271 27.2041 56.5213 26.9995 56.5137 26.793Z" fill="#2A73CC"/>
<path d="M71.0807 40.9325C69.1058 40.9325 67.3145 40.7031 65.7067 40.2443C64.0989 39.7854 62.7263 39.0609 61.5888 38.0668C60.4475 37.0726 59.5681 35.8071 58.9486 34.2719C58.3292 32.7368 58.0195 30.8862 58.0195 28.7297V14.3628H67.0564V28.615C67.0564 30.2304 67.4426 31.4004 68.2131 32.1307C68.9854 32.8629 69.9661 33.2281 71.1553 33.2281C72.3711 33.2281 73.3576 32.8878 74.1185 32.2053C74.8756 31.5228 75.2579 30.391 75.2579 28.8004V14.3628H84.2948V28.5404C84.2948 30.7734 83.9775 32.6718 83.3447 34.2337C82.7119 35.7975 81.8191 37.0746 80.6701 38.0687C79.5154 39.0628 78.1256 39.7854 76.491 40.2462C74.8564 40.7031 73.0536 40.9325 71.0807 40.9325Z" fill="#2A73CC"/>
</g>
<defs>
<clipPath id="clip0">
<rect width="206.471" height="32.5" fill="white" transform="translate(0 11)"/>
</clipPath>
</defs>
</svg>
