<svg width="54" height="40" viewBox="0 0 54 40" fill="none" xmlns="http://www.w3.org/2000/svg">
<path d="M0 0V12.7918H12.8407V0H0ZM6.62675 9.11597C6.28156 9.11597 5.95582 9.05365 5.64948 8.92902C5.34313 8.80438 5.07565 8.63031 4.84697 8.4068C4.61828 8.18329 4.43923 7.91895 4.3098 7.61377C4.18037 7.30859 4.11564 6.9798 4.11564 6.62732V6.61444C4.11564 6.26196 4.18037 5.93317 4.3098 5.62799C4.43923 5.32281 4.61828 5.05847 4.84697 4.83496C5.07565 4.61145 5.34748 4.43311 5.66245 4.29987C5.97741 4.16663 6.31606 4.09998 6.67852 4.09998C6.92881 4.09998 7.15743 4.12579 7.36457 4.17737C7.57165 4.22894 7.75934 4.29767 7.92762 4.38367C8.09591 4.4696 8.24908 4.57495 8.38714 4.69958C8.52519 4.82422 8.64598 4.95959 8.74953 5.10577L7.73994 5.89233C7.67091 5.80634 7.59754 5.72687 7.51989 5.65375C7.44223 5.58069 7.36022 5.52051 7.27394 5.47327C7.18766 5.42596 7.09489 5.38947 6.99563 5.36365C6.89644 5.33783 6.78641 5.32495 6.66561 5.32495C6.50161 5.32495 6.34629 5.35718 6.19961 5.42169C6.05293 5.48615 5.92993 5.57642 5.83073 5.69244C5.73147 5.80853 5.65161 5.94391 5.59122 6.09863C5.53082 6.25336 5.50065 6.42102 5.50065 6.6015V6.61444C5.50065 6.79492 5.53082 6.96259 5.59122 7.11731C5.65161 7.27203 5.73147 7.40747 5.83073 7.5235C5.92993 7.63953 6.05293 7.7298 6.19961 7.79425C6.34629 7.85876 6.50161 7.89099 6.66561 7.89099C6.79503 7.89099 6.91149 7.87811 7.01509 7.85229C7.11863 7.82654 7.21354 7.78784 7.29983 7.73627C7.38611 7.68469 7.46811 7.62238 7.54577 7.54926C7.62343 7.4762 7.6968 7.39667 7.76583 7.31073L8.78838 8.01996C8.67622 8.18329 8.55107 8.33154 8.41302 8.46478C8.27497 8.59802 8.11745 8.71198 7.94053 8.80652C7.76368 8.90106 7.56737 8.97626 7.3516 9.03217C7.13589 9.08801 6.89423 9.11597 6.62675 9.11597ZM13.8285 12.7918V0H26.6692V12.7918H13.8285ZM19.8987 7.64233L20.8824 9.09943H21.1283H21.6655H22.2026H22.4486L21.2836 7.41028C21.439 7.3501 21.5771 7.27271 21.6979 7.17816C21.8186 7.08362 21.9244 6.97614 22.0149 6.85577C22.1056 6.73541 22.1746 6.5979 22.2221 6.44318C22.2695 6.28845 22.2932 6.11652 22.2932 5.92737V5.91449C22.2932 5.79413 22.2846 5.68237 22.2674 5.57922C22.2501 5.47607 22.2221 5.3772 22.1833 5.28265C22.1444 5.18811 22.0991 5.09998 22.0473 5.01831C21.9956 4.93665 21.9308 4.86145 21.8532 4.79266C21.7755 4.70667 21.6828 4.63147 21.5749 4.56702C21.467 4.5025 21.3484 4.44879 21.2189 4.40582C21.0895 4.36285 20.9449 4.32843 20.7853 4.30267C20.6257 4.27686 20.4509 4.26398 20.2611 4.26398H17.9441V9.09943H19.3033V7.64233H19.8987ZM20.1542 5.41187H19.261V6.57239H20.1542C20.2664 6.57239 20.3678 6.55951 20.4585 6.53369C20.549 6.50793 20.6266 6.46924 20.6914 6.41766C20.7561 6.36609 20.8036 6.30591 20.8337 6.23712C20.8639 6.16833 20.8791 6.091 20.8791 6.005V5.99213C20.8791 5.89758 20.8639 5.81372 20.8337 5.74066C20.8036 5.6676 20.7561 5.60742 20.6914 5.56018C20.6266 5.51288 20.549 5.47632 20.4585 5.45056C20.3678 5.42474 20.2664 5.41187 20.1542 5.41187ZM27.4924 12.7792V0.0126343L40.3331 0V12.7918L27.4924 12.7792ZM31.9373 9.05151L35.9887 9.03864V7.89099L33.3092 7.87811V7.10443L35.704 7.09155V6.0213L33.3092 6.00836V5.27338L35.9498 5.2605V4.11285L31.9373 4.09998V9.05151ZM41.1562 12.7918V0L53.9969 0.0131836V12.7786L41.1562 12.7918ZM48.541 8.18396L48.8905 9.04785L50.3143 9.03497L48.2692 4.27686L46.9877 4.26398L44.9426 9.04785L46.3405 9.03497L46.69 8.19684L48.541 8.18396ZM47.0827 7.08099L48.157 7.09387L47.6263 5.73993L47.0827 7.08099ZM0 26.3959V13.6041H12.8407V26.3959H0ZM7.0761 19.0285H8.51288V17.868H4.28024V19.0285H5.72995V22.6261H7.0761V19.0285ZM13.832 13.6041V26.3959H26.6727V13.6041H13.832ZM20.9531 22.6777H19.5939V17.868H20.9531V22.6777ZM27.4909 26.3959V13.6041H40.3316V26.3959H27.4909ZM33.2706 22.604H34.5391L36.5455 17.704H35.0439L33.9178 20.7858L32.8046 17.704H31.2772L33.2706 22.604ZM41.1593 13.6168V26.3833L54 26.3959V13.6041L41.1593 13.6168ZM49.6556 22.6427L45.6041 22.6556V17.704L49.6167 17.7169V18.8646L46.9762 18.8774V19.6124L49.3708 19.6254V20.6956L46.9762 20.7085V21.4822L49.6556 21.4951V22.6427ZM0 39.987V27.2212L12.8407 27.2082V40L0 39.987ZM4.60947 36.269L8.29847 36.2561V35.1085L5.95563 35.0956V31.4851L4.60947 31.4722V36.269ZM13.832 27.2082V40H26.6727V27.2082H13.832ZM20.953 36.2819H19.5938V31.4722H20.953V36.2819ZM27.4909 40V27.2082H40.3316V40H27.4909ZM33.2705 36.2081H34.539L36.5454 31.3082H35.0438L33.9177 34.39L32.8045 31.3082H31.2771L33.2705 36.2081ZM41.1593 27.2208V39.9874L54 40V27.2082L41.1593 27.2208ZM49.6556 36.2468L45.6041 36.2597V31.3082L49.6167 31.321V32.4687L46.9762 32.4816V33.2166L49.3708 33.2295V34.2997L46.9762 34.3126V35.0863L49.6556 35.0992V36.2468Z" fill="#6C6C6C"/>
</svg>
