<svg width="96" height="18" viewBox="0 0 96 18" fill="none" xmlns="http://www.w3.org/2000/svg">
<g clip-path="url(#clip0)">
<path d="M94.1016 14V3.19995H96.0016V14H94.1016Z" fill="#F47521"/>
<path d="M90 14V3.19995H91.9V14H90Z" fill="#F47521"/>
<path d="M88.4 10.1C88.4 12.7 87.1 14.1 84.7 14.1C82.3 14.1 81 12.7 81 10.1C81 7.49998 82.3 6.09998 84.7 6.09998C87.1 6.09998 88.4 7.49998 88.4 10.1ZM86.6 10.1C86.6 7.99998 85.9 7.59998 84.8 7.59998C83.7 7.59998 83 7.99998 83 10.1C83 12.2 83.7 12.6 84.8 12.6C85.8 12.6 86.6 12.2 86.6 10.1V10.1Z" fill="#F47521"/>
<path d="M80.2016 6.10002V7.70002C79.2016 7.70002 78.0016 7.70002 78.0016 8.20002V14H76.1016V7.10002C76.2016 5.90002 80.2016 6.10002 80.2016 6.10002Z" fill="#F47521"/>
<path d="M68.7984 17.1C70.1984 13.6 70.0984 13.9 70.1984 13.6L67.3984 6.19995H69.3984L71.1984 11.6L72.8984 6.19995H74.8984L71.8984 14.2L70.7984 17.1H68.7984Z" fill="#F47521"/>
<path d="M66.3008 9.29995V14H64.4008V9.19995C64.4008 8.49995 64.2008 7.79995 62.5008 7.79995C62.0606 7.80985 61.6236 7.87709 61.2008 7.99995V14H59.3008V3.19995H61.2008V6.29995C61.7063 6.08579 62.2521 5.98345 62.8008 5.99995C65.1008 6.09995 66.3008 7.29995 66.3008 9.29995Z" fill="#F47521"/>
<path d="M55.8008 12.5C56.4844 12.4733 57.1595 12.3383 57.8008 12.1V13.7C57.0711 13.9947 56.2871 14.131 55.5008 14.1C53.1008 14.1 51.8008 12.7 51.8008 10.1C51.8008 7.5 53.1008 6 55.5008 6C56.2822 6.02716 57.0561 6.16175 57.8008 6.4V8C57.1623 7.7519 56.4856 7.61656 55.8008 7.6C54.5008 7.6 53.7008 8 53.7008 10C53.7008 12.1 54.5008 12.5 55.8008 12.5Z" fill="#F47521"/>
<path d="M50.5984 9.1V14H48.7984V9.1C48.7984 8.4 48.7984 7.7 47.1984 7.7C46.6984 7.7 45.6984 7.8 45.6984 8.1V14H43.8984V7.5C43.8984 6.2 45.4984 6 47.4984 6C49.4984 6.1 50.5984 6.9 50.5984 9.1Z" fill="#F47521"/>
<path d="M42.0992 6.19995V10.5C42.0992 12.8 41.2992 14.2 38.5992 14.2C35.8992 14.2 35.1992 12.8 35.1992 10.5V6.19995H36.9992V10.7C36.9992 12 37.4992 12.4 38.5992 12.4C39.6992 12.4 40.1992 12 40.1992 10.7V6.19995H42.0992Z" fill="#F47521"/>
<path d="M33.7016 6.10002V7.70002C32.7016 7.70002 31.5016 7.70002 31.5016 8.20002V14H29.6016V7.10002C29.7016 5.90002 33.7016 6.10002 33.7016 6.10002Z" fill="#F47521"/>
<path d="M25.9008 12.5C26.5533 12.4841 27.1973 12.3485 27.8008 12.1V13.7C27.0711 13.9947 26.2871 14.131 25.5008 14.1C23.1008 14.1 21.8008 12.7 21.8008 10.1C21.8008 7.5 23.1008 6 25.5008 6C26.2822 6.02716 27.0561 6.16175 27.8008 6.4V8C27.1942 7.76171 26.552 7.62651 25.9008 7.6C24.6008 7.6 23.8008 8 23.8008 10C23.7008 12.1 24.6008 12.5 25.9008 12.5Z" fill="#F47521"/>
<path d="M2.2 10.1C2.20403 8.0563 2.99872 6.09342 4.41761 4.62253C5.8365 3.15164 7.76951 2.28685 9.81175 2.2093C11.854 2.13174 13.847 2.84745 15.3734 4.20649C16.8997 5.56554 17.841 7.46249 18 9.5V9C18 7.21997 17.4722 5.47991 16.4832 3.99987C15.4943 2.51983 14.0887 1.36628 12.4442 0.685088C10.7996 0.00389957 8.99002 -0.17433 7.24419 0.172937C5.49836 0.520203 3.89472 1.37737 2.63604 2.63604C1.37737 3.89472 0.520203 5.49836 0.172937 7.24419C-0.17433 8.99002 0.00389957 10.7996 0.685088 12.4442C1.36628 14.0887 2.51983 15.4943 3.99987 16.4832C5.47991 17.4722 7.21997 18 9 18H9.6C7.59798 17.8581 5.72337 16.9655 4.35129 15.5007C2.97921 14.0359 2.21086 12.107 2.2 10.1V10.1Z" fill="#F47521"/>
<path d="M14.3992 10.5001C13.7193 10.5031 13.0602 10.2661 12.5379 9.83082C12.0156 9.39554 11.6637 8.78989 11.5442 8.12059C11.4247 7.45129 11.5452 6.76128 11.8846 6.17213C12.2239 5.58298 12.7603 5.1325 13.3992 4.90005C12.5082 4.4229 11.5098 4.18191 10.4992 4.20005C9.2532 4.20005 8.03516 4.56954 6.99913 5.26179C5.9631 5.95405 5.15561 6.93797 4.67878 8.08914C4.20195 9.24032 4.07719 10.507 4.32027 11.7291C4.56336 12.9512 5.16338 14.0738 6.04445 14.9548C6.92552 15.8359 8.04807 16.4359 9.27015 16.679C10.4922 16.9221 11.759 16.7973 12.9101 16.3205C14.0613 15.8437 15.0452 15.0362 15.7375 14.0001C16.4297 12.9641 16.7992 11.7461 16.7992 10.5001C16.8157 10.0975 16.7821 9.69437 16.6992 9.30005C16.4574 9.68675 16.1168 10.0019 15.7124 10.2128C15.3081 10.4238 14.8547 10.5229 14.3992 10.5001V10.5001Z" fill="#F47521"/>
</g>
<defs>
<clipPath id="clip0">
<rect width="96" height="18" fill="white"/>
</clipPath>
</defs>
</svg>
