<svg width="924" height="217" viewBox="0 0 924 217" fill="none" xmlns="http://www.w3.org/2000/svg">
<path fill-rule="evenodd" clip-rule="evenodd" d="M0 108.023C0 48.3615 48.3976 0 108.097 0C167.797 0 216.191 48.3615 216.192 108.023C216.192 167.684 167.797 216.049 108.097 216.049C48.397 216.049 0 167.684 0 108.023ZM97.5908 168.914C97.5908 174.616 102.214 179.236 107.926 179.236C113.639 179.236 118.269 174.616 118.269 168.914C118.269 163.199 113.639 158.579 107.926 158.579C102.214 158.579 97.5908 163.199 97.5908 168.914ZM117.464 133.169C128.479 129.717 136.384 119.957 136.384 108.664V47.8178H117.464V108.664C117.464 113.444 113.299 117.281 108.099 117.281C102.897 117.281 98.5271 113.444 98.5271 108.664V47.8178H79.8086V108.664C79.8086 119.957 87.508 129.717 98.5265 133.169V152.34H117.464V133.169Z" fill="#FBA60B"/>
<path fill-rule="evenodd" clip-rule="evenodd" d="M656.808 131.734C656.808 144 646.673 153.976 634.225 153.976C621.77 153.976 611.647 144 611.647 131.734H626.751C626.751 135.821 630.077 139.262 634.225 139.262C638.374 139.262 641.862 135.821 641.862 131.734C641.862 130.098 641.2 128.303 640.205 127.156L616.963 99.9919C613.644 96.2312 611.646 90.9976 611.646 85.4382C611.646 73.1717 621.77 63.1964 634.225 63.1964C646.673 63.1964 656.808 73.1717 656.808 85.4382H641.862C641.862 81.3515 638.374 78.0761 634.225 78.0761C630.077 78.0761 626.751 81.3515 626.751 85.4382C626.751 87.2369 627.251 88.873 628.253 90.0166L651.494 117.18C654.98 121.104 656.808 126.175 656.808 131.734V131.734ZM756.727 99.7703C752.579 99.7703 749.259 102.744 749.259 106.463V113.302H764.198V106.463C764.198 102.744 760.879 99.7703 756.727 99.7703ZM749.259 126.833V133.522C749.259 137.242 752.579 140.361 756.727 140.361C760.879 140.361 764.364 137.242 764.364 133.522H779.476C779.476 144.673 769.341 153.893 756.727 153.893C744.275 153.893 734.152 144.672 734.152 133.522V106.463C734.152 95.3092 744.275 86.2423 756.727 86.2423C769.341 86.2423 779.476 95.3097 779.476 106.463V126.833H749.259ZM800.549 133.522C800.549 137.242 804.042 140.212 808.183 140.212C812.341 140.212 815.66 137.242 815.66 133.522V126.684H808.183C804.042 126.684 800.549 129.804 800.549 133.522ZM808.183 153.744C795.739 153.744 785.445 144.673 785.445 133.522C785.445 122.372 795.739 113.302 808.183 113.302H815.66V106.463C815.66 102.744 812.341 99.7703 808.183 99.7703C804.042 99.7703 800.549 102.744 800.549 106.463H785.444C785.444 95.3092 795.739 86.2423 808.183 86.2423C820.638 86.2423 830.773 95.3097 830.773 106.463V133.522C830.773 144.673 820.637 153.744 808.183 153.744ZM888.017 85.0326C900.472 85.0326 910.599 94.1 910.599 105.253V152.534H895.485V105.253C895.485 101.535 892.165 98.4148 888.017 98.4148C883.869 98.4148 880.384 101.535 880.384 105.253V152.534H865.279V105.253C865.279 101.535 861.956 98.4148 857.808 98.4148C853.656 98.4148 850.168 101.535 850.168 105.253V152.534H835.229V105.253C835.229 94.1 845.354 85.0331 857.808 85.0331C863.617 85.0331 868.924 86.9634 872.913 90.0898C876.898 86.9634 882.208 85.0326 888.018 85.0326H888.017ZM714.42 90.8835V86.6512H698.885V153.519H714.42L714.344 110.297C714.316 100.904 730.218 100.197 730.218 100.197V86.5474C730.218 86.5474 718.967 87.5939 714.42 90.8835V90.8835ZM590.015 86.447H604.977V134.556C604.977 143.484 598.724 151.206 590.015 153.931V169.088H575.049V153.931C566.329 151.207 560.242 143.484 560.242 134.556V86.447H575.049V134.556C575.049 138.333 578.499 141.37 582.61 141.37C586.723 141.37 590.015 138.333 590.015 134.556V86.447V86.447ZM590.653 182.19C590.653 186.702 586.99 190.355 582.474 190.355C577.962 190.355 574.299 186.702 574.299 182.19C574.299 177.68 577.962 174.027 582.474 174.027C586.99 174.027 590.653 177.68 590.653 182.19ZM262.566 153.737C250.229 153.737 240.195 143.716 240.195 131.391V86.5196C240.195 74.1975 250.229 64.0011 262.566 64.0011C274.899 64.0011 284.927 74.1975 284.927 86.5196H269.967C269.967 82.4089 266.679 78.9599 262.566 78.9599C258.452 78.9599 255.002 82.4089 255.002 86.5196V131.391C255.002 135.502 258.452 138.777 262.566 138.777C266.679 138.777 269.967 135.502 269.967 131.391H284.927C284.927 143.716 274.899 153.737 262.566 153.737ZM314.043 154.031C301.547 154.031 291.509 144.981 291.509 133.686V86.4677H306.482V133.686C306.482 137.401 309.767 140.527 314.043 140.527C318.153 140.527 321.444 137.401 321.444 133.686V86.4677H336.407V133.686C336.407 144.981 326.38 154.031 314.043 154.031V154.031ZM393.149 86.5229H378.346V153.487H393.149V86.5229ZM357.703 90.6756V86.5229H342.906V153.487H357.703L357.626 109.728C357.605 100.512 372.748 99.8151 372.748 99.8151V86.4224C372.748 86.4224 362.031 87.4487 357.703 90.675V90.6756ZM422.751 99.9057C418.641 99.9057 415.349 102.89 415.349 106.602V133.654C415.349 137.377 418.641 140.507 422.751 140.507C426.864 140.507 430.145 137.377 430.145 133.654V106.602C430.145 102.89 426.865 99.9057 422.751 99.9057ZM422.751 154.031C410.418 154.031 400.391 144.968 400.391 133.654V106.602C400.391 95.4517 410.418 86.3809 422.751 86.3809C435.084 86.3809 445.122 95.4517 445.122 106.602V133.654C445.122 144.968 435.084 154.031 422.751 154.031ZM474.221 113.589C486.561 113.589 496.592 122.66 496.592 133.814C496.592 145.11 486.561 154.187 474.221 154.187C461.725 154.187 451.694 145.11 451.694 133.814H466.667C466.667 137.685 469.952 140.649 474.221 140.649C478.341 140.649 481.619 137.685 481.619 133.814C481.619 130.098 478.341 127.124 474.061 127.124C461.724 127.124 451.694 118.047 451.694 106.9C451.694 95.5969 461.724 86.5267 474.221 86.5267C486.561 86.5267 496.592 95.5969 496.592 106.9H481.619C481.619 103.032 478.341 100.061 474.221 100.061C469.952 100.061 466.667 103.032 466.667 106.9C466.667 110.612 469.952 113.589 474.221 113.589V113.589ZM517.155 86.4574H502.349V153.487H517.155V86.4574ZM546.594 138.49H553.996V153.48H546.595C534.254 153.48 524.231 143.429 524.231 131.062V63.6785H539.033V86.4574L553.996 86.4781V101.077H539.033V131.062C539.033 135.193 542.488 138.49 546.594 138.49V138.49ZM685.043 138.49H692.445V153.48H685.043C672.703 153.48 662.679 143.429 662.679 131.062V63.6785H677.483V86.4574L692.445 86.4781V101.077H677.483V131.062C677.483 135.193 680.937 138.49 685.043 138.49V138.49ZM917.442 90.835H917.97C918.58 90.835 919.079 90.6166 919.079 90.0827C919.079 89.611 918.757 89.2961 918.057 89.2961C917.765 89.2961 917.56 89.3304 917.442 89.3616V90.835ZM917.415 93.7501H916.305V88.6093C916.742 88.5127 917.356 88.4499 918.147 88.4499C919.048 88.4499 919.455 88.6093 919.808 88.8277C920.069 89.046 920.277 89.4555 920.277 89.9577C920.277 90.5227 919.867 90.9594 919.285 91.1499V91.2127C919.749 91.4 920.013 91.7739 920.158 92.4639C920.308 93.2473 920.391 93.5623 920.509 93.7495H919.309C919.167 93.5623 919.08 93.0912 918.93 92.495C918.847 91.9333 918.556 91.6806 917.939 91.6806H917.415V93.7501ZM914.463 91.0533C914.463 93.3406 916.041 95.1601 918.202 95.1601C920.307 95.1601 921.851 93.3406 921.851 91.0877C921.851 88.7966 920.307 86.9459 918.171 86.9459C916.042 86.9459 914.463 88.7966 914.463 91.0533V91.0533ZM923.076 91.0533C923.076 93.9717 920.945 96.259 918.171 96.259C915.427 96.259 913.239 93.9717 913.239 91.0533C913.239 88.2004 915.428 85.9131 918.171 85.9131C920.945 85.9131 923.075 88.2004 923.075 91.0533H923.076Z" fill="#221D1E"/>
</svg>
