<svg width="170" height="40" viewBox="0 0 170 40" fill="none" xmlns="http://www.w3.org/2000/svg">
<mask id="mask0" mask-type="alpha" maskUnits="userSpaceOnUse" x="0" y="0" width="40" height="40">
<path d="M0.0390625 0.423462H39.6035V40H0.0390625V0.423462Z" fill="white"/>
</mask>
<g mask="url(#mask0)">
<path fill-rule="evenodd" clip-rule="evenodd" d="M19.8016 0.423462C8.86551 0.423462 0 9.28251 0 20.2114C0 31.1403 8.86551 40 19.8016 40C30.7377 40 39.6025 31.1403 39.6025 20.2114C39.6025 9.28251 30.7377 0.423462 19.8016 0.423462Z" fill="#FBA60B"/>
</g>
<path fill-rule="evenodd" clip-rule="evenodd" d="M19.7722 33.2565C18.7258 33.2565 17.8789 32.4102 17.8789 31.3657C17.8789 30.3188 18.7258 29.4724 19.7722 29.4724C20.8186 29.4724 21.6668 30.3188 21.6668 31.3657C21.6668 32.4102 20.8186 33.2565 19.7722 33.2565Z" fill="#FFFFFE"/>
<path fill-rule="evenodd" clip-rule="evenodd" d="M24.9847 20.3289C24.9847 22.3975 23.5368 24.1854 21.519 24.8178V28.3295H18.05V24.8178C16.0315 24.1854 14.6211 22.3975 14.6211 20.3289V9.18286H18.05V20.3289C18.05 21.2044 18.8505 21.9073 19.8035 21.9073C20.7559 21.9073 21.519 21.2044 21.519 20.3289V9.18286H24.9847V20.3289Z" fill="#FFFFFE"/>
<path fill-rule="evenodd" clip-rule="evenodd" d="M120.316 24.5549C120.316 26.8019 118.459 28.6292 116.179 28.6292C113.898 28.6292 112.043 26.8019 112.043 24.5549H114.81C114.81 25.3035 115.419 25.934 116.179 25.934C116.939 25.934 117.578 25.3035 117.578 24.5549C117.578 24.2552 117.457 23.9263 117.274 23.7162L113.017 18.7403C112.409 18.0514 112.043 17.0927 112.043 16.0743C112.043 13.8273 113.898 12 116.179 12C118.459 12 120.316 13.8273 120.316 16.0743H117.578C117.578 15.3257 116.939 14.7257 116.179 14.7257C115.419 14.7257 114.81 15.3257 114.81 16.0743C114.81 16.4038 114.901 16.7035 115.085 16.913L119.342 21.8889C119.981 22.6076 120.316 23.5365 120.316 24.5549Z" fill="#656565"/>
<path fill-rule="evenodd" clip-rule="evenodd" d="M138.62 18.6997C137.86 18.6997 137.252 19.2444 137.252 19.9257V21.1784H139.988V19.9257C139.988 19.2444 139.38 18.6997 138.62 18.6997ZM137.252 23.6571V24.8825C137.252 25.5638 137.86 26.1352 138.62 26.1352C139.38 26.1352 140.019 25.5638 140.019 24.8825H142.787C142.787 26.925 140.931 28.6139 138.62 28.6139C136.339 28.6139 134.484 26.925 134.484 24.8825V19.9257C134.484 17.8825 136.339 16.2216 138.62 16.2216C140.931 16.2216 142.787 17.8825 142.787 19.9257V23.6571H137.252Z" fill="#656565"/>
<path fill-rule="evenodd" clip-rule="evenodd" d="M146.646 24.8825C146.646 25.5638 147.286 26.1079 148.044 26.1079C148.806 26.1079 149.414 25.5638 149.414 24.8825V23.6298H148.044C147.286 23.6298 146.646 24.2012 146.646 24.8825ZM148.044 28.5866C145.765 28.5866 143.879 26.925 143.879 24.8825C143.879 22.84 145.765 21.1784 148.044 21.1784H149.414V19.9257C149.414 19.2444 148.806 18.6997 148.044 18.6997C147.286 18.6997 146.646 19.2444 146.646 19.9257H143.879C143.879 17.8825 145.765 16.2216 148.044 16.2216C150.326 16.2216 152.182 17.8825 152.182 19.9257V24.8825C152.182 26.925 150.326 28.5866 148.044 28.5866Z" fill="#656565"/>
<path fill-rule="evenodd" clip-rule="evenodd" d="M162.67 16C164.951 16 166.807 17.661 166.807 19.7041V28.3651H164.038V19.7041C164.038 19.0229 163.43 18.4514 162.67 18.4514C161.91 18.4514 161.271 19.0229 161.271 19.7041V28.3651H158.505V19.7041C158.505 19.0229 157.896 18.4514 157.136 18.4514C156.376 18.4514 155.736 19.0229 155.736 19.7041V28.3651H153V19.7041C153 17.661 154.855 16 157.136 16C158.2 16 159.172 16.3537 159.903 16.9263C160.633 16.3537 161.606 16 162.67 16Z" fill="#656565"/>
<path fill-rule="evenodd" clip-rule="evenodd" d="M130.869 17.0718V16.2965H128.023V28.5454H130.869L130.855 20.6279C130.85 18.9073 133.763 18.7778 133.763 18.7778V16.2775C133.763 16.2775 131.702 16.4692 130.869 17.0718Z" fill="#656565"/>
<path fill-rule="evenodd" clip-rule="evenodd" d="M108.083 16.259H110.823V25.0717C110.823 26.7073 109.678 28.1219 108.083 28.6209V31.3974H105.341V28.6209C103.744 28.1219 102.629 26.7073 102.629 25.0717V16.259H105.341V25.0717C105.341 25.7638 105.973 26.32 106.726 26.32C107.48 26.32 108.083 25.7638 108.083 25.0717V16.259Z" fill="#656565"/>
<path fill-rule="evenodd" clip-rule="evenodd" d="M108.199 33.7975C108.199 34.6242 107.528 35.2934 106.701 35.2934C105.874 35.2934 105.203 34.6242 105.203 33.7975C105.203 32.9715 105.874 32.3022 106.701 32.3022C107.528 32.3022 108.199 32.9715 108.199 33.7975Z" fill="#656565"/>
<path fill-rule="evenodd" clip-rule="evenodd" d="M48.0979 28.5854C45.838 28.5854 44 26.7499 44 24.4921V16.2724C44 14.0153 45.838 12.1473 48.0979 12.1473C50.3572 12.1473 52.194 14.0153 52.194 16.2724H49.4537C49.4537 15.5194 48.8514 14.8877 48.0979 14.8877C47.3444 14.8877 46.7123 15.5194 46.7123 16.2724V24.4921C46.7123 25.2451 47.3444 25.8451 48.0979 25.8451C48.8514 25.8451 49.4537 25.2451 49.4537 24.4921H52.194C52.194 26.7499 50.3572 28.5854 48.0979 28.5854Z" fill="#656565"/>
<path fill-rule="evenodd" clip-rule="evenodd" d="M57.5262 28.6393C55.2371 28.6393 53.3984 26.9815 53.3984 24.9123V16.2628H56.1412V24.9123C56.1412 25.593 56.7429 26.1657 57.5262 26.1657C58.2791 26.1657 58.882 25.593 58.882 24.9123V16.2628H61.6229V24.9123C61.6229 26.9815 59.7861 28.6393 57.5262 28.6393Z" fill="#656565"/>
<path fill-rule="evenodd" clip-rule="evenodd" d="M69.3086 28.5397H72.0202V16.2731H69.3086V28.5397Z" fill="#656565"/>
<path fill-rule="evenodd" clip-rule="evenodd" d="M65.5268 17.0337V16.2731H62.8164V28.5397H65.5268L65.5128 20.5238C65.509 18.8356 68.2829 18.708 68.2829 18.708V16.2546C68.2829 16.2546 66.3197 16.4426 65.5268 17.0337Z" fill="#656565"/>
<path fill-rule="evenodd" clip-rule="evenodd" d="M77.4398 18.7244C76.6869 18.7244 76.084 19.2711 76.084 19.9511V24.9066C76.084 25.5885 76.6869 26.1619 77.4398 26.1619C78.1933 26.1619 78.7943 25.5885 78.7943 24.9066V19.9511C78.7943 19.2711 78.1933 18.7244 77.4398 18.7244ZM77.4398 28.6393C75.1805 28.6393 73.3438 26.979 73.3438 24.9066V19.9511C73.3438 17.9085 75.1805 16.2469 77.4398 16.2469C79.699 16.2469 81.5377 17.9085 81.5377 19.9511V24.9066C81.5377 26.979 79.699 28.6393 77.4398 28.6393Z" fill="#656565"/>
<path fill-rule="evenodd" clip-rule="evenodd" d="M86.8687 21.2311C89.1292 21.2311 90.9666 22.8927 90.9666 24.9359C90.9666 27.0051 89.1292 28.668 86.8687 28.668C84.5796 28.668 82.7422 27.0051 82.7422 24.9359H85.4849C85.4849 25.6451 86.0866 26.188 86.8687 26.188C87.6235 26.188 88.2239 25.6451 88.2239 24.9359C88.2239 24.2553 87.6235 23.7105 86.8395 23.7105C84.5796 23.7105 82.7422 22.0477 82.7422 20.0057C82.7422 17.9353 84.5796 16.2737 86.8687 16.2737C89.1292 16.2737 90.9666 17.9353 90.9666 20.0057H88.2239C88.2239 19.2972 87.6235 18.753 86.8687 18.753C86.0866 18.753 85.4849 19.2972 85.4849 20.0057C85.4849 20.6857 86.0866 21.2311 86.8687 21.2311Z" fill="#656565"/>
<path fill-rule="evenodd" clip-rule="evenodd" d="M92.0234 28.5397H94.7357V16.261H92.0234V28.5397Z" fill="#656565"/>
<path fill-rule="evenodd" clip-rule="evenodd" d="M100.128 25.7924H101.484V28.5384H100.128C97.8674 28.5384 96.0312 26.6971 96.0312 24.4317V12.0883H98.7429V16.261L101.484 16.2648V18.9391H98.7429V24.4317C98.7429 25.1886 99.3757 25.7924 100.128 25.7924Z" fill="#656565"/>
<path fill-rule="evenodd" clip-rule="evenodd" d="M125.487 25.7924H126.843V28.5384H125.487C123.227 28.5384 121.391 26.6971 121.391 24.4317V12.0883H124.102V16.261L126.843 16.2648V18.9391H124.102V24.4317C124.102 25.1886 124.735 25.7924 125.487 25.7924Z" fill="#656565"/>
<path fill-rule="evenodd" clip-rule="evenodd" d="M168.059 17.0628H168.156C168.267 17.0628 168.359 17.0228 168.359 16.9251C168.359 16.8387 168.3 16.7809 168.172 16.7809C168.118 16.7809 168.081 16.7873 168.059 16.793V17.0628ZM168.054 17.5968H167.851V16.6552C167.931 16.6374 168.043 16.626 168.188 16.626C168.353 16.626 168.428 16.6552 168.492 16.6952C168.54 16.7352 168.578 16.8101 168.578 16.9022C168.578 17.0057 168.503 17.0857 168.396 17.1206V17.132C168.482 17.1663 168.53 17.2349 168.557 17.3613C168.584 17.5047 168.599 17.5625 168.621 17.5968H168.401C168.375 17.5625 168.359 17.4762 168.332 17.367C168.316 17.2641 168.263 17.2178 168.15 17.2178H168.054V17.5968ZM167.513 17.1028C167.513 17.5219 167.802 17.8552 168.198 17.8552C168.584 17.8552 168.867 17.5219 168.867 17.1092C168.867 16.6895 168.584 16.3505 168.193 16.3505C167.802 16.3505 167.513 16.6895 167.513 17.1028ZM169.091 17.1028C169.091 17.6374 168.701 18.0565 168.193 18.0565C167.69 18.0565 167.289 17.6374 167.289 17.1028C167.289 16.5803 167.69 16.1613 168.193 16.1613C168.701 16.1613 169.091 16.5803 169.091 17.1028Z" fill="#656565"/>
</svg>
