<svg width="148" height="50" viewBox="0 0 148 50" fill="none" xmlns="http://www.w3.org/2000/svg">
<path d="M66.9066 24.4741C66.9881 24.4852 67.0058 24.4884 67.0852 24.4986C68.4125 24.677 69.7168 24.9136 70.7151 25.355C71.6403 25.759 72.1826 26.2704 72.6778 27.1819C73.4308 28.5641 73.4798 30.5005 72.7994 31.966C72.2911 33.0565 71.1753 33.9709 70.1567 34.4556C69.0988 34.9629 68.0566 35.2044 66.8612 35.3394C64.7706 35.5671 62.5126 35.1387 60.6314 34.2387C59.5184 33.7011 58.1593 32.7753 57.4737 31.5827C56.9696 30.7089 56.9856 29.5721 57.599 28.7416C58.5767 27.418 60.6707 27.1266 62.248 27.1819C63.4504 27.2279 65.6155 27.5956 66.7572 27.9973C67.0736 28.1104 68.2407 28.5601 68.4443 28.7664C68.5877 28.9098 68.6807 29.1183 68.6163 29.311C68.3555 30.1002 66.4166 30.5162 65.8567 30.5997C64.3579 30.8268 63.5802 30.2658 61.8763 29.6003C61.4533 29.4365 60.8896 29.2547 60.459 29.2154C59.6854 29.1425 58.751 29.3568 58.6034 30.192C58.53 30.6225 59.0403 31.0251 59.4296 31.1943C60.3436 31.5827 61.0866 31.7223 61.9862 31.7343C64.6437 31.7775 67.6302 31.3448 69.8039 29.8215C70.1014 29.6114 70.3937 29.304 70.3968 28.9164C70.4062 28.1338 69.0189 27.6552 69.0189 27.6552C67.5548 27.0514 64.8494 26.7575 63.4557 26.644C61.9931 26.5188 59.6919 26.3315 59.1394 26.251C58.5705 26.1707 57.9526 26.0571 57.4599 25.8388C56.965 25.6176 56.4809 25.1227 56.3372 24.5752C56.0824 23.5882 56.4075 22.3772 56.9616 21.5887C58.414 19.5235 61.8161 18.7391 64.3578 18.4276C66.8177 18.1248 70.7947 18.1279 73.2109 19.3978C73.5839 19.5956 73.7744 19.7796 73.6965 20.174C73.5391 20.9145 72.9764 21.3918 72.2943 21.601C71.5788 21.8262 70.0988 21.9139 69.4487 21.9545C66.5357 22.116 63.0155 22.0313 60.2409 22.7797C60.0235 22.841 59.648 22.9412 59.5259 23.076C59.0916 23.5423 60.3321 23.6756 60.5978 23.7289C60.6768 23.7476 60.6921 23.7502 60.7745 23.7591L66.9066 24.4741ZM49.577 11.6264C49.577 11.6264 50.0508 10.9235 50.4478 10.3903C51.1707 9.41918 52.4789 8.07242 53.4641 7.23862C53.7655 6.98396 54.1208 6.69549 54.1208 6.69549C54.1208 6.69549 53.5651 6.75234 53.2501 6.81604C52.5026 6.95991 51.4066 7.68045 50.859 8.14604C49.9553 8.91118 48.9615 10.155 49.4112 11.2602C49.4764 11.4164 49.577 11.6264 49.577 11.6264ZM54.6007 12.9561C56.0283 12.8588 57.3656 12.4522 58.6106 11.7691C59.8316 11.0933 61.6275 9.77559 61.4412 8.2265C61.3846 7.72505 61.0527 7.34649 60.6338 7.16982C60.0892 6.93644 59.8052 6.97405 59.1096 7.17857C58.6043 7.32477 58.3766 7.41355 57.8994 7.68366C56.4989 8.48845 54.5131 10.2109 53.4351 11.5855C53.1863 11.9096 52.9343 12.2722 52.7371 12.5207C52.6127 12.6739 52.5161 12.8146 52.5281 12.852C52.5712 13.0079 54.0432 12.9936 54.6007 12.9561ZM50.9658 15.5969C50.8186 15.751 50.6628 16.1224 50.5013 16.3913C50.4149 16.5352 50.255 16.7205 50.1492 16.7948C49.7777 17.0651 49.4629 17.0776 49.1042 16.7654C48.6012 16.3253 48.3103 15.6447 48.2896 14.9826C48.2789 14.6937 48.329 14.374 48.2737 14.1304C48.1822 13.7192 47.7662 13.2956 47.5419 12.9025C47.2785 12.4394 47.0654 11.6318 47.0389 11.1104C46.9485 9.48463 47.8149 7.987 48.9404 6.80583C50.0739 5.6114 51.5568 4.61871 53.1695 3.94293C54.694 3.30781 56.9279 2.87488 58.6019 3.44833C59.1469 3.63302 59.9062 4.09176 60.2877 4.57236C60.3688 4.67206 60.4348 4.77993 60.5179 4.8327C60.5923 4.87964 60.787 4.89815 60.9419 4.92629C61.4759 5.01783 62.2446 5.41767 62.5586 5.68399C63.1895 6.22232 63.5351 6.73688 63.695 7.48366C64.0157 8.98625 63.1409 10.6348 62.1445 11.6381C60.4383 13.3649 58.7534 14.579 56.5708 15.4241C55.6121 15.7945 54.119 16.1406 53.0314 16.0438C52.6936 16.0161 52.3467 15.9281 52.0178 15.9065C51.8499 15.8922 51.2363 15.7357 51.1707 15.6915C51.0893 15.6297 50.9842 15.5759 50.9658 15.5969ZM52.9151 18.9283C52.9816 18.9394 53.084 18.9688 53.1722 19.0023C53.9373 19.2902 54.2521 19.9907 54.4406 20.76C54.8774 22.5466 55.0639 26.499 55.1365 28.046C55.1899 29.2072 55.2192 30.3496 55.2684 31.4974C55.3101 32.4694 55.3885 33.7616 55.1837 34.6722C55.1093 34.9998 54.8878 35.3807 54.5706 35.5757C54.2073 35.8057 53.3804 35.8232 52.9259 35.7305C51.8056 35.5014 51.4415 34.7888 51.2816 33.693C50.9016 31.078 51.0846 25.9459 51.3089 23.7804C51.3835 23.0651 51.6558 20.7733 52.0334 19.8124C52.1623 19.4883 52.4369 18.8357 52.9151 18.9283ZM18.8326 23.2791C18.8326 23.2791 17.1652 23.3958 16.0176 23.5218C14.5576 23.6773 11.8142 24.1458 10.2307 24.7051C9.75568 24.8733 8.79082 25.2727 8.70696 25.7558C8.61883 26.2565 8.93304 26.6481 9.28246 27.0532C9.48451 27.2884 10.6281 28.3766 10.9488 28.641C12.293 29.7511 15.0187 31.463 17.0263 32.2943C17.716 32.5765 18.857 32.9806 18.857 32.9806C18.857 32.9806 18.7722 29.7672 18.7874 26.602C18.7962 24.9322 18.8326 23.2791 18.8326 23.2791ZM49.4061 24.5579C49.5016 25.4211 49.2773 27.0533 49.2384 27.2686C49.1674 27.7648 48.7891 28.9094 48.7263 29.049C48.4209 29.7446 48.1199 30.3146 47.8008 30.8831C47.254 31.8564 45.9539 33.3994 45.1821 34.0597C42.312 36.5134 37.8689 37.9105 34.0572 38.3707C31.4708 38.6797 28.4988 38.6344 25.7582 38.1328C24.815 37.9631 23.4114 37.6432 23.4114 37.6432C23.4114 37.6432 23.416 38.1982 23.3711 38.5886C23.3492 38.7667 23.2137 39.2355 23.1376 39.3874C22.9384 39.7946 22.6112 40.0046 22.1355 40.095C21.5613 40.2004 20.9523 40.2355 20.4218 40.0112C19.5507 39.6486 19.2379 38.8425 19.0861 37.9128C18.9634 37.1693 18.8349 35.8767 18.8349 35.8767C18.8349 35.8767 18.1832 35.5715 17.6398 35.3033C15.9708 34.4899 14.3856 33.5043 12.9988 32.4908C12.6146 32.2071 10.964 30.8398 10.5997 30.5003C9.57809 29.541 8.65907 28.5867 7.95992 27.3621C7.4164 26.4054 7.25989 25.5563 7.67327 24.5426C8.24332 23.1296 10.2914 22.0658 11.6931 21.4596C12.7219 21.0103 15.921 19.9771 17.2498 19.7856C17.8775 19.6968 18.8511 19.5243 18.9109 19.4859C18.9354 19.4673 18.9523 19.4516 18.97 19.4316C19.0007 19.3889 19.0524 17.9903 19.0424 17.4786C19.0294 16.9756 19.4188 13.6716 19.5439 12.9729C19.6092 12.5951 19.8985 11.1406 20.1938 10.7588C20.387 10.5008 20.7286 10.5216 21.0072 10.691C22.5313 11.6285 22.9944 14.8795 23.1077 16.5337C23.1755 17.5416 23.2092 19.0576 23.2092 19.0576C23.2092 19.0576 24.9577 19.0064 26.0332 19.0366C27.0784 19.0606 28.2304 19.2238 29.3153 19.3947C30.7041 19.615 33.4113 20.1991 34.9639 20.9777C36.2423 21.6187 37.439 22.6989 37.8268 23.842C38.1869 24.89 38.133 25.6152 37.5843 26.5609C36.9674 27.6288 35.8005 28.4225 34.6174 28.4888C34.2653 28.509 32.9401 28.3348 32.5323 28.0225C32.3724 27.898 32.3807 27.6734 32.4961 27.5211C32.5398 27.4676 33.1592 27.1418 33.5249 26.9517C33.7082 26.8532 33.8599 26.7469 34.003 26.6179C34.3067 26.3533 34.5801 26.0621 34.5496 25.7207C34.5076 25.2776 34.0335 25.0042 33.5816 24.8284C31.4615 23.9954 27.2284 23.3038 25.1829 23.1842C24.3822 23.1377 23.2433 23.0979 23.2433 23.0979L23.4841 34.2705C23.4841 34.2705 24.4257 34.4479 25.1677 34.5668C25.5935 34.6307 27.3975 34.7913 27.8769 34.803C31.5271 34.8983 35.6011 34.575 38.9509 33.0115C40.4216 32.327 41.7708 31.4746 42.7923 30.3209C44.1385 28.7942 44.8436 26.7049 44.657 24.5226C44.4524 22.1393 42.7566 19.3101 41.4024 17.5874C37.8243 13.036 31.691 9.29207 26.295 7.09708C20.7861 4.85763 15.3415 3.56932 9.49498 3.35358C7.98777 3.29834 4.70146 3.37355 3.04025 3.82806C2.80298 3.89424 2.56379 3.97325 2.34346 4.02222C2.16941 4.06435 1.89515 4.17834 1.81984 4.23855C1.77813 4.27193 1.73687 4.31814 1.73687 4.31814C1.73687 4.31814 1.83929 4.37411 1.93715 4.41507C2.11312 4.49102 2.85382 4.5365 3.23714 4.60589C3.58009 4.66973 3.93718 4.84786 4.07851 5.0964C4.21277 5.33269 4.22957 5.51898 4.06908 5.71606C3.69268 6.16882 2.27597 6.09244 1.65213 5.99477C1.00383 5.89259 0.196654 5.69638 0.048395 5.13809C-0.123591 4.48052 0.192233 3.83593 0.533406 3.24003C1.21885 2.04778 2.20066 1.42768 3.63845 1.03935C5.68062 0.483533 8.25924 0.094912 10.1876 0.0220274C14.5523 -0.141088 18.6832 0.613851 22.9121 1.88379C25.3325 2.60768 28.5012 3.82238 30.821 4.92716C32.4856 5.72102 35.1083 7.1809 36.5816 8.13496C37.0463 8.4383 39.7655 10.4145 40.1879 10.7619C41.069 11.4744 42.2215 12.4986 43.0561 13.3176C44.6707 14.9002 46.679 17.3261 47.6546 19.2516C47.8894 19.7127 48.0712 20.1663 48.3741 20.7007C48.4783 20.8838 48.9239 21.9788 48.9981 22.2951C49.0715 22.6081 49.179 23.0681 49.1942 23.0864C49.2157 23.2544 49.4224 24.1952 49.4061 24.5579ZM104.277 22.0875C102.233 22.5537 96.8584 22.8126 96.8584 22.8126L96.1806 24.9125C96.1806 24.9125 98.8666 24.6857 100.821 24.8876C100.821 24.8876 101.454 24.8149 101.528 25.5985C101.553 26.3294 101.465 27.1137 101.465 27.1137C101.465 27.1137 101.425 27.5881 100.745 27.7088C100.008 27.8303 94.9556 28.0236 94.9556 28.0236L94.1374 30.7608C94.1374 30.7608 93.8333 31.3936 94.5148 31.213C95.1479 31.0453 100.442 30.0627 101.132 30.2041C101.871 30.3856 102.688 31.3601 102.452 32.2481C102.17 33.3488 96.8862 36.6821 93.6683 36.4494C93.6683 36.4494 91.9773 36.5573 90.5481 34.3001C89.217 32.1491 91.0525 28.0763 91.0525 28.0763C91.0525 28.0763 90.2112 26.1751 90.8208 25.5306C90.8208 25.5306 91.1837 25.205 92.2414 25.1313L93.5365 22.4811C93.5365 22.4811 92.0613 22.5816 91.1837 21.5081C90.3662 20.4898 90.2977 20.0217 90.9244 19.7405C91.5947 19.4131 97.7382 18.3041 101.966 18.4448C101.966 18.4448 103.435 18.3021 104.709 20.8227C104.709 20.8228 105.327 21.8422 104.277 22.0875ZM88.3768 32.2777C87.835 33.5381 86.4039 34.8833 84.6259 34.0472C82.8709 33.2093 80.0753 27.5499 80.0753 27.5499C80.0753 27.5499 79.0141 25.4396 78.8099 25.494C78.8099 25.494 78.5806 25.0819 78.44 27.388C78.2938 29.6843 78.4682 34.1619 77.5421 34.8667C76.6647 35.5734 75.6025 35.292 75.0516 34.4664C74.5508 33.653 74.3424 31.7203 74.6156 28.3257C74.9368 24.9246 75.7355 21.3061 76.7561 20.1793C77.7752 19.0601 78.5935 19.8726 78.9124 20.1673C78.9124 20.1673 80.2756 21.3895 82.5236 24.9781L82.9204 25.642C82.9204 25.642 84.9633 29.0324 85.1767 29.0246C85.1767 29.0246 85.3437 29.1804 85.4925 29.0684C85.7069 29.0078 85.6204 27.9206 85.6204 27.9206C85.6204 27.9206 85.1966 24.2257 83.3329 17.9716C83.3329 17.9716 83.0511 17.1917 83.2417 16.461C83.4309 15.7225 84.1793 16.0692 84.1793 16.0692C84.1793 16.0692 87.0678 17.5057 88.4699 22.1574C89.8628 26.8105 88.9268 31.0077 88.3768 32.2777ZM119.465 29.4917C118.15 31.7609 114.438 36.5124 109.505 35.3906C107.876 39.2981 106.507 43.2509 105.724 49.1656C105.724 49.1656 105.552 50.315 104.587 49.9157C103.63 49.5844 102.053 48.0105 101.734 45.8332C101.391 42.973 102.678 38.138 105.31 32.594C104.542 31.3601 104.019 29.5971 104.467 27.0868C104.467 27.0868 105.128 22.4253 109.861 18.2238C109.861 18.2238 110.428 17.7391 110.757 17.8884C111.12 18.0387 110.952 19.5555 110.664 20.2931C110.366 21.0265 108.258 24.6347 108.258 24.6347C108.258 24.6347 106.944 27.0724 107.314 28.9951C109.796 25.2201 115.439 17.6078 118.937 20.0083C120.112 20.8398 120.653 22.6483 120.653 24.5971C120.654 26.3089 120.237 28.1282 119.465 29.4917ZM118.444 23.5132C118.444 23.5132 118.249 22.0123 116.766 23.6658C115.49 25.0611 113.189 27.6753 111.336 31.2261C113.28 31.0102 115.155 29.9671 115.722 29.4358C116.643 28.6269 118.79 26.4323 118.444 23.5132ZM146.641 23.1715H137.6C137.419 20.132 137.049 17.1713 136.465 14.1221C136.406 13.8065 136.128 13.5777 135.805 13.5777H133.72C133.539 13.5777 133.367 13.6583 133.25 13.799C133.132 13.942 133.086 14.1239 133.12 14.302C133.713 17.2527 134.088 20.1568 134.273 23.1744H125.574C125.169 23.1744 124.84 23.499 124.84 23.8983V25.7577C124.84 26.1579 125.169 26.4848 125.574 26.4848H134.397C134.403 26.9437 134.407 27.3546 134.407 27.7402C134.407 30.42 134.291 32.6275 134.017 35.1187C133.996 35.3113 134.06 35.503 134.191 35.6442C134.319 35.7866 134.504 35.8678 134.695 35.8678H136.628C137.006 35.8678 137.318 35.5871 137.356 35.2155C137.62 32.7074 137.733 30.4725 137.733 27.74C137.733 27.3559 137.729 26.9436 137.723 26.4847H146.641C147.045 26.4847 147.375 26.1577 147.375 25.7576V23.8981C147.375 23.4971 147.045 23.1715 146.641 23.1715Z" fill="#101C50"/>
</svg>
