<svg width="497" height="109" viewBox="0 0 497 109" fill="none" xmlns="http://www.w3.org/2000/svg">
<path d="M228.249 56.9284C229.742 56.8694 233.435 57.3604 241.409 57.6554C249.747 57.9694 251.406 51.5174 251.062 47.5104C242.557 49.3364 240.544 49.8184 233.208 49.8184C225.489 49.8184 215.993 51.9684 215.815 58.7454C215.649 65.4824 224.458 66.9854 229.024 68.2814C230.301 68.5764 230.783 69.6074 229.938 70.2654C227.983 71.8364 223.564 73.8994 223.034 77.5814C222.288 82.7964 227.041 86.8814 233.052 86.7644C241.066 86.5874 249.914 83.1894 258.419 72.9854C260.824 70.1084 263.525 65.2274 265.185 63.0864C265.579 62.3114 266.738 61.9474 267.238 62.0064C268.751 62.3404 270.901 63.4894 270.617 65.1394C270.175 67.6634 263.301 75.5304 267.877 80.2734C270.686 83.1804 277.767 85.2924 283.403 81.1974C288.687 77.3574 286.821 73.8504 284.729 73.5864C283.236 73.4094 279.062 78.6534 275.684 74.9114C272.875 71.8084 279.543 65.3864 280.87 63.0874C282.785 59.7874 275.321 57.2934 272.179 53.1984C270.165 50.4974 275.409 42.1984 268.84 40.0094C266.689 39.2924 260.04 43.2994 262.406 54.7604C259.391 66.1034 236.401 85.9604 233.337 77.9564C232.591 76.0024 234.574 72.7614 239.829 71.6614C248.52 69.8444 247.843 64.4724 243.698 63.9324C237.186 63.0874 235.37 63.0874 227.601 61.2714C224.537 60.9444 224.635 56.8694 228.249 56.9284Z" fill="#ED1C2E"/>
<path d="M102.481 69.4304C100.389 71.5514 97.973 74.4784 97.65 76.8454C96.943 81.9714 99.585 86.4984 106.095 86.3804C113.098 86.2634 115.396 81.1954 127.102 74.0754C130.373 72.0814 134.428 68.7224 136.108 68.4474C136.747 68.4474 137.689 68.6534 137.63 69.8914C136.628 74.5554 135.548 77.6884 136.746 81.6754C137.61 84.4744 141.322 86.2424 144.003 84.2094C148.462 80.8314 148.53 78.9054 154.306 71.2954C155.278 70.0374 158.784 64.2534 160.414 65.0204C161.76 65.6674 161.386 67.5344 161.141 69.0064C159.923 76.1364 156.829 87.3914 170.912 85.6524C174.261 85.2404 176.952 82.9814 174.408 80.5854C172.877 79.1424 171.158 80.1834 169.222 79.7404C164.695 78.6994 175.891 58.0954 170.548 54.2754C163.045 48.9034 156.102 58.4204 150.877 65.3824C148.814 68.1214 147.302 66.9244 145.957 63.0544C144.474 58.7634 135.547 61.9064 130.43 64.5474C122.269 68.7604 107.175 82.8624 105.77 75.8314C105.525 74.6134 107.499 71.9024 111.162 70.5664C115.474 69.0044 120.335 67.6104 120.335 65.0184C120.335 63.0144 119.127 61.6104 117.831 61.6784C111.83 62.0124 104.848 63.6034 96.844 61.3944C95.028 61.3844 94.251 56.7974 99.653 57.4074C101.077 57.5644 104.259 57.7804 116.358 58.0154C124.873 58.1924 125.059 51.8094 123.93 48.4204C116.839 50.5314 113.235 50.2964 105.732 50.2964C97.876 50.2964 87.269 51.3764 87.721 58.9584C88.104 65.3414 97.06 67.0894 101.696 67.6094C103.022 67.4954 103.444 68.7624 102.481 69.4304Z" fill="#ED1C2E"/>
<path fill-rule="evenodd" clip-rule="evenodd" d="M76.6539 53.0684C77.3709 50.4174 78.9419 49.8174 80.9949 49.3264C84.0579 48.3244 88.3699 46.9894 90.9919 46.5084C97.6609 44.8684 99.5659 45.2514 100.421 40.6454C101.029 37.4344 99.6449 35.8924 99.6449 35.8924C99.6449 35.8924 85.1209 40.4394 82.2039 41.2454C79.6699 42.3354 80.1509 39.6744 80.1509 39.6744C80.1509 39.6744 79.7879 41.3624 81.3589 34.4884C86.1109 13.5494 83.3219 7.97137 79.5509 4.78937C69.9769 -3.11563 35.0239 13.3044 10.0299 33.0344C1.70186 40.2814 -3.13014 41.9714 2.30086 47.7644C7.13286 52.5864 10.2659 48.9624 10.2659 48.9624C14.8519 45.3484 24.7509 35.2134 31.2629 30.3814C40.5429 23.5074 53.3599 13.5984 64.7019 10.9454C73.7079 8.65737 76.4079 11.3094 75.2009 20.4914C74.5039 28.3484 68.4439 46.0754 68.4439 46.0754C68.4439 46.0754 59.1529 50.2194 56.3739 51.2604C54.2039 52.0664 51.9159 51.5064 51.6599 56.4464C51.5529 61.7594 54.7539 59.7654 56.9239 58.9414C58.5739 58.3124 62.5119 56.4564 63.9759 55.8474C65.0659 55.0024 66.2739 55.7294 65.6649 57.2904C64.5839 60.7964 62.6199 66.4634 58.9079 74.6734C54.2039 85.8994 45.7479 101.229 44.6579 105.088C44.7959 107.622 47.5639 107.985 51.2189 108.034C54.5769 107.779 56.1389 105.451 56.1389 105.451C56.1389 105.451 60.5089 96.0624 67.2369 79.5054C72.1169 67.4854 75.2989 57.5574 76.6539 53.0684Z" fill="#ED1C2E"/>
<path d="M196.793 57.4684C191.559 55.9554 186.982 62.1534 185.637 67.6724C184.419 72.7104 185.068 79.4774 189.615 80.3414C193.278 81.0484 197.511 77.8564 198.601 71.9344C198.895 70.3534 199.563 65.3054 199.769 63.9994C201.016 55.9854 201.95 52.4694 201.95 52.4694C206.32 35.7154 216.799 3.14036 219.646 1.23536C222.613 -0.72964 230.763 -1.07364 228.201 5.73236C224.243 16.2994 219.627 25.6694 215.453 38.7114C210.553 53.9924 201.096 78.5444 209.541 79.6254C213.499 80.1354 215.09 76.4814 217.467 78.3384C221.091 81.1764 217.123 86.3134 210.141 86.9904C200.546 87.3344 200.743 81.7074 196.48 84.1324C182.81 91.8914 174.393 81.0394 177.075 67.4274C179.383 55.7804 188.358 47.5404 198.386 52.5884C198.386 52.5884 200.949 53.8644 200.734 56.0354C200.564 57.7134 199.308 58.0574 196.793 57.4684Z" fill="#ED1C2E"/>
<path d="M494.06 27.061C492.675 28.446 491.006 29.143 489.051 29.143C487.087 29.143 485.417 28.446 484.053 27.061C482.688 25.686 482 24.016 482 22.052C482 20.108 482.688 18.448 484.072 17.063C485.447 15.698 487.106 15 489.051 15C491.006 15 492.675 15.697 494.06 17.063C495.445 18.438 496.123 20.108 496.123 22.052C496.122 24.006 495.444 25.676 494.06 27.061ZM484.74 17.76C483.552 18.948 482.952 20.372 482.952 22.062C482.952 23.752 483.552 25.205 484.729 26.393C485.908 27.581 487.362 28.18 489.06 28.18C490.759 28.18 492.194 27.581 493.381 26.393C494.579 25.205 495.169 23.751 495.169 22.062C495.169 20.373 494.579 18.949 493.381 17.76C492.193 16.562 490.749 15.973 489.06 15.973C487.372 15.973 485.928 16.561 484.74 17.76ZM488.924 18.152C489.896 18.152 490.593 18.251 491.055 18.437C491.861 18.761 492.263 19.419 492.263 20.391C492.263 21.088 492.017 21.589 491.507 21.913C491.232 22.09 490.859 22.218 490.377 22.296C490.976 22.385 491.418 22.64 491.703 23.052C491.987 23.465 492.125 23.867 492.125 24.24V24.82C492.125 24.987 492.135 25.183 492.145 25.389C492.155 25.595 492.174 25.723 492.214 25.791L492.263 25.88H490.986C490.986 25.86 490.976 25.83 490.976 25.811C490.966 25.782 490.956 25.752 490.956 25.723L490.927 25.477V24.859C490.927 23.975 490.682 23.376 490.181 23.091C489.886 22.924 489.375 22.845 488.639 22.845H487.539V25.88H486.203V18.151H488.924V18.152ZM490.406 19.399C490.052 19.203 489.493 19.115 488.727 19.115H487.539V21.885H488.796C489.375 21.885 489.817 21.835 490.112 21.708C490.662 21.512 490.926 21.108 490.926 20.529C490.927 19.96 490.75 19.587 490.406 19.399Z" fill="#ED1C2E"/>
<path fill-rule="evenodd" clip-rule="evenodd" d="M315.722 84.5666C316.933 85.9724 319.134 85.94 320.292 84.4905C334.392 66.8359 338.357 56.9579 334.815 42.9396C334.623 42.1807 334.122 41.533 333.44 41.1486C321.386 34.3532 313.922 34.101 301.654 41.4894C300.981 41.8946 300.499 42.5648 300.325 43.3305C296.712 59.1939 300.059 66.376 315.722 84.5666ZM312.588 65.1929L327.011 56.3106L312.588 47.4283V65.1929Z" fill="black"/>
<path d="M359.548 66.2231V80H351.491V40.8984H366.745C369.681 40.8984 372.259 41.4355 374.479 42.5098C376.717 43.584 378.436 45.1147 379.636 47.1021C380.835 49.0715 381.435 51.3184 381.435 53.8428C381.435 57.6742 380.119 60.6999 377.487 62.9199C374.873 65.1221 371.248 66.2231 366.611 66.2231H359.548ZM359.548 59.6973H366.745C368.876 59.6973 370.496 59.196 371.606 58.1934C372.734 57.1908 373.298 55.7585 373.298 53.8965C373.298 51.9808 372.734 50.4321 371.606 49.2505C370.478 48.0688 368.92 47.4601 366.933 47.4243H359.548V59.6973ZM395.051 73.5278H412.158V80H386.994V40.8984H395.051V73.5278ZM439.416 71.9434H425.29L422.604 80H414.038L428.593 40.8984H436.059L450.695 80H442.128L439.416 71.9434ZM427.465 65.4175H437.241L432.326 50.7812L427.465 65.4175ZM463.801 58.5156L471.938 40.8984H480.747L467.91 65.8203V80H459.719V65.8203L446.882 40.8984H455.717L463.801 58.5156Z" fill="black"/>
</svg>
