<svg width="100" height="40" viewBox="0 0 100 40" fill="none" xmlns="http://www.w3.org/2000/svg">
<path d="M0 19.01H8.67V23.02H4.26V26.47H8.17V30.38H4.26V37.8H0V19.01Z" fill="#0D83DD"/>
<path d="M12.58 25.15V28.87C14.1533 28.87 14.94 28.32 14.94 27.22C14.9649 26.9358 14.9287 26.6496 14.8338 26.3805C14.739 26.1114 14.5876 25.8658 14.39 25.66C13.8557 25.2958 13.2154 25.1199 12.57 25.16L12.58 25.15ZM9 22.11H13.14C14.5881 22.0219 16.0163 22.4825 17.14 23.4C17.6269 23.8414 18.0103 24.3849 18.2627 24.9917C18.5151 25.5985 18.6303 26.2535 18.6 26.91C18.597 27.677 18.4083 28.4319 18.05 29.11C17.697 29.8009 17.1331 30.3614 16.44 30.71L19.28 37.78H15.52L12.64 30.64H12.58V37.78H9V22.11Z" fill="#0D83DD"/>
<path d="M19.5586 22.11H26.7586V25.45H23.1186V28.34H26.2786V31.59H23.1186V34.45H26.7786V37.79H19.5586V22.11Z" fill="#0D83DD"/>
<path d="M34.4297 22.11H37.9897V27.93H41.1497V22.11H44.7097V37.79H41.1497V31.27H37.9897V37.79H34.4297V22.11Z" fill="#0D83DD"/>
<path d="M49.7209 30.08V34.19C50.576 34.2276 51.4273 34.0559 52.2009 33.69C52.469 33.5281 52.6862 33.2942 52.8276 33.0148C52.9691 32.7354 53.0291 32.4219 53.0009 32.11C53.0009 30.7767 52.0176 30.11 50.0509 30.11L49.7209 30.08ZM49.7209 22.61V26.67C51.7209 26.6233 52.7209 25.9567 52.7209 24.67C52.7508 24.3666 52.7 24.0606 52.5735 23.7831C52.4471 23.5057 52.2495 23.2665 52.0009 23.09C51.2916 22.7357 50.5028 22.5704 49.7109 22.61H49.7209ZM45.4609 19H49.8309C52.3709 19 54.2009 19.5 55.3209 20.48C55.865 20.9494 56.2979 21.5338 56.5885 22.191C56.879 22.8482 57.0199 23.5617 57.0009 24.28C56.9983 25.1035 56.7717 25.9108 56.3454 26.6154C55.9191 27.3201 55.3092 27.8954 54.5809 28.28C55.4241 28.5723 56.1474 29.1343 56.6391 29.8791C57.1308 30.6238 57.3634 31.5098 57.3009 32.4C57.3235 33.1392 57.1819 33.8742 56.8862 34.5521C56.5905 35.2299 56.1481 35.8337 55.5909 36.32C54.3232 37.3566 52.7167 37.8874 51.0809 37.81H45.4809V19H45.4609Z" fill="#040505"/>
<path d="M63.2204 25.25C61.9404 25.25 61.3004 26.7567 61.3004 29.77C61.2078 31.0863 61.3743 32.4079 61.7904 33.66C61.8978 33.951 62.0911 34.2025 62.3447 34.3811C62.5983 34.5596 62.9002 34.6569 63.2104 34.66C63.5347 34.6588 63.8518 34.5638 64.1233 34.3863C64.3948 34.2089 64.6091 33.9566 64.7404 33.66C65.1885 32.4393 65.3693 31.1366 65.2704 29.84C65.2704 26.7734 64.6037 25.2434 63.2704 25.25H63.2204ZM63.4004 38.2C62.5384 38.2517 61.678 38.0756 60.9057 37.6894C60.1333 37.3033 59.4762 36.7206 59.0004 36C57.8901 34.0979 57.3714 31.9081 57.5104 29.71C57.3906 27.6371 57.9108 25.5775 59.0004 23.81C59.4592 23.1302 60.0839 22.5787 60.8154 22.2078C61.5468 21.8368 62.3608 21.6586 63.1804 21.69C64.0282 21.6457 64.8733 21.818 65.6361 22.1907C66.3989 22.5633 67.0542 23.1241 67.5404 23.82C68.6541 25.6407 69.1812 27.7598 69.0504 29.89C69.1781 32.0275 68.6663 34.1546 67.5804 36C67.1233 36.6999 66.4921 37.2688 65.7488 37.651C65.0054 38.0332 64.1755 38.2155 63.3404 38.18" fill="#040505"/>
<path d="M75.0018 25.25C73.6684 25.25 73.0018 26.7567 73.0018 29.77C72.9102 31.0862 73.0767 32.4076 73.4918 33.66C73.6004 33.9502 73.794 34.2009 74.0473 34.3793C74.3007 34.5577 74.6019 34.6555 74.9118 34.66C75.2364 34.6601 75.554 34.5655 75.8257 34.3879C76.0974 34.2103 76.3115 33.9574 76.4418 33.66C76.9026 32.4422 77.0936 31.1389 77.0018 29.84C77.0018 26.7734 76.3351 25.2434 75.0018 25.25ZM75.1318 38.2C74.2749 38.2453 73.421 38.0662 72.6546 37.6804C71.8882 37.2945 71.2357 36.7153 70.7618 36C69.6526 34.0974 69.134 31.908 69.2718 29.71C69.1529 27.6327 69.6767 25.5692 70.7718 23.8C71.2306 23.1202 71.8553 22.5687 72.5867 22.1978C73.3182 21.8268 74.1322 21.6486 74.9518 21.68C75.7996 21.6357 76.6447 21.808 77.4075 22.1807C78.1703 22.5533 78.8256 23.1141 79.3118 23.81C80.4272 25.63 80.9545 27.7496 80.8218 29.88C80.9461 32.0229 80.4272 34.1541 79.3318 36C78.8756 36.6984 78.246 37.2663 77.5046 37.6485C76.7631 38.0306 75.9352 38.2137 75.1018 38.18" fill="#040505"/>
<path d="M81.1016 22.11H84.6616V29.49H84.7216L88.0816 22.11H91.8216L88.1716 30.12L91.6616 37.79H87.7516L84.7216 31.27H84.6616V37.79H81.1016V22.11Z" fill="#040505"/>
<path d="M91.9507 37.51V33.86C92.797 34.4293 93.7744 34.7734 94.7907 34.86C95.1791 34.8817 95.5603 34.7487 95.8507 34.49C95.9832 34.3607 96.0865 34.2046 96.1537 34.0321C96.221 33.8596 96.2507 33.6748 96.2407 33.49C96.2379 33.1704 96.1289 32.8608 95.9307 32.61C95.614 32.2327 95.2512 31.8968 94.8507 31.61C93.8286 30.8828 92.9247 30.0025 92.1707 29C91.6218 28.2036 91.3319 27.2572 91.3407 26.29C91.3122 25.6796 91.4114 25.0701 91.632 24.5003C91.8526 23.9305 92.1897 23.413 92.6217 22.981C93.0538 22.549 93.5713 22.2119 94.141 21.9913C94.7108 21.7707 95.3204 21.6715 95.9307 21.7C96.9653 21.7037 97.9874 21.9251 98.9307 22.35V25.86C98.1505 25.3739 97.2665 25.0792 96.3507 25C95.9907 24.9895 95.6378 25.1024 95.3507 25.32C95.2237 25.4295 95.1235 25.5667 95.0576 25.7209C94.9917 25.8752 94.962 26.0425 94.9707 26.21C94.9707 26.8766 95.5607 27.6166 96.7407 28.43C97.5488 29.0105 98.2724 29.7004 98.8907 30.48C99.6077 31.3371 99.9944 32.4225 99.9807 33.54C99.9968 34.1688 99.8784 34.7939 99.6335 35.3733C99.3886 35.9527 99.0229 36.4732 98.5607 36.9C97.5825 37.7998 96.289 38.2777 94.9607 38.23C93.9203 38.2296 92.8939 37.9901 91.9607 37.53" fill="#040505"/>
<path d="M34.7411 33.72L31.1611 28.6C27.5811 23.48 35.2511 20.16 35.2511 20.16L34.6911 19.6C34.6911 19.6 22.2211 22.17 27.4411 29.6L31.0011 35C32.3311 37 30.3411 38.16 29.1111 38.16H26.8311V39.16H28.5811C31.5811 39.16 37.9211 38.51 34.7411 33.78" fill="#0D83DD"/>
<path d="M76.6389 14.75C76.6389 14.75 74.9789 15.75 71.9289 20.19C71.4489 20.89 71.1289 20.82 71.1289 20.82C71.1289 20.82 71.2689 21.89 72.8389 21.57C72.8389 21.57 75.0589 16.31 77.3789 15.26L76.6389 14.75V14.75Z" fill="#648C0F"/>
<path d="M74.4688 17.46C74.4688 17.46 75.4688 3.07 87.1588 3.46C96.8188 3.76 99.9287 0 99.9287 0C99.9287 0 100.029 20.44 74.4688 17.46Z" fill="#86C61F"/>
<path d="M75.8681 16.07C75.8681 16.07 80.6981 8.78003 86.3981 8.22003C89.7626 7.92704 92.9874 6.73931 95.7381 4.78003C93.2047 7.56058 89.7389 9.31479 85.9981 9.71003C80.6781 10.24 75.8281 16.07 75.8281 16.07" fill="#648C0F"/>
</svg>
