<svg width="87" height="29" viewBox="0 0 87 29" fill="none" xmlns="http://www.w3.org/2000/svg">
<path fill-rule="evenodd" clip-rule="evenodd" d="M0.132511 11.979L1.1925 6.91058L4.15148 6.97557C5.04941 1.45948 8.77391 -0.655978 15.1262 0.174241L14.1547 5.22108L11.7698 5.17778C10.5895 5.22215 9.9583 5.8549 9.7824 6.97557L12.8739 6.9539L11.9023 11.9574L8.74454 12.0007L5.54265 27.9859L0 28.0076L3.15773 11.9574L0.132511 11.979ZM14.6892 6.7367H20.5189L18.2886 18C17.8469 20.3826 17.3832 23.0251 20.276 23.5233C21.0787 23.6367 21.904 23.5244 22.6851 23.1655C25.0396 22.0833 25.6129 19.7935 26.0889 17.4952L28.3139 6.75834L33.9006 6.7367L29.6167 27.8554L24.4936 27.9203L24.7145 26.8806C21.3072 29.0842 17.1638 28.7893 14.6915 27.188C12.2904 25.5275 11.743 22.6191 12.3451 18.9371L14.6892 6.7367ZM31.5117 27.9231L36.9881 0.198138L42.4865 0.219775L41.0071 7.67086C43.7949 5.97446 47.8307 6.07981 50.7007 7.52658C52.0263 8.19472 53.3211 9.32286 54.1212 10.5607C55.2849 12.3604 55.5386 14.5867 55.5812 17.6779C55.7641 20.775 57.7795 23.7534 61.5518 23.1809C63.6943 22.8558 65.3893 21.7902 66.3187 19.8211C67.5172 17.2815 67.0717 14.0548 65.474 12.6744C63.6117 11.0571 59.6296 10.7394 57.5686 13.4108C57.1729 11.5752 56.6099 9.83867 55.3604 8.32063C60.324 4.58357 68.3569 5.87161 71.311 11.145C73.0957 14.3308 72.9762 18.5685 71.2757 22.0013C69.8462 24.8877 67.2547 27.1131 64.1021 28.0121C61.4178 28.7776 58.5175 28.5847 56.1434 27.5814C54.1709 26.7479 52.3161 25.1168 51.3761 23.1959C49.7968 19.9685 51.6122 16.9706 49.354 13.3675C48.0126 11.6239 45.2799 11.05 43.0007 11.9471C41.0746 12.7052 39.7561 14.449 39.3305 16.4186C38.8594 18.5993 39.3288 21.1154 41.1395 22.3781C43.068 23.8366 46.8072 23.5406 48.7137 21.1002C48.9526 22.9883 49.5783 24.7499 51.0544 26.2336C48.3751 28.5802 40.6831 29.7571 37.3193 26.1903L36.9881 27.9014L31.5117 27.9231Z" fill="url(#paint0_linear)"/>
<path fill-rule="evenodd" clip-rule="evenodd" d="M71.6719 0L80.9685 0.0216169L81.4985 5.78322L84.6341 0.0216169H86.9307L81.8739 8.46908L79.9307 8.4907L78.9622 1.75443L75.8234 1.77611L74.1231 8.46908L71.9811 8.4907L73.6152 1.79779L71.1641 1.84108L71.6719 0Z" fill="#0E41A7"/>
<defs>
<linearGradient id="paint0_linear" x1="3" y1="4.5" x2="72.5" y2="22.5" gradientUnits="userSpaceOnUse">
<stop stop-color="#BD00FF"/>
<stop offset="1" stop-color="#0544A3"/>
</linearGradient>
</defs>
</svg>
