<svg width="750" height="95" viewBox="0 0 750 95" fill="none" xmlns="http://www.w3.org/2000/svg">
<path d="M83.28 77.76V53.54C83.28 51.2067 82.7667 49.1067 81.74 47.24C80.8067 45.28 79.5467 43.6467 77.96 42.34C76.3733 40.94 74.5533 39.8667 72.5 39.12C70.4467 38.3733 68.3467 38 66.2 38H39.32C37.7333 38 36.3333 38.28 35.12 38.84C34 39.4 33.02 40.1467 32.18 41.08C31.4333 42.0133 30.8267 43.04 30.36 44.16C29.9867 45.1867 29.8 46.26 29.8 47.38C29.8 48.5 29.9867 49.62 30.36 50.74C30.8267 51.7667 31.4333 52.7467 32.18 53.68C33.02 54.6133 34 55.36 35.12 55.92C36.3333 56.48 37.7333 56.76 39.32 56.76H64.52V74.54H18.88V19.66H19.58H73.34C74.8333 19.66 76.1867 19.38 77.4 18.82C78.6133 18.26 79.5933 17.5133 80.34 16.58C81.18 15.6467 81.7867 14.6667 82.16 13.64C82.6267 12.52 82.86 11.4 82.86 10.28C82.86 9.16 82.6267 8.08666 82.16 7.05999C81.7867 5.94 81.18 4.91333 80.34 3.97999C79.5933 3.04666 78.6133 2.29999 77.4 1.74C76.1867 1.18 74.8333 0.899999 73.34 0.899999H19.58C17.06 0.899999 14.6333 1.32 12.3 2.16C9.96667 2.90666 7.86667 4.07333 6 5.66C4.22667 7.15333 2.78 9.06667 1.66 11.4C0.633333 13.64 0.12 16.2067 0.12 19.1V76.64C0.12 79.16 0.586667 81.4467 1.52 83.5C2.45333 85.5533 3.66667 87.28 5.16 88.68C6.74667 90.1733 8.56667 91.34 10.62 92.18C12.7667 93.02 15.0533 93.44 17.48 93.44H66.34C71.66 93.44 75.8133 92.18 78.8 89.66C81.7867 87.14 83.28 83.1733 83.28 77.76ZM177.969 84.06V19.1C177.969 15.9267 177.363 13.22 176.149 10.98C175.029 8.64666 173.536 6.73333 171.669 5.23999C169.803 3.74666 167.703 2.67333 165.369 2.01999C163.129 1.27333 160.843 0.899999 158.509 0.899999H111.609C108.996 0.899999 106.523 1.32 104.189 2.16C101.949 3 99.9426 4.21333 98.1692 5.79999C96.4892 7.29333 95.1359 9.20666 94.1092 11.54C93.0826 13.78 92.5692 16.3467 92.5692 19.24V84.2C92.5692 85.7867 92.8492 87.14 93.4092 88.26C93.9692 89.4733 94.7159 90.4533 95.6492 91.2C96.5826 92.04 97.6092 92.6467 98.7292 93.02C99.8492 93.3933 100.923 93.58 101.949 93.58C102.976 93.58 104.049 93.3933 105.169 93.02C106.289 92.6467 107.269 92.04 108.109 91.2C109.043 90.4533 109.789 89.4733 110.349 88.26C111.003 87.14 111.329 85.7867 111.329 84.2V57.04H159.349V84.34C159.349 85.9267 159.629 87.28 160.189 88.4C160.843 89.6133 161.589 90.5933 162.429 91.34C163.363 92.18 164.389 92.74 165.509 93.02C166.629 93.3933 167.749 93.58 168.869 93.58C171.016 93.4867 173.069 92.6 175.029 90.92C176.989 89.3333 177.969 87.0467 177.969 84.06ZM159.349 38.14H111.329L111.189 20.22H159.349V38.14ZM279.186 78.32V10.14C279.186 8.55333 278.859 7.2 278.206 6.08C277.646 4.86666 276.899 3.88666 275.966 3.13999C275.126 2.29999 274.146 1.69333 273.026 1.31999C271.906 0.946659 270.833 0.759992 269.806 0.759992C268.779 0.759992 267.706 0.946659 266.586 1.31999C265.466 1.69333 264.439 2.29999 263.506 3.13999C262.573 3.88666 261.826 4.86666 261.266 6.08C260.706 7.2 260.426 8.55333 260.426 10.14V64.6L213.106 8.6C211.333 6.54666 208.999 4.77333 206.106 3.27999C203.213 1.69333 200.366 0.946665 197.566 1.04C194.766 1.04 192.339 2.11333 190.286 4.26C188.233 6.40666 187.206 10.14 187.206 15.46V83.78C187.206 85.3667 187.486 86.72 188.046 87.84C188.606 89.0533 189.353 90.0333 190.286 90.78C191.219 91.62 192.246 92.2267 193.366 92.6C194.486 92.9733 195.559 93.16 196.586 93.16C197.613 93.16 198.686 92.9733 199.806 92.6C200.926 92.2267 201.906 91.62 202.746 90.78C203.679 90.0333 204.426 89.0533 204.986 87.84C205.639 86.72 205.966 85.3667 205.966 83.78V29.32L253.286 85.18C254.499 86.6733 255.993 88.0267 257.766 89.24C259.539 90.4533 261.359 91.3867 263.226 92.04C265.186 92.6933 267.099 93.02 268.966 93.02C270.926 93.02 272.653 92.5067 274.146 91.48C275.639 90.4533 276.853 88.9133 277.786 86.86C278.719 84.7133 279.186 81.8667 279.186 78.32ZM371.705 10.28C371.705 9.16 371.472 8.08666 371.005 7.05999C370.632 5.94 370.072 4.91333 369.325 3.97999C368.578 3.04666 367.598 2.29999 366.385 1.74C365.172 1.18 363.818 0.899999 362.325 0.899999H337.965C336.658 0.899999 335.305 0.993331 333.905 1.18C332.598 1.36666 331.292 1.69333 329.985 2.16C328.678 1.6 327.372 1.27333 326.065 1.18C324.758 0.993331 323.452 0.899999 322.145 0.899999H297.785C296.198 0.899999 294.798 1.22666 293.585 1.87999C292.465 2.43999 291.485 3.18666 290.645 4.12C289.898 4.96 289.338 5.94 288.965 7.05999C288.592 8.18 288.405 9.25333 288.405 10.28C288.405 11.3067 288.592 12.38 288.965 13.5C289.338 14.62 289.898 15.6467 290.645 16.58C291.485 17.5133 292.465 18.26 293.585 18.82C294.798 19.38 296.198 19.66 297.785 19.66H320.605V83.78C320.605 86.86 321.585 89.1933 323.545 90.78C325.598 92.46 327.745 93.3 329.985 93.3C331.105 93.3 332.178 93.0667 333.205 92.6C334.325 92.2267 335.352 91.62 336.285 90.78C337.218 90.0333 337.965 89.0533 338.525 87.84C339.085 86.72 339.365 85.3667 339.365 83.78V19.66H362.325C363.818 19.66 365.172 19.38 366.385 18.82C367.598 18.26 368.578 17.5133 369.325 16.58C370.072 15.6467 370.632 14.6667 371.005 13.64C371.472 12.52 371.705 11.4 371.705 10.28ZM464.291 10.28C464.291 9.16 464.058 8.08666 463.591 7.05999C463.218 5.94 462.658 4.91333 461.911 3.97999C461.164 3.04666 460.184 2.29999 458.971 1.74C457.758 1.18 456.404 0.899999 454.911 0.899999H430.551C429.244 0.899999 427.891 0.993331 426.491 1.18C425.184 1.36666 423.878 1.69333 422.571 2.16C421.264 1.6 419.958 1.27333 418.651 1.18C417.344 0.993331 416.038 0.899999 414.731 0.899999H390.371C388.784 0.899999 387.384 1.22666 386.171 1.87999C385.051 2.43999 384.071 3.18666 383.231 4.12C382.484 4.96 381.924 5.94 381.551 7.05999C381.178 8.18 380.991 9.25333 380.991 10.28C380.991 11.3067 381.178 12.38 381.551 13.5C381.924 14.62 382.484 15.6467 383.231 16.58C384.071 17.5133 385.051 18.26 386.171 18.82C387.384 19.38 388.784 19.66 390.371 19.66H413.191V83.78C413.191 86.86 414.171 89.1933 416.131 90.78C418.184 92.46 420.331 93.3 422.571 93.3C423.691 93.3 424.764 93.0667 425.791 92.6C426.911 92.2267 427.938 91.62 428.871 90.78C429.804 90.0333 430.551 89.0533 431.111 87.84C431.671 86.72 431.951 85.3667 431.951 83.78V19.66H454.911C456.404 19.66 457.758 19.38 458.971 18.82C460.184 18.26 461.164 17.5133 461.911 16.58C462.658 15.6467 463.218 14.6667 463.591 13.64C464.058 12.52 464.291 11.4 464.291 10.28ZM561.217 40.38V17.28C561.217 14.48 560.704 12.0533 559.677 10C558.744 7.94666 557.437 6.26666 555.757 4.96C554.17 3.56 552.304 2.53333 550.157 1.87999C548.104 1.22666 546.004 0.899999 543.857 0.899999H482.957C480.437 0.899999 478.244 1.74 476.377 3.42C474.51 5.00666 473.577 7.15333 473.577 9.86V83.78C473.577 85.8333 473.857 87.4667 474.417 88.68C475.07 89.9867 475.864 90.9667 476.797 91.62C477.73 92.3667 478.71 92.8333 479.737 93.02C480.857 93.3 481.884 93.44 482.817 93.44C484.777 93.44 486.364 93.0667 487.577 92.32C488.884 91.5733 489.864 90.6867 490.517 89.66C491.264 88.6333 491.73 87.6067 491.917 86.58C492.197 85.46 492.337 84.5267 492.337 83.78L492.477 56.76H543.997C546.33 56.76 548.524 56.3867 550.577 55.64C552.63 54.8933 554.45 53.82 556.037 52.42C557.624 50.9267 558.884 49.2 559.817 47.24C560.75 45.1867 561.217 42.9 561.217 40.38ZM542.457 38H492.337V19.66H542.457V38ZM656.081 78.18C653.375 74.6333 650.668 71.0867 647.961 67.54C645.348 63.9 642.595 60.3067 639.701 56.76C641.848 56.6667 643.901 56.2 645.861 55.36C647.821 54.52 649.501 53.4 650.901 52C652.395 50.5067 653.561 48.8267 654.401 46.96C655.241 45 655.661 42.8067 655.661 40.38V17.56C655.661 14.9467 655.195 12.6133 654.261 10.56C653.328 8.50666 652.068 6.78 650.481 5.38C648.988 3.98 647.215 2.90666 645.161 2.16C643.108 1.41333 640.915 1.04 638.581 1.04H579.781C577.168 1.04 574.928 1.97333 573.061 3.83999C571.288 5.61333 570.401 7.80666 570.401 10.42V50.32V78.04V84.06C570.401 85.6467 570.681 87 571.241 88.12C571.801 89.3333 572.548 90.3133 573.481 91.06C574.415 91.9 575.395 92.5067 576.421 92.88C577.541 93.3467 578.661 93.58 579.781 93.58C580.901 93.58 581.975 93.3467 583.001 92.88C584.121 92.5067 585.148 91.9 586.081 91.06C587.015 90.3133 587.761 89.3333 588.321 88.12C588.881 87 589.161 85.6467 589.161 84.06V78.04V56.76H611.281C612.961 56.76 614.735 57.5533 616.601 59.14C618.468 60.7267 620.288 62.5933 622.061 64.74C623.928 66.8867 625.655 69.08 627.241 71.32C628.828 73.4667 630.088 75.1467 631.021 76.36C632.701 78.6 634.335 80.7933 635.921 82.94C637.601 84.9933 638.861 86.5333 639.701 87.56C640.541 88.68 641.008 89.3333 641.101 89.52C643.435 92.6 645.768 94.0933 648.101 94C650.528 93.9067 652.581 92.9733 654.261 91.2C655.941 89.52 657.015 87.42 657.481 84.9C657.948 82.2867 657.481 80.0467 656.081 78.18ZM636.621 38H589.161V19.66H636.621V38ZM749.975 76.36V17.56C749.975 12.52 748.389 8.50666 745.215 5.52C742.042 2.44 737.982 0.899999 733.035 0.899999H683.755C681.329 0.899999 679.089 1.32 677.035 2.16C674.982 2.90666 673.209 4.02666 671.715 5.52C670.222 6.92 669.009 8.64666 668.075 10.7C667.235 12.7533 666.815 14.9933 666.815 17.42V76.64C666.815 79.0667 667.282 81.3067 668.215 83.36C669.242 85.4133 670.549 87.1867 672.135 88.68C673.722 90.1733 675.542 91.2933 677.595 92.04C679.742 92.88 681.935 93.3 684.175 93.3L733.315 93.44C738.542 93.44 742.602 91.9 745.495 88.82C748.482 85.74 749.975 81.5867 749.975 76.36ZM731.775 74.68H685.575V19.52H731.775V74.68Z" fill="#0D5C54"/>
</svg>
