<svg width="366" height="74" viewBox="0 0 366 74" fill="none" xmlns="http://www.w3.org/2000/svg">
<path d="M37.2803 48.8135C35.8643 50.5225 34.1553 52.3047 32.1533 54.1602C30.1514 56.0156 28.0029 57.7002 25.708 59.2139C23.4131 60.7275 21.0693 61.9482 18.6768 62.876C16.2842 63.8037 14.0137 64.2432 11.8652 64.1943C9.7168 64.0967 7.73926 63.4131 5.93262 62.1436C4.1748 60.8252 2.7832 58.6523 1.75781 55.625C1.12305 53.4766 0.878906 50.9619 1.02539 48.0811C1.2207 45.2002 1.70898 42.1729 2.49023 38.999C3.32031 35.7764 4.41895 32.5293 5.78613 29.2578C7.20215 25.9375 8.83789 22.7881 10.6934 19.8096C12.5977 16.8311 14.6973 14.0967 16.9922 11.6064C19.3359 9.06738 21.8018 7.0166 24.3896 5.4541C27.0264 3.84277 29.7852 2.79297 32.666 2.30469C35.5469 1.76758 38.501 2.01172 41.5283 3.03711C41.9189 3.03711 42.1631 3.13477 42.2607 3.33008C42.3584 3.47656 42.3828 3.69629 42.334 3.98926C42.2852 4.28223 42.1875 4.64844 42.041 5.08789C41.9434 5.52734 41.8945 6.04004 41.8945 6.62598C38.3301 6.1377 34.9365 6.47949 31.7139 7.65137C28.4912 8.77441 25.4883 10.4834 22.7051 12.7783C19.9707 15.0732 17.5049 17.8076 15.3076 20.9814C13.1104 24.1553 11.2549 27.5244 9.74121 31.0889C8.27637 34.6533 7.20215 38.291 6.51855 42.002C5.83496 45.6641 5.61523 49.1553 5.85938 52.4756C6.05469 55.3076 6.88477 57.2363 8.34961 58.2617C9.81445 59.2383 11.5967 59.5801 13.6963 59.2871C15.8447 58.9453 18.1641 58.0908 20.6543 56.7236C23.1445 55.3076 25.5371 53.5986 27.832 51.5967C30.1758 49.5459 32.251 47.3242 34.0576 44.9316C35.9131 42.5391 37.2314 40.1953 38.0127 37.9004H24.8291C24.0967 36.875 24.0234 36.0938 24.6094 35.5566C25.1953 35.0195 26.1963 34.6533 27.6123 34.458C29.0771 34.2139 30.8105 34.0918 32.8125 34.0918C34.8145 34.0918 36.8652 34.1406 38.9648 34.2383C39.5996 34.0918 40.4785 33.7988 41.6016 33.3594C42.7246 32.8711 43.7988 32.4805 44.8242 32.1875C45.8496 31.8945 46.6553 31.8213 47.2412 31.9678C47.876 32.1143 47.9736 32.7002 47.5342 33.7256C47.4854 33.8232 47.3145 33.9941 47.0215 34.2383C46.7285 34.4336 46.3867 34.6533 45.9961 34.8975C45.6543 35.0928 45.3125 35.2881 44.9707 35.4834C44.6777 35.6787 44.4824 35.8008 44.3848 35.8496C43.2129 38.1445 42.3828 40.8301 41.8945 43.9062C41.4062 46.9824 41.1377 50.1807 41.0889 53.501C41.04 56.8213 41.1377 60.1172 41.3818 63.3887C41.6748 66.6602 42.0166 69.6143 42.4072 72.251L39.624 73.2031C39.1357 72.4707 38.7207 71.0547 38.3789 68.9551C38.0859 66.8555 37.8418 64.5361 37.6465 61.9971C37.4512 59.458 37.3291 56.9922 37.2803 54.5996C37.2314 52.1582 37.2314 50.2295 37.2803 48.8135ZM45.2637 65C45.6055 63.877 46.1426 62.0215 46.875 59.4336C47.6562 56.8457 48.6572 53.1592 49.8779 48.374C51.0986 43.54 52.5879 37.4121 54.3457 29.9902C56.1523 22.5684 58.252 13.4375 60.6445 2.59766C60.9375 2.10938 61.3525 1.79199 61.8896 1.64551C62.4268 1.4502 62.9639 1.40137 63.501 1.49902C64.0381 1.54785 64.4775 1.71875 64.8193 2.01172C65.21 2.25586 65.3809 2.54883 65.332 2.89062L79.7607 37.9736L87.2314 35.7031C87.8662 35.7031 88.4033 35.874 88.8428 36.2158C89.2822 36.5576 89.5264 36.9727 89.5752 37.4609C89.624 37.9492 89.4531 38.4863 89.0625 39.0723C88.6719 39.6094 87.9883 40.0488 87.0117 40.3906C86.6211 40.5371 86.1084 40.708 85.4736 40.9033C84.8389 41.0498 84.2041 41.1963 83.5693 41.3428C82.9346 41.4893 82.3975 41.6357 81.958 41.7822C81.5186 41.9287 81.2988 42.0752 81.2988 42.2217L89.4287 63.9014C89.3311 64.1455 89.2334 64.4629 89.1357 64.8535C89.0381 65.1953 88.8428 65.4639 88.5498 65.6592C88.2568 65.9033 87.8174 65.9766 87.2314 65.8789C86.6455 65.8301 85.8154 65.4883 84.7412 64.8535L76.3184 43.3203C75.293 43.6133 74.0234 43.9062 72.5098 44.1992C70.9961 44.4434 69.4092 44.7119 67.749 45.0049C66.0889 45.249 64.4043 45.5664 62.6953 45.957C61.0352 46.2988 59.4971 46.7383 58.0811 47.2754C56.665 47.8125 55.4688 48.4717 54.4922 49.2529C53.5156 49.9854 52.9297 50.8887 52.7344 51.9629C52.6367 52.6465 52.4414 53.7695 52.1484 55.332C51.9043 56.8945 51.6602 58.457 51.416 60.0195C51.123 61.875 50.7812 63.877 50.3906 66.0254C49.5117 66.9043 48.7061 67.1973 47.9736 66.9043C47.29 66.6113 46.3867 65.9766 45.2637 65ZM63.6475 10.6543L55.8838 43.2471C56.7139 42.9541 57.8613 42.6367 59.3262 42.2949C60.791 41.9531 62.3779 41.5869 64.0869 41.1963C65.7959 40.8057 67.5049 40.415 69.2139 40.0244C70.9717 39.6338 72.5586 39.2188 73.9746 38.7793L63.6475 10.6543ZM91.333 3.40332C91.8701 2.62207 92.5049 2.40234 93.2373 2.74414C94.0186 3.03711 94.7266 3.52539 95.3613 4.20898C96.0449 4.84375 96.582 5.50293 96.9727 6.18652C97.3633 6.82129 97.4609 7.11426 97.2656 7.06543L124.146 52.9883C124.292 52.2559 124.414 51.084 124.512 49.4727C124.658 47.8125 124.756 45.8838 124.805 43.6865C124.854 41.4404 124.854 38.999 124.805 36.3623C124.805 33.7256 124.756 31.0889 124.658 28.4521C124.609 25.8154 124.512 23.2275 124.365 20.6885C124.219 18.1494 124.048 15.8789 123.853 13.877C123.657 11.8262 123.438 10.1416 123.193 8.82324C122.949 7.45605 122.656 6.62598 122.314 6.33301C122.314 5.55176 122.461 4.81934 122.754 4.13574C123.047 3.40332 123.633 3.03711 124.512 3.03711C125.342 3.03711 126.025 3.52539 126.562 4.50195C127.1 5.47852 127.515 6.57715 127.808 7.79785C128.101 9.01855 128.296 10.2148 128.394 11.3867C128.54 12.5586 128.613 13.3154 128.613 13.6572C128.662 14.6338 128.687 16.1963 128.687 18.3447C128.735 20.4443 128.76 22.8613 128.76 25.5957C128.809 28.3301 128.833 31.2109 128.833 34.2383C128.882 37.2168 128.906 40.0732 128.906 42.8076C128.955 45.542 128.979 47.9834 128.979 50.1318C128.979 52.2803 129.004 53.8428 129.053 54.8193C129.102 56.1865 129.272 57.3828 129.565 58.4082C129.907 59.4336 130.078 60.6055 130.078 61.9238C130.078 62.998 129.663 63.8037 128.833 64.3408C128.052 64.8779 127.173 65.1465 126.196 65.1465C125.659 65.1465 125.171 65.0732 124.731 64.9268C124.341 64.7803 124.023 64.5361 123.779 64.1943C123.535 63.8525 123.389 63.4131 123.34 62.876C123.34 62.29 123.462 61.582 123.706 60.752C122.827 59.7266 121.704 58.0176 120.337 55.625C118.97 53.1836 117.456 50.4492 115.796 47.4219C114.185 44.3457 112.476 41.123 110.669 37.7539C108.911 34.3848 107.202 31.2109 105.542 28.2324C103.931 25.2051 102.417 22.5684 101.001 20.3223C99.585 18.0762 98.4375 16.5381 97.5586 15.708C97.3145 18.8818 97.2412 22.5684 97.3389 26.7676C97.4365 30.918 97.6074 35.1904 97.8516 39.585C98.0957 43.9307 98.3398 48.1787 98.584 52.3291C98.877 56.4795 99.0234 60.1416 99.0234 63.3154C99.0234 64.3408 98.7305 64.9756 98.1445 65.2197C97.5586 65.5127 96.9482 65.5859 96.3135 65.4395C95.6787 65.293 95.1416 65.0488 94.7021 64.707C94.2627 64.3164 94.1895 64.0234 94.4824 63.8281L91.333 3.40332ZM157.324 8.67676C155.42 8.43262 153.516 8.4082 151.611 8.60352C149.707 8.75 147.803 8.94531 145.898 9.18945C144.043 9.43359 142.163 9.67773 140.259 9.92188C138.354 10.1172 136.45 10.1416 134.546 9.99512C134.009 9.94629 133.447 9.82422 132.861 9.62891C132.324 9.43359 132.104 8.9209 132.202 8.09082C132.251 7.55371 132.52 7.0166 133.008 6.47949C133.496 5.94238 134.009 5.69824 134.546 5.74707L156.592 4.42871C156.641 4.18457 156.738 3.84277 156.885 3.40332C157.031 2.91504 157.227 2.45117 157.471 2.01172C157.715 1.57227 158.008 1.20605 158.35 0.913086C158.691 0.571289 159.082 0.424805 159.521 0.473633C160.156 0.522461 160.645 0.742187 160.986 1.13281C161.377 1.47461 161.694 1.86523 161.938 2.30469C162.183 2.69531 162.402 3.06152 162.598 3.40332C162.793 3.74512 163.037 3.94043 163.33 3.98926C171.191 3.98926 179.272 3.84277 187.573 3.5498C187.72 3.5498 188.11 3.57422 188.745 3.62305C189.38 3.62305 189.819 3.64746 190.063 3.69629C190.356 4.52637 190.039 5.18555 189.111 5.67383C188.232 6.11328 186.938 6.45508 185.229 6.69922C183.569 6.94336 181.665 7.11426 179.517 7.21191C177.368 7.30957 175.22 7.38281 173.071 7.43164C170.972 7.48047 168.97 7.55371 167.065 7.65137C165.21 7.74902 163.745 7.89551 162.671 8.09082C162.28 10.6299 162.061 13.3643 162.012 16.2939C161.963 19.2236 161.963 22.251 162.012 25.376C162.109 28.501 162.256 31.6748 162.451 34.8975C162.646 38.1201 162.817 41.2939 162.964 44.4189C163.159 47.5439 163.281 50.5713 163.33 53.501C163.379 56.4307 163.306 59.165 163.11 61.7041C163.403 63.2666 163.257 64.1699 162.671 64.4141C162.134 64.6094 161.084 64.585 159.521 64.3408C159.131 62.3389 158.838 59.9219 158.643 57.0898C158.447 54.209 158.301 51.1084 158.203 47.7881C158.105 44.4189 158.057 40.9521 158.057 37.3877C158.057 33.7744 158.032 30.2344 157.983 26.7676C157.935 23.3008 157.861 20.0293 157.764 16.9531C157.715 13.8281 157.568 11.0693 157.324 8.67676ZM217.529 8.67676C215.625 8.43262 213.721 8.4082 211.816 8.60352C209.912 8.75 208.008 8.94531 206.104 9.18945C204.248 9.43359 202.368 9.67773 200.464 9.92188C198.56 10.1172 196.655 10.1416 194.751 9.99512C194.214 9.94629 193.652 9.82422 193.066 9.62891C192.529 9.43359 192.31 8.9209 192.407 8.09082C192.456 7.55371 192.725 7.0166 193.213 6.47949C193.701 5.94238 194.214 5.69824 194.751 5.74707L216.797 4.42871C216.846 4.18457 216.943 3.84277 217.09 3.40332C217.236 2.91504 217.432 2.45117 217.676 2.01172C217.92 1.57227 218.213 1.20605 218.555 0.913086C218.896 0.571289 219.287 0.424805 219.727 0.473633C220.361 0.522461 220.85 0.742187 221.191 1.13281C221.582 1.47461 221.899 1.86523 222.144 2.30469C222.388 2.69531 222.607 3.06152 222.803 3.40332C222.998 3.74512 223.242 3.94043 223.535 3.98926C231.396 3.98926 239.478 3.84277 247.778 3.5498C247.925 3.5498 248.315 3.57422 248.95 3.62305C249.585 3.62305 250.024 3.64746 250.269 3.69629C250.562 4.52637 250.244 5.18555 249.316 5.67383C248.438 6.11328 247.144 6.45508 245.435 6.69922C243.774 6.94336 241.87 7.11426 239.722 7.21191C237.573 7.30957 235.425 7.38281 233.276 7.43164C231.177 7.48047 229.175 7.55371 227.271 7.65137C225.415 7.74902 223.95 7.89551 222.876 8.09082C222.485 10.6299 222.266 13.3643 222.217 16.2939C222.168 19.2236 222.168 22.251 222.217 25.376C222.314 28.501 222.461 31.6748 222.656 34.8975C222.852 38.1201 223.022 41.2939 223.169 44.4189C223.364 47.5439 223.486 50.5713 223.535 53.501C223.584 56.4307 223.511 59.165 223.315 61.7041C223.608 63.2666 223.462 64.1699 222.876 64.4141C222.339 64.6094 221.289 64.585 219.727 64.3408C219.336 62.3389 219.043 59.9219 218.848 57.0898C218.652 54.209 218.506 51.1084 218.408 47.7881C218.311 44.4189 218.262 40.9521 218.262 37.3877C218.262 33.7744 218.237 30.2344 218.188 26.7676C218.14 23.3008 218.066 20.0293 217.969 16.9531C217.92 13.8281 217.773 11.0693 217.529 8.67676ZM247.778 64.0479C247.778 59.0186 247.852 54.2334 247.998 49.6924C248.193 45.1514 248.364 40.8057 248.511 36.6553C248.657 32.5049 248.755 28.5254 248.804 24.7168C248.853 20.8594 248.73 17.124 248.438 13.5107C248.193 13.6572 247.9 13.9014 247.559 14.2432C247.266 14.585 246.948 14.9268 246.606 15.2686C246.313 15.6104 245.996 15.9277 245.654 16.2207C245.312 16.4648 245.02 16.5869 244.775 16.5869C244.385 16.5869 244.019 16.4404 243.677 16.1475C243.384 15.8057 243.237 15.3906 243.237 14.9023V14.6826C243.237 14.6338 243.262 14.5605 243.311 14.4629C243.75 13.9258 244.263 13.0713 244.849 11.8994C245.483 10.7275 246.143 9.55566 246.826 8.38379C247.559 7.21191 248.242 6.18652 248.877 5.30762C249.561 4.37988 250.146 3.91602 250.635 3.91602C251.123 3.91602 251.489 4.03809 251.733 4.28223C251.978 4.52637 252.173 4.81934 252.319 5.16113C252.515 5.50293 252.686 5.86914 252.832 6.25977C253.027 6.65039 253.32 6.96777 253.711 7.21191C255.371 6.23535 257.178 5.40527 259.131 4.72168C261.084 3.98926 263.037 3.50098 264.99 3.25684C266.992 2.96387 268.921 2.91504 270.776 3.11035C272.632 3.25684 274.316 3.69629 275.83 4.42871C277.393 5.16113 278.711 6.21094 279.785 7.57812C280.859 8.94531 281.567 10.6543 281.909 12.7051C281.86 15.3906 281.079 17.9053 279.565 20.249C278.052 22.5928 276.196 24.7412 273.999 26.6943C271.802 28.5986 269.434 30.3076 266.895 31.8213C264.355 33.2861 262.012 34.5801 259.863 35.7031C257.715 36.7773 255.957 37.6318 254.59 38.2666C253.223 38.9014 252.588 39.292 252.686 39.4385L251.733 63.9014C251.733 64.292 251.562 64.585 251.221 64.7803C250.879 64.9268 250.488 65 250.049 65C249.609 64.9512 249.17 64.8535 248.73 64.707C248.291 64.5117 247.974 64.292 247.778 64.0479ZM252.686 34.3115C255.176 33.3838 257.764 32.3096 260.449 31.0889C263.135 29.8682 265.649 28.4766 267.993 26.9141C270.337 25.3027 272.388 23.4961 274.146 21.4941C275.952 19.4434 277.173 17.0996 277.808 14.4629C277.417 11.6797 276.318 9.67773 274.512 8.45703C272.754 7.1875 270.63 6.55273 268.14 6.55273C265.698 6.50391 263.086 7.0166 260.303 8.09082C257.568 9.11621 255.029 10.5566 252.686 12.4121V34.3115ZM284.912 3.69629C285.059 3.35449 285.352 3.08594 285.791 2.89062C286.279 2.69531 286.768 2.59766 287.256 2.59766C287.793 2.59766 288.257 2.74414 288.647 3.03711C289.038 3.28125 289.282 3.69629 289.38 4.28223L289.819 8.31055C290.747 8.11523 291.846 7.72461 293.115 7.13867C294.385 6.50391 295.85 5.89355 297.51 5.30762C299.219 4.72168 301.123 4.2334 303.223 3.84277C305.322 3.45215 307.666 3.40332 310.254 3.69629C314.258 4.47754 317.163 5.40527 318.97 6.47949C320.776 7.55371 321.729 8.75 321.826 10.0684C321.973 11.3379 321.436 12.7295 320.215 14.2432C319.043 15.708 317.456 17.1973 315.454 18.7109C313.452 20.2246 311.206 21.7627 308.716 23.3252C306.226 24.8877 303.784 26.4014 301.392 27.8662C299.048 29.2822 296.851 30.6494 294.8 31.9678C292.798 33.2373 291.284 34.4092 290.259 35.4834L324.609 56.1377C324.609 56.9189 324.292 57.6758 323.657 58.4082C323.022 59.0918 322.29 59.3848 321.46 59.2871L289.16 40.6836V65C288.574 65.4883 288.062 65.8057 287.622 65.9521C287.231 66.0986 286.914 66.1475 286.67 66.0986C286.426 66.0498 286.206 65.9033 286.011 65.6592C285.815 65.4639 285.645 65.2441 285.498 65L284.912 3.69629ZM289.819 13.8037C289.722 14.7803 289.648 15.9521 289.6 17.3193C289.551 18.6865 289.526 20.1514 289.526 21.7139C289.526 23.2275 289.526 24.7412 289.526 26.2549C289.526 27.7197 289.526 29.0381 289.526 30.21C289.771 29.9658 290.527 29.5264 291.797 28.8916C293.115 28.208 294.702 27.3779 296.558 26.4014C298.413 25.4248 300.391 24.3506 302.49 23.1787C304.639 21.958 306.665 20.7129 308.569 19.4434C310.474 18.1738 312.134 16.9287 313.55 15.708C315.015 14.4385 315.942 13.2666 316.333 12.1924C316.772 11.1182 316.553 10.166 315.674 9.33594C314.844 8.45703 313.11 7.77344 310.474 7.28516C309.009 7.1875 307.275 7.23633 305.273 7.43164C303.32 7.62695 301.343 7.99316 299.341 8.53027C297.388 9.01855 295.557 9.70215 293.848 10.5811C292.139 11.46 290.796 12.5342 289.819 13.8037ZM326.44 46.4697C326.392 40.3174 327.026 34.7266 328.345 29.6973C329.663 24.6191 331.396 20.2002 333.545 16.4404C335.693 12.6807 338.086 9.65332 340.723 7.3584C343.408 5.01465 346.069 3.52539 348.706 2.89062C351.343 2.25586 353.833 2.5 356.177 3.62305C358.521 4.74609 360.425 6.87012 361.89 9.99512C363.208 12.7783 364.111 16.0254 364.6 19.7363C365.088 23.3984 365.161 27.207 364.819 31.1621C364.526 35.0684 363.818 38.9258 362.695 42.7344C361.572 46.543 360.034 50.0098 358.081 53.1348C356.177 56.2109 353.882 58.7744 351.196 60.8252C348.511 62.8271 345.435 63.999 341.968 64.3408C339.233 64.4873 336.89 63.9502 334.937 62.7295C332.983 61.46 331.372 59.8975 330.103 58.042C328.882 56.1377 327.954 54.1357 327.319 52.0361C326.733 49.8877 326.44 48.0322 326.44 46.4697ZM341.968 11.0205C341.138 11.7041 340.21 12.9004 339.185 14.6094C338.159 16.3184 337.158 18.3691 336.182 20.7617C335.205 23.1055 334.302 25.6689 333.472 28.4521C332.69 31.2354 332.056 34.043 331.567 36.875C331.128 39.707 330.908 42.4658 330.908 45.1514C330.957 47.8369 331.348 50.2783 332.08 52.4756C332.812 54.624 333.936 56.4307 335.449 57.8955C336.963 59.3115 338.989 60.1904 341.528 60.5322C343.481 60.7764 345.435 60.1416 347.388 58.6279C349.39 57.1143 351.221 55.0635 352.881 52.4756C354.541 49.8877 355.981 46.958 357.202 43.6865C358.472 40.3662 359.399 37.0703 359.985 33.7988C360.474 30.8691 360.718 28.0127 360.718 25.2295C360.718 22.3975 360.449 19.8096 359.912 17.4658C359.375 15.1221 358.594 13.0957 357.568 11.3867C356.543 9.67773 355.273 8.45703 353.76 7.72461C352.246 6.99219 350.488 6.87012 348.486 7.3584C346.533 7.79785 344.36 9.01855 341.968 11.0205Z" fill="#159700"/>
</svg>
