<svg width="257" height="47" viewBox="0 0 257 47" fill="none" xmlns="http://www.w3.org/2000/svg">
<g clip-path="url(#clip0)">
<path d="M28.4885 34.6021V26.3163C28.4885 25.5181 28.3129 24.7997 27.9617 24.1611C27.6424 23.4905 27.2114 22.9318 26.6685 22.4848C26.1257 22.0058 25.5031 21.6386 24.8006 21.3832C24.0982 21.1277 23.3798 21 22.6454 21H13.4496C12.9068 21 12.4278 21.0958 12.0127 21.2874C11.6296 21.479 11.2943 21.7344 11.007 22.0537C10.7515 22.373 10.544 22.7242 10.3843 23.1074C10.2566 23.4586 10.1927 23.8258 10.1927 24.209C10.1927 24.5921 10.2566 24.9753 10.3843 25.3584C10.544 25.7097 10.7515 26.0449 11.007 26.3642C11.2943 26.6835 11.6296 26.939 12.0127 27.1305C12.4278 27.3221 12.9068 27.4179 13.4496 27.4179H22.0706V33.5005H6.45696V14.7258H6.69643H25.088C25.5989 14.7258 26.0619 14.63 26.477 14.4384C26.892 14.2469 27.2273 13.9914 27.4827 13.6721C27.7701 13.3528 27.9777 13.0176 28.1054 12.6663C28.265 12.2832 28.3448 11.9 28.3448 11.5169C28.3448 11.1337 28.265 10.7665 28.1054 10.4153C27.9777 10.0321 27.7701 9.68089 27.4827 9.36159C27.2273 9.04229 26.892 8.78685 26.477 8.59528C26.0619 8.4037 25.5989 8.30791 25.088 8.30791H6.69643C5.83432 8.30791 5.00414 8.45159 4.2059 8.73896C3.40766 8.9944 2.68924 9.39352 2.05064 9.93633C1.44398 10.4472 0.949062 11.1018 0.565905 11.9C0.214676 12.6663 0.0390625 13.5444 0.0390625 14.5342V34.219C0.0390625 35.0811 0.198712 35.8634 0.51801 36.5658C0.837307 37.2682 1.2524 37.859 1.76327 38.3379C2.30608 38.8488 2.92871 39.2479 3.63117 39.5353C4.36556 39.8226 5.14782 39.9663 5.97801 39.9663H22.6933C24.5133 39.9663 25.9341 39.5353 26.9559 38.6732C27.9777 37.8111 28.4885 36.454 28.4885 34.6021ZM60.8821 36.7574V14.5342C60.8821 13.4486 60.6748 12.5226 60.2595 11.7563C59.8764 10.9581 59.3656 10.3035 58.7269 9.79264C58.0885 9.28176 57.3701 8.91457 56.5716 8.69106C55.8053 8.43563 55.0232 8.30791 54.2248 8.30791H38.18C37.2861 8.30791 36.4401 8.45159 35.6416 8.73896C34.8753 9.02633 34.1889 9.44141 33.5822 9.98422C33.0075 10.4951 32.5445 11.1497 32.1933 11.9479C31.8421 12.7142 31.6664 13.5923 31.6664 14.5821V36.8053C31.6664 37.3481 31.7622 37.8111 31.9538 38.1942C32.1454 38.6093 32.4008 38.9446 32.7201 39.2C33.0394 39.4874 33.3906 39.6949 33.7738 39.8226C34.1569 39.9504 34.5243 40.0142 34.8753 40.0142C35.2266 40.0142 35.5937 39.9504 35.9769 39.8226C36.36 39.6949 36.6953 39.4874 36.9827 39.2C37.3022 38.9446 37.5574 38.6093 37.749 38.1942C37.9727 37.8111 38.0842 37.3481 38.0842 36.8053V27.5137H54.5121V36.8532C54.5121 37.396 54.6079 37.859 54.7995 38.2421C55.0232 38.6572 55.2785 38.9925 55.5658 39.2479C55.8854 39.5353 56.2364 39.7269 56.6195 39.8226C57.0027 39.9504 57.3858 40.0142 57.769 40.0142C58.5035 39.9823 59.2058 39.679 59.8764 39.1042C60.5469 38.5614 60.8821 37.7791 60.8821 36.7574ZM54.5121 21.0479H38.0842L38.0363 14.9174H54.5121V21.0479ZM95.509 34.7937V11.469C95.509 10.9262 95.3971 10.4632 95.1737 10.08C94.9822 9.66492 94.7266 9.32966 94.4074 9.07422C94.1201 8.78685 93.7848 8.57931 93.4016 8.45159C93.0185 8.32387 92.6514 8.26001 92.3001 8.26001C91.9487 8.26001 91.5816 8.32387 91.1985 8.45159C90.8153 8.57931 90.464 8.78685 90.1448 9.07422C89.8256 9.32966 89.5701 9.66492 89.3785 10.08C89.1869 10.4632 89.0911 10.9262 89.0911 11.469V30.1L72.9027 10.9421C72.2961 10.2397 71.4977 9.63299 70.508 9.12211C69.5182 8.57931 68.5443 8.32387 67.5864 8.3558C66.6285 8.3558 65.7982 8.72299 65.0958 9.45738C64.3935 10.1918 64.0422 11.469 64.0422 13.289V36.6616C64.0422 37.2044 64.138 37.6674 64.3295 38.0505C64.5211 38.4656 64.7767 38.8009 65.0958 39.0563C65.415 39.3437 65.7664 39.5513 66.1495 39.679C66.5327 39.8067 66.8998 39.8705 67.2511 39.8705C67.6025 39.8705 67.9695 39.8067 68.3527 39.679C68.7358 39.5513 69.0711 39.3437 69.3585 39.0563C69.6777 38.8009 69.9332 38.4656 70.1248 38.0505C70.3482 37.6674 70.4601 37.2044 70.4601 36.6616V18.0305L86.6485 37.1405C87.0635 37.6514 87.5746 38.1144 88.1811 38.5295C88.7877 38.9446 89.4103 39.2639 90.049 39.4874C90.7195 39.7109 91.374 39.8226 92.0127 39.8226C92.6832 39.8226 93.274 39.647 93.7848 39.2958C94.2956 38.9446 94.7109 38.4177 95.0301 37.7153C95.3492 36.9809 95.509 36.007 95.509 34.7937ZM127.16 11.5169C127.16 11.1337 127.081 10.7665 126.921 10.4153C126.793 10.0321 126.602 9.68089 126.346 9.36159C126.09 9.04229 125.755 8.78685 125.34 8.59528C124.925 8.4037 124.462 8.30791 123.951 8.30791H115.618C115.17 8.30791 114.708 8.33984 114.229 8.4037C113.782 8.46755 113.335 8.57931 112.888 8.73896C112.44 8.54738 111.994 8.43563 111.547 8.4037C111.099 8.33984 110.653 8.30791 110.206 8.30791H101.872C101.329 8.30791 100.85 8.41966 100.435 8.64317C100.052 8.83475 99.7166 9.09019 99.4292 9.40949C99.1736 9.69685 98.9821 10.0321 98.8545 10.4153C98.7268 10.7984 98.6629 11.1656 98.6629 11.5169C98.6629 11.8681 98.7268 12.2353 98.8545 12.6184C98.9821 13.0016 99.1736 13.3528 99.4292 13.6721C99.7166 13.9914 100.052 14.2469 100.435 14.4384C100.85 14.63 101.329 14.7258 101.872 14.7258H109.679V36.6616C109.679 37.7153 110.014 38.5135 110.684 39.0563C111.387 39.6311 112.121 39.9184 112.888 39.9184C113.271 39.9184 113.638 39.8386 113.989 39.679C114.372 39.5513 114.724 39.3437 115.043 39.0563C115.362 38.8009 115.618 38.4656 115.809 38.0505C116.001 37.6674 116.097 37.2044 116.097 36.6616V14.7258H123.951C124.462 14.7258 124.925 14.63 125.34 14.4384C125.755 14.2469 126.09 13.9914 126.346 13.6721C126.602 13.3528 126.793 13.0176 126.921 12.6663C127.081 12.2832 127.16 11.9 127.16 11.5169ZM158.834 11.5169C158.834 11.1337 158.755 10.7665 158.595 10.4153C158.467 10.0321 158.276 9.68089 158.02 9.36159C157.765 9.04229 157.429 8.78685 157.014 8.59528C156.599 8.4037 156.136 8.30791 155.625 8.30791H147.292C146.845 8.30791 146.382 8.33984 145.903 8.4037C145.456 8.46755 145.009 8.57931 144.562 8.73896C144.115 8.54738 143.668 8.43563 143.221 8.4037C142.774 8.33984 142.327 8.30791 141.88 8.30791H133.546C133.003 8.30791 132.524 8.41966 132.109 8.64317C131.726 8.83475 131.391 9.09019 131.103 9.40949C130.848 9.69685 130.656 10.0321 130.529 10.4153C130.401 10.7984 130.337 11.1656 130.337 11.5169C130.337 11.8681 130.401 12.2353 130.529 12.6184C130.656 13.0016 130.848 13.3528 131.103 13.6721C131.391 13.9914 131.726 14.2469 132.109 14.4384C132.524 14.63 133.003 14.7258 133.546 14.7258H141.353V36.6616C141.353 37.7153 141.688 38.5135 142.359 39.0563C143.061 39.6311 143.795 39.9184 144.562 39.9184C144.945 39.9184 145.312 39.8386 145.663 39.679C146.046 39.5513 146.398 39.3437 146.717 39.0563C147.036 38.8009 147.292 38.4656 147.483 38.0505C147.675 37.6674 147.771 37.2044 147.771 36.6616V14.7258H155.625C156.136 14.7258 156.599 14.63 157.014 14.4384C157.429 14.2469 157.765 13.9914 158.02 13.6721C158.276 13.3528 158.467 13.0176 158.595 12.6663C158.755 12.2832 158.834 11.9 158.834 11.5169ZM191.993 21.8142V13.9116C191.993 12.9537 191.818 12.1235 191.466 11.4211C191.147 10.7186 190.7 10.1439 190.125 9.69685C189.582 9.21791 188.944 8.86668 188.21 8.64317C187.507 8.41966 186.789 8.30791 186.054 8.30791H165.22C164.358 8.30791 163.608 8.59528 162.969 9.17001C162.33 9.71282 162.011 10.4472 162.011 11.3732V36.6616C162.011 37.364 162.107 37.9228 162.299 38.3379C162.522 38.7849 162.794 39.1202 163.113 39.3437C163.432 39.5991 163.767 39.7588 164.119 39.8226C164.502 39.9184 164.853 39.9663 165.172 39.9663C165.843 39.9663 166.386 39.8386 166.801 39.5832C167.248 39.3277 167.583 39.0244 167.806 38.6732C168.062 38.3219 168.221 37.9707 168.285 37.6195C168.381 37.2363 168.429 36.917 168.429 36.6616L168.477 27.4179H186.102C186.9 27.4179 187.651 27.2902 188.353 27.0347C189.056 26.7793 189.678 26.4121 190.221 25.9332C190.764 25.4223 191.195 24.8316 191.514 24.1611C191.834 23.4586 191.993 22.6763 191.993 21.8142ZM185.575 21H168.429V14.7258H185.575V21ZM224.447 34.7458C223.521 33.5325 222.595 32.3191 221.669 31.1058C220.775 29.8605 219.833 28.6313 218.843 27.4179C219.578 27.386 220.28 27.2263 220.95 26.939C221.621 26.6516 222.196 26.2684 222.675 25.7895C223.186 25.2786 223.585 24.7039 223.872 24.0653C224.159 23.3947 224.303 22.6444 224.303 21.8142V14.0074C224.303 13.1134 224.144 12.3151 223.824 11.6126C223.505 10.9102 223.074 10.3195 222.531 9.84054C222.02 9.36159 221.414 8.9944 220.711 8.73896C220.009 8.48352 219.258 8.3558 218.46 8.3558H198.344C197.45 8.3558 196.684 8.6751 196.045 9.31369C195.439 9.92036 195.135 10.6707 195.135 11.5647V25.2147V34.6979V36.7574C195.135 37.3002 195.231 37.7632 195.423 38.1463C195.614 38.5614 195.87 38.8967 196.189 39.1521C196.508 39.4395 196.844 39.647 197.195 39.7747C197.578 39.9344 197.961 40.0142 198.344 40.0142C198.727 40.0142 199.095 39.9344 199.446 39.7747C199.829 39.647 200.18 39.4395 200.499 39.1521C200.819 38.8967 201.074 38.5614 201.266 38.1463C201.457 37.7632 201.553 37.3002 201.553 36.7574V34.6979V27.4179H209.12C209.695 27.4179 210.302 27.6893 210.94 28.2321C211.579 28.7749 212.202 29.4135 212.808 30.1479C213.447 30.8823 214.038 31.6326 214.58 32.399C215.123 33.1334 215.554 33.7081 215.874 34.1232C216.448 34.8895 217.007 35.6398 217.55 36.3742C218.125 37.0767 218.556 37.6035 218.843 37.9547C219.13 38.3379 219.29 38.5614 219.322 38.6253C220.121 39.679 220.919 40.1898 221.717 40.1579C222.547 40.126 223.249 39.8067 223.824 39.2C224.399 38.6253 224.766 37.9069 224.926 37.0447C225.085 36.1507 224.926 35.3844 224.447 34.7458ZM217.789 21H201.553V14.7258H217.789V21ZM256.568 34.1232V14.0074C256.568 12.2832 256.026 10.9102 254.94 9.88843C253.854 8.83475 252.466 8.30791 250.773 8.30791H233.914C233.084 8.30791 232.318 8.45159 231.615 8.73896C230.913 8.9944 230.306 9.37755 229.795 9.88843C229.284 10.3674 228.869 10.9581 228.55 11.6605C228.263 12.363 228.119 13.1293 228.119 13.9595V34.219C228.119 35.0491 228.279 35.8155 228.598 36.5179C228.949 37.2204 229.396 37.827 229.939 38.3379C230.482 38.8488 231.104 39.2319 231.807 39.4874C232.541 39.7747 233.292 39.9184 234.058 39.9184L250.869 39.9663C252.657 39.9663 254.046 39.4395 255.036 38.3858C256.058 37.3321 256.568 35.9113 256.568 34.1232ZM250.342 33.5484H234.537V14.6779H250.342V33.5484Z" fill="#0D5C54"/>
</g>
<defs>
<clipPath id="clip0">
<rect width="256.579" height="32.5" fill="white" transform="translate(0 8)"/>
</clipPath>
</defs>
</svg>
