<svg width="1200" height="159" viewBox="0 0 1200 159" fill="none" xmlns="http://www.w3.org/2000/svg">
<path d="M20.0001 12.9401C19.6701 7.56011 24.5801 2.66011 29.9601 3.00011C99.3101 3.01011 168.66 2.97011 238.01 3.03011C241.15 2.91011 243.5 5.19011 246.07 6.61011C246.3 7.69011 246.64 8.74011 247.08 9.76011C246.02 9.04011 244.97 8.31011 243.93 7.58011C242.42 11.5501 239.61 14.7901 237.25 18.2701C222.08 39.1401 203.84 58.3001 181.63 71.7401C164.79 81.8601 144.86 88.1801 125.08 85.4601C107.48 83.5401 90.4301 75.7401 78.0401 62.9901C67.2801 52.4801 59.9701 38.6501 56.7701 23.9801C52.6601 23.9701 47.7701 23.2201 44.7601 26.7201C40.8801 30.1701 41.5701 35.8201 42.4701 40.3901C46.8701 64.9601 61.5401 87.7301 82.6401 101.22C100.15 112.68 121.58 118.74 142.51 116.35C161.51 114.5 179.45 106.24 194.5 94.7001C215.47 78.7601 231.48 57.2901 244.85 34.8301C245.83 32.9901 247.32 31.2401 247.27 29.0501C247.3 22.9501 247.38 16.8501 247.15 10.7501C248.08 19.7701 247.25 28.8901 247.3 37.9501C247.32 71.3001 247.31 104.66 247.31 138.02C247.59 143.52 242.54 148.37 237.08 147.99C168.04 148 98.9901 148.02 29.9501 147.98C24.6001 148.25 19.6901 143.43 20.0001 138.06C20.0001 96.3501 20.0001 54.6501 20.0001 12.9401Z" fill="#00AEEF"/>
<path d="M322.361 30.3999C331.621 24.2499 342.871 21.3399 353.951 21.7799C366.891 22.1299 380.161 26.1199 389.901 34.9099C386.291 39.5299 382.661 44.1399 379.031 48.7499C370.221 42.2099 359.031 38.4699 348.031 39.8499C337.311 41.1399 327.521 48.1599 322.861 57.8899C316.911 70.3099 317.871 85.9799 325.591 97.4299C331.431 106.06 341.671 111.25 352.031 111.44C362.111 111.83 372.021 107.67 379.331 100.84C379.041 97.4099 380.241 93.5299 378.531 90.4299C375.911 89.0299 372.721 89.9199 369.881 89.6799C369.871 84.2499 369.871 78.8099 369.881 73.3799C376.601 73.5499 383.361 73 390.051 73.66C394.241 73.98 396.811 78.0799 396.651 82.0199C396.751 97.2399 396.661 112.46 396.681 127.69C391.201 127.69 385.721 127.69 380.251 127.69C380.231 124.53 380.271 121.38 380.381 118.23C370.271 127.04 356.261 130.78 343.041 129.03C330.271 127.53 318.201 120.77 310.371 110.55C300.951 98.4099 297.691 82.2799 299.581 67.2099C301.481 52.4499 309.841 38.5599 322.361 30.3999Z" fill="#434143"/>
<path d="M540.311 127.68C540.311 92.9499 540.301 58.2299 540.321 23.4999C552.891 23.5199 565.451 23.4599 578.021 23.5199C587.001 23.5899 596.391 26.6999 602.401 33.6199C609.131 41.2699 610.831 52.2699 609.021 62.0399C607.361 71.0099 601.271 79.4799 592.441 82.4799C594.421 83.8399 596.341 85.4199 597.421 87.6199C601.141 94.6199 604.381 101.88 608.241 108.81C610.051 111.75 613.911 111.21 616.871 111.36C616.871 116.81 616.881 122.25 616.871 127.69C611.221 127.5 605.481 128.2 599.911 127.02C596.161 126.23 593.741 122.96 592.151 119.71C587.761 111.15 583.461 102.53 579.071 93.9699C577.931 91.5699 575.921 89.3499 573.131 89.0899C568.631 88.5499 564.081 88.9099 559.571 88.8199C559.551 101.78 559.571 114.73 559.561 127.68C553.141 127.69 546.731 127.69 540.311 127.68ZM559.571 39.8199C559.561 50.6499 559.561 61.4799 559.571 72.2999C565.351 72.2299 571.151 72.4999 576.931 72.1799C582.711 71.8799 587.971 67.6199 589.271 61.9499C591.461 54.2599 589.441 43.6599 580.971 40.8199C574.031 38.8899 566.681 40.1899 559.571 39.8199Z" fill="#434143"/>
<path d="M493.5 32.5001C499.59 32.5001 505.67 32.4901 511.75 32.5101C511.75 39.3001 511.74 46.0901 511.76 52.8701C516.6 53.2901 522.12 51.7001 526.44 54.4901C529.89 57.9601 528.34 63.3701 528.68 67.7501C523.04 67.7601 517.4 67.7401 511.76 67.7601C511.75 77.8401 511.74 87.9301 511.75 98.0101C511.7 101.98 512.94 106.24 516.16 108.79C519.97 111.92 525.18 112.18 529.88 111.79C529.87 117.22 529.88 122.65 529.88 128.08C520.53 129.14 510.33 128.03 502.56 122.33C496.22 117.68 493.28 109.68 493.13 102.02C492.96 90.6001 493.12 79.1801 493.05 67.7601C489.84 67.7501 486.64 67.7501 483.43 67.7401C483.44 62.7801 483.42 57.8301 483.45 52.8801C486.79 52.8801 490.15 52.8801 493.5 52.8701C493.5 46.0801 493.49 39.2901 493.5 32.5001Z" fill="#434143"/>
<path d="M414.789 64.7999C425.119 51.3699 445.289 47.4499 460.349 54.6699C474.259 61.5099 479.769 79.2299 476.819 93.4899C459.759 93.6799 442.689 93.4899 425.629 93.5799C426.469 101.24 431.019 108.69 438.349 111.65C448.719 116.13 460.709 112.24 468.989 105.27C471.599 109.58 474.189 113.9 476.779 118.23C461.739 131.57 437.099 133.68 420.979 121.12C404.139 108.14 402.059 81.2899 414.789 64.7999ZM434.329 68.3599C429.959 71.0299 427.449 75.7799 426.209 80.5999C437.019 80.6299 447.839 80.6499 458.649 80.5899C458.189 76.2099 456.719 71.6799 453.219 68.7899C448.009 64.2299 439.929 64.8899 434.329 68.3599Z" fill="#434143"/>
<path d="M631.12 62.9499C640.51 52.3799 656.2 48.8999 669.6 52.5099C677.62 54.6899 684.53 60.4499 688.19 67.9099C692.22 75.7799 692.95 84.8999 691.95 93.5699C674.77 93.5699 657.59 93.5399 640.4 93.5799C641.26 101.3 645.87 108.81 653.29 111.71C663.63 116.11 675.54 112.19 683.78 105.26C686.36 109.59 688.97 113.9 691.55 118.23C676.55 131.54 651.99 133.68 635.86 121.2C618.29 107.77 616.64 79.2099 631.12 62.9499ZM649.3 68.2399C644.83 70.8899 642.24 75.6999 640.98 80.5999C651.8 80.6299 662.61 80.6499 673.43 80.5899C672.98 76.2699 671.54 71.7999 668.13 68.9099C663 64.2699 654.93 64.8499 649.3 68.2399Z" fill="#434143"/>
<path d="M724.539 51.8301C732.389 50.5701 740.649 51.0001 748.149 53.7701C752.639 55.4601 757.179 58.5501 758.479 63.4301C759.229 67.0601 758.769 70.8101 758.869 74.4901C753.399 74.5101 747.949 74.5001 742.489 74.5001C742.379 72.1101 742.979 68.9401 740.449 67.5501C735.529 64.6901 728.689 64.8401 724.009 68.0901C720.679 70.6201 722.019 75.7901 725.489 77.4901C735.349 83.2801 747.709 84.6701 756.119 92.9501C761.779 98.3401 763.039 107.19 760.269 114.32C757.719 121.04 751.449 125.7 744.729 127.75C729.799 132.27 712.389 127.79 701.879 116.16C704.789 112.08 707.759 108.04 710.649 103.95C715.729 108.95 721.879 113.3 729.049 114.54C732.909 115.15 737.309 115.16 740.599 112.75C743.139 110.91 744.009 106.71 741.619 104.41C738.569 101.43 734.399 100.1 730.579 98.4301C722.679 95.1601 714.159 92.1301 708.329 85.5601C702.619 79.2001 702.239 69.0201 706.849 61.9401C710.769 56.0201 717.759 53.0201 724.539 51.8301Z" fill="#434143"/>
<path d="M794.47 62.2399C803.49 49.3099 823.11 48.0899 835.72 56.2399C845.14 62.2699 850.191 73.2899 851.271 84.1499C852.491 96.0899 850.451 109.11 842.641 118.61C831.511 132.6 806.78 133.63 795.92 118.82C796.47 131.53 796.06 144.27 796.18 156.99C789.97 157 783.77 157 777.56 157C777.56 128.98 777.56 100.97 777.56 72.9499C777.52 71.5499 777.53 69.7099 775.98 69.0699C773.51 68.5999 770.98 68.8399 768.5 68.8099C768.49 63.5199 768.52 58.2299 768.48 52.9499C773.97 52.8299 779.48 52.8399 784.98 52.8999C787.88 52.9999 791.23 53.3599 793.22 55.7599C794.68 57.5799 794.34 60.0599 794.47 62.2399ZM810.44 67.5699C805.88 68.4599 801.931 71.4899 799.521 75.4099C795.741 81.5299 794.98 89.0699 796.06 96.0699C796.79 101.02 798.81 105.97 802.6 109.37C808.79 115.04 819.29 115.22 825.54 109.54C830.46 105.17 832.52 98.4299 832.79 92.0199C833.12 85.0899 831.51 77.6199 826.57 72.4799C822.52 68.1699 816.2 66.3099 810.44 67.5699Z" fill="#434143"/>
<path d="M893.58 51.7599C906.2 49.6499 919.93 52.8799 929.54 61.5299C941.3 71.7499 945.06 89.3499 939.85 103.82C936.32 114.01 928.06 122.27 918.09 126.24C900.06 133.75 876.45 128.17 866.02 111.01C858.8 99.3799 858.38 83.8999 864.78 71.8299C870.44 61.0099 881.62 53.6399 893.58 51.7599ZM896.46 67.5499C889.49 68.9999 883.51 74.1699 880.91 80.7799C876.69 91.0099 879.84 104.41 889.6 110.31C897.64 115.41 908.97 114.41 915.96 107.92C925.57 99.2199 925.81 82.4399 916.61 73.3699C911.46 68.1599 903.58 65.9699 896.46 67.5499Z" fill="#434143"/>
<path d="M973.523 66.94C977.813 58.44 986.422 52.32 995.932 51.39C1004.05 50.55 1013.27 51.77 1019.24 57.88C1024.83 63.72 1026.12 72.24 1026.12 80.01C1026.24 89.95 1025.91 99.9 1026.27 109.82C1027.52 113.39 1032.32 111.55 1035.18 112.01C1035.15 117.25 1035.27 122.49 1035.1 127.72C1029.05 127.63 1023.01 127.75 1016.97 127.68C1014.41 127.61 1011.58 127.22 1009.74 125.29C1007.89 123.39 1007.58 120.6 1007.52 118.08C1007.43 106.08 1007.6 94.07 1007.44 82.07C1007.33 77.38 1006.38 71.54 1001.6 69.36C995.372 66.85 987.903 68.61 982.763 72.73C976.793 77.55 974.422 85.5 974.352 92.92C974.302 104.48 974.262 116.03 974.382 127.58C968.212 127.82 962.053 127.61 955.893 127.72C955.643 108.83 956.013 89.93 955.713 71.05C954.603 67.28 949.592 69.3199 946.752 68.8099C946.752 63.4999 946.743 58.19 946.763 52.88C952.483 52.9 958.202 52.81 963.932 52.9C967.032 52.93 970.623 53.6 972.453 56.39C974.383 59.55 973.663 63.43 973.523 66.94Z" fill="#434143"/>
<path d="M1062.94 52.09C1071.08 50.48 1079.7 50.88 1087.55 53.63C1092.2 55.32 1096.94 58.48 1098.24 63.54C1098.94 67.14 1098.54 70.85 1098.61 74.5C1093.15 74.5 1087.69 74.5 1082.23 74.5C1082.02 72.35 1082.76 69.65 1080.86 68.08C1077.26 65.22 1072.21 65.18 1067.92 66.13C1065.03 66.73 1061.85 68.73 1061.79 72C1061.65 75.3 1064.71 77.37 1067.31 78.7C1076.85 83.41 1088.11 85.34 1095.93 93.05C1101.43 98.34 1102.68 106.93 1100.12 113.95C1097.71 120.77 1091.45 125.56 1084.7 127.67C1069.73 132.32 1052.19 127.85 1041.62 116.16C1044.55 112.08 1047.51 108.02 1050.42 103.93C1055.48 109.02 1061.72 113.33 1068.92 114.56C1072.64 115.14 1076.79 115.13 1080.05 112.97C1082.75 111.24 1083.84 106.93 1081.44 104.5C1078.42 101.46 1074.2 100.13 1070.37 98.45C1062.52 95.2 1054.06 92.19 1048.21 85.72C1042.5 79.49 1041.96 69.48 1046.32 62.38C1049.9 56.59 1056.47 53.43 1062.94 52.09Z" fill="#434143"/>
<path d="M1116.91 63.93C1126.26 52.53 1142.72 48.69 1156.62 52.62C1164.54 54.88 1171.33 60.64 1174.9 68.06C1178.9 75.89 1179.55 84.94 1178.61 93.56C1161.44 93.56 1144.27 93.56 1127.09 93.56C1127.87 101.37 1132.64 108.95 1140.15 111.8C1150.46 116.06 1162.22 112.13 1170.42 105.27C1173.02 109.56 1175.56 113.88 1178.19 118.15C1162.99 131.89 1137.53 133.72 1121.51 120.4C1105.17 106.9 1103.67 80.04 1116.91 63.93ZM1137.43 67.43C1132.22 69.87 1128.82 75.12 1127.74 80.65C1138.51 80.58 1149.28 80.67 1160.05 80.6C1159.64 76.12 1158.05 71.48 1154.42 68.6C1149.71 64.63 1142.74 64.9 1137.43 67.43Z" fill="#434143"/>
</svg>
