<svg width="246" height="45" viewBox="0 0 246 45" fill="none" xmlns="http://www.w3.org/2000/svg">
<g clip-path="url(#clip0)">
<path d="M4.08915 9.64504C4.0217 8.54535 5.02532 7.54378 6.125 7.61328C20.3003 7.61532 34.4756 7.60715 48.6509 7.61941C49.2927 7.59488 49.7731 8.06092 50.2984 8.35117C50.3454 8.57193 50.4149 8.78655 50.5049 8.99504C50.2882 8.84787 50.0736 8.69866 49.861 8.54944C49.5523 9.36092 48.978 10.0232 48.4956 10.7345C45.3948 15.0004 41.6665 18.9167 37.1267 21.6639C33.6846 23.7325 29.6108 25.0243 25.5678 24.4683C21.9703 24.0759 18.4852 22.4815 15.9527 19.8754C13.7533 17.7271 12.2591 14.9002 11.605 11.9016C10.7649 11.8996 9.76541 11.7463 9.15016 12.4617C8.35708 13.1669 8.49812 14.3218 8.68208 15.2559C9.58145 20.2781 12.58 24.9323 16.8929 27.6897C20.472 30.0321 24.8523 31.2708 29.1305 30.7823C33.0141 30.4041 36.6811 28.7158 39.7574 26.357C44.0437 23.0988 47.3162 18.7103 50.049 14.1194C50.2494 13.7433 50.5539 13.3856 50.5437 12.938C50.5498 11.6911 50.5662 10.4443 50.5192 9.1974C50.7093 11.0411 50.5396 12.9053 50.5498 14.7571C50.5539 21.574 50.5519 28.3928 50.5519 35.2117C50.6091 36.3359 49.5769 37.3273 48.4608 37.2496C34.3489 37.2516 20.2349 37.2557 6.12296 37.2475C5.02941 37.3027 4.02579 36.3175 4.08915 35.2199C4.08915 26.6943 4.08915 18.1707 4.08915 9.64504Z" fill="#00AEEF"/>
<path d="M65.8903 13.2138C67.7831 11.9567 70.0826 11.3619 72.3474 11.4519C74.9923 11.5234 77.7048 12.339 79.6956 14.1357C78.9577 15.08 78.2158 16.0223 77.4738 16.9646C75.673 15.6278 73.3857 14.8633 71.1373 15.1454C68.9461 15.4091 66.945 16.844 65.9925 18.8328C64.7763 21.3715 64.9725 24.5745 66.5505 26.9149C67.7442 28.6789 69.8373 29.7398 71.9549 29.7786C74.0153 29.8583 76.0409 29.008 77.5351 27.6119C77.4758 26.9108 77.7211 26.1177 77.3716 25.4841C76.836 25.1979 76.184 25.3798 75.6035 25.3308C75.6015 24.2209 75.6015 23.1089 75.6035 21.999C76.9771 22.0338 78.3588 21.9214 79.7263 22.0563C80.5827 22.1217 81.1081 22.9597 81.0754 23.7651C81.0958 26.8761 81.0774 29.9871 81.0815 33.1001C79.9614 33.1001 78.8412 33.1001 77.7232 33.1001C77.7191 32.4542 77.7272 31.8104 77.7497 31.1665C75.6832 32.9673 72.8195 33.7318 70.1173 33.374C67.5071 33.0674 65.04 31.6857 63.4395 29.5967C61.514 27.1152 60.8477 23.8182 61.234 20.7379C61.6224 17.7209 63.3312 14.8817 65.8903 13.2138Z" fill="#434143"/>
<path d="M110.442 33.0981C110.442 25.9992 110.44 18.9023 110.444 11.8034C113.013 11.8075 115.581 11.7952 118.15 11.8075C119.985 11.8218 121.905 12.4575 123.133 13.872C124.509 15.4356 124.856 17.6841 124.486 19.6811C124.147 21.5146 122.902 23.2459 121.097 23.8591C121.502 24.1371 121.895 24.46 122.115 24.9097C122.876 26.3405 123.538 27.8245 124.327 29.241C124.697 29.842 125.486 29.7316 126.091 29.7622C126.091 30.8762 126.093 31.9882 126.091 33.1001C124.936 33.0613 123.763 33.2044 122.624 32.9632C121.858 32.8017 121.363 32.1333 121.038 31.469C120.141 29.7193 119.262 27.9574 118.365 26.2077C118.132 25.7171 117.721 25.2633 117.15 25.2102C116.231 25.0998 115.301 25.1734 114.379 25.155C114.375 27.8041 114.379 30.4511 114.377 33.0981C113.064 33.1001 111.754 33.1001 110.442 33.0981ZM114.379 15.1393C114.377 17.3529 114.377 19.5666 114.379 21.7783C115.56 21.7639 116.746 21.8191 117.927 21.7537C119.109 21.6924 120.184 20.8216 120.449 19.6627C120.897 18.0908 120.484 15.9242 118.753 15.3437C117.334 14.9492 115.832 15.2149 114.379 15.1393Z" fill="#434143"/>
<path d="M100.875 13.6431C102.12 13.6431 103.362 13.641 104.605 13.6451C104.605 15.033 104.603 16.4209 104.607 17.8068C105.596 17.8926 106.725 17.5676 107.608 18.1379C108.313 18.8472 107.996 19.953 108.066 20.8483C106.913 20.8503 105.76 20.8462 104.607 20.8503C104.605 22.9107 104.603 24.9731 104.605 27.0335C104.595 27.845 104.848 28.7157 105.506 29.2369C106.285 29.8767 107.35 29.9299 108.311 29.8501C108.309 30.9601 108.311 32.07 108.311 33.1799C106.4 33.3965 104.315 33.1696 102.727 32.0045C101.431 31.0541 100.83 29.4189 100.799 27.8531C100.764 25.5189 100.797 23.1846 100.783 20.8503C100.127 20.8483 99.4725 20.8483 98.8164 20.8462C98.8185 19.8324 98.8144 18.8206 98.8205 17.8088C99.5032 17.8088 100.19 17.8088 100.875 17.8068C100.875 16.4189 100.873 15.031 100.875 13.6431Z" fill="#434143"/>
<path d="M84.7837 20.2453C86.8952 17.5001 91.018 16.6989 94.0963 18.1747C96.9395 19.5728 98.0658 23.1948 97.4628 26.1096C93.9757 26.1484 90.4866 26.1096 86.9995 26.128C87.1711 27.6937 88.1012 29.2165 89.5995 29.8216C91.7191 30.7373 94.1699 29.9422 95.8623 28.5175C96.3958 29.3984 96.9252 30.2815 97.4546 31.1665C94.3804 33.8933 89.3439 34.3245 86.049 31.7573C82.6068 29.1041 82.1817 23.6159 84.7837 20.2453ZM88.7778 20.9729C87.8845 21.5187 87.3715 22.4896 87.118 23.4748C89.3276 23.481 91.5392 23.4851 93.7488 23.4728C93.6548 22.5775 93.3543 21.6516 92.6389 21.0608C91.574 20.1288 89.9224 20.2637 88.7778 20.9729Z" fill="#434143"/>
<path d="M129.004 19.8672C130.924 17.7066 134.131 16.9953 136.87 17.7332C138.509 18.1788 139.922 19.3562 140.67 20.881C141.493 22.4896 141.643 24.3538 141.438 26.126C137.927 26.126 134.415 26.1198 130.901 26.128C131.077 27.706 132.019 29.2411 133.536 29.8338C135.65 30.7332 138.084 29.932 139.768 28.5155C140.296 29.4005 140.829 30.2815 141.356 31.1666C138.29 33.8872 133.27 34.3246 129.973 31.7736C126.382 29.0285 126.045 23.1907 129.004 19.8672ZM132.72 20.9485C131.807 21.4901 131.277 22.4733 131.02 23.4749C133.231 23.481 135.441 23.4851 137.653 23.4728C137.561 22.5898 137.266 21.6761 136.569 21.0854C135.521 20.137 133.871 20.2555 132.72 20.9485Z" fill="#434143"/>
<path d="M148.097 17.5942C149.701 17.3367 151.39 17.4245 152.923 17.9907C153.84 18.3362 154.768 18.9678 155.034 19.9653C155.187 20.7073 155.093 21.4738 155.114 22.226C153.996 22.23 152.882 22.228 151.766 22.228C151.743 21.7395 151.866 21.0915 151.349 20.8074C150.343 20.2228 148.945 20.2535 147.988 20.9178C147.308 21.4349 147.582 22.4917 148.291 22.8392C150.306 24.0227 152.833 24.3068 154.552 25.9992C155.709 27.101 155.966 28.9099 155.4 30.3673C154.879 31.7409 153.597 32.6934 152.224 33.1124C149.172 34.0363 145.613 33.1206 143.465 30.7434C144.06 29.9094 144.667 29.0836 145.257 28.2476C146.296 29.2697 147.553 30.1588 149.018 30.4123C149.807 30.5369 150.707 30.539 151.379 30.0464C151.899 29.6703 152.076 28.8118 151.588 28.3417C150.964 27.7325 150.112 27.4607 149.331 27.1194C147.716 26.451 145.975 25.8316 144.783 24.4887C143.616 23.1887 143.538 21.1079 144.481 19.6607C145.282 18.4506 146.711 17.8374 148.097 17.5942Z" fill="#434143"/>
<path d="M162.391 19.722C164.234 17.0791 168.245 16.8297 170.822 18.4956C172.748 19.7281 173.78 21.9807 174.001 24.2005C174.25 26.641 173.833 29.3024 172.237 31.2442C169.962 34.1038 164.907 34.3143 162.687 31.2871C162.799 33.8851 162.716 36.4892 162.74 39.0892C161.471 39.0912 160.203 39.0912 158.934 39.0912C158.934 33.3639 158.934 27.6385 158.934 21.9112C158.926 21.625 158.928 21.2489 158.611 21.1181C158.106 21.022 157.589 21.0711 157.082 21.0649C157.08 19.9836 157.086 18.9024 157.078 17.8231C158.2 17.7986 159.327 17.8006 160.451 17.8129C161.044 17.8333 161.728 17.9069 162.135 18.3975C162.433 18.7695 162.364 19.2764 162.391 19.722ZM165.655 20.8115C164.723 20.9934 163.916 21.6127 163.423 22.414C162.65 23.6649 162.495 25.2061 162.716 26.6369C162.865 27.6488 163.278 28.6606 164.052 29.3555C165.318 30.5145 167.464 30.5513 168.741 29.3903C169.747 28.497 170.168 27.1193 170.223 25.8091C170.291 24.3926 169.962 22.8657 168.952 21.8151C168.124 20.9341 166.832 20.5539 165.655 20.8115Z" fill="#434143"/>
<path d="M182.652 17.5798C185.231 17.1485 188.038 17.8088 190.002 19.5768C192.406 21.6658 193.174 25.2633 192.109 28.2211C191.388 30.3039 189.699 31.9923 187.662 32.8038C183.976 34.3388 179.15 33.1983 177.018 29.6907C175.543 27.3135 175.457 24.1493 176.765 21.6822C177.922 19.4706 180.207 17.9641 182.652 17.5798ZM183.24 20.8074C181.816 21.1037 180.593 22.1605 180.062 23.5116C179.199 25.6026 179.843 28.3416 181.838 29.5476C183.482 30.5901 185.797 30.3857 187.226 29.0591C189.19 27.2808 189.24 23.8509 187.359 21.997C186.306 20.932 184.696 20.4844 183.24 20.8074Z" fill="#434143"/>
<path d="M198.992 20.6827C199.869 18.9453 201.629 17.6943 203.572 17.5042C205.232 17.3325 207.116 17.5819 208.337 18.8308C209.479 20.0245 209.743 21.766 209.743 23.3542C209.767 25.386 209.7 27.4198 209.774 29.4475C210.029 30.1772 211.01 29.8011 211.595 29.8951C211.589 30.9662 211.613 32.0372 211.578 33.1063C210.342 33.0879 209.107 33.1124 207.873 33.0981C207.349 33.0838 206.771 33.0041 206.395 32.6096C206.017 32.2212 205.953 31.6509 205.941 31.1358C205.923 28.683 205.957 26.2281 205.925 23.7753C205.902 22.8166 205.708 21.6229 204.731 21.1773C203.458 20.6643 201.931 21.024 200.881 21.8662C199.66 22.8514 199.176 24.4764 199.161 25.9931C199.151 28.356 199.143 30.7168 199.168 33.0777C197.906 33.1267 196.648 33.0838 195.388 33.1063C195.337 29.2451 195.413 25.3819 195.352 21.5228C195.125 20.7522 194.1 21.1691 193.52 21.0649C193.52 19.9795 193.518 18.8942 193.522 17.8088C194.691 17.8129 195.86 17.7945 197.032 17.8129C197.665 17.819 198.399 17.956 198.773 18.5262C199.168 19.1722 199.021 19.9652 198.992 20.6827Z" fill="#434143"/>
<path d="M217.268 17.6473C218.932 17.3182 220.694 17.4 222.298 17.9621C223.249 18.3075 224.218 18.9534 224.483 19.9877C224.626 20.7236 224.545 21.4819 224.559 22.228C223.443 22.228 222.327 22.228 221.211 22.228C221.168 21.7885 221.319 21.2366 220.931 20.9157C220.195 20.3311 219.163 20.3229 218.286 20.5171C217.695 20.6398 217.045 21.0486 217.033 21.717C217.004 22.3915 217.63 22.8146 218.161 23.0865C220.111 24.0492 222.413 24.4437 224.011 26.0196C225.135 27.1009 225.391 28.8567 224.868 30.2916C224.375 31.6857 223.095 32.6648 221.716 33.096C218.656 34.0465 215.071 33.1328 212.91 30.7434C213.509 29.9094 214.114 29.0795 214.709 28.2435C215.743 29.2839 217.019 30.1649 218.49 30.4163C219.251 30.5349 220.099 30.5328 220.765 30.0913C221.317 29.7377 221.54 28.8567 221.049 28.36C220.432 27.7387 219.57 27.4668 218.787 27.1234C217.182 26.4591 215.453 25.8438 214.257 24.5214C213.09 23.2479 212.98 21.2019 213.871 19.7506C214.603 18.5671 215.946 17.9212 217.268 17.6473Z" fill="#434143"/>
<path d="M228.298 20.0675C230.209 17.7373 233.574 16.9524 236.415 17.7557C238.034 18.2177 239.421 19.3951 240.151 20.9117C240.969 22.5122 241.102 24.362 240.91 26.124C237.4 26.124 233.89 26.124 230.379 26.124C230.538 27.7204 231.513 29.2697 233.048 29.8523C235.156 30.723 237.559 29.9197 239.235 28.5175C239.767 29.3944 240.286 30.2774 240.824 31.1502C237.717 33.9587 232.513 34.3328 229.238 31.6101C225.898 28.8507 225.592 23.3605 228.298 20.0675ZM232.492 20.7829C231.427 21.2817 230.732 22.3548 230.512 23.4851C232.713 23.4708 234.914 23.4892 237.116 23.4749C237.032 22.5592 236.707 21.6108 235.965 21.0221C235.002 20.2106 233.578 20.2658 232.492 20.7829Z" fill="#434143"/>
</g>
<defs>
<clipPath id="clip0">
<rect width="245.283" height="32.5" fill="white" transform="translate(0 7)"/>
</clipPath>
</defs>
</svg>
