<svg width="208" height="58" viewBox="0 0 208 58" fill="none" xmlns="http://www.w3.org/2000/svg">
<path fill-rule="evenodd" clip-rule="evenodd" d="M124.923 0C124.281 1.995 123.213 3.803 122.393 5.72C121.965 6.71 121.52 7.7 121.02 8.656C120.68 9.303 120.925 9.386 121.513 9.383C123.983 9.367 126.453 9.376 128.925 9.376H130.058C128.972 11.728 127.948 13.958 126.911 16.182C126.704 16.627 126.271 16.48 125.921 16.482C123.381 16.49 120.841 16.509 118.304 16.47C117.641 16.46 117.284 16.634 116.996 17.27C115.436 20.714 113.811 24.13 112.226 27.564C110.926 30.374 111.386 31.122 114.451 31.161C116.786 31.191 119.121 31.167 121.458 31.171C121.878 31.171 122.251 31.208 122.262 30.574C122.3 28.526 123.322 26.884 124.622 25.431C127.9 21.773 132.102 20.023 136.945 19.931C142.223 19.828 147.505 19.881 152.785 19.931C153.662 19.941 153.997 19.565 154.165 18.846C154.345 18.088 153.963 17.59 153.317 17.306C152.4 16.906 151.404 16.901 150.427 16.899C144.232 16.889 138.037 16.893 131.843 16.893H130.773C130.55 16.639 130.728 16.465 130.803 16.303C131.765 14.217 132.743 12.139 133.697 10.051C133.897 9.614 134.112 9.361 134.663 9.365C142.075 9.405 149.486 9.393 156.898 9.451C158.761 9.466 160.598 9.821 162.336 10.538C165.589 11.881 167.03 14.755 166.206 18.171C165.774 19.961 164.936 21.581 164.166 23.233C162.199 27.458 160.22 31.677 158.286 35.917C158.003 36.535 157.684 36.752 157.001 36.75C148.303 36.725 139.604 36.733 130.905 36.733H107.479C106.291 36.733 105.115 36.618 103.957 36.358C100.245 35.525 98.594 32.802 99.67 29.152C100.427 26.582 101.806 24.269 102.88 21.83C103.52 20.378 104.218 18.952 104.886 17.513C105.362 16.49 105.361 16.488 104.184 16.487H99.484L102.634 9.695C102.82 9.293 103.187 9.38 103.514 9.379C105.004 9.375 106.494 9.377 107.984 9.376C108.316 9.376 108.664 9.436 108.844 9.026C110.177 6.002 111.738 3.082 112.942 0H124.926L124.923 0ZM150.566 26.618C146.723 26.618 143.039 26.598 139.354 26.631C138.371 26.641 137.416 26.911 136.542 27.388C135.992 27.691 135.112 28.002 135.239 28.603C135.367 29.198 136.315 29.195 136.929 29.201C140.886 29.234 144.842 29.215 148.799 29.224C149.172 29.224 149.434 29.149 149.592 28.764C149.872 28.084 150.199 27.422 150.567 26.619L150.566 26.618ZM0.001 25.797C0.455 25.117 0.481 24.287 0.789 23.552C2.561 19.34 5.606 16.24 9.369 13.8C13.962 10.82 18.996 9.28 24.503 9.303C31.849 9.333 39.193 9.31 46.54 9.311C47.656 9.311 47.66 9.316 47.208 10.289C46.398 12.036 45.555 13.769 44.788 15.534C44.53 16.127 44.204 16.302 43.574 16.299C37.21 16.275 30.846 16.284 24.482 16.284C19.368 16.284 14.482 19.54 12.519 24.254C12.257 24.881 12.052 25.524 12.003 26.204C11.863 28.124 13.273 29.567 15.561 29.641C18.368 29.733 21.179 29.681 23.989 29.691H24.599C27.401 29.691 27.374 29.678 28.489 27.098C28.796 26.388 28.585 26.308 27.949 26.311C24.531 26.326 21.112 26.305 17.693 26.329C17.013 26.333 16.768 26.259 17.133 25.519C17.99 23.795 18.78 22.039 19.586 20.289C19.753 19.929 19.93 19.692 20.4 19.693C27.81 19.708 35.217 19.703 42.605 19.703C42.76 20.103 42.525 20.35 42.402 20.613C40.044 25.7 37.67 30.779 35.325 35.873C35.047 36.476 34.715 36.698 34.029 36.695C26.276 36.667 18.524 36.685 10.772 36.671C8.864 36.667 7.005 36.349 5.24 35.575C2.823 34.515 1.102 32.819 0.3 30.255C0.237 30.049 0.288 29.76 0 29.657V25.797H0.001ZM208.001 17.062C206.954 20.094 204.979 22.345 202.231 23.956C200.465 24.99 198.585 25.748 196.593 26.164C195.727 26.346 195.763 26.617 196.107 27.276C197.717 30.356 199.287 33.456 200.857 36.522C200.655 36.852 200.393 36.724 200.187 36.725C196.667 36.735 193.147 36.719 189.627 36.745C189.009 36.749 188.675 36.575 188.397 35.985C187.097 33.238 185.723 30.527 184.413 27.785C184.139 27.21 183.799 27.015 183.171 27.033C181.581 27.078 179.989 27.083 178.401 27.03C177.723 27.008 177.383 27.218 177.103 27.842C175.869 30.582 174.559 33.289 173.323 36.028C173.073 36.578 172.769 36.75 172.183 36.746C168.596 36.721 165.008 36.718 161.42 36.746C160.682 36.752 160.54 36.602 160.864 35.908C164.872 27.344 168.862 18.771 172.84 10.193C173.06 9.719 173.327 9.568 173.837 9.569C182.704 9.583 191.572 9.543 200.44 9.603C202.748 9.619 204.912 10.27 206.602 12.027C207.27 12.721 207.59 13.59 208 14.421V17.061L208.001 17.062ZM187.808 16.047C186.19 16.047 184.836 16.084 183.486 16.031C182.856 16.007 182.502 16.186 182.252 16.774C181.752 17.954 181.212 19.118 180.636 20.262C180.316 20.898 180.343 21.125 181.146 21.109C183.309 21.065 185.476 21.139 187.636 21.081C189.784 21.021 191.873 20.619 193.741 19.481C194.521 19.006 195.461 18.374 195.281 17.413C195.103 16.441 193.958 16.413 193.107 16.253C191.265 15.903 189.397 16.101 187.807 16.048L187.808 16.047ZM105.626 0C104.636 2.294 103.272 4.39 102.143 6.613C101.993 6.909 101.728 6.918 101.451 6.907C101.349 6.903 101.248 6.907 101.146 6.907H89.906C91.191 4.537 92.417 2.27 93.643 0H105.628H105.626Z" fill="#EF4A24"/>
<path fill-rule="evenodd" clip-rule="evenodd" d="M29.6581 53.015C29.3781 52.65 28.9381 52.739 28.5681 52.655C27.6761 52.45 26.7921 52.217 26.0001 51.758C25.7371 51.608 24.9981 51.588 25.4451 50.99C25.7471 50.586 25.7991 49.703 26.8031 50.235C29.4611 51.643 32.3171 51.653 35.2031 51.163C35.5281 51.108 35.8431 50.948 36.1431 50.799C36.7631 50.489 37.1871 50.014 37.1211 49.283C37.0541 48.518 36.4911 48.221 35.8111 48.083C34.3811 47.791 32.9241 47.789 31.4741 47.741C30.2221 47.699 28.9711 47.646 27.7541 47.313C26.4361 46.953 25.7091 46.183 25.6071 45.046C25.4921 43.759 26.0691 42.838 27.1721 42.211C28.2621 41.593 29.4621 41.407 30.6791 41.324C33.1291 41.156 35.5391 41.329 37.8391 42.302C38.2161 42.462 38.5541 42.645 38.1691 43.082C37.8811 43.408 37.9961 44.266 37.0991 43.836C34.6211 42.651 32.0071 42.634 29.3611 43.056C29.0311 43.11 28.7061 43.226 28.4041 43.369C27.8441 43.633 27.4741 44.053 27.5411 44.721C27.6061 45.366 28.0611 45.626 28.6261 45.758C30.2211 46.126 31.8511 46.053 33.4681 46.135C34.5821 46.192 35.7011 46.232 36.7831 46.528C37.9111 46.838 38.8471 47.371 39.0431 48.688C39.2461 50.031 38.8031 51.078 37.6731 51.828C36.8131 52.401 35.8371 52.658 34.8271 52.811C34.6471 52.838 34.4071 52.729 34.3291 53.013H29.6591L29.6581 53.015ZM173.064 53.015C172.394 52.542 171.561 52.547 170.828 52.245C167.451 50.847 166.155 47.275 167.996 44.345C168.492 43.555 169.154 42.909 169.983 42.505C173.378 40.845 176.821 40.782 180.228 42.425C182.17 43.365 183.124 45.015 183.118 47.171C183.113 49.331 182.088 50.886 180.208 51.928C179.176 52.5 178.006 52.616 176.924 53.018C175.636 53.016 174.35 53.016 173.064 53.016V53.015ZM175.167 51.481C176.253 51.431 177.4 51.377 178.481 50.933C180.054 50.288 180.996 49.173 181.081 47.42C181.167 45.605 180.413 44.232 178.761 43.52C176.358 42.48 173.881 42.5 171.485 43.54C169.955 44.206 169.205 45.52 169.221 47.187C169.239 48.807 169.994 50.017 171.468 50.747C172.615 51.317 173.853 51.433 175.168 51.481H175.167ZM121.267 53.015C120.487 52.75 119.694 52.522 118.933 52.213C116.735 51.321 115.41 49.763 115.345 47.307C115.285 45 116.497 43.114 118.771 42.169C121.707 40.949 124.704 40.919 127.664 42.069C130.032 42.991 131.269 44.842 131.246 47.197C131.223 49.587 129.966 51.277 127.581 52.269C126.716 52.629 125.771 52.634 124.924 53.013H121.267V53.015ZM123.233 51.48C124.486 51.436 125.633 51.35 126.706 50.892C128.273 50.222 129.169 49.067 129.22 47.317C129.272 45.539 128.495 44.209 126.894 43.517C124.534 42.497 122.092 42.503 119.718 43.503C118.138 44.169 117.358 45.437 117.374 47.181C117.392 48.925 118.224 50.104 119.782 50.828C120.915 51.352 122.122 51.421 123.232 51.481L123.233 51.48ZM22.9551 53.015L11.7851 44.628C11.7851 47.11 11.7351 49.39 11.8111 51.664C11.8431 52.612 11.5561 52.869 10.6471 52.808C10.0541 52.768 9.82711 52.668 9.83211 52.018C9.86411 48.604 9.84711 45.188 9.85011 41.771C9.85011 41.644 9.88411 41.515 9.92611 41.211C13.7381 43.981 17.4541 46.686 21.3621 49.528V47.208C21.3621 45.551 21.4121 43.891 21.3421 42.236C21.3041 41.344 21.8191 41.476 22.3621 41.461C22.9451 41.444 23.3651 41.413 23.3561 42.264C23.3161 45.848 23.3561 49.434 23.3661 53.017H22.9561L22.9551 53.015ZM158.033 53.015C157.251 52.75 156.456 52.52 155.691 52.215C153.491 51.339 152.297 49.721 152.241 47.331C152.183 44.958 153.219 43.175 155.396 42.245C158.763 40.805 162.163 40.859 165.49 42.449C165.78 42.589 166.512 42.716 165.96 43.339C165.62 43.724 165.498 44.419 164.59 43.889C161.994 42.379 159.218 42.455 156.486 43.491C154.88 44.099 154.226 45.511 154.236 47.141C154.246 48.761 154.856 50.179 156.486 50.788C159.336 51.854 162.192 51.885 164.846 50.228C165.718 49.683 165.786 50.422 166.134 50.738C166.694 51.251 166.074 51.425 165.804 51.615C164.788 52.33 163.628 52.675 162.406 52.828C162.222 52.851 161.988 52.748 161.891 53.016H158.033V53.015ZM92.4231 53.015C92.0631 52.649 91.5611 52.72 91.1231 52.608C88.4081 51.908 86.7491 50.051 86.6271 47.543C86.4941 44.813 87.8521 42.75 90.6051 41.887C93.7321 40.907 96.8681 40.923 99.8651 42.449C100.127 42.581 100.861 42.684 100.41 43.244C100.097 43.631 99.9801 44.471 98.9841 43.892C96.3901 42.385 93.6111 42.446 90.8791 43.49C89.2341 44.12 88.5931 45.555 88.6191 47.234C88.6451 48.922 89.3741 50.322 91.0321 50.878C93.8571 51.825 96.6871 51.868 99.3021 50.186C100.132 49.653 100.17 50.462 100.51 50.736C101 51.126 100.576 51.35 100.284 51.556C99.2401 52.301 98.0541 52.662 96.7971 52.829C96.6141 52.852 96.3801 52.749 96.2831 53.016C94.9951 53.014 93.7081 53.014 92.4231 53.014V53.015ZM75.5641 53.015C75.0841 52.613 74.4541 52.651 73.9041 52.449C71.9111 51.714 70.8881 50.363 70.8601 48.259C70.8321 46.231 70.8951 44.199 70.8331 42.172C70.8061 41.308 71.3151 41.466 71.8031 41.468C72.2891 41.468 72.8071 41.301 72.7781 42.168C72.7141 44.026 72.7521 45.888 72.7601 47.748C72.7701 49.913 73.5901 50.942 75.7001 51.311C77.1021 51.557 78.5301 51.561 79.9321 51.291C81.9701 50.898 82.7501 49.933 82.7641 47.861C82.7761 46.103 82.7871 44.344 82.7561 42.587C82.7431 41.877 82.7261 41.409 83.7181 41.422C84.6281 41.432 84.7501 41.742 84.7241 42.526C84.6671 44.249 84.7071 45.974 84.7061 47.699C84.7041 50.759 83.1801 52.459 80.1231 52.809C79.9411 52.831 79.7031 52.727 79.6251 53.009C78.2711 53.011 76.9171 53.011 75.5631 53.011L75.5641 53.015Z" fill="#161616"/>
<path fill-rule="evenodd" clip-rule="evenodd" d="M61.9814 9.376C60.5514 12.459 59.1914 15.394 57.8284 18.326C56.4784 21.236 55.1214 24.141 53.7704 27.051C53.2844 28.096 53.4604 28.558 54.5344 28.977C55.0074 29.162 55.5074 29.227 56.0244 29.223C58.6964 29.211 61.3704 29.189 64.0424 29.237C64.7654 29.25 65.1024 29.004 65.3974 28.362C68.1974 22.292 71.0424 16.245 73.8374 10.174C74.1244 9.549 74.4504 9.354 75.1204 9.362C78.5374 9.398 81.9544 9.392 85.3704 9.366C86.0404 9.361 86.2044 9.476 85.8974 10.133C81.8474 18.787 77.8124 27.446 73.7944 36.113C73.5744 36.591 73.3214 36.748 72.8114 36.746C65.3714 36.713 57.9274 36.722 50.4854 36.661C48.7694 36.646 47.0454 36.503 45.3754 35.995C41.4004 34.785 39.7604 31.533 41.4484 27.775C44.1324 21.8 46.9554 15.888 49.7054 9.945C49.8834 9.56 50.0784 9.368 50.5274 9.37C54.2834 9.386 58.0374 9.38 61.9804 9.38L61.9814 9.376ZM76.1194 36.732C76.8454 35.167 77.5194 33.709 78.1974 32.252C81.6314 24.882 85.0774 17.517 88.4814 10.132C88.7574 9.532 89.0684 9.36 89.6884 9.364C93.1034 9.39 96.5184 9.401 99.9344 9.36C100.804 9.35 100.769 9.6 100.464 10.254C96.4644 18.812 92.4844 27.38 88.4924 35.942C88.3204 36.314 88.2474 36.752 87.6224 36.747C83.8424 36.717 80.0624 36.732 76.1204 36.732H76.1194Z" fill="#EF4A24"/>
<path fill-rule="evenodd" clip-rule="evenodd" d="M143.025 48.285L147.025 52.715C145.649 52.878 144.488 52.972 143.735 51.665C143.505 51.265 143.017 51.011 142.797 50.608C141.137 47.558 138.262 48.37 135.655 48.313C135.22 48.303 135.289 48.609 135.289 48.869C135.285 49.917 135.225 50.971 135.306 52.014C135.376 52.904 134.849 52.769 134.306 52.792C133.699 52.817 133.314 52.796 133.326 51.972C133.376 48.722 133.346 45.474 133.35 42.226C133.35 41.876 133.236 41.446 133.852 41.463C137.095 41.558 140.352 41.225 143.582 41.665C145.962 41.989 147.059 43.445 146.685 45.54C146.495 46.61 145.829 47.287 144.885 47.698C144.338 47.936 143.743 48.063 143.025 48.285ZM139.113 46.811C140.461 46.809 141.817 46.899 143.146 46.641C144.263 46.421 144.806 45.794 144.791 44.901C144.776 43.984 144.261 43.468 143.095 43.233C141.491 42.91 139.868 43.096 138.255 43.08C137.29 43.07 135.928 42.642 135.462 43.244C134.967 43.884 135.344 45.174 135.274 46.174C135.234 46.76 135.497 46.832 135.977 46.82C137.021 46.795 138.067 46.812 139.112 46.81L139.113 46.811ZM65.0169 48.285L69.0299 52.721C67.7959 52.776 66.7799 53.058 65.9399 51.937C65.1159 50.832 64.0869 49.879 63.1729 48.837C62.8329 48.452 62.4729 48.287 61.9489 48.303C60.6289 48.341 59.3089 48.347 57.9889 48.301C57.3919 48.281 57.2559 48.491 57.2769 49.046C57.3169 50.094 57.2519 51.146 57.3009 52.192C57.3369 52.948 56.8389 52.819 56.4369 52.77C56.0239 52.72 55.3409 53.128 55.3439 52.204C55.3539 48.819 55.3539 45.434 55.3439 42.051C55.3419 41.621 55.4839 41.449 55.9299 41.463C59.0729 41.557 62.2259 41.263 65.3599 41.636C67.8769 41.934 69.0459 43.351 68.6859 45.523C68.5079 46.601 67.8379 47.273 66.9019 47.693C66.3339 47.943 65.7119 48.073 65.0179 48.286L65.0169 48.285ZM61.1469 46.813C62.4969 46.803 63.8589 46.906 65.1909 46.623C66.2929 46.388 66.8589 45.726 66.7839 44.836C66.6999 43.832 66.0559 43.398 65.1189 43.23C63.5039 42.937 61.8789 43.092 60.2589 43.08C59.2919 43.072 57.9259 42.64 57.4589 43.25C56.9639 43.894 57.3309 45.185 57.2789 46.19C57.2549 46.676 57.3989 46.84 57.8989 46.824C58.9809 46.788 60.0639 46.812 61.1469 46.814V46.813ZM187.12 45.453C187.12 47.623 187.082 49.743 187.14 51.86C187.162 52.636 186.933 52.827 186.18 52.81C185.485 52.793 185.18 52.71 185.194 51.888C185.248 48.605 185.216 45.321 185.218 42.036C185.218 41.81 185.238 41.584 185.262 41.146C186.208 42.003 187.022 42.739 187.832 43.476C189.356 44.866 190.896 46.239 192.396 47.654C192.892 48.122 193.178 48.247 193.756 47.674C195.82 45.628 197.964 43.661 200.082 41.667C200.222 41.535 200.319 41.333 200.577 41.332C200.807 41.542 200.687 41.829 200.687 42.076C200.697 45.359 200.669 48.643 200.712 51.926C200.722 52.67 200.484 52.852 199.797 52.796C199.219 52.748 198.689 52.896 198.73 51.953C198.81 50.129 198.76 48.298 198.748 46.471C198.745 46.155 198.858 45.811 198.581 45.428C196.944 46.974 195.311 48.476 193.731 50.028C193.249 50.503 192.973 50.571 192.444 50.064C190.956 48.637 189.398 47.284 187.864 45.904C187.676 45.738 187.527 45.494 187.121 45.454L187.12 45.453ZM46.5769 41.467C48.5729 41.467 50.5689 41.495 52.5639 41.451C53.2369 41.437 53.4739 41.571 53.4989 42.311C53.5269 43.154 53.1149 43.121 52.5259 43.111C51.1399 43.084 49.7509 43.134 48.3659 43.087C47.7209 43.067 47.5119 43.227 47.5229 43.907C47.5629 46.477 47.5299 49.049 47.5449 51.619C47.5489 52.325 47.6349 52.851 46.5479 52.834C45.4349 52.814 45.5919 52.23 45.5939 51.559C45.6039 49.022 45.5809 46.485 45.6099 43.949C45.6169 43.311 45.4599 43.059 44.7699 43.086C43.3169 43.141 41.8599 43.072 40.4069 43.116C39.7929 43.136 39.6629 42.896 39.6989 42.354C39.7289 41.876 39.6169 41.434 40.3889 41.452C42.4489 41.502 44.5149 41.469 46.5789 41.469L46.5769 41.467ZM108.403 41.467C110.433 41.467 112.463 41.5 114.488 41.447C115.201 41.43 115.221 41.753 115.23 42.297C115.24 42.861 115.17 43.147 114.48 43.117C113.03 43.059 111.574 43.133 110.122 43.087C109.472 43.065 109.26 43.231 109.27 43.913C109.31 46.583 109.258 49.255 109.305 51.923C109.319 52.66 109.088 52.82 108.397 52.806C107.727 52.79 107.374 52.756 107.393 51.906C107.457 49.236 107.401 46.564 107.431 43.894C107.438 43.287 107.293 43.064 106.647 43.084C105.162 43.134 103.671 43.061 102.187 43.117C101.48 43.144 101.451 42.817 101.441 42.271C101.431 41.686 101.551 41.436 102.219 41.451C104.279 41.497 106.342 41.468 108.404 41.468L108.403 41.467ZM4.7689 47.124C4.7689 45.467 4.8059 43.809 4.7549 42.154C4.7249 41.184 5.3849 41.516 5.8529 41.471C6.3429 41.425 6.7389 41.396 6.7279 42.156C6.6839 45.469 6.6839 48.786 6.7279 52.098C6.7379 52.861 6.3379 52.824 5.8509 52.778C5.3829 52.738 4.7249 53.064 4.7549 52.095C4.8069 50.44 4.7689 48.782 4.7689 47.125V47.124ZM149.955 50.767C150.715 50.627 151.14 50.697 151.149 51.731C151.159 52.821 150.659 52.771 149.889 52.808C149.035 52.848 148.763 52.651 148.741 51.724C148.715 50.674 149.204 50.644 149.955 50.768V50.767Z" fill="#161616"/>
</svg>
