<svg width="103" height="28" viewBox="0 0 103 28" fill="none" xmlns="http://www.w3.org/2000/svg">
<path fill-rule="evenodd" clip-rule="evenodd" d="M19.7891 24.1691C22.9166 22.3741 26.3537 19.8221 30.7063 16.2049C31.0102 15.9524 31.3078 15.6855 31.5816 15.3989C31.3207 15.672 31.0382 15.9272 30.7492 16.1691V18.8586C30.7492 19.4586 30.6492 20.0136 30.4492 20.5236C30.2492 21.0336 29.9592 21.4736 29.5792 21.8436C29.2092 22.2136 28.7542 22.5036 28.2142 22.7136C27.6842 22.9236 27.0842 23.0286 26.4142 23.0286C25.8342 23.0286 25.2792 22.9336 24.7492 22.7436C24.2292 22.5536 23.7692 22.2836 23.3692 21.9336L23.3381 21.9061C22.0953 22.7695 20.9219 23.519 19.7891 24.1691ZM31.3391 9.98875C31.1954 9.87532 31.0484 9.76601 30.9012 9.65933C29.8302 8.88326 28.815 8.16317 27.8446 7.49568C28.815 8.16317 29.8302 8.88326 30.9012 9.65934C31.0484 9.76602 31.1954 9.87532 31.3391 9.98875ZM25.2742 20.5115C26.2496 19.786 27.2707 18.9942 28.3492 18.1303V19.1586C28.3492 19.4686 28.2992 19.7486 28.1992 19.9986C28.1092 20.2386 27.9792 20.4486 27.8092 20.6286C27.6492 20.7986 27.4592 20.9286 27.2392 21.0186C27.0192 21.1086 26.7842 21.1536 26.5342 21.1536C26.3542 21.1536 26.1642 21.1136 25.9642 21.0336C25.7642 20.9536 25.5792 20.8336 25.4092 20.6736C25.3621 20.6235 25.3171 20.5695 25.2742 20.5115Z" fill="#A11F1F"/>
<path fill-rule="evenodd" clip-rule="evenodd" d="M23.3389 21.9061C18.7355 25.1042 15.0843 26.739 10.9217 27.5544C9.4696 27.8389 7.95606 27.7036 6.59237 27.1292C1.13993 24.8326 -0.467874 21.4564 0.111527 13.2723C-0.31168 5.37829 1.14862 2.17878 7.18821 0.323717C8.18093 0.0188008 9.23152 -0.0650807 10.2638 0.0483702C17.3351 0.825534 22.3343 3.45071 30.9019 9.65934C31.5847 10.1541 32.2624 10.7054 32.6335 11.4626C33.0144 12.2397 33.0059 12.9369 32.6723 13.7766C32.2902 14.7384 31.5443 15.5041 30.75 16.1691V12.7086H28.35V18.1303C27.2715 18.9942 26.2503 19.786 25.275 20.5115C25.1726 20.3729 25.0826 20.212 25.005 20.0286C24.895 19.7586 24.84 19.4436 24.84 19.0836V12.7086H22.05V18.9336C22.05 19.5636 22.17 20.1336 22.41 20.6436C22.6437 21.1403 22.9534 21.5611 23.3389 21.9061ZM11.59 12.2386H20.62V22.3486C18.94 23.0086 17.48 23.4786 16.24 23.7586C15 24.0186 13.88 24.1486 12.88 24.1486C11.36 24.1486 9.94 23.9486 8.62 23.5486C7.3 23.1486 6.15 22.5286 5.17 21.6886C4.21 20.8286 3.45 19.7486 2.89 18.4486C2.33 17.1486 2.05 15.5986 2.05 13.7986C2.05 11.9986 2.33 10.4386 2.89 9.11861C3.45 7.79861 4.21 6.70861 5.17 5.84861C6.13 4.96861 7.26 4.31861 8.56 3.89861C9.86 3.47861 11.26 3.26861 12.76 3.26861C13.92 3.26861 15.17 3.46861 16.51 3.86861C17.87 4.24861 19.26 4.87861 20.68 5.75861L19.69 9.35861C18.65 8.75861 17.52 8.21861 16.3 7.73861C15.1 7.25861 13.92 7.01861 12.76 7.01861C11.24 7.01861 10.06 7.56861 9.22 8.66861C8.38 9.74861 7.96 11.4286 7.96 13.7086C7.96 16.0086 8.4 17.6986 9.28 18.7786C10.16 19.8586 11.43 20.3986 13.09 20.3986C13.37 20.3986 13.66 20.3686 13.96 20.3086C14.26 20.2486 14.62 20.1586 15.04 20.0386V15.9586H11.59V12.2386Z" fill="#A11F1F"/>
<path d="M35.072 13.7486V21.9086H32.84V13.7486H35.072ZM43.2701 13.7486V15.2366H40.7861V21.9086H38.5541V15.2366H36.0341V13.7486H43.2701ZM48.437 21.9086C48.333 21.6686 48.233 21.4366 48.137 21.2126C48.049 20.9886 47.965 20.7846 47.885 20.6006C47.813 20.4166 47.753 20.2646 47.705 20.1446C47.657 20.0166 47.625 19.9326 47.609 19.8926H44.945C44.817 20.1966 44.685 20.5246 44.549 20.8766C44.413 21.2286 44.281 21.5726 44.153 21.9086H42.245C42.733 20.6286 43.149 19.5446 43.493 18.6566C43.845 17.7606 44.141 17.0046 44.381 16.3886C44.621 15.7646 44.817 15.2486 44.969 14.8406C45.129 14.4326 45.269 14.0686 45.389 13.7486H47.561L50.705 21.9086H48.437ZM47.081 18.4166L46.613 17.1806L46.325 16.1246H46.241L45.929 17.1806L45.473 18.4166H47.081ZM54.4923 17.3006C54.7483 17.3006 54.9283 17.2006 55.0323 17.0006C55.1443 16.7926 55.2003 16.5486 55.2003 16.2686C55.2003 15.9486 55.1163 15.6966 54.9483 15.5126C54.7883 15.3286 54.5883 15.2366 54.3483 15.2366H53.8923V17.3006H54.4923ZM55.9923 21.9086C55.7123 21.3246 55.4483 20.8046 55.2003 20.3486C55.0963 20.1566 54.9883 19.9686 54.8763 19.7846C54.7643 19.5926 54.6563 19.4246 54.5523 19.2806C54.4563 19.1286 54.3643 19.0086 54.2763 18.9206C54.1963 18.8246 54.1283 18.7766 54.0723 18.7766H53.8923V21.9086H51.6603V13.7486H54.6243C55.0403 13.7486 55.4203 13.8046 55.7643 13.9166C56.1163 14.0206 56.4163 14.1766 56.6643 14.3846C56.9203 14.5926 57.1163 14.8526 57.2523 15.1646C57.3963 15.4686 57.4683 15.8206 57.4683 16.2206C57.4683 16.6686 57.3363 17.0646 57.0723 17.4086C56.8083 17.7526 56.4963 18.0286 56.1363 18.2366C56.3123 18.4046 56.4763 18.6086 56.6283 18.8486C56.7803 19.0886 56.9123 19.3126 57.0243 19.5206C57.0323 19.5366 57.0763 19.6246 57.1563 19.7846C57.2443 19.9366 57.3523 20.1326 57.4803 20.3726C57.6083 20.6046 57.7483 20.8566 57.9003 21.1286C58.0523 21.4006 58.1963 21.6606 58.3323 21.9086H55.9923Z" fill="#A11F1F"/>
<path d="M66.356 13.7486V15.2366H63.872V21.9086H61.64V15.2366H59.12V13.7486H66.356ZM70.1486 17.3006C70.4046 17.3006 70.5846 17.2006 70.6886 17.0006C70.8006 16.7926 70.8566 16.5486 70.8566 16.2686C70.8566 15.9486 70.7726 15.6966 70.6046 15.5126C70.4446 15.3286 70.2446 15.2366 70.0046 15.2366H69.5486V17.3006H70.1486ZM71.6486 21.9086C71.3686 21.3246 71.1046 20.8046 70.8566 20.3486C70.7526 20.1566 70.6446 19.9686 70.5326 19.7846C70.4206 19.5926 70.3126 19.4246 70.2086 19.2806C70.1126 19.1286 70.0206 19.0086 69.9326 18.9206C69.8526 18.8246 69.7846 18.7766 69.7286 18.7766H69.5486V21.9086H67.3166V13.7486H70.2806C70.6966 13.7486 71.0766 13.8046 71.4206 13.9166C71.7726 14.0206 72.0726 14.1766 72.3206 14.3846C72.5766 14.5926 72.7726 14.8526 72.9086 15.1646C73.0526 15.4686 73.1246 15.8206 73.1246 16.2206C73.1246 16.6686 72.9926 17.0646 72.7286 17.4086C72.4646 17.7526 72.1526 18.0286 71.7926 18.2366C71.9686 18.4046 72.1326 18.6086 72.2846 18.8486C72.4366 19.0886 72.5686 19.3126 72.6806 19.5206C72.6886 19.5366 72.7326 19.6246 72.8126 19.7846C72.9006 19.9366 73.0086 20.1326 73.1366 20.3726C73.2646 20.6046 73.4046 20.8566 73.5566 21.1286C73.7086 21.4006 73.8526 21.6606 73.9886 21.9086H71.6486ZM77.1775 13.7486V21.9086H74.9455V13.7486H77.1775ZM85.0995 21.4526C84.7155 21.6126 84.3275 21.7446 83.9355 21.8486C83.5435 21.9526 83.1555 22.0046 82.7715 22.0046C82.0995 22.0046 81.4955 21.9046 80.9595 21.7046C80.4235 21.5046 79.9675 21.2246 79.5915 20.8646C79.2235 20.5046 78.9395 20.0726 78.7395 19.5686C78.5395 19.0646 78.4395 18.5046 78.4395 17.8886C78.4395 17.1606 78.5475 16.5286 78.7635 15.9926C78.9795 15.4566 79.2795 15.0166 79.6635 14.6726C80.0555 14.3286 80.5155 14.0726 81.0435 13.9046C81.5795 13.7366 82.1635 13.6526 82.7955 13.6526C83.1235 13.6526 83.4755 13.7006 83.8515 13.7966C84.2355 13.8926 84.6435 14.0326 85.0755 14.2166L84.6795 15.6926C84.3995 15.5406 84.0955 15.4126 83.7675 15.3086C83.4475 15.1966 83.1275 15.1406 82.8075 15.1406C82.1595 15.1406 81.6595 15.3606 81.3075 15.8006C80.9635 16.2406 80.7915 16.9086 80.7915 17.8046C80.7915 18.7246 80.9635 19.4006 81.3075 19.8326C81.6515 20.2646 82.1515 20.4806 82.8075 20.4806C83.1515 20.4806 83.7315 20.3006 84.5475 19.9406L85.0995 21.4526ZM91.6529 21.9086L89.0129 18.7766L88.5329 19.2926V21.9086H86.3009V13.7486H88.5329V16.6166L91.3289 13.7486H93.7529L90.3569 17.3366L94.2689 21.9086H91.6529ZM97.224 18.7886C96.888 18.6446 96.572 18.4926 96.276 18.3326C95.988 18.1646 95.74 17.9726 95.532 17.7566C95.324 17.5406 95.16 17.2926 95.04 17.0126C94.92 16.7326 94.86 16.4046 94.86 16.0286C94.86 15.6446 94.936 15.3086 95.088 15.0206C95.24 14.7246 95.452 14.4766 95.724 14.2766C96.004 14.0686 96.336 13.9126 96.72 13.8086C97.104 13.7046 97.524 13.6526 97.98 13.6526C98.58 13.6526 99.132 13.7286 99.636 13.8806C100.148 14.0326 100.596 14.1926 100.98 14.3606L100.56 15.8846C100.168 15.6846 99.756 15.5126 99.324 15.3686C98.9 15.2246 98.476 15.1526 98.052 15.1526C97.724 15.1526 97.504 15.2166 97.392 15.3446C97.28 15.4726 97.224 15.6126 97.224 15.7646C97.224 15.9246 97.36 16.0886 97.632 16.2566C97.904 16.4166 98.244 16.6006 98.652 16.8086L99.288 17.1326C99.864 17.4206 100.3 17.7486 100.596 18.1166C100.892 18.4766 101.04 18.9446 101.04 19.5206C101.04 19.8486 100.984 20.1646 100.872 20.4686C100.768 20.7646 100.592 21.0286 100.344 21.2606C100.096 21.4846 99.764 21.6646 99.348 21.8006C98.932 21.9366 98.42 22.0046 97.812 22.0046C97.164 22.0046 96.572 21.9446 96.036 21.8246C95.5 21.6966 95.068 21.5806 94.74 21.4766L95.172 19.9886C95.324 20.0526 95.496 20.1126 95.688 20.1686C95.88 20.2246 96.08 20.2766 96.288 20.3246C96.504 20.3646 96.72 20.4006 96.936 20.4326C97.16 20.4566 97.376 20.4686 97.584 20.4686C97.688 20.4686 97.796 20.4566 97.908 20.4326C98.028 20.4086 98.136 20.3726 98.232 20.3246C98.328 20.2686 98.404 20.1966 98.46 20.1086C98.524 20.0206 98.556 19.9086 98.556 19.7726C98.556 19.6846 98.52 19.5966 98.448 19.5086C98.376 19.4206 98.276 19.3366 98.148 19.2566C98.028 19.1686 97.888 19.0886 97.728 19.0166C97.568 18.9366 97.4 18.8606 97.224 18.7886Z" fill="#A29485"/>
</svg>
