<?xml version="1.0" encoding="utf-8"?>
<!-- Generator: Adobe Illustrator 16.0.0, SVG Export Plug-In . SVG Version: 6.00 Build 0)  -->
<!DOCTYPE svg PUBLIC "-//W3C//DTD SVG 1.1//EN" "http://www.w3.org/Graphics/SVG/1.1/DTD/svg11.dtd">
<svg version="1.1" id="Layer_1" xmlns="http://www.w3.org/2000/svg" xmlns:xlink="http://www.w3.org/1999/xlink" x="0px" y="0px"
	 width="798.328px" height="182.395px" viewBox="0 0 798.328 182.395" enable-background="new 0 0 798.328 182.395"
	 xml:space="preserve">
<path opacity="0.6" fill="#626366" d="M134.985,85.103c0.004,0.002,0.004,0.005,0.006,0.008c0.098,0.031,0.293,0.086,0.293,0.086
	L134.985,85.103z"/>
<radialGradient id="SVGID_1_" cx="405.2671" cy="-135.6975" r="0.1093" gradientTransform="matrix(1 0 0 -1 -270 -50.605)" gradientUnits="userSpaceOnUse">
	<stop  offset="0" style="stop-color:#D9D9D9"/>
	<stop  offset="1" style="stop-color:#B3B3B3"/>
</radialGradient>
<path opacity="0.6" fill="url(#SVGID_1_)" d="M135.124,85.054c0.1,0.027,0.29,0.086,0.29,0.086l-0.294-0.096
	C135.12,85.044,135.12,85.05,135.124,85.054z"/>
<path opacity="0.6" fill="#626366" d="M123.729,60.523c0,0,0-0.032-0.002-0.049h0.007C123.734,60.49,123.729,60.523,123.729,60.523"
	/>
<path opacity="0.6" fill="#626366" d="M123.728,60.474v-0.009c0,0.003,0.007,0.003,0.007,0.009H123.728z"/>
<path fill="#1D85BA" d="M66.206,6.284c-4.317,1.888-6.477,2.831-10.791,4.718C13.38,32.82-16.985,64.924,13.583,109.01
	c16.072,23.182,37.893,43.275,58.223,62.711c6.737,5.705,12.814,8.631,18.066,9.689c0,0,1.061,0.273,1.57,0.267
	c0.525,0.069,1.514-0.08,1.514-0.08c4.982-0.437,10.143-2.706,14.836-8.536c0,0,8.441-12.059,16.855-32.125
	c3.194-7.619,6.383-16.396,9.135-25.941c3.236-11.255,6.031-20.335,7.086-34.378c-0.359-8.399-10.383-12.596-10.48-12.621
	c-13.295-3.207-27.211-3.902-40.743-1.601c-17.092,2.912-34.2,15.545-41.275,22.994c-0.375,0.394-6.2,4.312-0.225,14.408
	c6.638,10.69,13.839,25.193,28.328,22.739c4.79-1.241,7.187-1.876,11.966-3.172c0,0,10.451-1.311,10.91,6.81
	c0,0,2.589,11.451-11.561,13.764c-15.581,0.662-29.617-11.761-38.922-22.977c0,0-21.125-22.101-14.843-33.715
	c0.284-0.525,0.605-1.039,1.007-1.525c0,0,0.734-1.125,2.344-2.861c13.245-14.31,31.094-21.63,49.159-26.125
	c16.347-4.062,34.864-2.974,51.835,1.196c0,0,3.391,0.533,3.498-3.166C140.132,8.755,108.956-9.544,66.206,6.284 M108.808,165.401
	l-0.318,0.477L108.808,165.401z"/>
<path opacity="0.8" fill="#FFFFFF" d="M92.971,4.606c-2.997,0-6.136,0.247-9.333,0.732l-1.845,0.28
	C81.662,5.647,68.394,8.54,52.722,16.28C38.255,23.426,18.717,36.284,7.813,56.943c-1.542,2.606-4.348,10.164-3.895,20.08
	c0.947,20.699,14.802,38.642,26.242,50.035c0.107,0.127,10.828,12.766,23.463,25.241c16.995,16.776,29.172,25.281,36.197,25.281
	c0.562,0,1.095-0.055,1.586-0.165c0.029,0,0.078,0.003,0.158,0.003c0.988,0,4.601-0.314,9.568-4.366
	c6.456-5.27,12.385-14.483,17.625-27.389c0.043-0.105,4.486-10.723,9.01-23.824c4.177-12.096,9.287-28.85,9.889-39.946
	c0.01-0.109,0.329-3.441,0.477-8.581c-0.112-0.133-0.22-0.271-0.337-0.397c-0.14,5.346-0.479,8.838-0.489,8.953
	c-1.152,21.186-18.695,63.239-18.871,63.664C105.986,176.185,93,177.07,91.565,177.07c-0.104,0-0.156-0.002-0.158-0.004h-0.023
	l-0.029,0.004c-0.471,0.105-0.99,0.16-1.533,0.16c-16.556,0-58.965-49.895-59.4-50.407C19.013,115.465,5.224,97.607,4.271,77.033
	c-0.57-12.302,3.8-19.838,3.848-19.921C18.981,36.531,38.45,23.72,52.869,16.597C68.506,8.876,81.737,5.99,81.856,5.962l1.829-0.277
	c3.18-0.484,6.308-0.729,9.285-0.729c26.378,0,36.079,19.13,36.183,19.337c5.431,9.15,7.596,21.979,8.35,33.206
	c0.117,0.026,0.237,0.055,0.354,0.082c-0.749-11.293-2.92-24.228-8.398-33.455C129.362,23.929,119.57,4.606,92.971,4.606z"/>
<path opacity="0.8" fill="#FFFFFF" d="M90.128,9.923c-2.829,0-5.795,0.231-8.812,0.688l-1.742,0.269
	c-0.123,0.027-12.653,2.758-27.449,10.063c-13.662,6.75-32.111,18.891-42.41,38.4c-0.043,0.07-4.21,7.258-3.675,18.965
	c0.894,19.549,13.977,36.488,24.782,47.248c1.646,1.947,40.541,47.701,56.336,47.707c0,0,0,0,0.006,0
	c0.524,0,1.027-0.051,1.49-0.154c0.03,0.002,0.078,0.002,0.15,0.002c0.932,0,4.348-0.297,9.037-4.124
	c6.1-4.976,11.701-13.679,16.646-25.863c0.045-0.101,4.236-10.125,8.508-22.494c3.941-11.426,8.769-27.242,9.338-37.723
	c0.012-0.142,0.568-5.896,0.516-13.952c-0.121-0.071-0.236-0.137-0.35-0.204c0.066,8.146-0.498,13.984-0.518,14.128
	c-0.566,10.448-5.379,26.23-9.316,37.634c-4.27,12.363-8.455,22.377-8.5,22.479c-11.754,28.937-24.006,29.771-25.361,29.771
	c-0.094,0-0.145-0.003-0.15-0.003l-0.023-0.003l-0.028,0.006c-0.444,0.101-0.933,0.152-1.438,0.152c-0.006,0-0.006,0-0.006,0
	c-3.588,0-8.76-2.494-15.383-7.412c-5.314-3.947-11.559-9.451-18.555-16.36c-11.922-11.769-22.032-23.688-22.143-23.822
	C20.31,114.601,7.287,97.746,6.39,78.318c-0.541-11.608,3.584-18.725,3.633-18.802c10.253-19.433,28.634-31.528,42.248-38.251
	c14.758-7.291,27.252-10.017,27.37-10.043l1.726-0.263c3-0.456,5.951-0.688,8.762-0.688c24.898,0,34.061,18.059,34.154,18.253
	c4.557,7.681,6.682,18.099,7.6,27.764c0.119,0.021,0.235,0.041,0.356,0.065c-0.913-9.733-3.048-20.246-7.646-27.996
	C124.502,28.173,115.251,9.923,90.128,9.923z"/>
<path opacity="0.8" fill="#FFFFFF" d="M112.247,24.011c-4.653-3.941-12.789-8.643-25.101-8.643c-2.657,0-5.442,0.219-8.271,0.649
	l-1.634,0.247c-0.119,0.026-11.867,2.59-25.752,9.444c-12.82,6.331-30.123,17.72-39.785,36.022
	c-0.037,0.066-3.953,6.812-3.449,17.795c0.84,18.339,13.111,34.23,23.25,44.324c1.543,1.827,38.03,44.748,52.853,44.752h0.004
	c0.491,0,0.966-0.047,1.399-0.145c0.029,0,0.074,0.002,0.139,0.002c0.879,0,4.088-0.279,8.487-3.87
	c5.721-4.67,10.975-12.833,15.618-24.264c0.035-0.096,3.969-9.497,7.977-21.102c3.703-10.719,8.225-25.555,8.762-35.387
	c0.018-0.153,0.708-7.344,0.413-16.774c-0.118-0.023-0.231-0.052-0.351-0.077c0.303,9.449-0.396,16.668-0.414,16.824
	c-0.529,9.799-5.045,24.604-8.737,35.298c-4.004,11.596-7.935,20.988-7.974,21.083c-11.021,27.138-22.506,27.92-23.781,27.92
	c-0.088,0-0.133-0.002-0.139-0.007h-0.026l-0.022,0.007c-0.42,0.095-0.875,0.144-1.351,0.144c0,0,0,0-0.004,0
	c-6.048-0.002-17.057-7.712-31.826-22.296c-11.184-11.04-20.664-22.224-20.77-22.346C21.663,113.562,9.448,97.752,8.605,79.537
	c-0.503-10.89,3.362-17.562,3.404-17.636c9.62-18.223,26.86-29.567,39.626-35.873c13.844-6.84,25.561-9.396,25.667-9.418
	l1.624-0.248c2.812-0.428,5.578-0.644,8.22-0.644c23.343,0,31.935,16.929,32.021,17.114c3.718,6.258,5.704,14.453,6.726,22.441
	c0.121,0.018,0.24,0.04,0.355,0.055c-1.024-8.056-3.016-16.343-6.771-22.663C119.458,32.625,117.293,28.285,112.247,24.011z"/>
<path opacity="0.8" fill="#FFFFFF" d="M85.124,21.721c-2.468,0-5.053,0.204-7.685,0.604l-1.515,0.234
	c-0.107,0.021-11.021,2.402-23.913,8.769c-11.904,5.879-27.978,16.455-36.944,33.448c-0.041,0.062-3.674,6.331-3.207,16.531
	c0.777,17.033,12.172,31.795,21.584,41.168c1.438,1.695,35.326,41.556,49.092,41.56h0.002c0.459,0,0.897-0.048,1.305-0.138
	c0.021,0.003,0.063,0.004,0.12,0.004c0.819,0,3.804-0.262,7.893-3.6c5.313-4.337,10.19-11.92,14.505-22.531
	c0.035-0.086,3.686-8.82,7.409-19.594c3.432-9.952,7.638-23.73,8.134-32.859c0.018-0.16,0.842-8.706,0.219-19.166
	c-0.117-0.019-0.233-0.039-0.351-0.057c0.63,10.461-0.204,19.029-0.214,19.195c-0.498,9.095-4.688,22.84-8.119,32.77
	c-3.719,10.767-7.363,19.488-7.402,19.578c-10.23,25.188-20.887,25.912-22.073,25.912c-0.076,0-0.118-0.002-0.12-0.002h-0.028
	l-0.025,0.002c-0.388,0.09-0.81,0.132-1.251,0.132h-0.002c-5.614,0-15.827-7.155-29.545-20.694
	c-10.383-10.25-19.191-20.635-19.289-20.75c-9.375-9.331-20.708-24.01-21.496-40.919c-0.467-10.106,3.127-16.302,3.162-16.369
	C24.3,48.031,40.304,37.5,52.157,31.644c12.853-6.349,23.732-8.723,23.832-8.742l1.504-0.229c2.615-0.398,5.179-0.599,7.631-0.599
	c21.672,0,29.643,15.715,29.725,15.884c2.802,4.722,4.543,10.633,5.609,16.66c0.12,0.012,0.24,0.022,0.359,0.036
	c-1.068-6.098-2.826-12.084-5.664-16.86C115.077,37.63,107.021,21.721,85.124,21.721z"/>
<path opacity="0.8" fill="#FFFFFF" d="M83.946,29.182c-2.24,0-4.585,0.185-6.975,0.547l-1.377,0.212
	c-0.096,0.021-10.005,2.183-21.71,7.961C43.079,43.24,28.489,52.841,20.347,68.27c-0.035,0.06-3.338,5.75-2.914,15.017
	c0.707,15.464,11.053,28.862,19.596,37.373c0.08,0.092,8.082,9.529,17.519,18.843c12.688,12.529,21.796,18.884,27.052,18.885l0,0
	c0.418,0,0.817-0.041,1.188-0.123c0.021,0.002,0.061,0.003,0.115,0.003c0.74,0,3.451-0.234,7.169-3.269
	c4.824-3.938,9.256-10.82,13.171-20.459c0.128-0.315,13.243-31.757,14.107-47.617c0.02-0.168,0.985-10.189-0.117-21.418
	c-0.119-0.012-0.237-0.028-0.354-0.042c1.111,11.219,0.142,21.263,0.125,21.435c-0.865,15.808-13.953,47.193-14.088,47.508
	c-9.28,22.853-18.945,23.515-20.014,23.515c-0.072,0-0.113-0.002-0.115-0.004l-0.025-0.003l-0.027,0.007
	c-0.35,0.08-0.73,0.12-1.135,0.12l0,0c-12.344-0.003-43.982-37.229-44.314-37.616c-8.504-8.47-18.788-21.787-19.501-37.129
	c-0.427-9.167,2.83-14.787,2.865-14.851c8.106-15.354,22.628-24.911,33.384-30.225c11.664-5.762,21.539-7.914,21.623-7.932
	l1.369-0.213c2.369-0.359,4.7-0.541,6.922-0.541c19.658,0,26.894,14.252,26.973,14.409c1.775,2.996,3.082,6.523,4.035,10.245
	c0.123,0.005,0.246,0.013,0.365,0.016c-0.965-3.785-2.289-7.379-4.095-10.429C111.152,43.63,103.829,29.182,83.946,29.182z"/>
<path opacity="0.8" fill="#FFFFFF" d="M112.388,88.384c-0.738,13.493-11.299,39.506-12.639,42.756
	c0.016,0.242,0.027,0.521,0.029,0.822c0.053-0.118,0.105-0.228,0.15-0.349c0.12-0.282,12.021-28.812,12.803-43.2
	c0.018-0.175,1.13-11.691-0.586-23.338c-0.117-0.011-0.238-0.019-0.356-0.025C113.513,76.673,112.4,88.208,112.388,88.384z"/>
<path opacity="0.8" fill="#FFFFFF" d="M82.411,36.006c-2.033,0-4.16,0.167-6.33,0.495l-1.249,0.192
	c-0.091,0.019-9.082,1.98-19.704,7.225c-9.803,4.843-23.047,13.558-30.438,27.56c-0.027,0.054-3.027,5.219-2.644,13.631
	c0.643,14.035,10.034,26.197,17.784,33.921c1.184,1.396,29.096,34.23,40.449,34.233l0,0c0.377,0,0.74-0.036,1.078-0.111
	c0.02,0.003,0.054,0.003,0.101,0.003c0.676,0,3.14-0.217,6.517-2.971c2.618-2.138,5.103-5.248,7.441-9.259
	c-0.213,0.159-0.439,0.314-0.68,0.465c-6.648,11.018-12.497,11.414-13.278,11.414c-0.065,0-0.097-0.002-0.101-0.002l-0.027-0.005
	l-0.027,0.009c-0.318,0.07-0.664,0.108-1.023,0.108l0,0c-4.615-0.003-13.023-5.895-24.312-17.037
	c-8.546-8.439-15.798-16.989-15.88-17.087c-7.715-7.682-17.048-19.76-17.691-33.671c-0.387-8.315,2.565-13.413,2.6-13.472
	C39.065,44.991,74.549,37.11,74.893,37.038l1.236-0.19c2.152-0.327,4.264-0.492,6.281-0.492c17.826,0,24.385,12.925,24.454,13.066
	c0.841,1.413,1.556,2.962,2.181,4.591c0.125,0.002,0.247,0.002,0.373,0.002c-0.639-1.688-1.379-3.296-2.245-4.758
	C107.108,49.125,100.462,36.006,82.411,36.006z"/>
<path opacity="0.8" fill="#FFFFFF" d="M106.988,64.898c-0.118,0-0.24-0.005-0.362-0.006c2.693,11.601,1.392,25.031,1.377,25.211
	c-0.56,10.239-7.491,28.597-10.23,35.495c0.092,0.092,0.172,0.202,0.258,0.303c2.695-6.781,9.755-25.404,10.318-35.769
	C108.37,89.957,109.665,76.543,106.988,64.898z"/>
<path opacity="0.8" fill="#FFFFFF" d="M80.595,147.225c-0.055,0-0.087-0.001-0.088-0.002h-0.029l-0.025,0.002
	c-0.277,0.063-0.586,0.097-0.904,0.097c-9.918,0-35.373-29.944-35.635-30.258c-6.84-6.811-15.113-17.518-15.688-29.851
	c-0.344-7.37,2.273-11.889,2.303-11.942C43.005,51.636,74.47,44.65,74.772,44.585l1.101-0.17c1.908-0.291,3.777-0.437,5.563-0.437
	c12.549,0,18.781,7.207,20.854,10.242c0.134-0.006,0.268-0.02,0.406-0.027c-2-2.99-8.33-10.564-21.26-10.564
	c-1.805,0-3.691,0.146-5.619,0.439l-1.104,0.171c-0.319,0.068-31.942,7.086-44.487,30.862c-0.029,0.045-2.693,4.635-2.352,12.102
	c0.569,12.454,8.902,23.246,15.783,30.095c0.062,0.077,6.502,7.67,14.094,15.169c10.222,10.089,17.551,15.205,21.797,15.205
	c0.338,0,0.662-0.034,0.959-0.102c0.016,0,0.045,0.005,0.088,0.005c0.6,0,2.795-0.19,5.793-2.641c0.438-0.36,0.874-0.759,1.309-1.18
	c-0.172,0.005-0.338-0.007-0.508-0.005C83.685,147.056,81.073,147.225,80.595,147.225z"/>
<path opacity="0.8" fill="#FFFFFF" d="M75.462,50.021l-0.973,0.151c-0.277,0.06-27.979,6.208-38.97,27.032
	c-0.021,0.039-2.358,4.062-2.059,10.606c0.015,0.359,0.057,0.715,0.09,1.069c0.083-0.28,0.172-0.562,0.274-0.834
	c0-0.073-0.01-0.153-0.014-0.227c-0.299-6.448,1.985-10.399,2.014-10.444c10.919-20.688,38.459-26.803,38.728-26.861l0.957-0.146
	c1.673-0.255,3.307-0.385,4.874-0.385c6.881,0,11.6,2.486,14.605,4.998c0.15-0.022,0.301-0.047,0.451-0.068
	c-3.046-2.616-7.89-5.276-15.057-5.276C78.802,49.636,77.146,49.766,75.462,50.021z"/>
<path opacity="0.8" fill="#FFFFFF" d="M103.624,90.353c-0.568,10.431-8.709,30.506-9.801,33.166c0.112,0.027,0.225,0.062,0.338,0.09
	c1.152-2.801,9.238-22.795,9.809-33.229c0.018-0.167,1.416-14.627-2.107-25.394c-0.115,0.005-0.237,0.009-0.362,0.014
	C105.034,75.699,103.637,90.175,103.624,90.353z"/>
<path opacity="0.8" fill="#FFFFFF" d="M40.497,79.768c9.777-17.167,32.796-22.29,33.021-22.337l0.834-0.129
	c1.443-0.219,2.861-0.331,4.214-0.331c1.735,0,3.288,0.196,4.7,0.503c0.239-0.062,0.471-0.123,0.713-0.186
	c-1.604-0.4-3.385-0.666-5.413-0.666c-1.37,0-2.806,0.11-4.267,0.334l-0.846,0.13c-0.238,0.052-24.258,5.379-33.783,23.437
	c-0.002,0.005-0.033,0.056-0.074,0.136C39.896,80.363,40.194,80.06,40.497,79.768z"/>
<radialGradient id="SVGID_2_" cx="330.0654" cy="-167.5159" r="9.1511" gradientTransform="matrix(1 0 0 -1 -270 -50.605)" gradientUnits="userSpaceOnUse">
	<stop  offset="0" style="stop-color:#D9D9D9"/>
	<stop  offset="1" style="stop-color:#B3B3B3"/>
</radialGradient>
<path fill="url(#SVGID_2_)" d="M52.849,109.803c-0.693-0.69-1.325-1.369-1.934-2.044c0.304,0.498,0.609,0.998,0.918,1.497
	c0.248,0.263,0.492,0.52,0.758,0.785c0.482,0.565,8.601,10.11,15.668,15.732c0.312,0.107,0.633,0.201,0.957,0.289
	C61.923,120.474,52.98,109.954,52.849,109.803z"/>
<path opacity="0.8" fill="#FFFFFF" d="M74.767,124.011L74.767,124.011c0.184,0,0.357-0.019,0.527-0.054c0.008,0,0.022,0,0.041,0
	c0.33,0,1.538-0.104,3.185-1.446c2.106-1.727,4.052-4.736,5.758-8.949c0.056-0.137,5.774-13.84,6.151-20.758
	c0.011-0.122,1.193-12.316-2.678-18.838c-0.02-0.049-1.876-3.692-6.553-5.464c-0.186,0.062-0.368,0.116-0.554,0.183
	c4.854,1.652,6.772,5.39,6.8,5.445c3.817,6.436,2.649,18.518,2.638,18.647c-0.376,6.865-6.068,20.513-6.127,20.648
	c-4.007,9.877-8.147,10.179-8.661,10.179h-0.003l-0.028-0.001l-0.023,0.006c-0.146,0.031-0.301,0.05-0.473,0.05l0,0
	c-5.334-0.002-19.076-16.173-19.225-16.347c-6.648-6.623-8.348-12.421-8.445-16.475c-0.119,0.174-0.24,0.361-0.357,0.563
	c0.215,3.742,1.893,9.523,8.546,16.148C55.854,108.222,69.274,124.007,74.767,124.011z"/>
<path opacity="0.8" fill="#FFFFFF" d="M50.703,91.586c0.138,3.058,1.474,7.859,7.001,13.37c0.465,0.549,11.443,13.463,15.949,13.465
	l0,0c0.154,0,0.294-0.017,0.432-0.043c0.195-0.002,1.239-0.037,2.649-1.189c1.731-1.414,3.323-3.879,4.722-7.328
	c0.048-0.11,4.721-11.315,5.029-16.977c0.01-0.1,0.98-10.074-2.193-15.412c-0.024-0.057-0.665-1.34-2.199-2.639
	c-1.41-1.195-3.875-2.62-7.604-2.62c-0.799,0-1.631,0.066-2.483,0.194c-0.402,0.201-0.807,0.403-1.204,0.61
	c0.461-0.125,0.731-0.184,0.752-0.189l0.488-0.072c0.838-0.13,1.658-0.193,2.447-0.193c3.615,0,6,1.376,7.367,2.528
	c1.482,1.25,2.118,2.521,2.132,2.545c3.114,5.25,2.159,15.115,2.149,15.223c-0.307,5.606-4.957,16.757-5.005,16.869
	c-3.272,8.058-6.64,8.299-7.047,8.299h-0.001h-0.03l-0.021,0.005c-0.121,0.027-0.248,0.04-0.381,0.04l0,0
	c-4.346-0.001-15.57-13.208-15.694-13.354c-5.45-5.429-6.766-10.133-6.907-13.123c-0.156-3.236,0.99-5.216,1.006-5.245
	c0.159-0.294,0.32-0.583,0.49-0.869c-0.264,0.229-0.541,0.466-0.791,0.69c-0.001,0-0.006,0.006-0.006,0.012
	C51.705,86.264,50.552,88.255,50.703,91.586z"/>
<path opacity="0.8" fill="#FFFFFF" d="M60.45,102.54c0.351,0.409,8.557,10.059,11.936,10.059c0.111,0,0.224-0.011,0.324-0.031
	l0.017,0.001c0.489,0,3.058-0.309,5.519-6.385c0.146-0.34,3.525-8.447,3.758-12.677c0.033-0.306,0.73-7.532-1.639-11.522
	c-0.019-0.04-2.002-3.948-7.359-3.948c-0.602,0-1.23,0.051-1.869,0.146l-0.375,0.06c-0.105,0.021-10.592,2.35-14.752,10.235
	C55.972,88.537,52.509,94.63,60.45,102.54z M56.312,88.646c4.092-7.747,14.422-10.043,14.515-10.062l0.362-0.055
	c0.621-0.097,1.232-0.144,1.816-0.144c5.134,0,7.026,3.713,7.053,3.763c2.312,3.905,1.604,11.247,1.597,11.331
	c-0.229,4.177-3.693,12.486-3.731,12.572c-2.428,5.988-4.914,6.165-5.213,6.165h-0.002l-0.025-0.001l-0.027,0.004
	c-0.084,0.021-0.174,0.029-0.27,0.029c-3.219,0-11.582-9.839-11.679-9.951C52.962,94.583,56.274,88.714,56.312,88.646z"/>
<path opacity="0.8" fill="#FFFFFF" d="M63.624,100.561c0.243,0.284,5.938,6.981,8.302,6.981l0,0c0.087,0,0.172-0.01,0.239-0.022
	c0.341,0,2.146-0.215,3.869-4.45c0.096-0.237,2.441-5.856,2.601-8.791c0.02-0.209,0.507-5.231-1.138-8.004
	c-0.017-0.028-1.404-2.762-5.143-2.762c-0.419,0-0.857,0.034-1.303,0.104l-0.262,0.04c-0.074,0.018-7.354,1.631-10.248,7.11
	c-0.025,0.043-0.634,1.094-0.557,2.838C60.062,95.199,60.755,97.703,63.624,100.561z M60.849,90.937
	c2.817-5.342,9.941-6.924,10.005-6.938l0.25-0.037c0.428-0.065,0.847-0.098,1.251-0.098c3.519,0,4.777,2.462,4.837,2.575
	c1.591,2.689,1.104,7.756,1.094,7.812c-0.153,2.883-2.552,8.627-2.576,8.686c-1.671,4.115-3.358,4.232-3.558,4.232h-0.025
	l-0.021,0.004c-0.061,0.015-0.115,0.021-0.179,0.021l0,0c-2.204-0.002-7.976-6.793-8.044-6.87c-2.791-2.779-3.469-5.186-3.542-6.712
	C60.257,91.964,60.834,90.953,60.849,90.937z"/>
<path opacity="0.8" fill="#FFFFFF" d="M99.032,91.954c0.016-0.172,1.674-17.252-3.747-26.382c-0.007-0.01-0.028-0.053-0.052-0.098
	c-0.125,0.016-0.25,0.024-0.377,0.038c0.068,0.127,0.119,0.217,0.121,0.224c5.367,9.045,3.723,26.012,3.707,26.19
	c-0.523,9.641-8.514,28.792-8.598,28.986c-0.322,0.793-0.645,1.528-0.967,2.237c0.113-0.008,0.254-0.016,0.398-0.021
	c0.303-0.67,0.598-1.363,0.895-2.082C90.493,120.854,98.505,101.647,99.032,91.954z"/>
<path opacity="0.8" fill="#FFFFFF" d="M94.815,92.32c0.002-0.037,0.367-3.731,0.154-8.345c-0.195-4.263-0.939-10.211-3.37-14.305
	c-0.021-0.035-0.808-1.574-2.599-3.268c-0.141,0.028-0.283,0.058-0.422,0.088c1.867,1.709,2.691,3.304,2.711,3.345
	c4.602,7.754,3.193,22.303,3.177,22.456c-0.451,8.267-7.302,24.693-7.372,24.859c-1.367,3.361-2.74,5.776-4.029,7.55
	c0.178-0.048,0.35-0.095,0.528-0.14c1.235-1.764,2.538-4.112,3.825-7.278C87.487,117.119,94.362,100.638,94.815,92.32z"/>
<g>
	<path fill="#1A1A1A" d="M259.358,132.142c-6.436,7.46-25.893,15.066-40.959,15.066c-29.111,0-53.102-22.966-53.102-52.663
		c0-30.28,25.453-52.369,52.955-52.369c17.408,0,29.695,6.29,39.643,15.213l-11.85,15.214c-8.484-6.29-15.066-11.849-28.377-11.849
		c-18.434,0-32.184,15.945-32.184,35.255c0,20.188,17.553,32.622,32.914,32.622c7.315,0,15.799-3.073,21.65-6.875v-17.263H210.79
		l6.145-18.579h42.422L259.358,132.142L259.358,132.142z"/>
	<path fill="#1A1A1A" d="M338.009,144.869l-17.553,1.17v-9.654h-0.293c-6.289,8.484-12.434,10.824-22.82,10.824
		c-15.361,0-25.602-9.801-25.602-25.601V70.556l18.58-2.341v48.421c0,7.899,3.656,14.482,11.996,14.482
		c11.701,0,17.113-8.925,17.113-18.286V70.556l18.578-2.341L338.009,144.869L338.009,144.869z"/>
	<path fill="#1A1A1A" d="M374.724,50.66l-12.58,12.436l-12.58-12.436l12.58-12.434L374.724,50.66z M352.489,70.556l18.578-1.756
		v76.068l-18.578,1.17V70.556z"/>
	<path fill="#1A1A1A" d="M390.907,57.682l18.579-8.338v21.212h16.82v16.091h-16.82v31.743c0,7.168,3.068,11.851,13.895,11.851
		c2.049,0,4.389-0.146,6.439-0.291l-4.535,16.676c-1.756,0.438-4.977,0.584-7.314,0.584c-15.652,0-27.062-8.338-27.062-24.868
		V86.647h-11.412l4.098-16.091h7.314L390.907,57.682L390.907,57.682z"/>
	<path fill="#1A1A1A" d="M450.365,70.263c7.02-1.317,14.338-2.048,21.506-2.048c13.311,0,27.939,5.85,27.939,20.918v55.735
		l-16.971,1.756v-6.438c-5.119,4.389-11.703,7.021-18.578,7.021c-15.799,0-28.088-9.215-28.088-26.185
		c0-13.46,11.268-25.308,25.162-25.308c8.047,0,13.312,1.316,20.48,4.973c0.146-1.607,0.438-3.069,0.438-4.973
		c0-10.096-7.311-11.996-15.943-11.996c-7.314,0-14.338,1.756-21.064,4.389L450.365,70.263z M468.359,131.703
		c6.584,0,13.604-3.949,13.604-10.679c0-6.582-7.02-10.68-13.604-10.68s-13.605,4.098-13.605,10.68
		C454.755,127.753,461.775,131.703,468.359,131.703z"/>
	<path fill="#1A1A1A" d="M529.408,82.258h0.295c6.438-11.557,14.771-13.896,27.646-14.043l-6.438,19.748
		c-14.189,0-20.48,8.338-20.48,21.212v35.693l-18.578,1.17V70.556l17.555-1.756V82.258z"/>
	<path fill="#1A1A1A" d="M561.976,149.112c6.875,7.899,15.068,14.189,26.77,14.189c11.85,0,24.43-7.462,24.43-18.433
		c0-12.58-11.994-21.211-23.699-21.211c-7.02,0-12.578,1.756-19.16,4.241l3.07-9.654c-7.605-3.364-14.189-12.287-14.189-20.773
		c0-17.553,14.045-27.794,30.576-27.794c2.924,0,5.998,0.293,8.922,0.293c8.189,0,16.236-1.17,24.139-2.779l-2.488,8.631
		c-2.34,0.731-3.949,1.024-6.436,1.024c-1.318,0-2.633-0.146-3.951-0.438l-0.291,0.293c6.289,5.119,11.117,11.557,11.117,20.188
		c0,10.094-6.73,18.871-15.945,22.528c10.094,4.681,16.822,12.727,16.822,24.283c0,17.7-16.529,28.087-33.646,28.087
		c-13.604,0-25.16-8.046-32.477-17.848L561.976,149.112z M567.681,97.034c0,11.993,10.971,18.725,22.09,18.725
		c10.824,0,22.527-6.73,22.527-18.725c0-12.288-11.41-19.457-22.383-19.457C578.945,77.577,567.681,84.746,567.681,97.034z"/>
	<path fill="#1A1A1A" d="M639.847,74.065c6.729-2.776,14.043-4.388,21.359-4.388c11.408,0,22.965,5.999,22.965,18.579v56.612
		l-8.482,1.756v-9.217h-0.293c-2.926,5.412-9.363,9.217-17.994,9.217c-15.068,0-27.941-9.654-27.941-25.601
		c0-16.237,10.68-27.795,26.918-27.795c7.314,0,14.336,4.098,19.312,8.484V89.426c0-6.145-7.463-11.264-17.266-11.264
		c-7.02,0-14.92,3.656-21.355,5.852L639.847,74.065z M657.988,138.14c10.387,0,17.699-7.753,17.699-18.14
		c0-10.825-7.461-18.286-17.992-18.286c-11.266,0-19.75,7.605-19.75,19.311C637.945,131.849,648.185,138.14,657.988,138.14z"/>
	<path fill="#1A1A1A" d="M700.068,53.44l8.484-4.682v22.675h19.896v8.485h-19.896v45.349c0,8.923,3.805,12.288,13.164,12.288
		c2.342,0,4.537,0,6.875-0.293v7.899c-2.338,0.438-4.971,0.877-7.604,0.877c-13.459,0-20.92-7.752-20.92-20.918V79.918h-9.803
		l2.051-8.485h7.752V53.44L700.068,53.44z"/>
	<path fill="#1A1A1A" d="M742.445,121.025c2.928,6.729,12.436,17.115,26.041,17.115c10.678,0,19.895-5.559,27.795-12.141v10.237
		c-6.439,6.438-18.143,10.388-27.211,10.388c-22.676,0-38.035-17.116-38.035-39.352c0-22.234,16.385-37.597,38.328-37.597
		c13.459,0,24.574,8.631,28.965,17.116L742.445,121.025z M785.015,84.599c-3.363-3.658-8.924-6.437-15.652-6.437
		c-17.262,0-29.842,12.727-29.842,29.257c0,1.9,0.145,4.096,0.586,5.999L785.015,84.599z"/>
</g>
</svg>
