<svg width="232" height="50" viewBox="0 0 232 50" fill="none" xmlns="http://www.w3.org/2000/svg">
<path d="M150.132 31.9356H164.235C161.088 40.9048 152.509 39.4113 152.509 39.4113C145.579 39.2855 142.327 33.6806 142.327 33.6806C136.529 23.7093 142.327 16.3668 142.327 16.3668C144.97 11.7565 151.896 11.2573 151.896 11.2573C160.332 11.2573 163.229 17.4872 163.229 17.4872H176.323C173.045 7.57864 163.625 0.417507 152.509 0.417507C138.672 0.417507 127.454 11.52 127.454 25.2106C127.454 38.8975 138.672 50 152.509 50C166.358 50 177.575 38.8975 177.575 25.2106C177.575 24.2824 177.519 23.3694 177.418 22.471H150.132V31.9356ZM96.7886 34.3947C102.212 34.3947 106.597 30.0466 106.597 24.6861C106.597 19.3214 102.212 14.9733 96.7886 14.9733C91.3686 14.9733 86.973 19.3214 86.973 24.6861C86.973 30.0466 91.3686 34.3947 96.7886 34.3947ZM84.3002 24.6861C84.3002 17.8573 89.896 12.3337 96.7886 12.3337C103.685 12.3337 109.28 17.8573 109.28 24.6861C109.28 31.5036 103.685 37.0343 96.7886 37.0343C89.896 37.0343 84.3002 31.5036 84.3002 24.6861ZM66.9153 24.6861C68.4554 24.4861 71.0306 22.7449 71.9393 21.6248C71.6213 23.0112 71.599 27.0153 71.9694 28.3942C70.9336 26.819 68.4818 24.8782 66.9153 24.6857V24.6861ZM57.9371 11.6088C59.8993 11.6088 61.4432 13.5242 61.4432 15.7091C61.4432 17.8868 59.8993 19.8094 57.9371 19.8094H51.1901V11.6088H57.9371ZM57.9107 29.825C59.8771 29.825 61.4206 31.7401 61.4206 33.929C61.4206 36.1101 59.8771 38.0252 57.9107 38.0252H51.1679V29.8247L57.9107 29.825ZM96.7814 49.5713C110.525 49.5676 121.709 38.2692 121.705 24.6786C121.705 10.7921 110.525 0.00747854 96.781 1.66961e-05C83.0482 -0.014907 76.036 9.97875 74.3051 14.016C74.3202 7.96368 68.2872 0.813358 61.2263 0.802166H38.4848V49.3236L59.6862 49.331C68.2385 49.331 74.3202 42.0072 74.3277 35.7255C76.2861 39.678 83.0482 49.5788 96.781 49.5713H96.7814ZM35.7082 49.3422H22.3783V30.516H13.7253V49.3422H0.0445099L0 0.809627H13.7256V18.8666H22.3787V0.809627H35.7078V49.3422H35.7082Z" fill="#4279BB"/>
<path d="M206.594 37.554C199.66 37.554 194.031 31.9863 194.031 25.1278C194.031 18.2659 199.66 12.7057 206.594 12.7057C213.531 12.7057 219.149 18.2659 219.149 25.1278C219.149 31.9863 213.531 37.554 206.594 37.554ZM206.5 0.242508C192.655 0.242508 181.434 11.345 181.434 25.0356C181.434 38.7225 192.655 49.8213 206.5 49.8213C220.338 49.8213 231.559 38.7225 231.559 25.0356C231.559 11.345 220.338 0.242508 206.5 0.242508Z" fill="#4279BB"/>
<path d="M206.499 15.2886C201.057 15.2886 196.643 19.6478 196.643 25.0345C196.643 30.4137 201.057 34.78 206.499 34.78C211.942 34.78 216.352 30.4137 216.352 25.0345C216.352 19.6478 211.942 15.2886 206.499 15.2886Z" fill="#4279BB"/>
</svg>
