<svg width="204" height="81" viewBox="0 0 204 81" fill="none" xmlns="http://www.w3.org/2000/svg">
<g clip-path="url(#clip0)">
<path d="M57.715 80.628H36.174V49.859H22.192V80.628H0.079L0 1.32701H22.192V30.826H36.174V1.32701H57.715V80.628ZM156.412 81C178.624 80.991 196.699 62.536 196.694 40.321C196.69 17.637 178.624 0.0170117 156.412 1.17483e-05C134.226 -0.0159883 122.89 16.315 120.089 22.907C120.115 13.012 110.362 1.33101 98.953 1.31901H62.197V80.6L96.466 80.612C110.283 80.612 120.114 68.64 120.132 58.374C123.286 64.835 134.226 81.008 156.412 81ZM93.595 48.741C96.766 48.741 99.264 51.873 99.264 55.44C99.264 59.008 96.766 62.139 93.595 62.139H82.695V48.741H93.595ZM93.635 18.971C96.806 18.971 99.304 22.102 99.304 25.67C99.304 29.238 96.806 32.37 93.635 32.37H82.734V18.971H93.635ZM108.143 40.337C110.64 40.02 114.803 37.166 116.27 35.342C115.754 37.602 115.715 44.142 116.317 46.402C114.644 43.826 110.68 40.654 108.143 40.337ZM136.244 40.337C136.244 29.191 145.279 20.155 156.425 20.155C167.571 20.155 176.607 29.191 176.607 40.337C176.607 51.484 167.571 60.519 156.425 60.519C145.279 60.519 136.244 51.484 136.244 40.337ZM156.425 56.202C165.187 56.202 172.29 49.1 172.29 40.337C172.29 31.575 165.187 24.472 156.425 24.472C147.663 24.472 140.56 31.575 140.56 40.337C140.56 49.1 147.663 56.202 156.425 56.202Z" fill="black"/>
<path d="M197.696 2.57803C199.197 2.57803 200.478 3.10803 201.538 4.16703C202.592 5.22103 203.12 6.49303 203.12 7.98503C203.12 9.48803 202.593 10.769 201.538 11.828C200.484 12.887 199.203 13.417 197.696 13.417C196.189 13.417 194.908 12.888 193.854 11.828C192.805 10.769 192.281 9.48803 192.281 7.98503C192.281 6.49403 192.808 5.22103 193.863 4.16703C194.922 3.10803 196.2 2.57803 197.696 2.57803ZM203.969 7.97603C203.969 6.24703 203.356 4.77303 202.131 3.55503C200.906 2.33703 199.424 1.72803 197.687 1.72803C195.96 1.72803 194.488 2.33703 193.268 3.55503C192.043 4.77803 191.43 6.25203 191.43 7.97603C191.43 9.71703 192.037 11.2 193.251 12.423C194.47 13.653 195.949 14.267 197.687 14.267C199.425 14.267 200.906 13.653 202.131 12.423C203.356 11.194 203.969 9.71103 203.969 7.97603ZM199.355 6.61803C199.355 7.14003 199.115 7.49403 198.634 7.67903C198.373 7.78103 197.982 7.83103 197.461 7.83103H196.349V5.37103H197.4C198.083 5.37103 198.58 5.45503 198.889 5.62403C199.2 5.79203 199.355 6.12303 199.355 6.61803ZM195.165 4.52103V11.382H196.349V8.68003H197.322C197.976 8.68003 198.433 8.75403 198.694 8.90103C199.134 9.15603 199.354 9.68003 199.354 10.473V11.017L199.379 11.238C199.385 11.266 199.39 11.292 199.396 11.315C199.402 11.338 199.407 11.36 199.413 11.383H200.538L200.495 11.298C200.466 11.241 200.445 11.122 200.434 10.94C200.423 10.759 200.417 10.588 200.417 10.43V9.92703C200.417 9.58103 200.292 9.22703 200.044 8.86403C199.795 8.50103 199.402 8.27703 198.865 8.19103C199.292 8.12303 199.625 8.01303 199.864 7.85903C200.314 7.57003 200.539 7.11903 200.539 6.50503C200.539 5.64303 200.182 5.06303 199.468 4.76803C199.068 4.60303 198.439 4.52103 197.582 4.52103H195.165V4.52103Z" fill="black"/>
</g>
<defs>
<clipPath id="clip0">
<rect width="204" height="81" fill="white"/>
</clipPath>
</defs>
</svg>
