<svg width="187" height="50" viewBox="0 0 187 50" fill="none" xmlns="http://www.w3.org/2000/svg">
<path d="M25.713 46.7771C22.9 47.2659 20.0375 47.4124 17.0764 47.8026L8.04447 21.631V48.9259C5.23143 49.2188 2.66512 49.6094 0 50V0H7.50191L17.7672 28.3696V0H25.713V46.7771ZM41.2594 18.3106C44.3195 18.3106 49.0081 18.164 51.8211 18.164V25.9764C48.3169 25.9764 44.2208 25.9764 41.2594 26.1229V37.7442C45.8988 37.4513 50.538 37.0603 55.2264 36.9138V44.4329L33.3627 46.1423V0H55.2264V7.81251H41.2594V18.3106ZM84.5916 7.81269H76.399V43.7501C73.7339 43.7501 71.0688 43.7501 68.5028 43.8475V7.81269H60.3102V0H84.5919L84.5916 7.81269ZM97.4233 17.7736H108.232V25.5859H97.4233V43.3107H89.6744V0H111.736V7.81251H97.4233V17.7736ZM124.568 36.4746C129.059 36.572 133.599 36.9143 137.992 37.1581V44.873C130.935 44.4333 123.877 43.9944 116.671 43.8475V0H124.568V36.4746ZM144.655 45.4102C147.172 45.5569 149.837 45.7034 152.403 45.9959V0H144.655V45.4102ZM187 0L176.981 23.7794L187 50C184.038 49.6094 181.077 49.0722 178.116 48.5839L172.441 34.1311L166.667 47.4124C163.804 46.9237 161.04 46.7771 158.178 46.3865L168.345 23.4861L159.165 0H167.653L172.835 13.1348L178.363 0H187V0Z" fill="#D81F26"/>
</svg>
