<?xml version="1.0" encoding="UTF-8"?>
<svg width="131px" height="37px" viewBox="0 0 131 37" version="1.1" xmlns="http://www.w3.org/2000/svg" xmlns:xlink="http://www.w3.org/1999/xlink">
    <!-- Generator: Sketch 54.1 (76490) - https://sketchapp.com -->
    <title>logo_colour</title>
    <desc>Created with Sketch.</desc>
    <g id="logo_colour" stroke="none" stroke-width="1" fill="none" fill-rule="evenodd">
        <g id="Ir-Logo" transform="translate(1.000000, 0.000000)">
            <g id="Group" transform="translate(0.000000, 0.500000)">
                <g transform="translate(19.731922, 5.347826)" fill="#2E404C">
                    <path d="M4.02326205,2.13913043 C4.02326205,3.20869565 3.17760825,3.99813665 2.10132158,3.99813665 C1.02503492,3.99813665 0.205006984,3.18322981 0.205006984,2.13913043 C0.205006984,1.06956522 1.02503492,0.229192547 2.10132158,0.229192547 C3.17760825,0.229192547 4.02326205,1.04409938 4.02326205,2.13913043 Z M3.45949285,23.173913 L0.768776189,23.173913 L0.768776189,7.61428571 L3.45949285,7.61428571 L3.45949285,23.173913 Z" id="Shape" fill-rule="nonzero"></path>
                    <path d="M34.9280648,13.4968944 L34.9280648,23.1484472 L32.2373482,23.1484472 L32.2373482,14.3627329 C32.2373482,11.4850932 30.6485441,9.80434783 27.9322015,9.80434783 C25.3439884,9.80434783 23.3195444,11.5869565 23.3195444,14.4136646 L23.3195444,23.1484472 L20.6288277,23.1484472 L20.6288277,14.3627329 C20.6288277,11.4850932 19.0400236,9.80434783 16.3236811,9.80434783 C13.8123455,9.80434783 11.6853981,11.5360248 11.6853981,14.4136646 L11.6853981,23.1484472 L8.99468141,23.1484472 L8.99468141,7.58881988 L11.6597722,7.58881988 L11.6597722,9.62608696 C12.9410658,7.8689441 14.9655098,7.25776398 16.7849468,7.25776398 C19.4500376,7.25776398 21.5257333,8.42919255 22.5763941,10.3900621 C23.8576877,8.02173913 26.2921457,7.25776398 28.4190931,7.25776398 C32.2885999,7.28322981 34.9280648,9.77888199 34.9280648,13.4968944 Z" id="Path"></path>
                    <path d="M56.4025464,15.3813665 C56.4025464,20.0925466 52.9686794,23.4795031 48.5610293,23.4795031 C46.0753196,23.4795031 44.2558826,22.5372671 43.0514666,21.0602484 L43.0514666,29.6931677 L40.3607499,29.6931677 L40.3607499,7.58881988 L43.0514666,7.58881988 L43.0514666,9.67701863 C44.2815085,8.22546584 46.1009455,7.28322981 48.5610293,7.28322981 C52.9686794,7.28322981 56.4025464,10.6956522 56.4025464,15.3813665 Z M42.8977113,15.3813665 C42.8977113,18.5645963 45.1015364,20.9838509 48.2791447,20.9838509 C51.5336305,20.9838509 53.660578,18.4881988 53.660578,15.3813665 C53.660578,12.2745342 51.4823788,9.80434783 48.2791447,9.80434783 C45.1015364,9.80434783 42.8977113,12.1981366 42.8977113,15.3813665 Z" id="Shape" fill-rule="nonzero"></path>
                    <path d="M75.4169441,23.173913 L72.7006016,23.173913 L72.7006016,21.0857143 C71.4705597,22.5372671 69.6254968,23.5049689 67.1910389,23.5049689 C62.7833888,23.5049689 59.3495218,20.0925466 59.3495218,15.4068323 C59.3495218,10.6956522 62.7833888,7.30869565 67.1910389,7.30869565 C69.6511227,7.30869565 71.4705597,8.25093168 72.7006016,9.72795031 L72.7006016,7.63975155 L75.4169441,7.63975155 L75.4169441,23.173913 Z M62.1171161,15.3813665 C62.1171161,18.4881988 64.2953153,20.9838509 67.4985494,20.9838509 C70.6761576,20.9838509 72.8799827,18.5645963 72.8799827,15.3813665 C72.8799827,12.1981366 70.6761576,9.80434783 67.4985494,9.80434783 C64.2440635,9.80434783 62.1171161,12.3 62.1171161,15.3813665 Z" id="Shape" fill-rule="nonzero"></path>
                    <path d="M93.5088104,9.72795031 L91.7662511,11.5360248 C90.6130868,10.415528 89.2805414,9.77888199 87.6148596,9.77888199 C84.5910066,9.77888199 82.3103039,12.0962733 82.3103039,15.3559006 C82.3103039,18.615528 84.5910066,20.9583851 87.6148596,20.9583851 C89.2805414,20.9583851 90.7412161,20.2198758 91.8431287,19.1757764 L93.5088104,21.0347826 C92.0993874,22.6136646 90.0236917,23.4795031 87.6917373,23.4795031 C82.8484473,23.4795031 79.5683355,19.9906832 79.5683355,15.3813665 C79.5683355,10.7720497 82.8484473,7.28322981 87.6917373,7.28322981 C90.0236917,7.28322981 92.1250133,8.12360248 93.5088104,9.72795031 Z" id="Path"></path>
                    <path d="M108.576824,10.0590062 L101.990974,10.0590062 L101.990974,17.6478261 C101.990974,19.9906832 103.246642,21.0093168 104.93795,21.0093168 C106.091114,21.0093168 107.244278,20.5763975 108.141184,19.9652174 L109.422478,21.9770186 C108.218062,22.8428571 106.654883,23.5049689 104.732943,23.5049689 C101.350328,23.5049689 99.3002577,21.6459627 99.3002577,17.6987578 L99.3002577,10.0590062 L95.9432684,10.0590062 L95.9432684,7.61428571 L99.3002577,7.61428571 L99.3002577,2.72484472 L101.990974,2.72484472 L101.990974,7.61428571 L108.576824,7.61428571 L108.576824,10.0590062 Z" id="Path"></path>
                </g>
                <path d="M5.3045557,17.978882 C7.22649617,17.978882 8.96905554,18.8447205 10.1222198,20.1944099 C10.4297303,19.5322981 10.6091114,18.768323 10.6091114,17.978882 C10.6091114,15.0757764 8.22590522,12.7074534 5.3045557,12.7074534 C2.38320619,12.7074534 0,15.0757764 0,17.978882 C0,18.768323 0.179381111,19.5068323 0.486891586,20.1944099 C1.66568174,18.8447205 3.38261523,17.978882 5.3045557,17.978882 Z" id="Path" fill="#A9B4BD"></path>
                <path d="M10.6091114,24.2944099 C10.6091114,21.3913043 8.22590522,19.0229814 5.3045557,19.0229814 C2.38320619,19.0229814 0,21.3913043 0,24.2944099 C0,27.1975155 2.38320619,29.5658385 5.3045557,29.5658385 C8.25153109,29.5658385 10.6091114,27.2229814 10.6091114,24.2944099 Z" id="Path" fill="#4B5E6A"></path>
                <path d="M10.6091114,5.34782609 C10.6091114,2.4447205 8.22590522,0.0763975155 5.3045557,0.0763975155 C2.38320619,0.0763975155 0,2.4447205 0,5.34782609 C0,8.25093168 2.38320619,10.6192547 5.3045557,10.6192547 C8.25153109,10.6447205 10.6091114,8.27639752 10.6091114,5.34782609 Z" id="Path" fill="#E40046"></path>
            </g>
        </g>
    </g>
</svg>