<svg width="530" height="174" viewBox="0 0 530 174" fill="none" xmlns="http://www.w3.org/2000/svg">
<path d="M217.198 133.698H203.898V82.5977H217.198V133.698Z" fill="#FF671F"/>
<path d="M255.2 133.698H242V93.8977H231V82.5977H266.2V93.8977H255.2V133.698Z" fill="#FF671F"/>
<path d="M281 82.5977H301.3C312.3 82.5977 319.9 87.6977 319.9 99.3977C319.9 111.498 313.4 116.798 301.8 116.798H294.3V133.698H281V82.5977ZM294.3 106.098H296.5C301.3 106.098 306.1 106.098 306.1 99.8977C306.1 93.4977 301.7 93.3977 296.5 93.3977H294.3V106.098Z" fill="#FF671F"/>
<path d="M378.199 133.698H361.699L349.199 113.998H348.999V133.698H335.699V82.5977H355.599C365.699 82.5977 373.399 87.3977 373.399 98.2977C373.399 105.298 369.499 111.398 362.199 112.698L378.199 133.698ZM348.999 105.498H350.299C354.599 105.498 359.499 104.698 359.499 99.0977C359.499 93.4977 354.599 92.6977 350.299 92.6977H348.999V105.498Z" fill="#FF671F"/>
<path d="M443.498 107.198C443.498 123.698 431.598 135.398 415.198 135.398C398.798 135.398 386.898 123.698 386.898 107.198C386.898 91.6984 400.498 80.8984 415.198 80.8984C429.898 80.8984 443.498 91.7984 443.498 107.198ZM400.798 107.298C400.798 116.098 407.298 122.598 415.198 122.598C423.098 122.598 429.598 116.198 429.598 107.298C429.598 100.298 423.098 93.7984 415.198 93.7984C407.298 93.7984 400.798 100.298 400.798 107.298Z" fill="#FF671F"/>
<path d="M448.897 133.798C450.885 133.798 452.497 132.186 452.497 130.198C452.497 128.209 450.885 126.598 448.897 126.598C446.909 126.598 445.297 128.209 445.297 130.198C445.297 132.186 446.909 133.798 448.897 133.798Z" fill="#FF671F"/>
<path d="M515.698 82.5977L506.298 113.698L496.998 82.5977H489.298H483.398H454.098V93.8977H464.998V133.698H478.298V93.8977H487.398L501.398 133.698H510.998L529.198 82.5977H515.698Z" fill="#FF671F"/>
<path d="M87.6016 30.5L90.6016 33.7C91.2016 33.6 91.9016 33.5 92.5016 33.4L112.802 11.5C113.302 11.6 113.702 11.7 114.202 11.7C117.402 11.7 120.002 9.1 120.002 5.9C120.002 2.7 117.402 0 114.202 0C111.002 0 108.402 2.6 108.402 5.8C108.402 6.6 108.602 7.4 108.902 8.1L87.6016 30.5Z" fill="#FF671F"/>
<path d="M52.5 172C38.1 170.1 30.3 167 26.4 161.6C24.1 158.4 22.3 153.2 21.1 138.3C20.4 129.2 20 117.5 20 105.4C20 93.4 20.5 82 21.3 73.3C22.6 59 24.5 53.4 28.9 50.1C31.5 48.2 38.2 43.4 77.9 42.6L78 42.4C79.5 39.8 82 37.6 85.1 36.1L82.5 33.3C80.9 33 79.2 32.8 77.5 32.8H77.1C74.7 32.8 72.4 33.1 70.2 33.6L46.1 8.1C46.4 7.4 46.6 6.6 46.6 5.8C46.6 2.6 44 0 40.8 0C37.6 0 35 2.6 35 5.8C35 9 37.6 11.6 40.8 11.6C41.3 11.6 41.7 11.5 42.2 11.4L65.2 36.2C62.1 37.7 59.6 39.9 58.1 42.5L58 42.6C18.3 43.4 11.6 48.2 9 50.1C4.5 53.3 2.7 59 1.4 73.3C0.5 82 0 93.4 0 105.4C0 117.4 0.4 129.1 1.1 138.3C2.3 153.2 4.1 158.4 6.4 161.6C10.2 167 18 170.1 32.5 172C42.2 173.3 63 173.9 77.4 174C77.5 174 77.5 174 77.6 174C77.7 174 77.7 174 77.8 174C80.9 174 84.2 174 87.7 173.9C74.7 173.6 60.2 173 52.5 172Z" fill="#FF671F"/>
<path d="M87.6016 30.5L84.6016 33.7C84.0016 33.6 83.3016 33.5 82.7016 33.4L62.3016 11.3C61.8016 11.4 61.4016 11.5 60.9016 11.5C57.7016 11.5 55.1016 8.9 55.1016 5.7C55.1016 2.5 57.7016 0 60.9016 0C64.1016 0 66.7016 2.6 66.7016 5.8C66.7016 6.6 66.5016 7.4 66.2016 8.1L87.6016 30.5Z" fill="#00A3E0"/>
<path d="M173.902 73.3C172.602 59 170.702 53.4 166.302 50.1C163.702 48.2 157.002 43.4 117.302 42.6L117.202 42.4C115.702 39.8 113.202 37.6 110.102 36.1L133.102 11.3C133.602 11.4 134.002 11.5 134.502 11.5C137.702 11.5 140.302 8.9 140.302 5.7C140.302 2.5 137.502 0 134.302 0C131.102 0 128.502 2.6 128.502 5.8C128.502 6.6 128.702 7.4 129.002 8.1L104.702 33.6C102.502 33.1 100.202 32.8 97.8023 32.8H97.4023C95.7023 32.8 94.0023 33 92.4023 33.3L89.8023 36.1C92.9023 37.6 95.4023 39.8 96.9023 42.4L97.0023 42.6C136.702 43.4 143.402 48.2 146.002 50.1C150.502 53.3 152.302 59 153.602 73.3C154.402 82 154.802 93.4 154.902 105.4C154.902 117.4 154.502 129.1 153.802 138.3C152.602 153.2 150.802 158.4 148.502 161.6C144.702 167 136.902 170.1 122.402 172C114.802 173 100.302 173.6 87.4023 173.9C90.9023 174 94.2023 174 97.3023 174C97.4023 174 97.4023 174 97.5023 174C97.6023 174 97.6023 174 97.7023 174C112.102 174 132.902 173.3 142.602 172C157.002 170.1 164.802 167 168.702 161.6C171.002 158.4 172.802 153.2 174.002 138.3C174.702 129.2 175.102 117.5 175.102 105.4C175.102 93.4 174.602 82 173.902 73.3Z" fill="#00A3E0"/>
<path fill-rule="evenodd" clip-rule="evenodd" d="M148.599 161.598C150.899 158.398 152.699 153.198 153.899 138.298C154.599 129.198 154.999 117.498 154.999 105.398C154.999 93.3984 154.499 81.9984 153.699 73.2984C152.399 58.9984 150.499 53.3984 146.099 50.0984C143.499 48.1984 136.799 43.3984 97.0992 42.5984L96.9992 42.3984C95.4992 39.7984 92.9992 37.5984 89.8992 36.0984L92.4992 33.2984C92.1994 33.3484 91.8747 33.3983 91.5499 33.4483L91.5492 33.4484C91.2242 33.4984 90.8992 33.5484 90.5992 33.5984L87.5992 30.3984L84.5992 33.5984C84.2992 33.5484 83.9742 33.4984 83.6492 33.4484L83.6489 33.4484C83.324 33.3984 82.9991 33.3484 82.6992 33.2984L85.2992 36.0984C82.1992 37.5984 79.6992 39.7984 78.1992 42.3984L78.0992 42.5984C38.3992 43.3984 31.6992 48.1984 29.0992 50.0984C24.5992 53.2984 22.7992 58.9984 21.4992 73.2984C20.6992 81.9984 20.2992 93.3984 20.1992 105.398C20.1992 117.398 20.5992 129.098 21.2992 138.298C22.4992 153.198 24.2992 158.398 26.5992 161.598C30.3992 166.998 38.1992 170.098 52.6992 171.998C60.2992 172.998 74.7992 173.598 87.6992 173.898C100.599 173.698 115.099 172.998 122.699 171.998C136.999 170.098 144.799 166.998 148.599 161.598ZM43.3008 70.3008H70.8008V146.001H43.3008V70.3008ZM136.201 70.3008H78.4008H78.3008V94.9008L93.5008 94.2008V146.001H121.001V94.2008L136.201 94.9008V70.3008Z" fill="#10069F"/>
</svg>
