<svg width="3642" height="630" viewBox="0 0 3642 630" fill="none" xmlns="http://www.w3.org/2000/svg">
<path fill-rule="evenodd" clip-rule="evenodd" d="M2878.38 242.243C2846.91 242.243 2822.22 248.988 2797.52 262.463C2797.52 190.598 2797.52 125.464 2799.76 103L2649.28 129.951V143.44L2665 145.684C2685.23 150.171 2691.98 161.403 2696.45 188.354C2700.94 242.256 2698.71 529.731 2696.45 576.902C2736.88 585.89 2779.54 592.635 2822.22 592.635C2941.26 592.635 3013.12 518.512 3013.12 401.72C3013.12 309.621 2954.73 242.243 2878.38 242.243ZM2826.71 567.901C2817.74 567.901 2806.49 567.901 2799.76 565.67C2797.52 534.232 2795.27 401.707 2797.52 284.927C2810.97 280.426 2819.96 278.183 2831.22 278.183C2880.62 278.183 2907.57 336.573 2907.57 408.451C2907.56 498.293 2873.86 567.901 2826.71 567.901ZM2083.28 111.988H1688V132.208L1710.46 134.452C1739.66 138.939 1750.89 156.902 1755.36 199.586C1762.12 280.439 1759.88 426.427 1755.36 496.062C1750.88 538.719 1739.66 558.939 1710.46 561.183L1688 565.67V583.634H1941.79V565.67L1914.83 561.183C1885.63 558.926 1874.4 538.719 1869.91 496.062C1867.67 466.854 1865.43 419.67 1865.43 361.28L1919.33 363.524C1953.02 363.524 1968.73 390.475 1975.49 428.671H1995.69V269.195H1975.49C1968.73 307.378 1953.04 334.316 1919.33 334.316L1865.43 336.56C1865.43 260.194 1867.67 188.328 1869.91 145.658H1948.51C2009.17 145.658 2040.61 183.841 2063.06 251.218L2085.52 244.474L2083.28 111.988Z" fill="#3F3F3F"/>
<path fill-rule="evenodd" clip-rule="evenodd" d="M2211.3 237.758C2323.61 237.758 2379.76 314.124 2379.76 415.185C2379.76 511.757 2316.88 592.624 2204.56 592.624C2092.27 592.624 2036.12 516.271 2036.12 415.185C2036.13 318.612 2099.01 237.758 2211.3 237.758ZM2204.57 260.222C2155.17 260.222 2141.69 327.6 2141.69 415.198C2141.69 500.552 2164.15 570.16 2209.09 570.16C2260.72 570.16 2274.21 502.782 2274.21 415.198C2274.21 329.844 2251.74 260.222 2204.57 260.222ZM3042.33 417.428C3042.33 325.356 3100.72 237.758 3215.27 237.758C3309.6 237.758 3354.51 307.38 3354.51 399.465H3145.63C3143.4 482.588 3183.83 543.209 3264.69 543.209C3300.62 543.209 3318.6 534.247 3341.05 518.515L3350.04 529.734C3327.57 561.198 3278.14 592.637 3215.27 592.637C3114.19 592.624 3042.33 520.758 3042.33 417.428ZM3145.63 374.771L3251.19 372.514C3251.19 327.6 3244.48 260.222 3206.28 260.222C3168.1 260.222 3147.88 323.099 3145.63 374.771ZM3621.78 255.734C3594.83 244.49 3558.88 237.758 3518.45 237.758C3435.36 237.758 3383.71 287.16 3383.71 345.563C3383.71 403.953 3421.88 428.673 3475.79 446.636C3531.92 466.856 3547.66 482.575 3547.66 509.514C3547.66 536.491 3527.44 561.185 3491.5 561.185C3448.84 561.185 3417.4 536.491 3392.68 469.074L3376.95 473.587L3379.21 572.404C3406.16 583.623 3455.58 592.624 3498.24 592.624C3585.84 592.624 3642 547.71 3642 478.075C3642 430.904 3617.28 403.966 3558.89 381.502C3496.01 356.808 3473.55 341.075 3473.55 311.88C3473.55 282.685 3493.77 262.466 3520.72 262.466C3561.15 262.466 3588.1 287.16 3608.32 347.82L3624.02 343.332L3621.78 255.734ZM2671.73 246.746C2633.56 224.296 2566.17 235.514 2530.24 316.368L2532.49 237.758L2382 266.953V280.429L2397.73 282.672C2417.95 284.929 2426.91 296.148 2429.17 325.356C2433.67 379.258 2431.43 473.587 2429.17 520.758C2426.93 547.71 2417.95 561.185 2397.73 563.416L2382 565.673V583.636H2590.88V565.673L2563.93 563.416C2541.47 561.185 2534.73 547.71 2532.49 520.758C2528 478.075 2528 392.734 2530.24 338.832C2541.48 323.112 2590.88 309.637 2635.79 338.832L2671.73 246.746Z" fill="#3F3F3F"/>
<path d="M67.5 170.5H176L117 446H218.5L210 488H0L67.5 170.5ZM340.934 387.5C339.6 394.833 338.6 401.833 337.934 408.5C337.6 415.167 337.434 421.167 337.434 426.5C337.434 429.5 337.6 432.833 337.934 436.5C338.267 440.167 338.934 443.667 339.934 447C341.267 450 342.934 452.667 344.934 455C347.267 457 350.434 458 354.434 458C357.434 458 360.767 457 364.434 455C368.434 453 372.267 450.167 375.934 446.5C379.934 442.833 383.6 438.333 386.934 433C390.6 427.667 393.434 421.667 395.434 415H477.434L464.434 468.5C457.767 472.833 450.1 476.5 441.434 479.5C432.767 482.5 423.6 485 413.934 487C404.267 488.667 394.434 489.833 384.434 490.5C374.434 491.5 364.934 492 355.934 492C339.267 492 323.767 490.5 309.434 487.5C295.1 484.5 282.6 479.333 271.934 472C261.267 464.667 252.767 455 246.434 443C240.434 430.667 237.434 415.5 237.434 397.5C237.434 381.167 239.934 365.167 244.934 349.5C250.267 333.833 258.934 320 270.934 308C283.267 295.667 299.6 285.833 319.934 278.5C340.6 271.167 366.267 267.5 396.934 267.5C430.267 267.5 455.267 272.667 471.934 283C488.934 293.333 497.434 309.5 497.434 331.5C497.434 340.5 496.1 350.333 493.434 361C490.767 371.333 486.767 380.167 481.434 387.5H340.934ZM407.434 328C407.434 317.667 405.767 310.667 402.434 307C399.1 303.333 395.1 301.5 390.434 301.5C385.1 301.5 380.1 303.333 375.434 307C371.1 310.333 367.1 315 363.434 321C359.767 326.667 356.434 333.333 353.434 341C350.434 348.333 347.934 356.167 345.934 364.5H402.934C403.6 360.5 404.267 356.333 404.934 352C405.6 348.333 406.1 344.333 406.434 340C407.1 335.667 407.434 331.667 407.434 328ZM541.371 291.5C558.371 283.167 575.704 277.167 593.371 273.5C611.371 269.5 631.371 267.5 653.371 267.5C674.704 267.5 692.371 269.167 706.371 272.5C720.371 275.833 731.538 280.667 739.871 287C748.204 293.333 754.038 300.833 757.371 309.5C760.704 318.167 762.371 328 762.371 339C762.371 345.333 761.871 352.167 760.871 359.5C760.204 366.833 759.371 373 758.371 378L734.871 488H654.371L645.371 456H642.371C631.704 467.667 619.204 476.667 604.871 483C590.871 489 576.871 492 562.871 492C554.871 492 547.038 490.833 539.371 488.5C531.704 486.167 524.871 482.667 518.871 478C512.871 473 508.038 466.833 504.371 459.5C500.704 451.833 498.871 442.667 498.871 432C498.871 414.667 503.538 401 512.871 391C522.538 380.667 535.038 373 550.371 368C566.038 362.667 583.538 359.333 602.871 358C622.538 356.667 642.204 356 661.871 356C662.538 352.667 663.371 348 664.371 342C665.371 335.667 665.871 330.167 665.871 325.5C665.871 319.5 664.204 314 660.871 309C657.871 303.667 651.371 301 641.371 301C629.704 301 621.038 304.5 615.371 311.5C610.038 318.167 606.538 326.333 604.871 336H531.871L541.371 291.5ZM656.371 379.5H647.371C637.704 379.5 629.371 380.833 622.371 383.5C615.704 385.833 610.204 389 605.871 393C601.871 397 598.871 401.5 596.871 406.5C594.871 411.5 593.871 416.5 593.871 421.5C593.871 429.5 595.871 435.5 599.871 439.5C604.204 443.5 609.204 445.5 614.871 445.5C621.871 445.5 628.704 443 635.371 438C642.371 433 646.704 426.333 648.371 418L656.371 379.5ZM821.75 273H903.25L910.75 310.5H914.25C921.917 298.5 931.75 288.333 943.75 280C955.75 271.667 971.583 267.5 991.25 267.5C992.583 267.5 994.583 267.667 997.25 268C1000.25 268 1003.42 268.5 1006.75 269.5C1010.42 270.167 1014.08 271.333 1017.75 273C1021.75 274.333 1025.58 276.333 1029.25 279L1007.25 382H952.75C952.083 361.333 950.25 347 947.25 339C944.25 330.667 939.417 326.5 932.75 326.5C929.417 326.5 925.75 327.333 921.75 329C918.083 330.333 914.25 333.5 910.25 338.5L878.25 488H776.25L821.75 273ZM1156.95 305C1163.95 298.333 1171.78 292.167 1180.45 286.5C1188.12 281.833 1197.12 277.5 1207.45 273.5C1217.78 269.5 1229.28 267.5 1241.95 267.5C1259.28 267.5 1273.62 272 1284.95 281C1296.28 289.667 1301.95 301.667 1301.95 317C1301.95 321.333 1301.45 326.667 1300.45 333C1299.45 339 1298.28 345.333 1296.95 352C1295.62 358.667 1294.12 365.5 1292.45 372.5C1291.12 379.167 1289.95 385.167 1288.95 390.5L1267.95 488H1166.45L1193.95 357.5C1194.62 353.167 1195.45 348.833 1196.45 344.5C1197.45 339.833 1197.95 335.667 1197.95 332C1197.95 327 1196.62 323 1193.95 320C1191.62 316.667 1187.95 315 1182.95 315C1176.95 315 1171.12 317.167 1165.45 321.5C1160.12 325.833 1155.95 329.5 1152.95 332.5L1119.95 488H1017.95L1063.45 273H1144.95L1153.95 305H1156.95ZM1519.42 538.5C1509.75 540.5 1500.25 542.167 1490.92 543.5C1481.58 545.167 1471.75 546 1461.42 546C1441.42 546 1423.25 542.833 1406.92 536.5C1390.58 530.5 1376.58 521.5 1364.92 509.5C1353.58 497.833 1344.75 483.333 1338.42 466C1332.08 448.667 1328.92 428.833 1328.92 406.5C1328.92 377.5 1334.08 352 1344.42 330C1354.75 307.667 1368.42 289 1385.42 274C1402.75 258.667 1422.58 247.167 1444.92 239.5C1467.58 231.833 1491.25 228 1515.92 228C1539.25 228 1560.42 231.5 1579.42 238.5C1598.42 245.167 1614.58 254.667 1627.92 267C1641.58 279.333 1652.08 294 1659.42 311C1666.75 327.667 1670.42 346.167 1670.42 366.5C1670.42 379.167 1668.75 391.833 1665.42 404.5C1662.42 417.167 1657.25 428.833 1649.92 439.5C1642.92 449.833 1633.42 458.333 1621.42 465C1609.42 471.333 1594.42 474.5 1576.42 474.5C1560.08 474.5 1547.42 471.333 1538.42 465C1529.42 458.333 1524.58 447 1523.92 431H1520.92C1514.92 443.667 1506.58 453.5 1495.92 460.5C1485.25 467.167 1473.58 470.5 1460.92 470.5C1446.92 470.5 1435.25 466 1425.92 457C1416.92 448 1412.42 433.333 1412.42 413C1412.42 408 1412.92 400.167 1413.92 389.5C1415.25 378.833 1418.25 368.167 1422.92 357.5C1427.92 346.5 1435.08 337 1444.42 329C1454.08 321 1467.25 317 1483.92 317C1491.92 317 1499.42 318.667 1506.42 322C1513.75 325 1519.58 331.833 1523.92 342.5H1525.92L1538.42 320.5H1586.42L1571.92 388.5C1570.58 394.833 1569.42 400.667 1568.42 406C1567.42 411 1566.92 415.667 1566.92 420C1566.92 433 1572.58 439.5 1583.92 439.5C1587.92 439.5 1592.42 438.667 1597.42 437C1602.42 435 1607.08 431.5 1611.42 426.5C1616.08 421.5 1619.92 414.833 1622.92 406.5C1625.92 397.833 1627.42 386.833 1627.42 373.5C1627.42 341.167 1617.58 315.5 1597.92 296.5C1578.25 277.167 1550.42 267.5 1514.42 267.5C1495.08 267.5 1476.92 270.5 1459.92 276.5C1442.92 282.5 1427.92 291.333 1414.92 303C1402.25 314.333 1392.25 328.667 1384.92 346C1377.58 363 1373.92 382.5 1373.92 404.5C1373.92 422.167 1376.25 437.5 1380.92 450.5C1385.58 463.167 1391.92 473.833 1399.92 482.5C1408.25 491.167 1418.08 497.5 1429.42 501.5C1440.75 505.833 1452.92 508 1465.92 508C1475.25 508 1484.25 507 1492.92 505C1501.92 503.333 1510.92 501.167 1519.92 498.5L1519.42 538.5ZM1501.92 349C1496.92 349 1492.42 351.5 1488.42 356.5C1484.75 361.167 1481.58 367 1478.92 374C1476.58 380.667 1474.75 387.833 1473.42 395.5C1472.42 402.833 1471.92 409.333 1471.92 415C1471.92 428.333 1475.75 435 1483.42 435C1488.08 435 1492.42 433.333 1496.42 430C1500.42 426.667 1503.25 423.667 1504.92 421L1518.42 361C1516.42 358 1514.08 355.333 1511.42 353C1509.08 350.333 1505.92 349 1501.92 349Z" fill="#00CCC0"/>
</svg>
