<svg width="143" height="33" viewBox="0 0 143 33" fill="none" xmlns="http://www.w3.org/2000/svg">
<path fill-rule="evenodd" clip-rule="evenodd" d="M112.23 13.2242C111.003 13.2242 110.04 13.4872 109.077 14.0126C109.077 11.2105 109.077 8.67092 109.164 7.79504L103.297 8.84587V9.37182L103.91 9.45931C104.699 9.63426 104.962 10.0722 105.136 11.123C105.311 13.2247 105.224 24.4335 105.136 26.2727C106.713 26.6231 108.376 26.8861 110.04 26.8861C114.682 26.8861 117.483 23.996 117.483 19.4423C117.483 15.8513 115.207 13.2242 112.23 13.2242ZM110.215 25.9217C109.865 25.9217 109.427 25.9217 109.164 25.8347C109.077 24.609 108.989 19.4418 109.077 14.8885C109.601 14.713 109.952 14.6255 110.391 14.6255C112.317 14.6255 113.368 16.9021 113.368 19.7047C113.368 23.2077 112.054 25.9217 110.215 25.9217ZM81.2285 8.14549H65.8164V8.93388L66.6921 9.02137C67.8306 9.19632 68.2685 9.8967 68.4428 11.561C68.7064 14.7135 68.619 20.4056 68.4428 23.1207C68.2681 24.7839 67.8306 25.5723 66.6921 25.6598L65.8164 25.8347V26.5352H75.7118V25.8347L74.6606 25.6598C73.5221 25.5718 73.0842 24.7839 72.9092 23.1207C72.8218 21.9819 72.7345 20.1421 72.7345 17.8655L74.8361 17.953C76.1496 17.953 76.7622 19.0038 77.0258 20.4931H77.8134V14.2751H77.0258C76.7622 15.7638 76.1504 16.8141 74.8361 16.8141L72.7345 16.9016C72.7345 13.9241 72.8218 11.122 72.9092 9.4583H75.9738C78.339 9.4583 79.5648 10.9471 80.4401 13.5741L81.3159 13.3112L81.2285 8.14549Z" fill="#3F3F3F"/>
<path fill-rule="evenodd" clip-rule="evenodd" d="M86.2171 13.0494C90.5961 13.0494 92.7854 16.0269 92.7854 19.9673C92.7854 23.7327 90.3337 26.8857 85.9543 26.8857C81.576 26.8857 79.3867 23.9087 79.3867 19.9673C79.3871 16.2019 81.8388 13.0494 86.2171 13.0494ZM85.9547 13.9252C84.0285 13.9252 83.5029 16.5523 83.5029 19.9678C83.5029 23.2958 84.3787 26.0098 86.1309 26.0098C88.144 26.0098 88.6699 23.3828 88.6699 19.9678C88.6699 16.6398 87.7938 13.9252 85.9547 13.9252ZM118.619 20.0548C118.619 16.4648 120.896 13.0494 125.362 13.0494C129.04 13.0494 130.791 15.7639 130.791 19.3544H122.647C122.56 22.5954 124.136 24.959 127.289 24.959C128.69 24.959 129.391 24.6096 130.266 23.9962L130.617 24.4336C129.741 25.6604 127.814 26.8862 125.362 26.8862C121.421 26.8857 118.619 24.0836 118.619 20.0548ZM122.647 18.3916L126.763 18.3036C126.763 16.5523 126.501 13.9252 125.012 13.9252C123.523 13.9252 122.735 16.3768 122.647 18.3916ZM141.212 13.7503C140.161 13.3118 138.76 13.0494 137.183 13.0494C133.944 13.0494 131.93 14.9756 131.93 17.2527C131.93 19.5294 133.418 20.4932 135.52 21.1936C137.709 21.982 138.322 22.5949 138.322 23.6452C138.322 24.6971 137.534 25.6599 136.133 25.6599C134.469 25.6599 133.243 24.6971 132.28 22.0685L131.666 22.2444L131.754 26.0973C132.805 26.5348 134.732 26.8857 136.395 26.8857C139.811 26.8857 142.001 25.1345 142.001 22.4194C142.001 20.5802 141.037 19.5299 138.76 18.654C136.308 17.6912 135.433 17.0777 135.433 15.9394C135.433 14.8011 136.221 14.0127 137.272 14.0127C138.848 14.0127 139.899 14.9756 140.687 17.3407L141.3 17.1657L141.212 13.7503ZM104.169 13.3998C102.681 12.5245 100.054 12.9619 98.6527 16.1144L98.7404 13.0494L92.8727 14.1877V14.7131L93.486 14.8006C94.2744 14.8886 94.6238 15.326 94.7119 16.4648C94.8873 18.5665 94.8 22.2444 94.7119 24.0836C94.6246 25.1345 94.2744 25.6599 93.486 25.7469L92.8727 25.8349V26.5353H101.017V25.8349L99.9662 25.7469C99.0905 25.6599 98.8277 25.1345 98.7404 24.0836C98.5653 22.4194 98.5653 19.0919 98.6527 16.9903C99.0909 16.3773 101.017 15.852 102.768 16.9903L104.169 13.3998Z" fill="#3F3F3F"/>
<path d="M2.63185 10.4269H6.86231L4.56188 21.1688H8.5194L8.18798 22.8064H0L2.63185 10.4269ZM13.2932 18.8879C13.2411 19.1738 13.2022 19.4467 13.1762 19.7067C13.1632 19.9666 13.1567 20.2005 13.1567 20.4085C13.1567 20.5255 13.1632 20.6554 13.1762 20.7984C13.1892 20.9414 13.2152 21.0778 13.2542 21.2078C13.3061 21.3248 13.3711 21.4287 13.4491 21.5197C13.5401 21.5977 13.6636 21.6367 13.8195 21.6367C13.9365 21.6367 14.0665 21.5977 14.2094 21.5197C14.3654 21.4417 14.5148 21.3313 14.6578 21.1883C14.8138 21.0453 14.9567 20.8699 15.0867 20.6619C15.2297 20.454 15.3402 20.22 15.4181 19.9601H18.6153L18.1085 22.0461C17.8485 22.215 17.5496 22.358 17.2117 22.475C16.8738 22.5919 16.5163 22.6894 16.1395 22.7674C15.7625 22.8324 15.3791 22.8779 14.9892 22.9039C14.5993 22.9429 14.2289 22.9624 13.878 22.9624C13.2282 22.9624 12.6238 22.9039 12.065 22.7869C11.5061 22.6699 11.0187 22.4685 10.6028 22.1825C10.1869 21.8966 9.85549 21.5197 9.60856 21.0518C9.37462 20.571 9.25765 19.9796 9.25765 19.2778C9.25765 18.6409 9.35512 18.0171 9.55008 17.4062C9.75801 16.7954 10.0959 16.256 10.5638 15.7881C11.0447 15.3073 11.6815 14.9238 12.4744 14.6379C13.2801 14.352 14.2809 14.209 15.4766 14.209C16.7763 14.209 17.751 14.4105 18.4009 14.8134C19.0637 15.2162 19.3952 15.8466 19.3952 16.7044C19.3952 17.0553 19.3431 17.4387 19.2392 17.8546C19.1352 18.2575 18.9792 18.6019 18.7713 18.8879H13.2932ZM15.886 16.5679C15.886 16.165 15.821 15.8921 15.6911 15.7491C15.5611 15.6062 15.4051 15.5347 15.2232 15.5347C15.0152 15.5347 14.8203 15.6062 14.6383 15.7491C14.4693 15.8791 14.3134 16.0611 14.1704 16.295C14.0275 16.516 13.8975 16.7759 13.7805 17.0748C13.6636 17.3607 13.5661 17.6662 13.4881 17.9911H15.7106C15.7365 17.8351 15.7625 17.6726 15.7885 17.5037C15.8145 17.3607 15.834 17.2048 15.847 17.0358C15.873 16.8669 15.886 16.7109 15.886 16.5679ZM21.1083 15.1448C21.7711 14.8199 22.4469 14.5859 23.1358 14.443C23.8376 14.287 24.6174 14.209 25.4752 14.209C26.307 14.209 26.9958 14.274 27.5417 14.404C28.0876 14.5339 28.523 14.7224 28.8479 14.9693C29.1728 15.2162 29.4002 15.5087 29.5302 15.8466C29.6602 16.1845 29.7252 16.5679 29.7252 16.9968C29.7252 17.2437 29.7057 17.5102 29.6667 17.7961C29.6407 18.082 29.6082 18.3225 29.5692 18.5174L28.6529 22.8064H25.5142L25.1633 21.5587H25.0463C24.6304 22.0136 24.143 22.3645 23.5842 22.6114C23.0383 22.8454 22.4924 22.9624 21.9466 22.9624C21.6346 22.9624 21.3292 22.9169 21.0303 22.8259C20.7314 22.7349 20.4649 22.5985 20.231 22.4165C19.997 22.2215 19.8086 21.9811 19.6656 21.6952C19.5227 21.3962 19.4512 21.0388 19.4512 20.6229C19.4512 19.9471 19.6331 19.4142 19.997 19.0243C20.374 18.6214 20.8613 18.3225 21.4592 18.1275C22.07 17.9196 22.7524 17.7896 23.5062 17.7376C24.273 17.6857 25.0398 17.6597 25.8066 17.6597C25.8326 17.5297 25.8651 17.3477 25.9041 17.1138C25.9431 16.8669 25.9626 16.6524 25.9626 16.4705C25.9626 16.2365 25.8976 16.0221 25.7676 15.8271C25.6507 15.6192 25.3972 15.5152 25.0073 15.5152C24.5524 15.5152 24.2145 15.6517 23.9936 15.9246C23.7856 16.1845 23.6492 16.5029 23.5842 16.8799H20.7379L21.1083 15.1448ZM25.5922 18.5759H25.2413C24.8643 18.5759 24.5394 18.6279 24.2665 18.7319C24.0065 18.8229 23.7921 18.9463 23.6232 19.1023C23.4672 19.2583 23.3502 19.4337 23.2722 19.6287C23.1943 19.8236 23.1553 20.0186 23.1553 20.2135C23.1553 20.5255 23.2333 20.7594 23.3892 20.9154C23.5582 21.0713 23.7531 21.1493 23.9741 21.1493C24.247 21.1493 24.5134 21.0518 24.7734 20.8569C25.0463 20.6619 25.2152 20.402 25.2802 20.0771L25.5922 18.5759ZM32.0404 14.4235H35.2181L35.5105 15.8856H35.647C35.9459 15.4177 36.3293 15.0213 36.7972 14.6964C37.2651 14.3715 37.8824 14.209 38.6492 14.209C38.7012 14.209 38.7792 14.2155 38.8832 14.2285C39.0002 14.2285 39.1238 14.248 39.2536 14.287C39.3967 14.313 39.5394 14.3585 39.6825 14.4235C39.8384 14.4754 39.9878 14.5534 40.1309 14.6574L39.2731 18.6734H37.1481C37.1221 17.8676 37.0506 17.3087 36.9337 16.9968C36.8167 16.6719 36.6282 16.5094 36.3683 16.5094C36.2383 16.5094 36.0954 16.5419 35.9394 16.6069C35.7964 16.6589 35.647 16.7824 35.491 16.9773L34.2433 22.8064H30.2663L32.0404 14.4235ZM45.1099 15.6711C45.3829 15.4112 45.6882 15.1708 46.0262 14.9498C46.3253 14.7679 46.6762 14.5989 47.079 14.443C47.4817 14.287 47.9301 14.209 48.4241 14.209C49.0998 14.209 49.659 14.3845 50.1007 14.7354C50.5425 15.0733 50.7636 15.5412 50.7636 16.139C50.7636 16.308 50.7441 16.516 50.7051 16.7629C50.6661 16.9968 50.6205 17.2437 50.5686 17.5037C50.5167 17.7636 50.4583 18.0301 50.3931 18.303C50.3413 18.563 50.2957 18.7969 50.2567 19.0048L49.4379 22.8064H45.4804L46.5526 17.7181C46.5787 17.5492 46.6111 17.3802 46.6501 17.2113C46.6891 17.0293 46.7086 16.8669 46.7086 16.7239C46.7086 16.5289 46.6567 16.373 46.5526 16.256C46.4617 16.1261 46.3186 16.0611 46.1237 16.0611C45.8898 16.0611 45.6624 16.1455 45.4414 16.3145C45.2335 16.4834 45.071 16.6264 44.954 16.7434L43.6673 22.8064H39.6903L41.4643 14.4235H44.6421L44.993 15.6711H45.1099ZM59.2428 24.7754C58.8658 24.8534 58.4954 24.9184 58.1316 24.9704C57.7674 25.0354 57.3841 25.0678 56.9814 25.0678C56.2016 25.0678 55.4931 24.9444 54.8564 24.6974C54.2193 24.4635 53.6734 24.1126 53.2188 23.6447C52.7766 23.1898 52.4323 22.6244 52.1855 21.9486C51.9383 21.2728 51.8151 20.4994 51.8151 19.6287C51.8151 18.498 52.0163 17.5037 52.4195 16.6459C52.8223 15.7751 53.3553 15.0473 54.0181 14.4624C54.6938 13.8646 55.467 13.4162 56.338 13.1173C57.2215 12.8183 58.1444 12.6689 59.1063 12.6689C60.016 12.6689 60.8414 12.8054 61.5822 13.0783C62.323 13.3382 62.9531 13.7086 63.4733 14.1895C64.0059 14.6704 64.4153 15.2423 64.7015 15.9051C64.9873 16.5549 65.1304 17.2763 65.1304 18.0691C65.1304 18.563 65.0652 19.0568 64.9354 19.5507C64.8184 20.0446 64.6168 20.4994 64.331 20.9154C64.0581 21.3182 63.6877 21.6497 63.2198 21.9096C62.7519 22.1565 62.1671 22.28 61.4653 22.28C60.8282 22.28 60.3345 22.1565 59.9836 21.9096C59.6327 21.6497 59.444 21.2078 59.4183 20.5839H59.3013C59.0673 21.0778 58.7422 21.4612 58.3265 21.7342C57.9105 21.9941 57.4555 22.1241 56.9619 22.1241C56.416 22.1241 55.961 21.9486 55.5972 21.5977C55.2463 21.2468 55.0708 20.6749 55.0708 19.8821C55.0708 19.6872 55.0903 19.3817 55.1293 18.9658C55.1812 18.5499 55.2981 18.1341 55.4802 17.7181C55.6752 17.2893 55.9544 16.9188 56.3185 16.6069C56.6952 16.295 57.2087 16.139 57.8586 16.139C58.1706 16.139 58.463 16.204 58.7359 16.334C59.0217 16.451 59.249 16.7174 59.4183 17.1333H59.4962L59.9836 16.2755H61.8552L61.2898 18.9268C61.2376 19.1738 61.1923 19.4012 61.1533 19.6092C61.1143 19.8041 61.0948 19.9861 61.0948 20.155C61.0948 20.6619 61.3155 20.9154 61.7577 20.9154C61.9136 20.9154 62.0891 20.8829 62.2841 20.8179C62.479 20.7399 62.6607 20.6034 62.8299 20.4085C63.0116 20.2135 63.1613 19.9536 63.2783 19.6287C63.3953 19.2907 63.4538 18.8619 63.4538 18.342C63.4538 17.0813 63.0701 16.0805 62.3035 15.3397C61.5366 14.5859 60.4515 14.209 59.0479 14.209C58.2938 14.209 57.5857 14.326 56.9229 14.5599C56.26 14.7939 55.6752 15.1383 55.1683 15.5932C54.6743 16.035 54.2844 16.5939 53.9986 17.2698C53.7124 17.9326 53.5697 18.6929 53.5697 19.5507C53.5697 20.2395 53.6605 20.8374 53.8426 21.3443C54.0243 21.8381 54.2715 22.254 54.5834 22.5919C54.9082 22.9299 55.2915 23.1768 55.7337 23.3328C56.1754 23.5017 56.6499 23.5862 57.1568 23.5862C57.5206 23.5862 57.8715 23.5472 58.2096 23.4692C58.5605 23.4042 58.9114 23.3198 59.2623 23.2158L59.2428 24.7754ZM58.5605 17.3867C58.3655 17.3867 58.1901 17.4842 58.0341 17.6792C57.891 17.8611 57.7674 18.0886 57.6637 18.3615C57.5725 18.6214 57.5011 18.9008 57.4492 19.1998C57.4103 19.4857 57.3908 19.7391 57.3908 19.9601C57.3908 20.48 57.5401 20.7399 57.8391 20.7399C58.0208 20.7399 58.1901 20.6749 58.346 20.5449C58.502 20.415 58.6123 20.298 58.6774 20.194L59.2038 17.8546C59.1258 17.7376 59.0346 17.6337 58.9309 17.5427C58.8396 17.4387 58.7164 17.3867 58.5605 17.3867Z" fill="#00CCC0"/>
</svg>
