<svg width="288" height="77" viewBox="0 0 288 77" fill="none" xmlns="http://www.w3.org/2000/svg">
<path fill-rule="evenodd" clip-rule="evenodd" d="M0 63.8682H31.6199V53.4874H11.4429V13.8815H0V63.8682V63.8682Z" fill="black"/>
<path fill-rule="evenodd" clip-rule="evenodd" d="M47.6283 63.8682V29.439H36.1844V63.8682H47.6283V63.8682ZM41.9063 24.7381C45.8971 24.7381 48.381 22.0943 48.381 18.7882C48.3066 15.4108 45.8971 12.8413 41.9825 12.8413C38.0673 12.8413 35.5078 15.4108 35.5078 18.7882C35.5078 22.0943 37.9912 24.7381 41.8317 24.7381H41.906H41.9063Z" fill="black"/>
<path fill-rule="evenodd" clip-rule="evenodd" d="M52.9414 63.8682H64.3854V44.6409C64.3854 43.6119 64.4598 42.5839 64.7624 41.8483C65.5892 39.7933 67.4721 37.664 70.6336 37.664C74.7751 37.664 76.4317 40.8224 76.4317 45.4478V63.8682H87.8745V44.1264C87.8745 33.551 82.2282 28.6301 74.699 28.6301C68.5258 28.6301 65.8151 32.0808 64.3092 34.4313H64.3856V29.439H52.9416C53.0919 32.6697 52.9416 63.8682 52.9416 63.8682H52.9414Z" fill="black"/>
<path fill-rule="evenodd" clip-rule="evenodd" d="M104.019 13.8815H92.5742V63.8682H104.019V52.706L106.879 49.1054L115.838 63.8682H129.916L114.86 42.4963L128.035 27.9556H114.258C114.258 27.9556 104.847 40.965 104.019 42.5075V13.8815V13.8815Z" fill="black"/>
<path fill-rule="evenodd" clip-rule="evenodd" d="M160.523 49.5068C160.673 48.6225 160.899 46.9261 160.899 45.0087C160.899 36.1082 156.381 27.0733 144.487 27.0733C131.763 27.0733 125.891 37.1362 125.891 46.2629C125.891 57.5515 133.043 64.6018 145.54 64.6018C150.51 64.6018 155.101 63.8682 158.866 62.3257L157.36 54.7681C154.274 55.792 151.111 56.3034 147.197 56.3034C141.852 56.3034 137.184 54.1099 136.807 49.4335L160.523 49.5048V49.5068ZM136.733 41.7648C137.034 38.8265 138.991 34.4924 143.885 34.4924C149.078 34.4924 150.284 39.1209 150.284 41.7648H136.733V41.7648Z" fill="black"/>
<path fill-rule="evenodd" clip-rule="evenodd" d="M189.144 13.8815V31.1853H188.994C187.337 28.7635 183.873 27.1477 179.282 27.1477C170.473 27.1477 162.719 34.1979 162.794 46.2415C162.794 57.4058 169.795 64.6761 178.529 64.6761C183.272 64.6761 187.789 62.6191 190.047 58.6528H190.274L190.725 63.8682H200.89C200.739 61.4444 200.587 57.2581 200.587 53.1461V13.8815H189.144V13.8815ZM189.144 47.9317C189.144 48.812 189.069 49.6943 188.918 50.4279C188.241 53.5862 185.53 55.7889 182.218 55.7889C177.475 55.7889 174.388 51.9704 174.388 45.9481C174.388 40.2936 177.024 35.7404 182.293 35.7404C185.831 35.7404 188.316 38.1632 188.994 41.1738C189.144 41.8361 189.144 42.5707 189.144 43.2309V47.9317V47.9317Z" fill="black"/>
<path fill-rule="evenodd" clip-rule="evenodd" d="M212.098 5.46191C212.098 2.44618 214.604 -1.52588e-05 217.697 -1.52588e-05H282.266C285.358 -1.52588e-05 287.865 2.44618 287.865 5.46191V70.7861C287.865 73.8028 285.358 76.248 282.266 76.248H217.697C214.604 76.248 212.098 73.8028 212.098 70.7861V5.46191ZM235.066 63.8275V29.3972H223.622V63.8275H235.066ZM229.344 24.6964C233.334 24.6964 235.818 22.0525 235.818 18.7484C235.744 15.37 233.335 12.7995 229.419 12.7995C225.505 12.7995 222.945 15.37 222.945 18.7484C222.945 22.0525 225.429 24.6964 229.269 24.6964H229.344H229.344ZM252.842 63.8275H241.399C241.399 63.8275 241.549 32.6279 241.399 29.3972H252.843V34.2719C254.363 31.9258 257.085 28.5893 263.156 28.5893C270.685 28.5893 276.331 33.5102 276.331 44.0856V63.8275H264.888V45.4081C264.888 40.7796 263.232 37.6222 259.091 37.6222C255.929 37.6222 254.046 39.7516 253.219 41.8075C252.917 42.5431 252.842 43.5711 252.842 44.6002V63.8275ZM252.843 34.2719V34.3905H252.766C252.791 34.3513 252.817 34.3117 252.843 34.2719Z" fill="#006699"/>
</svg>
