<svg width="155" height="50" viewBox="0 0 155 50" fill="none" xmlns="http://www.w3.org/2000/svg">
<path d="M94.9815 50H107.33V0H94.9815V50ZM73.3001 35.7444C73.3001 37.5 71.7925 38.9747 69.9977 38.9747H62.8184C61.0236 38.9747 59.516 37.5 59.516 35.7444V15.5899H47.1677V36.7275C47.1677 45.3652 52.8393 49.9298 61.1672 49.9298H73.2283C80.9101 49.9298 85.5767 44.5225 85.5767 36.7275V15.5899H73.2283C73.3001 15.5899 73.3001 35.1124 73.3001 35.7444ZM142.723 15.5899V35.7444C142.723 37.5 141.216 38.9747 139.421 38.9747H132.242C130.447 38.9747 128.939 37.5 128.939 35.7444V15.5899H116.591V36.7275C116.591 45.3652 122.263 49.9298 130.591 49.9298H142.652C150.333 49.9298 155 44.5225 155 36.7275V15.5899H142.723ZM24.4095 15.5899H16.5123C13.7124 15.5899 12.3483 16.2921 12.3483 16.2921V0H0V49.9298H12.2765V29.8455C12.2765 28.0899 13.7842 26.6152 15.579 26.6152H22.7582C24.553 26.6152 26.0607 28.0899 26.0607 29.8455V50H38.409V28.2303C38.409 19.1011 32.163 15.5899 24.4095 15.5899Z" fill="#1CE783"/>
</svg>
