<svg width="50" height="59" viewBox="0 0 50 59" fill="none" xmlns="http://www.w3.org/2000/svg">
<path fill-rule="evenodd" clip-rule="evenodd" d="M27.8154 56.4856C27.0303 57.8082 25.6061 58.6189 24.0682 58.6189C22.53 58.6189 21.1059 57.8082 20.3207 56.4856C15.1484 47.7734 5.86631 32.1385 0.610663 23.2853C-0.18902 21.9382 -0.204225 20.2659 0.570576 18.9047C1.34572 17.5431 2.79165 16.7026 4.35784 16.7026C14.7865 16.7026 33.35 16.7026 43.7783 16.7026C45.3448 16.7026 46.7908 17.5431 47.5656 18.9047C48.3407 20.2659 48.3255 21.9382 47.5258 23.2853C42.2698 32.1385 32.9878 47.7734 27.8154 56.4856Z" fill="url(#paint0_linear)"/>
<path fill-rule="evenodd" clip-rule="evenodd" d="M47.1318 18.8154C47.1848 18.8964 47.2359 18.9797 47.2844 19.0648C48.1156 20.525 48.0992 22.3193 47.2414 23.7641C42.0346 32.5349 33.2138 47.3928 28.0881 56.0268C27.2459 57.4453 25.7182 58.3151 24.0682 58.3151C22.4183 58.3151 20.8905 57.4453 20.0481 56.0268L12.2959 42.9683L47.1318 18.8154Z" fill="#1250F4"/>
<path fill-rule="evenodd" clip-rule="evenodd" d="M22.9427 10.2229C22.9576 8.99377 23.6194 7.86369 24.6837 7.2492C25.7482 6.63461 27.0577 6.62658 28.1296 7.2282C33.4044 10.1888 41.5934 14.7847 46.9473 17.7898C48.0387 18.4023 48.7176 19.5539 48.7252 20.8055C48.7328 22.0573 48.0681 23.2168 46.9839 23.8428L27.904 34.8586C26.82 35.4844 25.4833 35.4804 24.403 34.8479C23.3229 34.2155 22.665 33.0518 22.6805 31.8002C22.755 25.6611 22.8691 16.2713 22.9427 10.2229Z" fill="url(#paint1_linear)"/>
<defs>
<linearGradient id="paint0_linear" x1="5.66967" y1="31.1612" x2="47.4947" y2="19.03" gradientUnits="userSpaceOnUse">
<stop stop-color="#0E43EF"/>
<stop offset="1" stop-color="#0F0000"/>
</linearGradient>
<linearGradient id="paint1_linear" x1="48.5281" y1="20.922" x2="22.9443" y2="21.0203" gradientUnits="userSpaceOnUse">
<stop stop-color="#6AF3F6"/>
<stop offset="1" stop-color="#49BBF8"/>
</linearGradient>
</defs>
</svg>
