<svg width="191" height="51" viewBox="0 0 191 51" fill="none" xmlns="http://www.w3.org/2000/svg">
<path d="M13.192 34.4522C13.2217 34.4881 13.2397 34.5321 13.2439 34.5784C13.248 34.6248 13.238 34.6713 13.2152 34.7118C13.1044 34.8917 12.9454 35.0371 12.7564 35.1315C12.5673 35.226 12.3557 35.2657 12.1452 35.2463C11.7702 35.2059 11.4245 35.0246 11.178 34.7391C10.9315 34.4537 10.8025 34.0852 10.8172 33.7083C10.8109 33.1947 10.9047 32.6847 11.0933 32.2069C11.2124 31.9075 11.2249 31.5763 11.1285 31.2688C11.0322 30.9613 10.833 30.6964 10.5643 30.5185C10.4053 30.4133 10.2269 30.341 10.0395 30.306C9.85212 30.2709 9.65961 30.2737 9.47333 30.3142C9.29083 30.3526 9.11784 30.4271 8.96456 30.5334C8.81127 30.6396 8.68077 30.7754 8.58074 30.9328C8.43924 31.175 8.32923 31.4344 8.25336 31.7044C8.23872 31.752 8.22691 31.7893 8.21796 31.8134C8.09365 32.1487 7.89547 32.2465 7.76119 32.2285C7.69771 32.2198 7.61042 32.1773 7.55447 32.0238C7.48424 31.5802 7.51611 31.1263 7.64765 30.6968C7.77919 30.2674 8.00695 29.8735 8.31359 29.5453C8.57112 29.2687 8.89078 29.0575 9.24613 28.929C9.60149 28.8005 9.98233 28.7584 10.3572 28.8063C10.7543 28.8608 11.1316 29.0131 11.4555 29.2493C11.7793 29.4855 12.0395 29.7983 12.2128 30.1597C12.3882 30.604 12.459 31.0827 12.4197 31.5587C12.3804 32.0347 12.2319 32.4952 11.9859 32.9046C11.9548 32.9742 11.9263 33.0381 11.9023 33.0959C11.8138 33.2558 11.7652 33.4347 11.7607 33.6173C11.7561 33.8 11.7957 33.9811 11.876 34.1452C11.944 34.2431 12.0351 34.3226 12.1413 34.3766C12.2475 34.4306 12.3655 34.4574 12.4846 34.4546C12.5969 34.453 12.7085 34.4373 12.8168 34.4077C12.9578 34.3746 13.1035 34.3408 13.192 34.4522L13.192 34.4522ZM47.9492 35.32C47.8704 36.9384 47.5285 38.5333 46.9368 40.0418C43.9852 47.1363 36.9411 51.0859 28.5496 50.8359C20.7269 50.6028 14.0549 46.4622 11.1348 39.7126C9.29138 39.6611 7.52784 38.9488 6.16564 37.7057C4.75845 36.5061 3.85434 34.8207 3.63311 32.9849C3.49032 31.7219 3.64652 30.443 4.08911 29.2514L2.44918 27.8579C-5.05454 21.5028 18.4151 -4.66369 25.9217 1.90366C25.9596 1.93672 28.4752 4.41266 28.4815 4.41876C28.4915 4.41366 29.8695 3.82754 29.8765 3.82468C36.4603 1.08999 41.8029 2.4104 41.8096 6.77368C41.813 9.04286 40.3715 11.6878 38.0624 14.0886C38.9853 15.0279 39.6387 16.1979 39.9542 17.4763C40.2088 18.3682 40.3464 19.2894 40.3636 20.2167C40.4037 21.1414 40.448 23.2957 40.4525 23.3341C40.5111 23.3518 41.1776 23.5353 41.3797 23.5922C42.723 23.8869 43.973 24.5079 45.0192 25.4004C45.5715 25.9404 45.9332 26.6454 46.0498 27.409C46.1921 28.3997 45.9449 29.4071 45.36 30.2194C45.5122 30.5665 45.6443 30.922 45.7556 31.2843C45.9499 31.9092 46.0913 32.4278 46.113 32.5047C46.8274 32.5047 47.9492 33.3296 47.9492 35.32L47.9492 35.32ZM14.7884 31.4269C14.2781 28.1141 12.0439 26.9465 10.5279 26.8633C10.1473 26.843 9.76577 26.8703 9.39195 26.9443C6.6861 27.4918 5.15789 29.8006 5.4586 32.8006C5.6776 34.1463 6.34397 35.3788 7.35 36.2989C8.35602 37.2191 9.64294 37.7732 11.0028 37.8716C11.263 37.8785 11.5233 37.8602 11.78 37.8169C14.5225 37.3477 15.2405 34.3608 14.7884 31.4269ZM19.4133 10.3969C21.7054 8.51256 24.1505 6.82236 26.7231 5.34386C26.7231 5.34386 24.6804 2.96813 24.0635 2.79305C20.2693 1.76427 12.073 7.43405 6.83992 14.9247C4.72247 17.9555 1.69128 23.3228 3.14055 26.0833C3.6554 26.7028 4.23619 27.2645 4.87263 27.7584C5.84156 26.3926 7.30356 25.4571 8.94963 25.1496C11.009 19.3605 14.6306 14.2544 19.4133 10.3969V10.3969ZM27.6597 36.613C27.7602 37.0533 27.9778 37.4583 28.2895 37.7851C28.6012 38.1119 28.9954 38.3485 29.4304 38.4698C29.883 38.6384 30.3499 38.7656 30.8254 38.8498C36.8272 39.8853 42.4381 36.4432 43.7014 35.5763C43.7963 35.5112 43.8589 35.5747 43.7828 35.6896C43.7448 35.7507 43.7035 35.8098 43.6591 35.8665C42.113 37.8669 37.9564 40.1835 32.5486 40.1826C30.19 40.1822 27.8327 39.3488 26.9672 38.0681C25.6243 36.081 26.9007 33.1806 29.1382 33.4828C29.1408 33.4833 29.9038 33.57 30.1183 33.5938C33.5965 33.9283 37.1023 33.3656 40.3011 31.9594C43.3539 30.5379 44.5071 28.9737 44.3341 27.7074C44.2763 27.3141 44.0914 26.9505 43.8078 26.6721C42.9729 25.9849 41.9817 25.514 40.9216 25.3008C40.4368 25.1643 40.1078 25.0772 39.7533 24.96C39.1232 24.7519 38.8117 24.5843 38.7411 23.3957C38.7104 22.876 38.62 21.0651 38.5873 20.3167C38.5297 19.0055 38.3726 17.2133 37.2638 16.4733C36.9815 16.2875 36.6537 16.1824 36.316 16.1694C36.1267 16.1579 35.9367 16.1765 35.7533 16.2247C35.1916 16.3547 34.6797 16.6449 34.2798 17.0602C33.7616 17.5286 33.1522 17.8848 32.4898 18.1066C31.8275 18.3284 31.1264 18.4109 30.4307 18.349C29.6548 18.3165 28.8327 18.1953 27.8902 18.1392C27.7069 18.1284 27.5228 18.1169 27.339 18.1076C26.1256 18.1394 24.9639 18.6059 24.0655 19.4223C23.1671 20.2386 22.5917 21.3504 22.4441 22.5553C21.9045 26.2792 24.5931 28.2035 25.3693 29.3326C25.4892 29.4764 25.5636 29.6527 25.5829 29.839C25.5625 30.0455 25.4636 30.2364 25.3066 30.3722V30.3735C24.233 31.5696 23.4784 33.0172 23.1127 34.5823C22.747 36.1474 22.782 37.7795 23.2144 39.3275C23.317 39.6993 23.4485 40.0624 23.6077 40.4137C25.5695 45.012 31.6553 47.1533 37.6009 45.2055C38.3794 44.9506 39.135 44.6306 39.8597 44.2488C41.1617 43.6033 42.3342 42.7244 43.3188 41.6557C44.8501 40.1168 45.8577 38.1346 46.1986 35.9906C46.3776 34.8053 46.1156 34.3469 45.7584 34.1263C45.5058 33.9856 45.2139 33.9321 44.9278 33.9741C44.7764 33.0433 44.5108 32.1347 44.137 31.269C42.4389 32.5503 40.5193 33.5079 38.4744 34.0939C36.0139 34.789 33.4544 35.0667 30.9021 34.9151C29.2602 34.7821 28.1739 34.3012 27.7653 35.6331C30.249 36.4637 32.8861 36.7327 35.4863 36.4209C35.5046 36.419 35.5231 36.4208 35.5407 36.426C35.5583 36.4313 35.5747 36.4401 35.589 36.4517C35.6032 36.4633 35.615 36.4777 35.6237 36.4939C35.6324 36.5101 35.6377 36.5279 35.6395 36.5462C35.6423 36.5769 35.6354 36.6078 35.6199 36.6345C35.6044 36.6612 35.5809 36.6824 35.5529 36.6952C35.5529 36.6952 32.5031 38.1155 27.6597 36.613V36.613ZM18.7279 15.0186C20.745 13.6024 23.0195 12.594 25.4234 12.0502C28.1352 11.4218 30.954 11.4141 33.6692 12.028C33.7642 12.0498 33.8248 11.8847 33.7398 11.8369C32.3308 11.1033 30.7755 10.6944 29.1879 10.6402C29.1726 10.6399 29.1577 10.6354 29.1448 10.6272C29.1319 10.619 29.1215 10.6074 29.1148 10.5937C29.108 10.5799 29.1052 10.5646 29.1066 10.5494C29.108 10.5342 29.1136 10.5196 29.1228 10.5073C29.3694 10.1837 29.6575 9.89376 29.9796 9.64511C29.994 9.63385 30.0045 9.61827 30.0094 9.60065C30.0144 9.58303 30.0136 9.56428 30.0072 9.54714C30.0008 9.52999 29.989 9.51535 29.9737 9.50533C29.9584 9.49531 29.9403 9.49045 29.922 9.49144C27.9779 9.68365 26.1095 10.3453 24.4777 11.4194C24.4638 11.4289 24.4473 11.4339 24.4305 11.4339C24.4136 11.4338 24.3972 11.4287 24.3833 11.4192C24.3694 11.4097 24.3587 11.3962 24.3526 11.3805C24.3464 11.3649 24.3452 11.3477 24.3489 11.3313C24.4804 10.8387 24.6739 10.3648 24.9249 9.92108C24.9333 9.9059 24.9365 9.88846 24.9342 9.8713C24.9318 9.85415 24.9241 9.8382 24.912 9.82579C24.8999 9.81339 24.8842 9.80518 24.8671 9.80239C24.85 9.79959 24.8325 9.80235 24.8171 9.81026C22.4572 11.1129 20.3552 12.8359 18.6149 14.8943C18.6013 14.91 18.5939 14.93 18.5941 14.9508C18.5943 14.9715 18.6021 14.9914 18.6161 15.0068C18.63 15.0221 18.6491 15.0318 18.6697 15.034C18.6903 15.0361 18.711 15.0306 18.7279 15.0186V15.0186ZM34.5327 27.6591C34.697 27.7631 34.8938 27.803 35.0856 27.7711C35.2774 27.7393 35.4507 27.6379 35.5725 27.4863C35.7239 27.1933 35.5041 26.7959 35.0814 26.5985C34.9171 26.4946 34.7202 26.4547 34.5284 26.4867C34.3366 26.5186 34.1633 26.6201 34.0416 26.7717C33.89 27.0645 34.11 27.4619 34.5327 27.6591ZM35.8294 22.9077C35.9308 23.4353 36.1496 23.9332 36.4696 24.3647C36.8002 24.3241 37.1345 24.3241 37.4652 24.3647C37.6585 23.7857 37.6754 23.1622 37.5138 22.5735C37.2749 21.4873 36.9515 20.8299 36.2833 20.9321C35.6153 21.0345 35.5906 21.8215 35.8294 22.9077ZM37.2509 25.4029C37.0823 25.3546 36.9029 25.3602 36.7378 25.4191C36.5727 25.478 36.4301 25.5871 36.3302 25.7312C36.2303 25.8752 36.178 26.0469 36.1807 26.2222C36.1835 26.3975 36.241 26.5676 36.3453 26.7085C36.4497 26.8493 36.5955 26.954 36.7624 27.0077C36.9293 27.0615 37.1088 27.0616 37.2757 27.008C37.4427 26.9544 37.5886 26.8499 37.6931 26.7092C37.7976 26.5684 37.8553 26.3984 37.8582 26.2231C37.8824 26.0344 37.8328 25.8437 37.7195 25.6908C37.6063 25.538 37.4384 25.4348 37.2509 25.4029V25.4029Z" fill="#C89C00"/>
<path d="M29.843 26.5103C30.0305 25.8428 30.0413 25.1381 29.8742 24.4653C29.6324 23.3774 29.2668 22.7557 28.5893 22.8581C27.9117 22.9605 27.8942 23.8372 28.1126 24.9297C28.213 25.4303 28.4086 25.9069 28.6887 26.3338C29.2278 27.0862 29.5934 26.8915 29.842 26.5103L29.843 26.5103Z" fill="#C89C00"/>
<path d="M182.677 30.418C181.432 30.418 180.517 28.84 180.517 26.64C180.517 24.504 181.458 22.863 182.634 22.863C184.144 22.863 184.788 24.248 184.788 26.64C184.788 29.128 184.195 30.418 182.677 30.418ZM184.167 18.333C183.157 18.3572 182.177 18.6826 181.353 19.2676C180.53 19.8525 179.899 20.6703 179.543 21.616C179.176 22.403 179.194 22.634 178.926 22.634C178.538 22.634 178.86 22.002 179.034 21.258C179.243 20.4127 179.271 19.5329 179.116 18.676H175.14V37.755H180.567V31.706C180.922 32.374 181.449 32.935 182.094 33.3311C182.738 33.7272 183.477 33.944 184.233 33.959C188.157 33.959 190.132 30.638 190.132 26.152C190.132 21.067 187.768 18.331 184.166 18.331L184.167 18.333ZM143.648 18.697V33.63H149.075V18.697C148.23 19.0928 147.3 19.2761 146.367 19.231C145.431 19.2747 144.498 19.0915 143.648 18.697V18.697ZM136.921 18.336C133.779 18.336 132.584 21.313 132.343 21.83C132.102 22.347 131.982 22.644 131.785 22.638C131.442 22.627 131.681 22.003 131.815 21.6C132.34 19.9086 132.605 18.1478 132.603 16.377C132.65 15.6276 132.573 14.8758 132.377 14.151H127.692V33.631H133.119V26.193C133.119 24.981 133.602 22.864 134.97 22.864C136.102 22.864 136.457 23.703 136.457 25.393V33.632H141.884V25.719C141.884 21.881 141.248 18.338 136.921 18.338V18.336ZM117.428 26.155C117.428 24.811 118.677 23.588 120.969 23.588C122.723 23.634 124.434 24.1432 125.927 25.064V19.864C125.927 19.864 124.34 18.336 120.438 18.336C116.325 18.336 112.9 20.743 112.9 25.923C112.9 31.103 116.008 33.975 120.427 33.975C122.428 34.0036 124.377 33.3331 125.936 32.079V27.14C124.472 28.1301 122.76 28.6921 120.994 28.763C118.371 28.763 117.427 27.556 117.427 26.156L117.428 26.155ZM106.028 14.151H111.455V33.631H106.028V14.151ZM89.2163 30.133C87.9183 30.433 87.2463 30.033 87.2463 29.173C87.2463 27.995 88.4653 27.523 90.2043 27.523C90.9713 27.523 91.6923 27.589 91.6923 27.589C91.5134 28.1803 91.1952 28.72 90.7643 29.1627C90.3334 29.6054 89.8025 29.9382 89.2163 30.133V30.133ZM90.5373 18.336C88.075 18.3253 85.6395 18.8465 83.3973 19.864V24.357C83.3973 24.357 86.6913 22.463 89.3633 22.463C91.4963 22.463 91.7583 23.613 91.6613 24.568C90.8389 24.4245 90.0034 24.3698 89.1693 24.405C84.7463 24.405 82.5133 26.415 82.5133 29.639C82.5133 32.697 85.0223 33.975 87.1373 33.975C88.1607 34.0137 89.1719 33.7426 90.0387 33.1972C90.9054 32.6517 91.5874 31.8574 91.9953 30.918C92.2843 30.236 92.3373 29.776 92.5973 29.776C92.8933 29.776 92.7933 30.106 92.7793 30.785C92.7279 31.7392 92.8018 32.696 92.9993 33.631H97.0893V26.273C97.0893 21.679 95.4643 18.336 90.5383 18.336H90.5373ZM168.408 18.333C167.493 18.3791 166.613 18.698 165.88 19.2487C165.148 19.7994 164.597 20.5566 164.298 21.423C163.995 22.1 163.911 22.635 163.665 22.635C163.319 22.635 163.55 22.044 163.284 21.139C163.079 20.2848 162.575 19.5323 161.863 19.0175C161.151 18.5028 160.279 18.26 159.403 18.333C156.895 18.333 155.821 20.452 155.312 21.616C154.964 22.412 154.963 22.634 154.695 22.634C154.307 22.634 154.629 22.002 154.803 21.258C155.012 20.4127 155.04 19.5329 154.885 18.676H150.909V33.626H156.336V26.188C156.336 24.721 156.95 22.859 158.002 22.859C159.217 22.859 159.461 23.793 159.461 25.521V33.63H164.91V26.188C164.91 24.882 165.443 22.859 166.584 22.859C167.816 22.859 168.035 24.17 168.035 25.521V33.626H173.386V24.834C173.386 20.932 172.011 18.331 168.409 18.331L168.408 18.333ZM76.2943 18.333C75.3791 18.3791 74.4986 18.698 73.7662 19.2487C73.0337 19.7994 72.4828 20.5566 72.1843 21.423C71.8813 22.1 71.7973 22.635 71.5513 22.635C71.2053 22.635 71.4533 22.17 71.1703 21.139C70.9543 20.2909 70.4475 19.5455 69.7383 19.0327C69.029 18.5199 68.1624 18.2723 67.2893 18.333C64.7813 18.333 63.7073 20.452 63.1983 21.616C62.8503 22.412 62.8493 22.634 62.5813 22.634C62.1933 22.634 62.5153 22.002 62.6893 21.258C62.8979 20.4127 62.9258 19.5329 62.7713 18.676H58.7953V33.626H64.2223V26.188C64.2223 24.721 64.8363 22.859 65.8883 22.859C67.1033 22.859 67.3473 23.793 67.3473 25.521V33.63H72.7963V26.188C72.7963 24.882 73.3293 22.859 74.4703 22.859C75.7023 22.859 75.9213 24.17 75.9213 25.521V33.626H81.2723V24.834C81.2723 20.932 79.8973 18.331 76.2953 18.331L76.2943 18.333ZM143.024 16.168C143.024 14.9707 144.512 14 146.346 14C148.181 14 149.668 14.9707 149.668 16.168C149.668 17.3654 148.181 18.336 146.346 18.336C144.512 18.336 143.024 17.3654 143.024 16.168ZM101.563 19.231C102.496 19.2761 103.426 19.0927 104.271 18.697V33.63H98.8443V18.697L101.563 19.231ZM98.2203 16.168C98.2203 14.9707 99.7076 14 101.542 14C103.377 14 104.864 14.9707 104.864 16.168C104.864 17.3654 103.377 18.336 101.542 18.336C99.7076 18.336 98.2203 17.3654 98.2203 16.168V16.168Z" fill="black"/>
</svg>
