<svg width="2486" height="968" viewBox="0 0 2486 968" fill="none" xmlns="http://www.w3.org/2000/svg">
<path d="M1020.96 868.11C1015.64 868.11 1015.64 868.11 1015.64 863C1015.64 814.86 1015.64 766.72 1015.64 718.58C1015.74 713.868 1015.46 709.156 1014.8 704.49C1013.8 698.65 1011.34 693.49 1005.39 690.86C1003.09 689.86 1000.75 688.94 998.39 687.99H952.49V726.93C957.49 726.93 961.7 726.93 965.96 726.93C969.03 726.93 970.96 728.02 970.66 731.57C970.46 733.93 970.66 736.32 970.66 738.69V756.62C966.98 754.28 964.08 751.95 960.81 750.44C945.81 743.44 930.01 742.67 914.01 745.89C899.542 748.778 886.547 756.653 877.29 768.14C863.87 784.34 858.6 803.63 857.92 824.24C857.71 830.75 858.68 837.31 859.33 843.83C860.597 857.338 865.251 870.308 872.86 881.54C881.86 894.84 893.86 903.93 909.51 907.97C918.103 910.301 927.048 911.053 935.91 910.19C944.6 909.28 952.65 907.12 960.04 902.73C964.74 899.93 969.04 896.42 973.46 893.25C976.85 903.25 982.69 906.54 992.58 906.87C1004.72 907.29 1016.9 906.97 1029.06 906.97H1033.51V868.11H1020.96ZM968.38 848.23C964.25 859.41 956.99 867.33 945.19 870.63C934.43 873.63 920.64 869.54 913.64 860.73C905.81 850.87 903.31 839.73 903.5 826.73C903.12 815.65 905.72 804.59 913.36 795.13C915.926 791.877 919.146 789.198 922.811 787.266C926.476 785.333 930.506 784.19 934.64 783.91C945.05 783.01 953.92 786.07 960.9 794.09C965.985 799.988 969.302 807.201 970.47 814.9C972.26 826.1 972.39 837.4 968.38 848.23Z" fill="#00B412"/>
<path d="M448.631 777.86C441.395 764.642 429.753 754.38 415.731 748.86C405.651 744.73 395.111 743.86 384.401 744.4C374.181 744.96 364.401 747.4 355.801 753.12C351.801 755.73 348.121 758.7 344.261 761.53C342.531 752.83 334.181 748.14 326.921 748.12C313.015 748.067 299.105 748.04 285.191 748.04V787.04C290.191 787.04 295.191 787.04 300.191 786.94C302.411 786.94 303.511 787.72 303.311 790C303.291 790.373 303.291 790.747 303.311 791.12V965.22C303.311 965.85 303.311 966.47 303.241 967.09H347.631V896.6C351.631 899.25 354.911 901.95 358.631 903.78C372.231 910.48 386.501 912.15 401.471 909.31C422.751 905.26 438.471 893.67 448.971 875.06C459.641 856.06 461.921 835.56 459.771 814.18C458.592 801.437 454.8 789.073 448.631 777.86V777.86ZM405.631 859.78C400.631 866.05 393.981 869.46 386.311 871.1C376.551 873.18 367.991 870.26 360.601 864.1C355.101 859.48 351.861 853.2 349.741 846.39C344.901 830.81 345.621 815.55 352.981 800.88C361.251 784.39 382.981 778.48 398.351 788.7C406.951 794.43 411.611 803.1 413.791 813C414.861 817.91 415.211 823 415.881 828C415.461 839.6 413.141 850.4 405.671 859.78H405.631Z" fill="#00B412"/>
<path d="M691.552 776.99C686.868 768.702 680.407 761.554 672.632 756.06C663.932 749.98 654.372 745.66 643.632 745.16C635.262 744.77 626.732 744.57 618.462 745.66C606.662 747.22 596.812 753.42 587.832 761.66C584.392 749.66 575.362 747.79 564.832 748.02C554.052 748.25 543.272 748.02 532.492 748.02H528.422V786.89H542.142C546.592 786.89 547.092 787.4 547.092 791.89C547.092 815.01 547.092 838.133 547.092 861.26C547.092 896.513 547.069 931.763 547.022 967.01H591.412V896.2C592.572 897.26 593.082 897.79 593.662 898.2C594.242 898.61 594.882 899.01 595.482 899.44C611.152 910.77 628.822 912.94 647.042 908.92C671.872 903.44 688.312 887.61 697.372 864.24C703.052 849.59 704.862 834.37 703.592 818.57C702.382 803.85 699.012 789.91 691.552 776.99ZM652.902 854.08C650.564 858.739 647.107 862.745 642.839 865.738C638.572 868.731 633.628 870.618 628.452 871.23C611.042 873.73 598.502 861.32 594.192 849.17C591.692 842.1 590.192 834.98 590.582 827.97C590.212 816.37 592.382 805.81 598.942 796.7C601.558 793.002 604.969 789.937 608.925 787.731C612.881 785.525 617.281 784.233 621.802 783.95C639.672 782.4 651.062 793.69 655.902 808.29C661.072 823.88 660.702 839.47 652.902 854.08V854.08Z" fill="#00B412"/>
<path d="M1512.96 811.4C1511.66 804.55 1511.12 797.46 1508.96 790.87C1502.17 769.79 1488.48 754.96 1467.16 747.79C1455.32 743.79 1443.16 743.56 1430.82 745C1415.33 746.8 1401.51 752.47 1389.82 762.6C1372.2 777.83 1364.25 797.9 1362.76 820.6C1362.35 828.52 1362.84 836.46 1364.22 844.27C1367.65 865.16 1378.32 882.03 1395.22 894.65C1409.87 905.59 1426.97 910.05 1445.06 910.65C1455.46 910.93 1465.83 909.442 1475.73 906.25C1488.73 902.25 1500.49 896.12 1510.45 886.7C1512.28 884.96 1512.31 883.56 1511.09 881.59C1507.92 876.48 1504.85 871.3 1501.74 866.15L1493.91 853.15C1486.44 857.7 1479.54 862.46 1472.14 866.28C1463.23 870.846 1453.11 872.47 1443.22 870.92C1428.08 868.61 1417.01 860.29 1411.22 845.79C1410.22 843.18 1409.64 840.37 1408.74 837.2H1512.2C1512.46 834.07 1512.65 831.2 1512.96 828.25C1513.16 826.997 1513.43 825.756 1513.76 824.53V813.28C1513.43 812.682 1513.16 812.052 1512.96 811.4V811.4ZM1410.96 804.18C1413.67 791.72 1424.35 783.06 1436.58 780.84C1445.87 779.15 1453.72 781.51 1460.22 787.96C1464.58 792.3 1466.81 797.96 1467.57 804.18H1410.96Z" fill="#00B412"/>
<path d="M516.141 729.7V687.99H476.281V729.7H516.141Z" fill="#00B412"/>
<path d="M1160.14 729.7H1200.02V687.99H1160.14V729.7Z" fill="#00B412"/>
<path d="M826.899 756.1C817.949 749.948 807.608 746.12 796.809 744.96C783.439 743.37 770.359 744.26 757.609 748.55C745.415 752.627 734.507 759.838 725.979 769.46C718.534 777.698 713.005 787.482 709.789 798.11C705.11 813.417 704.265 829.64 707.329 845.35C710.939 864.3 720.009 880.23 735.149 892.23C755.079 908.03 778.259 912.74 803.149 909.87C816.024 908.292 828.408 903.96 839.459 897.17C845.219 893.71 850.459 889.35 856.079 885.25L836.549 852.54C831.389 856.22 826.859 859.84 821.949 862.87C811.209 869.49 799.329 872.64 786.849 870.96C768.849 868.54 755.479 856.96 751.849 837.21H855.089C855.617 834.824 855.981 832.405 856.179 829.97C856.359 817.97 856.659 805.97 853.239 794.2C848.599 778.59 840.429 765.47 826.899 756.1ZM754.009 804.1C757.129 789.33 770.689 779.93 786.379 780.3C800.049 780.62 809.559 792.3 810.219 804.1H754.009Z" fill="#00B412"/>
<path d="M1367.55 786.95V748.08C1358.25 748.08 1349.35 748.08 1340.46 748.08C1329.62 748.08 1322.52 753.64 1319.17 762.8C1310.61 786.26 1302.44 809.87 1294.17 833.42C1292.07 839.36 1290.02 845.32 1287.72 851.92C1287.35 850.33 1287.24 849.48 1286.95 848.68C1276.95 820.51 1267.14 792.31 1256.95 764.23C1254.14 756.5 1249.64 749.62 1240.3 748.78C1233.49 748.17 1226.62 748.23 1219.77 748.09C1215.31 748 1210.85 748.09 1206.41 748.09V786.96C1208.41 786.96 1210.11 787.03 1211.84 786.96C1215.23 786.8 1217.27 787.96 1218.37 791.53C1219.92 796.53 1222.25 801.32 1224.11 806.25C1236.46 839.01 1248.79 871.787 1261.11 904.58C1261.76 906.32 1262.56 907.07 1264.52 907.05C1279.52 906.98 1294.61 907.05 1309.65 906.92C1310.3 906.827 1310.92 906.583 1311.46 906.208C1312 905.833 1312.45 905.337 1312.76 904.76C1317.16 893.59 1321.41 882.37 1325.62 871.13C1335.49 844.757 1345.33 818.373 1355.14 791.98C1356.45 788.48 1358.61 786.42 1362.67 786.98C1364.3 787.073 1365.93 787.063 1367.55 786.95V786.95Z" fill="#00B412"/>
<path d="M1085.61 771.94V766.94C1085.61 756.08 1077.53 748.06 1066.61 748.05C1053.7 748.05 1040.79 748.05 1027.88 748.05C1026.68 748.05 1025.47 748.16 1024.28 748.22V786.91C1025.99 786.91 1027.47 786.83 1028.94 786.91C1033.23 787.18 1037.52 787.51 1041.81 787.81C1042.16 792.19 1042.81 796.57 1042.81 800.96C1042.9 834.7 1042.81 868.45 1042.81 902.2V906.63H1087.14C1087.14 904.84 1087.14 903.34 1087.14 901.85C1087.39 878.27 1087.29 854.68 1088.14 831.13C1088.51 824.397 1090.29 817.818 1093.37 811.82C1100.69 797.28 1113.03 789.82 1129.55 789.93C1133.09 789.93 1136.64 790.38 1140.38 790.63V746.59C1116.83 742.85 1099.41 752.25 1085.61 771.94Z" fill="#00B412"/>
<path d="M524.802 868.12C519.342 868.12 519.092 867.87 519.092 862.38C519.092 831.01 519.242 799.65 519.012 768.29C518.932 756.73 512.092 747.95 499.012 748.06C486.732 748.16 474.452 748.06 462.172 748.06H456.922V786.93H469.512C474.512 786.93 474.842 787.31 474.842 792.29C474.842 823.29 474.732 854.29 474.972 885.29C475.08 889.557 476.103 893.752 477.972 897.59C481.352 904.53 487.972 906.83 495.262 906.94C508.412 907.13 521.572 907 534.732 906.94C535.732 906.94 536.652 906.8 537.652 906.71V868.09L524.802 868.12Z" fill="#00B412"/>
<path d="M1208.68 868.12C1203.22 868.12 1202.97 867.87 1202.97 862.38C1202.97 831.27 1203.05 800.16 1202.97 769.05C1202.97 756.25 1195.25 747.96 1182.09 748.05C1170.69 748.14 1159.29 748.05 1147.89 748.05H1143.95V786.56C1144.24 786.69 1144.55 786.791 1144.86 786.86C1147.37 786.86 1149.86 786.86 1152.38 786.92C1158.76 786.92 1158.76 786.92 1158.76 793.11C1158.76 823.97 1158.78 854.827 1158.81 885.68C1158.87 888.39 1159.28 891.08 1160.05 893.68C1162.48 902.34 1169.8 906.78 1179.23 906.93C1192.13 907.14 1205.03 906.99 1217.94 906.93C1218.94 906.93 1219.86 906.78 1220.94 906.69V868.08L1208.68 868.12Z" fill="#00B412"/>
<path d="M780.359 554.22C827.129 554.22 859.15 533.67 879.44 512.94C880.372 511.981 881.57 511.323 882.88 511.05C884.189 510.777 885.551 510.901 886.789 511.407C888.027 511.914 889.086 512.779 889.829 513.891C890.572 515.003 890.966 516.312 890.959 517.65V538.13C890.959 539.016 891.134 539.893 891.474 540.712C891.813 541.53 892.31 542.273 892.937 542.899C893.564 543.525 894.308 544.022 895.127 544.36C895.946 544.698 896.824 544.871 897.709 544.87H940.31C941.195 544.871 942.072 544.698 942.89 544.36C943.709 544.021 944.452 543.525 945.078 542.899C945.704 542.273 946.201 541.529 946.539 540.711C946.877 539.893 947.051 539.015 947.05 538.13V228.4C947.051 227.514 946.877 226.637 946.539 225.818C946.201 224.999 945.705 224.255 945.079 223.628C944.453 223.001 943.71 222.503 942.891 222.164C942.073 221.825 941.196 221.65 940.31 221.65H897.709C895.919 221.65 894.202 222.361 892.937 223.627C891.671 224.893 890.959 226.61 890.959 228.4V249.4C890.958 250.745 890.553 252.059 889.799 253.172C889.044 254.285 887.974 255.147 886.725 255.647C885.477 256.147 884.107 256.263 882.793 255.978C881.479 255.693 880.279 255.022 879.349 254.05C861.139 235.4 829.84 213.79 780.35 213.79C697.78 213.79 623.02 271.43 623.02 382.79C623.03 496.58 698.579 554.22 780.359 554.22ZM786.59 263.68C836.44 263.68 894.079 300.29 894.079 383.68C894.079 447.5 855.14 504.4 786.59 504.4C719.59 504.4 680.66 452.21 680.66 382.89C680.66 304.19 731.3 263.68 786.59 263.68V263.68Z" fill="#00B412"/>
<path d="M1182 544.87H1224.6C1226.39 544.87 1228.1 544.16 1229.37 542.896C1230.63 541.632 1231.34 539.918 1231.34 538.13V6.73999C1231.34 5.85488 1231.17 4.97844 1230.83 4.16071C1230.49 3.34297 1229.99 2.59996 1229.37 1.97409C1228.74 1.34822 1228 0.851763 1227.18 0.513046C1226.36 0.17433 1225.49 0 1224.6 0H1182C1181.12 0 1180.24 0.17433 1179.42 0.513046C1178.6 0.851763 1177.86 1.34822 1177.24 1.97409C1176.61 2.59996 1176.11 3.34297 1175.77 4.16071C1175.44 4.97844 1175.26 5.85488 1175.26 6.73999V538.13C1175.26 539.918 1175.97 541.632 1177.24 542.896C1178.5 544.16 1180.21 544.87 1182 544.87Z" fill="#00B412"/>
<path d="M1610.64 554.22C1657.4 554.22 1689.42 533.67 1709.71 512.94C1710.64 511.98 1711.84 511.32 1713.15 511.045C1714.46 510.771 1715.82 510.894 1717.06 511.399C1718.3 511.904 1719.36 512.768 1720.11 513.88C1720.86 514.992 1721.25 516.301 1721.25 517.64V546.4C1721.25 573.66 1719.68 602.48 1703.33 628.97C1684.63 660.12 1657.33 674.14 1617.65 674.14C1592.72 674.14 1563.13 668.69 1539.76 642.98C1526.82 628.61 1516.53 606.98 1515.03 582.25C1514.91 580.55 1514.16 578.958 1512.91 577.797C1511.66 576.636 1510.02 575.994 1508.32 576H1466.43C1465.51 576.003 1464.61 576.192 1463.77 576.555C1462.92 576.918 1462.16 577.447 1461.53 578.112C1460.9 578.776 1460.41 579.562 1460.09 580.421C1459.78 581.28 1459.63 582.195 1459.68 583.11C1461.58 627.02 1480.88 659.66 1501.59 680.37C1523.4 702.18 1561.59 723.99 1616.88 723.99C1677.63 723.99 1722.02 696.73 1746.17 663.99C1777.33 621.93 1777.33 572.09 1777.33 536.99V228.4C1777.33 226.612 1776.62 224.898 1775.35 223.634C1774.09 222.37 1772.38 221.66 1770.59 221.66H1727.99C1726.2 221.66 1724.49 222.37 1723.22 223.634C1721.96 224.898 1721.25 226.612 1721.25 228.4V249.58C1721.25 250.925 1720.84 252.239 1720.08 253.351C1719.33 254.464 1718.25 255.324 1717 255.822C1715.75 256.32 1714.38 256.433 1713.07 256.146C1711.76 255.858 1710.56 255.184 1709.63 254.21C1684.75 228.8 1651.43 213.88 1610.63 213.88C1567.01 213.88 1527.29 231.01 1500.02 257.49C1476.66 280.86 1453.29 319.8 1453.29 382.9C1453.29 448.33 1478.22 488.83 1500.02 510.64C1524.96 535.52 1563.14 554.22 1610.64 554.22ZM1543.64 294.07C1559.22 278.48 1582.64 263.68 1616.87 263.68C1645.68 263.68 1672.16 274.59 1690.08 292.5C1710.33 311.98 1724.35 345.5 1724.35 383.63C1724.35 421.76 1709.55 456.08 1687.74 477.11C1669.83 495.02 1646.46 504.37 1616.87 504.37C1587.28 504.37 1565.46 494.24 1547.55 477.88C1516.38 449.06 1510.93 410.88 1510.93 382.88C1510.94 356.4 1516.39 322.1 1543.65 294.07H1543.64Z" fill="#00B412"/>
<path d="M2006.68 554.22C2047.97 554.22 2084.57 540.98 2114.18 514.5C2128.7 501.35 2141.38 484.5 2150.59 468.38C2151.04 467.6 2151.33 466.738 2151.44 465.845C2151.56 464.951 2151.49 464.044 2151.25 463.177C2151.01 462.309 2150.6 461.498 2150.04 460.791C2149.48 460.085 2148.79 459.496 2148 459.06L2113.35 440.06C2112.57 439.626 2111.71 439.351 2110.83 439.254C2109.94 439.156 2109.04 439.237 2108.19 439.491C2107.33 439.746 2106.54 440.169 2105.85 440.735C2105.16 441.302 2104.59 442 2104.18 442.79C2096.54 457.37 2086.19 470.356 2073.68 481.05C2054.98 496.63 2033.95 504.42 2007.47 504.42C1953.47 504.42 1908.81 464.66 1904.91 401.85C1904.84 400.924 1904.97 399.994 1905.28 399.119C1905.59 398.243 1906.07 397.441 1906.71 396.76C1907.34 396.08 1908.1 395.536 1908.95 395.163C1909.8 394.79 1910.72 394.595 1911.65 394.59H2149.65C2151.42 394.598 2153.12 393.909 2154.38 392.671C2155.65 391.434 2156.37 389.748 2156.4 387.98C2156.61 346.72 2145.11 300.43 2125.89 273.08C2106.42 245.08 2066.69 213.88 2003.6 213.88C1906.23 213.88 1847.04 288.66 1847.04 385.24C1847.01 505.15 1928.79 554.22 2006.68 554.22ZM1910.36 339.4C1921.73 295.4 1958.85 263.68 2003.57 263.68C2048.29 263.68 2084.91 293.48 2096.74 339.37C2096.99 340.369 2097.01 341.412 2096.8 342.42C2096.59 343.428 2096.15 344.375 2095.52 345.188C2094.89 346.001 2094.08 346.659 2093.15 347.111C2092.23 347.564 2091.21 347.799 2090.18 347.8H1916.93C1915.9 347.8 1914.89 347.566 1913.96 347.115C1913.04 346.665 1912.23 346.01 1911.6 345.201C1910.96 344.391 1910.52 343.448 1910.31 342.443C1910.09 341.438 1910.11 340.397 1910.36 339.4Z" fill="#00B412"/>
<path d="M2231.14 544.87H2275.32C2276.91 544.87 2278.44 544.238 2279.56 543.113C2280.69 541.987 2281.32 540.461 2281.32 538.87V375.85C2281.32 352.48 2282.88 314.31 2304.68 288.61C2321.05 269.14 2342.08 263.69 2361.54 263.69C2386.47 263.69 2403.61 273.03 2414.54 287.05C2427.79 304.19 2429.34 326.78 2429.34 346.25V538.92C2429.34 540.511 2429.97 542.037 2431.1 543.163C2432.22 544.288 2433.75 544.92 2435.34 544.92H2479.53C2480.32 544.92 2481.09 544.764 2481.82 544.462C2482.54 544.16 2483.2 543.717 2483.75 543.159C2484.31 542.601 2484.74 541.939 2485.04 541.212C2485.33 540.484 2485.48 539.705 2485.47 538.92V344.69C2485.47 308.86 2483.14 282.38 2466.78 258.23C2447.3 229.41 2412.25 213.83 2374.09 213.83C2332.81 213.83 2306.24 232.67 2291.54 247.41C2290.71 248.246 2289.65 248.816 2288.5 249.047C2287.35 249.279 2286.15 249.163 2285.06 248.712C2283.97 248.262 2283.05 247.498 2282.39 246.518C2281.74 245.539 2281.4 244.387 2281.4 243.21V227.57C2281.39 225.987 2280.75 224.474 2279.63 223.36C2278.5 222.245 2276.98 221.62 2275.4 221.62H2231.14C2229.57 221.633 2228.06 222.264 2226.95 223.377C2225.84 224.49 2225.2 225.996 2225.19 227.57V538.92C2225.2 540.494 2225.84 542 2226.95 543.113C2228.06 544.226 2229.57 544.857 2231.14 544.87Z" fill="#00B412"/>
<path d="M6.74001 423.74H49.34C53.06 423.74 61.17 420.74 61.17 417V104.73C61.17 99.0299 63.24 95.73 66.82 100.13L267.27 329.94C267.9 330.862 268.745 331.616 269.732 332.137C270.719 332.659 271.819 332.931 272.935 332.931C274.051 332.931 275.151 332.659 276.138 332.137C277.125 331.616 277.97 330.862 278.6 329.94L479.02 98.3999C482.6 93.9699 484.67 95.9 484.67 101.6V417C484.67 420.72 492.78 423.74 496.5 423.74H539.14C540.025 423.74 540.902 423.566 541.719 423.227C542.537 422.888 543.28 422.392 543.906 421.766C544.532 421.14 545.028 420.397 545.367 419.579C545.706 418.761 545.88 417.885 545.88 417V6.81995C545.88 5.03147 545.17 3.31609 543.906 2.05051C542.643 0.784923 540.928 0.0725959 539.14 0.0699463H496.54C494.11 0.0699463 488.76 1.20996 487.22 3.46996L278.6 242.76C277.97 243.682 277.125 244.436 276.138 244.957C275.151 245.479 274.051 245.751 272.935 245.751C271.819 245.751 270.719 245.479 269.732 244.957C268.745 244.436 267.9 243.682 267.27 242.76L57.47 3.46996C56.11 1.46996 51.66 0.0699463 49.34 0.0699463H6.74001C5.85406 0.0699453 4.9768 0.244612 4.15841 0.583954C3.34002 0.923296 2.59657 1.42065 1.97057 2.04758C1.34458 2.6745 0.848313 3.41871 0.510185 4.23759C0.172057 5.05648 -0.00130705 5.934 7.41913e-06 6.81995V417C7.41913e-06 417.885 0.174337 418.761 0.513054 419.579C0.85177 420.397 1.34825 421.14 1.97411 421.766C2.59998 422.392 3.34298 422.888 4.16071 423.227C4.97845 423.566 5.8549 423.74 6.74001 423.74Z" fill="#00B412"/>
<path d="M1043.05 544.87H1085.66C1087.45 544.87 1089.16 544.16 1090.43 542.896C1091.69 541.632 1092.4 539.918 1092.4 538.13V228.4C1092.4 226.612 1091.69 224.898 1090.43 223.634C1089.16 222.37 1087.45 221.66 1085.66 221.66H1043.05C1041.26 221.663 1039.55 222.374 1038.29 223.638C1037.03 224.901 1036.32 226.614 1036.32 228.4V538.13C1036.32 539.015 1036.49 539.891 1036.83 540.709C1037.17 541.526 1037.66 542.269 1038.29 542.895C1038.91 543.521 1039.66 544.018 1040.47 544.357C1041.29 544.696 1042.17 544.87 1043.05 544.87V544.87Z" fill="#00B412"/>
<path d="M1085.66 100.96H1043.06C1039.34 100.96 1036.32 103.978 1036.32 107.7V152.6C1036.32 156.322 1039.34 159.34 1043.06 159.34H1085.66C1089.38 159.34 1092.4 156.322 1092.4 152.6V107.7C1092.4 103.978 1089.38 100.96 1085.66 100.96Z" fill="#00B412"/>
<path d="M1363.68 100.96H1321.08C1317.36 100.96 1314.34 103.978 1314.34 107.7V152.6C1314.34 156.322 1317.36 159.34 1321.08 159.34H1363.68C1367.4 159.34 1370.42 156.322 1370.42 152.6V107.7C1370.42 103.978 1367.4 100.96 1363.68 100.96Z" fill="#00B412"/>
<path d="M1363.39 220.01H1321.39C1319.61 220.01 1317.89 220.719 1316.63 221.981C1315.37 223.243 1314.66 224.955 1314.66 226.74V538.4C1314.66 539.285 1314.83 540.161 1315.17 540.979C1315.51 541.796 1316 542.539 1316.63 543.165C1317.25 543.791 1318 544.288 1318.81 544.627C1319.63 544.966 1320.51 545.14 1321.39 545.14H1363.39C1364.28 545.141 1365.15 544.968 1365.97 544.63C1366.79 544.292 1367.54 543.795 1368.16 543.169C1368.79 542.543 1369.29 541.8 1369.63 540.982C1369.97 540.163 1370.14 539.286 1370.14 538.4V226.74C1370.14 225.855 1369.97 224.978 1369.63 224.16C1369.29 223.342 1368.79 222.599 1368.16 221.974C1367.53 221.349 1366.79 220.854 1365.97 220.517C1365.15 220.18 1364.28 220.007 1363.39 220.01V220.01Z" fill="#00B412"/>
<path d="M537.139 484.71H493.299C491.066 484.71 488.924 485.597 487.345 487.176C485.766 488.755 484.879 490.897 484.879 493.13V536.97C484.882 539.201 485.77 541.34 487.349 542.917C488.927 544.494 491.067 545.38 493.299 545.38H537.139C539.372 545.38 541.514 544.493 543.093 542.914C544.672 541.335 545.559 539.193 545.559 536.96V493.14C545.559 490.906 544.672 488.763 543.093 487.183C541.515 485.602 539.373 484.713 537.139 484.71Z" fill="#00B412"/>
<path d="M294.449 484.71H250.619C245.969 484.71 242.199 488.48 242.199 493.13V536.96C242.199 541.61 245.969 545.38 250.619 545.38H294.449C299.099 545.38 302.869 541.61 302.869 536.96V493.13C302.869 488.48 299.099 484.71 294.449 484.71Z" fill="#00B412"/>
<path d="M52.4822 484.71H8.66219C6.42906 484.71 4.2874 485.597 2.70834 487.176C1.12929 488.755 0.242188 490.897 0.242188 493.13V536.97C0.244838 539.201 1.1331 541.34 2.71187 542.917C4.29064 544.494 6.43079 545.38 8.66219 545.38H52.4822C53.5887 545.381 54.6847 545.164 55.7074 544.742C56.7302 544.319 57.6596 543.699 58.4425 542.917C59.2254 542.135 59.8465 541.207 60.2703 540.184C60.6941 539.162 60.9122 538.067 60.9122 536.96V493.14C60.9122 492.033 60.6941 490.937 60.2705 489.914C59.8468 488.891 59.2259 487.962 58.4431 487.179C57.6603 486.396 56.731 485.775 55.7082 485.352C54.6854 484.928 53.5892 484.71 52.4822 484.71V484.71Z" fill="#00B412"/>
<path d="M55.6808 791.72C43.6008 791.72 31.5308 798.21 21.6808 806.93L22.1308 787.25V743.88H3.80078V903.07H18.5608L20.1308 891.89H20.8008C30.4108 900.61 41.8008 905.76 51.8808 905.76C76.6908 905.76 98.8308 884.07 98.8308 846.95C98.8308 813.4 83.8508 791.72 55.6808 791.72ZM48.7508 890.33C41.5908 890.33 31.7508 887.2 22.1408 878.92V821.92C32.4208 812.3 42.0408 807.16 51.2108 807.16C71.7808 807.16 79.8308 823.26 79.8308 847.16C79.8308 874 66.6308 890.33 48.7508 890.33V890.33Z" fill="#00B412"/>
<path d="M172.632 854.55C169.722 864.17 166.632 875.35 163.462 885.19H162.562C159.212 875.12 155.412 863.94 152.062 854.55L129.922 794.4H110.922L154.522 903.29L152.072 911.29C147.592 924.71 139.772 934.55 127.472 934.55C124.657 934.399 121.876 933.871 119.202 932.98L115.622 947.52C119.7 949.023 124.016 949.779 128.362 949.75C150.282 949.75 161.462 933.43 169.062 911.97L209.962 794.4H192.082L172.632 854.55Z" fill="#00B412"/>
</svg>
