<svg width="416" height="84" viewBox="0 0 416 84" fill="none" xmlns="http://www.w3.org/2000/svg">
<g clip-path="url(#clip0)">
<path d="M213.501 54.3L202.301 47.7L201.501 49C199.001 53 195.501 55 191.201 55C183.801 55 178.301 49.4 178.301 42.1C178.301 34.7 183.901 29.2 191.201 29.2C195.601 29.2 198.801 31.1 201.501 35.2L202.301 36.5L213.501 29.9L212.501 28.5C207.101 20.7 200.201 17 191.101 17C174.001 17 164.801 30 164.801 42.2C164.801 54.4 174.001 67.4 191.101 67.4C199.801 67.4 208.001 63 212.501 55.8L213.501 54.3V54.3Z" fill="url(#paint0_linear)"/>
<path d="M212.9 67.2H228.3L232.9 55.8H256L260.6 67.2H276.1L248.5 0.5H234.7L238.4 9.4L212.9 67.2V67.2ZM244.6 26.8L250.8 42.5H238.2L244.6 26.8V26.8ZM282.5 67.3H296V37.3H304.8V24.7H296V18.8C296 16.2 297.7 13.5 300.9 13.5C302.6 13.5 303.7 13.8 304.7 14.2L306.2 14.8L311.8 2.5L310.3 2C307.8 1 304.3 0.6 301.8 0.6C295.7 0.6 290.6 2.6 287.2 6.4C284.2 9.7 282.5 14.3 282.5 19.4V24.8H276.5V37.4H282.5V67.3V67.3ZM101.1 0.1V67.1L115.8 67.2V28.8L130.1 39.4L144.3 28.8V67.2H159V0.1L130.1 21.9L101.1 0.1ZM335.3 17C318.3 17 309.1 29.9 309.1 42.1C309.1 54.3 318.3 67.2 335.3 67.2C343.1 67.1 350.4 63.6 356.1 57.1L345.1 51.1C342.3 54 338.8 55.5 335 55.5C329.4 55.5 324.5 51.8 323.2 46.9H360V43.6C360.1 25.3 345.6 17.1 335.3 17ZM323.5 36C325.3 31.4 329.1 28.8 334 28.8C339 28.8 342.9 31.4 344.9 36.1L323.5 36ZM390.6 17.1C373.6 17.1 364.4 30 364.4 42.2C364.4 54.4 373.6 67.3 390.6 67.3C398.4 67.2 405.7 63.7 411.4 57.2L400.4 51.2C397.6 54.1 394.1 55.6 390.3 55.6C384.7 55.6 379.8 51.9 378.5 47H415.3V43.7C415.4 25.4 400.9 17.1 390.6 17.1V17.1ZM378.8 36C380.6 31.4 384.4 28.7 389.3 28.8C394.3 28.8 398.2 31.4 400.2 36.1L378.8 36ZM36.3 16.8L0 0V66.8L36.3 83.6L72.6 66.8V0L36.3 16.8ZM57.8 57.3L36.4 67.2L15 57.3V23.3L36.4 33.2L57.8 23.3V57.3Z" fill="url(#paint1_linear)"/>
</g>
<defs>
<linearGradient id="paint0_linear" x1="165" y1="24.5" x2="206.5" y2="67" gradientUnits="userSpaceOnUse">
<stop stop-color="#AC0101"/>
<stop offset="1" stop-color="#463030"/>
</linearGradient>
<linearGradient id="paint1_linear" x1="8.99999" y1="-9.99995" x2="434" y2="63.5001" gradientUnits="userSpaceOnUse">
<stop stop-color="#AC0000"/>
<stop offset="1" stop-color="#3F3333"/>
</linearGradient>
<clipPath id="clip0">
<rect width="415.3" height="83.6" fill="white"/>
</clipPath>
</defs>
</svg>
