<svg width="458" height="91" viewBox="0 0 458 91" fill="none" xmlns="http://www.w3.org/2000/svg">
<rect y="67.0391" width="75" height="25" rx="12.5" transform="rotate(-54.4738 0 67.0391)" fill="#FB275D"/>
<rect x="44" y="67.0391" width="75" height="25" rx="12.5" transform="rotate(-54.4738 44 67.0391)" fill="#FFCC00"/>
<circle cx="107.5" cy="62.5" r="12.5" fill="#00CA72"/>
<path d="M145.72 75C145.133 75 144.653 74.8133 144.28 74.44C143.907 74.0667 143.72 73.5867 143.72 73V35.4C143.72 34.8133 143.907 34.3333 144.28 33.96C144.653 33.5867 145.133 33.4 145.72 33.4H154.44C155.027 33.4 155.507 33.5867 155.88 33.96C156.253 34.3333 156.44 34.8133 156.44 35.4V38.12C157.667 36.52 159.293 35.2133 161.32 34.2C163.4 33.1333 165.72 32.6 168.28 32.6C174.147 32.6 178.2 34.8933 180.44 39.48C181.72 37.4533 183.507 35.8 185.8 34.52C188.093 33.24 190.547 32.6 193.16 32.6C197.533 32.6 201.08 34.0933 203.8 37.08C206.573 40.0133 207.96 44.4133 207.96 50.28V73C207.96 73.5333 207.773 74.0133 207.4 74.44C207.027 74.8133 206.547 75 205.96 75H196.68C196.093 75 195.587 74.8133 195.16 74.44C194.787 74.0667 194.6 73.5867 194.6 73V50.84C194.6 48.1733 194.04 46.2533 192.92 45.08C191.853 43.9067 190.387 43.32 188.52 43.32C186.813 43.32 185.4 43.9333 184.28 45.16C183.16 46.3333 182.6 48.2267 182.6 50.84V73C182.6 73.5333 182.413 74.0133 182.04 74.44C181.667 74.8133 181.187 75 180.6 75H171.32C170.733 75 170.253 74.8133 169.88 74.44C169.507 74.0667 169.32 73.5867 169.32 73V50.84C169.32 48.2267 168.733 46.3333 167.56 45.16C166.44 43.9333 165 43.32 163.24 43.32C161.533 43.32 160.093 43.9333 158.92 45.16C157.8 46.3333 157.24 48.2 157.24 50.76V73C157.24 73.5333 157.053 74.0133 156.68 74.44C156.307 74.8133 155.827 75 155.24 75H145.72ZM236.681 75.8C230.068 75.8 224.975 74.2267 221.401 71.08C217.828 67.9333 215.881 63.5067 215.561 57.8C215.508 57.1067 215.481 55.9067 215.481 54.2C215.481 52.4933 215.508 51.2933 215.561 50.6C215.881 44.9467 217.881 40.5467 221.561 37.4C225.241 34.2 230.281 32.6 236.681 32.6C243.135 32.6 248.201 34.2 251.881 37.4C255.561 40.5467 257.561 44.9467 257.881 50.6C257.935 51.2933 257.961 52.4933 257.961 54.2C257.961 55.9067 257.935 57.1067 257.881 57.8C257.561 63.5067 255.615 67.9333 252.041 71.08C248.468 74.2267 243.348 75.8 236.681 75.8ZM236.681 66.04C239.028 66.04 240.761 65.3467 241.881 63.96C243.001 62.52 243.641 60.3333 243.801 57.4C243.855 56.8667 243.881 55.8 243.881 54.2C243.881 52.6 243.855 51.5333 243.801 51C243.641 48.12 242.975 45.96 241.801 44.52C240.681 43.08 238.975 42.36 236.681 42.36C232.255 42.36 229.908 45.24 229.641 51L229.561 54.2L229.641 57.4C229.748 60.3333 230.361 62.52 231.481 63.96C232.655 65.3467 234.388 66.04 236.681 66.04ZM267.908 75C267.321 75 266.841 74.8133 266.467 74.44C266.094 74.0667 265.908 73.5867 265.908 73V35.4C265.908 34.8133 266.094 34.3333 266.467 33.96C266.841 33.5867 267.321 33.4 267.908 33.4H277.108C277.694 33.4 278.174 33.5867 278.548 33.96C278.974 34.3333 279.188 34.8133 279.188 35.4V38.44C280.628 36.68 282.468 35.2667 284.707 34.2C287.001 33.1333 289.588 32.6 292.468 32.6C297.161 32.6 300.974 34.2 303.908 37.4C306.841 40.5467 308.308 44.9733 308.308 50.68V73C308.308 73.5333 308.121 74.0133 307.748 74.44C307.374 74.8133 306.894 75 306.308 75H296.228C295.694 75 295.214 74.8133 294.788 74.44C294.414 74.0133 294.228 73.5333 294.228 73V51.16C294.228 48.6533 293.614 46.7333 292.388 45.4C291.161 44.0133 289.401 43.32 287.108 43.32C284.868 43.32 283.108 44.0133 281.828 45.4C280.548 46.7333 279.908 48.6533 279.908 51.16V73C279.908 73.5333 279.721 74.0133 279.348 74.44C278.974 74.8133 278.494 75 277.908 75H267.908ZM332.834 75.8C327.607 75.8 323.527 74.1733 320.594 70.92C317.714 67.6133 316.14 62.9733 315.874 57L315.794 54.2L315.874 51.32C316.087 45.56 317.66 41 320.594 37.64C323.58 34.28 327.66 32.6 332.834 32.6C337.687 32.6 341.607 34.1733 344.594 37.32V20.2C344.594 19.6133 344.78 19.1333 345.154 18.76C345.527 18.3867 346.007 18.2 346.594 18.2H356.354C356.94 18.2 357.42 18.3867 357.794 18.76C358.167 19.1333 358.354 19.6133 358.354 20.2V73C358.354 73.5333 358.167 74.0133 357.794 74.44C357.42 74.8133 356.94 75 356.354 75H347.314C346.78 75 346.3 74.8133 345.874 74.44C345.5 74.0133 345.314 73.5333 345.314 73V70.44C342.38 74.0133 338.22 75.8 332.834 75.8ZM337.234 65.08C339.634 65.08 341.42 64.3333 342.594 62.84C343.767 61.2933 344.434 59.32 344.594 56.92C344.647 56.2267 344.674 55.2133 344.674 53.88C344.674 52.6 344.647 51.6133 344.594 50.92C344.487 48.7333 343.82 46.92 342.594 45.48C341.367 44.04 339.58 43.32 337.234 43.32C334.727 43.32 332.914 44.0667 331.794 45.56C330.727 47.0533 330.114 49.1067 329.954 51.72C329.9 52.2533 329.874 53.08 329.874 54.2C329.874 55.32 329.9 56.1467 329.954 56.68C330.114 59.2933 330.727 61.3467 331.794 62.84C332.914 64.3333 334.727 65.08 337.234 65.08ZM380.263 75.8C377.436 75.8 374.849 75.2667 372.503 74.2C370.209 73.08 368.396 71.5867 367.063 69.72C365.783 67.8 365.143 65.6933 365.143 63.4C365.143 59.72 366.636 56.76 369.623 54.52C372.663 52.28 376.823 50.7333 382.103 49.88L392.103 48.36V47.24C392.103 45.2133 391.676 43.72 390.823 42.76C389.969 41.8 388.529 41.32 386.503 41.32C385.276 41.32 384.263 41.5333 383.463 41.96C382.663 42.3867 381.836 42.9733 380.983 43.72C380.236 44.36 379.676 44.7867 379.303 45C379.143 45.4267 378.849 45.64 378.423 45.64H369.703C369.169 45.64 368.716 45.48 368.342 45.16C368.023 44.7867 367.889 44.36 367.943 43.88C367.996 42.44 368.689 40.84 370.023 39.08C371.409 37.32 373.489 35.8 376.263 34.52C379.089 33.24 382.556 32.6 386.663 32.6C393.223 32.6 398.076 34.0667 401.223 37C404.369 39.88 405.943 43.7733 405.943 48.68V73C405.943 73.5333 405.756 74.0133 405.383 74.44C405.009 74.8133 404.529 75 403.943 75H394.663C394.129 75 393.649 74.8133 393.223 74.44C392.849 74.0133 392.663 73.5333 392.663 73V70.2C391.489 71.8533 389.836 73.2133 387.703 74.28C385.623 75.2933 383.143 75.8 380.263 75.8ZM384.023 66.68C386.476 66.68 388.449 65.88 389.943 64.28C391.489 62.68 392.263 60.3333 392.263 57.24V56.12L385.463 57.32C380.663 58.1733 378.263 59.8533 378.263 62.36C378.263 63.6933 378.823 64.76 379.943 65.56C381.063 66.3067 382.423 66.68 384.023 66.68ZM421.402 90.2C420.922 90.2 420.522 90.04 420.202 89.72C419.882 89.4 419.722 89 419.722 88.52C419.722 88.1467 419.802 87.8 419.962 87.48L426.202 72.44L410.842 36.12C410.682 35.6933 410.602 35.3733 410.602 35.16C410.709 34.68 410.922 34.28 411.242 33.96C411.562 33.5867 411.962 33.4 412.442 33.4H421.562C422.682 33.4 423.455 33.96 423.882 35.08L433.002 58.36L442.362 35.08C442.895 33.96 443.695 33.4 444.762 33.4H453.722C454.202 33.4 454.602 33.5867 454.922 33.96C455.295 34.28 455.482 34.6533 455.482 35.08C455.482 35.2933 455.402 35.64 455.242 36.12L432.602 88.52C432.175 89.64 431.375 90.2 430.202 90.2H421.402Z" fill="black"/>
</svg>
