<svg width="627" height="241" viewBox="0 0 627 241" fill="none" xmlns="http://www.w3.org/2000/svg">
<path d="M513.402 164.6C503.602 164.6 495.602 156.6 495.602 146.8C495.602 136.9 503.602 129 513.402 129C523.202 129 531.202 137 531.202 146.8C531.302 156.6 523.302 164.6 513.402 164.6ZM513.402 112C494.202 112 478.602 127.6 478.602 146.8C478.602 166 494.202 181.6 513.402 181.6C532.602 181.6 548.202 166 548.202 146.8C548.202 127.5 532.602 112 513.402 112Z" fill="black"/>
<path d="M353.601 164.6C343.801 164.6 335.801 156.6 335.801 146.8C335.801 136.9 343.801 129 353.601 129C363.401 129 371.401 137 371.401 146.8C371.401 156.6 363.401 164.6 353.601 164.6ZM353.601 112C334.401 112 318.801 127.6 318.801 146.8C318.801 166 334.401 181.6 353.601 181.6C372.801 181.6 388.401 166 388.401 146.8C388.301 127.5 372.801 112 353.601 112Z" fill="black"/>
<path d="M476.402 165.6C474.202 166.2 470.802 166.9 469.602 166.9C463.602 166.9 462.402 164.8 462.402 159.2V127H476.602V113.6H462.402V94.6H446.402L443.002 113.6H431.902H431.002C421.902 113.6 415.002 119.2 410.602 127.9L405.102 113.6H393.602V180.3H413.202V151.3C413.202 136.7 421.902 127.3 432.102 127H442.802V160.2C442.802 175.8 450.802 181.6 463.802 181.6C470.502 181.6 475.702 180.2 478.802 179.2L476.402 165.6Z" fill="black"/>
<path d="M572.002 134.6V180.3H552.902V113.5H564.502L568.402 123.7" fill="black"/>
<path d="M568.301 123.8C574.101 117.1 582.001 112 591.301 112C607.201 112 613.701 124.7 613.701 136.4V180.3H594.101V137C594.101 131.3 589.301 128.2 584.201 128.2C578.701 128.2 575.201 131.4 572.101 134.7" fill="black"/>
<path d="M242.699 89.4H264.599L294.599 146.5V89.4H312.699V180.3H292.899L260.799 117.4V180.3H242.699V89.4Z" fill="black"/>
<path d="M613.699 113.6V114.9H615.499V121.2H616.999V114.9H618.899V113.6H613.699Z" fill="black"/>
<path d="M624.602 113.6L623.302 118.6L621.902 113.6H619.902V121.2H621.202V115.2L622.802 121.2H623.802L625.402 115.2V121.2H626.602V113.6H624.602Z" fill="black"/>
<path d="M104.2 65.2001C85.2 65.2001 67.3 72.6001 53.8 86.1001C40.3 99.6001 32.9 117.5 32.9 136.5C32.9 155.5 40.3 173.4 53.8 186.9C67.3 200.4 85.2 207.8 104.2 207.8C123.2 207.8 141.1 200.4 154.6 186.9C168 173.4 175.4 155.5 175.5 136.5C175.5 117.5 168.1 99.6001 154.6 86.1001C141.1 72.7001 123.2 65.2001 104.2 65.2001ZM104.2 240.7C46.8 240.7 0 193.9 0 136.5C0 79 46.8 32.3 104.2 32.3C161.6 32.3 208.4 79 208.4 136.5C208.4 193.9 161.6 240.7 104.2 240.7Z" fill="#FFC20E"/>
<path d="M225.799 16.2H217.699V24.3H225.799V16.2Z" fill="#FFC20E"/>
<path d="M225.799 0H217.699V8.10001H225.799V0Z" fill="#FFC20E"/>
<path d="M202.502 24.3H194.902V32.2H202.502V24.3Z" fill="white"/>
<path d="M187.501 39.9H179.801V47.5H187.501V39.9Z" fill="black"/>
<path d="M210.902 32.2H202.402V39.8H210.902V32.2Z" fill="black"/>
<path d="M179.799 32.6H172.199V39.9H179.799V32.6Z" fill="black"/>
<path d="M202.502 39.9H194.902V47.5H202.502V39.9Z" fill="black"/>
<path d="M217.699 8.19995H209.699V16.3H217.699V8.19995Z" fill="black"/>
<path d="M209.702 16.2H194.902V24.3H209.702V16.2Z" fill="black"/>
<path d="M194.9 24.3H187.5V39.9H194.9V24.3Z" fill="black"/>
<path d="M187.503 47.5V55.1H179.803V47.5H167.103V53H160.303V59.8H167.903V67.4H160.303V59.8H152.203V71.7H144.603V79.3H139.503V86.9H133.903C127.603 96.2 112.003 125.2 107.203 137C90.1026 113.2 76.8026 103.8 66.4026 100.4C60.8026 98.7 54.0026 104.8 63.3026 114.5C84.8026 138.2 91.6026 157.7 98.1026 173.4C101.603 181.6 117.103 182.9 120.203 174.5C126.803 156.8 136.403 136.8 147.803 120.5V112H153.903V104.4H160.303V95.5H167.903V87H160.203V79.2H167.903V87H175.403V79.3H181.403V70H188.203V63.6H194.703V47.5H187.503V47.5Z" fill="black"/>
</svg>
