<svg width="172" height="41" viewBox="0 0 172 41" fill="none" xmlns="http://www.w3.org/2000/svg">
<path d="M91.865 5.0263V4.2098C91.865 2.9579 91.1571 2.25 89.9052 2.25H62.9596C61.762 2.25 61 2.9579 61 4.2098V5.0263C61 6.2782 61.762 6.9861 62.9596 6.9861H73.5746V38.3951C73.5746 39.6473 74.2822 40.3549 75.5342 40.3549H77.3306C78.5825 40.3549 79.2902 39.6473 79.2902 38.3951V6.9861H89.9052C91.1571 6.9861 91.865 6.2782 91.865 5.0263Z" fill="#7AA942"/>
<path d="M114.946 13.0832H113.313C112.061 13.0832 111.299 13.7907 111.299 15.0427V17.3837C108.74 13.7363 105.202 12.4844 101.555 12.4844C93.4438 12.4844 88.0547 18.8533 88.0547 26.6921C88.0547 34.5309 93.4438 40.9543 101.555 40.9543C105.202 40.9543 108.74 39.7021 111.299 36.055V38.3956C111.299 39.6478 112.061 40.3554 113.313 40.3554H114.946C116.198 40.3554 116.906 39.6478 116.906 38.3956V15.0426C116.906 13.7907 116.198 13.0832 114.946 13.0832ZM102.317 36.0548C96.8191 36.0548 93.6616 31.8089 93.6616 26.6919C93.6616 21.6294 96.8191 17.329 102.317 17.329C107.706 17.329 111.353 21.3027 111.408 26.6919C111.353 32.0811 107.706 36.0548 102.317 36.0548Z" fill="#7AA942"/>
<path d="M134.867 24.95L130.948 23.6436C129.369 23.1537 127.79 22.2285 127.79 20.4864C127.79 18.5811 129.315 17.1115 131.71 17.1115C132.907 17.1115 134.105 17.4382 135.03 18.5266C135.793 19.5066 136.446 19.9965 137.589 19.6698L138.623 19.4521C139.93 19.1799 140.583 18.2002 139.875 16.948C138.079 13.6276 134.867 12.4844 131.546 12.4844C126.103 12.4844 122.402 15.9683 122.402 20.6499C122.402 24.5146 125.014 26.8553 129.206 28.1075L132.853 29.3594C134.758 30.0128 136.228 30.938 136.228 32.6801C136.228 34.7486 134.268 36.2727 131.655 36.2727C129.532 36.2727 127.682 35.4017 126.593 34.0411C125.885 33.1156 125.232 32.6257 124.143 32.8979L123 33.2246C121.694 33.551 121.041 34.422 121.694 35.6739C123.545 39.1578 127.41 40.9544 131.601 40.9544C136.936 40.9544 141.508 37.9604 141.508 32.7344C141.508 29.7947 140.093 26.5831 134.867 24.95Z" fill="#7AA942"/>
<path d="M171.285 37.8527L170.414 36.1109C170.033 35.4575 169.598 35.3489 168.835 35.621C167.856 36.0564 166.821 36.1109 166.386 36.1109C163.991 36.1109 163.229 34.75 161.65 32.518L157.132 25.6048L165.515 15.4799C166.604 14.1735 166.114 13.0848 164.372 13.0848H162.303C161.269 13.0848 160.507 13.4115 159.908 14.2277L151.58 24.5161V2.9598C151.58 1.7076 150.872 1 149.62 1H147.987C146.735 1 145.973 1.7075 145.973 2.9598V38.3971C145.973 39.6493 146.735 40.3569 147.987 40.3569H149.62C150.872 40.3569 151.58 39.6493 151.58 38.3971V26.4214L156.914 35.0767C158.602 37.5263 160.453 40.9557 165.678 40.9557C166.223 40.9557 168.073 40.9557 169.924 40.0847C171.285 39.4313 171.557 38.5061 171.285 37.8527Z" fill="#7AA942"/>
<path d="M39.1108 4.04724C39.1108 4.04724 38.6131 2.31284 36.3538 1.67294C34.9081 1.26364 32.501 1.58254 29.8371 2.16174C29.8344 2.16264 29.7846 2.18054 29.6965 2.22054C29.1546 2.55344 28.6377 2.92494 28.158 3.34254C27.1275 4.23964 26.1814 5.32534 25.5736 6.55684C24.9056 7.91014 25.219 9.03024 25.8953 10.3171C26.6628 11.7775 27.4243 13.2404 28.1497 14.7223C28.7291 15.9059 29.3006 17.0933 29.8685 18.2825C30.1447 17.7139 30.4208 17.1453 30.6969 16.5767C31.1408 15.5796 31.5924 14.5864 32.0698 13.6057C32.3566 13.0169 32.6193 12.5195 32.8769 12.088L32.8898 12.0617C33.0211 11.8474 33.1513 11.6408 33.2819 11.459C34.0678 10.2564 35.2464 9.35924 36.6923 9.16684C37.1809 9.10184 37.679 9.11434 38.1652 9.19294C38.6971 9.27884 39.0424 9.44834 39.1173 9.94624C39.116 7.84094 39.114 5.84224 39.1108 4.04724Z" fill="url(#paint0_linear)"/>
<path d="M48.5092 12.617C48.508 11.4867 48.5067 10.3564 48.505 9.22607C48.5048 9.08677 48.5046 8.59747 48.5044 7.95987C48.4738 6.26507 48.1839 4.78257 47.4828 3.57647C46.7721 2.35427 45.6419 1.41347 43.9317 0.821474C41.2441 -0.108626 38.1783 -0.165329 35.3845 0.237471C33.4305 0.519371 31.4667 1.14667 29.7622 2.17887C31.0473 1.89767 32.4924 1.68477 33.8947 1.75297C34.8904 1.82097 38.831 2.32647 39.1188 6.06957C39.1193 6.63157 39.1208 8.60407 39.1206 9.97247C39.1286 10.0331 39.1347 10.0961 39.1347 10.167C39.1347 10.1694 39.1347 15.4201 39.1347 15.4201C39.1349 16.5002 39.1349 17.5808 39.1352 18.6604V20.1713C39.1355 23.4441 39.1358 26.7171 39.1363 29.9901C39.137 30.2832 39.1378 30.5731 39.1386 30.8565C39.1386 30.8717 39.1365 30.8834 39.1363 30.8983C39.1265 31.7207 38.7813 31.9729 37.9746 31.9808C35.8726 32.0017 34.332 31.2195 33.4158 29.2424C31.9775 26.1388 30.5345 23.0369 29.0605 19.9501C28.4821 18.7389 27.8999 17.5296 27.3099 16.3242C26.3872 14.4392 25.4145 12.5793 24.421 10.7308C24.2459 10.4051 24.0712 10.0737 23.8953 9.74097C22.9392 7.93157 21.9262 6.06967 20.3527 4.70017C18.3509 2.95787 15.7305 1.96967 13.1276 1.59437C10.3337 1.19147 7.268 1.24827 4.5804 2.17837C4.3911 2.24377 4.2121 2.31537 4.0369 2.38927C1.0334 3.65547 0.0440994 6.14497 0.00519943 9.41707C0.00439943 10.0315 0.00349999 10.6459 0.00279999 11.2602C0.00169999 12.3258 0.0008 13.3913 0 14.4569C0.0008 14.9796 0.00199986 15.5024 0.00199986 16.0252C0.00179986 16.2875 0.00220013 16.5498 0.00220013 16.8121H0.00239944C0.00259944 18.6229 0.00269985 20.7216 0.00269985 21.2073H0.00290012C0.00290012 24.2926 0.00289998 27.3777 0.00489998 30.463C0.0109 31.1609 0.0173001 31.8591 0.00990009 32.5561C0.000800093 33.4345 0.0337001 34.3085 0.1925 35.1442C0.3169 35.7992 0.5168 36.4312 0.8467 37.0196C1.0382 37.3615 1.2698 37.6897 1.555 37.9994C1.5627 38.0074 1.5703 38.0154 1.578 38.0233C1.6164 38.0646 1.6571 38.1047 1.6974 38.1452C1.767 38.2134 1.8382 38.2811 1.9135 38.3482C2.0164 38.4402 2.1252 38.5307 2.2389 38.6201C2.2474 38.6266 2.2553 38.6335 2.2639 38.64C4.0646 40.0418 7.2392 41.0962 12.8132 40.7903C13.2423 40.7668 13.6646 40.7306 14.0809 40.6839C13.9291 40.6748 13.7837 40.6599 13.6411 40.6422C13.5995 40.6371 13.5591 40.6309 13.5181 40.625C13.4143 40.6102 13.313 40.5933 13.2141 40.5743C13.1761 40.5669 13.1378 40.5599 13.1005 40.5519C12.9764 40.5254 12.8554 40.4965 12.7392 40.4638C12.7346 40.4625 12.7295 40.4615 12.7249 40.4601C12.5976 40.424 12.476 40.3838 12.358 40.3409C12.3393 40.3342 12.3215 40.3268 12.3033 40.32C12.2033 40.2823 12.1068 40.2426 12.0133 40.2006C11.9957 40.1926 11.978 40.1848 11.9607 40.1768C11.6288 40.0232 11.3382 39.844 11.084 39.6498C11.0837 39.6495 11.0832 39.6492 11.0827 39.6489C11.0824 39.6487 11.0821 39.6484 11.0818 39.6481C9.8464 38.7033 9.4739 36.9563 9.3763 35.679V35.6785C9.3763 35.5882 9.3758 35.4981 9.3758 35.4076C9.3761 33.857 9.3761 32.3069 9.3763 30.7565C9.376 30.74 9.3738 30.7267 9.3738 30.7096C9.3747 30.3888 9.3755 30.0594 9.3765 29.7262C9.3767 27.3968 9.377 25.0673 9.3771 22.7379V21.227L9.3773 21.2277C9.3773 21.1133 9.3773 20.9989 9.3773 20.8846H9.3774C9.3775 20.3598 9.3775 18.3884 9.3775 16.8119H9.3777C9.3777 16.8002 9.3777 16.7884 9.3777 16.7768C9.3777 16.7768 9.3777 11.526 9.3777 11.5236C9.3777 11.451 9.3839 11.3862 9.3923 11.3241C9.4611 10.8115 9.8073 10.6374 10.3458 10.5504C10.832 10.4719 11.3301 10.4593 11.8187 10.5243C13.2646 10.7167 14.4433 11.6139 15.2292 12.8165C15.3597 12.9983 15.4899 13.2049 15.6212 13.4193L15.634 13.4456C15.8916 13.877 16.1543 14.3745 16.4411 14.9632C16.9186 15.9439 17.3701 16.9372 17.814 17.9342C18.1429 18.6113 18.4718 19.2886 18.8007 19.9657C19.6647 21.7446 20.5286 23.5235 21.3926 25.3024C22.2373 27.0419 23.0821 28.7813 23.9269 30.5208C24.804 32.3268 25.6812 34.1328 26.5582 35.9389C28.3604 39.6493 31.7988 40.723 35.6992 40.937C41.2731 41.2429 44.4478 40.1885 46.2485 38.7866C46.2572 38.7801 46.265 38.7732 46.2735 38.7667C46.3871 38.6774 46.4961 38.5868 46.599 38.4949C46.6741 38.4278 46.7455 38.36 46.815 38.2918C46.8553 38.2513 46.896 38.2112 46.9345 38.17C46.9421 38.162 46.9498 38.1541 46.9574 38.1461C47.9404 37.0785 48.3137 35.7993 48.4425 34.4527C48.4838 34.0213 48.5002 33.583 48.503 33.1424C48.5032 33.0666 48.5032 32.9908 48.5033 32.9149C48.503 32.8442 48.5031 32.7735 48.5024 32.7027C48.4964 32.1386 48.5001 31.5736 48.505 31.0088C48.5059 30.0708 48.507 29.1328 48.5075 28.1948C48.5106 23.686 48.511 19.1771 48.5104 14.6682C48.5104 14.5185 48.5109 14.3687 48.511 14.219C48.5102 13.6851 48.5097 13.1511 48.5092 12.617Z" fill="#80AF45"/>
<path d="M22.4623 31.6525C22.2797 31.27 22.097 30.8875 21.9144 30.5051C21.4486 29.5298 20.9829 28.5545 20.5172 27.5791C19.8151 26.1087 19.1129 24.6384 18.4108 23.168C18.4108 23.168 18.3179 23.3297 18.2846 23.3876C18.2837 23.3855 18.2803 23.3783 18.2803 23.3783C18.0548 23.7763 17.8293 24.1742 17.6035 24.5726C17.1835 25.3139 16.7635 26.0551 16.3435 26.7964C14.9463 29.2623 13.2966 32.5322 9.9639 31.6242C9.5593 31.4817 9.4299 31.1949 9.4288 31.1927C9.3956 31.0701 9.3778 30.9263 9.3755 30.7569C9.3753 32.3072 9.3753 33.8575 9.375 35.4079C9.375 35.4985 9.3753 35.5888 9.3755 35.6793C9.4732 36.9567 9.8457 38.7037 11.0833 39.6502C11.3374 39.8443 11.6285 40.0234 11.96 40.1772C11.9773 40.1852 11.995 40.1931 12.0126 40.201C12.1059 40.243 12.2027 40.2827 12.3026 40.3204C12.3209 40.3273 12.3387 40.3346 12.3573 40.3413C12.4751 40.3842 12.597 40.4243 12.7242 40.4605C12.7288 40.4618 12.7337 40.4629 12.7385 40.4641C12.8546 40.4969 12.9757 40.5258 13.0998 40.5522C13.1371 40.5601 13.1754 40.5672 13.2134 40.5746C13.3122 40.5937 13.4138 40.6104 13.5174 40.6253C13.5584 40.6311 13.5988 40.6374 13.6404 40.6425C13.7827 40.6601 13.9283 40.675 14.0802 40.6842C16.2588 40.4398 18.2393 39.8423 19.8045 38.5649C19.8301 38.5424 19.8524 38.5197 19.8775 38.4971C20.2777 38.1603 20.6506 37.7785 20.9903 37.343C21.2325 37.051 21.4653 36.7462 21.6875 36.4332C21.7095 36.4023 21.7266 36.3741 21.748 36.3435C21.7769 36.3011 21.8057 36.2588 21.834 36.2158C21.9782 36.0021 22.098 35.8038 22.2092 35.615C22.209 35.6149 22.2131 35.6056 22.2189 35.5923C22.564 34.9842 22.7752 34.324 22.8822 33.6346C22.8965 33.5428 22.9056 33.4538 22.9102 33.3668C22.9424 32.7483 22.7406 32.235 22.4623 31.6525Z" fill="url(#paint1_linear)"/>
<defs>
<linearGradient id="paint0_linear" x1="25.2031" y1="9.88534" x2="39.1173" y2="9.88534" gradientUnits="userSpaceOnUse">
<stop offset="0.005" stop-color="#7AA941"/>
<stop offset="1" stop-color="#487D3A"/>
</linearGradient>
<linearGradient id="paint1_linear" x1="9.375" y1="31.9261" x2="22.9136" y2="31.9261" gradientUnits="userSpaceOnUse">
<stop stop-color="#487D3A"/>
<stop offset="0.995" stop-color="#7AA941"/>
</linearGradient>
</defs>
</svg>
