<svg width="2500" height="550" viewBox="0 0 2500 550" fill="none" xmlns="http://www.w3.org/2000/svg">
<g clip-path="url(#clip0)">
<path d="M937.181 271.197C937.181 306.302 930.791 337.081 918.003 363.504C905.178 389.931 886.796 410.293 862.803 424.542C838.818 438.786 811.198 445.941 779.925 445.941C749.715 445.941 722.87 439.004 699.339 425.138C675.791 411.268 657.613 391.582 644.74 366.031C631.858 340.529 625.41 311.606 625.41 279.256C625.41 244.445 631.929 213.808 644.967 187.278C657.969 160.78 676.694 140.431 701.057 126.249C725.424 112.063 753.636 104.97 785.661 104.97C814.941 104.97 841.203 111.952 864.431 125.893C887.633 139.834 905.574 159.471 918.216 184.746C930.862 210.026 937.181 238.851 937.181 271.197V271.197ZM896.724 276.256C896.724 233.329 886.68 199.836 866.612 175.78C846.499 151.733 818.536 139.692 782.688 139.692C760.155 139.692 739.944 145.41 722.096 156.819C704.247 168.238 690.404 184.439 680.583 205.456C670.785 226.481 665.872 249.909 665.872 275.803C665.872 302.163 670.589 325.672 680.027 346.287C689.456 366.903 702.886 382.838 720.36 394.114C737.852 405.363 757.694 411.028 779.921 411.028C816.396 411.028 844.99 399.062 865.686 375.149C886.382 351.218 896.724 318.245 896.724 276.256ZM1102.95 124.745C1095.58 120.585 1087.24 118.533 1077.87 118.533C1051.51 118.533 1038.33 135.175 1038.33 168.451V204.762H1093.51V236.702H1038.33V440.187H1000.62V236.698H960.614V204.757H1000.62V166.596C1000.62 142.656 1007.67 123.348 1021.76 108.655C1035.87 93.9258 1053.82 86.5703 1075.59 86.5703C1087.08 86.5703 1096.18 87.9542 1102.95 90.7309V124.754L1102.95 124.745V124.745Z" fill="#E25B00"/>
<path d="M1232.9 124.746C1225.54 120.585 1217.19 118.534 1207.83 118.534C1181.47 118.534 1168.29 135.176 1168.29 168.452V204.762H1223.47V236.703H1168.29V440.188H1130.56V236.698H1090.56V204.758H1130.56V166.596C1130.56 142.656 1137.62 123.349 1151.72 108.655C1165.83 93.9264 1183.77 86.5709 1205.53 86.5709C1217.04 86.5709 1226.14 87.9548 1232.89 90.7315L1232.9 124.746V124.746ZM1302.43 120.376C1302.43 127.433 1299.98 133.294 1295.07 137.948C1290.16 142.634 1284.35 144.952 1277.6 144.952C1270.71 144.952 1264.86 142.719 1260.12 138.184C1255.38 133.663 1253 127.709 1253 120.367C1253 113.773 1255.31 108.063 1260 103.244C1264.69 98.394 1270.54 96 1277.59 96C1284.62 96 1290.53 98.3451 1295.29 103.124C1300.05 107.863 1302.43 113.608 1302.43 120.376V120.376ZM1295.99 440.166H1258.27V204.731H1295.99V440.166V440.166ZM1511.19 429.384C1492.96 440.419 1471.41 445.937 1446.58 445.937C1425.14 445.937 1405.85 440.98 1388.75 431.119C1371.65 421.214 1358.38 407.233 1348.87 389.131C1339.35 371.056 1334.62 350.756 1334.62 328.222C1334.62 289.304 1345.76 258.026 1368.06 234.393C1390.36 210.809 1420.08 198.986 1457.16 198.986C1477.71 198.986 1495.87 202.973 1511.66 210.952V249.567C1494.03 237.312 1475.33 231.185 1455.56 231.185C1431.19 231.185 1411.37 239.902 1396.13 257.279C1380.87 274.686 1373.23 297.149 1373.23 324.769C1373.23 352.229 1380.49 373.877 1394.98 389.838C1409.45 405.773 1428.88 413.729 1453.25 413.729C1473.79 413.729 1493.11 407.001 1511.2 393.492L1511.19 429.384ZM1742.87 331.902H1576.64C1577.28 358.427 1584.28 378.687 1597.69 392.717C1611.1 406.721 1629.67 413.743 1653.42 413.743C1680.1 413.743 1704.39 405.163 1726.33 388.001V423.194C1705.79 438.368 1678.5 445.937 1644.48 445.937C1610.88 445.937 1584.7 435.088 1565.82 413.4C1546.98 391.725 1537.54 361.707 1537.54 323.38C1537.54 300.09 1542.27 278.829 1551.71 259.593C1561.11 240.361 1574.13 225.467 1590.66 214.877C1607.23 204.308 1625.62 198.991 1645.83 198.991C1676.33 198.991 1700.13 208.914 1717.23 228.791C1734.33 248.619 1742.87 276.404 1742.87 312.127V331.902V331.902ZM1704.26 299.934C1703.95 278.179 1698.7 261.275 1688.49 249.225C1678.31 237.192 1663.94 231.176 1645.4 231.176C1627.92 231.176 1612.96 237.468 1600.57 250.025C1588.14 262.587 1580.34 279.23 1577.13 299.921L1704.26 299.934V299.934ZM2029.77 346.835C2029.77 376.573 2019.12 400.522 1997.82 418.691C1976.52 436.855 1948.52 445.928 1913.89 445.928C1882.47 445.928 1857.48 439.943 1838.92 428.004V387.533C1861.17 404.99 1886.61 413.734 1915.25 413.734C1938.4 413.734 1956.84 408.007 1970.56 396.602C1984.29 385.202 1991.16 369.747 1991.16 350.271C1991.16 307.219 1960.47 285.677 1899.18 285.677H1871.82V253.705H1897.79C1952.05 253.705 1979.19 233.472 1979.19 193.001C1979.19 155.605 1958.5 136.916 1917.1 136.916C1893.82 136.916 1871.97 144.73 1851.59 160.362V123.811C1872.59 111.25 1897.55 104.957 1926.54 104.957C1953.83 104.957 1975.85 112.18 1992.64 126.695C2009.42 141.179 2017.8 160.162 2017.8 183.585C2017.8 226.976 1995.88 254.862 1952.05 267.295V268.198C1975.33 270.811 1994.15 279.221 2008.4 293.496C2022.65 307.748 2029.77 325.534 2029.77 346.835V346.835ZM2277.84 335.582C2277.84 356.438 2273.36 375.354 2264.4 392.361C2255.43 409.364 2243.07 422.567 2227.24 431.907C2211.46 441.269 2193.77 445.937 2174.14 445.937C2141.19 445.937 2115.34 432.681 2096.54 406.165C2077.76 379.662 2068.39 342.621 2068.39 295.098C2068.39 257.408 2073.95 224.092 2085.07 195.222C2096.18 166.32 2111.91 144.067 2132.29 128.444C2152.69 112.785 2176.21 104.98 2202.88 104.98C2225.57 104.98 2243.8 108.117 2257.62 114.409V150.056C2240.6 141.312 2222.65 136.952 2203.8 136.952C2174.68 136.952 2151.36 150.021 2133.8 176.163C2116.23 202.288 2107.46 237.126 2107.46 280.649H2108.39C2123.56 249.518 2148.63 233.966 2183.57 233.966C2212.07 233.966 2234.94 243.275 2252.1 261.911C2269.28 280.511 2277.84 305.065 2277.84 335.582V335.582ZM2239.22 340.401C2239.22 317.391 2233.57 299.245 2222.33 285.9C2211.06 272.577 2195.3 265.934 2175.07 265.934C2156.69 265.934 2141.21 272.39 2128.62 285.352C2116.05 298.27 2109.79 313.978 2109.79 332.351C2109.79 355.508 2116.03 374.869 2128.52 390.395C2141.01 405.973 2156.77 413.738 2175.79 413.738C2194.62 413.738 2209.93 406.97 2221.65 393.389C2233.36 379.822 2239.22 362.156 2239.22 340.401V340.401ZM2499.72 339.475C2499.72 371.532 2489.12 397.247 2467.89 416.751C2446.66 436.192 2418.33 445.91 2382.92 445.91C2352.25 445.91 2329.5 441.336 2314.65 432.138V392.121C2337.01 406.561 2359.92 413.752 2383.37 413.752C2406.67 413.752 2425.44 407.219 2439.69 394.19C2453.97 381.152 2461.1 363.691 2461.1 341.807C2461.1 320.319 2453.87 303.512 2439.49 291.315C2425.07 279.141 2404.15 273.053 2376.73 273.053C2354.79 273.053 2336.17 273.952 2320.85 275.781L2332.1 110.48H2484.55V144.503H2364.76L2358.09 241.299L2388.44 240.129C2422.78 240.129 2449.91 248.82 2469.83 266.138C2489.75 283.452 2499.72 307.917 2499.72 339.475V339.475ZM459.057 504.167L459.008 504.14V47.2347L295.304 0L1.0121 110.502L0.273438 110.644L0.309036 441.02L100.737 401.715V132.916L295.304 86.3974L295.278 481.602L0.473679 441.02L295.278 549.88V550L459.008 504.688V504.167H459.057Z" fill="#E25B00"/>
</g>
<defs>
<clipPath id="clip0">
<rect width="2500" height="550" fill="white"/>
</clipPath>
</defs>
</svg>
