<svg width="168" height="33" viewBox="0 0 168 33" fill="none" xmlns="http://www.w3.org/2000/svg">
<g clip-path="url(#clip0)">
<path d="M44.2393 12.4782C42.4346 12.4782 41.1747 13.0911 40.3575 14.351V12.8868H35.4883V27.1881H40.3575V19.5267C40.3575 17.9944 41.379 17.3134 42.4006 17.3134C43.5242 17.3134 44.2052 18.0625 44.2052 19.4926V27.1881H49.3469V17.8582C49.3469 14.5893 47.2017 12.4782 44.2393 12.4782Z" fill="#306E95"/>
<path d="M83.7391 19.1181L79.687 6.96204H72.0938V27.1881H77.5759V14.5213L81.2193 27.1881H83.7391H86.2588L89.9022 14.5213V27.1881H95.3844V6.96204H87.7911L83.7391 19.1181Z" fill="#306E95"/>
<path d="M151.06 12.4782C149.459 12.4782 148.233 12.989 147.45 13.9765V6.34912H142.309V27.154H147.45V19.5267C147.45 17.9604 148.233 17.3134 149.255 17.3134C150.379 17.3134 151.06 18.0625 151.06 19.4927V27.1881H156.201V17.8582C156.167 14.5894 154.022 12.4782 151.06 12.4782Z" fill="#306E95"/>
<path d="M136.417 8.76672H131.275V11.1843C131.275 12.1718 130.492 12.8528 129.505 12.8528H128.688V17.3815H131.275V21.1611C131.275 24.6684 132.944 27.1541 136.996 27.1541H140.673V26.473V25.1791V22.387H138.324C137.2 22.387 136.417 21.9103 136.417 20.378V17.4156H139.754H140.707V12.8868H136.417V8.76672V8.76672Z" fill="#306E95"/>
<path d="M23.2661 6.58746C17.0008 6.58746 12.5742 11.0481 12.5742 17.0751C12.5742 23.102 17.0008 27.5626 23.2661 27.5626C29.5314 27.5626 33.958 23.102 33.958 17.0751C33.958 11.0481 29.4974 6.58746 23.2661 6.58746ZM23.2661 22.2848C20.3378 22.2848 18.2947 20.1396 18.2947 17.0751C18.2947 14.0105 20.3378 11.8653 23.2661 11.8653C26.1945 11.8653 28.2375 14.0105 28.2375 17.0751C28.2375 20.1737 26.1945 22.2848 23.2661 22.2848Z" fill="#306E95"/>
<path d="M57.9621 12.4782C53.5696 12.4782 50.5391 15.6109 50.5391 20.1396C50.5391 20.6163 50.5731 21.093 50.6412 21.5357C51.2201 25.1791 54.0803 27.5286 58.1664 27.5286C60.9926 27.5286 63.2399 26.5411 64.636 25.0429L61.1288 22.1145C60.3456 22.8636 59.3582 23.2723 58.4388 23.2723C57.0768 23.2723 56.2255 22.6934 55.885 21.5357H63.6145H65.2149C65.283 21.2633 65.317 20.4801 65.317 20.0034C65.2489 15.5428 62.2865 12.4782 57.9621 12.4782ZM55.851 18.4371C56.1915 17.3134 56.9065 16.8026 57.9961 16.8026C59.0517 16.8026 59.8008 17.3474 60.1754 18.4371H55.851Z" fill="#306E95"/>
<path d="M104.747 12.4782C100.32 12.4782 97.0514 15.5768 96.9492 19.8331C96.9492 19.9012 96.9492 19.9693 96.9492 20.0374C96.9492 24.3959 100.252 27.5626 104.747 27.5626C109.241 27.5626 112.544 24.3619 112.544 20.0374C112.544 19.9693 112.544 19.9012 112.544 19.8331C112.442 15.5768 109.173 12.4782 104.747 12.4782ZM104.747 22.7615C103.283 22.7615 102.193 21.6038 102.193 20.0034C102.193 19.9353 102.193 19.8672 102.193 19.7991C102.261 18.3009 103.317 17.2453 104.713 17.2453C106.143 17.2453 107.164 18.3009 107.232 19.7991C107.232 19.8672 107.232 19.9353 107.232 20.0034C107.301 21.6038 106.245 22.7615 104.747 22.7615Z" fill="#306E95"/>
<path d="M122.523 12.4782C120.719 12.4782 119.459 13.0911 118.642 14.351V12.8868H113.738V27.1881H118.676V19.5267C118.676 17.9944 119.697 17.3134 120.719 17.3134C121.842 17.3134 122.523 18.0625 122.523 19.4926V27.1881H127.665V17.8582C127.631 14.5893 125.486 12.4782 122.523 12.4782Z" fill="#306E95"/>
<path d="M23.2661 6.58746C17.0008 6.58746 12.5742 11.0481 12.5742 17.0751H18.2607C18.2607 13.9764 20.3037 11.8653 23.2321 11.8653C26.1604 11.8653 28.2034 14.0105 28.2034 17.0751H33.8899C33.924 11.0481 29.4974 6.58746 23.2661 6.58746Z" fill="#679ABA"/>
<path d="M40.3575 12.8868H35.4883V27.1881H40.3575V19.5267V14.351V12.8868Z" fill="#679ABA"/>
<path d="M57.9621 12.4782C53.5696 12.4782 50.5391 15.6109 50.5391 20.1396C50.5391 20.6163 50.5731 21.093 50.6412 21.5357H55.851H63.5804H65.1808C65.2489 21.2633 65.283 20.4801 65.283 20.0034C65.2489 15.5428 62.2865 12.4782 57.9621 12.4782ZM55.851 18.4371C56.1915 17.3134 56.9065 16.8026 57.9961 16.8026C59.0517 16.8026 59.8008 17.3474 60.1754 18.4371H55.851Z" fill="#679ABA"/>
<path d="M79.687 6.96204H72.0938V27.1881H77.5759V14.5213L81.2193 27.1881H83.7391V19.1181L79.687 6.96204Z" fill="#679ABA"/>
<path d="M104.747 12.4782C100.32 12.4782 97.0514 15.5768 96.9492 19.8331H102.193C102.261 18.3349 103.317 17.2793 104.713 17.2793C106.143 17.2793 107.164 18.3349 107.232 19.8331H112.544C112.442 15.5768 109.173 12.4782 104.747 12.4782Z" fill="#679ABA"/>
<path d="M147.45 6.34912H142.309V27.1881H147.45V19.5267V14.0105V6.34912Z" fill="#679ABA"/>
<path d="M131.273 21.1612C131.273 24.6684 132.942 27.1541 136.994 27.1541H140.671V26.4731V25.1791V22.387H138.322C137.198 22.387 136.415 21.9103 136.415 20.378V17.4156H131.273V21.1612Z" fill="#679ABA"/>
<path d="M122.522 12.4782C120.718 12.4782 119.458 13.0911 118.641 14.351V19.5267C118.641 17.9944 119.662 17.3134 120.684 17.3134C121.807 17.3134 122.488 18.0625 122.488 19.4926V27.1881H127.63V17.8582C127.63 14.5893 125.485 12.4782 122.522 12.4782Z" fill="#679ABA"/>
</g>
<defs>
<clipPath id="clip0">
<rect width="145.056" height="22.4734" fill="white" transform="translate(11.0625 5.53192)"/>
</clipPath>
</defs>
</svg>
