<svg width="600" height="196" viewBox="0 0 600 196" fill="none" xmlns="http://www.w3.org/2000/svg">
<path d="M25.2 161.2H0V5H60.5C96.5 5 115.8 23.2 115.8 52.5C115.8 81.8 96.5 100 60.5 100H25.2V161.2ZM25.2 76.1H59.9C80.4 76.1 89.7 68.7 89.7 52.5C89.7 36.3 80.5 28.8 59.9 28.8H25.2V76.1Z" fill="#EC670F"/>
<path d="M204.102 161.2V148.3C196.702 157.8 185.802 163.9 170.502 163.9C140.602 163.9 117.102 140.4 117.102 107.7C117.102 75 140.602 51.5 170.502 51.5C185.802 51.5 196.602 57.7 204.102 67.2V54.2H227.402V161.1H204.102V161.2ZM141.002 107.8C141.002 126.5 153.202 142.1 173.302 142.1C192.502 142.1 205.602 127.4 205.602 107.8C205.602 88.3 192.502 73.5 173.302 73.5C153.202 73.5 141.002 89.1 141.002 107.8Z" fill="#EC670F"/>
<path d="M335.702 68.5L320.702 84.5C313.202 77.4 305.302 73.4 295.102 73.4C277.102 73.4 263.502 87.5 263.502 107.7C263.502 127.9 277.102 142 295.102 142C305.402 142 314.502 137.2 321.302 130.8L335.702 146.9C325.802 158.2 311.902 164 295.802 164C261.902 164 239.602 139.8 239.602 107.8C239.602 75.8 261.902 51.6 295.802 51.6C311.902 51.5 326.302 57.3 335.702 68.5Z" fill="#EC670F"/>
<path d="M368.502 116.1V161.2H345.102V0.600006L368.502 0V94.4" fill="#EC670F"/>
<path d="M474.499 161.2V75.5H453.199V54.4H474.499V22H497.899V54.4H519.299V75.5H497.899V161.2H474.499Z" fill="#EC670F"/>
<path d="M372.898 104.7L381.598 94.9L416.898 54.4H446.198L401.398 104.6L446.698 161.2H417.098L381.498 116.1L372.898 104.7Z" fill="#EC670F"/>
<path d="M591.501 116.1L555.901 161.2H526.301L571.501 104.6L526.701 54.4H556.101L591.401 94.9L600.001 104.7L591.501 116.1Z" fill="#EC670F"/>
<path d="M600 195.4H0V179.9H600V195.4Z" fill="#EC670F"/>
</svg>
