<svg width="154" height="40" viewBox="0 0 154 40" fill="none" xmlns="http://www.w3.org/2000/svg">
<path d="M41.3031 39.8L41.2031 39C40.7031 39.6 40.0031 40 39.2031 40C37.9031 40 37.2031 39.1 37.2031 38.1C37.2031 36.5 38.6031 35.6 41.2031 35.6V35.5C41.2031 35 41.1031 34 39.7031 34C39.1031 34 38.5031 34.2 38.0031 34.5L37.7031 33.7C38.4031 33.3 39.1031 33.1 39.9031 33.1C41.9031 33.1 42.4031 34.5 42.4031 35.8V38.3C42.4031 38.8 42.4031 39.4 42.5031 39.9L41.3031 39.8ZM41.1031 36.5C39.8031 36.5 38.3031 36.7 38.3031 38C38.3031 38.6 38.7031 39.1 39.3031 39.2C39.4031 39.2 39.4031 39.2 39.5031 39.2C40.2031 39.2 40.9031 38.8 41.1031 38.1C41.1031 38 41.2031 37.8 41.2031 37.7L41.1031 36.5Z" fill="#333333"/>
<path d="M49.2023 39.8L46.9023 30.6H48.2023L49.3023 35.3C49.6023 36.4 49.8023 37.6 50.0023 38.5C50.1023 37.6 50.4023 36.5 50.8023 35.3L52.0023 30.6H53.2023L54.3023 35.3C54.6023 36.4 54.8023 37.5 54.9023 38.5C55.1023 37.5 55.4023 36.4 55.6023 35.3L56.8023 30.6H58.0023L55.4023 39.8H54.2023L53.1023 35C52.8023 34 52.7023 33 52.5023 32C52.3023 33 52.1023 34 51.8023 35L50.5023 39.8H49.2023Z" fill="#333333"/>
<path d="M62.4008 39.8L62.3008 39C61.8008 39.6 61.1008 40 60.3008 40C59.0008 40 58.3008 39.1 58.3008 38.1C58.3008 36.5 59.7008 35.6 62.3008 35.6V35.5C62.3008 35 62.2008 34 60.8008 34C60.2008 34 59.6008 34.2 59.1008 34.5L58.8008 33.7C59.5008 33.3 60.2008 33.1 61.0008 33.1C63.0008 33.1 63.5008 34.5 63.5008 35.8V38.3C63.5008 38.8 63.5008 39.4 63.6008 39.9L62.4008 39.8ZM62.3008 36.5C61.0008 36.5 59.5008 36.7 59.5008 38C59.4008 38.6 59.9008 39.1 60.5008 39.2C60.6008 39.2 60.6008 39.2 60.7008 39.2C61.4008 39.2 62.1008 38.8 62.3008 38.1C62.3008 38 62.4008 37.8 62.4008 37.7V36.5H62.3008Z" fill="#333333"/>
<path d="M66.8016 31.3V33.2H68.5016V34.1H66.8016V37.7C66.8016 38.5 67.0016 39 67.7016 39C67.9016 39 68.2016 39 68.4016 38.9L68.5016 39.8C68.2016 39.9 67.8016 40 67.4016 40C66.9016 40 66.4016 39.8 66.1016 39.5C65.8016 39.1 65.6016 38.6 65.6016 37.8V34.2H64.6016V33.3H65.6016V31.7L66.8016 31.3Z" fill="#333333"/>
<path d="M74.5008 39.6C73.9008 39.9 73.3008 40 72.6008 40C70.6008 40 69.3008 38.6 69.3008 36.6C69.3008 34.6 70.7008 33.1 72.9008 33.1C73.5008 33.1 74.0008 33.2 74.6008 33.4L74.3008 34.3C73.9008 34.1 73.4008 34 72.9008 34C71.4008 34 70.6008 35.1 70.6008 36.5C70.6008 38 71.6008 39 72.9008 39C73.4008 39 73.9008 38.9 74.4008 38.7L74.5008 39.6Z" fill="#333333"/>
<path d="M75.9023 30.1H77.1023V34.2C77.3023 33.8 77.6023 33.6 78.0023 33.4C78.4023 33.2 78.8023 33.1 79.2023 33.1C80.1023 33.1 81.5023 33.6 81.5023 35.9V39.8H80.3023V36C80.3023 34.9 79.9023 34 78.8023 34C78.1023 34 77.4023 34.5 77.2023 35.2C77.1023 35.4 77.1023 35.6 77.1023 35.8V39.8H75.9023V30.1Z" fill="#333333"/>
<path d="M90.6039 39.4C89.7039 39.7 88.7039 39.9 87.8039 39.9C86.4039 39.9 85.3039 39.5 84.3039 38.7C83.5039 37.9 83.0039 36.7 83.0039 35.3C83.0039 32.5 84.9039 30.5 88.0039 30.5C88.8039 30.5 89.6039 30.6 90.3039 30.9L90.0039 31.9C89.4039 31.6 88.7039 31.5 87.9039 31.5C85.7039 31.5 84.2039 32.9 84.2039 35.2C84.2039 37.5 85.6039 38.9 87.8039 38.9C88.3039 38.9 88.9039 38.8 89.4039 38.7V36H87.5039V35H90.5039V39.4H90.6039Z" fill="#333333"/>
<path d="M97.9008 38C97.9008 38.7 97.9008 39.3 98.0008 39.8H96.9008L96.8008 38.7C96.3008 39.5 95.5008 39.9 94.6008 39.9C93.6008 39.9 92.3008 39.3 92.3008 37V33.1H93.5008V36.8C93.5008 38.1 93.9008 38.9 95.0008 38.9C95.7008 38.9 96.3008 38.5 96.6008 37.8C96.7008 37.6 96.7008 37.4 96.7008 37.2V33.1H97.9008V38Z" fill="#333333"/>
<path d="M103.604 39.8L103.504 39C103.004 39.6 102.304 40 101.504 40C100.204 40 99.5039 39.1 99.5039 38.1C99.5039 36.5 100.904 35.6 103.504 35.6V35.5C103.504 35 103.404 34 102.004 34C101.404 34 100.804 34.2 100.304 34.5L100.004 33.7C100.704 33.3 101.404 33.1 102.204 33.1C104.204 33.1 104.704 34.5 104.704 35.8V38.3C104.704 38.8 104.704 39.4 104.804 39.9L103.604 39.8ZM103.404 36.5C102.104 36.5 100.604 36.7 100.604 38C100.604 38.6 101.004 39.1 101.604 39.2C101.704 39.2 101.704 39.2 101.804 39.2C102.504 39.2 103.204 38.8 103.404 38.1C103.404 38 103.504 37.8 103.504 37.7V36.5H103.404Z" fill="#333333"/>
<path d="M106.501 35.3C106.501 34.5 106.501 33.8 106.401 33.2H107.501V34.5C107.701 33.7 108.501 33.1 109.301 33C109.401 33 109.501 33 109.601 33V34.1C109.501 34.1 109.301 34.1 109.201 34.1C108.401 34.1 107.701 34.7 107.601 35.6C107.601 35.8 107.501 36 107.501 36.2V39.7H106.301L106.501 35.3Z" fill="#333333"/>
<path d="M116.602 30.1V38.1C116.602 38.7 116.602 39.4 116.702 39.8H115.602L115.502 38.7C115.102 39.5 114.202 40 113.202 40C111.602 40 110.402 38.6 110.402 36.6C110.402 34.4 111.802 33 113.402 33C114.402 33 115.102 33.5 115.402 34V30L116.602 30.1ZM115.402 35.9C115.402 35.7 115.402 35.6 115.302 35.4C115.102 34.6 114.402 34 113.602 34C112.402 34 111.602 35.1 111.602 36.6C111.602 37.9 112.302 39.1 113.602 39.1C114.502 39.1 115.202 38.5 115.402 37.7C115.402 37.5 115.502 37.4 115.502 37.2L115.402 35.9Z" fill="#333333"/>
<path d="M121.602 39.8C121.602 39.3 121.702 38.7 121.702 38.1V30.1H122.902V34.3C123.402 33.5 124.202 33 125.202 33.1C126.802 33.1 128.002 34.5 128.002 36.5C128.002 38.9 126.502 40 125.002 40C124.102 40.1 123.202 39.6 122.802 38.8L122.702 39.9H121.602V39.8ZM122.902 37.2C122.902 37.3 122.902 37.5 123.002 37.6C123.202 38.4 124.002 39 124.802 39C126.102 39 126.802 38 126.802 36.5C126.802 35.2 126.102 34 124.802 34C123.902 34 123.202 34.6 123.002 35.5C123.002 35.7 122.902 35.8 122.902 36V37.2Z" fill="#333333"/>
<path d="M129.502 35.3C129.502 34.5 129.502 33.8 129.402 33.2H130.502V34.5H130.602C130.802 33.7 131.602 33.1 132.402 33C132.502 33 132.602 33 132.702 33V34.1C132.602 34.1 132.402 34.1 132.302 34.1C131.502 34.1 130.802 34.7 130.702 35.6C130.702 35.8 130.602 36 130.602 36.2V39.7H129.402L129.502 35.3Z" fill="#333333"/>
<path d="M137.6 39.8L137.5 39C137 39.6 136.3 40 135.5 40C134.2 40 133.5 39.1 133.5 38.1C133.5 36.5 134.9 35.6 137.5 35.6V35.5C137.5 35 137.4 34 136 34C135.4 34 134.8 34.2 134.3 34.5L134 33.7C134.7 33.3 135.4 33.1 136.2 33.1C138.2 33.1 138.7 34.5 138.7 35.8V38.3C138.7 38.8 138.7 39.4 138.8 39.9L137.6 39.8ZM137.4 36.5C136.1 36.5 134.6 36.7 134.6 38C134.6 38.6 135 39.1 135.6 39.2C135.7 39.2 135.7 39.2 135.8 39.2C136.5 39.2 137.2 38.8 137.4 38.1C137.4 38 137.5 37.8 137.5 37.7L137.4 36.5Z" fill="#333333"/>
<path d="M140.502 35C140.502 34.3 140.502 33.8 140.402 33.2H141.502L141.602 34.3C142.002 33.5 142.902 33 143.802 33.1C144.702 33.1 146.102 33.6 146.102 35.9V39.9H144.902V36C144.902 34.9 144.502 34 143.402 34C142.402 34 141.702 34.8 141.702 35.8V39.8H140.502V35Z" fill="#333333"/>
<path d="M153.802 30.1V38.1C153.802 38.7 153.802 39.4 153.902 39.8H152.802L152.702 38.7C152.302 39.5 151.402 40 150.402 40C148.802 40 147.602 38.6 147.602 36.6C147.602 34.4 149.002 33 150.602 33C151.602 33 152.302 33.5 152.602 34V30L153.802 30.1ZM152.602 35.9C152.602 35.7 152.602 35.6 152.502 35.4C152.302 34.6 151.602 34 150.802 34C149.602 34 148.802 35.1 148.802 36.6C148.802 37.9 149.502 39.1 150.802 39.1C151.702 39.1 152.402 38.5 152.602 37.7C152.602 37.5 152.702 37.4 152.702 37.2L152.602 35.9Z" fill="#333333"/>
<path d="M45.0016 5.5C43.9016 5.5 42.9016 5.7 41.9016 6.1H37.1016V26.6H42.6016V20.8C43.3016 21 44.1016 21.2 45.0016 21.2C49.3016 21.2 52.8016 17.7 52.8016 13.4C52.8016 9 49.3016 5.5 45.0016 5.5ZM45.0016 15.8C43.6016 15.8 42.5016 14.7 42.5016 13.3C42.5016 11.9 43.6016 10.8 45.0016 10.8C46.4016 10.8 47.5016 11.9 47.5016 13.3C47.5016 14.7 46.4016 15.8 45.0016 15.8Z" fill="#333333"/>
<path d="M65.0016 6.1C64.1016 5.7 63.0016 5.5 61.9016 5.5C57.6016 5.5 54.1016 9 54.1016 13.3C54.1016 17.6 57.6016 21.1 61.9016 21.1C63.0016 21.1 64.0016 20.9 65.0016 20.5H69.8016V6.1H65.0016ZM61.9016 15.8C60.5016 15.8 59.4016 14.7 59.4016 13.3C59.4016 11.9 60.5016 10.8 61.9016 10.8C63.3016 10.8 64.4016 11.9 64.4016 13.3C64.4016 14.7 63.3016 15.8 61.9016 15.8Z" fill="#333333"/>
<path d="M96.9 21.2C98 21.2 99 21 100 20.6H104.8V0H99.3V5.8C98.6 5.6 97.8 5.4 96.9 5.4C92.6 5.5 89 9 89 13.3C89 17.6 92.6 21.2 96.9 21.2ZM96.9 10.8C98.3 10.8 99.4 11.9 99.4 13.3C99.4 14.7 98.3 15.8 96.9 15.8C95.5 15.8 94.4 14.7 94.4 13.3C94.4 11.9 95.5 10.8 96.9 10.8Z" fill="#333333"/>
<path d="M117.002 6.1C116.102 5.7 115.002 5.5 113.902 5.5C109.602 5.5 106.102 9 106.102 13.3C106.102 17.6 109.602 21.1 113.902 21.1C115.002 21.1 116.002 20.9 117.002 20.5H121.802V6.1H117.002ZM114.002 15.8C112.602 15.8 111.502 14.7 111.502 13.3C111.502 11.9 112.602 10.8 114.002 10.8C115.402 10.8 116.502 11.9 116.502 13.3C116.502 14.7 115.302 15.8 114.002 15.8Z" fill="#333333"/>
<path d="M79.8023 5.5C78.7023 5.5 77.7023 5.7 76.7023 6.1H71.9023V20.5H77.4023V13.3C77.4023 11.9 78.4023 10.8 79.8023 10.8C81.2023 10.8 82.2023 11.9 82.2023 13.3V20.5H87.7023V13.3C87.6023 9 84.1023 5.5 79.8023 5.5Z" fill="#333333"/>
<path d="M3.90156 0C1.80156 0 0.101562 1.7 0.101562 3.7C0.101562 5.5 1.40156 7 3.10156 7.4C4.10156 5.4 5.50156 3.7 7.30156 2.5C6.90156 1 5.50156 0 3.90156 0ZM26.3016 0C24.7016 0 23.3016 1 22.8016 2.5C24.6016 3.8 26.0016 5.5 27.0016 7.4C28.7016 7.1 30.0016 5.5 30.0016 3.7C30.0016 1.7 28.4016 0 26.3016 0Z" fill="#333333"/>
<path d="M9.70312 13.3H1.70312C1.70312 20.7 7.70312 26.6 15.0031 26.6V18.6C12.1031 18.7 9.70312 16.3 9.70312 13.3Z" fill="#333333"/>
<path opacity="0.2" d="M15.1016 0V8C18.1016 8 20.5016 10.4 20.5016 13.4H28.5016C28.4016 6 22.4016 0 15.1016 0Z" fill="#333333"/>
<path opacity="0.5" d="M15.1008 8V0C7.70078 0 1.80078 6 1.80078 13.3H9.80078C9.70078 10.4 12.1008 8 15.1008 8Z" fill="#333333"/>
<path opacity="0.75" d="M15.1016 18.7V26.7C22.5016 26.7 28.4016 20.7 28.4016 13.4H20.4016C20.4016 16.3 18.0016 18.7 15.1016 18.7Z" fill="#333333"/>
</svg>
