<svg width="182" height="55" viewBox="0 0 182 55" fill="none" xmlns="http://www.w3.org/2000/svg">
<path d="M12.8042 26.8584H6.26506V15.738H12.8042C14.0572 15.738 15.1406 15.8163 16.0542 15.9729C16.994 16.1295 17.7641 16.4167 18.3645 16.8343C18.991 17.252 19.4478 17.8263 19.7349 18.5572C20.0482 19.262 20.2048 20.1757 20.2048 21.2982C20.2048 22.4207 20.0482 23.3474 19.7349 24.0783C19.4478 24.7831 18.991 25.3444 18.3645 25.762C17.7641 26.1797 16.994 26.4669 16.0542 26.6235C15.1406 26.7801 14.0572 26.8584 12.8042 26.8584ZM15.1536 11.5482H0V42.9518H6.26506V31.0482H15.1536C16.1978 31.0482 17.3203 30.9699 18.5211 30.8133C19.748 30.6305 20.8966 30.3303 21.9669 29.9126C23.0371 29.4689 23.9639 28.8685 24.747 28.1114C25.5562 27.3544 26.0653 26.4016 26.2741 25.253C26.4046 24.5482 26.496 23.8564 26.5482 23.1777C26.6265 22.4729 26.6657 21.7811 26.6657 21.1024C26.6657 20.4237 26.6265 19.745 26.5482 19.0663C26.496 18.3614 26.4046 17.6566 26.2741 16.9518C26.0653 15.8032 25.5562 14.8765 24.747 14.1717C23.9639 13.4669 23.0371 12.9187 21.9669 12.5271C20.8966 12.1355 19.748 11.8745 18.5211 11.744C17.3203 11.6135 16.1978 11.5482 15.1536 11.5482ZM28.3751 42.9518L32.4082 31.753H43.4897L47.8752 42.9518H55.1584L42.5108 11.5482H34.5618L22.0709 42.9518H28.3751ZM37.9293 17.7349L41.8843 27.7199H33.8179L37.4203 17.7349H37.9293ZM60.7691 15.9337V42.9518H67.0342V15.9337H78.4679V11.5482H49.3354V15.9337H60.7691ZM95.0911 15.738C95.613 15.738 96.2525 15.7771 97.0097 15.8554C97.7929 15.9076 98.5498 16.0904 99.2808 16.4036C100.011 16.7169 100.625 17.2129 101.121 17.8916C101.643 18.5703 101.904 19.5361 101.904 20.7892C101.904 22.0422 101.643 23.008 101.121 23.6867C100.625 24.3654 100.011 24.8745 99.2808 25.2139C98.5498 25.5271 97.7929 25.7229 97.0097 25.8012C96.2525 25.8534 95.613 25.8795 95.0911 25.8795H87.064V15.738H95.0911ZM87.064 42.9518V30.0693H91.4887C92.5588 30.0693 93.6031 30.1215 94.6212 30.2259C95.6393 30.3303 96.5657 30.5261 97.4013 30.8133C98.2365 31.0743 98.9543 31.4398 99.5549 31.9096C100.155 32.3795 100.586 32.9669 100.847 33.6717C101.03 34.1416 101.186 34.8072 101.317 35.6687C101.474 36.504 101.617 37.3916 101.748 38.3313C101.878 39.245 101.983 40.1325 102.061 40.994C102.165 41.8293 102.243 42.4819 102.296 42.9518H108.835C108.783 42.4558 108.718 41.8685 108.639 41.1898C108.587 40.5111 108.508 39.8323 108.404 39.1536C108.3 38.4488 108.195 37.7701 108.091 37.1175C108.013 36.4388 107.934 35.8383 107.856 35.3163C107.673 34.0894 107.386 33.0843 106.995 32.3012C106.629 31.492 106.146 30.8394 105.546 30.3434C104.971 29.8213 104.28 29.4036 103.471 29.0904C102.661 28.7771 101.734 28.49 100.69 28.2289C101.787 27.9418 102.805 27.6154 103.745 27.25C104.684 26.8846 105.493 26.4016 106.172 25.8012C106.851 25.1747 107.373 24.3916 107.739 23.4518C108.13 22.512 108.326 21.3374 108.326 19.9277C108.326 18.5703 108.13 17.4217 107.739 16.4819C107.347 15.5422 106.825 14.7721 106.172 14.1717C105.52 13.5452 104.763 13.0622 103.901 12.7229C103.066 12.3574 102.204 12.0964 101.317 11.9398C100.429 11.757 99.5416 11.6526 98.6543 11.6265C97.7666 11.5743 96.9573 11.5482 96.2266 11.5482H80.7989V42.9518H87.064ZM111.696 11.5482V42.9518H117.961V11.5482H111.696ZM136.439 43.5C138.397 43.5 140.277 43.3564 142.078 43.0693C143.879 42.8082 145.484 42.3253 146.894 41.6205C148.33 40.8895 149.491 39.9237 150.379 38.7229C151.293 37.496 151.828 35.9428 151.984 34.0633C152.089 32.758 152.167 31.5703 152.219 30.5C152.271 29.4036 152.298 28.3203 152.298 27.25C152.298 26.1797 152.271 25.1094 152.219 24.0392C152.193 22.9689 152.115 21.7681 151.984 20.4367C151.828 18.5572 151.293 17.0171 150.379 15.8163C149.491 14.5894 148.33 13.6235 146.894 12.9187C145.484 12.1878 143.879 11.6918 142.078 11.4307C140.277 11.1436 138.397 11 136.439 11C134.481 11 132.602 11.1436 130.801 11.4307C129 11.6918 127.381 12.1878 125.945 12.9187C124.536 13.6235 123.374 14.5894 122.46 15.8163C121.573 17.0171 121.051 18.5572 120.894 20.4367C120.763 21.7681 120.672 22.9689 120.62 24.0392C120.594 25.1094 120.581 26.1797 120.581 27.25C120.581 28.3203 120.607 29.4036 120.659 30.5C120.711 31.5703 120.79 32.758 120.894 34.0633C121.051 35.9428 121.573 37.496 122.46 38.7229C123.374 39.9237 124.536 40.8895 125.945 41.6205C127.381 42.3253 129 42.8082 130.801 43.0693C132.602 43.3564 134.481 43.5 136.439 43.5ZM136.439 39.8193C134.481 39.8193 132.902 39.6235 131.701 39.2319C130.5 38.8404 129.561 38.3444 128.882 37.744C128.229 37.1175 127.772 36.4388 127.512 35.7078C127.25 34.9508 127.094 34.2199 127.042 33.5151C126.937 32.262 126.859 31.1526 126.807 30.1867C126.781 29.1948 126.768 28.2159 126.768 27.25C126.768 26.2841 126.781 25.3052 126.807 24.3133C126.859 23.3213 126.937 22.2118 127.042 20.9849C127.094 20.2801 127.25 19.5623 127.512 18.8313C127.772 18.0743 128.229 17.3956 128.882 16.7952C129.561 16.1687 130.5 15.6596 131.701 15.2681C132.902 14.8765 134.481 14.6807 136.439 14.6807C138.397 14.6807 139.976 14.8765 141.177 15.2681C142.378 15.6596 143.305 16.1687 143.957 16.7952C144.636 17.3956 145.106 18.0743 145.367 18.8313C145.628 19.5623 145.784 20.2801 145.837 20.9849C145.941 22.2118 146.006 23.3213 146.033 24.3133C146.085 25.3052 146.111 26.2841 146.111 27.25C146.111 28.2159 146.085 29.1948 146.033 30.1867C146.006 31.1526 145.941 32.262 145.837 33.5151C145.784 34.2199 145.628 34.9508 145.367 35.7078C145.106 36.4388 144.636 37.1175 143.957 37.744C143.305 38.3444 142.378 38.8404 141.177 39.2319C139.976 39.6235 138.397 39.8193 136.439 39.8193ZM163.517 15.9337V42.9518H169.782V15.9337H181.216V11.5482H152.083V15.9337H163.517Z" fill="#8430D9"/>
</svg>
