<svg width="464" height="84" viewBox="0 0 464 84" fill="none" xmlns="http://www.w3.org/2000/svg">
<path d="M33.4 40.9H16.7V12.5H33.4C36.6 12.5 39.3667 12.7 41.7 13.1C44.1 13.5 46.0667 14.2333 47.6 15.3C49.2 16.3667 50.3667 17.8333 51.1 19.7C51.9 21.5 52.3 23.8333 52.3 26.7C52.3 29.5667 51.9 31.9333 51.1 33.8C50.3667 35.6 49.2 37.0333 47.6 38.1C46.0667 39.1667 44.1 39.9 41.7 40.3C39.3667 40.7 36.6 40.9 33.4 40.9ZM39.4 1.8H0.7V82H16.7V51.6H39.4C42.0667 51.6 44.9333 51.4 48 51C51.1333 50.5333 54.0667 49.7667 56.8 48.7C59.5333 47.5667 61.9 46.0333 63.9 44.1C65.9667 42.1667 67.2667 39.7333 67.8 36.8C68.1333 35 68.3667 33.2333 68.5 31.5C68.7 29.7 68.8 27.9333 68.8 26.2C68.8 24.4667 68.7 22.7333 68.5 21C68.3667 19.2 68.1333 17.4 67.8 15.6C67.2667 12.6667 65.9667 10.3 63.9 8.5C61.9 6.7 59.5333 5.3 56.8 4.3C54.0667 3.3 51.1333 2.63333 48 2.29999C44.9333 1.96666 42.0667 1.8 39.4 1.8ZM73.1656 82L83.4656 53.4H111.766L122.966 82H141.566L109.266 1.8H88.9656L57.0656 82H73.1656ZM97.5656 17.6L107.666 43.1H87.0656L96.2656 17.6H97.5656ZM155.895 13V82H171.895V13H201.095V1.8H126.695V13H155.895ZM243.548 12.5C244.881 12.5 246.514 12.6 248.448 12.8C250.448 12.9333 252.381 13.4 254.248 14.2C256.114 15 257.681 16.2667 258.948 18C260.281 19.7333 260.948 22.2 260.948 25.4C260.948 28.6 260.281 31.0667 258.948 32.8C257.681 34.5333 256.114 35.8333 254.248 36.7C252.381 37.5 250.448 38 248.448 38.2C246.514 38.3333 244.881 38.4 243.548 38.4H223.048V12.5H243.548ZM223.048 82V49.1H234.348C237.081 49.1 239.748 49.2333 242.348 49.5C244.948 49.7667 247.314 50.2667 249.448 51C251.581 51.6667 253.414 52.6 254.948 53.8C256.481 55 257.581 56.5 258.248 58.3C258.714 59.5 259.114 61.2 259.448 63.4C259.848 65.5333 260.214 67.8 260.548 70.2C260.881 72.5333 261.148 74.8 261.348 77C261.614 79.1333 261.814 80.8 261.948 82H278.648C278.514 80.7333 278.348 79.2333 278.148 77.5C278.014 75.7667 277.814 74.0333 277.548 72.3C277.281 70.5 277.014 68.7667 276.748 67.1C276.548 65.3667 276.348 63.8333 276.148 62.5C275.681 59.3667 274.948 56.8 273.948 54.8C273.014 52.7333 271.781 51.0667 270.248 49.8C268.781 48.4667 267.014 47.4 264.948 46.6C262.881 45.8 260.514 45.0667 257.848 44.4C260.648 43.6667 263.248 42.8333 265.648 41.9C268.048 40.9667 270.114 39.7333 271.848 38.2C273.581 36.6 274.914 34.6 275.848 32.2C276.848 29.8 277.348 26.8 277.348 23.2C277.348 19.7333 276.848 16.8 275.848 14.4C274.848 12 273.514 10.0333 271.848 8.5C270.181 6.9 268.248 5.66666 266.048 4.8C263.914 3.86667 261.714 3.2 259.448 2.79999C257.181 2.33333 254.914 2.06666 252.648 2C250.381 1.86666 248.314 1.8 246.448 1.8H207.048V82H223.048ZM285.954 1.8V82H301.954V1.8H285.954ZM349.145 83.4C354.145 83.4 358.945 83.0333 363.545 82.3C368.145 81.6333 372.245 80.4 375.845 78.6C379.511 76.7333 382.478 74.2667 384.745 71.2C387.078 68.0667 388.445 64.1 388.845 59.3C389.111 55.9667 389.311 52.9333 389.445 50.2C389.578 47.4 389.645 44.6333 389.645 41.9C389.645 39.1667 389.578 36.4333 389.445 33.7C389.378 30.9667 389.178 27.9 388.845 24.5C388.445 19.7 387.078 15.7667 384.745 12.7C382.478 9.56667 379.511 7.1 375.845 5.3C372.245 3.43333 368.145 2.16666 363.545 1.49999C358.945 0.766661 354.145 0.399996 349.145 0.399996C344.145 0.399996 339.345 0.766661 334.745 1.49999C330.145 2.16666 326.011 3.43333 322.345 5.3C318.745 7.1 315.778 9.56667 313.445 12.7C311.178 15.7667 309.845 19.7 309.445 24.5C309.111 27.9 308.878 30.9667 308.745 33.7C308.678 36.4333 308.645 39.1667 308.645 41.9C308.645 44.6333 308.711 47.4 308.845 50.2C308.978 52.9333 309.178 55.9667 309.445 59.3C309.845 64.1 311.178 68.0667 313.445 71.2C315.778 74.2667 318.745 76.7333 322.345 78.6C326.011 80.4 330.145 81.6333 334.745 82.3C339.345 83.0333 344.145 83.4 349.145 83.4ZM349.145 74C344.145 74 340.111 73.5 337.045 72.5C333.978 71.5 331.578 70.2333 329.845 68.7C328.178 67.1 327.011 65.3667 326.345 63.5C325.678 61.5667 325.278 59.7 325.145 57.9C324.878 54.7 324.678 51.8667 324.545 49.4C324.478 46.8667 324.445 44.3667 324.445 41.9C324.445 39.4333 324.478 36.9333 324.545 34.4C324.678 31.8667 324.878 29.0333 325.145 25.9C325.278 24.1 325.678 22.2667 326.345 20.4C327.011 18.4667 328.178 16.7333 329.845 15.2C331.578 13.6 333.978 12.3 337.045 11.3C340.111 10.3 344.145 9.79999 349.145 9.79999C354.145 9.79999 358.178 10.3 361.245 11.3C364.311 12.3 366.678 13.6 368.345 15.2C370.078 16.7333 371.278 18.4667 371.945 20.4C372.611 22.2667 373.011 24.1 373.145 25.9C373.411 29.0333 373.578 31.8667 373.645 34.4C373.778 36.9333 373.845 39.4333 373.845 41.9C373.845 44.3667 373.778 46.8667 373.645 49.4C373.578 51.8667 373.411 54.7 373.145 57.9C373.011 59.7 372.611 61.5667 371.945 63.5C371.278 65.3667 370.078 67.1 368.345 68.7C366.678 70.2333 364.311 71.5 361.245 72.5C358.178 73.5 354.145 74 349.145 74ZM418.297 13V82H434.297V13H463.497V1.8H389.097V13H418.297Z" fill="#8430D9"/>
</svg>
