<svg width="150" height="71" viewBox="0 0 150 71" fill="none" xmlns="http://www.w3.org/2000/svg">
<g clip-path="url(#clip0)">
<path d="M130.361 19.3357C122.666 19.3357 116.426 25.4133 116.426 32.9098C116.426 40.4067 122.666 46.4839 130.361 46.4839C138.057 46.4839 144.297 40.4067 144.297 32.9098C144.297 25.4133 138.057 19.3357 130.361 19.3357ZM148.942 32.9098C148.942 42.9054 140.623 51.0086 130.361 51.0086C120.1 51.0086 111.781 42.9054 111.781 32.9098C111.781 22.9142 120.1 14.811 130.361 14.811C140.623 14.811 148.942 22.9142 148.942 32.9098Z" fill="#3FBBE2"/>
<path d="M91.5807 2.36806C91.5807 3.92981 90.2885 5.19609 88.6947 5.19609C87.1008 5.19609 85.8086 3.92981 85.8086 2.36806C85.8086 0.806314 87.1008 -0.459961 88.6947 -0.459961C90.2885 -0.459961 91.5807 0.806314 91.5807 2.36806Z" fill="#3FBBE2"/>
<path d="M44.9481 -0.981445C44.7264 -0.981445 44.5469 -0.806551 44.5469 -0.590666V-0.459837V48.6168C44.5469 49.8612 45.5828 50.8006 46.8599 50.8006C48.1374 50.8006 49.1923 49.8994 49.1923 48.7462C49.1923 48.7432 49.1923 48.7462 49.1923 48.7462L49.1555 31.3518C49.1923 24.5647 54.9984 19.405 61.966 19.405C68.9332 19.405 72.3867 24.426 72.4172 31.2131V48.3715C72.4154 48.4074 72.4168 48.4415 72.4168 48.4781C72.4168 49.7225 73.4419 50.8631 74.719 50.8631C75.9955 50.8631 77.0601 49.8776 77.0622 48.7462V30.4797C77.0622 18.2046 68.9332 14.811 61.966 14.811C56.7402 14.811 52.0952 16.8492 49.1923 20.8086V4.63054C49.1923 1.94291 47.6188 -0.719787 44.9708 -0.980421L44.9481 -0.981445Z" fill="#3FBBE2"/>
<path d="M86.3516 48.7463V48.7576C86.3516 49.8889 87.4131 51.0052 88.6906 51.0052C89.9681 51.0052 90.9966 49.8804 90.9966 48.749V48.7463V20.7055C90.9966 18.0179 89.4238 15.3555 86.7755 15.0949L86.7527 15.0935C86.5311 15.0935 86.3516 15.2687 86.3516 15.4843V48.7463Z" fill="#3FBBE2"/>
<path d="M100.289 48.7462C100.289 49.8776 101.344 50.9994 102.621 50.9994C103.899 50.9994 104.934 49.8776 104.934 48.7462V4.61177C104.934 1.92448 103.361 -0.73822 100.713 -0.998512L100.69 -0.999878C100.469 -0.999878 100.289 -0.824984 100.289 -0.60944V48.7462Z" fill="#3FBBE2"/>
<path d="M5.64575 63.4692C5.64575 66.1565 4.07262 68.8195 1.42467 69.0798L1.40152 69.0812C1.18025 69.0812 1.0007 68.9063 1.0007 68.6904C1.0007 68.6904 1 32.9143 1 32.9099C1 22.7291 9.12902 14.811 19.5802 14.811C30.0616 14.811 38.1608 22.7291 38.1608 32.9099C38.1608 43.0903 30.0318 51.0087 19.5802 51.0087C12.1343 51.0087 11.022 47.2122 11.7798 44.8436L11.7882 44.8221C11.8545 44.6302 12.0403 44.4918 12.2595 44.4918C12.3686 44.4918 12.4692 44.5256 12.5509 44.5837L12.6179 44.6257C14.4267 45.8216 15.9781 46.5799 19.5802 46.5799C27.7092 46.5799 33.5157 39.6969 33.5157 32.9099C33.5157 26.1228 27.7092 19.3357 19.624 19.3357C11.4515 19.3357 5.6454 26.1228 5.6454 32.9099L5.64575 63.4692Z" fill="#3FBBE2"/>
</g>
<defs>
<clipPath id="clip0">
<rect width="150" height="71" fill="white"/>
</clipPath>
</defs>
</svg>
