<svg width="268" height="58" viewBox="0 0 268 58" fill="none" xmlns="http://www.w3.org/2000/svg">
<path fill-rule="evenodd" clip-rule="evenodd" d="M31 48C40.9414 48 49 39.9411 49 30C49 20.0589 40.9414 12 31 12C21.0586 12 13 20.0589 13 30C13 39.9411 21.0586 48 31 48ZM31 43C38.1797 43 44 37.1797 44 30C44 22.8203 38.1797 17 31 17C23.8203 17 18 22.8203 18 30C18 37.1797 23.8203 43 31 43Z" fill="url(#paint0_linear)"/>
<path d="M30.5 35C33.5376 35 36 32.5376 36 29.5C36 26.4624 33.5376 24 30.5 24C27.4624 24 25 26.4624 25 29.5C25 32.5376 27.4624 35 30.5 35Z" fill="#F58120"/>
<path d="M16 15.5V1L29.5 29L1 15.5H16Z" fill="#262E58" stroke="#262E58"/>
<path d="M73.2291 24.13C73.2291 25.4367 72.9141 26.6617 72.2841 27.805C71.6774 28.9483 70.7091 29.87 69.3791 30.57C68.0724 31.27 66.4158 31.62 64.4091 31.62H60.3141V41H55.4141V16.57H64.4091C66.2991 16.57 67.9091 16.8967 69.2391 17.55C70.5691 18.2033 71.5608 19.1017 72.2141 20.245C72.8908 21.3883 73.2291 22.6833 73.2291 24.13ZM64.1991 27.665C65.5524 27.665 66.5558 27.3617 67.2091 26.755C67.8624 26.125 68.1891 25.25 68.1891 24.13C68.1891 21.75 66.8591 20.56 64.1991 20.56H60.3141V27.665H64.1991ZM79.193 19.3C78.3297 19.3 77.6064 19.0317 77.023 18.495C76.463 17.935 76.183 17.2467 76.183 16.43C76.183 15.6133 76.463 14.9367 77.023 14.4C77.6064 13.84 78.3297 13.56 79.193 13.56C80.0564 13.56 80.768 13.84 81.328 14.4C81.9114 14.9367 82.203 15.6133 82.203 16.43C82.203 17.2467 81.9114 17.935 81.328 18.495C80.768 19.0317 80.0564 19.3 79.193 19.3ZM81.608 21.61V41H76.708V21.61H81.608ZM97.1943 21.33C99.5043 21.33 101.371 22.065 102.794 23.535C104.217 24.9817 104.929 27.0117 104.929 29.625V41H100.029V30.29C100.029 28.75 99.6443 27.5717 98.8743 26.755C98.1043 25.915 97.0543 25.495 95.7243 25.495C94.3709 25.495 93.2976 25.915 92.5043 26.755C91.7343 27.5717 91.3493 28.75 91.3493 30.29V41H86.4493V21.61H91.3493V24.025C92.0026 23.185 92.8309 22.5317 93.8343 22.065C94.8609 21.575 95.9809 21.33 97.1943 21.33ZM114.489 24.41C115.119 23.5233 115.982 22.7883 117.079 22.205C118.199 21.5983 119.47 21.295 120.894 21.295C122.55 21.295 124.044 21.7033 125.374 22.52C126.727 23.3367 127.789 24.5033 128.559 26.02C129.352 27.5133 129.749 29.2517 129.749 31.235C129.749 33.2183 129.352 34.98 128.559 36.52C127.789 38.0367 126.727 39.215 125.374 40.055C124.044 40.895 122.55 41.315 120.894 41.315C119.47 41.315 118.21 41.0233 117.114 40.44C116.04 39.8567 115.165 39.1217 114.489 38.235V50.24H109.589V21.61H114.489V24.41ZM124.744 31.235C124.744 30.0683 124.499 29.065 124.009 28.225C123.542 27.3617 122.912 26.7083 122.119 26.265C121.349 25.8217 120.509 25.6 119.599 25.6C118.712 25.6 117.872 25.8333 117.079 26.3C116.309 26.7433 115.679 27.3967 115.189 28.26C114.722 29.1233 114.489 30.1383 114.489 31.305C114.489 32.4717 114.722 33.4867 115.189 34.35C115.679 35.2133 116.309 35.8783 117.079 36.345C117.872 36.7883 118.712 37.01 119.599 37.01C120.509 37.01 121.349 36.7767 122.119 36.31C122.912 35.8433 123.542 35.1783 124.009 34.315C124.499 33.4517 124.744 32.425 124.744 31.235ZM141.92 41.315C140.053 41.315 138.373 40.9067 136.88 40.09C135.386 39.25 134.208 38.0717 133.345 36.555C132.505 35.0383 132.085 33.2883 132.085 31.305C132.085 29.3217 132.516 27.5717 133.38 26.055C134.266 24.5383 135.468 23.3717 136.985 22.555C138.501 21.715 140.193 21.295 142.06 21.295C143.926 21.295 145.618 21.715 147.135 22.555C148.651 23.3717 149.841 24.5383 150.705 26.055C151.591 27.5717 152.035 29.3217 152.035 31.305C152.035 33.2883 151.58 35.0383 150.67 36.555C149.783 38.0717 148.57 39.25 147.03 40.09C145.513 40.9067 143.81 41.315 141.92 41.315ZM141.92 37.045C142.806 37.045 143.635 36.835 144.405 36.415C145.198 35.9717 145.828 35.3183 146.295 34.455C146.761 33.5917 146.995 32.5417 146.995 31.305C146.995 29.4617 146.505 28.05 145.525 27.07C144.568 26.0667 143.39 25.565 141.99 25.565C140.59 25.565 139.411 26.0667 138.455 27.07C137.521 28.05 137.055 29.4617 137.055 31.305C137.055 33.1483 137.51 34.5717 138.42 35.575C139.353 36.555 140.52 37.045 141.92 37.045ZM158.114 19.3C157.251 19.3 156.527 19.0317 155.944 18.495C155.384 17.935 155.104 17.2467 155.104 16.43C155.104 15.6133 155.384 14.9367 155.944 14.4C156.527 13.84 157.251 13.56 158.114 13.56C158.977 13.56 159.689 13.84 160.249 14.4C160.832 14.9367 161.124 15.6133 161.124 16.43C161.124 17.2467 160.832 17.935 160.249 18.495C159.689 19.0317 158.977 19.3 158.114 19.3ZM160.529 21.61V41H155.629V21.61H160.529ZM176.115 21.33C178.425 21.33 180.292 22.065 181.715 23.535C183.138 24.9817 183.85 27.0117 183.85 29.625V41H178.95V30.29C178.95 28.75 178.565 27.5717 177.795 26.755C177.025 25.915 175.975 25.495 174.645 25.495C173.292 25.495 172.218 25.915 171.425 26.755C170.655 27.5717 170.27 28.75 170.27 30.29V41H165.37V21.61H170.27V24.025C170.923 23.185 171.752 22.5317 172.755 22.065C173.782 21.575 174.902 21.33 176.115 21.33ZM194.215 25.635V35.015C194.215 35.6683 194.366 36.1467 194.67 36.45C194.996 36.73 195.533 36.87 196.28 36.87H198.555V41H195.475C191.345 41 189.28 38.9933 189.28 34.98V25.635H186.97V21.61H189.28V16.815H194.215V21.61H198.555V25.635H194.215ZM220.104 30.885C220.104 31.585 220.057 32.215 219.964 32.775H205.789C205.906 34.175 206.396 35.2717 207.259 36.065C208.122 36.8583 209.184 37.255 210.444 37.255C212.264 37.255 213.559 36.4733 214.329 34.91H219.614C219.054 36.7767 217.981 38.3167 216.394 39.53C214.807 40.72 212.859 41.315 210.549 41.315C208.682 41.315 207.002 40.9067 205.509 40.09C204.039 39.25 202.884 38.0717 202.044 36.555C201.227 35.0383 200.819 33.2883 200.819 31.305C200.819 29.2983 201.227 27.5367 202.044 26.02C202.861 24.5033 204.004 23.3367 205.474 22.52C206.944 21.7033 208.636 21.295 210.549 21.295C212.392 21.295 214.037 21.6917 215.484 22.485C216.954 23.2783 218.086 24.41 218.879 25.88C219.696 27.3267 220.104 28.995 220.104 30.885ZM215.029 29.485C215.006 28.225 214.551 27.2217 213.664 26.475C212.777 25.705 211.692 25.32 210.409 25.32C209.196 25.32 208.169 25.6933 207.329 26.44C206.512 27.1633 206.011 28.1783 205.824 29.485H215.029Z" fill="#262E58"/>
<path d="M126.085 44.242V45.278H123.425V54H122.151V45.278H119.477V44.242H126.085ZM126.337 50.136C126.337 49.352 126.496 48.666 126.813 48.078C127.131 47.4807 127.565 47.0187 128.115 46.692C128.675 46.3653 129.296 46.202 129.977 46.202C130.649 46.202 131.233 46.3467 131.727 46.636C132.222 46.9253 132.591 47.2893 132.833 47.728V46.328H134.121V54H132.833V52.572C132.581 53.02 132.203 53.3933 131.699 53.692C131.205 53.9813 130.626 54.126 129.963 54.126C129.282 54.126 128.666 53.958 128.115 53.622C127.565 53.286 127.131 52.8147 126.813 52.208C126.496 51.6013 126.337 50.9107 126.337 50.136ZM132.833 50.15C132.833 49.5713 132.717 49.0673 132.483 48.638C132.25 48.2087 131.933 47.882 131.531 47.658C131.139 47.4247 130.705 47.308 130.229 47.308C129.753 47.308 129.319 47.42 128.927 47.644C128.535 47.868 128.223 48.1947 127.989 48.624C127.756 49.0533 127.639 49.5573 127.639 50.136C127.639 50.724 127.756 51.2373 127.989 51.676C128.223 52.1053 128.535 52.4367 128.927 52.67C129.319 52.894 129.753 53.006 130.229 53.006C130.705 53.006 131.139 52.894 131.531 52.67C131.933 52.4367 132.25 52.1053 132.483 51.676C132.717 51.2373 132.833 50.7287 132.833 50.15ZM136.708 47.574C136.932 47.1353 137.249 46.7947 137.66 46.552C138.08 46.3093 138.589 46.188 139.186 46.188V47.504H138.85C137.422 47.504 136.708 48.2787 136.708 49.828V54H135.434V46.328H136.708V47.574ZM142.981 46.202C143.643 46.202 144.222 46.3467 144.717 46.636C145.221 46.9253 145.594 47.2893 145.837 47.728V46.328H147.125V54.168C147.125 54.868 146.975 55.4887 146.677 56.03C146.378 56.5807 145.949 57.01 145.389 57.318C144.838 57.626 144.194 57.78 143.457 57.78C142.449 57.78 141.609 57.542 140.937 57.066C140.265 56.59 139.868 55.9413 139.747 55.12H141.007C141.147 55.5867 141.436 55.96 141.875 56.24C142.313 56.5293 142.841 56.674 143.457 56.674C144.157 56.674 144.726 56.4547 145.165 56.016C145.613 55.5773 145.837 54.9613 145.837 54.168V52.558C145.585 53.006 145.211 53.3793 144.717 53.678C144.222 53.9767 143.643 54.126 142.981 54.126C142.299 54.126 141.679 53.958 141.119 53.622C140.568 53.286 140.134 52.8147 139.817 52.208C139.499 51.6013 139.341 50.9107 139.341 50.136C139.341 49.352 139.499 48.666 139.817 48.078C140.134 47.4807 140.568 47.0187 141.119 46.692C141.679 46.3653 142.299 46.202 142.981 46.202ZM145.837 50.15C145.837 49.5713 145.72 49.0673 145.487 48.638C145.253 48.2087 144.936 47.882 144.535 47.658C144.143 47.4247 143.709 47.308 143.233 47.308C142.757 47.308 142.323 47.42 141.931 47.644C141.539 47.868 141.226 48.1947 140.993 48.624C140.759 49.0533 140.643 49.5573 140.643 50.136C140.643 50.724 140.759 51.2373 140.993 51.676C141.226 52.1053 141.539 52.4367 141.931 52.67C142.323 52.894 142.757 53.006 143.233 53.006C143.709 53.006 144.143 52.894 144.535 52.67C144.936 52.4367 145.253 52.1053 145.487 51.676C145.72 51.2373 145.837 50.7287 145.837 50.15ZM155.438 49.87C155.438 50.1127 155.424 50.3693 155.396 50.64H149.264C149.31 51.396 149.567 51.9887 150.034 52.418C150.51 52.838 151.084 53.048 151.756 53.048C152.306 53.048 152.764 52.922 153.128 52.67C153.501 52.4087 153.762 52.0633 153.912 51.634H155.284C155.078 52.3713 154.668 52.9733 154.052 53.44C153.436 53.8973 152.67 54.126 151.756 54.126C151.028 54.126 150.374 53.9627 149.796 53.636C149.226 53.3093 148.778 52.8473 148.452 52.25C148.125 51.6433 147.962 50.9433 147.962 50.15C147.962 49.3567 148.12 48.6613 148.438 48.064C148.755 47.4667 149.198 47.0093 149.768 46.692C150.346 46.3653 151.009 46.202 151.756 46.202C152.484 46.202 153.128 46.3607 153.688 46.678C154.248 46.9953 154.677 47.434 154.976 47.994C155.284 48.5447 155.438 49.17 155.438 49.87ZM154.122 49.604C154.122 49.1187 154.014 48.7033 153.8 48.358C153.585 48.0033 153.291 47.7373 152.918 47.56C152.554 47.3733 152.148 47.28 151.7 47.28C151.056 47.28 150.505 47.4853 150.048 47.896C149.6 48.3067 149.343 48.876 149.278 49.604H154.122ZM157.833 47.378V51.9C157.833 52.2733 157.913 52.5393 158.071 52.698C158.23 52.8473 158.505 52.922 158.897 52.922H159.835V54H158.687C157.978 54 157.446 53.8367 157.091 53.51C156.737 53.1833 156.559 52.6467 156.559 51.9V47.378H155.565V46.328H156.559V44.396H157.833V46.328H159.835V47.378H157.833ZM160.945 54.084C160.702 54.084 160.497 54 160.329 53.832C160.161 53.664 160.077 53.4587 160.077 53.216C160.077 52.9733 160.161 52.768 160.329 52.6C160.497 52.432 160.702 52.348 160.945 52.348C161.178 52.348 161.374 52.432 161.533 52.6C161.701 52.768 161.785 52.9733 161.785 53.216C161.785 53.4587 161.701 53.664 161.533 53.832C161.374 54 161.178 54.084 160.945 54.084ZM168.569 44.242C169.633 44.242 170.552 44.4427 171.327 44.844C172.111 45.236 172.708 45.8007 173.119 46.538C173.539 47.2753 173.749 48.1433 173.749 49.142C173.749 50.1407 173.539 51.0087 173.119 51.746C172.708 52.474 172.111 53.034 171.327 53.426C170.552 53.8087 169.633 54 168.569 54H165.531V44.242H168.569ZM168.569 52.95C169.829 52.95 170.79 52.6187 171.453 51.956C172.116 51.284 172.447 50.346 172.447 49.142C172.447 47.9287 172.111 46.9813 171.439 46.3C170.776 45.6187 169.82 45.278 168.569 45.278H166.805V52.95H168.569ZM181.589 49.87C181.589 50.1127 181.575 50.3693 181.547 50.64H175.415C175.462 51.396 175.719 51.9887 176.185 52.418C176.661 52.838 177.235 53.048 177.907 53.048C178.458 53.048 178.915 52.922 179.279 52.67C179.653 52.4087 179.914 52.0633 180.063 51.634H181.435C181.23 52.3713 180.819 52.9733 180.203 53.44C179.587 53.8973 178.822 54.126 177.907 54.126C177.179 54.126 176.526 53.9627 175.947 53.636C175.378 53.3093 174.93 52.8473 174.603 52.25C174.277 51.6433 174.113 50.9433 174.113 50.15C174.113 49.3567 174.272 48.6613 174.589 48.064C174.907 47.4667 175.35 47.0093 175.919 46.692C176.498 46.3653 177.161 46.202 177.907 46.202C178.635 46.202 179.279 46.3607 179.839 46.678C180.399 46.9953 180.829 47.434 181.127 47.994C181.435 48.5447 181.589 49.17 181.589 49.87ZM180.273 49.604C180.273 49.1187 180.166 48.7033 179.951 48.358C179.737 48.0033 179.443 47.7373 179.069 47.56C178.705 47.3733 178.299 47.28 177.851 47.28C177.207 47.28 176.657 47.4853 176.199 47.896C175.751 48.3067 175.495 48.876 175.429 49.604H180.273ZM183.705 43.64V54H182.431V43.64H183.705ZM185.694 45.082C185.452 45.082 185.246 44.998 185.078 44.83C184.91 44.662 184.826 44.4567 184.826 44.214C184.826 43.9713 184.91 43.766 185.078 43.598C185.246 43.43 185.452 43.346 185.694 43.346C185.928 43.346 186.124 43.43 186.282 43.598C186.45 43.766 186.534 43.9713 186.534 44.214C186.534 44.4567 186.45 44.662 186.282 44.83C186.124 44.998 185.928 45.082 185.694 45.082ZM186.31 46.328V54H185.036V46.328H186.31ZM190.498 52.824L192.878 46.328H194.236L191.226 54H189.742L186.732 46.328H188.104L190.498 52.824ZM201.649 49.87C201.649 50.1127 201.635 50.3693 201.607 50.64H195.475C195.522 51.396 195.779 51.9887 196.245 52.418C196.721 52.838 197.295 53.048 197.967 53.048C198.518 53.048 198.975 52.922 199.339 52.67C199.713 52.4087 199.974 52.0633 200.123 51.634H201.495C201.29 52.3713 200.879 52.9733 200.263 53.44C199.647 53.8973 198.882 54.126 197.967 54.126C197.239 54.126 196.586 53.9627 196.007 53.636C195.438 53.3093 194.99 52.8473 194.663 52.25C194.337 51.6433 194.173 50.9433 194.173 50.15C194.173 49.3567 194.332 48.6613 194.649 48.064C194.967 47.4667 195.41 47.0093 195.979 46.692C196.558 46.3653 197.221 46.202 197.967 46.202C198.695 46.202 199.339 46.3607 199.899 46.678C200.459 46.9953 200.889 47.434 201.187 47.994C201.495 48.5447 201.649 49.17 201.649 49.87ZM200.333 49.604C200.333 49.1187 200.226 48.7033 200.011 48.358C199.797 48.0033 199.503 47.7373 199.129 47.56C198.765 47.3733 198.359 47.28 197.911 47.28C197.267 47.28 196.717 47.4853 196.259 47.896C195.811 48.3067 195.555 48.876 195.489 49.604H200.333ZM203.765 47.574C203.989 47.1353 204.306 46.7947 204.717 46.552C205.137 46.3093 205.646 46.188 206.243 46.188V47.504H205.907C204.479 47.504 203.765 48.2787 203.765 49.828V54H202.491V46.328H203.765V47.574ZM207.28 54.084C207.037 54.084 206.832 54 206.664 53.832C206.496 53.664 206.412 53.4587 206.412 53.216C206.412 52.9733 206.496 52.768 206.664 52.6C206.832 52.432 207.037 52.348 207.28 52.348C207.513 52.348 207.709 52.432 207.868 52.6C208.036 52.768 208.12 52.9733 208.12 53.216C208.12 53.4587 208.036 53.664 207.868 53.832C207.709 54 207.513 54.084 207.28 54.084ZM221.763 44.312V54H220.489V46.776L217.269 54H216.373L213.139 46.762V54H211.865V44.312H213.237L216.821 52.32L220.405 44.312H221.763ZM230.084 49.87C230.084 50.1127 230.07 50.3693 230.042 50.64H223.91C223.957 51.396 224.213 51.9887 224.68 52.418C225.156 52.838 225.73 53.048 226.402 53.048C226.953 53.048 227.41 52.922 227.774 52.67C228.147 52.4087 228.409 52.0633 228.558 51.634H229.93C229.725 52.3713 229.314 52.9733 228.698 53.44C228.082 53.8973 227.317 54.126 226.402 54.126C225.674 54.126 225.021 53.9627 224.442 53.636C223.873 53.3093 223.425 52.8473 223.098 52.25C222.771 51.6433 222.608 50.9433 222.608 50.15C222.608 49.3567 222.767 48.6613 223.084 48.064C223.401 47.4667 223.845 47.0093 224.414 46.692C224.993 46.3653 225.655 46.202 226.402 46.202C227.13 46.202 227.774 46.3607 228.334 46.678C228.894 46.9953 229.323 47.434 229.622 47.994C229.93 48.5447 230.084 49.17 230.084 49.87ZM228.768 49.604C228.768 49.1187 228.661 48.7033 228.446 48.358C228.231 48.0033 227.937 47.7373 227.564 47.56C227.2 47.3733 226.794 47.28 226.346 47.28C225.702 47.28 225.151 47.4853 224.694 47.896C224.246 48.3067 223.989 48.876 223.924 49.604H228.768ZM230.45 50.136C230.45 49.352 230.608 48.666 230.926 48.078C231.243 47.4807 231.677 47.0187 232.228 46.692C232.788 46.3653 233.408 46.202 234.09 46.202C234.762 46.202 235.345 46.3467 235.84 46.636C236.334 46.9253 236.703 47.2893 236.946 47.728V46.328H238.234V54H236.946V52.572C236.694 53.02 236.316 53.3933 235.812 53.692C235.317 53.9813 234.738 54.126 234.076 54.126C233.394 54.126 232.778 53.958 232.228 53.622C231.677 53.286 231.243 52.8147 230.926 52.208C230.608 51.6013 230.45 50.9107 230.45 50.136ZM236.946 50.15C236.946 49.5713 236.829 49.0673 236.596 48.638C236.362 48.2087 236.045 47.882 235.644 47.658C235.252 47.4247 234.818 47.308 234.342 47.308C233.866 47.308 233.432 47.42 233.04 47.644C232.648 47.868 232.335 48.1947 232.102 48.624C231.868 49.0533 231.752 49.5573 231.752 50.136C231.752 50.724 231.868 51.2373 232.102 51.676C232.335 52.1053 232.648 52.4367 233.04 52.67C233.432 52.894 233.866 53.006 234.342 53.006C234.818 53.006 235.252 52.894 235.644 52.67C236.045 52.4367 236.362 52.1053 236.596 51.676C236.829 51.2373 236.946 50.7287 236.946 50.15ZM242.263 54.126C241.675 54.126 241.147 54.028 240.681 53.832C240.214 53.6267 239.845 53.3467 239.575 52.992C239.304 52.628 239.155 52.2127 239.127 51.746H240.443C240.48 52.1287 240.657 52.4413 240.975 52.684C241.301 52.9267 241.726 53.048 242.249 53.048C242.734 53.048 243.117 52.9407 243.397 52.726C243.677 52.5113 243.817 52.2407 243.817 51.914C243.817 51.578 243.667 51.3307 243.369 51.172C243.07 51.004 242.608 50.8407 241.983 50.682C241.413 50.5327 240.947 50.3833 240.583 50.234C240.228 50.0753 239.92 49.8467 239.659 49.548C239.407 49.24 239.281 48.8387 239.281 48.344C239.281 47.952 239.397 47.5927 239.631 47.266C239.864 46.9393 240.195 46.6827 240.625 46.496C241.054 46.3 241.544 46.202 242.095 46.202C242.944 46.202 243.63 46.4167 244.153 46.846C244.675 47.2753 244.955 47.8633 244.993 48.61H243.719C243.691 48.2087 243.527 47.8867 243.229 47.644C242.939 47.4013 242.547 47.28 242.053 47.28C241.595 47.28 241.231 47.378 240.961 47.574C240.69 47.77 240.555 48.0267 240.555 48.344C240.555 48.596 240.634 48.806 240.793 48.974C240.961 49.1327 241.166 49.2633 241.409 49.366C241.661 49.4593 242.006 49.5667 242.445 49.688C242.995 49.8373 243.443 49.9867 243.789 50.136C244.134 50.276 244.428 50.4907 244.671 50.78C244.923 51.0693 245.053 51.4473 245.063 51.914C245.063 52.334 244.946 52.712 244.713 53.048C244.479 53.384 244.148 53.65 243.719 53.846C243.299 54.0327 242.813 54.126 242.263 54.126ZM252.825 46.328V54H251.551V52.866C251.308 53.258 250.968 53.566 250.529 53.79C250.1 54.0047 249.624 54.112 249.101 54.112C248.504 54.112 247.967 53.9907 247.491 53.748C247.015 53.496 246.637 53.1227 246.357 52.628C246.086 52.1333 245.951 51.5313 245.951 50.822V46.328H247.211V50.654C247.211 51.41 247.402 51.9933 247.785 52.404C248.168 52.8053 248.69 53.006 249.353 53.006C250.034 53.006 250.571 52.796 250.963 52.376C251.355 51.956 251.551 51.3447 251.551 50.542V46.328H252.825ZM255.41 47.574C255.634 47.1353 255.951 46.7947 256.362 46.552C256.782 46.3093 257.291 46.188 257.888 46.188V47.504H257.552C256.124 47.504 255.41 48.2787 255.41 49.828V54H254.136V46.328H255.41V47.574ZM265.519 49.87C265.519 50.1127 265.505 50.3693 265.477 50.64H259.345C259.391 51.396 259.648 51.9887 260.115 52.418C260.591 52.838 261.165 53.048 261.837 53.048C262.387 53.048 262.845 52.922 263.209 52.67C263.582 52.4087 263.843 52.0633 263.993 51.634H265.365C265.159 52.3713 264.749 52.9733 264.133 53.44C263.517 53.8973 262.751 54.126 261.837 54.126C261.109 54.126 260.455 53.9627 259.877 53.636C259.307 53.3093 258.859 52.8473 258.533 52.25C258.206 51.6433 258.043 50.9433 258.043 50.15C258.043 49.3567 258.201 48.6613 258.519 48.064C258.836 47.4667 259.279 47.0093 259.849 46.692C260.427 46.3653 261.09 46.202 261.837 46.202C262.565 46.202 263.209 46.3607 263.769 46.678C264.329 46.9953 264.758 47.434 265.057 47.994C265.365 48.5447 265.519 49.17 265.519 49.87ZM264.203 49.604C264.203 49.1187 264.095 48.7033 263.881 48.358C263.666 48.0033 263.372 47.7373 262.999 47.56C262.635 47.3733 262.229 47.28 261.781 47.28C261.137 47.28 260.586 47.4853 260.129 47.896C259.681 48.3067 259.424 48.876 259.359 49.604H264.203ZM266.766 54.084C266.524 54.084 266.318 54 266.15 53.832C265.982 53.664 265.898 53.4587 265.898 53.216C265.898 52.9733 265.982 52.768 266.15 52.6C266.318 52.432 266.524 52.348 266.766 52.348C267 52.348 267.196 52.432 267.354 52.6C267.522 52.768 267.606 52.9733 267.606 53.216C267.606 53.4587 267.522 53.664 267.354 53.832C267.196 54 267 54.084 266.766 54.084Z" fill="#F26122"/>
<defs>
<linearGradient id="paint0_linear" x1="22.5" y1="12" x2="41.5" y2="44.5" gradientUnits="userSpaceOnUse">
<stop stop-color="#F7941E"/>
<stop offset="1" stop-color="#F26122"/>
</linearGradient>
</defs>
</svg>
