<svg width="101" height="22" viewBox="0 0 101 22" fill="none" xmlns="http://www.w3.org/2000/svg">
<path d="M13.4897 13.4888H0V21.9932H13.4897V13.4888Z" fill="#4E6DB4"/>
<path d="M22.0835 0H8.59375V8.5044H22.0835V0Z" fill="#EF3D69"/>
<path d="M8.5044 0H0V13.4897H8.5044V0Z" fill="#F8951D"/>
<path d="M22.1763 8.5083H13.6719V21.998H22.1763V8.5083Z" fill="#90BE3E"/>
<path d="M8.59375 8.50426H10.4413L8.59375 0.146484V8.50426V8.50426Z" fill="#CE2E55"/>
<path d="M13.6719 8.5083V10.3558L22.0296 8.5083H13.6719V8.5083Z" fill="#779D3E"/>
<path d="M13.5663 13.4888H11.7188L13.5663 21.8465V13.4888Z" fill="#425FAB"/>
<path d="M8.35777 13.493V11.6455L0 13.493H8.35777Z" fill="#CB7B29"/>
<path d="M30.4688 17.8576V4.1626H35.9819C38.7385 4.1626 40.2635 6.03943 40.2635 8.29749C40.2635 10.5556 38.7092 12.4324 35.9819 12.4324H32.1696V17.8869H30.4688V17.8576V17.8576ZM38.5039 8.29749C38.5039 6.74324 37.3896 5.68752 35.7767 5.68752H32.1696V10.9075H35.7767C37.3896 10.9075 38.5039 9.85175 38.5039 8.29749V8.29749Z" fill="#646464"/>
<path d="M42.5781 17.8576V4.1626H44.1324V17.8576H42.5781Z" fill="#646464"/>
<path d="M53.2292 17.8615V16.7178C52.4375 17.6269 51.2938 18.0961 49.9448 18.0961C48.2732 18.0961 46.4844 16.9524 46.4844 14.8116C46.4844 12.5829 48.2439 11.5565 49.9448 11.5565C51.2938 11.5565 52.4375 11.9964 53.2292 12.9055V11.1166C53.2292 9.79696 52.1735 9.03449 50.7366 9.03449C49.5342 9.03449 48.5665 9.44505 47.6867 10.4128L46.9829 9.35707C48.0386 8.2427 49.329 7.71484 50.9419 7.71484C53.0533 7.71484 54.7835 8.65326 54.7835 11.058V17.8615H53.2292V17.8615ZM53.2292 15.7794V13.9025C52.6427 13.1107 51.587 12.7002 50.5313 12.7002C49.065 12.7002 48.068 13.6093 48.068 14.8703C48.068 16.1313 49.065 17.0404 50.5313 17.0404C51.587 17.011 52.6427 16.6005 53.2292 15.7794Z" fill="#646464"/>
<path d="M57.8136 20.3515C58.0482 20.4688 58.4002 20.5274 58.6641 20.5274C59.3386 20.5274 59.8078 20.2928 60.1304 19.4717L60.7755 17.9761L56.6406 7.94678H58.3122L61.5966 16.0699L64.9104 7.94678H66.582L61.626 19.8823C61.0394 21.3192 60.0131 21.8764 58.7227 21.9057C58.4002 21.9057 57.8723 21.8471 57.6084 21.7591L57.8136 20.3515V20.3515Z" fill="#646464"/>
<path d="M67.1875 16.5345L67.9793 15.4202C68.6244 16.1826 69.8854 16.8278 71.2344 16.8278C72.7593 16.8278 73.6098 16.124 73.6098 15.1269C73.6098 12.7222 67.4808 14.1885 67.4808 10.5228C67.4808 8.96855 68.8004 7.67822 71.1464 7.67822C72.8473 7.67822 74.0497 8.32338 74.8121 9.11517L74.079 10.1709C73.4925 9.43775 72.4074 8.90989 71.1171 8.90989C69.7681 8.90989 68.9177 9.58438 68.9177 10.4641C68.9177 12.6342 75.0467 11.1973 75.0467 15.0683C75.0467 16.7398 73.7271 18.0595 71.1758 18.0595C69.5335 18.1181 68.1846 17.5902 67.1875 16.5345V16.5345Z" fill="#646464"/>
<path d="M77.8141 15.8062V9.29594H76.1719V7.94697H77.8141V5.24902H79.3684V7.94697H81.3918V9.29594H79.3684V15.4543C79.3684 16.1874 79.6909 16.7153 80.3654 16.7153C80.8053 16.7153 81.2159 16.51 81.4211 16.2754L81.861 17.4484C81.4798 17.8297 80.9226 18.0936 80.0428 18.0936C78.5766 18.1229 77.8141 17.2725 77.8141 15.8062V15.8062Z" fill="#646464"/>
<path d="M82.8125 12.9055C82.8125 10.0316 84.8653 7.71484 87.7099 7.71484C90.7011 7.71484 92.4606 10.0609 92.4606 13.0228V13.404H84.4547C84.572 15.2808 85.8624 16.8351 88.0031 16.8351C89.1468 16.8351 90.2905 16.3952 91.0823 15.5741L91.8154 16.5712C90.8184 17.5682 89.4694 18.1254 87.8858 18.1254C84.9239 18.1254 82.8125 16.014 82.8125 12.9055ZM87.6805 8.97584C85.5691 8.97584 84.5134 10.7647 84.4254 12.2603H90.9357C90.9357 10.794 89.9386 8.97584 87.6805 8.97584V8.97584Z" fill="#646464"/>
<path d="M95.3125 17.8615V7.94945H96.8668V9.53303C97.6585 8.50663 98.8022 7.71484 100.181 7.71484V9.29842C100.005 9.2691 99.7993 9.2691 99.594 9.2691C98.6263 9.2691 97.336 10.0609 96.8961 10.8527V17.8615H95.3125V17.8615Z" fill="#646464"/>
</svg>
