<svg width="201" height="42" viewBox="0 0 201 42" fill="none" xmlns="http://www.w3.org/2000/svg">
<path d="M56.872 14.8H52.424V26H54.424V22.384H56.872C59.464 22.384 61.032 20.832 61.032 18.592C61.032 16.352 59.464 14.8 56.872 14.8ZM56.856 20.512H54.424V16.672H56.856C58.216 16.672 58.968 17.36 58.968 18.592C58.968 19.824 58.216 20.512 56.856 20.512ZM68.5652 24.144V14.8H66.5652V26H74.2292V24.144H68.5652ZM83.6106 26.208C87.2906 26.208 88.3146 23.952 88.3146 20.896V14.8H86.2826V20.896C86.2826 23.392 85.5306 24.288 83.6106 24.288C81.6746 24.288 80.9386 23.36 80.9386 20.896V14.8H78.9066V20.896C78.9066 24.016 79.9786 26.208 83.6106 26.208ZM100.939 26H103.371L100.347 21.584C102.075 21.216 103.083 19.952 103.083 18.24C103.083 16.208 101.659 14.8 99.3066 14.8H94.3946V26H96.3946V21.68H98.1546L100.939 26ZM96.3946 16.672H99.2746C100.411 16.672 101.003 17.232 101.003 18.24C101.003 19.248 100.411 19.808 99.2746 19.808H96.3946V16.672ZM116.727 26H118.871L114.375 14.8H112.087L107.591 26H109.735L110.775 23.28H115.687L116.727 26ZM111.495 21.424L113.239 16.896L114.967 21.424H111.495ZM126.083 24.144V14.8H124.083V26H131.747V24.144H126.083ZM141.023 26.208C143.711 26.208 145.487 24.848 145.487 22.768C145.487 20.224 142.735 19.728 141.247 19.472C139.327 19.152 138.719 18.8 138.719 18C138.719 17.056 139.503 16.448 141.119 16.448C142.207 16.448 143.247 16.736 144.271 17.36L145.215 15.696C144.063 14.992 142.735 14.592 141.215 14.592C139.119 14.592 136.591 15.36 136.591 18.208C136.591 19.952 137.551 20.704 140.911 21.392C142.207 21.632 143.343 21.792 143.343 22.864C143.343 23.84 142.415 24.352 141.071 24.352C139.743 24.352 138.191 23.824 137.215 23.088L136.255 24.768C137.039 25.344 138.975 26.208 141.023 26.208ZM153.163 14.8H151.163V26H153.163V14.8ZM170.102 20.592C170.102 20.192 170.086 20.016 170.054 19.84H164.566V21.568H167.91C167.574 23.376 166.278 24.288 164.566 24.288C162.31 24.288 160.79 22.688 160.79 20.384C160.79 18.096 162.294 16.512 164.566 16.512C165.75 16.512 166.774 16.944 167.51 17.824L169.014 16.496C167.942 15.248 166.326 14.592 164.566 14.592C161.27 14.592 158.726 16.912 158.726 20.384C158.726 23.824 161.206 26.208 164.55 26.208C167.782 26.208 170.134 23.952 170.102 20.592ZM183.264 14.8V19.408H177.664V14.8H175.664V26H177.664V21.264H183.264V26H185.248V14.8H183.264ZM199.718 14.8H190.47V16.656H194.086V26H196.086V16.656H199.718V14.8Z" fill="black"/>
<path fill-rule="evenodd" clip-rule="evenodd" d="M41.3008 20.65C41.3008 32.0547 32.0547 41.3 20.6484 41.3C9.24609 41.3 0 32.0547 0 20.65C0 9.24533 9.24609 0 20.6484 0C32.0547 0 41.3008 9.24533 41.3008 20.65ZM17.0742 15.8578L25.5742 20.765L17.0742 25.6722V28.437L30.3633 20.765L17.0742 13.09V15.8578ZM15.2891 14.8272V10L33.9336 20.765L15.2891 31.531V26.7029L11 29.179V12.351L15.2891 14.8272ZM15.2891 24.6443L12.7852 26.09V15.441L15.2891 16.8864V24.6443ZM17.0742 23.6136V17.917L22.0078 20.765L17.0742 23.6136Z" fill="url(#paint0_linear)"/>
<defs>
<linearGradient id="paint0_linear" x1="12" y1="2.99842e-07" x2="28" y2="41" gradientUnits="userSpaceOnUse">
<stop stop-color="#F05A28"/>
<stop offset="1" stop-color="#EB0289"/>
</linearGradient>
</defs>
</svg>
