<svg width="165" height="50" viewBox="0 0 165 50" fill="none" xmlns="http://www.w3.org/2000/svg">
<path d="M81.3943 50V49.9188C81.4764 49.8173 81.6201 49.7563 81.7433 49.7766C82.3386 49.7563 82.9134 49.7563 83.5087 49.7766C83.6319 49.7766 83.7756 49.8173 83.8577 49.9188V50H81.3943Z" fill="#D1EFFA"/>
<path d="M83.8575 49.9188C83.0364 49.8985 82.2153 49.8985 81.3941 49.9188C80.2651 49.8579 79.136 49.8173 78.007 49.736C75.0099 49.5127 72.0333 49.066 69.1183 48.396C59.039 46.0812 50.1913 41.4315 42.4728 34.6701C41.7543 34.0407 41.0768 33.3909 40.3789 32.7412C40.2147 32.5991 40.071 32.396 39.9889 32.193C39.8657 31.9087 39.9273 31.6041 40.1326 31.3808C40.3378 31.1574 40.6663 31.0762 40.9537 31.1981C41.1384 31.2793 41.3232 31.3605 41.4874 31.462C48.857 35.9696 56.904 39.2589 65.3411 41.2082C68.174 41.8579 71.0274 42.3655 73.9014 42.731C78.0275 43.2386 82.1947 43.4214 86.3414 43.2792C88.579 43.2183 90.796 43.0153 93.0131 42.731C98.1862 42.0813 103.298 40.9239 108.245 39.2995C110.852 38.4468 113.398 37.4721 115.881 36.3351C116.251 36.132 116.703 36.0711 117.113 36.1727C117.791 36.3351 118.201 37.0254 118.037 37.6955C118.016 37.7767 117.975 37.8782 117.934 37.9594C117.77 38.264 117.544 38.528 117.257 38.731C114.896 40.5584 112.351 42.1625 109.661 43.5026C104.591 46.0406 99.1715 47.8477 93.5879 48.8833C90.3649 49.4518 87.1215 49.797 83.8575 49.9188Z" fill="#00A8E1"/>
<path d="M53.4553 8.76158C53.9685 8.45701 54.5023 8.13214 55.0565 7.84788C56.4935 7.11692 58.0947 6.75144 59.7164 6.83265C60.8865 6.89357 61.954 7.21844 62.7751 8.07123C63.5552 8.8631 63.8426 9.83772 63.9247 10.8936C63.9452 11.1169 63.9452 11.3403 63.9452 11.5839V22.1016C63.9452 23.0153 63.822 23.1372 62.8983 23.1372H60.3938C60.2296 23.1372 60.0654 23.1372 59.9011 23.1169C59.6548 23.0965 59.4495 22.8935 59.4085 22.6499C59.3674 22.4265 59.3674 22.2032 59.3674 21.9798V12.5788C59.388 12.193 59.3469 11.8276 59.2443 11.4621C59.08 10.8326 58.5052 10.3859 57.8483 10.3453C56.6372 10.2641 55.426 10.5078 54.3175 11.0154C54.1533 11.056 54.0506 11.2184 54.0712 11.3809V22.061C54.0712 22.2641 54.0712 22.4468 54.0301 22.6499C54.0301 22.9341 53.8043 23.1372 53.5169 23.1372C53.209 23.1575 52.9011 23.1575 52.5726 23.1575H50.3966C49.6371 23.1575 49.4729 22.9747 49.4729 22.2235V12.6194C49.4729 12.2743 49.4523 11.9088 49.3702 11.5636C49.2265 10.8732 48.6312 10.3859 47.9332 10.3453C46.7016 10.2641 45.4493 10.5078 44.3408 11.0357C44.1766 11.0763 44.0739 11.259 44.115 11.4215V22.2438C44.115 22.995 43.9508 23.1575 43.1912 23.1575H40.4405C39.722 23.1575 39.5372 22.9544 39.5372 22.2641V8.17275C39.5372 8.01031 39.5578 7.84788 39.5988 7.68544C39.6809 7.44179 39.9273 7.29966 40.1736 7.29966H42.7396C43.1091 7.29966 43.3349 7.52301 43.4581 7.86818C43.5607 8.15245 43.6223 8.4164 43.725 8.72097C43.9303 8.72097 44.0534 8.57884 44.1971 8.49762C45.3262 7.80727 46.5168 7.21844 47.8511 6.97479C48.8775 6.77174 49.9039 6.77174 50.9304 6.97479C51.8952 7.17783 52.7574 7.74636 53.3116 8.55854C53.3527 8.61945 53.3937 8.66006 53.4348 8.70067C53.4143 8.72097 53.4348 8.72097 53.4553 8.76158Z" fill="#00A8E1"/>
<path d="M96.0102 18.8732C96.1333 18.4671 96.2565 18.0814 96.3797 17.6753C97.324 14.5281 98.2683 11.4012 99.2126 8.25398L99.3357 7.8885C99.4384 7.52302 99.7874 7.29967 100.157 7.29967H103.277C104.057 7.29967 104.221 7.52302 103.955 8.25398L102.723 11.4824C101.347 15.0154 99.9721 18.5687 98.5967 22.1016C98.5557 22.2235 98.4941 22.3453 98.453 22.4671C98.3093 22.8935 97.8782 23.1778 97.4266 23.1372C96.5234 23.1169 95.6201 23.1169 94.7169 23.1372C94.0805 23.1575 93.711 22.8732 93.4852 22.3047C92.972 20.9646 92.4383 19.6042 91.9251 18.2641C90.6934 15.0763 89.4412 11.8885 88.2095 8.68037C88.0863 8.43672 88.0042 8.15246 87.9426 7.8885C87.881 7.48241 88.0247 7.27936 88.4353 7.27936C89.6054 7.25906 90.7755 7.27936 91.9251 7.27936C92.4177 7.27936 92.6436 7.60424 92.7667 8.03063C92.9925 8.8022 93.2183 9.59408 93.4647 10.3656C94.3063 13.188 95.1275 16.0306 95.9691 18.8529C95.9486 18.8732 95.9691 18.8732 96.0102 18.8732Z" fill="#232F3E"/>
<path d="M23.1148 9.53315C23.2585 9.49254 23.3816 9.41132 23.4637 9.28949C23.8333 8.92401 24.2233 8.57884 24.6338 8.25397C25.7013 7.44179 27.0356 7.0357 28.37 7.13722C28.9037 7.15752 29.0885 7.31996 29.1295 7.82757C29.1706 8.51792 29.15 9.22858 29.15 9.91893C29.1706 10.2032 29.15 10.4672 29.109 10.7514C29.0269 11.1169 28.8832 11.259 28.5137 11.2996C28.2263 11.3199 27.9594 11.2996 27.672 11.2793C26.2966 11.1575 24.9623 11.4215 23.669 11.8479C23.3816 11.9494 23.3816 12.1524 23.3816 12.3758V22.1219C23.3816 22.3047 23.3816 22.4671 23.3611 22.6498C23.3406 22.9138 23.1353 23.1169 22.8684 23.1169C22.7247 23.1372 22.5605 23.1372 22.4168 23.1372H19.7481C19.6045 23.1372 19.4402 23.1372 19.2965 23.1169C19.0297 23.0965 18.8244 22.8732 18.8039 22.6092C18.7833 22.4468 18.7833 22.2844 18.7833 22.1219V8.31488C18.7833 7.38087 18.886 7.27935 19.8303 7.27935H21.801C22.3347 7.27935 22.581 7.46209 22.7247 7.9697C22.8684 8.47731 22.9916 8.98493 23.1148 9.53315Z" fill="#00A8E1"/>
<path d="M119.145 30.1219C120.5 30.1625 121.835 30.2437 123.148 30.5889C123.518 30.6904 123.867 30.8123 124.216 30.9747C124.688 31.1574 124.996 31.6041 125.057 32.0914C125.14 32.66 125.16 33.2488 125.119 33.8376C124.852 37.3097 123.764 40.6599 121.958 43.6447C121.301 44.7208 120.5 45.6954 119.576 46.5482C119.392 46.731 119.166 46.8731 118.92 46.9543C118.53 47.0558 118.283 46.8528 118.263 46.467C118.283 46.264 118.324 46.0609 118.406 45.8579C119.125 43.9493 119.823 42.0609 120.377 40.0914C120.706 39.0153 120.931 37.9188 121.075 36.8021C121.116 36.396 121.137 35.9899 121.096 35.5838C121.075 34.8935 120.623 34.3046 119.946 34.1016C119.31 33.8985 118.653 33.7767 117.975 33.7361C116.087 33.6549 114.198 33.7361 112.33 33.9798L109.846 34.2843C109.579 34.3046 109.333 34.2843 109.189 34.0407C109.046 33.797 109.107 33.5534 109.251 33.3097C109.415 33.0864 109.62 32.8833 109.867 32.7412C111.386 31.665 113.09 31.0153 114.896 30.5889C116.292 30.3046 117.708 30.1625 119.145 30.1219Z" fill="#00A8E1"/>
<path d="M110.544 15.2184V22.528C110.503 22.9341 110.318 23.1169 109.908 23.1372C108.799 23.1575 107.711 23.1575 106.603 23.1372C106.192 23.1372 106.007 22.9341 105.966 22.5483C105.946 22.4265 105.946 22.2844 105.946 22.1626V8.11185C105.966 7.48241 106.131 7.29967 106.767 7.29967H109.723C110.359 7.29967 110.544 7.48241 110.544 8.11185V15.2184Z" fill="#232F3E"/>
<path d="M31.1207 15.1778V7.96971C31.1413 7.4824 31.326 7.29966 31.8187 7.27936C32.8862 7.25905 33.9536 7.25905 35.0211 7.27936C35.4932 7.27936 35.6369 7.42149 35.678 7.88849C35.6985 8.07123 35.6985 8.23367 35.6985 8.41641V21.9392C35.6985 22.1625 35.678 22.3859 35.6575 22.6092C35.6369 22.8732 35.4317 23.0559 35.1648 23.0762C35.0416 23.0966 34.939 23.0966 34.8158 23.0966H31.9624C31.8598 23.0966 31.7776 23.0966 31.675 23.0762C31.3876 23.0559 31.1413 22.8326 31.1207 22.5483C31.1002 22.3859 31.1002 22.2235 31.1002 22.061C31.1207 19.8072 31.1207 17.4925 31.1207 15.1778Z" fill="#00A8E1"/>
<path d="M33.5019 0.0103296C33.8303 -0.0099749 34.1588 0.0509386 34.4667 0.152461C35.5752 0.517942 36.15 1.47225 36.0474 2.71083C35.9653 3.76666 35.1647 4.61945 34.0972 4.78188C33.6456 4.8631 33.1734 4.8631 32.7218 4.78188C31.5517 4.55854 30.6895 3.70575 30.7716 2.24382C30.8948 0.802205 31.8596 0.0103296 33.5019 0.0103296Z" fill="#00A8E1"/>
<path d="M108.265 0.0103485C108.676 -0.0302604 109.087 0.0509575 109.477 0.213393C110.277 0.517961 110.831 1.24892 110.873 2.10171C111.037 3.94942 109.785 4.88343 108.122 4.84282C107.896 4.84282 107.67 4.80221 107.444 4.7616C106.172 4.45703 105.515 3.48242 105.638 2.08141C105.74 0.96466 106.623 0.132175 107.834 0.030653C107.978 0.0103485 108.122 -0.00995594 108.265 0.0103485Z" fill="#232F3E"/>
<path d="M15.7451 13.5128C15.663 12.457 15.3756 11.4215 14.9445 10.4672C14.1028 8.72097 12.8096 7.44179 10.8389 6.99509C8.58077 6.50778 6.54848 6.99509 4.70095 8.35549C4.57778 8.47732 4.43408 8.57884 4.26986 8.66006C4.2288 8.63975 4.18774 8.61945 4.18774 8.59914C4.12616 8.3961 4.0851 8.19305 4.02352 7.99001C3.85929 7.4824 3.65401 7.29966 3.09975 7.29966C2.48391 7.29966 1.84753 7.31996 1.23169 7.29966C0.759542 7.27935 0.32845 7.34026 0 7.70575C0 14.8123 0 21.9392 0.0205282 29.0255C0.287394 29.4519 0.697957 29.5331 1.1701 29.5128C1.90912 29.4925 2.64813 29.5128 3.38715 29.5128C4.68042 29.5128 4.68042 29.5128 4.68042 28.2539V22.4671C4.68042 22.325 4.61883 22.1625 4.76253 22.0407C5.78894 22.8326 7.04116 23.3199 8.33443 23.4417C10.1409 23.6245 11.7832 23.1778 13.1585 21.9595C14.1644 21.0458 14.9034 19.8681 15.2935 18.5686C15.8477 16.9037 15.8888 15.2184 15.7451 13.5128ZM10.8389 17.7159C10.6952 18.3453 10.3667 18.9138 9.89457 19.3402C9.36084 19.7869 8.70394 20.0509 8.00598 20.0509C6.95904 20.1118 5.93264 19.8884 5.00887 19.4011C4.78306 19.2996 4.63936 19.0763 4.65989 18.8326V15.1575C4.65989 13.9392 4.68042 12.721 4.65989 11.5027C4.63936 11.2184 4.80359 10.9748 5.07045 10.8732C6.1995 10.3453 7.36961 10.1017 8.6013 10.3453C9.46348 10.4672 10.2025 11.0154 10.5515 11.8073C10.8594 12.457 11.0441 13.1677 11.0852 13.8783C11.2084 15.1778 11.2084 16.4773 10.8389 17.7159Z" fill="#00A8E1"/>
<path d="M164.266 13.9595V14.0407C164.184 13.9595 164.143 13.8377 164.184 13.7362V13.5737C164.184 13.5737 164.184 13.5534 164.205 13.5534H164.184V13.3504H164.225C164.225 13.3301 164.205 13.3301 164.205 13.3098C164.164 12.924 164.082 12.5382 163.979 12.1727C163.219 9.49254 161.516 7.72605 158.744 7.0357C157.451 6.73113 156.137 6.69052 154.823 6.89357C152.052 7.29966 150.061 8.76158 149.096 11.3606C148.152 13.8377 148.172 16.5585 149.117 19.0357C149.938 21.2895 151.58 22.7108 153.941 23.2996C155.193 23.6042 156.507 23.6854 157.8 23.5026C162.111 22.995 163.897 19.7666 164.184 16.9646H164.164V16.6803C164.143 16.5585 164.123 16.457 164.246 16.3758V16.4164C164.246 16.3961 164.266 16.3555 164.287 16.3352V14.0001C164.287 13.9798 164.266 13.9798 164.266 13.9595ZM159.34 17.8174C159.216 18.2438 159.032 18.6296 158.765 18.995C158.313 19.6245 157.595 20.0306 156.815 20.0915C156.425 20.1321 156.035 20.1321 155.644 20.0509C154.782 19.8884 154.064 19.3199 153.715 18.528C153.407 17.8986 153.222 17.2082 153.161 16.5179C153.058 15.3199 153.037 14.122 153.325 12.9443C153.427 12.4773 153.633 12.0103 153.879 11.6042C154.331 10.8732 155.111 10.4062 155.973 10.3453C156.363 10.3047 156.753 10.3047 157.143 10.3859C157.964 10.5484 158.642 11.0763 159.011 11.8276C159.36 12.5382 159.565 13.3301 159.606 14.122C159.627 14.4874 159.647 14.8529 159.627 15.2184C159.689 16.1118 159.586 16.9849 159.34 17.8174Z" fill="#232F3E"/>
<path d="M128.28 0.152481H125.427C124.647 0.152481 124.503 0.294612 124.503 1.06618V7.64484C124.503 7.78697 124.565 7.9291 124.462 8.07123C124.277 8.05093 124.175 7.9291 124.031 7.84788C121.896 6.60931 119.659 6.38596 117.401 7.42149C115.82 8.15245 114.834 9.47224 114.198 11.0357C113.582 12.5382 113.439 14.122 113.48 15.726C113.48 17.2286 113.829 18.7108 114.506 20.0509C115.286 21.5331 116.415 22.6702 118.057 23.1575C120.295 23.8478 122.389 23.5026 124.298 22.1016C124.442 22.0204 124.524 21.8783 124.709 21.8377C124.811 22.061 124.893 22.3047 124.934 22.5483C125.016 22.8732 125.304 23.0966 125.653 23.0966H126.146C126.885 23.0966 127.603 23.1169 128.321 23.0966C128.896 23.0966 129.061 22.9138 129.081 22.325V0.924052C129.061 0.294612 128.896 0.152481 128.28 0.152481ZM124.524 15.0966V18.792C124.565 19.0357 124.421 19.259 124.195 19.3605C123.21 19.9087 122.081 20.1321 120.972 19.9697C120.028 19.8681 119.207 19.2996 118.776 18.4671C118.447 17.8174 118.263 17.127 118.201 16.4164C118.037 15.1372 118.14 13.8377 118.447 12.5991C118.55 12.254 118.673 11.9291 118.858 11.6042C119.289 10.8123 120.11 10.3047 121.013 10.2438C122.101 10.1423 123.189 10.3453 124.175 10.792C124.421 10.8733 124.565 11.1169 124.544 11.3809C124.503 12.6397 124.524 13.858 124.524 15.0966Z" fill="#232F3E"/>
<path d="M71.4379 16.4976C72.9775 16.7819 74.5582 16.8022 76.0978 16.5585C77.0011 16.4367 77.8632 16.1727 78.6638 15.7463C79.5876 15.2184 80.265 14.4874 80.5524 13.4722C81.2709 10.9139 80.1624 8.33519 77.4732 7.38088C76.1594 6.95448 74.7635 6.81235 73.3881 6.99509C70.1446 7.36057 68.0302 9.12706 67.0654 12.193C66.388 14.2844 66.4701 16.4164 67.0244 18.528C67.7429 21.2285 69.5493 22.8326 72.2796 23.4011C73.8397 23.7463 75.4204 23.6854 76.9805 23.4417C77.8016 23.2996 78.6228 23.0965 79.4028 22.792C79.875 22.6092 80.1213 22.325 80.1008 21.7971C80.0803 21.3098 80.1008 20.8021 80.1008 20.2945C80.1008 19.6854 79.8545 19.5027 79.2591 19.6448C78.6638 19.7869 78.089 19.9087 77.4937 20.0306C76.221 20.2945 74.9072 20.2945 73.6344 20.0712C71.8895 19.726 70.7605 18.2438 70.8631 16.4164C71.0479 16.4367 71.2532 16.457 71.4379 16.4976ZM70.9247 13.391C70.9863 12.9037 71.13 12.4367 71.3148 11.99C71.9306 10.5078 73.2239 10.0002 74.5377 10.0814C74.9072 10.1017 75.2767 10.1829 75.6257 10.325C76.1594 10.5484 76.5084 11.0357 76.57 11.6042C76.6315 11.9494 76.611 12.3149 76.5084 12.66C76.262 13.391 75.6667 13.6956 74.9482 13.8377C74.5171 13.9392 74.0655 13.9798 73.6139 13.9392C72.8133 13.9392 71.9922 13.8783 71.1916 13.7565C70.8837 13.7159 70.8837 13.7159 70.9247 13.391Z" fill="#00A8E1"/>
<path d="M140.679 16.7006C141.87 16.6194 143.061 16.3961 144.128 15.8275C145.216 15.2996 145.976 14.3047 146.202 13.1271C146.345 12.3961 146.345 11.6245 146.181 10.8936C145.75 9.06616 144.58 7.92911 142.814 7.34028C141.829 7.03571 140.782 6.91388 139.756 6.95449C136.307 7.03571 133.679 8.76159 132.612 12.1727C131.893 14.4265 131.996 16.7209 132.694 18.9747C133.412 21.2895 135.055 22.6905 137.395 23.3199C138.401 23.5636 139.448 23.6651 140.474 23.6245C141.973 23.6042 143.471 23.3199 144.888 22.792C145.483 22.5686 145.627 22.3656 145.627 21.7362V20.2742C145.606 19.6854 145.36 19.4824 144.765 19.6245C144.313 19.7463 143.882 19.8478 143.43 19.9494C142.055 20.2742 140.618 20.3351 139.222 20.0915C137.826 19.8275 136.882 19.0357 136.512 17.655C136.41 17.2489 136.327 16.8428 136.286 16.4164C136.389 16.4164 136.492 16.4164 136.574 16.457C137.929 16.7006 139.304 16.8022 140.679 16.7006ZM136.389 13.4519C136.533 12.6601 136.718 11.8885 137.21 11.2387C137.97 10.2438 139.017 9.95955 140.207 10.0814C140.31 10.0814 140.392 10.122 140.495 10.122C141.932 10.3453 142.281 11.4824 142.014 12.5788C141.808 13.391 141.131 13.6956 140.372 13.8377C139.961 13.9189 139.53 13.9595 139.099 13.9392C138.257 13.9189 137.436 13.858 136.615 13.7362C136.43 13.7159 136.348 13.6347 136.389 13.4519Z" fill="#232F3E"/>
</svg>
