<?xml version="1.0" encoding="utf-8"?>
<!-- Generator: Adobe Illustrator 16.0.0, SVG Export Plug-In . SVG Version: 6.00 Build 0)  -->
<!DOCTYPE svg PUBLIC "-//W3C//DTD SVG 1.1//EN" "http://www.w3.org/Graphics/SVG/1.1/DTD/svg11.dtd">
<svg version="1.1" id="Layer_1" xmlns="http://www.w3.org/2000/svg" xmlns:xlink="http://www.w3.org/1999/xlink" x="0px" y="0px"
	 width="256px" height="57px" viewBox="0 0 256 57" enable-background="new 0 0 256 57" xml:space="preserve">
<title>quickstart-logo-2</title>
<path fill="#0B3956" d="M39.567,41.602c6.904-8.301,5.818-20.558-2.482-27.46c-8.3-6.902-20.557-5.74-27.46,2.482
	c-6.904,8.223-5.741,20.557,2.482,27.46c7.214,6.051,17.764,6.051,24.978,0l-4.887-4.965c-5.508,4.188-13.343,3.026-17.532-2.481
	c-4.189-5.507-3.025-13.343,2.482-17.531c5.508-4.189,13.343-3.026,17.532,2.481c3.335,4.499,3.335,10.627,0,15.048L39.567,41.602z"
	/>
<circle fill="#D13D27" cx="24.595" cy="29.112" r="7.215"/>
<path fill="#58595B" d="M250.178,16.7c-0.933,0.931-2.406,0.931-3.259,0c-0.854-0.931-0.933-2.404,0-3.257
	c0.931-0.932,2.404-0.932,3.259,0c0.465,0.465,0.697,1.008,0.697,1.627C250.875,15.614,250.643,16.234,250.178,16.7z
	 M247.074,13.598c-0.389,0.387-0.62,0.853-0.62,1.396s0.231,1.086,0.62,1.474c0.775,0.776,2.095,0.776,2.869,0l0,0
	c0.773-0.775,0.773-2.094,0-2.869C249.169,12.744,247.928,12.744,247.074,13.598C247.074,13.52,247.074,13.598,247.074,13.598
	L247.074,13.598z M248.471,13.675c0.232,0,0.467,0,0.698,0.078c0.231,0.077,0.465,0.388,0.388,0.621
	c0,0.231-0.078,0.388-0.231,0.543c-0.078,0.077-0.232,0.077-0.388,0.155c0.153,0,0.31,0.078,0.465,0.232
	c0.076,0.155,0.154,0.233,0.154,0.389v0.154c0,0.077,0,0.155,0,0.155c0,0.077,0,0.077,0,0.155l0,0h-0.388v-0.233
	c0-0.231-0.078-0.465-0.231-0.62c-0.155-0.078-0.313-0.078-0.467-0.078h-0.311v1.008h-0.465v-2.56L248.471,13.675L248.471,13.675z
	 M248.938,14.141c-0.155-0.078-0.39-0.078-0.545-0.078h-0.389v0.931h0.389c0.155,0,0.313,0,0.465-0.077
	c0.233-0.078,0.313-0.389,0.233-0.621C249.091,14.217,249.014,14.141,248.938,14.141L248.938,14.141z"/>
<path fill="#0B3956" d="M69.355,35.316c0,6.98-4.111,10.396-11.093,10.396c-6.981,0-11.015-3.336-11.015-10.396V19.182h5.74v16.134
	c0,2.793,0.698,5.664,5.353,5.664c4.033,0,5.352-1.707,5.352-5.664V19.182h5.74L69.355,35.316z"/>
<path fill="#0B3956" d="M71.527,19.182h5.74v25.91h-5.74V19.182z"/>
<path fill="#0B3956" d="M90.998,45.169c-7.292,0.077-13.265-5.739-13.342-13.032c-0.078-7.291,5.74-13.265,13.032-13.343
	c4.81-0.078,9.308,2.56,11.636,6.826c-2.25,1.164-2.405,1.241-4.887,2.481c-1.396-2.326-3.879-3.724-6.516-3.724
	c-4.267,0-7.68,3.414-7.68,7.682c0,4.267,3.413,7.68,7.68,7.68c2.792,0,5.43-1.553,6.749-4.033c2.482,1.24,2.561,1.396,4.888,2.48
	C100.384,42.454,95.885,45.169,90.998,45.169z"/>
<path fill="#0B3956" d="M126.216,45.092h-7.835l-6.749-7.292l-3.413,4.654v2.56h-5.818V19.105h5.818v14.738l10.162-14.738h7.059
	l-9.774,14.738L126.216,45.092z"/>
<path fill="#0B3956" d="M132.732,35.085c0.772,4.422,4.729,5.042,7.447,5.042c2.637,0,6.592-0.775,6.592-4.188
	c0-7.215-20.09-2.562-20.09-15.206c0-6.981,6.516-10.24,12.644-10.24c7.06,0,13.575,3.104,13.575,10.859l-7.215-1.008
	c-0.932-3.957-4.346-4.033-6.672-4.033s-5.119,1.008-5.119,3.801c0,2.482,1.629,3.103,10.084,5.119
	c2.481,0.621,10.008,2.173,10.008,9.853c0,6.205-4.812,10.86-14.041,10.86c-7.604,0-14.35-3.725-14.35-12.024L132.732,35.085z"/>
<path fill="#0B3956" d="M160.657,23.992h-8.222v-4.731h22.105v4.81h-8.146v21.1h-5.74L160.657,23.992L160.657,23.992z"/>
<path fill="#0B3956" d="M172.604,45.092l11.791-25.91h5.739l11.56,25.91h-5.508l-2.561-5.74h-13.109l-2.715,5.74H172.604
	L172.604,45.092z M187.343,24.068l-4.344,10.008h8.61L187.343,24.068L187.343,24.068z"/>
<path fill="#0B3956" d="M216.434,35.551l7.291,9.618h-6.979l-6.519-9.31h-2.791v9.31h-5.742V19.182h11.716
	c6.517,0,9.073,4.111,9.073,8.301c0,3.49-1.859,7.06-6.205,8.067L216.434,35.551L216.434,35.551z M207.436,23.604v7.835h4.42
	c2.715,0,4.965-0.621,4.965-3.957c0-3.334-2.25-3.879-4.965-3.879H207.436z"/>
<path fill="#0B3956" d="M231.715,23.992h-8.224v-4.731H245.6v4.81h-8.146v21.1h-5.662V23.993L231.715,23.992L231.715,23.992z"/>
</svg>
