<svg width="620" height="120" viewBox="0 0 620 120" fill="none" xmlns="http://www.w3.org/2000/svg">
<path fill-rule="evenodd" clip-rule="evenodd" d="M616.42 90.9529C616.42 89.6906 615.344 89.2306 614.244 89.2306H612.183V95.1047H613.237V92.6482H613.992L615.366 95.1035H616.649L615.068 92.5317C615.892 92.3482 616.418 91.7976 616.418 90.9494L616.42 90.9529ZM613.237 91.8V90.1259H614.198C614.75 90.1259 615.367 90.2859 615.367 90.9282C615.367 91.6388 614.681 91.7988 614.085 91.7988H613.24L613.237 91.8ZM614.22 86.9823C611.335 86.9823 609.001 89.3 609.001 92.1906C609.001 95.0812 611.335 97.3529 614.22 97.3529C617.105 97.3529 619.442 95.0823 619.442 92.1906C619.442 89.2988 617.105 86.9823 614.22 86.9823ZM614.22 96.5941C611.794 96.5941 609.824 94.5988 609.824 92.1906C609.824 89.7588 611.794 87.7859 614.22 87.7859C616.649 87.7859 618.618 89.7588 618.618 92.1906C618.618 94.5988 616.649 96.5953 614.22 96.5953V96.5941ZM278.343 87.8623C270.707 87.8623 266.857 81.027 266.857 74.4153C266.857 67.8059 271.035 61.26 277.977 61.26C281.23 61.26 285.34 62.8953 286.954 65.1929L295.039 57.1223C291.126 52.9906 284.887 50.5247 277.977 50.5247C263.918 50.5247 253.712 60.6341 253.712 74.5623C253.712 88.7153 263.804 98.6012 278.254 98.6012C285.128 98.6012 291.482 96.5847 295.249 92.527L287.385 84.0717C285.569 86.2882 281.76 87.8635 278.343 87.8635V87.8623ZM233.128 97.3176H245.672V51.8047H233.128V97.3176ZM210.318 76.7576C210.318 82.1059 206.839 87.8635 200.354 87.8635C195.354 87.8635 192.686 84.2906 192.686 76.9412V51.8047H180.138V80.0518C180.138 89.4517 184.82 98.6 197.337 98.6C203.24 98.6 208.185 93.9435 210.677 90.5059H210.864V97.3176H222.859V51.8047H210.315V76.7576H210.318ZM157.51 57.5835H157.232C155.459 55.6188 150.66 50.5247 142.864 50.5247C130.074 50.5247 120.219 60.5553 120.219 74.3788C120.219 88.4141 129.313 98.6 142.263 98.6C148.142 98.6 153.665 95.4776 156.867 91.847H157.052V119.729H169.597V51.8047H157.51V57.5835ZM145.331 87.8623C137.574 87.8623 133.166 81.0788 133.166 74.38C133.166 67.9717 137.214 61.0765 145.331 61.0765C152.797 61.0765 157.418 68.0765 157.418 74.5612C157.418 81.0988 152.897 87.8623 145.332 87.8623H145.331ZM431.06 50.5235C416.785 50.5235 406.426 60.5553 406.426 74.3788C406.426 88.6823 417.016 98.7223 431.058 98.7223C445.1 98.7223 455.69 88.5859 455.69 74.3788C455.69 60.5553 445.331 50.5235 431.058 50.5235H431.06ZM431.06 87.8623C422.879 87.8623 419.153 80.8741 419.153 74.38C419.153 67.9717 422.879 61.0765 431.06 61.0765C439.239 61.0765 442.964 67.9706 442.964 74.3788C442.964 80.8729 439.239 87.8612 431.057 87.8612L431.06 87.8623ZM587.885 69.3047C581.429 67.76 579.155 66.9282 579.155 64.3106C579.155 60.6988 583.723 59.9059 585.789 59.9059C589.682 59.9059 594.08 62.2353 595.733 64.447L603.131 57.3365C599.709 53.0306 592.983 50.5247 585.881 50.5247C576.802 50.5247 567.269 55.0976 567.269 65.3176C567.269 74.0941 574.135 76.7412 580.853 78.3529C587.934 80.0059 590.458 81.2117 590.458 84.0706C590.458 88.2823 585.687 88.9706 584.047 88.9706C579.943 88.9706 575.187 86.6176 572.621 83.5659L565.007 91.3012C569.166 95.9247 576.286 98.7047 583.589 98.7047C595.852 98.7047 603.128 92.8482 603.128 83.1835C603.128 73.9365 594.222 70.827 587.884 69.3059L587.885 69.3047ZM564.17 51.8035H547.993L531.798 70.6894H531.518V26.7223H518.975V97.3165H531.518V74.8694H531.798L548.601 97.3165H565.108L545.58 72.4435L564.17 51.8035ZM378.159 50.5212C372.421 50.5212 368.195 53.0341 364.204 56.78H363.969V26.7212H351.428V97.3165H363.422V90.8835H363.61C366.437 95.5306 372.057 98.5988 377.885 98.5988C390.834 98.5988 400.65 88.4106 400.65 74.3776C400.65 60.5541 390.951 50.5223 378.16 50.5223L378.159 50.5212ZM375.693 87.8623C368.126 87.8623 363.604 81.0976 363.604 74.56C363.604 68.0753 368.226 61.0753 375.693 61.0753C383.809 61.0753 387.846 67.9694 387.846 74.3776C387.846 81.0776 383.449 87.86 375.693 87.86V87.8623ZM346.708 51.8035H330.529L314.334 70.6894H314.054V26.7223H301.511V97.3165H314.054V74.8694H314.334L331.137 97.3165H347.644L328.116 72.4435L346.708 51.8035ZM486.18 50.5212C471.906 50.5212 461.546 60.5541 461.546 74.3776C461.546 88.6812 472.136 98.7212 486.178 98.7212C500.219 98.7212 510.809 88.5847 510.809 74.3776C510.809 60.5541 500.45 50.5223 486.177 50.5223L486.18 50.5212ZM486.18 87.8623C477.999 87.8623 474.273 80.8717 474.273 74.3776C474.273 67.9706 477.999 61.0753 486.18 61.0753C494.358 61.0753 498.084 67.9694 498.084 74.3776C498.084 80.8717 494.358 87.86 486.177 87.86L486.18 87.8623Z" fill="black"/>
<path fill-rule="evenodd" clip-rule="evenodd" d="M106.115 53.207C106.115 82.4456 82.4577 106.148 53.2745 106.148C24.0913 106.148 0.433594 82.4456 0.433594 53.207C0.433594 23.9684 24.0913 0.265869 53.2745 0.265869C82.4577 0.265869 106.115 23.9684 106.115 53.207ZM35.6547 73.7929C24.3057 73.7929 15.1055 64.5753 15.1055 53.2047C15.1055 41.8353 24.3057 32.6165 35.6547 32.6165H50.341V87.9106C46.1254 87.9106 42.7084 84.4871 42.7084 80.2635V40.2635H35.6547C28.5318 40.2635 22.738 46.0694 22.738 53.2047C22.738 60.3412 28.5318 66.1459 35.6547 66.1459H38.5903V73.7929H35.6547ZM67.9581 32.62H70.8937C82.2416 32.62 91.443 41.8376 91.443 53.2082C91.443 64.5788 82.2416 73.7965 70.8937 73.7965H56.204V18.5023C60.4195 18.5023 63.8365 21.9259 63.8365 26.1494V66.1494H70.8937C78.0143 66.1494 83.8104 60.3435 83.8104 53.2082C83.8104 46.0729 78.0143 40.2671 70.8937 40.2671H67.9581V32.62Z" fill="#2CA01C"/>
<path fill-rule="evenodd" clip-rule="evenodd" d="M171.957 12.3212C173.885 12.3212 175.448 10.7541 175.448 8.82353C175.448 6.89177 173.886 5.32471 171.957 5.32471C170.029 5.32471 168.465 6.89177 168.465 8.82353C168.465 10.7529 170.029 12.3212 171.957 12.3212ZM151.121 14.6776C147.704 14.6776 144.959 16.7529 143.949 19.0682H143.851V15.3541H138.364V38.5118H144.141V25.7753C144.141 22.6882 145.875 19.5047 149.531 19.5047C153.242 19.5047 153.868 22.9282 153.868 25.6788V38.5118H159.645V24.0388C159.645 19.3094 157.142 14.6788 151.12 14.6788L151.121 14.6776ZM126.664 38.5106H132.441V15.3529H126.664V38.5106ZM231.739 12.3224C233.668 12.3224 235.231 10.7541 235.231 8.82353C235.231 6.89177 233.669 5.32471 231.74 5.32471C229.814 5.32471 228.25 6.89177 228.25 8.82353C228.25 10.7529 229.812 12.3212 231.741 12.3212L231.739 12.3224ZM222.372 15.34V20.4694H228.851V38.5094H234.631V20.4706H241.109V15.3412H222.372V15.34ZM212.546 38.5094H218.323V15.3529H212.546V38.5106V38.5094ZM162.589 20.4706H169.067V38.5106H174.844V20.4706H181.323V15.3412H162.588V20.4706H162.589ZM200.852 28.0906C200.852 31.1776 199.117 34.3612 195.459 34.3612C191.751 34.3612 191.126 30.9376 191.126 28.1847V15.3541H185.347V29.8271C185.347 34.5565 187.85 39.1871 193.872 39.1871C197.289 39.1871 200.034 37.1129 201.044 34.7965H201.142V38.5118H206.631V15.3529H200.854V28.0906H200.852Z" fill="black"/>
</svg>
