<svg width="225" height="47" viewBox="0 0 225 47" fill="none" xmlns="http://www.w3.org/2000/svg">
<g clip-path="url(#clip0)">
<path d="M47.4367 18.3753C45.1507 18.3753 43.6863 19.1279 43.6863 20.4698C43.6863 21.8118 45.2245 22.4012 47.5106 22.6394C50.7606 22.9155 54.9745 23.4674 54.9745 27.8697C54.9745 31.0052 52.0088 33.2376 47.4736 33.2376C44.613 33.2376 41.8634 32.6106 39.4414 30.1021L41.3693 27.5936C42.9877 29.2117 45.1715 30.1135 47.4427 30.1021C49.4075 30.1021 51.3355 29.5127 51.3355 27.9325C51.3355 26.352 49.8338 25.8317 47.2266 25.5932C43.9393 25.3174 40.0469 24.3389 40.0469 20.5762C40.0469 16.8137 44.0876 15.4153 47.3686 15.4153C49.8217 15.3675 52.2182 16.1547 54.1652 17.6477L52.2373 19.8867C50.8496 18.8632 49.1604 18.3314 47.4367 18.3753ZM67.1529 29.939C69.0066 29.939 71.1567 29.312 72.2626 28.1143L74.66 30.3467C72.8372 32.3096 69.7974 33.2376 67.085 33.2376C61.2956 33.2376 57.5821 29.7636 57.5821 24.3266C57.5821 19.1654 61.4376 15.4153 67.0109 15.4153C72.1948 15.4153 75.766 18.3378 75.766 24.1947C75.766 24.6712 75.7288 25.1918 75.6918 25.7061H61.419C61.7282 28.3525 63.8906 29.939 67.1529 29.939ZM67.0109 18.5823C64.3351 18.5823 62.0122 19.9931 61.4499 22.7461H72.1329C71.9228 20.0246 70.0693 18.5823 67.0109 18.5823ZM92.8067 23.2917C92.8067 20.3695 91.0893 18.6827 88.0554 18.6827C87.3905 18.6771 86.7316 18.8079 86.1193 19.067C85.5069 19.326 84.9542 19.7079 84.4952 20.189C84.0319 20.6746 83.6708 21.2483 83.4333 21.8761C83.1958 22.5038 83.0867 23.1728 83.1126 23.8435V32.8299H79.4051V15.829H82.7664L82.9826 18.1996C84.4514 16.4231 86.6232 15.4027 88.9083 15.4153C93.1592 15.4153 96.483 17.9617 96.483 23.2604V32.8302H92.7761L92.807 23.2917H92.8067ZM118.955 32.8302H115.489L115.272 30.1397C113.891 32.1607 111.59 33.3285 109.168 33.2376C104.058 33.2376 100.166 29.9706 100.166 24.3266C100.166 18.5444 103.984 15.4153 109.094 15.4153C111.238 15.4153 114.13 16.4124 115.272 18.4444V8.77394H118.98L118.955 32.8299V32.8302ZM103.842 24.3266C103.842 27.7691 106.27 29.939 109.403 29.939C112.447 29.939 114.914 27.4346 114.914 24.3452C114.914 21.2561 112.447 18.7514 109.403 18.7514C106.27 18.7514 103.842 20.8838 103.842 24.3266V24.3266ZM125.813 8.32273C126.108 8.2985 126.404 8.33686 126.683 8.43529C126.961 8.53372 127.216 8.69 127.43 8.89384C127.646 9.09962 127.817 9.34789 127.932 9.623C128.047 9.89811 128.104 10.1941 128.1 10.4923C128.011 11.7078 127.014 12.6484 125.813 12.6484C124.613 12.6484 123.615 11.7081 123.527 10.4923C123.523 10.1941 123.58 9.89811 123.695 9.623C123.81 9.34789 123.981 9.09962 124.197 8.89384C124.411 8.69 124.666 8.53372 124.944 8.43529C125.223 8.33686 125.519 8.2985 125.813 8.32273V8.32273ZM127.636 32.8302H123.929V15.8293H127.636V32.8302ZM145.993 23.2917C145.993 20.3695 144.282 18.6827 141.242 18.6827C140.576 18.6762 139.917 18.8064 139.304 19.0652C138.692 19.324 138.139 19.7058 137.679 20.1871C137.216 20.6729 136.855 21.2469 136.618 21.8751C136.38 22.5032 136.272 23.1726 136.299 23.8435V32.8299H132.591V15.829H135.947L136.163 18.1996C137.634 16.4231 139.808 15.4024 142.094 15.4153C146.345 15.4153 149.669 17.9617 149.669 23.2604V32.8302H145.962L145.993 23.2917V23.2917ZM158.103 18.6136C159.247 16.5815 162.144 15.4153 164.282 15.4153C169.355 15.4153 173.216 18.5508 173.216 24.3266C173.216 29.9706 169.07 33.2376 164.251 33.2376C162.033 33.2376 159.5 32.3096 158.103 30.1397L157.893 32.8302H154.427V8.77394H158.134L158.103 18.6136V18.6136ZM158.319 24.3266C158.307 25.0744 158.446 25.817 158.727 26.5101C159.007 27.2033 159.425 27.8329 159.954 28.3613C160.478 28.8848 161.104 29.2949 161.793 29.5663C162.483 29.8377 163.22 29.9646 163.961 29.939C167.18 29.939 169.522 27.7694 169.522 24.3266C169.522 20.8838 167.168 18.7514 163.961 18.7514C163.224 18.7269 162.489 18.8533 161.803 19.1227C161.117 19.3922 160.493 19.799 159.969 20.3184C159.441 20.8426 159.022 21.4674 158.739 22.1557C158.456 22.8441 158.313 23.5822 158.319 24.3266V24.3266ZM180.964 32.8302H177.257V8.77394H180.965V32.8302H180.964ZM189.503 25.0855C189.503 27.9764 191.184 29.9706 194.292 29.9706C194.952 29.9771 195.607 29.8477 196.215 29.5903C196.823 29.3328 197.371 28.953 197.826 28.4743C198.285 27.9911 198.642 27.4203 198.876 26.796C199.11 26.1716 199.215 25.5066 199.186 24.8406V15.829H202.862V32.8299H199.544L199.328 30.4849C197.828 32.3014 195.588 33.3168 193.254 33.2376C188.929 33.2376 185.839 30.2463 185.839 25.1167V15.8293H189.516L189.503 25.0855V25.0855ZM216.369 29.939C218.222 29.939 220.366 29.312 221.478 28.1143L223.869 30.3467C222.047 32.3096 219.013 33.2376 216.294 33.2376C210.511 33.2376 206.791 29.7636 206.791 24.3266C206.791 19.1654 210.653 15.4153 216.226 15.4153C221.404 15.4153 224.975 18.3378 224.975 24.1947C224.975 24.6712 224.938 25.1918 224.908 25.7061H210.616C210.944 28.3525 213.118 29.939 216.368 29.939H216.369ZM216.227 18.5823C213.545 18.5823 211.222 19.9931 210.666 22.7461H221.342C221.12 20.0246 219.26 18.5823 216.226 18.5823H216.227Z" fill="#091E3F"/>
<path fill-rule="evenodd" clip-rule="evenodd" d="M26.888 31.2586C26.0663 32.6846 24.7243 33.7371 23.1436 34.1953C23.3695 33.4197 23.4849 32.6161 23.4862 31.8083C23.4862 27.7852 20.7136 24.4109 16.9919 23.4921C17.7634 22.7375 18.716 22.1941 19.7582 21.9141C20.562 21.6953 21.4013 21.6389 22.2271 21.7482C23.053 21.8576 23.8487 22.1304 24.5679 22.5508C27.5948 24.3087 28.6354 28.2147 26.888 31.2586V31.2586ZM14.9633 38.1824C13.3077 38.1824 11.7329 37.521 10.5645 36.3917C11.3449 36.2001 12.0939 35.8981 12.789 35.495C16.2523 33.4841 17.7716 29.384 16.7041 25.6841C19.3543 26.4477 21.3018 28.9013 21.3018 31.8083C21.3018 35.3224 18.4579 38.1824 14.9633 38.1824ZM3.03806 31.2586C2.21041 29.8166 1.99616 28.1178 2.38301 26.5376C2.93807 27.118 3.57185 27.6177 4.2658 28.0219C5.55538 28.773 7.02112 29.1687 8.51352 29.1685C9.66506 29.1676 10.8045 28.9335 11.8631 28.4803C12.9218 28.0272 13.8777 27.3644 14.6734 26.5319C15.3382 29.2203 14.1985 32.1393 11.6969 33.592C10.738 34.1505 9.64815 34.4447 8.53844 34.4446C7.42221 34.445 6.32565 34.1506 5.35973 33.5912C4.39382 33.0317 3.5928 32.2271 3.03774 31.2586H3.03806ZM3.03774 17.4111C3.85955 15.985 5.20162 14.9326 6.7825 14.4744C6.55606 15.2501 6.44048 16.054 6.4392 16.8621C6.4392 20.8829 9.21053 24.2563 12.9304 25.1767C10.9475 27.1034 7.86099 27.5722 5.35818 26.1189C3.89157 25.267 2.84306 23.8928 2.40478 22.2479C2.18701 21.4397 2.13082 20.5964 2.23943 19.7665C2.34804 18.9365 2.61933 18.1361 3.03774 17.4111V17.4111ZM14.9633 10.4873C16.6196 10.4873 18.1928 11.1481 19.3603 12.2764C18.5806 12.4697 17.8322 12.7721 17.1371 13.1747C15.165 14.3201 13.7545 16.1682 13.1657 18.3801C12.7622 19.8912 12.7808 21.484 13.2194 22.9853C10.5705 22.2211 8.62458 19.7678 8.62458 16.8621C8.62458 13.347 11.4679 10.4873 14.9633 10.4873V10.4873ZM26.888 17.4111C27.7166 18.855 27.9312 20.5557 27.5418 22.1378C26.9882 21.5549 26.3548 21.0533 25.6606 20.6479C23.6885 19.5034 21.3917 19.1992 19.1921 19.7918C17.6865 20.1974 16.3224 21.0114 15.2505 22.1438C14.9877 21.0938 14.9966 19.9943 15.2764 18.9487C15.714 17.3041 16.7628 15.9294 18.2294 15.0777C19.6957 14.2267 21.4037 14.0005 23.0391 14.441C24.6745 14.8818 26.0411 15.9366 26.888 17.4111V17.4111ZM28.7803 16.3131C27.6418 14.3299 25.8038 12.9116 23.6042 12.319C23.0843 12.1797 22.5524 12.0896 22.0155 12.0502C20.4379 9.71713 17.7896 8.29028 14.9633 8.29028C12.0361 8.29028 9.44971 9.78244 7.91432 12.0492C5.11458 12.2562 2.55971 13.8497 1.14611 16.3124C0.00703596 18.2952 -0.29493 20.6056 0.293856 22.8175C0.43395 23.3398 0.622511 23.8479 0.857084 24.3352C-0.363085 26.8762 -0.267794 29.8958 1.14548 32.3576C2.60893 34.9065 5.18621 36.4113 7.90548 36.6158C9.48315 38.9507 12.1368 40.3801 14.963 40.3801C17.8899 40.3801 20.4764 38.8876 22.0114 36.6205C24.8112 36.4135 27.366 34.8207 28.7799 32.3576C30.2437 29.8081 30.2513 26.8096 29.0668 24.3393C30.2885 21.797 30.1939 18.7761 28.7799 16.3131" fill="#0092FF"/>
</g>
<defs>
<clipPath id="clip0">
<rect width="224.976" height="32.5" fill="white" transform="translate(0 8)"/>
</clipPath>
</defs>
</svg>
