<svg width="459" height="112" viewBox="0 0 459 112" fill="none" xmlns="http://www.w3.org/2000/svg">
<path d="M262.1 3.225L267.3 13.825L279 15.525C283.6 16.225 284.7 19.425 281.3 22.725L272.8 31.025L274.8 42.725C275.6 47.325 272.8 49.325 268.7 47.125L258.2 41.625L247.7 47.125C243.5 49.325 240.8 47.325 241.6 42.725L243.6 31.025L235.1 22.725C231.7 19.425 232.8 16.225 237.4 15.525L249.1 13.825L254.3 3.225C256.6 -1.075 260 -1.075 262.1 3.225Z" fill="#FAB418"/>
<path d="M24.2 111.425C16.5 111.425 10.5 109.725 6.4 106.525C2.7 103.525 0.6 99.3249 0.1 93.9249L0 93.0249H5.1C6.7 93.0249 8 94.1249 8.4 95.6249C9 98.1249 10.5 100.125 13.1 101.625C15.9 103.225 19.7 104.025 24.3 104.025C33.9 104.025 38.6 101.225 38.6 95.3249C38.6 93.4249 37.8 92.0249 36.2 90.9249C34.5 89.7249 32.2 88.7249 29.6 87.9249C26.9 87.1249 23.9 86.3249 20.8 85.6249C17.6 84.9249 14.6 84.0249 11.8 82.8249C9 81.6249 6.6 80.1249 4.7 78.2249C2.7 76.2249 1.7 73.5249 1.7 70.2249C1.7 65.6249 3.5 61.7249 7.1 58.8249C10.6 55.9249 15.9 54.5249 22.9 54.5249C29.9 54.5249 35.4 56.2249 39.3 59.4249C42.9 62.3249 44.8 66.1249 45.1 70.7249V71.6249H39.8C38.4 71.6249 37.2 70.7249 36.8 69.3249C35.9 66.0249 33.4 63.9249 29.1 62.7249C27.3 62.2249 25.1 61.9249 22.4 61.9249C19.8 61.9249 17.5 62.2249 15.7 62.8249C13.9 63.4249 12.6 64.1249 11.6 64.9249C10.7 65.7249 10.1 66.6249 9.8 67.5249C9.5 68.5249 9.3 69.6249 9.3 70.7249C9.3 71.7249 9.7 72.6249 10.6 73.5249C11.6 74.5249 12.9 75.3249 14.5 75.9249C16.2 76.6249 18.1 77.2249 20.3 77.7249C22.5 78.2249 24.8 78.8249 27.1 79.4249C29.4 80.0249 31.7 80.6249 34 81.4249C36.3 82.2249 38.4 83.1249 40.1 84.3249C44.2 86.9249 46.3 90.5249 46.3 95.0249C46.3 100.325 44.3 104.425 40.3 107.325C36.5 110.025 31 111.425 24.2 111.425Z" fill="#23282C"/>
<path d="M94 110.725H89.3C87.6 110.725 86.2 109.325 86.2 107.625V86.3249C86.2 82.8249 85.2 80.0249 83.3 77.9249C81.3 75.8249 78.8 74.8249 75.7 74.8249C72.5 74.8249 69.8 75.8249 67.6 78.0249C65.4 80.2249 64.3 82.9249 64.3 86.3249V110.625H56.5V52.0249H64.3V73.2249C65.5 71.9249 66.9 70.8249 68.4 69.8249C70.6 68.4249 73.2 67.6249 76.1 67.6249C78.9 67.6249 81.4 68.0249 83.4 68.8249C85.5 69.6249 87.3 70.8249 88.8 72.4249C92.3 75.8249 94.1 80.5249 94.1 86.1249V110.725H94Z" fill="#23282C"/>
<path d="M123.7 111.425C117.6 111.425 112.6 109.325 108.7 105.025C105 100.825 103.1 95.625 103.1 89.525C103.1 83.425 105 78.225 108.7 74.025C112.5 69.825 117.7 67.625 124.1 67.625C129.6 67.625 134.1 69.525 137.4 73.225V68.225H145.2V110.625H137.4V105.725C134.1 109.525 129.5 111.425 123.7 111.425ZM124.5 74.925C120.4 74.925 117.1 76.325 114.5 79.225C112.1 81.925 110.9 85.425 110.9 89.525C110.9 93.725 112.1 97.125 114.5 99.825C117.1 102.725 120.3 104.125 124.4 104.125C128.6 104.125 131.8 102.725 134.2 99.825C136.5 97.125 137.7 93.625 137.7 89.425C137.7 85.225 136.5 81.725 134.2 79.025C131.9 76.325 128.7 74.925 124.5 74.925Z" fill="#23282C"/>
<path d="M165.4 110.725H157.6V68.325H165.4V75.225C167 72.625 169.5 70.525 172.7 69.025C174.6 68.125 176.9 67.625 179.6 67.625H180.9V72.425C180.9 73.925 179.8 75.225 178.2 75.525C173.8 76.225 171.6 77.425 169.2 80.425C166.9 83.425 165.5 88.225 165.5 93.125V110.725H165.4Z" fill="#23282C"/>
<path d="M206.3 111.425C200 111.425 194.7 109.325 190.7 105.025C186.8 100.925 184.8 95.725 184.8 89.525C184.8 83.325 186.7 78.125 190.4 74.025C194.4 69.825 199.5 67.625 205.8 67.625C212.1 67.625 217.3 69.725 221.2 74.025C224.9 78.125 226.8 83.325 226.8 89.525V92.825H192.8C193.3 95.925 194.7 98.525 196.9 100.625C199.4 103.025 202.4 104.125 206.2 104.125C211 104.125 214.4 102.325 216.7 98.725C217.3 97.825 218.2 97.325 219.3 97.325H225.9L225.5 98.525C224 102.325 221.7 105.525 218.5 107.825C215.4 110.225 211.3 111.425 206.3 111.425ZM193 85.425H218.7C218.1 82.525 216.8 80.025 214.7 78.225C212.3 76.025 209.3 74.925 205.8 74.925C202.3 74.925 199.3 76.025 196.9 78.225C195 80.025 193.6 82.525 193 85.425Z" fill="#23282C"/>
<path d="M286.3 110.725H279.7C278.5 110.725 277.3 110.025 276.8 108.825L271 95.125H245.4L239.6 108.825C239.1 109.925 238 110.725 236.7 110.725H230.1L252.5 58.025C253.3 56.225 255 55.125 256.9 55.125H259.3C261.2 55.125 263 56.225 263.7 58.025L286.3 110.725ZM248.6 87.825H268L258.3 64.625L248.6 87.825Z" fill="#23282C"/>
<path d="M314.9 111.425C307.2 111.425 301.2 109.725 297.1 106.525C293.4 103.525 291.3 99.3249 290.8 93.9249L290.7 93.0249H295.8C297.4 93.0249 298.7 94.1249 299.1 95.6249C299.7 98.1249 301.2 100.125 303.8 101.625C306.6 103.225 310.4 104.025 315 104.025C324.6 104.025 329.3 101.225 329.3 95.3249C329.3 93.4249 328.5 92.0249 326.9 90.9249C325.2 89.7249 322.9 88.7249 320.3 87.9249C317.6 87.1249 314.6 86.3249 311.5 85.6249C308.3 84.9249 305.3 84.0249 302.5 82.8249C299.7 81.6249 297.3 80.1249 295.4 78.2249C293.4 76.2249 292.4 73.5249 292.4 70.2249C292.4 65.6249 294.2 61.7249 297.8 58.8249C301.3 55.9249 306.6 54.5249 313.6 54.5249C320.6 54.5249 326.1 56.2249 330 59.4249C333.6 62.3249 335.5 66.1249 335.8 70.7249V71.6249H330.5C329.1 71.6249 327.9 70.7249 327.5 69.3249C326.6 66.0249 324.1 63.9249 319.8 62.7249C318 62.2249 315.8 61.9249 313.1 61.9249C310.5 61.9249 308.2 62.2249 306.4 62.8249C304.6 63.4249 303.3 64.1249 302.3 64.9249C301.4 65.7249 300.8 66.6249 300.5 67.5249C300.2 68.5249 300 69.6249 300 70.7249C300 71.7249 300.4 72.6249 301.3 73.5249C302.3 74.5249 303.6 75.3249 305.2 75.9249C306.9 76.6249 308.8 77.2249 311 77.7249C313.2 78.2249 315.5 78.8249 317.8 79.4249C320.1 80.0249 322.4 80.6249 324.7 81.4249C327 82.2249 329.1 83.1249 330.8 84.3249C334.9 86.9249 337 90.5249 337 95.0249C337 100.325 335 104.425 331 107.325C327.2 110.025 321.8 111.425 314.9 111.425Z" fill="#23282C"/>
<path d="M365.1 111.425C359 111.425 354 109.325 350.1 105.025C346.4 100.825 344.5 95.625 344.5 89.525C344.5 83.425 346.4 78.225 350.1 74.025C353.9 69.825 359.1 67.625 365.5 67.625C371 67.625 375.5 69.525 378.8 73.225V68.225H386.6V110.625H378.8V105.725C375.5 109.525 370.9 111.425 365.1 111.425ZM365.9 74.925C361.8 74.925 358.5 76.325 355.9 79.225C353.5 81.925 352.3 85.425 352.3 89.525C352.3 93.725 353.5 97.125 355.9 99.825C358.5 102.725 361.7 104.125 365.8 104.125C370 104.125 373.2 102.725 375.6 99.825C377.9 97.125 379.1 93.625 379.1 89.425C379.1 85.225 377.9 81.725 375.6 79.025C373.3 76.325 370.1 74.925 365.9 74.925Z" fill="#23282C"/>
<path d="M406.8 110.725H399V52.0249H406.8V110.725Z" fill="#23282C"/>
<path d="M438.2 111.425C431.9 111.425 426.6 109.325 422.6 105.025C418.7 100.925 416.7 95.725 416.7 89.525C416.7 83.325 418.6 78.125 422.3 74.025C426.3 69.825 431.4 67.625 437.7 67.625C444 67.625 449.2 69.725 453.1 74.025C456.8 78.125 458.7 83.325 458.7 89.525V92.825H424.7C425.2 95.925 426.6 98.525 428.8 100.625C431.2 102.925 434.4 104.125 438.1 104.125C442.9 104.125 446.3 102.325 448.6 98.725C449.2 97.825 450.1 97.325 451.2 97.325H457.8L457.4 98.525C455.9 102.325 453.6 105.525 450.4 107.825C447.3 110.225 443.2 111.425 438.2 111.425ZM424.9 85.425H450.6C450 82.525 448.7 80.025 446.6 78.225C444.2 76.025 441.2 74.925 437.7 74.925C434.2 74.925 431.2 76.025 428.8 78.225C426.9 80.025 425.6 82.525 424.9 85.425Z" fill="#23282C"/>
</svg>
