<svg width="63" height="19" viewBox="0 0 63 19" fill="none" xmlns="http://www.w3.org/2000/svg">
<path fill-rule="evenodd" clip-rule="evenodd" d="M61.745 9.201C61.6105 9.2014 61.4772 9.17517 61.3528 9.12384C61.2285 9.07251 61.1155 8.99708 61.0204 8.9019C60.9253 8.80672 60.85 8.69367 60.7988 8.56926C60.7476 8.44485 60.7215 8.31154 60.722 8.177C60.722 7.615 61.175 7.147 61.751 7.147C61.8855 7.1466 62.0188 7.17283 62.1432 7.22416C62.2675 7.27549 62.3805 7.35092 62.4756 7.4461C62.5707 7.54128 62.646 7.65433 62.6972 7.77874C62.7484 7.90315 62.7745 8.03646 62.774 8.171C62.774 8.444 62.6656 8.70583 62.4727 8.89897C62.2797 9.0921 62.018 9.20073 61.745 9.201V9.201ZM61.751 7.249C61.6292 7.24806 61.5083 7.27146 61.3957 7.31784C61.283 7.36421 61.1807 7.43263 61.0948 7.51907C61.0089 7.60551 60.9412 7.70824 60.8955 7.82122C60.8499 7.9342 60.8273 8.05516 60.829 8.177C60.829 8.687 61.223 9.098 61.745 9.098C61.8667 9.09881 61.9874 9.07534 62.0999 9.02898C62.2125 8.98262 62.3147 8.91428 62.4005 8.82798C62.4864 8.74167 62.5541 8.63912 62.5999 8.52631C62.6457 8.41351 62.6685 8.29272 62.667 8.171C62.6689 8.04991 62.6465 7.92967 62.6012 7.81736C62.5559 7.70504 62.4886 7.60292 62.4033 7.51701C62.3179 7.4311 62.2162 7.36313 62.1042 7.3171C61.9922 7.27107 61.8721 7.24792 61.751 7.249V7.249ZM61.977 8.276L62.267 8.682H62.023L61.763 8.31H61.538V8.682H61.334V7.607H61.814C62.063 7.607 62.227 7.735 62.227 7.95C62.227 8.126 62.125 8.234 61.977 8.276V8.276ZM61.805 7.791H61.538V8.131H61.805C61.938 8.131 62.017 8.066 62.017 7.961C62.017 7.851 61.937 7.791 61.805 7.791ZM49.001 4.271C48.7244 4.27087 48.459 4.38063 48.2633 4.57613C48.0676 4.77164 47.9576 5.03688 47.9575 5.3135C47.9574 5.59012 48.0671 5.85546 48.2626 6.05116C48.4581 6.24685 48.7234 6.35687 49 6.357C49.2768 6.357 49.5422 6.24706 49.7379 6.05137C49.9336 5.85567 50.0435 5.59025 50.0435 5.3135C50.0435 5.03675 49.9336 4.77133 49.7379 4.57563C49.5422 4.37994 49.2768 4.27 49 4.27L49.001 4.271ZM49.72 7.16H48.266C48.2378 7.16026 48.2108 7.17165 48.191 7.19169C48.1711 7.21173 48.16 7.23879 48.16 7.267V13.613C48.16 13.673 48.207 13.72 48.266 13.72H49.721C49.7494 13.72 49.7766 13.7087 49.7967 13.6887C49.8167 13.6686 49.828 13.6414 49.828 13.613V7.267C49.828 7.23862 49.8167 7.21141 49.7967 7.19134C49.7766 7.17127 49.7494 7.16 49.721 7.16H49.72ZM52.954 7.166V6.966C52.954 6.374 53.181 6.11 53.69 6.11C53.993 6.11 54.236 6.17 54.51 6.262C54.5261 6.26745 54.5432 6.26895 54.56 6.26639C54.5768 6.26383 54.5927 6.25727 54.6064 6.24728C54.6202 6.23728 54.6313 6.22414 54.6389 6.20895C54.6464 6.19376 54.6503 6.17697 54.65 6.16V4.935C54.6499 4.9121 54.6425 4.88984 54.6288 4.87148C54.6151 4.85312 54.5959 4.83963 54.574 4.833C54.182 4.71324 53.7739 4.65455 53.364 4.659C52.021 4.659 51.311 5.416 51.311 6.847V7.155H50.612C50.5838 7.155 50.5567 7.16613 50.5367 7.18599C50.5167 7.20584 50.5053 7.2328 50.505 7.261V8.518C50.505 8.577 50.553 8.625 50.612 8.625H51.311V13.615C51.311 13.673 51.358 13.721 51.417 13.721H52.872C52.9002 13.7207 52.9272 13.7093 52.947 13.6893C52.9669 13.6693 52.978 13.6422 52.978 13.614V8.624H54.336L56.417 13.614C56.181 14.137 55.949 14.242 55.632 14.242C55.375 14.242 55.105 14.165 54.829 14.014C54.8162 14.0072 54.8022 14.0029 54.7878 14.0015C54.7734 14.0002 54.7588 14.0017 54.745 14.006C54.731 14.0108 54.7182 14.0184 54.7074 14.0284C54.6965 14.0383 54.6879 14.0505 54.682 14.064L54.189 15.145C54.1775 15.1694 54.1758 15.1973 54.1842 15.2229C54.1925 15.2485 54.2104 15.27 54.234 15.283C54.749 15.562 55.214 15.681 55.788 15.681C56.862 15.681 57.456 15.181 57.979 13.834L60.503 7.312C60.5096 7.29584 60.5121 7.2783 60.5103 7.26095C60.5084 7.24359 60.5024 7.22695 60.4926 7.21251C60.4828 7.19806 60.4696 7.18626 60.4541 7.17815C60.4387 7.17003 60.4215 7.16586 60.404 7.166H58.89C58.8679 7.16623 58.8465 7.17327 58.8286 7.18616C58.8107 7.19905 58.7972 7.21716 58.79 7.238L57.238 11.669L55.538 7.235C55.5305 7.2148 55.517 7.19737 55.4993 7.18504C55.4816 7.17271 55.4606 7.16607 55.439 7.166H52.954V7.166ZM47.377 7.16H45.777V5.523C45.777 5.509 45.7742 5.49513 45.7688 5.4822C45.7634 5.46928 45.7556 5.45755 45.7456 5.44769C45.7357 5.43783 45.7238 5.43005 45.7109 5.42478C45.6979 5.41951 45.684 5.41687 45.67 5.417H44.215C44.187 5.41726 44.1602 5.42851 44.1403 5.44834C44.1205 5.46816 44.1093 5.49497 44.109 5.523V7.16H43.409C43.395 7.16 43.3811 7.16277 43.3682 7.16816C43.3553 7.17355 43.3435 7.18145 43.3337 7.1914C43.3238 7.20135 43.316 7.21315 43.3108 7.22613C43.3055 7.2391 43.3029 7.253 43.303 7.267V8.517C43.303 8.576 43.351 8.624 43.409 8.624H44.109V11.858C44.109 13.166 44.759 13.828 46.043 13.828C46.565 13.828 46.997 13.721 47.405 13.49C47.4215 13.4807 47.4352 13.4672 47.4447 13.4509C47.4542 13.4345 47.4591 13.4159 47.459 13.397V12.207C47.4593 12.1887 47.4548 12.1707 47.4461 12.1547C47.4373 12.1387 47.4246 12.1252 47.4091 12.1156C47.3936 12.1059 47.3759 12.1004 47.3576 12.0996C47.3394 12.0988 47.3213 12.1027 47.305 12.111C47.025 12.252 46.754 12.317 46.451 12.317C45.984 12.317 45.776 12.106 45.776 11.631V8.624H47.376C47.3901 8.62413 47.4041 8.62146 47.4171 8.61613C47.4301 8.6108 47.442 8.60292 47.452 8.59296C47.4619 8.58299 47.4698 8.57115 47.4751 8.5581C47.4805 8.54506 47.4831 8.53109 47.483 8.517V7.267C47.4831 7.253 47.4805 7.2391 47.4752 7.22613C47.47 7.21315 47.4622 7.20135 47.4523 7.1914C47.4425 7.18145 47.4307 7.17355 47.4178 7.16816C47.4049 7.16277 47.391 7.16 47.377 7.16V7.16ZM39.706 7.027C37.746 7.027 36.209 8.537 36.209 10.464C36.209 12.371 37.735 13.864 39.682 13.864C41.649 13.864 43.19 12.36 43.19 10.44C43.19 8.526 41.66 7.027 39.706 7.027ZM39.706 12.389C38.663 12.389 37.876 11.551 37.876 10.439C37.876 9.324 38.636 8.515 39.682 8.515C40.732 8.515 41.522 9.353 41.522 10.465C41.522 11.58 40.759 12.389 39.706 12.389ZM32.692 7.027C31.872 7.027 31.2 7.35 30.646 8.011V7.267C30.646 7.23879 30.6349 7.21173 30.615 7.19169C30.5952 7.17165 30.5682 7.16026 30.54 7.16H29.085C29.0568 7.16026 29.0298 7.17165 29.01 7.19169C28.9901 7.21173 28.979 7.23879 28.979 7.267V15.537C28.979 15.595 29.027 15.643 29.085 15.643H30.54C30.568 15.6427 30.5948 15.6315 30.6147 15.6117C30.6345 15.5918 30.6457 15.565 30.646 15.537V12.927C31.201 13.548 31.873 13.852 32.692 13.852C34.214 13.852 35.755 12.68 35.755 10.44C35.755 8.2 34.215 7.027 32.692 7.027ZM34.064 10.44C34.064 11.58 33.361 12.377 32.355 12.377C31.36 12.377 30.61 11.544 30.61 10.44C30.61 9.336 31.36 8.503 32.355 8.503C33.345 8.503 34.065 9.317 34.065 10.44H34.064ZM25.628 8.63C24.004 8.242 23.715 7.97 23.715 7.399C23.715 6.859 24.223 6.496 24.979 6.496C25.711 6.496 26.438 6.771 27.199 7.339C27.2103 7.34738 27.2232 7.35343 27.2369 7.35681C27.2506 7.36019 27.2648 7.36083 27.2788 7.35869C27.2927 7.35655 27.3061 7.35168 27.3182 7.34436C27.3302 7.33703 27.3407 7.32739 27.349 7.316L28.143 6.197C28.1584 6.17489 28.1649 6.14778 28.1612 6.12108C28.1575 6.09439 28.1439 6.07007 28.123 6.053C27.217 5.325 26.196 4.972 25.003 4.972C23.248 4.972 22.023 6.024 22.023 7.531C22.023 9.146 23.08 9.718 24.907 10.159C26.461 10.517 26.724 10.817 26.724 11.354C26.724 11.948 26.194 12.317 25.339 12.317C24.391 12.317 23.618 11.997 22.752 11.249C22.7303 11.2306 22.7024 11.2213 22.674 11.223C22.6599 11.2241 22.6462 11.228 22.6336 11.2345C22.6211 11.2411 22.61 11.2501 22.601 11.261L21.711 12.319C21.6928 12.3401 21.6838 12.3675 21.6859 12.3953C21.6879 12.423 21.7009 12.4488 21.722 12.467C22.7026 13.3554 23.9798 13.8451 25.303 13.84C27.193 13.84 28.415 12.807 28.415 11.209C28.415 9.858 27.608 9.111 25.628 8.629V8.63ZM9.41 0C6.91431 0 4.52084 0.991408 2.75612 2.75613C0.991408 4.52084 0 6.91431 0 9.41C0 11.9057 0.991408 14.2992 2.75612 16.0639C4.52084 17.8286 6.91431 18.82 9.41 18.82C11.9057 18.82 14.2992 17.8286 16.0639 16.0639C17.8286 14.2992 18.82 11.9057 18.82 9.41C18.82 6.91431 17.8286 4.52084 16.0639 2.75613C14.2992 0.991408 11.9057 0 9.41 0V0ZM13.726 13.572C13.6859 13.6379 13.6332 13.6952 13.5709 13.7407C13.5086 13.7862 13.438 13.8189 13.363 13.8371C13.288 13.8552 13.2102 13.8583 13.134 13.8463C13.0578 13.8343 12.9848 13.8073 12.919 13.767C10.709 12.417 7.929 12.112 4.653 12.86C4.57795 12.8771 4.50026 12.8793 4.42436 12.8664C4.34847 12.8535 4.27585 12.8258 4.21067 12.7849C4.14548 12.7439 4.089 12.6905 4.04444 12.6278C3.99989 12.565 3.96814 12.4941 3.951 12.419C3.93386 12.3439 3.93167 12.2663 3.94456 12.1904C3.95745 12.1145 3.98516 12.0419 4.02611 11.9767C4.06706 11.9115 4.12045 11.855 4.18323 11.8104C4.24601 11.7659 4.31695 11.7341 4.392 11.717C7.976 10.897 11.051 11.25 13.531 12.766C13.807 12.935 13.894 13.296 13.726 13.572ZM14.876 11.01C14.7742 11.1756 14.611 11.294 14.422 11.3394C14.2331 11.3847 14.0338 11.3533 13.868 11.252C11.339 9.697 7.483 9.247 4.491 10.155C4.30896 10.1982 4.1173 10.1703 3.95509 10.0771C3.79288 9.98386 3.67233 9.83229 3.61801 9.65325C3.56369 9.47422 3.57969 9.28121 3.66274 9.11356C3.74579 8.94592 3.88966 8.81625 4.065 8.751C7.483 7.714 11.731 8.217 14.635 10.001C14.7172 10.0514 14.7888 10.1175 14.8454 10.1955C14.9021 10.2736 14.9429 10.362 14.9653 10.4558C14.9878 10.5496 14.9916 10.647 14.9764 10.7422C14.9613 10.8375 14.9275 10.9288 14.877 11.011L14.876 11.01ZM14.977 8.342C11.943 6.541 6.939 6.375 4.044 7.255C3.9329 7.29044 3.81587 7.30345 3.6997 7.29326C3.58353 7.28308 3.47055 7.2499 3.36731 7.19567C3.26408 7.14144 3.17265 7.06723 3.09834 6.97736C3.02404 6.88748 2.96833 6.78374 2.93447 6.67215C2.90061 6.56056 2.88927 6.44335 2.9011 6.32734C2.91293 6.21133 2.9477 6.09883 3.00339 5.99637C3.05908 5.89391 3.13458 5.80355 3.2255 5.73052C3.31642 5.6575 3.42094 5.60328 3.533 5.571C6.856 4.561 12.382 4.757 15.873 6.829C16.0738 6.94808 16.219 7.14204 16.2768 7.36821C16.3345 7.59438 16.3001 7.83423 16.181 8.035C16.0619 8.23577 15.868 8.38101 15.6418 8.43877C15.4156 8.49653 15.1758 8.46208 14.975 8.343" fill="#54AB2B"/>
<path d="M34.292 15.2H35.188C35.5107 15.2 35.7547 15.2747 35.92 15.424C36.088 15.5707 36.172 15.788 36.172 16.076C36.172 16.3827 36.0853 16.616 35.912 16.776C35.7413 16.9333 35.4933 17.012 35.168 17.012H34.796V18H34.292V15.2ZM35.212 16.604C35.364 16.604 35.48 16.5613 35.56 16.476C35.64 16.388 35.68 16.2613 35.68 16.096C35.68 15.936 35.6373 15.8147 35.552 15.732C35.4693 15.6493 35.3467 15.608 35.184 15.608H34.796V16.604H35.212ZM36.6318 15.2H37.5758C37.8878 15.2 38.1212 15.264 38.2758 15.392C38.4305 15.5173 38.5078 15.7093 38.5078 15.968C38.5078 16.152 38.4665 16.3093 38.3838 16.44C38.3012 16.5707 38.1838 16.6627 38.0318 16.716V16.724C38.0825 16.7587 38.1225 16.7947 38.1518 16.832C38.1838 16.8693 38.2105 16.912 38.2318 16.96L38.6438 18H38.1078L37.7758 17.128C37.7385 17.0347 37.6918 16.972 37.6358 16.94C37.5798 16.9053 37.4878 16.888 37.3598 16.888H37.1358V18H36.6318V15.2ZM37.5278 16.484C37.6878 16.484 37.8092 16.4453 37.8918 16.368C37.9772 16.2907 38.0198 16.176 38.0198 16.024C38.0198 15.7467 37.8532 15.608 37.5198 15.608H37.1358V16.484H37.5278ZM38.9951 15.2H40.7911V15.608H39.4991V16.324H40.6551V16.732H39.4991V17.592H40.7911V18H38.9951V15.2ZM43.9168 15.2V18H43.4168V16.2L42.7648 18H42.4088L41.7528 16.188V18H41.2568V15.2H41.8008L42.5848 17.42L43.3728 15.2H43.9168ZM44.5751 15.2H45.0831V18H44.5751V15.2ZM46.781 18.04C46.4317 18.04 46.1677 17.9453 45.989 17.756C45.8104 17.564 45.721 17.2813 45.721 16.908V15.2H46.229V16.9C46.229 17.388 46.413 17.632 46.781 17.632C46.9624 17.632 47.0997 17.5707 47.193 17.448C47.2864 17.3253 47.333 17.1427 47.333 16.9V15.2H47.837V16.908C47.837 17.2813 47.7477 17.564 47.569 17.756C47.3904 17.9453 47.1277 18.04 46.781 18.04ZM51.0536 15.2V18H50.5536V16.2L49.9016 18H49.5456L48.8896 16.188V18H48.3936V15.2H48.9376L49.7216 17.42L50.5096 15.2H51.0536Z" fill="black"/>
</svg>
