<svg width="1000" height="248" viewBox="0 0 1000 248" fill="none" xmlns="http://www.w3.org/2000/svg">
<path d="M156.502 72.2463L177.188 30.8088C177.188 30.8088 145.441 0.5 89.7305 0.5C39.2861 0.5 6.70267 30.2488 6.70267 72.4331C6.70267 163.273 136.994 130.407 136.994 177.378C136.994 196.311 117.863 204.021 99.157 204.021C53.0789 204.021 20.8645 167.755 20.8645 167.755L0.5 210.975C0.5 210.975 35.6215 247.004 97.382 247.004C147.75 247.004 184.682 222.389 184.682 172.926C184.682 83.8874 54.5187 115.846 54.5187 68.1283C54.5187 53.8807 68.3531 43.6879 88.9112 43.6879C124.697 43.6879 156.502 72.2463 156.502 72.2463Z" fill="black"/>
<path d="M263.344 243.032V48.8125H192.719V4.08319H382.818V48.8125H312.193V243.032H263.344Z" fill="black"/>
<path d="M460.507 2.784L339.855 243.02H390.139L408.715 205.832H511.71L530.544 243.02H581.342L460.507 2.784ZM460.36 104.013L489.603 161.801H430.933L460.36 104.013Z" fill="black"/>
<path d="M592.34 4.07141V243.02H641.189V155.916H675.324L725.204 243.02H781.262L724.652 144.329C749.023 132.577 765.519 110.979 765.519 77.3451C765.519 40.5644 739.942 4.07141 680.033 4.07141H592.34ZM641.189 48.8007H681.21C703.193 48.8007 716.412 61.2417 716.412 78.5958C716.412 97.6233 700.983 108.832 681.21 108.832H641.189V48.8007Z" fill="black"/>
<path d="M801.862 48.8125V4.08319H999.5L876.607 199.48H996.669V243.032H791.855L914.087 48.8125H801.862Z" fill="black"/>
</svg>
