<svg xmlns="http://www.w3.org/2000/svg" viewBox="0 0 316.13 94.87"><path fill="#16a855" d="M303 57.15s-7.92-1.47-10.2-3c-2.7-1.8-8.57-4.49-4.82-7.51 2.45-2 6.37-.57 8.17.08 0 0 4.49 1.22 6.2 4.82a7.27 7.27 0 01.65 5.61zm-15.59-30s.57 1 1.31 2.28l-2.86 7.92a11.33 11.33 0 00-7.51-7c-5.8-1.55-7-1.3-7-1.3s2.36-6.86 9.06-6c6.33.79 6.98 4.14 6.98 4.14z"/><path fill="#0c7834" d="M306.82 43.11c-5.63-4.82-14.45-7.84-21-5.72-1.23-6-8.41-8.65-14.29-8.32 1.55-3.76 4.17-5.64 7.19-5.64s5.47.33 8.49 3.51c-.41-2.85-4.49-6.61-9.55-6.61-5.8 0-11 3.92-13.23 9.47-3.68.74-17.31 7.43-21.64 12.08 5.23-3.1 15.84-9.3 22.86-9.3 5.47 0 9.64 4.65 10.86 8.73 3.43 10.86 13 15.11 24.17 15.35a37.7 37.7 0 01-5.39-1.47c-5.23-1.88-9.63-5.47-6.94-7.75 1.71-1.47 7-1.15 10.61 1.22a7.42 7.42 0 013.51 8.25c-4.16 14.28 2.29 20 13.31 18.61 1.55-15.76-2.61-26.94-9-32.41z"/><path fill="#2b2825" d="M265.92 32.41c-7 0-17.8 6.21-23.11 9.31C247.22 37 261 30.29 264.69 29.64zm13.63-5.55a1.63 1.63 0 11-1.63-1.63 1.63 1.63 0 011.63 1.63z"/><path fill="#16a855" d="M302.9 40.33c-5.3-3.1-11.92-4.65-17.14-3l27-31c6.86 10.69-1.47 30.29-9.88 34"/><path fill="#0c7834" d="M285.84 37.31L299.39 0c10.37 7.27 8.9 31.43 3.51 40.33-5.3-3.1-11.9-4.65-17.06-3.02z"/><path fill="#2b2825" d="M4.9 70.21A11.22 11.22 0 0014.45 75c4 0 9-2.53 9-7.51 0-10.37-22.12-3.92-22.12-21.47 0-5.31 4.41-12.58 15.26-12.58 4.9 0 9.56 1 13 5.15l-5 4.49a9.41 9.41 0 00-8-3.92c-6.69 0-8.73 4.08-8.73 6.86C7.84 57.4 30 50.62 30 66.78c0 8.74-7 13.88-15.59 13.88-5.8 0-11.27-2-14.37-6.2zm55.35 9.39h-5.71V75h-.16c-1.47 3.18-5.31 5.39-9.88 5.39-5.88 0-10.94-3.51-10.94-11.51V49.56h5.71v17.8c0 5.63 3.27 7.75 6.86 7.75 4.73 0 8.41-3 8.41-10V49.56h5.71v30zm35.85-.24c0 9.06-6.62 15.51-16.41 15.51-5.69 0-10.46-1.47-14.69-5.39l3.84-4.81c3 3.18 6.37 4.89 10.69 4.89 8.49 0 10.86-5.3 10.86-10.45v-4.4h-.16C88.1 78.3 83.93 80 79.77 80A14.93 14.93 0 0164.5 64.58c0-8.9 6-15.84 15.27-15.84a12.91 12.91 0 0110.45 5.06h.16v-4.32h5.72zM70.62 64.58c0 6.12 3.84 10.13 9.88 10.13s9.88-4 9.88-10.13-3.84-10.45-9.88-10.45-9.88 4.33-9.88 10.45zm31.76-11.35a17.58 17.58 0 0111.92-4.41c8.9 0 12.58 4.82 12.58 10v15.4c0 2.12.08 3.83.24 5.46h-5.06a43.62 43.62 0 01-.16-4.57h-.17c-2.53 3.84-6 5.31-10.53 5.31-5.55 0-10.45-3.18-10.45-9 0-7.76 7.43-10.45 16.57-10.45h4.17v-1.29c0-3.1-2.29-6.37-7.19-6.37-4.41 0-6.45 1.88-8.57 3.43zm16.09 11.92c-5.39 0-12 1-12 5.8 0 3.43 2.53 4.9 6.44 4.9 6.37 0 8.58-4.74 8.58-8.74v-1.88h-3zm13.79-15.59H138v4.65h.16a10.2 10.2 0 019-5.39 8.45 8.45 0 012.54.41l-.25 6.12a11.66 11.66 0 00-2.78-.4c-5.55 0-8.65 3-8.65 9.63v15.1h-5.72V49.56zm19 25.15c4.16 4.81 10.12 5.87 14.45 5.87 7.51 0 16.25-3.67 16.25-14.12 0-9-7.11-11.27-12.82-13.15-4.41-1.38-8.58-2.77-8.58-6.77 0-4.41 3.92-6 7.6-6A9.77 9.77 0 01176 44l5.55-5.8c-4-3.67-9.06-4.41-12.58-4.41-8.16 0-16.32 4.16-16.32 13.39 0 8.9 6.61 11 12.49 12.9 4.57 1.47 8.9 2.86 8.9 7.35 0 4.16-4.17 6.37-8.09 6.37a10.77 10.77 0 01-8.9-4.58zM181.66 94a21.3 21.3 0 005.63.74c6.78 0 9.31-3.11 11.43-8.57L213 49.4h-7.5L197.74 71 189 49.31h-7.92L194 79.85l-1.47 3.67c-1.23 3.19-2.29 4.66-6.21 4.66a12.45 12.45 0 01-3.67-.66zM236 79.44h7.18v-19c0-3.51-1.06-11.76-10.94-11.76-5.14 0-7.67 2.69-8.9 5l-.82 1.47V49.4h-6.85v30h7.18V63c0-5 2.7-7.92 7.19-7.92 5.79 0 5.79 6.45 5.79 9.14v15.22zm27.18 1.14c-9.71 0-16.82-6.86-16.82-16.24s7.11-16.17 16.82-16.17a14.88 14.88 0 0111.19 4.74l.16.16-5.53 5.55-.16-.16c-1.88-2-3.84-3-5.64-3-5.71 0-8.73 4.57-8.73 8.9a8.65 8.65 0 008.73 8.89 7 7 0 005.72-2.77l.16-.16 5.39 5.79-.16.17c-3.08 3.16-8.31 4.3-11.09 4.3z"/></svg>