<svg width="187" height="46" viewBox="0 0 187 46" fill="none" xmlns="http://www.w3.org/2000/svg">
<path fill-rule="evenodd" clip-rule="evenodd" d="M73.5808 7.08612C73.5808 6.71982 73.5655 6.71982 73.2629 6.71982H72.7944C71.8709 6.71982 71.476 6.80362 71.1128 7.77604C70.9621 7.85984 70.795 7.81873 70.7344 7.70383C70.9004 7.0993 71.0675 6.39516 71.1417 6.04309C71.2035 5.98564 71.3548 5.98564 71.4154 6.04309C71.4301 6.32611 71.6426 6.31188 72.2482 6.31188H76.4589C77.0186 6.31188 77.124 6.29765 77.2447 6.04309C77.3518 5.98564 77.473 6.01621 77.5184 6.08525C77.3971 6.45208 77.3371 7.19839 77.3665 7.73282C77.3053 7.84771 77.0481 7.85984 76.9869 7.74758C76.8804 6.8305 76.4883 6.71982 75.579 6.71982H75.0651C74.7756 6.71982 74.7309 6.71982 74.7309 7.08612V10.9441C74.7309 11.9181 74.7921 12.0004 75.443 12.0726L75.8544 12.1158C75.9575 12.1843 75.945 12.4252 75.8215 12.4668C75.2006 12.4389 74.6249 12.4252 74.1558 12.4252C73.6725 12.4252 73.1264 12.4389 72.4913 12.4668C72.3695 12.4252 72.3536 12.1843 72.459 12.1158L72.8686 12.0726C73.5201 12.0004 73.5808 11.9181 73.5808 10.9441V7.08612Z" fill="black"/>
<path fill-rule="evenodd" clip-rule="evenodd" d="M84.2537 9.01157C84.737 9.01157 84.7982 9.01157 84.7982 8.64421V7.78723C84.7982 6.81429 84.737 6.75736 84.0866 6.65881L83.7999 6.61559C83.6939 6.54654 83.7081 6.30779 83.8305 6.26562C84.4208 6.29356 84.8899 6.30779 85.3732 6.30779C85.8593 6.30779 86.3273 6.29356 86.9182 6.26562C87.0395 6.30779 87.0542 6.54654 86.946 6.61559L86.6616 6.65881C86.0089 6.75736 85.9494 6.81429 85.9494 7.78723V10.9401C85.9494 11.914 86.0089 11.9852 86.6616 12.0685L87.0089 12.1117C87.116 12.1802 87.0995 12.4211 86.9788 12.4627C86.3432 12.4348 85.8429 12.4211 85.3732 12.4211C84.8899 12.4211 84.4208 12.4348 83.8305 12.4627C83.7081 12.4211 83.6939 12.1802 83.7999 12.1117L84.0866 12.0685C84.737 11.9694 84.7982 11.914 84.7982 10.9401V9.82797C84.7982 9.47538 84.7681 9.46378 84.2537 9.46378H81.588C81.0753 9.46378 81.0436 9.47538 81.0436 9.82797V10.9401C81.0436 11.914 81.1042 11.9963 81.7552 12.0685L82.1631 12.1117C82.2673 12.1802 82.2543 12.4211 82.1331 12.4627C81.4368 12.4348 80.9359 12.4211 80.4668 12.4211C79.983 12.4211 79.5144 12.4348 79.0442 12.4627C78.9235 12.4211 78.9076 12.1802 79.0147 12.1117L79.1802 12.0685C79.8158 11.914 79.8929 11.914 79.8929 10.9401V7.78723C79.8929 6.81429 79.8317 6.74366 79.1802 6.65881L78.8317 6.61559C78.7269 6.54654 78.7416 6.30779 78.8635 6.26562C79.5144 6.29356 79.983 6.30779 80.4668 6.30779C80.9518 6.30779 81.4209 6.29356 81.9512 6.26562C82.0724 6.30779 82.0877 6.54654 81.9818 6.61559L81.7552 6.65881C81.1189 6.77212 81.0436 6.81429 81.0436 7.78723V8.64421C81.0436 9.01157 81.1042 9.01157 81.588 9.01157H84.2537Z" fill="black"/>
<path fill-rule="evenodd" clip-rule="evenodd" d="M89.8108 7.78723C89.8108 6.81429 89.7507 6.77212 89.1757 6.65881L88.9621 6.61559C88.8578 6.56077 88.8714 6.32202 88.9932 6.26562C89.2221 6.2788 89.4493 6.29356 89.6754 6.29356C89.9173 6.30779 90.1592 6.30779 90.4022 6.30779H92.5523C93.218 6.30779 93.8254 6.29356 93.9614 6.26562C93.9761 6.4327 94.052 7.09521 94.1279 7.69974C94.0656 7.81463 93.8254 7.82834 93.7319 7.72872C93.643 7.36295 93.5518 7.18059 93.4617 7.0541C93.2181 6.71573 92.5382 6.71573 92.1733 6.71573H91.5087C90.9784 6.71573 90.9598 6.7289 90.9598 7.1653V8.73012C90.9598 8.98311 90.9597 9.01157 91.251 9.01157H91.9609C92.7642 9.01157 92.8407 8.89773 92.9614 8.47661L93.0367 8.20729C93.1127 8.10926 93.3393 8.12349 93.4152 8.23575C93.3846 8.64421 93.3846 8.89773 93.3846 9.2245C93.3846 9.57499 93.3846 9.82797 93.4152 10.237C93.3393 10.3503 93.1127 10.3635 93.0367 10.266L92.9614 9.99821C92.8407 9.57499 92.7642 9.46378 91.9609 9.46378H91.251C90.9597 9.46378 90.9598 9.50278 90.9598 9.78686V10.7999C90.9598 11.2231 90.9937 11.6574 91.1291 11.8139C91.2663 11.9573 91.5359 12.0126 92.3999 12.0126C93.371 12.0126 93.9285 11.9694 94.3687 10.842C94.4769 10.744 94.7177 10.7719 94.7631 10.8989C94.6866 11.4919 94.4769 12.1939 94.3092 12.4627C93.8396 12.4474 93.4011 12.4348 92.9767 12.4348C92.5523 12.4211 92.1427 12.4211 91.7342 12.4211H90.4022C89.9173 12.4211 89.4493 12.4348 88.7235 12.4627C88.6006 12.4211 88.5864 12.1802 88.6912 12.1117L89.1014 12.0685C89.7507 11.9963 89.8108 11.914 89.8108 10.9401V7.78723Z" fill="black"/>
<path fill-rule="evenodd" clip-rule="evenodd" d="M67.3832 25.827C67.3832 26.8501 67.548 27.4646 68.0438 27.6443C68.1271 27.7202 68.1271 27.8736 68.0166 27.9505C67.6863 27.9505 67.1894 28.0549 66.6676 28.1835C65.2098 28.5408 63.2275 28.8481 61.7419 28.8481C58.4684 28.8481 55.4679 28.0054 53.3484 26.0073C51.6968 24.4694 50.8164 22.4486 50.8164 20.195C50.8164 18.0203 51.5886 15.8183 53.2934 14.1286C55.1381 12.3366 57.8621 11.1328 62.0173 11.1328C63.5855 11.1328 65.0433 11.4132 65.5118 11.5186C66.0342 11.6172 66.8874 11.8006 67.2183 11.7463C67.2183 12.5922 67.3832 13.923 67.6324 15.4578C67.548 15.6649 67.0534 15.6897 66.8874 15.5353C66.1192 12.7704 64.0535 11.9013 61.2473 11.9013C55.9086 11.9013 53.5671 15.433 53.5671 19.2726C53.5671 24.1884 56.2933 28.0549 61.8229 28.0549C63.53 28.0549 64.5492 27.7202 64.8518 27.2875C64.9889 27.1083 65.1266 26.6456 65.1266 25.827V24.8025C65.1266 22.6526 65.0433 22.5003 63.3379 22.3206L62.1266 22.1935C61.9074 22.0902 61.9346 21.6291 62.1266 21.5511C62.9255 21.6032 64.4382 21.6291 66.0636 21.6291C67.1356 21.6291 68.071 21.6032 68.9803 21.5511C69.1718 21.6544 69.1995 22.0391 69.0064 22.1935L68.5673 22.2436C67.4104 22.3701 67.3832 23.0879 67.3832 24.3929V25.827Z" fill="black"/>
<path fill-rule="evenodd" clip-rule="evenodd" d="M74.8366 22.1961C74.8366 22.8338 74.8615 22.8338 76.2111 22.8338C78.0003 22.8338 78.9345 22.1703 78.9345 20.4025C78.9345 19.1218 77.9737 17.997 76.0468 17.997C75.0287 17.997 74.8366 18.0466 74.8366 18.7138V22.1961ZM72.7449 20.3256C72.7449 18.6617 72.7171 18.2263 72.0837 18.1499L71.3143 18.0466C71.0917 18.0229 71.0373 17.4848 71.3143 17.4083C72.827 17.305 74.3681 17.2539 75.8819 17.2539C78.4394 17.2539 81.2189 17.6371 81.2189 20.3256C81.2189 21.9631 79.8439 22.7073 78.7691 23.0662C78.6609 23.1669 78.6886 23.3208 78.7691 23.4484C80.147 25.5998 81.3571 26.8526 82.2642 27.5457C82.7605 27.9283 83.284 28.0574 83.7242 28.0817C83.8341 28.186 83.8341 28.4153 83.7242 28.4917C83.4766 28.5697 83.0925 28.6182 82.569 28.6182C80.9186 28.6182 79.9266 28.1339 78.7158 26.6992C78.028 25.8807 77.2853 24.7544 76.7057 23.9359C76.487 23.6276 76.0468 23.5269 75.6054 23.5269C74.891 23.5269 74.8366 23.5775 74.8366 23.9359V25.7526C74.8366 27.5188 74.9448 27.6469 76.1289 27.8008L76.7629 27.8761C76.9544 28.0079 76.9267 28.4411 76.7057 28.5186C75.5505 28.4659 74.6434 28.4411 73.7913 28.4411C72.9109 28.4411 72.0565 28.4659 71.0917 28.5186C70.8163 28.4411 70.7897 27.981 71.0373 27.8761L71.4486 27.8008C72.6333 27.571 72.7449 27.5188 72.7449 25.7526V20.3256Z" fill="black"/>
<path fill-rule="evenodd" clip-rule="evenodd" d="M87.4979 20.0188C87.4979 18.2521 87.3869 18.1762 86.3427 17.9712L85.9558 17.8932C85.7626 17.792 85.7915 17.3567 86.0107 17.2539C86.4232 17.2771 86.8362 17.305 87.2515 17.305C87.69 17.3309 88.1308 17.3309 88.5704 17.3309H92.4774C93.6876 17.3309 94.7901 17.305 95.0354 17.2539C95.0643 17.5607 95.2026 18.765 95.3397 19.8655C95.2298 20.0689 94.7901 20.0947 94.6247 19.9155C94.4581 19.2509 94.2944 18.9173 94.1306 18.6885C93.6876 18.0751 92.4519 18.0751 91.7913 18.0751H90.5772C89.6157 18.0751 89.588 18.0988 89.588 18.8925V21.7339C89.588 22.1961 89.588 22.2461 90.1103 22.2461H91.4049C92.8615 22.2461 93.0026 22.0417 93.2208 21.2737L93.3567 20.7857C93.4961 20.6081 93.908 20.6334 94.0462 20.8373C93.9918 21.581 93.9918 22.0417 93.9918 22.6304C93.9918 23.2697 93.9918 23.7298 94.0462 24.4719C93.908 24.6774 93.4961 24.7033 93.3567 24.5246L93.2208 24.0387C93.0026 23.2697 92.8615 23.0662 91.4049 23.0662H90.1103C89.588 23.0662 89.588 23.1416 89.588 23.6529V25.497C89.588 26.266 89.6435 27.0576 89.8922 27.3417C90.1387 27.5952 90.635 27.698 92.2021 27.698C93.9641 27.698 94.9816 27.6216 95.781 25.5734C95.9731 25.3942 96.4133 25.4464 96.4949 25.6767C96.3567 26.7519 95.9731 28.0321 95.6706 28.5186C94.8179 28.4917 94.0179 28.4659 93.2485 28.4659C92.4774 28.4411 91.7347 28.4411 90.9925 28.4411H88.5704C87.69 28.4411 86.8362 28.4659 85.5161 28.5186C85.2946 28.4411 85.2685 28.0079 85.4623 27.8761L86.2028 27.8008C87.3869 27.6722 87.4979 27.5188 87.4979 25.7526V20.0188Z" fill="black"/>
<path fill-rule="evenodd" clip-rule="evenodd" d="M104.997 23.6509C105.711 23.6509 105.792 23.5992 105.489 22.8587L104.638 20.6825C104.419 20.0927 104.308 19.8887 104.224 19.7607H104.17C104.087 19.8634 103.977 20.0927 103.73 20.6314L102.739 22.9103C102.437 23.5992 102.489 23.6509 103.095 23.6509H104.997ZM102.821 24.4699C102.189 24.4699 102.106 24.4968 101.887 25.0855L101.251 26.7241C100.951 27.5437 101.033 27.6449 101.555 27.7487L102.3 27.8741C102.519 28.0059 102.489 28.4639 102.216 28.5166C101.527 28.4639 100.814 28.4391 100.041 28.4391C99.2731 28.4391 98.6113 28.4897 98.1156 28.5166C97.8674 28.4133 97.8674 28.0059 98.0601 27.8741L98.6952 27.7487C99.5467 27.569 99.8498 27.288 100.399 26.0579L103.042 20.1702C103.509 19.1198 103.703 18.5063 103.757 18.0209C104.251 17.8417 104.776 17.3547 104.912 17.0479C105.134 16.9694 105.297 17.0216 105.355 17.1755C105.464 17.4306 105.904 18.763 106.534 20.3236L109.012 26.4426C109.344 27.288 109.59 27.6196 110.582 27.7988L111.022 27.8741C111.269 28.0059 111.216 28.4639 110.94 28.5166C110.225 28.4639 109.59 28.4391 108.655 28.4391C107.663 28.4391 106.866 28.4639 106.18 28.5166C105.904 28.4391 105.876 27.979 106.124 27.8741L106.673 27.7988C107.389 27.696 107.361 27.5437 107.031 26.7499L106.373 25.0855C106.15 24.4968 106.07 24.4699 105.437 24.4699H102.821Z" fill="black"/>
<path fill-rule="evenodd" clip-rule="evenodd" d="M116.188 18.7394C116.188 18.0764 116.162 18.0764 115.61 18.0764H114.758C113.081 18.0764 112.364 18.2276 111.705 19.9959C111.429 20.1477 111.127 20.0702 111.016 19.8668C111.319 18.7663 111.621 17.4861 111.761 16.8446C111.868 16.7445 112.144 16.7445 112.254 16.8446C112.281 17.358 112.665 17.3322 113.766 17.3322H121.419C122.436 17.3322 122.628 17.3063 122.849 16.8446C123.04 16.7445 123.26 16.793 123.342 16.9226C123.121 17.5883 123.015 18.9449 123.066 19.9168C122.957 20.1234 122.489 20.1477 122.38 19.9427C122.187 18.2793 121.472 18.0764 119.821 18.0764H118.884C118.362 18.0764 118.281 18.0764 118.281 18.7394V25.7539C118.281 27.5201 118.388 27.6735 119.572 27.8021L120.318 27.8774C120.509 28.0092 120.482 28.4424 120.26 28.5199C119.133 28.4672 118.086 28.4424 117.234 28.4424C116.353 28.4424 115.362 28.4672 114.206 28.5199C113.986 28.4424 113.959 28.0092 114.151 27.8774L114.895 27.8021C116.078 27.6735 116.188 27.5201 116.188 25.7539V18.7394Z" fill="black"/>
<path fill-rule="evenodd" clip-rule="evenodd" d="M41.009 31.4895C42.7495 30.223 44.9709 29.6016 47.4536 29.6016C48.7448 29.6016 50.5595 29.8456 51.6807 30.1344C51.9685 30.2035 52.1339 30.2472 52.3504 30.223C52.3736 30.7353 52.4937 32.1346 52.6846 33.4886C52.5645 33.6462 52.2065 33.6678 52.0399 33.5339C51.6807 32.0228 50.6065 30.2899 47.142 30.2899C43.4905 30.2899 40.3875 32.4466 40.3875 37.042C40.3875 41.7064 43.5636 44.2837 47.478 44.2837C50.5595 44.2837 51.9198 42.419 52.4682 41.1071C52.6376 40.9959 52.994 41.0391 53.0892 41.1951C52.9226 42.351 52.3022 43.8167 51.943 44.2368C51.6569 44.2837 51.3708 44.3727 51.1068 44.4613C50.5827 44.6384 48.8632 44.9725 47.3363 44.9725C45.1862 44.9725 43.1336 44.572 41.3909 43.4852C39.4821 42.263 38 40.2406 38 37.3766C38 34.909 39.1949 32.7987 41.009 31.4895Z" fill="black"/>
<path fill-rule="evenodd" clip-rule="evenodd" d="M57.2468 39.5332C57.2468 41.818 58.3675 44.2851 61.1397 44.2851C62.9532 44.2851 64.6971 43.1303 64.6971 40.0877C64.6971 37.7117 63.4778 35.3115 60.8507 35.3115C59.1335 35.3115 57.2468 36.4004 57.2468 39.5332ZM66.8217 39.754C66.8217 42.7524 64.386 44.9297 61.0178 44.9297C57.3176 44.9297 55.1211 42.686 55.1211 39.8868C55.1211 36.9338 57.5573 34.668 61.0178 34.668C64.8625 34.668 66.8217 37.0434 66.8217 39.754Z" fill="black"/>
<path fill-rule="evenodd" clip-rule="evenodd" d="M69.7971 37.3104C69.7971 35.7793 69.6787 35.7339 68.6765 35.5342L68.3422 35.4662C68.1745 35.355 68.1994 34.9787 68.3909 34.9102C69.2023 34.9571 69.9427 34.9787 70.7042 34.9787C71.4696 34.9787 72.2107 34.9571 73.1393 34.9102C73.3313 34.9787 73.3557 35.355 73.1886 35.4662L72.737 35.5342C71.7087 35.6876 71.6147 35.7793 71.6147 37.3104V40.4421C71.6147 42.6631 72.401 44.1731 74.716 44.1731C76.8644 44.1731 77.7964 42.6631 77.7964 40.4632V38.3982C77.7964 36.1777 77.6536 35.6681 76.627 35.5342L76.1256 35.4662C75.9585 35.3355 75.9817 35.0208 76.1721 34.9102C76.9364 34.9571 77.4865 34.9787 78.1794 34.9787C78.8706 34.9787 79.3958 34.9571 80.1601 34.9102C80.3504 35.0208 80.3504 35.355 80.1833 35.4662L79.4694 35.5342C78.8468 35.6011 78.6587 36.2004 78.6587 38.3982V40.5976C78.6587 43.4416 77.248 44.9294 74.2163 44.9294C72.6889 44.9294 71.5399 44.6395 70.8271 43.995C70.1082 43.333 69.7971 42.3068 69.7971 40.8643V37.3104Z" fill="black"/>
<path fill-rule="evenodd" clip-rule="evenodd" d="M85.6039 39.1988C85.6039 39.7538 85.626 39.7538 86.7942 39.7538C88.3466 39.7538 89.159 39.1745 89.159 37.6434C89.159 36.5329 88.3234 35.5563 86.6526 35.5563C85.771 35.5563 85.6039 35.6011 85.6039 36.1777V39.1988ZM83.7892 37.577C83.7892 36.1345 83.7631 35.7571 83.2147 35.6876L82.5478 35.6011C82.3547 35.5779 82.3093 35.112 82.5478 35.0435C83.8606 34.9571 85.1976 34.9102 86.5098 34.9102C88.7307 34.9102 91.1431 35.2459 91.1431 37.577C91.1431 38.998 89.9477 39.6415 89.0168 39.953C88.9222 40.0415 88.9449 40.1759 89.0168 40.2871C90.2111 42.1513 91.2604 43.2402 92.0485 43.8405C92.4779 44.1731 92.9323 44.2848 93.313 44.307C93.4105 44.3955 93.4105 44.5942 93.313 44.6627C93.1011 44.7281 92.7652 44.7739 92.3119 44.7739C90.878 44.7739 90.0191 44.3512 88.9687 43.1058C88.3721 42.3975 87.7273 41.4193 87.2282 40.7077C87.0344 40.4421 86.6526 40.3536 86.2713 40.3536C85.6515 40.3536 85.6039 40.3984 85.6039 40.7077V42.2852C85.6039 43.8179 85.699 43.9291 86.7262 44.063L87.273 44.1288C87.4429 44.2379 87.4163 44.6185 87.2282 44.6854C86.2231 44.6395 85.4356 44.6185 84.6928 44.6185C83.9314 44.6185 83.1903 44.6395 82.3546 44.6854C82.1167 44.6185 82.0918 44.2163 82.3093 44.1288L82.6663 44.063C83.694 43.8632 83.7892 43.8179 83.7892 42.2852V37.577Z" fill="black"/>
<path fill-rule="evenodd" clip-rule="evenodd" d="M97.7095 40.0877C96.5644 39.5332 95.586 38.6662 95.586 37.4229C95.586 35.7996 96.9225 34.668 99.3327 34.668C100.169 34.668 100.743 34.8661 101.554 35.0021C101.743 35.379 101.911 36.2233 101.89 37.1778C101.817 37.3554 101.386 37.3781 101.269 37.2215C101.078 36.4447 100.457 35.3115 99.0465 35.3115C97.6398 35.3115 97.1129 36.0678 97.1129 36.821C97.1129 37.621 97.7588 38.1112 98.7134 38.575L100.194 39.2886C101.053 39.6881 102.127 40.6205 102.127 42.1094C102.127 43.8408 100.598 44.9297 98.2375 44.9297C96.778 44.9297 95.8251 44.4627 95.4902 44.2382C95.2761 43.9293 94.9883 43.1303 94.9883 41.9529C95.0852 41.7315 95.4432 41.7078 95.6087 41.9076C95.8007 42.7061 96.8494 44.2851 98.4499 44.2851C99.6681 44.2851 100.457 43.7069 100.457 42.686C100.457 41.9745 100.145 41.2408 98.7842 40.5978L97.7095 40.0877Z" fill="black"/>
<path fill-rule="evenodd" clip-rule="evenodd" d="M106.398 37.3104C106.398 35.7793 106.304 35.7107 105.393 35.5342L105.062 35.4662C104.894 35.3787 104.918 35.0019 105.109 34.9102C105.465 34.9328 105.824 34.9571 106.183 34.9571C106.566 34.9787 106.947 34.9787 107.329 34.9787H110.717C111.771 34.9787 112.725 34.9571 112.939 34.9102C112.965 35.1784 113.081 36.223 113.202 37.1775C113.108 37.3552 112.725 37.3778 112.581 37.2213C112.437 36.6447 112.293 36.3559 112.151 36.1561C111.771 35.6222 110.696 35.6222 110.122 35.6222H109.071C108.236 35.6222 108.211 35.6443 108.211 36.3332V38.7993C108.211 39.1988 108.211 39.2425 108.665 39.2425H109.786C111.052 39.2425 111.174 39.0639 111.364 38.3982L111.483 37.976C111.605 37.8205 111.96 37.8443 112.079 38.0208C112.032 38.6659 112.032 39.0639 112.032 39.5746C112.032 40.1317 112.032 40.5312 112.079 41.1752C111.96 41.3528 111.605 41.3734 111.483 41.2195L111.364 40.7973C111.174 40.1317 111.052 39.953 109.786 39.953H108.665C108.211 39.953 108.211 40.0215 108.211 40.4632V42.0628C108.211 42.7285 108.258 43.4173 108.474 43.6619C108.687 43.8859 109.117 43.9734 110.482 43.9734C112.007 43.9734 112.893 43.9059 113.583 42.1281C113.751 41.9742 114.133 42.0185 114.204 42.2183C114.085 43.1517 113.751 44.2627 113.488 44.6854C112.746 44.6627 112.055 44.6396 111.388 44.6396C110.717 44.6185 110.073 44.6185 109.429 44.6185H107.329C106.566 44.6185 105.824 44.6395 104.678 44.6854C104.489 44.6185 104.463 44.2379 104.632 44.1288L105.274 44.063C106.304 43.9528 106.398 43.8179 106.398 42.2852V37.3104Z" fill="black"/>
<path fill-rule="evenodd" clip-rule="evenodd" d="M119.119 40.0877C117.972 39.5332 116.996 38.6662 116.996 37.4229C116.996 35.7996 118.33 34.668 120.741 34.668C121.578 34.668 122.151 34.8661 122.966 35.0021C123.154 35.379 123.321 36.2233 123.297 37.1778C123.225 37.3554 122.794 37.3781 122.676 37.2215C122.484 36.4447 121.865 35.3115 120.457 35.3115C119.048 35.3115 118.521 36.0678 118.521 36.821C118.521 37.621 119.168 38.1112 120.121 38.575L121.603 39.2886C122.461 39.6881 123.535 40.6205 123.535 42.1094C123.535 43.8408 122.009 44.9297 119.643 44.9297C118.188 44.9297 117.235 44.4627 116.9 44.2382C116.686 43.9293 116.398 43.1303 116.398 41.9529C116.491 41.7315 116.852 41.7078 117.018 41.9076C117.207 42.7061 118.258 44.2851 119.862 44.2851C121.075 44.2851 121.865 43.7069 121.865 42.686C121.865 41.9745 121.554 41.2408 120.194 40.5978L119.119 40.0877Z" fill="black"/>
<path fill-rule="evenodd" clip-rule="evenodd" d="M10.3955 20.918C5.16467 26.65 5.94025 38.4924 14.3192 43.5966C7.85047 42.3221 0.106801 40.6539 0.00108323 33.7809C-0.100737 27.1618 7.00132 23.1765 10.3955 20.918Z" fill="#FF8930"/>
<path fill-rule="evenodd" clip-rule="evenodd" d="M17.3522 5C17.6528 5.13665 34.1136 15.668 26.0834 27.2209C18.9926 37.4159 17.1915 40.0663 18.5765 44.1445C13.9932 42.319 10.088 35.9371 10.0626 29.8375C10.0207 20.5964 21.1259 16.4234 17.3522 5Z" fill="#FF8930"/>
<path fill-rule="evenodd" clip-rule="evenodd" d="M140.661 28.3265C141.054 28.6959 141.542 28.8754 142.122 28.8664C143.757 28.842 145.545 27.4724 147.486 24.7565C148.207 23.7526 148.778 22.7262 149.2 21.6777C149.537 20.8424 149.702 20.2133 149.695 19.7898C149.689 19.4962 149.611 19.278 149.459 19.1337C149.307 18.9893 149.073 18.9194 148.756 18.9249C147.929 18.937 146.927 19.4809 145.75 20.557C144.625 21.5996 143.551 23.0568 142.528 24.9284C141.59 26.652 140.968 27.7849 140.661 28.3265ZM146.42 18.1041C147.133 17.6702 147.665 17.369 148.014 17.2007C148.729 16.8648 149.43 16.6916 150.115 16.6812C150.889 16.6699 151.473 16.8688 151.867 17.2779C152.261 17.6873 152.466 18.307 152.48 19.1377C152.5 20.2774 152.093 21.6506 151.259 23.2593C149.966 25.8028 148.383 27.8133 146.509 29.2894C144.93 30.535 143.437 31.1673 142.03 31.1885C141.256 31.1997 140.487 30.9346 139.721 30.392C137.39 34.9371 135.317 39.5687 133.498 44.2855C133.114 45.4148 132.649 45.9835 132.103 45.9916C131.84 45.9956 131.573 45.8364 131.304 45.5149C131.106 45.2894 131.005 45.0396 131 44.7627C130.985 43.8832 132.096 41.0087 134.333 36.1394C137.79 28.63 141.086 22.3853 144.218 17.4041C144.868 16.3524 145.304 15.6295 145.525 15.2353C146.122 14.1683 146.712 13.6298 147.292 13.6213C147.889 13.6123 148.195 13.9419 148.206 14.6094C148.213 14.9837 148.01 15.4911 147.6 16.1324C147.103 16.9545 146.71 17.6111 146.42 18.1041Z" fill="#FF8930"/>
<path fill-rule="evenodd" clip-rule="evenodd" d="M163.415 8.27943C165.902 4.67652 167.63 2.86717 168.597 2.85319C168.931 2.84778 169.102 3.02501 169.108 3.3831C169.121 4.13218 168.399 5.66463 166.946 7.98269C164.138 12.4542 160.931 16.1658 157.324 19.1175C159.325 14.8539 161.355 11.2415 163.415 8.27943ZM169.772 22.7574C170.95 20.6883 171.533 19.3601 171.522 18.7743C171.518 18.4974 171.398 18.2475 171.167 18.022C170.953 17.8141 170.712 17.7118 170.449 17.7154C169.974 17.7226 169.495 18.0148 169.013 18.5916C168.514 19.2347 168.113 19.9649 167.81 20.7839C167.238 22.2906 166.551 23.6688 165.746 24.9181C164.186 27.3191 162.959 28.5259 162.062 28.539C161.851 28.5422 161.688 28.4835 161.571 28.3627C161.454 28.2432 161.394 28.0686 161.39 27.8404C161.374 26.9457 161.792 25.7019 162.645 24.1094C163.377 22.747 164.459 21.2488 165.89 19.6154C166.529 18.9064 166.846 18.3964 166.841 18.087C166.837 17.9084 166.746 17.7303 166.568 17.5539C166.353 17.3614 166.122 17.2671 165.876 17.2712C165.436 17.2775 164.879 17.5548 164.202 18.1019C163.335 18.7829 162.463 19.7642 161.589 21.0477C161.228 21.5726 160.906 22.085 160.618 22.5856C160.486 22.816 159.996 23.5462 159.876 23.7315C159.812 23.8316 159.749 23.9299 159.686 24.0256C158.872 25.282 158.249 26.1628 157.817 26.6688C156.834 27.7913 155.81 28.3654 154.844 28.3654C154.422 28.3654 154.207 28.1719 154.201 27.7647C154.195 27.4557 154.318 26.9078 154.568 26.1231C154.818 25.337 155.196 24.3056 155.702 23.028C156.932 21.9682 157.902 21.1235 158.612 20.4934C161.314 18.092 163.629 15.6963 165.558 13.3061C169.862 7.93398 171.994 4.10783 171.954 1.82855C171.946 1.34014 171.763 0.9117 171.404 0.542795C171.064 0.173439 170.63 -0.00785678 170.102 0.00026094C168.449 0.0246141 166.392 1.58637 163.931 4.68419C160.849 8.54055 157.847 13.4301 154.925 19.3516C153.787 21.6809 152.932 23.6557 152.363 25.2766C151.793 26.8965 151.516 28.1629 151.532 29.0748C151.542 29.6119 151.699 30.0656 152.004 30.4354C152.436 30.9504 152.985 31.1921 153.654 31.1921C155.551 31.1921 157.173 30.1797 158.817 28.2206C158.817 28.2526 158.812 28.2865 158.813 28.3189C158.825 29.0189 159.003 29.6191 159.345 30.1184C159.833 30.8273 160.508 31.1759 161.369 31.1628C162.372 31.148 163.373 30.6117 164.375 29.5546C164.945 28.9602 165.6 28.1687 166.34 27.1806C166.404 27.8801 166.455 28.3027 166.493 28.4484C166.688 29.5528 167.116 30.393 167.777 30.9694C168.51 31.6102 169.315 31.9232 170.194 31.9106C170.364 31.9079 170.974 31.8646 171.052 31.7324C171.128 31.6034 170.675 31.387 170.479 31.2557C169.713 30.7439 168.462 29.4563 168.594 26.3166C168.639 25.241 168.969 24.1861 169.772 22.7574Z" fill="#FF8930"/>
<path fill-rule="evenodd" clip-rule="evenodd" d="M183.487 14.6456C184.577 14.6298 185.397 14.7966 185.949 15.1471C186.5 15.4966 186.783 16.0377 186.795 16.7701C186.813 17.7312 186.442 18.6647 185.683 19.5712C184.959 20.429 183.864 21.1294 182.396 21.6719C181.592 21.9614 180.916 22.1098 180.372 22.1179C179.632 22.1287 179.259 21.8333 179.248 21.2308C179.241 20.824 179.446 20.5115 179.865 20.2937C179.969 20.2427 180.565 20.0962 181.652 19.8513C182.3 19.7119 182.892 19.4174 183.43 18.97C183.899 18.5885 184.129 18.1777 184.122 17.7384C184.115 17.3966 184.006 17.1463 183.792 16.9866C183.577 16.8265 183.26 16.7498 182.837 16.7562C181.817 16.7715 180.698 17.1711 179.481 17.954C178.072 18.8384 177.377 19.8752 177.398 21.0635C177.413 21.91 177.897 22.9608 178.851 24.2168C179.913 25.5851 180.453 26.7491 180.469 27.7097C180.494 29.1425 179.828 30.2762 178.47 31.1101C177.634 31.6274 176.681 31.8939 175.608 31.9101C173.92 31.9354 172.627 31.3929 171.727 30.2825C171.098 29.4947 170.774 28.5548 170.755 27.4634C170.733 26.1944 171.066 25.1228 171.754 24.2493C172.202 23.6729 172.672 23.3807 173.164 23.373C173.602 23.3667 173.826 23.5263 173.832 23.8515C173.834 23.9823 173.759 24.1789 173.604 24.4414C173.212 25.1476 173.024 25.9734 173.04 26.9164C173.054 27.7146 173.374 28.3857 174 28.93C174.552 29.4099 175.181 29.6448 175.884 29.6345C176.57 29.6241 177.103 29.4049 177.483 28.9756C177.793 28.613 177.944 28.1543 177.934 27.601C177.923 26.9173 177.485 26.0365 176.622 24.9587C175.434 23.4776 174.831 22.1274 174.809 20.9066C174.781 19.279 175.714 17.8236 177.609 16.541C179.452 15.309 181.412 14.6771 183.487 14.6456Z" fill="#FF8930"/>
</svg>
