<svg width="230" height="47" viewBox="0 0 230 47" fill="none" xmlns="http://www.w3.org/2000/svg">
<path d="M83.9749 38.6923H78.1348V17.9791H70.582V12.9731H91.5276V17.9791H83.9749V38.6923Z" fill="#100F0D"/>
<path d="M114.879 38.6921H109.004V12.9729H114.879V38.6921Z" fill="#100F0D"/>
<path d="M218.545 33.6168H228.705V38.6929H212.672V12.9737H218.545V33.6168Z" fill="#100F0D"/>
<path d="M134.434 12.9731H143.951C150.972 12.9731 157.958 16.6913 157.958 25.7626C157.958 34.3134 151.11 38.6923 144.298 38.6923H134.434V12.9731ZM140.134 33.6512H143.777C148.678 33.6512 151.944 30.5935 151.944 25.7276C151.944 21.1052 148.643 17.9791 143.916 17.9791H140.134V33.6512Z" fill="#100F0D"/>
<path d="M190.557 38.6923H197.015L186.419 12.9731H180.354L169.656 38.6923H175.939L177.835 33.6178H188.679L190.557 38.6923ZM179.409 29.048L183.283 18.9898L187.121 29.048H179.409Z" fill="#100F0D"/>
<path d="M31.3062 16.7205L23.7789 24.2494L16.25 16.7205L23.7789 9.19479L31.3062 16.7205Z" fill="#100F0D"/>
<path d="M31.3062 31.7774L23.7789 39.3063L16.25 31.7774L23.7789 24.2485L31.3062 31.7774Z" fill="#100F0D"/>
<path d="M16.2515 16.7211L8.72261 24.25L1.19531 16.7211L8.72261 9.19381L16.2515 16.7211Z" fill="#100F0D"/>
<path d="M46.3609 16.7211L38.8336 24.25L31.3047 16.7211L38.8336 9.19381L46.3609 16.7211Z" fill="#100F0D"/>
</svg>
