<svg width="127" height="32" viewBox="0 0 127 32" fill="none" xmlns="http://www.w3.org/2000/svg">
<path fill-rule="evenodd" clip-rule="evenodd" d="M54.7783 19.281C54.7783 19.799 54.8653 20.301 55.0383 20.78C55.2057 21.2553 55.467 21.6921 55.8066 22.0644C56.1463 22.4367 56.5573 22.7368 57.0153 22.947C57.4883 23.169 58.0253 23.28 58.6253 23.28C59.2243 23.28 59.7613 23.169 60.2343 22.947C60.694 22.7347 61.1067 22.4328 61.4483 22.059C61.7833 21.689 62.0383 21.263 62.2113 20.779C62.3813 20.301 62.4683 19.799 62.4683 19.281C62.4694 18.77 62.3825 18.2625 62.2113 17.781C62.0436 17.3089 61.7843 16.8746 61.4483 16.503C61.1066 16.1294 60.6939 15.8275 60.2343 15.615C59.729 15.3857 59.1792 15.2713 58.6243 15.28C58.0263 15.28 57.4883 15.393 57.0153 15.615C56.5576 15.8253 56.1468 16.1253 55.807 16.4971C55.4673 16.869 55.2056 17.3052 55.0373 17.78C54.8652 18.2617 54.7776 18.7695 54.7783 19.281ZM51.5743 19.441C51.5743 18.379 51.7633 17.415 52.1413 16.549C52.4971 15.7128 53.0186 14.9572 53.6743 14.328C54.3341 13.7036 55.1129 13.2186 55.9643 12.902C56.866 12.5645 57.8216 12.3944 58.7843 12.4C59.7773 12.4 60.7173 12.568 61.6013 12.902C62.4534 13.219 63.2332 13.7039 63.8943 14.328C64.5495 14.9578 65.0708 15.7131 65.4273 16.549C65.8043 17.415 65.9933 18.379 65.9933 19.441C65.9933 20.503 65.8043 21.467 65.4273 22.333C65.0708 23.1688 64.5494 23.9242 63.8943 24.554C63.2337 25.1782 62.4538 25.6626 61.6013 25.978C60.701 26.3164 59.7462 26.4866 58.7843 26.48C57.8215 26.4867 56.8657 26.3166 55.9643 25.978C55.1126 25.663 54.3336 25.1786 53.6743 24.554C53.0186 23.9248 52.4971 23.1692 52.1413 22.333C51.7633 21.467 51.5743 20.503 51.5743 19.441ZM70.7994 19.281C70.7994 19.799 70.8863 20.301 71.0593 20.78C71.2269 21.2553 71.4882 21.692 71.8278 22.0642C72.1674 22.4365 72.5784 22.7367 73.0363 22.947C73.5093 23.169 74.0464 23.28 74.6464 23.28C75.2454 23.28 75.7823 23.169 76.2553 22.947C76.7148 22.7348 77.1273 22.4329 77.4683 22.059C77.8057 21.6874 78.0654 21.2523 78.2323 20.779C78.4023 20.301 78.4893 19.799 78.4893 19.281C78.4904 18.77 78.4035 18.2625 78.2323 17.781C78.0645 17.3088 77.8048 16.8744 77.4683 16.503C77.1271 16.1292 76.7147 15.8273 76.2553 15.615C75.75 15.3857 75.2002 15.2713 74.6453 15.28C74.0463 15.28 73.5093 15.393 73.0363 15.615C72.579 15.8256 72.1684 16.1257 71.8288 16.4975C71.4893 16.8693 71.2276 17.3054 71.0593 17.78C70.8863 18.262 70.7994 18.764 70.7994 19.281ZM78.8403 23.851H78.7843C78.3013 24.658 77.6543 25.245 76.8363 25.611C76.0041 25.9799 75.1027 26.167 74.1923 26.16C73.1523 26.16 72.2303 25.983 71.4223 25.625C70.6367 25.283 69.9305 24.7818 69.3483 24.153C68.7651 23.5177 68.3195 22.7687 68.0393 21.953C67.7374 21.0779 67.5872 20.1577 67.5953 19.232C67.5953 18.261 67.7513 17.352 68.0693 16.509C68.3649 15.6981 68.8129 14.9513 69.3893 14.309C69.9619 13.6822 70.6587 13.1816 71.4353 12.839C72.2592 12.4758 73.1511 12.2927 74.0513 12.302C74.6833 12.302 75.2413 12.367 75.7233 12.494C76.2063 12.624 76.6313 12.787 77.0033 12.991C77.3743 13.193 77.6903 13.407 77.9503 13.636C78.2083 13.866 78.4243 14.09 78.5893 14.309H78.6733V7.038C78.6733 6.708 78.9373 6.32 79.4013 6.32H81.2883C81.7243 6.32 82.0143 6.682 82.0143 7.038V25.112C82.0143 25.572 81.6203 25.831 81.2883 25.831H79.5703C79.379 25.8303 79.1956 25.7547 79.0592 25.6206C78.9228 25.4864 78.8443 25.3043 78.8403 25.113V23.851ZM87.4613 19.281C87.4613 19.799 87.5483 20.301 87.7213 20.78C87.8886 21.2556 88.1499 21.6925 88.4897 22.0649C88.8296 22.4372 89.241 22.7372 89.6993 22.947C90.1713 23.169 90.7093 23.28 91.3083 23.28C91.9073 23.28 92.4443 23.169 92.9173 22.947C93.3771 22.7348 93.7899 22.4329 94.1313 22.059C94.4663 21.689 94.7213 21.263 94.8943 20.779C95.0653 20.301 95.1513 19.799 95.1513 19.281C95.1524 18.77 95.0655 18.2625 94.8943 17.781C94.7267 17.3089 94.4674 16.8746 94.1313 16.503C93.7898 16.1292 93.377 15.8273 92.9173 15.615C92.412 15.3857 91.8622 15.2713 91.3073 15.28C90.7093 15.28 90.1713 15.393 89.6993 15.615C89.2415 15.8251 88.8305 16.125 88.4908 16.4969C88.151 16.8688 87.8894 17.3051 87.7213 17.78C87.5483 18.262 87.4613 18.764 87.4613 19.281ZM84.2574 19.441C84.2574 18.379 84.4463 17.415 84.8243 16.549C85.1801 15.7128 85.7016 14.9572 86.3573 14.328C87.0171 13.7036 87.7959 13.2186 88.6473 12.902C89.549 12.5645 90.5046 12.3944 91.4673 12.4C92.4603 12.4 93.4003 12.568 94.2833 12.902C95.1354 13.219 95.9152 13.7039 96.5763 14.328C97.2314 14.9578 97.7528 15.7131 98.1093 16.549C98.4873 17.415 98.6763 18.379 98.6763 19.441C98.6763 20.503 98.4863 21.467 98.1093 22.333C97.7528 23.1688 97.2314 23.9242 96.5763 24.554C95.9157 25.1782 95.1358 25.6626 94.2833 25.978C93.3833 26.3163 92.4288 26.4865 91.4673 26.48C90.5045 26.4868 89.5487 26.3166 88.6473 25.978C87.7956 25.663 87.0166 25.1786 86.3573 24.554C85.7016 23.9248 85.1801 23.1692 84.8243 22.333C84.4463 21.467 84.2574 20.503 84.2574 19.441ZM100.278 7.92C100.278 7.404 100.472 6.957 100.859 6.573C101.249 6.191 101.739 6 102.333 6C102.928 6 103.429 6.182 103.834 6.547C104.239 6.911 104.444 7.369 104.444 7.92C104.444 8.471 104.239 8.929 103.834 9.293C103.429 9.658 102.928 9.84 102.334 9.84C101.739 9.84 101.249 9.649 100.859 9.265C100.472 8.883 100.279 8.436 100.279 7.92H100.278ZM114.035 16.451C113.706 16.451 113.464 16.198 113.422 16.088C113.148 15.358 112.274 15.083 111.568 15.083C110.455 15.083 109.582 15.607 109.582 16.508C109.582 17.38 110.427 17.558 110.949 17.718C111.522 17.895 112.617 18.138 113.22 18.282C113.818 18.4231 114.395 18.6392 114.939 18.925C116.691 19.849 116.94 21.303 116.94 22.179C116.94 25.409 113.79 26.48 111.604 26.48C109.918 26.48 106.751 26.22 106.056 22.955C105.988 22.638 106.266 22.149 106.774 22.149H108.594C108.954 22.149 109.195 22.415 109.265 22.623C109.5 23.28 110.244 23.775 111.498 23.775C112.844 23.775 113.64 23.233 113.64 22.512C113.64 22.046 113.38 21.63 113.04 21.397C112.019 20.693 109.495 20.614 108.125 19.873C107.6 19.59 106.283 18.941 106.283 16.731C106.283 13.685 109.009 12.4 111.403 12.4C114.935 12.4 116.231 14.667 116.377 15.507C116.458 15.971 116.202 16.451 115.689 16.451H114.035ZM117.261 14.625V13.25C117.261 12.921 117.523 12.527 117.989 12.527H119.788V9.149C119.788 8.788 120.037 8.568 120.225 8.487L122.146 7.66C122.708 7.433 123.162 7.889 123.162 8.328V12.527H126.139C126.599 12.527 126.873 12.922 126.873 13.25V14.627C126.873 15.027 126.511 15.352 126.14 15.352H123.162V21.173C123.162 21.838 123.143 22.358 123.401 22.743C123.637 23.095 123.984 23.225 124.679 23.225C124.879 23.225 125.056 23.192 125.206 23.142C125.367 23.0814 125.544 23.0802 125.706 23.1387C125.868 23.1972 126.004 23.3114 126.089 23.461C126.309 23.879 126.559 24.339 126.736 24.669C126.781 24.755 126.808 24.849 126.817 24.9457C126.825 25.0424 126.815 25.1398 126.785 25.2323C126.756 25.3249 126.708 25.4106 126.646 25.4847C126.583 25.5588 126.506 25.6197 126.42 25.664C125.849 25.938 125.058 26.16 123.973 26.16C123.074 26.16 122.565 26.063 121.996 25.869C121.436 25.6664 120.939 25.3205 120.555 24.866C120.225 24.47 120.062 23.938 119.941 23.347C119.817 22.757 119.788 22.039 119.788 21.262V15.352H117.994C117.524 15.352 117.261 14.95 117.261 14.625ZM41.3213 14.625V13.25C41.3213 12.921 41.5763 12.527 42.0313 12.527H44.0323V9.149C44.0323 8.788 44.2743 8.568 44.4583 8.487L46.3283 7.66C46.8763 7.433 47.3183 7.889 47.3183 8.328V12.527H50.2183C50.6663 12.527 50.9333 12.922 50.9333 13.25V14.627C50.9289 14.816 50.8526 14.9962 50.7199 15.1309C50.5873 15.2656 50.4083 15.3447 50.2193 15.352H47.3193V21.173C47.3193 21.838 47.3003 22.358 47.5513 22.743C47.7813 23.095 48.1193 23.225 48.7963 23.225C48.9903 23.225 49.1633 23.192 49.3103 23.142C49.468 23.0821 49.6421 23.0814 49.8002 23.1401C49.9584 23.1988 50.0899 23.3128 50.1703 23.461C50.3833 23.879 50.6283 24.339 50.8003 24.669C50.9883 25.031 50.8363 25.495 50.4913 25.664C49.9353 25.938 49.1653 26.16 48.1093 26.16C47.2333 26.16 46.7373 26.063 46.1833 25.869C45.6351 25.6642 45.1508 25.3182 44.7793 24.866C44.4583 24.47 44.2993 23.938 44.1813 23.347C44.0613 22.757 44.0323 22.039 44.0323 21.262V15.352H42.0353C41.5763 15.352 41.3203 14.95 41.3203 14.625H41.3213ZM101.616 25.84H103.426C103.81 25.84 104.123 25.52 104.123 25.127V13.433C104.125 13.2463 104.052 13.0666 103.922 12.9331C103.792 12.7995 103.614 12.7229 103.427 12.72H101.616C101.429 12.7226 101.251 12.7991 101.12 12.9327C100.99 13.0663 100.917 13.2462 100.919 13.433V25.127C100.919 25.519 101.232 25.84 101.616 25.84Z" fill="#E44332"/>
<path fill-rule="evenodd" clip-rule="evenodd" d="M1.17742 1.17389C1.92785 0.424402 2.9444 0.00237159 4.005 0H28.037C30.24 0 32.042 1.8 32.042 4V28C32.042 30.2 30.24 32 28.037 32H4.005C1.802 32 0 30.2 0 28V22.555C1.321 23.333 4.607 25.265 5.403 25.72C5.878 25.99 6.333 25.984 6.792 25.717L19.657 18.238C19.932 18.078 19.946 17.585 19.637 17.408C19.5542 17.3602 19.4514 17.3009 19.3411 17.2373C19.041 17.0643 18.6854 16.8593 18.526 16.765C18.3739 16.6811 18.2026 16.6381 18.0289 16.6402C17.8552 16.6423 17.685 16.6894 17.535 16.777C17.381 16.867 7.102 22.837 6.759 23.033C6.347 23.269 5.839 23.273 5.429 23.033L0 19.847V17.1151C1.321 17.8931 4.607 19.8251 5.403 20.2801C5.878 20.5501 6.333 20.5441 6.792 20.2771L19.657 12.7981C19.932 12.6381 19.946 12.1451 19.637 11.9681L19.3407 11.7972L19.3402 11.7969C19.0403 11.624 18.6852 11.4194 18.526 11.3251C18.3739 11.2412 18.2026 11.1982 18.0289 11.2003C17.8552 11.2024 17.685 11.2495 17.535 11.3371C17.381 11.4271 7.102 17.3971 6.759 17.5931C6.347 17.8291 5.839 17.8331 5.429 17.5931L0 14.4071V11.995C1.321 12.773 4.607 14.705 5.403 15.16C5.878 15.43 6.333 15.424 6.792 15.157L19.657 7.67795C19.932 7.51795 19.946 7.02495 19.637 6.84795L19.3409 6.67713C19.0408 6.50418 18.6854 6.29925 18.526 6.20495C18.3739 6.12105 18.2026 6.07805 18.0289 6.08015C17.8552 6.08226 17.685 6.12939 17.535 6.21695C17.381 6.30695 7.102 12.277 6.759 12.473C6.347 12.709 5.839 12.713 5.429 12.473L0 9.28695V4C0.0036965 2.93941 0.426996 1.92338 1.17742 1.17389Z" fill="#E44332"/>
</svg>
