<svg width="127" height="32" viewBox="0 0 127 32" fill="none" xmlns="http://www.w3.org/2000/svg">
<path fill-rule="evenodd" clip-rule="evenodd" d="M54.7779 19.281C54.7779 19.799 54.8649 20.301 55.0379 20.78C55.2053 21.2553 55.4666 21.6921 55.8062 22.0644C56.1459 22.4367 56.5569 22.7368 57.0149 22.947C57.4879 23.169 58.0249 23.28 58.6249 23.28C59.2239 23.28 59.7609 23.169 60.2339 22.947C60.6936 22.7347 61.1063 22.4328 61.4479 22.059C61.7829 21.689 62.0379 21.263 62.2109 20.779C62.3809 20.301 62.4679 19.799 62.4679 19.281C62.469 18.77 62.3821 18.2625 62.2109 17.781C62.0432 17.3089 61.7839 16.8746 61.4479 16.503C61.1062 16.1294 60.6935 15.8275 60.2339 15.615C59.7286 15.3857 59.1788 15.2713 58.6239 15.28C58.0259 15.28 57.4879 15.393 57.0149 15.615C56.5572 15.8253 56.1464 16.1253 55.8066 16.4971C55.4669 16.869 55.2052 17.3052 55.0369 17.78C54.8648 18.2617 54.7772 18.7695 54.7779 19.281V19.281ZM51.5739 19.441C51.5739 18.379 51.7629 17.415 52.1409 16.549C52.4967 15.7128 53.0182 14.9572 53.6739 14.328C54.3337 13.7036 55.1125 13.2186 55.9639 12.902C56.8656 12.5645 57.8212 12.3944 58.7839 12.4C59.7769 12.4 60.7169 12.568 61.6009 12.902C62.453 13.219 63.2328 13.7039 63.8939 14.328C64.5491 14.9578 65.0704 15.7131 65.4269 16.549C65.8039 17.415 65.9929 18.379 65.9929 19.441C65.9929 20.503 65.8039 21.467 65.4269 22.333C65.0704 23.1688 64.549 23.9242 63.8939 24.554C63.2333 25.1782 62.4534 25.6626 61.6009 25.978C60.7006 26.3164 59.7458 26.4866 58.7839 26.48C57.8211 26.4867 56.8653 26.3166 55.9639 25.978C55.1122 25.663 54.3332 25.1786 53.6739 24.554C53.0182 23.9248 52.4967 23.1692 52.1409 22.333C51.7629 21.467 51.5739 20.503 51.5739 19.441ZM70.799 19.281C70.799 19.799 70.8859 20.301 71.0589 20.78C71.2265 21.2553 71.4878 21.692 71.8274 22.0642C72.167 22.4365 72.578 22.7367 73.0359 22.947C73.5089 23.169 74.046 23.28 74.646 23.28C75.245 23.28 75.7819 23.169 76.2549 22.947C76.7144 22.7348 77.1269 22.4329 77.4679 22.059C77.8053 21.6874 78.065 21.2523 78.2319 20.779C78.4019 20.301 78.4889 19.799 78.4889 19.281C78.49 18.77 78.4031 18.2625 78.2319 17.781C78.0641 17.3088 77.8044 16.8744 77.4679 16.503C77.1267 16.1292 76.7143 15.8273 76.2549 15.615C75.7496 15.3857 75.1998 15.2713 74.6449 15.28C74.0459 15.28 73.5089 15.393 73.0359 15.615C72.5786 15.8256 72.168 16.1257 71.8284 16.4975C71.4889 16.8693 71.2272 17.3054 71.0589 17.78C70.8859 18.262 70.799 18.764 70.799 19.281ZM78.8399 23.851H78.7839C78.3009 24.658 77.6539 25.245 76.8359 25.611C76.0037 25.9799 75.1023 26.167 74.1919 26.16C73.1519 26.16 72.2299 25.983 71.4219 25.625C70.6363 25.283 69.9301 24.7818 69.3479 24.153C68.7647 23.5177 68.3191 22.7687 68.0389 21.953C67.737 21.0779 67.5868 20.1577 67.5949 19.232C67.5949 18.261 67.7509 17.352 68.0689 16.509C68.3645 15.6981 68.8125 14.9513 69.3889 14.309C69.9615 13.6822 70.6583 13.1816 71.4349 12.839C72.2588 12.4758 73.1507 12.2927 74.0509 12.302C74.6829 12.302 75.2409 12.367 75.7229 12.494C76.2059 12.624 76.6309 12.787 77.0029 12.991C77.3739 13.193 77.6899 13.407 77.9499 13.636C78.2079 13.866 78.4239 14.09 78.5889 14.309H78.6729V7.038C78.6729 6.708 78.9369 6.32 79.4009 6.32H81.2879C81.7239 6.32 82.0139 6.682 82.0139 7.038V25.112C82.0139 25.572 81.6199 25.831 81.2879 25.831H79.5699C79.3786 25.8303 79.1952 25.7547 79.0588 25.6206C78.9224 25.4864 78.8439 25.3043 78.8399 25.113V23.851ZM87.4609 19.281C87.4609 19.799 87.5479 20.301 87.7209 20.78C87.8882 21.2556 88.1495 21.6925 88.4893 22.0649C88.8292 22.4372 89.2406 22.7372 89.6989 22.947C90.1709 23.169 90.7089 23.28 91.3079 23.28C91.9069 23.28 92.4439 23.169 92.9169 22.947C93.3767 22.7348 93.7895 22.4329 94.1309 22.059C94.4659 21.689 94.7209 21.263 94.8939 20.779C95.0649 20.301 95.1509 19.799 95.1509 19.281C95.152 18.77 95.0651 18.2625 94.8939 17.781C94.7263 17.3089 94.467 16.8746 94.1309 16.503C93.7894 16.1292 93.3766 15.8273 92.9169 15.615C92.4116 15.3857 91.8618 15.2713 91.3069 15.28C90.7089 15.28 90.1709 15.393 89.6989 15.615C89.2411 15.8251 88.8301 16.125 88.4904 16.4969C88.1506 16.8688 87.889 17.3051 87.7209 17.78C87.5479 18.262 87.4609 18.764 87.4609 19.281V19.281ZM84.257 19.441C84.257 18.379 84.4459 17.415 84.8239 16.549C85.1797 15.7128 85.7012 14.9572 86.3569 14.328C87.0167 13.7036 87.7955 13.2186 88.6469 12.902C89.5486 12.5645 90.5042 12.3944 91.4669 12.4C92.4599 12.4 93.3999 12.568 94.2829 12.902C95.135 13.219 95.9148 13.7039 96.5759 14.328C97.231 14.9578 97.7524 15.7131 98.1089 16.549C98.4869 17.415 98.6759 18.379 98.6759 19.441C98.6759 20.503 98.4859 21.467 98.1089 22.333C97.7524 23.1688 97.231 23.9242 96.5759 24.554C95.9153 25.1782 95.1354 25.6626 94.2829 25.978C93.3829 26.3163 92.4284 26.4865 91.4669 26.48C90.5041 26.4868 89.5483 26.3166 88.6469 25.978C87.7952 25.663 87.0162 25.1786 86.3569 24.554C85.7012 23.9248 85.1797 23.1692 84.8239 22.333C84.4459 21.467 84.257 20.503 84.257 19.441ZM100.278 7.92C100.278 7.404 100.472 6.957 100.859 6.573C101.249 6.191 101.739 6 102.333 6C102.928 6 103.429 6.182 103.834 6.547C104.239 6.911 104.444 7.369 104.444 7.92C104.444 8.471 104.239 8.929 103.834 9.293C103.429 9.658 102.928 9.84 102.334 9.84C101.739 9.84 101.249 9.649 100.859 9.265C100.472 8.883 100.279 8.436 100.279 7.92H100.278ZM114.035 16.451C113.706 16.451 113.464 16.198 113.422 16.088C113.148 15.358 112.274 15.083 111.568 15.083C110.455 15.083 109.582 15.607 109.582 16.508C109.582 17.38 110.427 17.558 110.949 17.718C111.522 17.895 112.617 18.138 113.22 18.282C113.818 18.4231 114.395 18.6392 114.939 18.925C116.691 19.849 116.94 21.303 116.94 22.179C116.94 25.409 113.79 26.48 111.604 26.48C109.918 26.48 106.751 26.22 106.056 22.955C105.988 22.638 106.266 22.149 106.774 22.149H108.594C108.954 22.149 109.195 22.415 109.265 22.623C109.5 23.28 110.244 23.775 111.498 23.775C112.844 23.775 113.64 23.233 113.64 22.512C113.64 22.046 113.38 21.63 113.04 21.397C112.019 20.693 109.495 20.614 108.125 19.873C107.6 19.59 106.283 18.941 106.283 16.731C106.283 13.685 109.009 12.4 111.403 12.4C114.935 12.4 116.231 14.667 116.377 15.507C116.458 15.971 116.202 16.451 115.689 16.451H114.035ZM117.261 14.625V13.25C117.261 12.921 117.523 12.527 117.989 12.527H119.788V9.149C119.788 8.788 120.037 8.568 120.225 8.487L122.146 7.66C122.708 7.433 123.162 7.889 123.162 8.328V12.527H126.139C126.599 12.527 126.873 12.922 126.873 13.25V14.627C126.873 15.027 126.511 15.352 126.14 15.352H123.162V21.173C123.162 21.838 123.143 22.358 123.401 22.743C123.637 23.095 123.984 23.225 124.679 23.225C124.879 23.225 125.056 23.192 125.206 23.142C125.367 23.0814 125.544 23.0802 125.706 23.1387C125.868 23.1972 126.004 23.3114 126.089 23.461C126.309 23.879 126.559 24.339 126.736 24.669C126.781 24.755 126.808 24.849 126.817 24.9457C126.825 25.0424 126.815 25.1398 126.785 25.2323C126.756 25.3249 126.708 25.4106 126.646 25.4847C126.583 25.5588 126.506 25.6197 126.42 25.664C125.849 25.938 125.058 26.16 123.973 26.16C123.074 26.16 122.565 26.063 121.996 25.869C121.436 25.6664 120.939 25.3205 120.555 24.866C120.225 24.47 120.062 23.938 119.941 23.347C119.817 22.757 119.788 22.039 119.788 21.262V15.352H117.994C117.524 15.352 117.261 14.95 117.261 14.625V14.625ZM41.3209 14.625V13.25C41.3209 12.921 41.5759 12.527 42.0309 12.527H44.0319V9.149C44.0319 8.788 44.2739 8.568 44.4579 8.487L46.3279 7.66C46.8759 7.433 47.3179 7.889 47.3179 8.328V12.527H50.2179C50.6659 12.527 50.9329 12.922 50.9329 13.25V14.627C50.9285 14.816 50.8522 14.9962 50.7195 15.1309C50.5869 15.2656 50.4079 15.3447 50.2189 15.352H47.3189V21.173C47.3189 21.838 47.2999 22.358 47.5509 22.743C47.7809 23.095 48.1189 23.225 48.7959 23.225C48.9899 23.225 49.1629 23.192 49.3099 23.142C49.4676 23.0821 49.6417 23.0814 49.7998 23.1401C49.958 23.1988 50.0895 23.3128 50.1699 23.461C50.3829 23.879 50.6279 24.339 50.7999 24.669C50.9879 25.031 50.8359 25.495 50.4909 25.664C49.9349 25.938 49.1649 26.16 48.1089 26.16C47.2329 26.16 46.7369 26.063 46.1829 25.869C45.6347 25.6642 45.1504 25.3182 44.7789 24.866C44.4579 24.47 44.2989 23.938 44.1809 23.347C44.0609 22.757 44.0319 22.039 44.0319 21.262V15.352H42.0349C41.5759 15.352 41.3199 14.95 41.3199 14.625H41.3209ZM101.616 25.84H103.426C103.81 25.84 104.123 25.52 104.123 25.127V13.433C104.125 13.2463 104.052 13.0666 103.922 12.9331C103.792 12.7995 103.614 12.7229 103.427 12.72H101.616C101.429 12.7226 101.251 12.7991 101.12 12.9327C100.99 13.0663 100.917 13.2462 100.919 13.433V25.127C100.919 25.519 101.232 25.84 101.616 25.84" fill="#E44332"/>
<path fill-rule="evenodd" clip-rule="evenodd" d="M4.005 0C2.9444 0.00237159 1.92785 0.424402 1.17742 1.17389C0.426996 1.92338 0.0036965 2.93941 0 4L0 28C0 30.2 1.802 32 4.005 32H28.037C30.24 32 32.042 30.2 32.042 28V4C32.042 1.8 30.24 0 28.037 0H4.005Z" fill="#E44332"/>
<path fill-rule="evenodd" clip-rule="evenodd" d="M6.792 15.157L19.657 7.67795C19.932 7.51795 19.946 7.02495 19.637 6.84795C19.329 6.66995 18.744 6.33395 18.526 6.20495C18.3739 6.12105 18.2026 6.07805 18.0289 6.08015C17.8552 6.08226 17.685 6.12939 17.535 6.21695C17.381 6.30695 7.102 12.277 6.759 12.473C6.347 12.709 5.839 12.713 5.429 12.473L0 9.28695V11.995C1.321 12.773 4.607 14.705 5.403 15.16C5.878 15.43 6.333 15.424 6.792 15.157Z" fill="white"/>
<path fill-rule="evenodd" clip-rule="evenodd" d="M6.792 20.2771L19.657 12.7981C19.932 12.6381 19.946 12.1451 19.637 11.9681C19.329 11.7901 18.744 11.4541 18.526 11.3251C18.3739 11.2412 18.2026 11.1982 18.0289 11.2003C17.8552 11.2024 17.685 11.2495 17.535 11.3371C17.381 11.4271 7.102 17.3971 6.759 17.5931C6.347 17.8291 5.839 17.8331 5.429 17.5931L0 14.4071V17.1151C1.321 17.8931 4.607 19.8251 5.403 20.2801C5.878 20.5501 6.333 20.5441 6.792 20.2771Z" fill="white"/>
<path fill-rule="evenodd" clip-rule="evenodd" d="M6.792 25.717L19.657 18.238C19.932 18.078 19.946 17.585 19.637 17.408C19.329 17.23 18.744 16.894 18.526 16.765C18.3739 16.6811 18.2026 16.6381 18.0289 16.6402C17.8552 16.6423 17.685 16.6894 17.535 16.777C17.381 16.867 7.102 22.837 6.759 23.033C6.347 23.269 5.839 23.273 5.429 23.033L0 19.847V22.555C1.321 23.333 4.607 25.265 5.403 25.72C5.878 25.99 6.333 25.984 6.792 25.717Z" fill="white"/>
</svg>
