<svg width="265" height="108" viewBox="0 0 265 108" fill="none" xmlns="http://www.w3.org/2000/svg">
<rect y="9" width="30" height="90" rx="15" fill="#2599ED"/>
<rect x="41" y="9" width="30" height="56" rx="15" fill="#2599ED"/>
<path d="M108.468 25.1504C107.882 25.3457 107.442 25.3701 107.149 25.2236C106.856 25.0771 106.637 24.833 106.49 24.4912C106.344 24.1494 106.271 23.7832 106.271 23.3926C106.271 22.9531 106.295 22.5381 106.344 22.1475C106.393 21.8057 106.466 21.415 106.563 20.9756C106.71 20.5361 106.881 20.1211 107.076 19.7305C107.271 19.3398 107.491 19.0225 107.735 18.7783C108.028 18.4854 108.395 18.29 108.834 18.1924C111.08 17.8018 113.253 17.5088 115.353 17.3135C117.501 17.1182 119.43 16.9717 121.139 16.874C123.092 16.7275 124.972 16.6543 126.778 16.6543C127.169 16.6543 127.56 16.6787 127.95 16.7275C128.341 16.7275 128.731 16.7275 129.122 16.7275C129.562 16.6299 129.903 16.6055 130.147 16.6543C130.44 16.6543 130.685 16.6787 130.88 16.7275C132.296 16.7764 133.761 16.8496 135.274 16.9473C136.544 17.0449 137.96 17.167 139.522 17.3135C141.134 17.4111 142.721 17.5576 144.283 17.7529C144.43 18.1436 144.454 18.6318 144.356 19.2178C144.308 19.5107 144.259 19.8037 144.21 20.0967C144.161 20.3896 144.039 20.6582 143.844 20.9023C143.697 21.1465 143.502 21.3906 143.258 21.6348C143.062 21.8301 142.818 22.001 142.525 22.1475C140.865 22.0986 139.254 22.0742 137.691 22.0742C136.178 22.0254 134.835 22.001 133.663 22.001H129.708C129.073 24.2471 128.292 27.0303 127.364 30.3506C126.437 33.6221 125.484 37.0889 124.508 40.751C123.58 44.3643 122.677 47.9775 121.798 51.5908C120.968 55.1553 120.309 58.3779 119.82 61.2588C119.332 64.042 118.844 66.7764 118.355 69.4619C118.16 70.585 117.94 71.7568 117.696 72.9775C117.501 74.1982 117.306 75.3945 117.11 76.5664C116.964 77.7383 116.817 78.8613 116.671 79.9355C116.524 81.0098 116.402 81.9863 116.305 82.8652C115.523 83.2559 114.791 83.5488 114.107 83.7441C113.424 83.9883 112.813 84.1592 112.276 84.2568C111.642 84.4033 111.056 84.4766 110.519 84.4766C109.347 84.4766 108.614 84.3301 108.321 84.0371C108.077 83.793 108.053 83.2803 108.248 82.499C108.395 81.8154 108.834 79.96 109.566 76.9326C109.859 75.6631 110.226 74.0518 110.665 72.0986C111.153 70.1943 111.715 67.875 112.35 65.1406C112.984 62.3574 113.741 59.1348 114.62 55.4727C115.499 51.7617 116.5 47.5137 117.623 42.7285L122.53 22.3672C121.065 22.5625 119.625 22.7822 118.209 23.0264C116.793 23.2705 115.45 23.5391 114.181 23.832C112.96 24.0762 111.837 24.3203 110.812 24.5645C109.835 24.8086 109.054 25.0039 108.468 25.1504ZM133.004 70.6338C132.662 71.1709 132.296 71.5127 131.905 71.6592C131.466 71.8545 131.1 71.8789 130.807 71.7324C130.465 71.6348 130.245 71.3906 130.147 71C130.05 70.6094 130.147 70.1211 130.44 69.5352C130.587 69.2422 130.929 68.583 131.466 67.5576C131.954 66.5322 132.564 65.3115 133.297 63.8955C133.98 62.4307 134.737 60.8682 135.567 59.208C136.397 57.499 137.179 55.8877 137.911 54.374C138.692 52.8604 139.4 51.5176 140.035 50.3457C140.67 49.125 141.134 48.2461 141.427 47.709C140.89 47.2207 140.523 46.8789 140.328 46.6836C140.133 46.4395 139.986 45.9512 139.889 45.2188C139.791 44.584 139.938 43.7539 140.328 42.7285C140.719 41.7031 141.231 40.7266 141.866 39.7988C142.501 38.8223 143.209 37.9922 143.99 37.3086C144.771 36.625 145.528 36.2832 146.261 36.2832C147.628 36.2832 148.58 36.7227 149.117 37.6016C149.703 38.4805 150.045 39.3838 150.143 40.3115C150.24 40.9463 150.191 41.752 149.996 42.7285C149.801 43.7051 149.435 44.584 148.897 45.3652C149.044 45.4629 149.239 45.585 149.483 45.7314C149.728 45.8291 150.118 45.8779 150.655 45.8779C151.437 45.8779 151.974 45.8291 152.267 45.7314C152.608 45.6338 153.121 45.585 153.805 45.585C154.635 45.585 155.318 45.8047 155.855 46.2441C156.393 46.6348 156.832 47.1475 157.174 47.7822C157.516 48.3682 157.76 49.0273 157.906 49.7598C158.102 50.4434 158.224 51.0781 158.272 51.6641C158.419 52.8848 158.102 54.1543 157.32 55.4727C156.539 56.791 155.587 58.2314 154.464 59.7939C153.78 60.7705 153.097 61.8691 152.413 63.0898C151.729 64.3105 151.437 65.4092 151.534 66.3857C151.632 67.0205 151.803 67.5332 152.047 67.9238C152.291 68.3145 152.975 68.5098 154.098 68.5098C154.928 68.5098 155.831 68.2168 156.808 67.6309C157.833 66.9961 158.858 66.2148 159.884 65.2871C160.958 64.3105 162.008 63.2607 163.033 62.1377C164.059 60.9658 165.011 59.8428 165.89 58.7686C166.769 57.6455 167.501 56.6445 168.087 55.7656C168.722 54.8867 169.186 54.252 169.479 53.8613C169.723 53.4707 170.04 53.2021 170.431 53.0557C170.821 52.9092 171.163 52.9092 171.456 53.0557C171.749 53.2021 171.92 53.4951 171.969 53.9346C172.066 54.374 171.896 54.96 171.456 55.6924C171.163 56.1807 170.65 56.9619 169.918 58.0361C169.234 59.1104 168.38 60.3066 167.354 61.625C166.378 62.9434 165.279 64.3105 164.059 65.7266C162.838 67.0938 161.544 68.3633 160.177 69.5352C158.858 70.6582 157.516 71.5859 156.148 72.3184C154.83 73.0508 153.561 73.417 152.34 73.417C151.07 73.417 150.021 73.1729 149.19 72.6846C148.36 72.1963 147.677 71.6104 147.14 70.9268C146.651 70.1943 146.285 69.4131 146.041 68.583C145.846 67.7041 145.772 66.8984 145.821 66.166C145.87 65.5801 146.017 64.9697 146.261 64.335C146.554 63.6514 146.871 62.9678 147.213 62.2842C147.604 61.5518 147.994 60.8438 148.385 60.1602C148.824 59.4277 149.215 58.7197 149.557 58.0361C150.387 56.6201 151.046 55.4238 151.534 54.4473C152.071 53.4219 152.34 52.5674 152.34 51.8838C152.34 51.4443 152.242 51.0537 152.047 50.7119C151.852 50.3701 151.534 50.1992 151.095 50.1992C150.802 50.1992 150.582 50.2236 150.436 50.2725C150.338 50.2725 150.216 50.2725 150.069 50.2725C149.972 50.2725 149.801 50.2969 149.557 50.3457C149.361 50.3457 149.044 50.3457 148.604 50.3457C147.97 50.3457 147.433 50.248 146.993 50.0527C146.554 49.8574 146.139 49.7109 145.748 49.6133C145.553 49.9551 145.113 50.6875 144.43 51.8105C143.746 52.9336 142.94 54.252 142.013 55.7656C141.134 57.2793 140.182 58.8662 139.156 60.5264C138.18 62.1865 137.252 63.749 136.373 65.2139C135.494 66.6299 134.762 67.8506 134.176 68.876C133.541 69.8525 133.15 70.4385 133.004 70.6338ZM199.435 55.7656C197.97 57.9141 196.31 60.0137 194.454 62.0645C192.599 64.0664 190.621 65.873 188.521 67.4844C186.471 69.0469 184.347 70.3164 182.149 71.293C180.001 72.2695 177.901 72.7578 175.851 72.7578C174.776 72.7578 173.604 72.4893 172.335 71.9521C171.114 71.4639 169.991 70.6826 168.966 69.6084C167.94 68.5342 167.11 67.1426 166.476 65.4336C165.89 63.7246 165.719 61.6494 165.963 59.208C166.158 57.2061 166.769 55.1064 167.794 52.9092C168.868 50.6631 170.162 48.6123 171.676 46.7568C173.238 44.9014 174.972 43.3633 176.876 42.1426C178.829 40.9219 180.782 40.3115 182.735 40.3115C184.591 40.3115 185.934 40.7754 186.764 41.7031C187.594 42.6309 187.96 43.7783 187.862 45.1455C187.716 46.6592 187.276 48.0508 186.544 49.3203C185.86 50.5898 185.03 51.7373 184.054 52.7627C183.077 53.7881 182.027 54.7158 180.904 55.5459C179.83 56.376 178.805 57.1328 177.828 57.8164C176.754 58.5488 175.729 59.2568 174.752 59.9404C173.775 60.5752 172.921 61.1611 172.188 61.6982C172.237 62.9189 172.457 63.9443 172.848 64.7744C173.238 65.6045 173.727 66.2881 174.312 66.8252C174.898 67.3135 175.558 67.6797 176.29 67.9238C177.071 68.1191 177.853 68.2168 178.634 68.2168C180.294 68.2168 182.027 67.7041 183.834 66.6787C185.641 65.6045 187.398 64.335 189.107 62.8701C190.865 61.3564 192.477 59.7939 193.941 58.1826C195.455 56.5713 196.7 55.1797 197.677 54.0078C198.019 53.6172 198.36 53.3975 198.702 53.3486C199.093 53.251 199.386 53.2998 199.581 53.4951C199.825 53.6416 199.947 53.9346 199.947 54.374C199.947 54.7646 199.776 55.2285 199.435 55.7656ZM180.685 44.4863C180.099 44.4863 179.391 44.7793 178.561 45.3652C177.779 45.9512 176.998 46.8057 176.217 47.9287C175.436 49.0029 174.703 50.3457 174.02 51.957C173.336 53.5195 172.823 55.3262 172.481 57.377C173.067 56.9375 173.702 56.498 174.386 56.0586C175.069 55.5703 175.753 55.0576 176.437 54.5205C178.536 52.9092 180.001 51.4932 180.831 50.2725C181.661 49.0518 182.125 48.002 182.223 47.123C182.32 46.1953 182.223 45.5361 181.93 45.1455C181.637 44.7061 181.222 44.4863 180.685 44.4863ZM193.062 69.8281C195.211 60.7949 196.92 53.5439 198.189 48.0752C199.508 42.6064 200.509 38.4316 201.192 35.5508C201.974 32.1328 202.511 29.7646 202.804 28.4463C202.95 27.5186 203.072 26.6152 203.17 25.7363C203.268 24.9551 203.316 24.1494 203.316 23.3193C203.316 22.4893 203.243 21.7324 203.097 21.0488C203.487 20.8047 203.902 20.6094 204.342 20.4629C204.83 20.3164 205.294 20.1943 205.733 20.0967C206.271 19.9502 206.808 19.8281 207.345 19.7305C207.882 19.6328 208.37 19.584 208.81 19.584C209.2 19.584 209.566 19.6328 209.908 19.7305C210.25 19.7793 210.47 19.9258 210.567 20.1699C210.86 20.4141 210.982 20.9023 210.934 21.6348C210.934 22.3672 210.885 23.124 210.787 23.9053C210.592 24.833 210.372 25.834 210.128 26.9082C209.542 29.0078 208.736 32.0352 207.711 35.9902C206.832 39.3594 205.636 43.9492 204.122 49.7598C202.657 55.5703 200.802 62.8945 198.556 71.7324C198.312 71.9766 198.019 72.1475 197.677 72.2451C197.335 72.3428 197.018 72.3916 196.725 72.3916C196.383 72.3916 196.017 72.3672 195.626 72.3184C195.284 72.2207 194.942 72.0742 194.601 71.8789C194.308 71.6836 194.015 71.415 193.722 71.0732C193.429 70.7803 193.209 70.3652 193.062 69.8281ZM209.469 69.8281C211.617 60.7949 213.326 53.5439 214.596 48.0752C215.914 42.6064 216.915 38.4316 217.599 35.5508C218.38 32.1328 218.917 29.7646 219.21 28.4463C219.356 27.5186 219.479 26.6152 219.576 25.7363C219.674 24.9551 219.723 24.1494 219.723 23.3193C219.723 22.4893 219.649 21.7324 219.503 21.0488C219.894 20.8047 220.309 20.6094 220.748 20.4629C221.236 20.3164 221.7 20.1943 222.14 20.0967C222.677 19.9502 223.214 19.8281 223.751 19.7305C224.288 19.6328 224.776 19.584 225.216 19.584C225.606 19.584 225.973 19.6328 226.314 19.7305C226.656 19.7793 226.876 19.9258 226.974 20.1699C227.267 20.4141 227.389 20.9023 227.34 21.6348C227.34 22.3672 227.291 23.124 227.193 23.9053C226.998 24.833 226.778 25.834 226.534 26.9082C225.948 29.0078 225.143 32.0352 224.117 35.9902C223.238 39.3594 222.042 43.9492 220.528 49.7598C219.063 55.5703 217.208 62.8945 214.962 71.7324C214.718 71.9766 214.425 72.1475 214.083 72.2451C213.741 72.3428 213.424 72.3916 213.131 72.3916C212.789 72.3916 212.423 72.3672 212.032 72.3184C211.69 72.2207 211.349 72.0742 211.007 71.8789C210.714 71.6836 210.421 71.415 210.128 71.0732C209.835 70.7803 209.615 70.3652 209.469 69.8281ZM248.653 59.3545C248.165 61.21 247.506 62.9434 246.676 64.5547C245.846 66.166 244.845 67.5576 243.673 68.7295C242.55 69.9014 241.256 70.8047 239.791 71.4395C238.375 72.123 236.812 72.4648 235.104 72.4648C233.102 72.4648 231.515 72.0254 230.343 71.1465C229.22 70.3164 228.365 69.2666 227.779 67.9971C227.242 66.7275 226.925 65.3359 226.827 63.8223C226.681 62.3086 226.607 60.8926 226.607 59.5742C226.607 58.6465 226.729 57.6211 226.974 56.498C227.169 55.375 227.462 54.2275 227.853 53.0557C228.243 51.8838 228.731 50.7119 229.317 49.54C229.952 48.3682 230.685 47.2939 231.515 46.3174C231.808 45.4873 232.247 44.7549 232.833 44.1201C233.468 43.4854 234.176 42.9727 234.957 42.582C235.787 42.1426 236.666 41.8252 237.594 41.6299C238.521 41.3857 239.425 41.2637 240.304 41.2637C240.45 41.2637 240.572 41.2881 240.67 41.3369C240.816 41.3857 240.963 41.4346 241.109 41.4834C241.744 41.5322 242.525 41.7764 243.453 42.2158C244.43 42.6553 245.357 43.3145 246.236 44.1934C247.164 45.0723 247.945 46.1953 248.58 47.5625C249.215 48.8809 249.532 50.4922 249.532 52.3965C249.532 52.7871 249.508 53.2754 249.459 53.8613C249.41 54.3984 249.361 54.8623 249.312 55.2529C250.436 54.8135 251.607 54.2764 252.828 53.6416C254.049 53.0068 255.221 52.3477 256.344 51.6641C257.516 50.9316 258.59 50.1992 259.566 49.4668C260.543 48.7344 261.324 48.0752 261.91 47.4893C262.398 47.0498 262.813 46.8057 263.155 46.7568C263.497 46.708 263.741 46.8057 263.888 47.0498C264.034 47.2939 264.059 47.6357 263.961 48.0752C263.863 48.5146 263.595 49.0029 263.155 49.54C262.911 49.833 262.276 50.4189 261.251 51.2979C260.274 52.1768 259.103 53.1289 257.735 54.1543C256.368 55.1797 254.879 56.1807 253.268 57.1572C251.656 58.1338 250.118 58.8662 248.653 59.3545ZM236.275 48.2217C236.129 48.6611 236.056 49.125 236.056 49.6133C236.056 50.3945 236.104 51.2246 236.202 52.1035C236.3 52.9336 236.544 53.6904 236.935 54.374C237.325 55.0576 237.936 55.6436 238.766 56.1318C239.645 56.5713 240.841 56.791 242.354 56.791C242.599 56.791 242.843 56.791 243.087 56.791C243.331 56.7422 243.575 56.6934 243.819 56.6445C243.966 56.0098 244.088 55.4482 244.186 54.96C244.332 54.4229 244.405 53.959 244.405 53.5684C244.503 52.6406 244.503 51.6885 244.405 50.7119C244.308 49.7354 244.112 48.8564 243.819 48.0752C243.575 47.2451 243.233 46.5859 242.794 46.0977C242.403 45.5605 241.915 45.292 241.329 45.292C240.401 45.292 239.498 45.5605 238.619 46.0977C237.789 46.5859 237.008 47.2939 236.275 48.2217ZM231.588 61.1123C231.588 61.9912 231.637 62.8701 231.734 63.749C231.832 64.5791 232.027 65.3359 232.32 66.0195C232.613 66.6543 233.004 67.1914 233.492 67.6309C233.98 68.0215 234.615 68.2168 235.396 68.2168C236.275 68.2168 237.081 68.0215 237.813 67.6309C238.546 67.1914 239.205 66.6543 239.791 66.0195C240.377 65.3359 240.89 64.5791 241.329 63.749C241.817 62.8701 242.232 61.9668 242.574 61.0391C242.232 61.0879 241.891 61.1367 241.549 61.1855C241.256 61.1855 240.914 61.1855 240.523 61.1855C238.668 61.1855 237.057 60.6484 235.689 59.5742C234.371 58.4512 233.346 57.0352 232.613 55.3262C232.32 56.3516 232.076 57.3525 231.881 58.3291C231.686 59.3057 231.588 60.2334 231.588 61.1123Z" fill="black"/>
</svg>
