<svg width="539" height="153" viewBox="0 0 539 153" fill="none" xmlns="http://www.w3.org/2000/svg">
<path fill-rule="evenodd" clip-rule="evenodd" d="M433.959 114.462C425.728 117.816 419.232 129.403 409.354 135.989C408.741 136.397 408.128 136.601 407.72 136.601C406.903 136.601 405.882 135.785 405.882 132.109C405.882 119.45 409.966 113.324 413.437 104.34C425.484 73.0991 446.107 46.3506 464.484 17.1517C465.914 14.9057 466.73 12.4554 466.73 9.801C466.73 7.55494 465.914 5.71725 464.893 3.47119C464.076 1.6335 460.4 0 456.317 0C454.071 0 452.029 0.204187 449.374 0.204187C439.778 0.204187 437.736 14.2931 435.49 17.9685C420.176 43.9003 402.615 75.9577 393.631 98.6225C391.661 103.703 389.533 108.784 387.915 113.999C379.037 116.57 372.386 129.053 361.982 135.989C361.37 136.397 360.757 136.601 360.349 136.601C359.532 136.601 358.511 135.785 358.511 132.109C358.511 119.45 362.595 113.324 366.066 104.34C378.113 73.0991 398.736 46.3506 417.113 17.1517C418.542 14.9057 419.359 12.4554 419.359 9.801C419.359 7.55494 418.542 5.71725 417.521 3.47119C416.704 1.6335 413.029 0 408.945 0C406.699 0 404.657 0.204187 402.003 0.204187C392.406 0.204187 390.364 14.2931 388.118 17.9685C372.804 43.9003 355.244 75.9577 346.26 98.6225C345.545 100.465 344.81 102.307 344.086 104.155C343.863 104.274 343.635 104.404 343.401 104.544C332.987 110.67 324.207 121.492 311.548 128.842C309.098 130.272 301.543 135.58 295.417 135.58C293.988 135.58 292.763 135.172 291.537 134.56C289.7 133.743 287.862 129.863 287.862 128.638C287.862 127.617 288.066 127.413 290.108 126.188C308.077 115.366 322.778 99.8477 335.438 84.3294C340.134 78.6122 346.26 67.3819 346.26 59.2144C346.26 53.9055 344.422 47.7799 338.092 45.5338C333.6 43.9003 328.495 43.0836 324.412 43.0836C313.59 43.0836 305.626 47.9841 301.134 52.6804C296.561 57.5626 292.137 62.5758 288.028 67.7652C283.734 64.0579 277.677 62.4814 271.935 62.4814C265.197 62.4814 252.538 70.853 246.004 75.7535C244.983 76.5703 244.37 76.9787 243.962 76.9787C243.758 76.9787 243.553 76.7745 243.553 76.3661C243.553 76.1619 243.962 74.3242 243.962 71.0572C243.962 68.1986 243.349 64.5232 240.695 60.0311C240.082 59.0102 236.407 56.7641 231.915 56.7641C226.402 56.7641 221.297 59.4186 221.297 62.2772C221.297 64.3191 223.135 65.1358 223.135 66.9735C223.135 67.9944 222.318 72.6907 221.093 77.1829C217.622 90.2509 213.334 103.115 208.842 115.978C206.391 123.125 198.224 129.455 198.224 137.214C198.224 139.664 199.857 142.931 202.103 145.381C205.779 149.465 208.025 150.895 211.292 150.895C212.721 150.895 214.355 150.486 215.784 149.261C218.847 146.607 220.48 143.952 221.297 140.277C226.606 116.183 241.92 99.8477 258.867 89.0257C264.585 85.3504 272.344 81.4708 273.365 81.4708C274.412 81.4708 276.049 81.9539 277.699 82.4246C272.961 90.1518 269.123 98.3009 266.627 106.994C265.81 109.853 265.401 112.507 265.401 115.366C265.401 120.062 266.422 124.963 268.056 129.659C270.302 136.193 273.977 141.91 279.082 144.565C288.475 149.465 295.213 152.12 301.338 152.12C304.81 152.12 307.464 151.507 310.323 149.874C323.743 142.28 331.972 136.52 337.913 131.403C338.076 136.591 339.099 139.465 342.789 143.34C346.464 147.219 352.181 150.69 359.736 152.324C360.961 152.528 362.186 152.732 363.411 152.732C372.055 152.732 380.374 145.707 386.788 138.742C387.531 140.262 388.61 141.712 390.16 143.34C393.835 147.219 399.553 150.69 407.108 152.324C408.333 152.528 409.558 152.732 410.783 152.732C420.908 152.732 430.587 143.092 437.282 135.202C439.514 139.817 445.749 144.38 453.254 148.036C455.296 149.057 457.746 149.669 459.992 149.669C468.772 149.669 475.102 142.523 480.002 137.214C492.662 123.329 499.604 106.177 504.913 84.5336C505.322 82.9001 505.934 82.2875 506.751 82.2875C508.793 82.2875 511.447 82.2875 514.306 81.8792C519.819 81.0624 524.107 79.2247 529.212 78.408C532.274 77.7954 531.866 76.7745 534.725 75.7535C536.767 74.9368 538.4 74.12 538.4 72.0782C538.4 68.607 532.07 64.9316 522.473 64.9316C514.919 64.9316 510.426 65.5442 507.364 65.5442C502.667 65.5442 501.442 64.1149 498.379 56.1516C498.379 56.1516 501.442 64.1149 498.379 56.1516C497.767 54.5181 497.154 53.7013 495.317 52.0678C491.029 48.3924 485.72 47.1673 481.432 47.1673C471.222 47.1673 462.442 57.5809 456.317 66.3609C454.887 68.4028 452.846 70.0363 451.416 72.2824C443.005 84.8991 434.952 99.1265 433.959 114.462ZM172.905 44.9212C178.009 44.9212 180.868 44.5129 181.48 44.5129C182.093 44.5129 182.501 44.7171 182.501 45.3296C182.501 45.738 182.297 46.3506 180.868 49.4134C168.412 76.1619 159.837 103.319 152.282 133.334C152.077 134.151 151.465 137.214 151.465 140.277C151.465 143.135 152.282 146.198 155.14 147.832C160.653 151.099 165.145 152.528 168.208 152.528C172.7 152.528 174.946 149.669 174.946 144.973C174.946 140.889 175.151 136.601 175.763 133.334C181.48 103.319 190.056 79.8373 203.328 55.3348C209.658 43.6961 210.475 43.0836 210.475 42.0626C210.475 41.6542 210.271 41.0417 209.862 40.4291C218.03 38.5914 227.831 37.3663 236.815 37.3663C237.836 37.3663 241.92 38.7956 242.532 39.4082C243.962 40.8375 245.391 42.2668 247.841 42.2668C249.883 42.2668 253.354 40.8375 254.58 40.0207C257.438 37.9789 258.867 35.7328 258.867 32.0574C258.867 28.5862 246.004 20.0104 237.019 20.0104C225.993 20.0104 215.988 21.4397 206.595 23.2774C202.512 24.0941 187.81 26.3402 177.192 26.3402C166.983 26.3402 167.596 24.9109 163.308 24.9109C160.857 24.9109 159.632 26.136 158.611 27.1569C157.59 28.1779 156.978 32.2616 156.978 35.937C156.978 37.7747 156.978 39.204 157.999 40.4291C161.062 44.1045 166.983 44.9212 172.905 44.9212C166.983 44.9212 172.905 44.9212 172.905 44.9212ZM324.207 61.4604C324.207 63.2981 323.595 64.5232 321.145 68.4028C318.694 72.2824 319.715 72.2824 316.652 76.3661C310.731 84.3294 303.38 92.2927 293.784 101.073C291.129 103.523 290.721 103.523 290.312 103.523C290.108 103.523 289.7 103.319 289.7 102.91C289.7 102.298 289.904 101.481 291.946 97.1932C298.276 83.921 306.035 75.141 314.611 66.5651C319.307 61.8688 322.166 60.2353 323.187 60.2353C323.799 60.2353 324.207 60.4395 324.207 61.4604C324.207 60.4395 324.207 61.4604 324.207 61.4604ZM481.228 66.7693C481.432 66.7693 481.636 66.9735 481.84 67.3819C482.044 67.9944 482.453 68.607 483.474 69.4237C484.29 70.0363 484.29 72.8949 484.29 75.141C484.29 94.9472 473.06 111.282 462.034 127.821C459.584 131.497 458.154 132.109 456.929 132.109C455.908 132.109 454.275 129.455 453.662 127.821C452.846 125.575 452.641 122.921 452.641 121.9C452.641 105.973 467.751 82.2875 477.756 69.2196C479.39 66.9735 480.615 66.7693 481.228 66.7693C480.615 66.7693 481.228 66.7693 481.228 66.7693Z" fill="#0079BF"/>
<path fill-rule="evenodd" clip-rule="evenodd" d="M112.793 22.5586H16.1133C7.21416 22.5586 0 29.7728 0 38.6719V135.352C0 144.251 7.21416 151.465 16.1133 151.465H112.793C121.692 151.465 128.906 144.251 128.906 135.352V38.6719C128.906 29.7728 121.692 22.5586 112.793 22.5586ZM104.414 39.3164H80.5664C76.2948 39.3164 72.832 42.7792 72.832 47.0508V87.9785C72.832 92.2501 76.2948 95.7129 80.5664 95.7129H104.414C108.686 95.7129 112.148 92.2501 112.148 87.9785V47.0508C112.148 42.7792 108.686 39.3164 104.414 39.3164ZM24.4922 39.3164H48.3398C52.6114 39.3164 56.0742 42.7792 56.0742 47.0508V120.205C56.0742 124.477 52.6114 127.939 48.3398 127.939H24.4922C20.2206 127.939 16.7578 124.477 16.7578 120.205V47.0508C16.7578 42.7792 20.2206 39.3164 24.4922 39.3164Z" fill="url(#paint0_linear)"/>
<defs>
<linearGradient id="paint0_linear" x1="64.4531" y1="22.5586" x2="64.4531" y2="151.465" gradientUnits="userSpaceOnUse">
<stop stop-color="#0079BF"/>
<stop offset="1" stop-color="#0079BF"/>
</linearGradient>
</defs>
</svg>
