<?xml version="1.0" encoding="UTF-8" standalone="no"?>
<!-- Generator: Adobe Illustrator 24.0.1, SVG Export Plug-In . SVG Version: 6.00 Build 0)  -->

<svg
   xmlns:dc="http://purl.org/dc/elements/1.1/"
   xmlns:cc="http://creativecommons.org/ns#"
   xmlns:rdf="http://www.w3.org/1999/02/22-rdf-syntax-ns#"
   xmlns:svg="http://www.w3.org/2000/svg"
   xmlns="http://www.w3.org/2000/svg"
   xmlns:sodipodi="http://sodipodi.sourceforge.net/DTD/sodipodi-0.dtd"
   xmlns:inkscape="http://www.inkscape.org/namespaces/inkscape"
   version="1.1"
   id="Layer_1"
   x="0px"
   y="0px"
   viewBox="0 0 432.00366 100.63075"
   xml:space="preserve"
   sodipodi:docname="header-black.svg"
   width="432.00366"
   height="100.63075"
   inkscape:version="0.92.4 5da689c313, 2019-01-14"><metadata
   id="metadata3809"><rdf:RDF><cc:Work
       rdf:about=""><dc:format>image/svg+xml</dc:format><dc:type
         rdf:resource="http://purl.org/dc/dcmitype/StillImage" /></cc:Work></rdf:RDF></metadata><defs
   id="defs3807" /><sodipodi:namedview
   pagecolor="#ffffff"
   bordercolor="#666666"
   borderopacity="1"
   objecttolerance="10"
   gridtolerance="10"
   guidetolerance="10"
   inkscape:pageopacity="0"
   inkscape:pageshadow="2"
   inkscape:window-width="1920"
   inkscape:window-height="981"
   id="namedview3805"
   showgrid="false"
   inkscape:zoom="1.0467172"
   inkscape:cx="216.00365"
   inkscape:cy="50.31"
   inkscape:window-x="0"
   inkscape:window-y="27"
   inkscape:window-maximized="1"
   inkscape:current-layer="Layer_1" />
<g
   id="Layer_2_1_"
   transform="translate(-395.99635,-345.67925)">
	<g
   id="g3801">
		<path
   d="m 445.93,446.31 c -0.85,0 -1.71,-0.46 -2.17,-1.25 -0.59,-1.05 -0.26,-2.56 0.85,-3.28 9.65,-6.9 22.07,-18.26 26.47,-32.9 2.63,-8.67 1.12,-14.58 1.12,-14.65 -3.74,-14.12 -14.58,-16.22 -20.75,-16.22 -2.43,0 -4.93,0.33 -7.42,0.92 -11.23,2.76 -14.78,14.71 -15.76,19.7 l -0.13,0.59 h 4.99 c 0.53,0 1.05,0.26 1.44,0.66 0.39,0.4 0.53,0.99 0.46,1.51 l -1.25,9.52 h 13.79 c 5.12,0 11.43,-2.1 12.02,-12.02 0.07,-0.72 0,-1.38 -0.2,-2.04 -1.77,-7.09 -6.9,-7.68 -8.41,-7.68 -0.13,0 -0.26,0 -0.33,0 h -0.13 c -4.4,0.13 -7.03,2.5 -7.68,7.03 -0.2,1.31 0.33,2.63 1.31,3.48 0.99,0.79 1.9,1.25 2.69,1.25 0.33,0 0.66,-0.07 1.05,-0.2 0.92,-0.39 1.44,-1.25 1.51,-1.64 v -0.07 -0.07 c -0.13,-1.31 0.85,-2.5 2.1,-2.69 0.13,0 0.2,0 0.33,0 1.25,0 2.3,0.92 2.43,2.17 0.33,2.36 -1.38,5.19 -3.94,6.57 -0.79,0.39 -1.97,0.92 -3.55,0.92 -2.04,0 -4.07,-0.85 -5.98,-2.5 -2.23,-1.9 -3.35,-4.99 -2.89,-7.95 1.05,-6.76 5.52,-10.84 12.28,-11.1 0.26,0 0.46,0 0.72,0 4.73,0 10.97,2.96 13.14,11.43 0.26,1.12 0.39,2.36 0.33,3.55 -0.13,2.17 -0.72,6.31 -3.09,9.92 -2.04,3.09 -6.11,6.7 -13.79,6.7 h -16.62 c -0.72,0 -1.38,-0.33 -1.9,-0.85 -0.46,-0.53 -0.72,-1.25 -0.59,-1.97 l 1.12,-8.93 h -4.93 c -0.53,0 -1.05,-0.2 -1.44,-0.66 -0.39,-0.39 -0.59,-0.92 -0.53,-1.51 l 0.07,-0.53 c 0,-0.26 0.39,-5.71 2.96,-11.82 3.48,-8.28 9.39,-13.66 17.01,-15.57 2.89,-0.72 5.71,-1.05 8.54,-1.05 4.27,0 8.14,0.79 11.63,2.36 6.9,3.15 11.69,9.19 13.92,17.54 0.26,1.12 6.76,26.86 -29.62,52.87 -0.13,0.27 -0.66,0.46 -1.18,0.46 z m -41.97,-24.76 c -0.92,0 -1.97,-0.13 -3.28,-0.39 -1.25,-0.26 -2.04,-1.51 -1.77,-2.69 0.26,-1.25 1.51,-2.04 2.69,-1.77 3.15,0.66 3.61,0.26 4.99,-0.99 0.46,-0.46 1.05,-0.92 1.71,-1.44 4.6,-3.35 8.47,-1.38 9.92,0.2 0.85,0.92 0.79,2.36 -0.13,3.22 -0.92,0.85 -2.36,0.79 -3.22,-0.13 -0.33,-0.33 -1.58,-1.25 -3.81,0.39 -0.53,0.39 -0.92,0.79 -1.38,1.12 -1.52,1.43 -2.96,2.48 -5.72,2.48 z m -3.75,-15.56 c -0.85,-0.26 -1.9,-0.66 -3.02,-1.31 -1.12,-0.59 -1.51,-2.04 -0.92,-3.09 0.59,-1.12 2.04,-1.51 3.09,-0.92 2.82,1.51 3.42,1.25 5.06,0.46 0.59,-0.26 1.25,-0.59 2.04,-0.92 5.39,-1.9 8.54,1.12 9.46,3.02 0.59,1.12 0.07,2.5 -1.05,3.09 -1.12,0.59 -2.5,0.07 -3.09,-1.05 -0.2,-0.39 -1.18,-1.64 -3.81,-0.72 -0.59,0.2 -1.12,0.46 -1.64,0.72 -1.85,0.92 -3.49,1.51 -6.12,0.72 z m 0.66,-16.75 c -0.79,-0.53 -1.58,-1.25 -2.5,-2.17 -0.85,-0.92 -0.85,-2.36 0.07,-3.22 0.92,-0.86 2.36,-0.85 3.22,0.07 2.23,2.3 2.89,2.23 4.66,1.97 0.66,-0.07 1.38,-0.2 2.23,-0.26 5.71,-0.26 7.82,3.61 8.14,5.71 0.2,1.25 -0.66,2.43 -1.9,2.63 -1.25,0.2 -2.43,-0.66 -2.63,-1.9 -0.07,-0.39 -0.59,-1.97 -3.42,-1.84 -0.66,0 -1.18,0.13 -1.77,0.2 -2.03,0.26 -3.8,0.32 -6.1,-1.19 z m 6.37,-15.3 c -0.53,-0.72 -1.05,-1.71 -1.64,-2.89 -0.53,-1.18 0,-2.5 1.12,-3.02 1.18,-0.53 2.5,0 3.02,1.12 1.31,2.96 1.97,3.09 3.74,3.42 0.66,0.13 1.38,0.26 2.17,0.53 5.45,1.71 6.11,6.04 5.71,8.14 -0.26,1.25 -1.44,2.04 -2.69,1.84 -1.25,-0.26 -2.04,-1.44 -1.84,-2.69 0.07,-0.39 0.07,-2.04 -2.56,-2.89 -0.59,-0.2 -1.18,-0.33 -1.71,-0.39 -1.97,-0.41 -3.74,-0.94 -5.32,-3.17 z m 10.58,-12.15 c -0.33,-0.85 -0.59,-1.9 -0.72,-3.22 -0.2,-1.25 0.72,-2.43 1.97,-2.56 1.25,-0.2 2.43,0.72 2.56,1.97 0.46,3.22 0.99,3.48 2.63,4.33 0.59,0.33 1.25,0.66 1.97,1.12 4.73,3.15 4.14,7.55 3.15,9.39 -0.59,1.12 -1.97,1.58 -3.09,0.99 -1.12,-0.59 -1.58,-1.97 -0.99,-3.09 0.2,-0.39 0.66,-1.9 -1.64,-3.48 -0.53,-0.33 -1.05,-0.59 -1.51,-0.85 -1.9,-0.99 -3.41,-1.98 -4.33,-4.6 z m 13.79,-8.74 c 0,-0.92 0.07,-1.97 0.33,-3.28 0.26,-1.25 1.44,-2.04 2.69,-1.84 1.25,0.26 2.04,1.44 1.84,2.69 -0.59,3.15 -0.2,3.61 1.12,4.93 0.46,0.46 0.99,0.99 1.51,1.71 3.48,4.53 1.51,8.47 0,9.92 -0.92,0.85 -2.36,0.85 -3.22,-0.07 -0.85,-0.92 -0.85,-2.36 0.07,-3.22 0.26,-0.33 1.25,-1.64 -0.46,-3.81 -0.39,-0.53 -0.79,-0.92 -1.18,-1.31 -1.52,-1.58 -2.64,-2.96 -2.7,-5.72 z m 16.16,-3.35 c 0.33,-0.85 0.79,-1.84 1.51,-2.96 0.66,-1.05 2.1,-1.38 3.15,-0.72 1.05,0.66 1.38,2.1 0.72,3.15 -1.71,2.76 -1.44,3.28 -0.79,4.99 0.26,0.59 0.53,1.25 0.79,2.1 1.58,5.45 -1.64,8.47 -3.61,9.26 -1.18,0.46 -2.5,-0.07 -3.02,-1.25 -0.46,-1.18 0.07,-2.5 1.25,-3.02 0.39,-0.2 1.71,-1.05 0.99,-3.74 -0.2,-0.59 -0.39,-1.12 -0.59,-1.64 -0.86,-1.83 -1.39,-3.54 -0.4,-6.17 z m 16.41,1.32 c 0.53,-0.72 1.31,-1.51 2.3,-2.36 0.99,-0.85 2.43,-0.72 3.22,0.2 0.85,0.99 0.72,2.43 -0.2,3.22 -2.43,2.1 -2.36,2.76 -2.17,4.6 0.07,0.66 0.13,1.38 0.13,2.23 -0.07,5.71 -4.01,7.62 -6.11,7.82 -1.25,0.13 -2.36,-0.79 -2.5,-2.04 -0.13,-1.25 0.79,-2.36 2.04,-2.5 0.39,-0.07 1.97,-0.53 1.97,-3.28 0,-0.66 -0.07,-1.18 -0.13,-1.77 -0.19,-2.12 -0.19,-3.96 1.45,-6.12 z m 14.78,6.3 c 0.72,-0.53 1.64,-1.12 2.82,-1.64 1.18,-0.52 2.5,-0.07 3.09,1.12 0.53,1.18 0.07,2.5 -1.12,3.09 -2.89,1.38 -3.02,1.97 -3.35,3.81 -0.13,0.66 -0.26,1.38 -0.53,2.17 -1.64,5.45 -5.98,6.17 -8.08,5.85 -1.25,-0.2 -2.1,-1.44 -1.84,-2.69 0.2,-1.25 1.44,-2.1 2.69,-1.84 0.39,0.07 2.04,0.07 2.82,-2.63 0.2,-0.59 0.26,-1.18 0.39,-1.71 0.35,-2.18 0.88,-3.89 3.11,-5.53 z m 12.42,11.3 c 0.92,-0.26 1.97,-0.39 3.28,-0.53 1.25,-0.07 2.36,0.85 2.43,2.17 0.07,1.25 -0.85,2.36 -2.17,2.43 -3.22,0.2 -3.55,0.72 -4.53,2.3 -0.33,0.53 -0.72,1.18 -1.25,1.84 -3.48,4.47 -7.82,3.61 -9.59,2.5 -1.05,-0.66 -1.44,-2.1 -0.79,-3.15 0.66,-1.05 2.1,-1.44 3.15,-0.79 0.39,0.2 1.9,0.79 3.61,-1.38 0.39,-0.53 0.72,-0.99 0.99,-1.44 1.12,-1.79 2.24,-3.23 4.87,-3.95 z m 8.21,13.86 c 0.92,0 1.97,0.13 3.28,0.39 1.25,0.26 2.04,1.51 1.77,2.76 -0.26,1.25 -1.51,2.04 -2.76,1.77 -3.15,-0.66 -3.61,-0.26 -4.99,0.99 -0.46,0.46 -1.05,0.92 -1.71,1.44 -4.6,3.35 -8.54,1.31 -9.92,-0.2 -0.85,-0.92 -0.79,-2.36 0.13,-3.22 0.92,-0.85 2.36,-0.79 3.22,0.13 0.33,0.33 1.58,1.25 3.81,-0.39 0.53,-0.39 0.92,-0.79 1.38,-1.12 1.58,-1.5 3.03,-2.62 5.79,-2.55 z m 3.21,16.02 c 0.85,0.33 1.84,0.72 2.96,1.44 1.12,0.66 1.44,2.04 0.79,3.15 -0.66,1.12 -2.04,1.44 -3.15,0.79 -2.76,-1.64 -3.35,-1.38 -5.06,-0.66 -0.59,0.26 -1.25,0.53 -2.1,0.79 -5.45,1.71 -8.47,-1.44 -9.33,-3.35 -0.53,-1.18 0,-2.5 1.18,-3.02 1.18,-0.53 2.5,0 3.02,1.18 0.2,0.39 1.12,1.71 3.74,0.85 0.59,-0.2 1.12,-0.39 1.64,-0.66 1.98,-0.84 3.75,-1.43 6.31,-0.51 z m -2.16,16.42 c 0.72,0.59 1.51,1.31 2.36,2.3 0.79,0.99 0.72,2.43 -0.26,3.22 -0.99,0.79 -2.43,0.72 -3.22,-0.26 -2.1,-2.43 -2.69,-2.43 -4.53,-2.23 -0.66,0.07 -1.38,0.13 -2.23,0.07 -5.71,-0.13 -7.55,-4.14 -7.75,-6.24 -0.13,-1.25 0.85,-2.36 2.1,-2.5 1.25,-0.13 2.36,0.85 2.5,2.1 0.07,0.39 0.46,1.97 3.28,2.04 0.66,0 1.18,0 1.77,-0.07 2.04,-0.14 3.81,-0.07 5.98,1.57 z"
   id="path3781"
   inkscape:connector-curvature="0" />
		<g
   id="g3799">
			<path
   d="m 556.5,379.05 v 7.47 h -15.01 v 29.43 h -8.34 v -29.43 h -15.01 v -7.47 z"
   id="path3783"
   inkscape:connector-curvature="0" />
			<path
   d="m 584.26,379.05 c 8.67,0 15.21,5.81 15.21,14.48 0,5.67 -2.8,9.94 -7.14,12.28 l 5.67,10.14 h -9.07 l -4.34,-8.21 h -13.75 v 8.21 h -8.34 v -36.9 z m -13.41,21.09 h 13.08 c 4.27,0 7.21,-2.34 7.21,-6.61 0,-4.27 -2.94,-6.87 -7.21,-6.87 h -13.08 z"
   id="path3785"
   inkscape:connector-curvature="0" />
			<path
   d="m 613.55,379.05 v 18.88 c 0,7.21 3.27,11.61 10.54,11.61 7.27,0 10.54,-4.4 10.54,-11.61 v -18.88 h 8.34 v 18.82 c 0,12.21 -7.34,19.02 -18.88,19.02 -11.54,0 -18.88,-6.81 -18.88,-19.02 v -18.82 z"
   id="path3787"
   inkscape:connector-curvature="0" />
			<path
   d="m 683.88,379.05 v 7.54 h -25.16 v 6.81 h 22.62 v 7.54 h -22.62 v 7.34 h 26.09 v 7.67 h -34.43 v -36.9 z"
   id="path3789"
   inkscape:connector-curvature="0" />
			<path
   d="m 692.75,379.05 h 33.83 v 7.54 h -25.49 v 7.67 h 22.55 v 7.54 h -22.55 v 14.15 h -8.34 z"
   id="path3791"
   inkscape:connector-curvature="0" />
			<path
   d="m 741.33,379.05 v 36.9 h -8.34 v -36.9 z"
   id="path3793"
   inkscape:connector-curvature="0" />
			<path
   d="m 772.29,379.05 c 8.67,0 15.21,5.81 15.21,14.48 0,5.67 -2.8,9.94 -7.14,12.28 l 5.67,10.14 h -9.07 l -4.34,-8.21 h -13.75 v 8.21 h -8.34 v -36.9 z m -13.42,21.09 h 13.08 c 4.27,0 7.21,-2.34 7.21,-6.61 0,-4.27 -2.94,-6.87 -7.21,-6.87 h -13.08 z"
   id="path3795"
   inkscape:connector-curvature="0" />
			<path
   d="m 827.07,379.05 v 7.54 h -25.16 v 6.81 h 22.62 v 7.54 h -22.62 v 7.34 H 828 v 7.67 h -34.43 v -36.9 z"
   id="path3797"
   inkscape:connector-curvature="0" />
		</g>
	</g>
</g>
</svg>