<svg width="1817" height="416" viewBox="0 0 1817 416" fill="none" xmlns="http://www.w3.org/2000/svg">
<path d="M375.532 0H184.468L0 400H202.128L375.532 0Z" fill="#F4C008"/>
<path d="M684.532 0H493.468L309 400H511.128L684.532 0Z" fill="#F4C008"/>
<path d="M968.034 99.9316L887.541 345H838.493L758.342 99.9316H814.055L862.932 263.481L911.979 99.9316H968.034ZM1041.69 112.236C1041.69 116.566 1040.84 120.61 1039.13 124.37C1037.53 128.13 1035.31 131.434 1032.46 134.282C1029.61 137.017 1026.25 139.238 1022.38 140.947C1018.62 142.542 1014.58 143.34 1010.25 143.34C1005.92 143.34 1001.82 142.542 997.941 140.947C994.182 139.238 990.878 137.017 988.029 134.282C985.295 131.434 983.073 128.13 981.364 124.37C979.769 120.61 978.972 116.566 978.972 112.236C978.972 108.021 979.769 104.033 981.364 100.273C983.073 96.3997 985.295 93.0957 988.029 90.3613C990.878 87.513 994.182 85.2913 997.941 83.6963C1001.82 81.9873 1005.92 81.1328 1010.25 81.1328C1014.58 81.1328 1018.62 81.9873 1022.38 83.6963C1026.25 85.2913 1029.61 87.513 1032.46 90.3613C1035.31 93.0957 1037.53 96.3997 1039.13 100.273C1040.84 104.033 1041.69 108.021 1041.69 112.236ZM1033.66 345H986.662V161.968H1033.66V345ZM1199.6 251.86C1199.6 245.48 1198.35 239.328 1195.84 233.403C1193.45 227.365 1190.15 222.067 1185.93 217.51C1181.71 212.839 1176.76 209.136 1171.06 206.401C1165.48 203.553 1159.5 202.129 1153.12 202.129C1146.74 202.129 1140.7 203.211 1135 205.376C1129.42 207.541 1124.52 210.731 1120.3 214.946C1116.2 219.162 1112.96 224.403 1110.56 230.669C1108.17 236.821 1106.97 243.885 1106.97 251.86C1106.97 259.494 1108.17 266.387 1110.56 272.539C1112.96 278.577 1116.2 283.761 1120.3 288.091C1124.52 292.42 1129.42 295.781 1135 298.174C1140.7 300.452 1146.74 301.592 1153.12 301.592C1159.5 301.592 1165.48 300.225 1171.06 297.49C1176.76 294.642 1181.71 290.939 1185.93 286.382C1190.15 281.711 1193.45 276.413 1195.84 270.488C1198.35 264.45 1199.6 258.241 1199.6 251.86ZM1246.6 321.929C1246.6 334.803 1244.15 346.88 1239.25 358.159C1234.35 369.438 1227.63 379.294 1219.08 387.725C1210.65 396.156 1200.74 402.821 1189.35 407.72C1178.07 412.619 1165.99 415.068 1153.12 415.068L1129.7 414.727V368.071L1152.78 368.413C1160.07 368.413 1166.28 367.445 1171.4 365.508C1176.53 363.685 1180.86 361.121 1184.39 357.817C1187.92 354.627 1190.71 350.924 1192.77 346.709C1194.93 342.493 1196.64 338.05 1197.89 333.379C1196.07 336.341 1193.45 338.791 1190.03 340.728C1186.61 342.55 1182.8 344.032 1178.58 345.171C1174.48 346.424 1170.15 347.279 1165.59 347.734C1161.15 348.19 1156.99 348.418 1153.12 348.418C1140.24 348.418 1128.11 346.196 1116.72 341.753C1105.44 337.31 1095.52 330.986 1086.98 322.783C1078.55 314.466 1071.88 304.326 1066.98 292.363C1062.09 280.4 1059.64 266.899 1059.64 251.86C1059.64 238.075 1062.09 225.257 1066.98 213.408C1071.88 201.559 1078.55 191.305 1086.98 182.646C1095.52 173.988 1105.44 167.209 1116.72 162.31C1128.11 157.41 1140.24 154.961 1153.12 154.961C1159.04 154.961 1164.91 155.701 1170.72 157.183C1176.53 158.664 1182.17 160.715 1187.64 163.335C1193.11 165.955 1198.29 169.032 1203.19 172.563C1208.2 176.095 1212.87 179.912 1217.2 184.014L1235.32 162.31H1246.6V321.929ZM1329.31 345H1282.32V89.165H1329.31V345ZM1420.06 112.236C1420.06 116.566 1419.21 120.61 1417.5 124.37C1415.9 128.13 1413.68 131.434 1410.83 134.282C1407.98 137.017 1404.62 139.238 1400.75 140.947C1396.99 142.542 1392.94 143.34 1388.62 143.34C1384.29 143.34 1380.18 142.542 1376.31 140.947C1372.55 139.238 1369.25 137.017 1366.4 134.282C1363.66 131.434 1361.44 128.13 1359.73 124.37C1358.14 120.61 1357.34 116.566 1357.34 112.236C1357.34 108.021 1358.14 104.033 1359.73 100.273C1361.44 96.3997 1363.66 93.0957 1366.4 90.3613C1369.25 87.513 1372.55 85.2913 1376.31 83.6963C1380.18 81.9873 1384.29 81.1328 1388.62 81.1328C1392.94 81.1328 1396.99 81.9873 1400.75 83.6963C1404.62 85.2913 1407.98 87.513 1410.83 90.3613C1413.68 93.0957 1415.9 96.3997 1417.5 100.273C1419.21 104.033 1420.06 108.021 1420.06 112.236ZM1412.03 345H1365.03V161.968H1412.03V345ZM1494.4 345H1447.75V161.968H1459.03L1474.41 179.741C1481.93 172.905 1490.41 167.664 1499.87 164.019C1509.44 160.259 1519.41 158.379 1529.78 158.379C1540.94 158.379 1551.48 160.544 1561.39 164.873C1571.31 169.089 1579.96 174.956 1587.37 182.476C1594.78 189.881 1600.59 198.597 1604.8 208.623C1609.13 218.535 1611.3 229.131 1611.3 240.41V345H1564.64V240.41C1564.64 235.625 1563.73 231.125 1561.91 226.909C1560.08 222.58 1557.58 218.82 1554.39 215.63C1551.2 212.44 1547.49 209.933 1543.28 208.11C1539.06 206.287 1534.56 205.376 1529.78 205.376C1524.88 205.376 1520.26 206.287 1515.93 208.11C1511.61 209.933 1507.85 212.44 1504.66 215.63C1501.47 218.82 1498.96 222.58 1497.14 226.909C1495.31 231.125 1494.4 235.625 1494.4 240.41V345ZM1691.62 345H1644.62V89.165H1691.62V250.493L1761.17 162.31H1814.84L1754.17 238.53L1814.84 345H1761.17L1724.09 278.521L1691.62 321.587V345Z" fill="black"/>
</svg>
