<?xml version="1.0" encoding="UTF-8"?>
<svg width="221px" height="42px" viewBox="0 0 221 42" version="1.1" xmlns="http://www.w3.org/2000/svg" xmlns:xlink="http://www.w3.org/1999/xlink">
    <!-- Generator: Sketch 50.2 (55047) - http://www.bohemiancoding.com/sketch -->
    <title>vikiBlue</title>
    <desc>Created with Sketch.</desc>
    <defs></defs>
    <g id="Page-1" stroke="none" stroke-width="1" fill="none" fill-rule="evenodd">
        <g id="RakutenViki-Logo" transform="translate(-26.000000, -20.000000)" fill="#0C9BFF">
            <g id="vikiBlue" transform="translate(26.000000, 20.000000)">
                <polygon id="Fill-1" points="112 35 28 35 34.6919545 42"></polygon>
                <path d="M30.7116,25.667 C27.8226,25.667 25.7076,22.822 25.7076,19.23 C25.7076,15.639 27.8226,12.793 30.7116,12.793 C33.6046,12.793 35.6426,15.639 35.6426,19.23 C35.6426,22.822 33.6046,25.667 30.7116,25.667 Z M35.5646,7.883 L35.5646,8.89 C34.0116,7.901 32.6186,7.326 30.7116,7.326 C24.8536,7.326 20.4026,12.668 20.4026,19.23 C20.4026,25.792 24.8536,31.132 30.7116,31.132 C32.6186,31.132 34.0116,30.559 35.5646,29.568 L35.5646,30.574 L40.7136,30.574 L40.7136,7.883 L35.5646,7.883 Z" id="Fill-2"></path>
                <path d="M76.8176,7.8828 L76.8176,21.2128 C76.8176,23.7128 75.0996,25.8248 72.5976,25.8248 C70.0976,25.8248 68.3796,23.7128 68.3796,21.2128 L68.3796,7.8828 L63.2286,7.8828 L63.2286,21.2128 C63.2286,26.6818 66.9706,31.1318 72.4406,31.1318 C74.9736,31.1318 76.8176,29.7308 76.8176,29.7308 L76.8176,30.5738 L81.9676,30.5738 L81.9676,7.8828 L76.8176,7.8828 Z" id="Fill-4"></path>
                <path d="M124.8044,30.5742 L124.8044,17.2442 C124.8044,14.7442 126.5224,12.6322 129.0244,12.6322 C131.5244,12.6322 133.2424,14.7442 133.2424,17.2442 L133.2424,30.5742 L138.3934,30.5742 L138.3934,17.2442 C138.3934,11.7752 134.6514,7.3252 129.1814,7.3252 C126.6484,7.3252 124.8044,8.7262 124.8044,8.7262 L124.8044,7.8832 L119.6544,7.8832 L119.6544,30.5742 L124.8044,30.5742 Z" id="Fill-6"></path>
                <path d="M5.5592,7.6103 L9.0742,7.6103 C11.4932,7.6103 13.4712,9.5773 13.4712,12.0013 C13.4712,14.4313 11.4932,16.3973 9.0742,16.3973 L5.5592,16.3973 L5.5592,7.6103 Z M5.5592,30.5743 L5.5592,21.7833 L9.3692,21.7833 L15.9642,30.5743 L22.7062,30.5743 L14.7372,19.9663 C17.2212,18.1833 18.8512,15.2843 18.8512,12.0013 C18.8512,6.6083 14.4672,2.2283 9.0742,2.2283 L0.1732,2.2283 L0.1732,30.5743 L5.5592,30.5743 Z" id="Fill-8"></path>
                <path d="M95.8478,25.2051 C95.3858,25.5181 94.8018,25.7631 94.1258,25.7631 C93.2848,25.7631 91.6978,25.1201 91.6978,22.9781 L91.6978,13.2681 L96.1018,13.2681 L96.1018,7.8831 L91.6978,7.8831 L91.6978,2.2281 L86.5478,2.2281 L86.5478,7.8831 L83.8238,7.8831 L83.8238,13.2681 L86.5478,13.2681 L86.5478,23.0581 C86.5468,28.1251 90.3638,31.1511 94.2038,31.1511 C95.6358,31.1511 97.6218,30.6831 99.2418,29.7231 L95.8478,25.2051 Z" id="Fill-10"></path>
                <polygon id="Fill-12" points="53.5168 18.5195 62.3508 7.8825 55.1318 7.8825 48.9538 15.7875 48.9538 0.3545 43.6498 0.3545 43.6498 30.5745 48.9538 30.5745 48.9538 21.2525 56.5488 30.5745 63.7648 30.5745"></polygon>
                <path d="M112.2389,16.2998 L102.9639,16.2998 C104.0479,10.9848 111.2359,10.6798 112.2389,16.2998 M107.7429,7.3068 C101.7829,7.3068 97.5069,12.5448 97.5069,19.2288 C97.5069,26.2558 102.8739,31.1518 108.2549,31.1518 C110.9709,31.1518 114.4519,30.2208 117.3759,26.0718 L112.8269,23.4458 C109.3089,28.6308 103.4459,25.9988 102.7689,20.8138 L117.6039,20.8178 C118.8729,12.6668 113.6029,7.3068 107.7429,7.3068" id="Fill-14"></path>
                <polygon id="Fill-16" points="154.1432 3.6455 159.4152 21.2815 164.6112 3.6455 172.3862 3.6455 162.4882 30.5745 156.3432 30.5745 146.3302 3.6455"></polygon>
                <polygon id="Fill-18" points="174.868 30.574 182.264 30.574 182.264 3.645 174.868 3.645"></polygon>
                <polygon id="Fill-20" points="186.4577 30.5742 186.4577 3.6452 193.8537 3.6452 193.8537 13.8862 202.0457 3.6452 210.3897 3.6452 200.6037 15.7062 211.0717 30.5742 202.5757 30.5742 195.9007 20.6752 193.8537 22.7992 193.8537 30.5742"></polygon>
                <polygon id="Fill-21" points="212.627 30.574 220.023 30.574 220.023 3.645 212.627 3.645"></polygon>
            </g>
        </g>
    </g>
</svg>