<svg width="313" height="50" viewBox="0 0 313 50" fill="none" xmlns="http://www.w3.org/2000/svg">
<g clip-path="url(#clip0)">
<path d="M309.103 12.4748C308.96 12.5304 308.733 12.5581 308.451 12.5581H307.84V11.1515H308.423C308.803 11.1515 309.076 11.1978 309.252 11.2996C309.418 11.3875 309.506 11.5818 309.506 11.8641C309.506 12.1602 309.381 12.3684 309.103 12.4748ZM310.121 14.3118C310.107 14.21 310.107 14.1174 310.107 14.0249V13.7426C310.107 13.5483 310.038 13.3493 309.895 13.1411C309.76 12.9375 309.534 12.8126 309.224 12.7617C309.469 12.7201 309.654 12.6646 309.793 12.572C310.038 12.4101 310.168 12.1556 310.168 11.8086C310.168 11.3181 309.973 10.9896 309.575 10.823C309.349 10.7351 308.992 10.6842 308.516 10.6842H307.16V14.5616H307.84V13.044H308.377C308.738 13.044 308.988 13.0856 309.14 13.1643C309.386 13.3123 309.501 13.6038 309.501 14.0526V14.3627L309.515 14.483C309.529 14.5015 309.529 14.5153 309.529 14.5246C309.543 14.5431 309.543 14.5524 309.543 14.5662H310.186L310.158 14.5153C310.135 14.483 310.126 14.4136 310.121 14.3118" fill="#408740"/>
<path d="M310.911 14.7791C310.315 15.376 309.607 15.6767 308.76 15.6767C307.913 15.6767 307.201 15.376 306.613 14.7791C306.03 14.1822 305.729 13.465 305.729 12.6137C305.729 11.7762 306.026 11.059 306.618 10.4667C307.205 9.86986 307.927 9.56911 308.76 9.56911C309.607 9.56911 310.315 9.86524 310.911 10.4667C311.499 11.059 311.795 11.7762 311.795 12.6137C311.8 13.4697 311.499 14.1868 310.911 14.7791V14.7791ZM308.76 9.09253C307.793 9.09253 306.96 9.43955 306.275 10.1197C305.586 10.8138 305.234 11.6374 305.234 12.6137C305.234 13.5946 305.577 14.4275 306.262 15.1169C306.946 15.8109 307.784 16.1579 308.76 16.1579C309.741 16.1579 310.569 15.8109 311.263 15.1169C311.953 14.4275 312.304 13.59 312.304 12.6137C312.304 11.6374 311.957 10.8045 311.263 10.1197C310.569 9.43955 309.741 9.09253 308.76 9.09253" fill="#408740"/>
<path d="M250.898 32.0793C250.805 33.2407 250.25 33.9625 249.135 34.0967C247.368 34.3142 243.504 34.4808 240.848 34.4808C238.188 34.4808 234.278 34.3142 232.51 34.0967C231.4 33.9718 230.831 33.2407 230.752 32.0793C230.71 31.3066 230.623 27.4477 230.623 25.2499C230.623 23.0613 230.71 19.1932 230.752 18.4158C230.835 17.2637 231.4 16.5326 232.51 16.4031C234.278 16.1902 238.188 16.019 240.848 16.019C243.504 16.019 247.368 16.1902 249.135 16.4031C250.25 16.5326 250.805 17.2637 250.898 18.4158C250.935 19.1932 251.023 23.0613 251.023 25.2499C251.023 27.4477 250.935 31.3066 250.898 32.0793ZM253.762 9.74948C249.815 9.32379 244.837 9.10632 240.844 9.10632C236.846 9.10632 231.816 9.32379 227.869 9.74948C225.033 10.0549 223.099 12.5812 222.886 15.2093C222.761 16.8843 222.664 23.5842 222.664 25.2545C222.664 26.9295 222.761 33.634 222.886 35.309C223.099 37.9325 225.033 40.5051 227.869 40.8105C231.816 41.2408 236.85 41.4074 240.844 41.4074C244.832 41.4074 249.815 41.2408 253.762 40.8105C256.603 40.5051 258.537 37.9371 258.745 35.309C258.884 33.6386 258.958 26.9295 258.958 25.2545C258.958 23.5842 258.88 16.8889 258.745 15.2093C258.537 12.5858 256.603 10.0549 253.762 9.74948Z" fill="#408740"/>
<path d="M208.743 32.0793C208.664 33.2407 208.104 33.9718 206.975 34.0967C205.226 34.3142 201.358 34.4808 198.698 34.4808C196.032 34.4808 192.123 34.3142 190.36 34.0967C189.249 33.9718 188.685 33.2407 188.597 32.0793C188.551 31.3066 188.472 27.4477 188.472 25.2545C188.472 23.066 188.551 19.1978 188.597 18.4205C188.685 17.2683 189.245 16.5373 190.36 16.4077C192.118 16.1949 196.032 16.0237 198.698 16.0237C201.358 16.0237 205.222 16.1949 206.975 16.4077C208.104 16.5373 208.664 17.2683 208.743 18.4205C208.794 19.1978 208.877 23.066 208.877 25.2545C208.877 27.4477 208.794 31.3066 208.743 32.0793ZM211.625 9.74948C207.674 9.32379 202.686 9.10632 198.698 9.10632C194.691 9.10632 189.67 9.32379 185.723 9.74948C182.887 10.0549 180.958 12.5858 180.745 15.2093C180.62 16.8843 180.527 23.5842 180.527 25.2545C180.527 26.9295 180.62 33.634 180.745 35.3044C180.958 37.9279 182.887 40.5005 185.723 40.8059C189.675 41.2362 194.695 41.4027 198.698 41.4027C202.686 41.4027 207.669 41.2362 211.625 40.8059C214.466 40.5005 216.396 37.9325 216.609 35.3044C216.734 33.634 216.822 26.9249 216.822 25.2499C216.822 23.5796 216.734 16.8843 216.609 15.2047C216.396 12.5858 214.466 10.0549 211.625 9.74948Z" fill="#408740"/>
<path d="M165.798 21.021C165.719 22.1777 165.159 22.9134 164.044 23.043C162.281 23.2558 158.417 23.427 155.752 23.427C153.096 23.427 148.844 23.2095 147.29 23.0892C147.077 23.0476 145.962 22.9134 145.531 22.8718V16.579C145.906 16.5374 147.165 16.4078 147.984 16.3246C149.645 16.1441 153.036 16.0238 155.748 16.0238C158.413 16.0238 162.276 16.195 164.039 16.4078C165.154 16.5374 165.71 17.2685 165.793 18.4206C165.839 19.0267 165.83 18.9481 165.83 19.5635C165.839 20.6832 165.848 20.4195 165.798 21.021V21.021ZM166.334 29.8169V29.8122C167.153 29.7428 167.958 29.6734 168.713 29.5948C170.559 29.3958 172.002 28.2437 172.849 26.7492C173.312 25.8099 173.585 24.7642 173.659 23.774C173.747 22.6126 173.835 22.7653 173.835 21.0904C173.835 18.8509 173.747 16.3616 173.659 15.2094C173.441 12.5859 171.517 10.055 168.676 9.7496C164.738 9.32391 159.745 9.10645 155.752 9.10645C151.755 9.10645 146.942 9.27302 143.25 9.62467C140.673 9.88378 137.582 10.2216 137.582 10.2216V41.1484H145.531V29.914H145.573V29.9094C148.631 30.0945 152.823 30.2379 155.766 30.2379C156.46 30.2379 157.182 30.2333 157.927 30.2102L165.053 41.1761H174.057L167.847 32.0702C167.857 32.0656 166.325 29.8215 166.334 29.8169" fill="#408740"/>
<path d="M121.023 21.8629C119.385 22.0341 116.123 22.21 113.462 22.21H102.33V16.491C102.723 16.4494 103.972 16.3614 104.787 16.2735C106.452 16.107 110.321 15.9358 113.027 15.9358C115.688 15.9358 119.477 16.144 121.106 16.3244C122.48 16.491 122.818 17.6061 122.818 19.1099C122.823 20.6183 122.402 21.6964 121.023 21.8629ZM121.111 34.2355C119.482 34.4067 115.692 34.5825 113.032 34.5825C110.325 34.5825 106.462 34.4484 104.791 34.2818C103.972 34.1893 102.728 34.0643 102.334 34.0181V28.3037H113.467C116.127 28.3037 119.389 28.4333 121.027 28.6091C122.406 28.7757 122.823 29.9463 122.823 31.4454C122.823 32.9446 122.485 34.0597 121.111 34.2355V34.2355ZM130.726 17.5737C130.726 14.2191 129.791 10.1798 125.654 9.7541C121.758 9.32379 116.942 9.10632 113.032 9.10632C109.039 9.10632 103.76 9.27289 100.058 9.62455C97.4946 9.88366 94.3945 10.2214 94.3945 10.2214V40.283C94.8295 40.3293 97.6982 40.6717 100.063 40.8845C103.764 41.2362 109.044 41.3981 113.037 41.3981C116.946 41.3981 121.763 41.2315 125.664 40.8012C129.8 40.3663 130.735 36.2945 130.735 32.94C130.735 30.3581 130.217 27.0591 128.033 25.6802C127.82 25.5553 127.343 25.3841 127.172 25.2499C127.343 25.1203 127.82 24.8612 128.033 24.7363C130.212 23.3621 130.726 20.1417 130.726 17.5737" fill="#408740"/>
<path d="M62.1651 16.3244C63.9187 16.107 67.8285 15.9358 70.4937 15.9358C74.3572 15.9358 80.2011 15.982 84.1109 16.1902C84.6615 16.2226 86.6002 16.454 87.3683 16.5743L87.8865 9.79112C87.0675 9.66619 84.8373 9.40245 84.2312 9.37006C80.3723 9.1202 74.3988 9.10632 70.4937 9.10632C66.5006 9.10632 61.471 9.32379 57.5242 9.74948C54.6879 10.0549 52.7538 12.5858 52.541 15.2047C52.4114 16.875 52.3281 23.5796 52.3281 25.2499C52.3281 26.9249 52.416 33.6294 52.541 35.2997C52.7538 37.9232 54.6879 40.4958 57.5242 40.8012C61.471 41.2362 66.5006 41.3981 70.4937 41.3981C74.3988 41.3981 80.4047 41.3935 84.2312 41.1668C84.8373 41.1344 87.0675 40.829 87.8865 40.6948L87.3683 33.907C86.6002 34.0366 84.6569 34.2957 84.1109 34.3327C80.2196 34.6612 74.3572 34.5687 70.4937 34.5687C67.8285 34.5687 63.9234 34.3975 62.1651 34.1754C61.0407 34.0504 60.4809 33.3147 60.3976 32.158C60.3559 31.6444 60.3143 29.8815 60.3143 28.4194H78.5816V22.0341H60.3143C60.3143 20.572 60.3559 18.8508 60.3976 18.3372C60.4809 17.1758 61.0407 16.4494 62.1651 16.3244" fill="#408740"/>
<path d="M302.742 16.2736V9.36084H263.047V16.2736H278.936V41.1483H286.885V16.2736H302.742Z" fill="#408740"/>
<path d="M47.6824 9.32849V9.34237H39.7424C39.5296 10.3696 36.9986 19.2673 36.7164 20.2389C36.4434 21.2199 34.8749 26.0597 34.5232 27.0175C34.4769 27.1239 33.9541 28.4704 33.8986 28.5722L26.847 13.0208H20.9939L13.9423 28.5629C13.8914 28.4611 13.3593 27.1147 13.3177 27.0082C12.966 26.0504 11.3882 21.2106 11.1152 20.2297C10.8422 19.258 8.30203 10.3649 8.09382 9.33312H0.144642V9.32849H0.09375L0.098297 9.33775H0.09375L0.209432 9.71253V9.71716C0.537941 11.369 4.95671 26.0736 5.40553 27.6884C5.86823 29.2986 8.60278 37.4606 9.18115 39.0292C9.24131 39.1911 9.3107 39.3438 9.38474 39.4965L9.38929 39.5104C9.88901 41.0327 11.055 41.2594 12.5727 41.3473L12.7624 41.3519C14.2985 41.3519 15.2933 41.0419 15.881 40.0147L23.9227 22.2609L31.9644 40.0147C32.5474 41.0419 33.5515 41.3519 35.0784 41.3519L35.2727 41.3473C36.795 41.2594 37.9564 41.0327 38.4514 39.5104L38.4607 39.4965C38.5301 39.3438 38.6041 39.1911 38.655 39.0292C39.2334 37.4606 41.9772 29.3032 42.4353 27.6884C42.8934 26.0736 47.3029 11.3644 47.6406 9.72179V9.71716L47.7563 9.34237H47.7424L47.7563 9.32849L47.6824 9.32849Z" fill="#408740"/>
</g>
<defs>
<clipPath id="clip0">
<rect width="312.396" height="32.5" fill="white" transform="translate(0 9)"/>
</clipPath>
</defs>
</svg>
