<?xml version="1.0"?>
<svg xmlns="http://www.w3.org/2000/svg" width="571" height="114" viewBox="0 0 571 114" fill="none">
<g clip-path="url(#clip0)">
<path d="M340.6 98.8H358.8V70.5C358.8 53.4 373.9 53.7 381.8 55V35.7C369.2 34.6 361.7 38.1 358.3 44.9H357.9L358 36H340.5V98.8H340.6Z" fill="black"/>
<path d="M435 98.8H446.4L465.2 75.1L481.1 98.8H502.3L477.3 62.4L499.2 35.9H478.1L453.1 67.5H452.7L452.9 4.49999H435V98.8Z" fill="black"/>
<path d="M229.5 98.8H243.6L265.2 58.4L286.1 98.8H300.4L332.5 35.9H311.2L291.5 76L272.8 35.9H257.5L237.8 76.2L219.1 35.9H197.8L229.5 98.8Z" fill="black"/>
<path d="M406.1 26.9C412.286 26.9 417.3 21.8856 417.3 15.7C417.3 9.5144 412.286 4.49999 406.1 4.49999C399.914 4.49999 394.9 9.5144 394.9 15.7C394.9 21.8856 399.914 26.9 406.1 26.9Z" fill="black"/>
<path d="M415.1 35.9H397.1V98.8H415.1V35.9Z" fill="black"/>
<path d="M42.2 41.3C50.9 41.3 55 42.9 61.3 49.2L95.1 83C96.1 84 96.3 84.4 96.5 85C96.6 85.2 96.6 85.5 96.6 85.7C96.6 85.9 96.6 86.2 96.5 86.4C96.3 87 96.1 87.4 95.1 88.4L72 111.6C71 112.6 70.6 112.8 70 113C69.8 113.1 69.5 113.1 69.3 113.1C69.1 113.1 68.8 113.1 68.6 113C68 112.8 67.6 112.6 66.6 111.6L1.09999 46.1C-0.800013 44.2 -0.100013 41.3 3.09999 41.3H42.2Z" fill="#08CF65"/>
<path d="M137.6 -6.10203e-06C128.9 -6.10203e-06 124.8 1.59999 118.5 7.89999L84.7 41.7C83.7 42.7 83.5 43.1 83.3 43.7C83.2 43.9 83.2 44.2 83.2 44.4C83.2 44.6 83.2 44.9 83.3 45.1C83.5 45.7 83.7 46.1 84.7 47.1L107.8 70.2C108.8 71.2 109.2 71.4 109.8 71.6C110 71.7 110.3 71.7 110.5 71.7C110.7 71.7 111 71.7 111.2 71.6C111.8 71.4 112.2 71.2 113.2 70.2L178.7 4.69999C180.6 2.79999 179.9 -0.100006 176.7 -0.100006H137.6V-6.10203e-06Z" fill="#08CF65"/>
<path d="M553.4 77.9C551.2 81.2 546.6 85.3 538.9 85.3C529.9 85.3 523.5 80.1 522.1 72.6H571C571 71.3 571 69.4 571 67.6C571 49.4 557.9 34.8 538.5 34.8C519.5 34.8 504.8 49.2 504.8 67.6C504.8 85.9 519.2 100.4 538.5 100.4C552.9 100.4 561.6 94.7 567.2 87.4L553.4 77.9ZM537.5 48.9C545.8 48.9 551.6 53.5 553.6 60.1H521.3C523.3 53.5 529 48.9 537.5 48.9Z" fill="black"/>
</g>
<defs>
<clipPath id="clip0">
<path d="M0 0H571V114H0V0Z" fill="white"/>
</clipPath>
</defs>
</svg>
