<svg width="45" height="46" viewBox="0 0 45 46" fill="none" xmlns="http://www.w3.org/2000/svg">
<path fill-rule="evenodd" clip-rule="evenodd" d="M44.913 22.995C44.913 35.418 34.859 45.49 22.457 45.49C10.054 45.49 0 35.418 0 22.995C0 10.57 10.054 0.5 22.457 0.5C34.86 0.5 44.913 10.57 44.913 22.995ZM10.7524 22.9335L14.5829 19.085C14.6977 18.953 14.7578 18.7822 14.7512 18.6075C14.7446 18.4327 14.6716 18.267 14.5472 18.1441C14.4227 18.0211 14.2561 17.9502 14.0813 17.9458C13.9064 17.9413 13.7364 18.0036 13.6059 18.12L9.77588 21.953L5.93088 18.113C5.80106 17.9849 5.62566 17.9136 5.44328 17.9148C5.2609 17.916 5.08648 17.9897 4.95838 18.1195C4.83028 18.2493 4.759 18.4247 4.76022 18.6071C4.76144 18.7895 4.83506 18.9639 4.96488 19.092L8.79688 22.929L4.96688 26.769C4.89928 26.8315 4.84492 26.907 4.80703 26.9909C4.76914 27.0749 4.74848 27.1656 4.74629 27.2576C4.7441 27.3497 4.76041 27.4413 4.79426 27.5269C4.82812 27.6126 4.87882 27.6906 4.94337 27.7562C5.00792 27.8219 5.085 27.874 5.17004 27.9093C5.25508 27.9447 5.34635 27.9626 5.43845 27.962C5.53054 27.9614 5.62158 27.9424 5.70617 27.9059C5.79075 27.8695 5.86717 27.8165 5.93088 27.75L9.77088 23.908L13.5959 27.735C13.6901 27.8352 13.8124 27.9047 13.9467 27.9345C14.0811 27.9643 14.2212 27.9529 14.349 27.9018C14.4768 27.8508 14.5862 27.7625 14.6631 27.6483C14.7399 27.5342 14.7806 27.3996 14.7799 27.262C14.7803 27.1719 14.7629 27.0827 14.7285 26.9994C14.6942 26.9162 14.6437 26.8406 14.5799 26.777L10.7524 22.9335ZM34.7819 24.184C34.0919 24.184 33.5319 23.624 33.5319 22.934H33.5349C33.5349 22.244 34.0939 21.684 34.7809 21.684C35.1124 21.6839 35.4304 21.8154 35.6649 22.0498C35.8994 22.2841 36.0312 22.602 36.0314 22.9335C36.0315 23.265 35.8999 23.583 35.6656 23.8175C35.4313 24.052 35.1134 24.1839 34.7819 24.184ZM34.7809 19.314C32.7869 19.314 31.1669 20.939 31.1669 22.934C31.1669 23.893 31.5474 24.8129 32.225 25.4916C32.9026 26.1703 33.8218 26.5524 34.7809 26.554C36.7719 26.554 38.3939 24.929 38.3939 22.934C38.3939 20.939 36.7709 19.314 34.7809 19.314ZM34.7809 27.978C32.0052 27.978 29.7453 25.7144 29.7449 22.9348C29.7454 21.5987 30.2759 20.3173 31.22 19.3718C32.1641 18.4262 33.4447 17.8936 34.7809 17.891C37.5569 17.891 39.8169 20.155 39.8169 22.935C39.8169 25.716 37.5569 27.978 34.7809 27.978ZM29.7449 22.9348C29.7449 22.9345 29.7449 22.9343 29.7449 22.934V22.935C29.7449 22.9349 29.7449 22.9349 29.7449 22.9348ZM29.1779 17.977H29.3879L29.3839 17.978C29.5665 17.978 29.7417 18.0504 29.8711 18.1794C30.0004 18.3083 30.0733 18.4833 30.0739 18.666C30.0739 19.045 29.7839 19.326 29.3779 19.341L29.377 19.341C29.3646 19.3408 29.2225 19.3386 29.0879 19.355C27.5999 19.541 27.4399 20.245 27.4399 21.985V27.209C27.4307 27.3845 27.3545 27.5499 27.2271 27.671C27.0996 27.7921 26.9306 27.8597 26.7548 27.8599C26.579 27.8602 26.4098 27.7931 26.282 27.6723C26.1543 27.5516 26.0776 27.3865 26.0679 27.211L26.0659 18.716C26.0654 18.6264 26.0826 18.5375 26.1165 18.4545C26.1504 18.3716 26.2004 18.2961 26.2636 18.2326C26.3268 18.169 26.402 18.1186 26.4847 18.0841C26.5675 18.0497 26.6562 18.032 26.7459 18.032C26.9026 18.033 27.0544 18.0868 27.1768 18.1848C27.2991 18.2828 27.3848 18.4192 27.4199 18.572C27.9309 18.177 28.5429 17.977 29.1779 17.977ZM16.2019 22.102H23.2699C23.0824 21.3098 22.6345 20.6034 21.998 20.0958C21.3614 19.5883 20.573 19.309 19.759 19.3027C18.9449 19.2964 18.1522 19.5633 17.5079 20.0609C16.8635 20.5584 16.4047 21.2578 16.2049 22.047C16.2046 22.0524 16.2042 22.058 16.2038 22.0637C16.2029 22.0761 16.202 22.089 16.2019 22.102ZM22.4449 18.679C23.6119 19.419 24.3789 20.572 24.6749 21.975L24.6729 21.973C24.8189 22.766 24.2909 23.461 23.3089 23.483H16.1389L16.1489 23.588C16.1842 23.7851 16.2353 23.9791 16.3019 24.168C16.6829 25.164 17.7509 26.561 19.7489 26.584C20.3589 26.58 20.9329 26.427 21.4389 26.157C21.8349 25.935 22.1659 25.65 22.4329 25.355C22.5199 25.25 22.6009 25.144 22.6729 25.04C23.0069 24.61 23.4329 24.689 23.6869 24.884C23.9869 25.114 24.0379 25.6 23.7639 25.94C23.761 25.9436 23.758 25.9469 23.7552 25.95C23.7503 25.9555 23.7457 25.9606 23.7419 25.967C23.3459 26.462 22.9389 26.876 22.4519 27.189C21.989 27.4855 21.4801 27.7032 20.9459 27.833C20.3359 27.993 19.7439 28.027 19.1359 27.953C18.1286 27.8242 17.183 27.3965 16.4211 26.725C15.6593 26.0536 15.1162 25.1692 14.8619 24.186C14.6187 23.1981 14.6766 22.1601 15.0282 21.2054C15.3798 20.2508 16.009 19.4231 16.8349 18.829C17.651 18.2537 18.619 17.9325 19.6172 17.9058C20.6154 17.8791 21.5992 18.1481 22.4449 18.679Z" fill="#13B5EA"/>
</svg>
