<svg width="294" height="55" viewBox="0 0 294 55" fill="none" xmlns="http://www.w3.org/2000/svg">
<path d="M66.302 40.7879C70.5382 40.7879 71.827 40.0258 72.6675 38.8155C73.0697 38.1434 73.3434 37.4024 73.4744 36.6302C73.564 36.2267 73.6425 35.9914 73.8442 35.9914C74.0459 35.9914 74.1692 36.1483 74.1692 36.9103C74.0359 38.4775 73.7659 40.0299 73.3623 41.55C73.1158 42.525 73.0709 42.6034 72.152 42.6034C65.4278 42.6034 58.6365 42.4017 51.5761 42.4017C51.0942 42.4017 50.8477 42.4017 50.8477 42.0767C50.8477 41.7517 50.9261 41.6733 51.408 40.956C57.4261 31.8784 63.5115 22.812 69.1261 13.6896H60.3623C58.3115 13.6896 55.8796 13.8129 54.5571 14.4965C53.9724 14.8295 53.4682 15.2873 53.0807 15.8375C52.6933 16.3876 52.4321 17.0165 52.3158 17.6793C52.2373 18.2845 52.0692 18.4077 51.8675 18.4077C51.6658 18.4077 51.6321 18.206 51.6321 17.881C51.6321 17.556 52.2373 13.7345 52.439 12.5241C52.5175 11.9526 52.5959 11.7509 52.8425 11.7509C53.3978 11.8911 53.9637 11.9849 54.5347 12.031C58.3675 12.1991 60.3063 12.1543 61.5502 12.1543H72.7571C73.3623 12.1543 73.564 12.2327 73.564 12.4793C73.5693 12.5668 73.5572 12.6544 73.5283 12.7371C73.4995 12.8199 73.4544 12.896 73.3959 12.9612C67.5459 22.2069 61.4606 31.5086 55.3304 40.7879H66.302Z" fill="#0B87CD"/>
<path d="M85.7789 32.6741C85.5771 32.6741 85.4651 32.7974 85.3754 32.9991L83.6047 38.0422C83.2388 38.9603 83.0085 39.9268 82.9211 40.9112C82.9211 41.6396 83.3582 41.9534 84.2547 41.9534H84.5685C84.9271 41.9534 85.0504 42.0767 85.0504 42.2448C85.0504 42.4129 84.7254 42.525 84.4452 42.525C83.5599 42.525 81.6995 42.4017 81.2625 42.4017C80.8254 42.4017 79.0211 42.525 77.3849 42.525C76.9478 42.525 76.7461 42.4465 76.7461 42.2448C76.7461 42.0431 76.903 41.9534 77.228 41.9534C77.4967 41.9692 77.7661 41.9692 78.0349 41.9534C79.772 41.7853 80.4556 40.4629 81.1392 38.7595L89.2082 17.4664C89.6452 16.3457 89.7685 16.0991 90.0487 16.0991C90.3289 16.0991 90.4185 16.256 90.8556 17.3879C91.3935 18.7215 96.8961 32.7974 99.0142 37.8965C100.348 41.0905 101.513 41.606 102.085 41.8078C102.525 41.9578 102.988 42.0262 103.452 42.0095C103.732 42.0095 103.934 42.0991 103.934 42.3009C103.934 42.5026 103.777 42.581 103.329 42.581C102.881 42.581 99.8995 42.581 97.1987 42.5026C96.4366 42.5026 96.1901 42.4129 96.1901 42.2112C96.1901 42.0095 96.3133 41.9759 96.4702 41.931C96.6271 41.8862 96.8737 41.6509 96.6383 41.0457L93.4444 32.9319C93.4147 32.8735 93.37 32.824 93.3148 32.7886C93.2597 32.7531 93.1961 32.733 93.1306 32.7302L85.7789 32.6741ZM92.6375 31.2621C92.8056 31.2621 92.8056 31.15 92.7608 31.0267L89.578 22.0612C89.3763 21.5008 89.3314 21.5008 89.1297 22.0612L86.1039 31.0267C86.0254 31.1836 86.1039 31.2621 86.1823 31.2621H92.6375Z" fill="#0B87CD"/>
<path d="M108.901 26.5104C108.901 21.1871 108.901 20.2121 108.823 19.1251C108.744 18.038 108.464 17.4328 107.209 17.1863C106.89 17.1407 106.568 17.1145 106.245 17.1078C105.965 17.1078 105.797 17.0294 105.797 16.8613C105.797 16.6932 105.92 16.5811 106.279 16.5811C108.016 16.5811 110.481 16.7044 110.56 16.7044C110.918 16.7044 113.709 16.6035 114.83 16.6035C117.139 16.4311 119.445 16.9667 121.441 18.1389C122.187 18.717 122.787 19.4604 123.195 20.3103C123.604 21.1602 123.809 22.0934 123.795 23.0363C123.795 25.2776 122.674 28.0794 119.525 30.6569C122.461 34.288 124.882 37.2802 126.944 39.4207C129.006 41.5613 130.093 41.7182 131.214 41.875C131.505 41.875 132.334 41.9535 132.469 41.9535C132.794 41.9535 132.917 42.0768 132.917 42.2449C132.917 42.413 132.749 42.525 132.189 42.525H129.398C128.153 42.6167 126.902 42.4528 125.722 42.0432C124.03 41.3147 122.82 39.4992 120.724 36.7983C119.155 34.8595 117.541 32.6742 116.847 31.8337C116.795 31.7544 116.723 31.6901 116.638 31.6469C116.554 31.6037 116.46 31.5831 116.365 31.5871H112.207C112.05 31.5871 112.005 31.5871 112.005 31.7888V32.2932C111.944 34.8352 112.012 37.3786 112.207 39.9138C112.33 40.8888 112.454 41.6957 113.787 41.8526C114.159 41.897 114.533 41.9232 114.908 41.9311C115.278 41.9311 115.435 42.0544 115.435 42.1776C115.435 42.3009 115.278 42.5026 114.874 42.5026C112.768 42.5026 110.515 42.3794 110.392 42.3794C109.753 42.3794 107.971 42.5026 106.884 42.5026C106.48 42.5026 106.324 42.4242 106.324 42.1776C106.324 41.9311 106.559 41.9311 106.805 41.9311C107.103 41.9421 107.4 41.9157 107.691 41.8526C108.374 41.7294 108.621 41.2923 108.744 40.3173C108.946 38.8716 108.901 35.5656 108.901 32.5397V26.5104ZM112.005 29.3682C111.992 29.4593 112.004 29.5523 112.039 29.6372C112.075 29.7222 112.133 29.7958 112.207 29.85C113.365 30.2406 114.584 30.4191 115.805 30.3768C116.745 30.451 117.687 30.2402 118.505 29.7716C119.715 29.0095 120.522 27.2388 120.522 24.6501C120.522 20.257 118.18 17.8363 114.594 17.8363C113.808 17.8173 113.023 17.8849 112.252 18.038C112.177 18.0625 112.113 18.1108 112.068 18.1756C112.024 18.2404 112.002 18.3181 112.005 18.3966V29.3682Z" fill="#0B87CD"/>
<path d="M166.716 37.3138C166.873 38.7707 167.153 41.0345 168.89 41.5948C169.699 41.8432 170.543 41.9641 171.389 41.9534C171.591 41.9534 171.838 41.9534 171.838 42.2C171.838 42.4465 171.714 42.525 171.233 42.525C170.347 42.525 165.741 42.4017 164.251 42.2784C163.32 42.2 163.13 42.0767 163.13 41.875C163.13 41.6733 163.22 41.6733 163.421 41.5948C163.623 41.5164 163.657 40.8664 163.578 40.1379L161.628 19.0802L151.62 40.306C150.78 42.0767 150.657 42.4465 150.298 42.4465C149.939 42.4465 149.805 42.0431 149.043 40.5862C147.989 38.6138 144.56 31.6207 144.325 31.2284C143.966 30.5 139.327 20.5371 138.878 19.45L137.22 38.5017C137.22 39.1517 137.141 39.7121 137.141 40.3957C137.141 41.4043 137.623 41.7293 138.262 41.8526C138.739 41.9616 139.229 42.0143 139.719 42.0095C139.965 42.0095 140.122 42.0991 140.122 42.2112C140.122 42.5026 139.92 42.581 139.517 42.581C138.027 42.581 135.964 42.4578 135.639 42.4578C135.314 42.4578 133.342 42.581 132.277 42.581C131.874 42.581 131.594 42.581 131.594 42.256C131.594 41.931 131.795 42.0095 131.997 42.0095C132.403 42.0161 132.81 41.9785 133.208 41.8974C134.541 41.6509 134.62 40.194 134.821 38.5353L137.724 12.3112C137.724 11.8629 137.926 11.5043 138.172 11.5043C138.419 11.5043 138.576 11.6612 138.777 12.1095L151.105 37.4819L162.917 12.1207C163.085 11.7509 163.242 11.4707 163.522 11.4707C163.802 11.4707 163.926 11.7957 164.015 12.5914L166.716 37.3138Z" fill="#0B87CD"/>
<path d="M174.461 29.4914C174.488 27.6785 174.877 25.8893 175.605 24.229C176.334 22.5687 177.387 21.0706 178.703 19.823C180.017 18.5753 181.569 17.6032 183.266 16.9637C184.963 16.3242 186.769 16.0303 188.582 16.0992C196.572 16.0992 202.657 20.8621 202.657 28.9647C202.657 36.675 196.976 42.9621 188.38 42.9621C178.495 42.9621 174.461 35.6552 174.461 29.4914ZM198.87 29.9733C198.87 21.8707 193.871 17.3544 188.335 17.3544C182.799 17.3544 178.249 20.8173 178.249 28.438C178.249 36.35 182.642 41.5949 189.456 41.5949C192.089 41.5949 198.881 40.2276 198.881 29.9733H198.87Z" fill="#0B87CD"/>
<path d="M210.086 17.7242C210.086 16.469 210.209 16.0656 210.534 16.0656C210.859 16.0656 211.498 16.8724 211.778 17.1862C212.059 17.5 217.752 23.3164 223.4 29.088C226.549 32.1587 230.584 36.3052 231.626 37.2802L231.189 20.4699C231.189 18.2957 230.897 17.5673 229.81 17.2871C229.293 17.1922 228.768 17.1397 228.241 17.1302C227.838 17.1302 227.759 16.9621 227.759 16.8052C227.759 16.6483 228.073 16.5587 228.477 16.5587C230.214 16.5587 231.906 16.6819 232.276 16.6819C232.646 16.6819 233.923 16.6035 235.503 16.6035C235.94 16.6035 236.064 16.6035 236.064 16.85C236.064 17.0966 235.94 17.1302 235.705 17.175C235.47 17.2199 235.134 17.175 234.697 17.2871C233.766 17.4888 233.486 17.8923 233.486 20.313L233.408 40.5638C233.408 42.5811 233.318 42.8052 233.038 42.8052C232.758 42.8052 232.354 42.525 230.382 40.6759C230.214 40.5863 224.61 35.0725 221.103 31.5983L211.857 21.994L212.384 37.7621C212.462 40.5526 212.709 41.5949 213.717 41.8414C214.262 41.9575 214.819 42.0102 215.376 41.9983C215.69 41.9983 215.858 42.1216 215.858 42.2897C215.858 42.4578 215.656 42.5699 215.208 42.5699C213.034 42.5699 211.577 42.4466 211.297 42.4466C211.016 42.4466 209.526 42.5699 207.789 42.5699C207.419 42.5699 207.184 42.5699 207.184 42.2897C207.184 42.0095 207.34 41.9983 207.744 41.9983C208.168 42.01 208.591 41.9571 208.999 41.8414C209.884 41.5613 210.12 40.4742 210.12 37.5268C210.086 18.2397 210.086 24.4483 210.086 17.7242Z" fill="#0B87CD"/>
<path d="M245.014 26.5103C245.014 21.2207 245.014 20.2569 244.936 19.1698C244.858 18.0827 244.577 17.4664 243.412 17.231C243.09 17.1794 242.764 17.1532 242.437 17.1526C242.157 17.1526 241.91 17.0293 241.91 16.906C241.91 16.7827 242.112 16.581 242.515 16.581C243.322 16.581 244.409 16.6595 246.673 16.7043C246.875 16.7043 254.058 16.7043 254.865 16.7043C255.395 16.7157 255.924 16.6477 256.434 16.5026C256.575 16.4373 256.728 16.3993 256.883 16.3905C256.961 16.3905 257.039 16.469 257.039 16.6707C257.039 16.8724 256.804 17.4776 256.714 18.4862C256.714 19.1698 256.636 19.8198 256.602 20.5819C256.602 20.9405 256.513 21.1871 256.311 21.1871C256.109 21.1871 256.031 21.0302 256.031 20.7388C256.017 20.2957 255.922 19.8589 255.751 19.45C255.504 18.6431 255.146 18.3293 253.128 18.2396C252.602 18.2396 248.646 18.1612 248.533 18.1612C248.421 18.1612 248.332 18.2396 248.332 18.4862V27.6422C248.332 27.8888 248.332 28.0457 248.567 28.0457C249.049 28.0457 253.173 28.0457 254.014 27.9224C254.854 27.7991 255.549 27.7655 255.874 27.3172C256.031 27.0707 256.154 26.9922 256.311 26.9922C256.468 26.9922 256.479 26.9922 256.479 27.2388C256.479 27.4853 256.311 28.2026 256.199 29.3793C256.087 30.556 256.076 31.3069 256.031 31.8336C256.031 32.1586 255.908 32.2819 255.751 32.2819C255.594 32.2819 255.504 32.0353 255.504 31.7552C255.502 31.4308 255.465 31.1076 255.392 30.7914C255.224 30.2646 254.989 29.6707 253.453 29.581C252.523 29.4914 249.251 29.4129 248.612 29.4129C248.365 29.4129 248.332 29.5362 248.332 29.6931V32.6405C248.332 33.8957 248.332 37.4483 248.332 38.1319C248.41 39.6224 248.612 40.3733 249.452 40.7543C250.403 41.0628 251.404 41.1846 252.4 41.1129C253.43 41.1656 254.462 41.0865 255.47 40.8776C256.681 40.5077 256.961 39.7008 257.286 38.2103C257.364 37.8069 257.488 37.65 257.645 37.65C257.802 37.65 257.891 38.0086 257.891 38.2552C257.891 38.5017 257.566 41.0793 257.443 41.7629C257.32 42.4465 257.006 42.6483 255.672 42.6483C253.005 42.6483 251.873 42.5698 250.461 42.5698C249.049 42.5698 247.2 42.4465 245.709 42.4465C244.779 42.4465 244.017 42.5698 243.042 42.5698C242.683 42.5698 242.482 42.4914 242.482 42.2896C242.486 42.2468 242.499 42.2054 242.52 42.1675C242.54 42.1296 242.567 42.0962 242.601 42.0691C242.634 42.042 242.672 42.0218 242.714 42.0097C242.755 41.9975 242.798 41.9936 242.84 41.9983C243.114 41.9973 243.385 41.9596 243.647 41.8862C244.376 41.7181 244.858 41.1914 244.936 38.6922C244.936 37.325 245.014 35.6664 245.014 32.6069V26.5103Z" fill="#0B87CD"/>
<path d="M271.535 33.7275C271.621 32.4347 271.296 31.1476 270.605 30.0517C270.358 29.6034 265.674 21.9827 264.43 20.2456C263.894 19.3036 263.214 18.4525 262.413 17.7241C261.858 17.3358 261.194 17.1355 260.519 17.1525C260.272 17.1525 260.07 17.0293 260.07 16.8275C260.07 16.6258 260.238 16.6034 260.519 16.6034C261.157 16.6034 264.228 16.7267 264.307 16.7267C264.553 16.7267 265.875 16.6034 267.377 16.6034C267.769 16.6034 267.893 16.7267 267.893 16.8499C267.893 16.9732 267.769 17.0853 267.456 17.1749C266.884 17.287 266.806 17.4887 266.806 17.8137C266.877 18.2926 267.057 18.7487 267.332 19.1474C267.859 20.156 273.182 28.7068 273.788 29.7155C274.426 28.3034 278.954 20.918 279.514 19.9094C280.276 18.587 280.444 18.2172 280.444 17.7801C280.444 17.343 279.963 17.2534 279.514 17.1749C279.066 17.0965 279.066 17.0068 279.066 16.8499C279.066 16.693 279.2 16.6034 279.57 16.6034C280.534 16.6034 281.386 16.7267 282.025 16.7267C282.663 16.7267 284.927 16.6034 285.611 16.6034C285.969 16.6034 286.093 16.7267 286.093 16.8499C286.093 16.9732 285.891 17.1749 285.611 17.1749C284.9 17.1328 284.195 17.313 283.594 17.6905C282.991 18.1379 282.483 18.7019 282.103 19.3491C279.586 22.9389 277.295 26.6818 275.244 30.556C274.885 31.5763 274.748 32.6612 274.841 33.7387V36.6862C274.841 36.9663 274.841 38.4568 274.919 39.9137C274.998 40.8775 275.076 41.5612 276.332 41.8077C276.821 41.9089 277.321 41.9613 277.822 41.9646C278.147 41.9646 278.27 42.0879 278.27 42.2112C278.27 42.3344 278.147 42.5362 277.788 42.5362C275.771 42.5362 273.306 42.4129 273.149 42.4129C272.992 42.4129 270.65 42.5362 269.518 42.5362C269.114 42.5362 268.946 42.4129 268.946 42.2112C268.946 42.0094 269.069 41.9646 269.35 41.9646C269.688 41.9667 270.027 41.9291 270.358 41.8525C271.042 41.7293 271.333 40.8775 271.412 39.9137C271.535 38.4568 271.535 37.0112 271.535 36.6862V33.7275Z" fill="#0B87CD"/>
<path d="M36.3793 11H5V42.3793H36.3793V11Z" fill="#0B87CD"/>
<path d="M287.162 15.0345V12.2044H286.105V11.8257H288.649V12.2044H287.587V15.0345H287.162ZM289.073 15.0345V11.8257H289.713L290.473 14.0977C290.542 14.3093 290.594 14.4676 290.625 14.5727C290.662 14.4559 290.719 14.2845 290.797 14.0583L291.564 11.8257H292.136V15.0345H291.727V12.3488L290.794 15.0345H290.411L289.483 12.3029V15.0345H289.073Z" fill="#0B87CD"/>
</svg>
