<svg width="294" height="45" viewBox="0 0 294 45" fill="none" xmlns="http://www.w3.org/2000/svg">
<path d="M66.302 36.7879C70.5382 36.7879 71.827 36.0258 72.6675 34.8155C73.0697 34.1434 73.3434 33.4024 73.4744 32.6302C73.564 32.2267 73.6425 31.9914 73.8442 31.9914C74.0459 31.9914 74.1692 32.1483 74.1692 32.9103C74.0359 34.4775 73.7659 36.0299 73.3623 37.55C73.1158 38.525 73.0709 38.6034 72.152 38.6034C65.4278 38.6034 58.6365 38.4017 51.5761 38.4017C51.0942 38.4017 50.8477 38.4017 50.8477 38.0767C50.8477 37.7517 50.9261 37.6733 51.408 36.956C57.4261 27.8784 63.5115 18.812 69.1261 9.68964H60.3623C58.3115 9.68964 55.8796 9.81292 54.5571 10.4965C53.9724 10.8295 53.4682 11.2873 53.0807 11.8375C52.6933 12.3876 52.4321 13.0165 52.3158 13.6793C52.2373 14.2845 52.0692 14.4077 51.8675 14.4077C51.6658 14.4077 51.6321 14.206 51.6321 13.881C51.6321 13.556 52.2373 9.73447 52.439 8.52413C52.5175 7.95258 52.5959 7.75085 52.8425 7.75085C53.3978 7.89114 53.9637 7.98485 54.5347 8.03103C58.3675 8.19913 60.3063 8.1543 61.5502 8.1543H72.7571C73.3623 8.1543 73.564 8.23275 73.564 8.4793C73.5693 8.56676 73.5572 8.6544 73.5283 8.73713C73.4995 8.81985 73.4544 8.89602 73.3959 8.9612C67.5459 18.2069 61.4606 27.5086 55.3304 36.7879H66.302Z" fill="#0B87CD"/>
<path d="M85.7789 28.6741C85.5771 28.6741 85.4651 28.7974 85.3754 28.9991L83.6047 34.0422C83.2388 34.9603 83.0085 35.9268 82.9211 36.9112C82.9211 37.6396 83.3582 37.9534 84.2547 37.9534H84.5685C84.9271 37.9534 85.0504 38.0767 85.0504 38.2448C85.0504 38.4129 84.7254 38.525 84.4452 38.525C83.5599 38.525 81.6995 38.4017 81.2625 38.4017C80.8254 38.4017 79.0211 38.525 77.3849 38.525C76.9478 38.525 76.7461 38.4465 76.7461 38.2448C76.7461 38.0431 76.903 37.9534 77.228 37.9534C77.4967 37.9692 77.7661 37.9692 78.0349 37.9534C79.772 37.7853 80.4556 36.4629 81.1392 34.7595L89.2082 13.4664C89.6452 12.3457 89.7685 12.0991 90.0487 12.0991C90.3289 12.0991 90.4185 12.256 90.8556 13.3879C91.3935 14.7215 96.8961 28.7974 99.0142 33.8965C100.348 37.0905 101.513 37.606 102.085 37.8078C102.525 37.9578 102.988 38.0262 103.452 38.0095C103.732 38.0095 103.934 38.0991 103.934 38.3009C103.934 38.5026 103.777 38.581 103.329 38.581C102.881 38.581 99.8995 38.581 97.1987 38.5026C96.4366 38.5026 96.1901 38.4129 96.1901 38.2112C96.1901 38.0095 96.3133 37.9759 96.4702 37.931C96.6271 37.8862 96.8737 37.6509 96.6383 37.0457L93.4444 28.9319C93.4147 28.8735 93.37 28.824 93.3148 28.7886C93.2597 28.7531 93.1961 28.733 93.1306 28.7302L85.7789 28.6741ZM92.6375 27.2621C92.8056 27.2621 92.8056 27.15 92.7608 27.0267L89.578 18.0612C89.3763 17.5008 89.3314 17.5008 89.1297 18.0612L86.1039 27.0267C86.0254 27.1836 86.1039 27.2621 86.1823 27.2621H92.6375Z" fill="#0B87CD"/>
<path d="M108.901 22.5104C108.901 17.1871 108.901 16.2121 108.823 15.1251C108.744 14.038 108.464 13.4328 107.209 13.1863C106.89 13.1407 106.568 13.1145 106.245 13.1078C105.965 13.1078 105.797 13.0294 105.797 12.8613C105.797 12.6932 105.92 12.5811 106.279 12.5811C108.016 12.5811 110.481 12.7044 110.56 12.7044C110.918 12.7044 113.709 12.6035 114.83 12.6035C117.139 12.4311 119.445 12.9667 121.441 14.1389C122.187 14.717 122.787 15.4604 123.195 16.3103C123.604 17.1602 123.809 18.0934 123.795 19.0363C123.795 21.2776 122.674 24.0794 119.525 26.6569C122.461 30.288 124.882 33.2802 126.944 35.4207C129.006 37.5613 130.093 37.7182 131.214 37.875C131.505 37.875 132.334 37.9535 132.469 37.9535C132.794 37.9535 132.917 38.0768 132.917 38.2449C132.917 38.413 132.749 38.525 132.189 38.525H129.398C128.153 38.6167 126.902 38.4528 125.722 38.0432C124.03 37.3147 122.82 35.4992 120.724 32.7983C119.155 30.8595 117.541 28.6742 116.847 27.8337C116.795 27.7544 116.723 27.6901 116.638 27.6469C116.554 27.6037 116.46 27.5831 116.365 27.5871H112.207C112.05 27.5871 112.005 27.5871 112.005 27.7888V28.2932C111.944 30.8352 112.012 33.3786 112.207 35.9138C112.33 36.8888 112.454 37.6957 113.787 37.8526C114.159 37.897 114.533 37.9232 114.908 37.9311C115.278 37.9311 115.435 38.0544 115.435 38.1776C115.435 38.3009 115.278 38.5026 114.874 38.5026C112.768 38.5026 110.515 38.3794 110.392 38.3794C109.753 38.3794 107.971 38.5026 106.884 38.5026C106.48 38.5026 106.324 38.4242 106.324 38.1776C106.324 37.9311 106.559 37.9311 106.805 37.9311C107.103 37.9421 107.4 37.9157 107.691 37.8526C108.374 37.7294 108.621 37.2923 108.744 36.3173C108.946 34.8716 108.901 31.5656 108.901 28.5397V22.5104ZM112.005 25.3682C111.992 25.4593 112.004 25.5523 112.039 25.6372C112.075 25.7222 112.133 25.7958 112.207 25.85C113.365 26.2406 114.584 26.4191 115.805 26.3768C116.745 26.451 117.687 26.2402 118.505 25.7716C119.715 25.0095 120.522 23.2388 120.522 20.6501C120.522 16.257 118.18 13.8363 114.594 13.8363C113.808 13.8173 113.023 13.8849 112.252 14.038C112.177 14.0625 112.113 14.1108 112.068 14.1756C112.024 14.2404 112.002 14.3181 112.005 14.3966V25.3682Z" fill="#0B87CD"/>
<path d="M166.716 33.3138C166.873 34.7707 167.153 37.0345 168.89 37.5948C169.699 37.8432 170.543 37.9641 171.389 37.9534C171.591 37.9534 171.838 37.9534 171.838 38.2C171.838 38.4465 171.714 38.525 171.233 38.525C170.347 38.525 165.741 38.4017 164.251 38.2784C163.32 38.2 163.13 38.0767 163.13 37.875C163.13 37.6733 163.22 37.6733 163.421 37.5948C163.623 37.5164 163.657 36.8664 163.578 36.1379L161.628 15.0802L151.62 36.306C150.78 38.0767 150.657 38.4465 150.298 38.4465C149.939 38.4465 149.805 38.0431 149.043 36.5862C147.989 34.6138 144.56 27.6207 144.325 27.2284C143.966 26.5 139.327 16.5371 138.878 15.45L137.22 34.5017C137.22 35.1517 137.141 35.7121 137.141 36.3957C137.141 37.4043 137.623 37.7293 138.262 37.8526C138.739 37.9616 139.229 38.0143 139.719 38.0095C139.965 38.0095 140.122 38.0991 140.122 38.2112C140.122 38.5026 139.92 38.581 139.517 38.581C138.027 38.581 135.964 38.4578 135.639 38.4578C135.314 38.4578 133.342 38.581 132.277 38.581C131.874 38.581 131.594 38.581 131.594 38.256C131.594 37.931 131.795 38.0095 131.997 38.0095C132.403 38.0161 132.81 37.9785 133.208 37.8974C134.541 37.6509 134.62 36.194 134.821 34.5353L137.724 8.31122C137.724 7.86295 137.926 7.50432 138.172 7.50432C138.419 7.50432 138.576 7.66122 138.777 8.1095L151.105 33.4819L162.917 8.1207C163.085 7.75088 163.242 7.4707 163.522 7.4707C163.802 7.4707 163.926 7.7957 164.015 8.59139L166.716 33.3138Z" fill="#0B87CD"/>
<path d="M174.461 25.4914C174.488 23.6785 174.877 21.8893 175.605 20.229C176.334 18.5687 177.387 17.0706 178.703 15.823C180.017 14.5753 181.569 13.6032 183.266 12.9637C184.963 12.3242 186.769 12.0303 188.582 12.0992C196.572 12.0992 202.657 16.8621 202.657 24.9647C202.657 32.675 196.976 38.9621 188.38 38.9621C178.495 38.9621 174.461 31.6552 174.461 25.4914ZM198.87 25.9733C198.87 17.8707 193.871 13.3544 188.335 13.3544C182.799 13.3544 178.249 16.8173 178.249 24.438C178.249 32.35 182.642 37.5949 189.456 37.5949C192.089 37.5949 198.881 36.2276 198.881 25.9733H198.87Z" fill="#0B87CD"/>
<path d="M210.086 13.7242C210.086 12.469 210.209 12.0656 210.534 12.0656C210.859 12.0656 211.498 12.8724 211.778 13.1862C212.059 13.5 217.752 19.3164 223.4 25.088C226.549 28.1587 230.584 32.3052 231.626 33.2802L231.189 16.4699C231.189 14.2957 230.897 13.5673 229.81 13.2871C229.293 13.1922 228.768 13.1397 228.241 13.1302C227.838 13.1302 227.759 12.9621 227.759 12.8052C227.759 12.6483 228.073 12.5587 228.477 12.5587C230.214 12.5587 231.906 12.6819 232.276 12.6819C232.646 12.6819 233.923 12.6035 235.503 12.6035C235.94 12.6035 236.064 12.6035 236.064 12.85C236.064 13.0966 235.94 13.1302 235.705 13.175C235.47 13.2199 235.134 13.175 234.697 13.2871C233.766 13.4888 233.486 13.8923 233.486 16.313L233.408 36.5638C233.408 38.5811 233.318 38.8052 233.038 38.8052C232.758 38.8052 232.354 38.525 230.382 36.6759C230.214 36.5863 224.61 31.0725 221.103 27.5983L211.857 17.994L212.384 33.7621C212.462 36.5526 212.709 37.5949 213.717 37.8414C214.262 37.9575 214.819 38.0102 215.376 37.9983C215.69 37.9983 215.858 38.1216 215.858 38.2897C215.858 38.4578 215.656 38.5699 215.208 38.5699C213.034 38.5699 211.577 38.4466 211.297 38.4466C211.016 38.4466 209.526 38.5699 207.789 38.5699C207.419 38.5699 207.184 38.5699 207.184 38.2897C207.184 38.0095 207.34 37.9983 207.744 37.9983C208.168 38.01 208.591 37.9571 208.999 37.8414C209.884 37.5613 210.12 36.4742 210.12 33.5268C210.086 14.2397 210.086 20.4483 210.086 13.7242Z" fill="#0B87CD"/>
<path d="M245.014 22.5103C245.014 17.2207 245.014 16.2569 244.936 15.1698C244.858 14.0827 244.577 13.4664 243.412 13.231C243.09 13.1794 242.764 13.1532 242.437 13.1526C242.157 13.1526 241.91 13.0293 241.91 12.906C241.91 12.7827 242.112 12.581 242.515 12.581C243.322 12.581 244.409 12.6595 246.673 12.7043C246.875 12.7043 254.058 12.7043 254.865 12.7043C255.395 12.7157 255.924 12.6477 256.434 12.5026C256.575 12.4373 256.728 12.3993 256.883 12.3905C256.961 12.3905 257.039 12.469 257.039 12.6707C257.039 12.8724 256.804 13.4776 256.714 14.4862C256.714 15.1698 256.636 15.8198 256.602 16.5819C256.602 16.9405 256.513 17.1871 256.311 17.1871C256.109 17.1871 256.031 17.0302 256.031 16.7388C256.017 16.2957 255.922 15.8589 255.751 15.45C255.504 14.6431 255.146 14.3293 253.128 14.2396C252.602 14.2396 248.646 14.1612 248.533 14.1612C248.421 14.1612 248.332 14.2396 248.332 14.4862V23.6422C248.332 23.8888 248.332 24.0457 248.567 24.0457C249.049 24.0457 253.173 24.0457 254.014 23.9224C254.854 23.7991 255.549 23.7655 255.874 23.3172C256.031 23.0707 256.154 22.9922 256.311 22.9922C256.468 22.9922 256.479 22.9922 256.479 23.2388C256.479 23.4853 256.311 24.2026 256.199 25.3793C256.087 26.556 256.076 27.3069 256.031 27.8336C256.031 28.1586 255.908 28.2819 255.751 28.2819C255.594 28.2819 255.504 28.0353 255.504 27.7552C255.502 27.4308 255.465 27.1076 255.392 26.7914C255.224 26.2646 254.989 25.6707 253.453 25.581C252.523 25.4914 249.251 25.4129 248.612 25.4129C248.365 25.4129 248.332 25.5362 248.332 25.6931V28.6405C248.332 29.8957 248.332 33.4483 248.332 34.1319C248.41 35.6224 248.612 36.3733 249.452 36.7543C250.403 37.0628 251.404 37.1846 252.4 37.1129C253.43 37.1656 254.462 37.0865 255.47 36.8776C256.681 36.5077 256.961 35.7008 257.286 34.2103C257.364 33.8069 257.488 33.65 257.645 33.65C257.802 33.65 257.891 34.0086 257.891 34.2552C257.891 34.5017 257.566 37.0793 257.443 37.7629C257.32 38.4465 257.006 38.6483 255.672 38.6483C253.005 38.6483 251.873 38.5698 250.461 38.5698C249.049 38.5698 247.2 38.4465 245.709 38.4465C244.779 38.4465 244.017 38.5698 243.042 38.5698C242.683 38.5698 242.482 38.4914 242.482 38.2896C242.486 38.2468 242.499 38.2054 242.52 38.1675C242.54 38.1296 242.567 38.0962 242.601 38.0691C242.634 38.042 242.672 38.0218 242.714 38.0097C242.755 37.9975 242.798 37.9936 242.84 37.9983C243.114 37.9973 243.385 37.9596 243.647 37.8862C244.376 37.7181 244.858 37.1914 244.936 34.6922C244.936 33.325 245.014 31.6664 245.014 28.6069V22.5103Z" fill="#0B87CD"/>
<path d="M271.535 29.7275C271.621 28.4347 271.296 27.1476 270.605 26.0517C270.358 25.6034 265.674 17.9827 264.43 16.2456C263.894 15.3036 263.214 14.4525 262.413 13.7241C261.858 13.3358 261.194 13.1355 260.519 13.1525C260.272 13.1525 260.07 13.0293 260.07 12.8275C260.07 12.6258 260.238 12.6034 260.519 12.6034C261.157 12.6034 264.228 12.7267 264.307 12.7267C264.553 12.7267 265.875 12.6034 267.377 12.6034C267.769 12.6034 267.893 12.7267 267.893 12.8499C267.893 12.9732 267.769 13.0853 267.456 13.1749C266.884 13.287 266.806 13.4887 266.806 13.8137C266.877 14.2926 267.057 14.7487 267.332 15.1474C267.859 16.156 273.182 24.7068 273.788 25.7155C274.426 24.3034 278.954 16.918 279.514 15.9094C280.276 14.587 280.444 14.2172 280.444 13.7801C280.444 13.343 279.963 13.2534 279.514 13.1749C279.066 13.0965 279.066 13.0068 279.066 12.8499C279.066 12.693 279.2 12.6034 279.57 12.6034C280.534 12.6034 281.386 12.7267 282.025 12.7267C282.663 12.7267 284.927 12.6034 285.611 12.6034C285.969 12.6034 286.093 12.7267 286.093 12.8499C286.093 12.9732 285.891 13.1749 285.611 13.1749C284.9 13.1328 284.195 13.313 283.594 13.6905C282.991 14.1379 282.483 14.7019 282.103 15.3491C279.586 18.9389 277.295 22.6818 275.244 26.556C274.885 27.5763 274.748 28.6612 274.841 29.7387V32.6862C274.841 32.9663 274.841 34.4568 274.919 35.9137C274.998 36.8775 275.076 37.5612 276.332 37.8077C276.821 37.9089 277.321 37.9613 277.822 37.9646C278.147 37.9646 278.27 38.0879 278.27 38.2112C278.27 38.3344 278.147 38.5362 277.788 38.5362C275.771 38.5362 273.306 38.4129 273.149 38.4129C272.992 38.4129 270.65 38.5362 269.518 38.5362C269.114 38.5362 268.946 38.4129 268.946 38.2112C268.946 38.0094 269.069 37.9646 269.35 37.9646C269.688 37.9667 270.027 37.9291 270.358 37.8525C271.042 37.7293 271.333 36.8775 271.412 35.9137C271.535 34.4568 271.535 33.0112 271.535 32.6862V29.7275Z" fill="#0B87CD"/>
<path d="M36.3793 7H5V38.3793H36.3793V7Z" fill="#0B87CD"/>
<path d="M287.162 11.0345V8.20436H286.105V7.82568H288.649V8.20436H287.587V11.0345H287.162ZM289.073 11.0345V7.82568H289.713L290.473 10.0977C290.542 10.3093 290.594 10.4676 290.625 10.5727C290.662 10.4559 290.719 10.2845 290.797 10.0583L291.564 7.82568H292.136V11.0345H291.727V8.34882L290.794 11.0345H290.411L289.483 8.30286V11.0345H289.073Z" fill="#0B87CD"/>
</svg>
