<svg width="257" height="29" viewBox="0 0 257 29" fill="none" xmlns="http://www.w3.org/2000/svg">
<g clip-path="url(#clip0)">
<path d="M54.7002 26.58C58.4802 26.58 59.6302 25.9 60.3802 24.82C60.7391 24.2203 60.9833 23.5591 61.1002 22.87C61.1802 22.51 61.2502 22.3 61.4302 22.3C61.6102 22.3 61.7202 22.44 61.7202 23.12C61.6012 24.5184 61.3603 25.9036 61.0002 27.26C60.7802 28.13 60.7402 28.2 59.9202 28.2C53.9202 28.2 47.8602 28.02 41.5602 28.02C41.1302 28.02 40.9102 28.02 40.9102 27.73C40.9102 27.44 40.9802 27.37 41.4102 26.73C46.7802 18.63 52.2102 10.54 57.2202 2.40001H49.4002C47.5702 2.40001 45.4002 2.51001 44.2202 3.12001C43.6984 3.41707 43.2485 3.82563 42.9028 4.31654C42.5571 4.80746 42.324 5.36863 42.2202 5.96001C42.1502 6.50001 42.0002 6.61001 41.8202 6.61001C41.6402 6.61001 41.6102 6.43001 41.6102 6.14001C41.6102 5.85001 42.1502 2.44001 42.3302 1.36001C42.4002 0.850013 42.4702 0.670013 42.6902 0.670013C43.1857 0.795189 43.6907 0.878812 44.2002 0.920013C47.6202 1.07001 49.3502 1.03001 50.4602 1.03001H60.4602C61.0002 1.03001 61.1802 1.10001 61.1802 1.32001C61.1849 1.39805 61.1741 1.47625 61.1483 1.55007C61.1226 1.62389 61.0824 1.69185 61.0302 1.75001C55.8102 10 50.3802 18.3 44.9102 26.58H54.7002Z" fill="#0B87CD"/>
<path d="M72.0795 19.34C71.8995 19.34 71.7995 19.45 71.7195 19.63L70.1395 24.13C69.813 24.9492 69.6075 25.8116 69.5295 26.69C69.5295 27.34 69.9195 27.62 70.7195 27.62H70.9995C71.3195 27.62 71.4295 27.73 71.4295 27.88C71.4295 28.03 71.1395 28.13 70.8895 28.13C70.0995 28.13 68.4395 28.02 68.0495 28.02C67.6595 28.02 66.0495 28.13 64.5895 28.13C64.1995 28.13 64.0195 28.06 64.0195 27.88C64.0195 27.7 64.1595 27.62 64.4495 27.62C64.6893 27.6341 64.9297 27.6341 65.1695 27.62C66.7195 27.47 67.3295 26.29 67.9395 24.77L75.1395 5.76999C75.5295 4.76999 75.6395 4.54999 75.8895 4.54999C76.1395 4.54999 76.2195 4.68999 76.6095 5.69999C77.0895 6.88999 81.9995 19.45 83.8895 24C85.0795 26.85 86.1195 27.31 86.6295 27.49C87.0218 27.6239 87.4353 27.6849 87.8495 27.67C88.0995 27.67 88.2795 27.75 88.2795 27.93C88.2795 28.11 88.1395 28.18 87.7395 28.18C87.3395 28.18 84.6795 28.18 82.2695 28.11C81.5895 28.11 81.3695 28.03 81.3695 27.85C81.3695 27.67 81.4795 27.64 81.6195 27.6C81.7595 27.56 81.9795 27.35 81.7695 26.81L78.9195 19.57C78.893 19.5179 78.8531 19.4737 78.8039 19.4421C78.7547 19.4105 78.698 19.3925 78.6395 19.39L72.0795 19.34ZM78.1995 18.08C78.3495 18.08 78.3495 17.98 78.3095 17.87L75.4695 9.86999C75.2895 9.36999 75.2495 9.36999 75.0695 9.86999L72.3695 17.87C72.2995 18.01 72.3695 18.08 72.4395 18.08H78.1995Z" fill="#0B87CD"/>
<path d="M92.7114 13.84C92.7114 9.09001 92.7114 8.22001 92.6414 7.25001C92.5714 6.28001 92.3214 5.74001 91.2014 5.52001C90.9164 5.47933 90.6292 5.45596 90.3414 5.45001C90.0914 5.45001 89.9414 5.38001 89.9414 5.23001C89.9414 5.08001 90.0514 4.98001 90.3714 4.98001C91.9214 4.98001 94.1214 5.09001 94.1914 5.09001C94.5114 5.09001 97.0014 5.00001 98.0014 5.00001C100.062 4.84619 102.12 5.3241 103.901 6.37001C104.566 6.88591 105.102 7.54923 105.466 8.30761C105.831 9.06599 106.014 9.89869 106.001 10.74C106.001 12.74 105.001 15.24 102.191 17.54C104.811 20.78 106.971 23.45 108.811 25.36C110.651 27.27 111.621 27.41 112.621 27.55C112.881 27.55 113.621 27.62 113.741 27.62C114.031 27.62 114.141 27.73 114.141 27.88C114.141 28.03 113.991 28.13 113.491 28.13H111.001C109.89 28.2118 108.774 28.0655 107.721 27.7C106.211 27.05 105.131 25.43 103.261 23.02C101.861 21.29 100.421 19.34 99.8014 18.59C99.7548 18.5193 99.6908 18.4619 99.6154 18.4233C99.54 18.3848 99.456 18.3664 99.3714 18.37H95.6614C95.5214 18.37 95.4814 18.37 95.4814 18.55V19C95.4269 21.2683 95.487 23.5378 95.6614 25.8C95.7714 26.67 95.8814 27.39 97.0714 27.53C97.4034 27.5696 97.7371 27.593 98.0714 27.6C98.4014 27.6 98.5414 27.71 98.5414 27.82C98.5414 27.93 98.4014 28.11 98.0414 28.11C96.1614 28.11 94.1514 28 94.0414 28C93.4714 28 91.8814 28.11 90.9114 28.11C90.5514 28.11 90.4114 28.04 90.4114 27.82C90.4114 27.6 90.6214 27.6 90.8414 27.6C91.1066 27.6098 91.372 27.5863 91.6314 27.53C92.2414 27.42 92.4614 27.03 92.5714 26.16C92.7514 24.87 92.7114 21.92 92.7114 19.22V13.84ZM95.4814 16.39C95.4693 16.4713 95.4797 16.5543 95.5114 16.6301C95.5431 16.7059 95.595 16.7716 95.6614 16.82C96.6944 17.1685 97.7818 17.3278 98.8714 17.29C99.7107 17.3562 100.551 17.1681 101.281 16.75C102.361 16.07 103.081 14.49 103.081 12.18C103.081 8.26001 100.991 6.10001 97.7914 6.10001C97.0902 6.08308 96.3893 6.14344 95.7014 6.28001C95.6347 6.30185 95.5771 6.345 95.5373 6.40282C95.4976 6.46064 95.4779 6.52992 95.4814 6.60001V16.39Z" fill="#0B87CD"/>
<path d="M144.301 23.48C144.441 24.78 144.691 26.8 146.241 27.3C146.963 27.5216 147.716 27.6295 148.471 27.62C148.651 27.62 148.871 27.62 148.871 27.84C148.871 28.06 148.761 28.13 148.331 28.13C147.541 28.13 143.431 28.02 142.101 27.91C141.271 27.84 141.101 27.73 141.101 27.55C141.101 27.37 141.181 27.37 141.361 27.3C141.541 27.23 141.571 26.65 141.501 26L139.761 7.21001L130.831 26.15C130.081 27.73 129.971 28.06 129.651 28.06C129.331 28.06 129.211 27.7 128.531 26.4C127.591 24.64 124.531 18.4 124.321 18.05C124.001 17.4 119.861 8.51001 119.461 7.54001L117.981 24.54C117.981 25.12 117.911 25.62 117.911 26.23C117.911 27.13 118.341 27.42 118.911 27.53C119.337 27.6273 119.774 27.6743 120.211 27.67C120.431 27.67 120.571 27.75 120.571 27.85C120.571 28.11 120.391 28.18 120.031 28.18C118.701 28.18 116.861 28.07 116.571 28.07C116.281 28.07 114.521 28.18 113.571 28.18C113.211 28.18 112.961 28.18 112.961 27.89C112.961 27.6 113.141 27.67 113.321 27.67C113.683 27.6759 114.046 27.6424 114.401 27.57C115.591 27.35 115.661 26.05 115.841 24.57L118.431 1.17001C118.431 0.770014 118.611 0.450014 118.831 0.450014C119.051 0.450014 119.191 0.590013 119.371 0.990013L130.371 23.63L140.911 1.00001C141.061 0.670013 141.201 0.420013 141.451 0.420013C141.701 0.420013 141.811 0.710014 141.891 1.42001L144.301 23.48Z" fill="#0B87CD"/>
<path d="M151.211 16.5C151.235 14.8823 151.582 13.2858 152.232 11.8043C152.882 10.3228 153.822 8.98606 154.996 7.87276C156.169 6.75946 157.554 5.89201 159.068 5.3214C160.582 4.75079 162.194 4.48852 163.811 4.55C170.941 4.55 176.371 8.8 176.371 16.03C176.371 22.91 171.301 28.52 163.631 28.52C154.811 28.52 151.211 22 151.211 16.5ZM172.991 16.93C172.991 9.7 168.531 5.67 163.591 5.67C158.651 5.67 154.591 8.76 154.591 15.56C154.591 22.62 158.511 27.3 164.591 27.3C166.941 27.3 173.001 26.08 173.001 16.93H172.991Z" fill="#0B87CD"/>
<path d="M183 5.99999C183 4.87999 183.11 4.51999 183.4 4.51999C183.69 4.51999 184.26 5.23999 184.51 5.51999C184.76 5.79999 189.84 10.99 194.88 16.14C197.69 18.88 201.29 22.58 202.22 23.45L201.83 8.44999C201.83 6.50999 201.57 5.85999 200.6 5.60999C200.138 5.5253 199.67 5.47847 199.2 5.46999C198.84 5.46999 198.77 5.31999 198.77 5.17999C198.77 5.03999 199.05 4.95999 199.41 4.95999C200.96 4.95999 202.47 5.06999 202.8 5.06999C203.13 5.06999 204.27 4.99999 205.68 4.99999C206.07 4.99999 206.18 4.99999 206.18 5.21999C206.18 5.43999 206.07 5.46999 205.86 5.50999C205.65 5.54999 205.35 5.50999 204.96 5.60999C204.13 5.78999 203.88 6.14999 203.88 8.30999L203.81 26.38C203.81 28.18 203.73 28.38 203.48 28.38C203.23 28.38 202.87 28.13 201.11 26.48C200.96 26.4 195.96 21.48 192.83 18.38L184.58 9.80999L185.05 23.88C185.12 26.37 185.34 27.3 186.24 27.52C186.726 27.6236 187.223 27.6706 187.72 27.66C188 27.66 188.15 27.77 188.15 27.92C188.15 28.07 187.97 28.17 187.57 28.17C185.63 28.17 184.33 28.06 184.08 28.06C183.83 28.06 182.5 28.17 180.95 28.17C180.62 28.17 180.41 28.17 180.41 27.92C180.41 27.67 180.55 27.66 180.91 27.66C181.288 27.6704 181.666 27.6232 182.03 27.52C182.82 27.27 183.03 26.3 183.03 23.67C183 6.45999 183 12 183 5.99999Z" fill="#0B87CD"/>
<path d="M214.168 13.84C214.168 9.12 214.168 8.26 214.098 7.29C214.028 6.32 213.778 5.77 212.738 5.56C212.451 5.51394 212.16 5.49054 211.868 5.49C211.618 5.49 211.398 5.38 211.398 5.27C211.398 5.16 211.578 4.98 211.938 4.98C212.658 4.98 213.628 5.05 215.648 5.09C215.828 5.09 222.238 5.09 222.958 5.09C223.431 5.10021 223.903 5.03953 224.358 4.91C224.484 4.85175 224.62 4.81782 224.758 4.81C224.828 4.81 224.898 4.88 224.898 5.06C224.898 5.24 224.688 5.78 224.608 6.68C224.608 7.29 224.538 7.87 224.508 8.55C224.508 8.87 224.428 9.09 224.248 9.09C224.068 9.09 223.998 8.95 223.998 8.69C223.986 8.29462 223.901 7.90486 223.748 7.54C223.528 6.82 223.208 6.54 221.408 6.46C220.938 6.46 217.408 6.39 217.308 6.39C217.208 6.39 217.128 6.46 217.128 6.68V14.85C217.128 15.07 217.128 15.21 217.338 15.21C217.768 15.21 221.448 15.21 222.198 15.1C222.948 14.99 223.568 14.96 223.858 14.56C223.998 14.34 224.108 14.27 224.248 14.27C224.388 14.27 224.398 14.27 224.398 14.49C224.398 14.71 224.248 15.35 224.148 16.4C224.048 17.45 224.038 18.12 223.998 18.59C223.998 18.88 223.888 18.99 223.748 18.99C223.608 18.99 223.528 18.77 223.528 18.52C223.526 18.2306 223.493 17.9422 223.428 17.66C223.278 17.19 223.068 16.66 221.698 16.58C220.868 16.5 217.948 16.43 217.378 16.43C217.158 16.43 217.128 16.54 217.128 16.68V19.31C217.128 20.43 217.128 23.6 217.128 24.21C217.198 25.54 217.378 26.21 218.128 26.55C218.976 26.8253 219.869 26.934 220.758 26.87C221.677 26.917 222.598 26.8464 223.498 26.66C224.578 26.33 224.828 25.61 225.118 24.28C225.188 23.92 225.298 23.78 225.438 23.78C225.578 23.78 225.658 24.1 225.658 24.32C225.658 24.54 225.368 26.84 225.258 27.45C225.148 28.06 224.868 28.24 223.678 28.24C221.298 28.24 220.288 28.17 219.028 28.17C217.768 28.17 216.118 28.06 214.788 28.06C213.958 28.06 213.278 28.17 212.408 28.17C212.088 28.17 211.908 28.1 211.908 27.92C211.912 27.8818 211.923 27.8448 211.942 27.811C211.96 27.7772 211.984 27.7474 212.014 27.7232C212.044 27.699 212.078 27.681 212.115 27.6702C212.152 27.6593 212.19 27.6558 212.228 27.66C212.472 27.6591 212.714 27.6255 212.948 27.56C213.598 27.41 214.028 26.94 214.098 24.71C214.098 23.49 214.168 22.01 214.168 19.28V13.84Z" fill="#0B87CD"/>
<path d="M237.832 20.28C237.909 19.1264 237.619 17.9779 237.002 17C236.782 16.6 232.602 9.8 231.492 8.25C231.014 7.40945 230.407 6.65 229.692 6C229.197 5.65352 228.605 5.47476 228.002 5.49C227.782 5.49 227.602 5.38 227.602 5.2C227.602 5.02 227.752 5 228.002 5C228.572 5 231.312 5.11 231.382 5.11C231.602 5.11 232.782 5 234.122 5C234.472 5 234.582 5.11 234.582 5.22C234.582 5.33 234.472 5.43 234.192 5.51C233.682 5.61 233.612 5.79 233.612 6.08C233.676 6.50725 233.836 6.91425 234.082 7.27C234.552 8.17 239.302 15.8 239.842 16.7C240.412 15.44 244.452 8.85 244.952 7.95C245.632 6.77 245.782 6.44 245.782 6.05C245.782 5.66 245.352 5.58 244.952 5.51C244.552 5.44 244.552 5.36 244.552 5.22C244.552 5.08 244.672 5 245.002 5C245.862 5 246.622 5.11 247.192 5.11C247.762 5.11 249.782 5 250.392 5C250.712 5 250.822 5.11 250.822 5.22C250.822 5.33 250.642 5.51 250.392 5.51C249.758 5.47242 249.129 5.63321 248.592 5.97C248.054 6.36925 247.601 6.87254 247.262 7.45C245.016 10.6532 242.972 13.993 241.142 17.45C240.821 18.3604 240.699 19.3285 240.782 20.29V22.92C240.782 23.17 240.782 24.5 240.852 25.8C240.922 26.66 240.992 27.27 242.112 27.49C242.549 27.5803 242.995 27.6271 243.442 27.63C243.732 27.63 243.842 27.74 243.842 27.85C243.842 27.96 243.732 28.14 243.412 28.14C241.612 28.14 239.412 28.03 239.272 28.03C239.132 28.03 237.042 28.14 236.032 28.14C235.672 28.14 235.522 28.03 235.522 27.85C235.522 27.67 235.632 27.63 235.882 27.63C236.184 27.6319 236.486 27.5983 236.782 27.53C237.392 27.42 237.652 26.66 237.722 25.8C237.832 24.5 237.832 23.21 237.832 22.92V20.28Z" fill="#0B87CD"/>
<path d="M28 0H0V28H28V0Z" fill="#0B87CD"/>
<path d="M251.775 3.60001V1.07462H250.832V0.736725H253.102V1.07462H252.154V3.60001H251.775ZM253.48 3.60001V0.736725H254.051L254.729 2.76407C254.791 2.95287 254.837 3.09415 254.865 3.1879C254.898 3.08373 254.949 2.93074 255.018 2.72891L255.703 0.736725H256.213V3.60001H255.848V1.20352L255.016 3.60001H254.674L253.846 1.16251V3.60001H253.48Z" fill="#0B87CD"/>
</g>
<defs>
<clipPath id="clip0">
<rect width="256.51" height="28.52" fill="white"/>
</clipPath>
</defs>
</svg>
