<svg width="512" height="177" viewBox="0 0 512 177" fill="none" xmlns="http://www.w3.org/2000/svg">
<path d="M511.999 37.7V159.1L495.199 175.5V56.7L511.999 37.7Z" fill="#E79225"/>
<path d="M401.9 37.8L384.5 56.7L385.4 57.9L494.5 57.5L495.5 56.7L512 37.7L401.9 37.8Z" fill="#FFF16D"/>
<path fill-rule="evenodd" clip-rule="evenodd" d="M384.5 56.7H495.5V175.6H384.5V56.7ZM468.801 84.7C473.101 89 476.401 94 478.601 99.5C480.801 105 481.901 111 481.901 117.7C481.901 124.1 480.801 130.2 478.601 135.7C476.401 141.2 473.101 146.2 468.801 150.6C464.701 154.7 460.001 157.8 454.901 159.9C449.801 162 444.301 163.1 438.401 163.1C432.301 163.1 426.601 162 421.501 159.9C416.401 157.8 411.801 154.7 407.801 150.6C403.501 146.2 400.301 141.2 398.101 135.6C395.901 130 394.801 124 394.801 117.6C394.801 111 395.801 105 398.001 99.5C400.201 94 403.401 89 407.701 84.7C411.801 80.5 416.401 77.3 421.601 75.2C426.701 73.1 432.301 72 438.301 72C444.301 72 449.801 73.1 454.901 75.2C460.101 77.3 464.701 80.5 468.801 84.7ZM438.301 146.4C445.701 146.4 451.401 143.8 455.701 138.7C460.001 133.6 462.101 126.5 462.101 117.5C462.101 108.3 459.901 101.2 455.701 96C451.401 90.9 445.701 88.3 438.301 88.3C430.801 88.3 425.101 90.8 420.801 96C416.601 101.2 414.401 108.3 414.401 117.5C414.401 126.5 416.501 133.6 420.801 138.7C425.101 143.8 430.901 146.4 438.301 146.4Z" fill="url(#paint0_linear)"/>
<path d="M373.601 27.8V28.4L387.801 137.5L379.501 160.5L378.401 159.7L363.801 55.1L364.101 53.7L373.201 28.4L373.601 27.8Z" fill="#009ADA"/>
<path d="M264.302 43L373.602 27.8L364.402 54L363.102 55.4L260.902 70.4L261.402 51.7L264.302 43Z" fill="#91C9ED"/>
<path fill-rule="evenodd" clip-rule="evenodd" d="M379.501 160.5L364.401 54L263.601 67.8L257.301 72.7L271.801 175.6L379.501 160.5ZM342.702 66.9C344.502 68.6 345.602 71.1 346.102 74.4L356.902 146.7C357.002 147.6 357.102 148.5 357.102 149.3C357.102 151.5 356.602 153.3 355.702 154.8C354.402 156.9 352.302 158.2 349.502 158.6C348.902 158.7 348.302 158.7 347.802 158.7H347.802C345.702 158.7 343.902 158 342.402 156.7C340.502 155.1 339.402 152.6 338.902 149.3L334.602 120.8L303.602 125.4L307.902 153.9C308.002 154.8 308.102 155.7 308.102 156.5C308.102 158.6 307.702 160.4 306.802 161.9C305.502 164 303.502 165.3 300.802 165.7C300.202 165.8 299.602 165.8 299.002 165.8C296.802 165.8 295.002 165.2 293.502 163.9C291.502 162.2 290.402 159.7 289.902 156.4L279.302 84.3C279.291 84.199 279.281 84.099 279.271 84C279.182 83.1192 279.102 82.3192 279.102 81.6C279.102 79.4 279.502 77.5 280.502 76C281.902 73.9 284.102 72.6 287.002 72.2C287.502 72.1 288.002 72.1 288.502 72.1C290.502 72.1 292.302 72.8 293.802 74.2C295.602 75.9 296.702 78.4 297.202 81.6L301.102 109.3L332.102 104.7L328.202 77C328.102 76.1 328.002 75.2 328.002 74.4C328.002 72.2 328.402 70.3 329.402 68.8C330.702 66.7 332.802 65.4 335.602 65C336.202 64.9 336.802 64.9 337.302 64.9C339.402 64.9 341.202 65.6 342.702 66.9Z" fill="url(#paint1_linear)"/>
<path d="M162.002 0L123.102 92.4L128.402 133L128.702 132.9L172.402 34.6L172.202 32.5L162.802 1.3L162.002 0Z" fill="#66BF6B"/>
<path d="M162 0L172.1 33.9L172.3 34.6L268.5 77.7L268.8 77.5L260.6 45.1L162 0Z" fill="#98D0A0"/>
<path fill-rule="evenodd" clip-rule="evenodd" d="M268.802 77.5L172.102 33.9L128.402 133L225.102 176.6L268.802 77.5ZM216.9 61.6C222.3 63.9 226.9 67.1 230.7 71.1C234.5 75.1 237.4 79.9 239.5 85.5C241.5 90.8 242.4 96.2 242.3 101.7V103.5C242 109.6 240.6 115.7 238 121.9C235.4 128.1 231.9 133.4 227.7 137.8C223.5 142.3 218.5 145.8 212.8 148.3C207.4 150.6 201.9 151.8 196.4 151.8H196.3C190.8 151.8 185.4 150.7 180.1 148.4C174.5 146.1 169.8 142.9 166 138.9C162.2 134.9 159.3 130.2 157.3 124.7C155.4 119.5 154.5 114.2 154.5 108.8V106.7C154.8 100.6 156.2 94.4 158.8 88.3C161.4 82.1 164.8 76.7 169 72.3C173.2 67.8 178.1 64.4 183.8 61.9C189.2 59.5 194.7 58.2 200.3 58.2H200.6C206.1 58.2 211.5 59.3 216.9 61.6ZM205.8 132C211.7 128.8 216.6 122.9 220.2 114.3C222.7 108.4 223.9 103 223.9 98C223.9 95.6 223.6 93.3 223 91.2C221.2 84.6 217 80 210.3 77.1C207.1 75.8 204.1 75.1 201.1 75.1C197.8 75.1 194.5 75.9 191.3 77.7C185.4 81 180.5 87 176.8 95.8C174.4 101.5 173.2 106.8 173.2 111.6C173.2 114 173.5 116.3 174.1 118.5C175.9 125.1 180.1 129.7 186.9 132.6C190 133.9 193.1 134.6 196 134.6C199.3 134.6 202.6 133.7 205.8 132Z" fill="url(#paint2_linear)"/>
<path d="M115.402 15.7L131.202 121.5L124.002 158.7L123.002 157.4L107.602 55.2V53.2L114.402 17.5L115.402 15.7Z" fill="#760D16"/>
<path d="M0 70.4L7.5 33L115.4 15.7L108.1 53.8V56.3L1.3 71.4L0 70.4Z" fill="#EF463E"/>
<path fill-rule="evenodd" clip-rule="evenodd" d="M124 158.7L108.1 53.8L0 70.4L17.2 175.4L124 158.7ZM93.2 139.8C94.6 140.3 95.8 141 96.6 142C97.5 143 98 144.2 98.2 145.5L98.2 145.5C98.3 146.1 98.4 146.7 98.4 147.3C98.4 149.5 97.5 151.4 95.8 152.8C93.7 154.5 90 155.8 84.8 156.7L55.2 161.8C50.5 162.6 46.8 163 44.1 163C41.9 163 40.4 162.8 39.3 162.2C38.2 161.6 37.2 160.5 36.5 159.1C35.8 157.7 35.3 155.9 34.9 153.7C34.6 152.2 34.5 150.6 34.5 149C34.5 146.7 34.8 144.4 35.3 141.9C36.2 137.6 37.7 133.4 40 129C43.2 122.7 48.4 115.1 55.8 106.2C56.9992 104.748 57.9993 103.496 58.8001 102.493C59.2681 101.907 59.6681 101.406 60 101C63.3 96.9 65.3 93.7 66.1 91.4C66.7 89.8 67 88.1 67 86.4C67 86.2112 66.9777 86 66.9542 85.7771C66.9279 85.5279 66.9 85.2639 66.9 85L39.7 89.8C38.1 90.1 36.6 90.2 35.3 90.2C33.3 90.2 31.7 89.9 30.3 89.3C28 88.3 26.6 86.3 26.1 83.5C26 82.9 26 82.3 26 81.8C26 79.8 26.7 78 28.2 76.6C30 74.8 33 73.7 36.9 73L69.5 67.4C72 67 74.1 66.8 75.8 66.8C77.9 66.8 79.6 67.1 80.7 67.8C81.7 68.4 82.5 69.4 83.2 70.7C83.9 72 84.4 73.6 84.7 75.6C85.1 77.8 85.3 80 85.3 82.2C85.3 83 85.3 83.8 85.2 84.7C85 87.8 84.5 90.9 83.6 94C82 99.4 78.1 106.3 71.6 114.8C71.1199 115.424 70.6858 115.956 70.309 116.418C69.9009 116.918 69.5599 117.336 69.3 117.7C68.5 118.7 67.4 120.1 66 122C61.9 127.4 58.7 132.1 56.6 136C54.7 139.5 53.6 142.3 53.3 144.5L81.5 139.7C83.9 139.3 86.1 139.1 88 139.1C90.1 139.1 91.8 139.3 93.2 139.8Z" fill="url(#paint3_linear)"/>
<defs>
<linearGradient id="paint0_linear" x1="439.995" y1="58.4017" x2="439.995" y2="172.011" gradientUnits="userSpaceOnUse">
<stop offset="0.005618" stop-color="#FFE513"/>
<stop offset="1" stop-color="#FDB924"/>
</linearGradient>
<linearGradient id="paint1_linear" x1="262.815" y1="70.409" x2="373.78" y2="160.404" gradientUnits="userSpaceOnUse">
<stop offset="0.005618" stop-color="#008CD2"/>
<stop offset="1" stop-color="#00649D"/>
</linearGradient>
<linearGradient id="paint2_linear" x1="198.605" y1="73.5404" x2="198.605" y2="173.074" gradientUnits="userSpaceOnUse">
<stop stop-color="#26A146"/>
<stop offset="1" stop-color="#008A52"/>
</linearGradient>
<linearGradient id="paint3_linear" x1="54.23" y1="63.7807" x2="70.7142" y2="167.231" gradientUnits="userSpaceOnUse">
<stop stop-color="#D92231"/>
<stop offset="1" stop-color="#BA2234"/>
</linearGradient>
</defs>
</svg>
